<svg viewBox="0 0 142 143" fill="none" xmlns="http://www.w3.org/2000/svg"><path fill-rule="evenodd" clip-rule="evenodd" d="M142 71.5l-6.206 29.242-17.545 24.186-25.85 14.947L62.711 143l-28.389-9.238-22.182-20.004L0 86.448V56.552l12.14-27.31L34.325 9.238 62.712 0l29.686 3.125 25.851 14.948 17.545 24.185L142 71.5z" fill="#191926"/><path d="M38.758 57.47a1.221 1.221 0 01-.392.872 1.182 1.182 0 01-.871.349c-.392 0-.733-.146-1.024-.436-.247.29-.573.435-.98.435a1.39 1.39 0 01-1.023-.413 1.2 1.2 0 01-.959.435c-.377 0-.704-.116-.98-.348a1.115 1.115 0 01-.414-.893c0-.334.145-.61.436-.828a1.687 1.687 0 011.002-.327c.406 0 .711.153.915.458.275-.232.624-.349 1.045-.349.407 0 .733.124.98.37.29-.246.646-.37 1.067-.37.799 0 1.198.349 1.198 1.046zm1.982 4.14c0 .45-.21.783-.632 1 .407.132.61.386.61.763 0 .523-.254.93-.762 1.22.45.145.675.486.675 1.024 0 .479-.189.827-.566 1.045.377.13.566.392.566.784 0 .523-.247.922-.74 1.198.45.145.675.494.675 1.045 0 .436-.167.763-.501.98.334.131.5.37.5.72 0 .493-.152.87-.456 1.132-.305.247-.632.37-.98.37-.35 0-.632-.116-.85-.348-.203-.233-.305-.523-.305-.872 0-.42.254-.733.762-.936-.493-.189-.74-.537-.74-1.046 0-.464.225-.79.675-.98-.436-.218-.653-.551-.653-1.002 0-.479.261-.82.784-1.023a.769.769 0 01-.458-.327c-.218.305-.53.457-.936.457-.421 0-.777-.145-1.068-.435a.959.959 0 01-.827.435c-.45 0-.828-.174-1.133-.522-.247.348-.595.522-1.045.522-.45 0-.806-.152-1.067-.457a.957.957 0 01-.37.327c.391.174.588.493.588.958 0 .508-.197.857-.589 1.046.363.188.545.515.545.98 0 .508-.203.856-.61 1.045.392.203.588.523.588.958 0 .494-.102.864-.305 1.111-.189.233-.457.349-.806.349-.377 0-.711-.145-1.002-.436-.29-.305-.435-.646-.435-1.024 0-.435.24-.755.719-.958-.465-.218-.697-.559-.697-1.024 0-.464.24-.798.718-1.001-.45-.218-.675-.552-.675-1.002 0-.465.24-.799.719-1.002-.465-.218-.697-.566-.697-1.046 0-.464.225-.791.675-.98-.45-.189-.675-.5-.675-.936 0-.494.225-.872.675-1.133-.42-.247-.631-.602-.631-1.067 0-.668.363-1.06 1.089-1.176-.233-.232-.349-.494-.349-.784 0-.363.13-.64.392-.828.261-.189.58-.283.958-.283.814 0 1.22.348 1.22 1.045 0 .726-.348 1.133-1.045 1.22.218.203.326.472.326.806 0 .465-.174.806-.522 1.024.334.217.5.544.5.98 0 .522-.217.893-.653 1.11a.877.877 0 01.37.284c.276-.262.625-.392 1.046-.392.421 0 .74.116.958.348.276-.218.625-.327 1.046-.327.435 0 .762.124.98.37.276-.26.639-.391 1.089-.391.435 0 .762.13.98.392.087-.102.21-.19.37-.262-.436-.218-.653-.552-.653-1.002 0-.479.261-.82.784-1.023-.508-.218-.763-.581-.763-1.09 0-.362.16-.638.48-.827-.74-.13-1.111-.515-1.111-1.154 0-.363.13-.64.392-.828.276-.189.595-.283.958-.283.828 0 1.242.348 1.242 1.045 0 .407-.146.734-.436.98.726.044 1.09.422 1.09 1.133zm14.305-.023c0 .465-.21.806-.632 1.024.407.13.61.385.61.762 0 .523-.254.93-.762 1.22.45.145.675.486.675 1.024 0 .479-.189.827-.566 1.045.377.13.566.385.566.762 0 .276-.094.545-.283.806a1.486 1.486 0 01-.697.545c.305.174.457.442.457.805 0 .857-.4 1.286-1.198 1.286-.363 0-.682-.11-.958-.327a1.141 1.141 0 01-.392-.893c0-.523.327-.864.98-1.024-.334-.247-.5-.552-.5-.915 0-.479.253-.82.761-1.023-.479-.218-.718-.566-.718-1.046 0-.464.225-.791.675-.98-.436-.218-.654-.552-.654-1.002 0-.479.262-.82.785-1.023-.509-.218-.763-.581-.763-1.09 0-.377.189-.667.567-.87-.64-.175-.959-.545-.959-1.111 0-.363.13-.64.392-.828.276-.189.596-.283.959-.283.813 0 1.22.348 1.22 1.045 0 .421-.146.755-.436 1.002.58.102.87.465.87 1.09zm-1.982-4.116a1.26 1.26 0 01-.37.871c-.233.232-.53.349-.893.349-.392 0-.734-.146-1.024-.436-.247.29-.574.435-.98.435a1.39 1.39 0 01-1.024-.413c-.247.29-.573.435-.98.435-.45 0-.813-.152-1.089-.457a.85.85 0 01-.414.283c.436.174.654.501.654.98 0 .465-.19.806-.567 1.024.349.247.523.58.523 1.002 0 .45-.174.784-.523 1.002.334.217.501.544.501.98 0 .522-.218.893-.653 1.11.407.146.61.472.61.98 0 .494-.21.85-.632 1.068.392.174.588.493.588.958 0 .508-.196.857-.588 1.046.363.188.545.515.545.98 0 .508-.196.856-.589 1.045.131.087.247.182.349.283.29-.247.639-.37 1.046-.37.406 0 .733.123.98.37.29-.247.639-.37 1.045-.37.407 0 .733.123.98.37.29-.247.639-.37 1.046-.37.798 0 1.197.349 1.197 1.045 0 .349-.123.64-.37.872a1.182 1.182 0 01-.871.348c-.392 0-.733-.145-1.024-.436-.247.29-.573.436-.98.436-.435 0-.784-.145-1.045-.436-.247.29-.574.436-.98.436-.378 0-.712-.123-1.002-.37-.189.406-.48.61-.871.61-.204 0-.4-.044-.589-.131a2.15 2.15 0 01-.479-.327 1.837 1.837 0 01-.348-.479 1.203 1.203 0 01-.13-.544c0-.407.26-.72.783-.937-.464-.218-.697-.559-.697-1.024 0-.464.24-.798.72-1.001-.451-.218-.676-.552-.676-1.002 0-.48.247-.813.74-1.002-.479-.218-.718-.566-.718-1.046 0-.464.225-.791.675-.98-.45-.189-.675-.5-.675-.936 0-.494.225-.872.675-1.133-.407-.232-.61-.595-.61-1.089 0-.45.196-.784.588-1.002-.363-.232-.544-.551-.544-.958 0-.421.217-.74.653-.958-.45-.19-.675-.465-.675-.828 0-.189.043-.37.13-.544.102-.175.225-.327.37-.458a1.6 1.6 0 01.502-.305c.188-.087.37-.13.544-.13.32 0 .603.145.85.435.276-.276.646-.414 1.11-.414.407 0 .712.145.915.436.276-.232.632-.349 1.067-.349.392 0 .712.124.959.37.29-.246.646-.37 1.067-.37.798 0 1.198.349 1.198 1.046zm16.265 4.116c0 .465-.21.806-.632 1.024.407.13.61.385.61.762 0 .523-.254.93-.762 1.22.45.145.675.486.675 1.024 0 .479-.189.827-.566 1.045.377.13.566.385.566.762 0 .276-.095.545-.283.806a1.486 1.486 0 01-.697.545c.305.174.457.442.457.805 0 .857-.4 1.286-1.198 1.286-.363 0-.682-.11-.958-.327a1.141 1.141 0 01-.392-.893c0-.523.327-.864.98-1.024-.334-.247-.501-.552-.501-.915 0-.479.254-.82.762-1.023-.479-.218-.718-.566-.718-1.046 0-.464.225-.791.675-.98-.436-.218-.654-.552-.654-1.002 0-.479.262-.82.784-1.023-.508-.218-.762-.581-.762-1.09 0-.377.189-.667.566-.87-.639-.175-.958-.545-.958-1.111 0-.363.13-.64.392-.828.276-.189.595-.283.958-.283.814 0 1.22.348 1.22 1.045 0 .421-.145.755-.435 1.002.58.102.87.465.87 1.09zm-1.982-4.116a1.26 1.26 0 01-.37.871c-.233.232-.53.349-.894.349-.392 0-.733-.146-1.023-.436-.247.29-.574.435-.98.435a1.39 1.39 0 01-1.024-.413c-.247.29-.574.435-.98.435-.45 0-.813-.152-1.089-.457a.85.85 0 01-.414.283c.436.174.653.501.653.98 0 .465-.188.806-.566 1.024.349.247.523.58.523 1.002 0 .45-.174.784-.523 1.002.334.217.501.544.501.98 0 .522-.218.893-.653 1.11.406.146.61.472.61.98 0 .494-.21.85-.632 1.068.392.174.588.493.588.958 0 .508-.196.857-.588 1.046.363.188.544.515.544.98 0 .508-.196.856-.588 1.045.131.087.247.182.349.283.29-.247.639-.37 1.045-.37.407 0 .734.123.98.37.29-.247.64-.37 1.046-.37.407 0 .733.123.98.37.29-.247.639-.37 1.046-.37.798 0 1.197.349 1.197 1.045 0 .349-.123.64-.37.872a1.182 1.182 0 01-.871.348c-.392 0-.733-.145-1.024-.436-.247.29-.573.436-.98.436-.435 0-.784-.145-1.045-.436-.247.29-.574.436-.98.436-.378 0-.712-.123-1.002-.37-.189.406-.48.61-.871.61-.204 0-.4-.044-.589-.131a2.149 2.149 0 01-.479-.327 1.837 1.837 0 01-.348-.479 1.203 1.203 0 01-.13-.544c0-.407.26-.72.783-.937-.464-.218-.697-.559-.697-1.024 0-.464.24-.798.719-1.001-.45-.218-.675-.552-.675-1.002 0-.48.247-.813.74-1.002-.479-.218-.718-.566-.718-1.046 0-.464.225-.791.675-.98-.45-.189-.675-.5-.675-.936 0-.494.225-.872.675-1.133-.407-.232-.61-.595-.61-1.089 0-.45.196-.784.588-1.002-.363-.232-.544-.551-.544-.958 0-.421.217-.74.653-.958-.45-.19-.675-.465-.675-.828 0-.189.043-.37.13-.544.102-.175.225-.327.37-.458.146-.13.313-.232.502-.305.188-.087.37-.13.544-.13.32 0 .603.145.85.435.275-.276.646-.414 1.11-.414.407 0 .712.145.915.436.276-.232.632-.349 1.067-.349.392 0 .712.124.959.37.29-.246.646-.37 1.067-.37.798 0 1.198.349 1.198 1.046zm30.439 0c-.03.813-.407 1.22-1.133 1.22-.406 0-.77-.175-1.089-.523-.218.348-.559.523-1.024.523-.42 0-.776-.146-1.067-.436-.058.116-.181.21-.37.283.406.189.61.516.61.98 0 .508-.21.864-.632 1.067.407.175.61.487.61.937 0 .61-.269 1.002-.806 1.176.552.29.828.704.828 1.242 0 .406-.225.66-.675.762.363.174.544.493.544.958 0 .48-.189.82-.566 1.024.363.189.544.508.544.958 0 .465-.181.806-.544 1.024.348.16.522.428.522.806 0 .61-.26 1.009-.784 1.198.48.16.72.493.72 1.001 0 .813-.407 1.22-1.22 1.22-.378 0-.697-.109-.959-.327a1.172 1.172 0 01-.37-.893c0-.246.072-.45.218-.61.16-.174.37-.304.631-.392-.551-.203-.827-.537-.827-1.001 0-.436.254-.755.762-.959-.465-.218-.697-.559-.697-1.023 0-.538.276-.893.828-1.068-.537-.275-.806-.653-.806-1.132 0-.45.29-.74.871-.871-.58-.19-.871-.567-.871-1.133 0-.435.232-.733.697-.893-.436-.218-.654-.552-.654-1.002 0-.464.24-.798.72-1.002-.451-.217-.676-.566-.676-1.045 0-.48.247-.813.74-1.002a.934.934 0 01-.392-.261c-.246.29-.566.435-.958.435-.465 0-.835-.152-1.11-.457-.248.29-.603.435-1.068.435-.348 0-.646-.094-.893-.283-.247-.188-.37-.42-.37-.697 0-.377.152-.697.457-.958.32-.276.668-.414 1.046-.414.363 0 .653.138.87.414.277-.276.647-.414 1.112-.414.406 0 .711.145.914.436.276-.232.632-.349 1.068-.349.406 0 .733.124.98.37a1.56 1.56 0 011.045-.37c.349 0 .646.088.893.262.233-.189.56-.283.98-.283.9 0 1.35.355 1.35 1.067zm14.304 4.138c0 .45-.203.784-.61 1.002.393.13.589.385.589.762 0 .538-.247.944-.741 1.22.45.145.675.486.675 1.024 0 .479-.196.827-.588 1.045.392.13.588.385.588.762 0 .29-.116.581-.348.871-.233.276-.501.45-.806.523.261.204.392.487.392.85s-.124.697-.37 1.001c-.233.29-.523.436-.872.436a.815.815 0 01-.326-.065c.145.189.218.406.218.653 0 .334-.138.625-.414.871-.262.247-.567.37-.915.37-.378 0-.704-.16-.98-.478-.247.29-.566.435-.958.435-.422 0-.777-.145-1.068-.436-.247.29-.551.436-.914.436-.349 0-.676-.109-.981-.327-.304-.232-.457-.515-.457-.849 0-.203.073-.4.218-.588-.189 0-.378-.044-.566-.13a2.156 2.156 0 01-.48-.328 2.168 2.168 0 01-.326-.479 1.162 1.162 0 01-.131-.522c0-.363.16-.64.479-.828-.726-.16-1.089-.552-1.089-1.176 0-.45.24-.777.719-.98-.465-.218-.697-.566-.697-1.046 0-.464.225-.791.675-.98-.45-.189-.675-.5-.675-.936 0-.494.225-.872.675-1.133-.421-.247-.631-.602-.631-1.067 0-.668.348-1.06 1.045-1.176-.232-.232-.348-.48-.348-.74 0-.19.043-.371.13-.545.102-.189.225-.349.37-.48.146-.13.313-.239.501-.326a1.68 1.68 0 01.588-.153 1.187 1.187 0 01-.174-.588c0-.348.145-.631.436-.849a1.618 1.618 0 011.002-.349c.406 0 .711.153.914.458.276-.232.625-.349 1.046-.349.406 0 .733.124.98.37.276-.26.61-.391 1.002-.391.334 0 .632.094.893.283.261.189.392.45.392.784 0 .218-.08.45-.24.697h.109c.378 0 .712.145 1.002.435.305.276.457.603.457.98 0 .364-.152.661-.457.894.712.043 1.067.42 1.067 1.132zm-1.851 1.024c-.494-.218-.74-.581-.74-1.09 0-.362.159-.638.479-.827-.755-.13-1.133-.559-1.133-1.285 0-.247.065-.494.196-.74-.014.014-.087.021-.218.021-.377 0-.704-.152-.98-.457-.247.29-.573.435-.98.435-.421 0-.762-.137-1.024-.413-.217.29-.522.435-.914.435-.16 0-.254-.007-.283-.022.043.175.065.349.065.523 0 .857-.356 1.358-1.067 1.503.217.203.326.472.326.806 0 .465-.181.806-.544 1.024.334.217.501.544.501.98 0 .522-.211.893-.632 1.11.392.16.588.487.588.98 0 .494-.21.85-.631 1.068.406.174.609.493.609.958 0 .378-.145.697-.435.958.726.044 1.089.436 1.089 1.177 0 .305-.087.595-.261.87a.991.991 0 01.196-.021 1.209 1.209 0 011.132.37c.291-.247.646-.37 1.067-.37.407 0 .734.123.98.37a1.353 1.353 0 011.198-.37c.087 0 .167.007.24.022-.247-.334-.37-.654-.37-.959 0-.653.384-1.016 1.154-1.089-.305-.232-.457-.53-.457-.892 0-.48.261-.82.784-1.024-.494-.218-.741-.566-.741-1.046 0-.45.232-.776.697-.98-.435-.218-.653-.552-.653-1.002 0-.479.254-.82.762-1.023zM60.248 79.47a1.26 1.26 0 01-.37.871 1.182 1.182 0 01-.872.349c-.392 0-.733-.146-1.023-.436-.247.29-.574.436-.98.436-.422 0-.763-.138-1.024-.414-.247.29-.574.435-.98.435-.465 0-.835-.152-1.11-.457a1.5 1.5 0 01-.393.283c.436.174.653.501.653.98 0 .465-.196.806-.588 1.024.349.247.523.58.523 1.002 0 .45-.174.784-.523 1.002l.327.326c.276-.232.668-.348 1.176-.348.32 0 .603.08.85.24.203-.16.45-.24.74-.24.45 0 .82.152 1.11.457.291-.334.676-.5 1.155-.5.276 0 .472.028.588.086a1.18 1.18 0 01-.566-1.045c0-.247.08-.45.24-.61.16-.174.37-.305.631-.392-.392-.232-.588-.573-.588-1.024 0-.29.124-.537.37-.74.247-.203.574-.305.98-.305.828 0 1.242.348 1.242 1.045 0 .29-.073.53-.218.72-.13.188-.312.333-.544.435.32.189.479.479.479.87 0 .829-.407 1.242-1.22 1.242h-.261a1.11 1.11 0 01-.218-.021c.218.174.327.442.327.805 0 .364-.124.661-.37.894a1.256 1.256 0 01-.893.348c-.335 0-.632-.109-.894-.327a1.328 1.328 0 01-.87.305c-.625 0-1.09-.203-1.395-.61-.275.407-.66.61-1.154.61-.334 0-.61-.138-.828-.414a.913.913 0 01-.348.284c.407.145.61.471.61.98 0 .493-.21.849-.632 1.067.407.174.61.493.61.958 0 .508-.203.857-.61 1.046.363.188.545.515.545.98 0 .508-.196.856-.588 1.045l.348.283c.29-.247.639-.37 1.045-.37.407 0 .734.123.98.37.291-.247.64-.37 1.046-.37.407 0 .733.123.98.37.29-.247.646-.37 1.067-.37.799 0 1.198.349 1.198 1.045 0 .349-.116.64-.348.872-.233.232-.537.348-.915.348-.392 0-.733-.145-1.024-.436-.246.29-.573.436-.98.436-.435 0-.784-.145-1.045-.436-.247.29-.574.436-.98.436-.378 0-.712-.123-1.002-.37-.189.406-.48.61-.871.61-.175 0-.356-.044-.545-.131a2.15 2.15 0 01-.479-.327 2.348 2.348 0 01-.37-.479 1.298 1.298 0 01-.131-.544c0-.407.254-.72.762-.937-.464-.218-.697-.559-.697-1.024 0-.479.247-.813.74-1.001-.464-.218-.696-.552-.696-1.002 0-.48.247-.813.74-1.002-.464-.218-.697-.566-.697-1.046 0-.464.226-.791.676-.98-.45-.189-.675-.5-.675-.936 0-.494.225-.871.675-1.133-.421-.247-.632-.61-.632-1.089 0-.45.203-.784.61-1.002-.378-.247-.566-.566-.566-.958 0-.421.217-.74.653-.958-.45-.19-.675-.465-.675-.828 0-.189.043-.37.13-.544.102-.175.226-.327.37-.458.146-.13.313-.232.502-.305.189-.087.37-.13.544-.13.32 0 .603.145.85.435.276-.276.646-.414 1.11-.414.422 0 .734.146.937.436.276-.232.624-.349 1.045-.349.407 0 .734.124.98.37a1.56 1.56 0 011.046-.37c.799 0 1.198.349 1.198 1.046zm1.895 10.019c0 .479-.254.864-.763 1.154.45.145.676.457.676.936 0 .857-.4 1.286-1.198 1.286-.363 0-.683-.11-.959-.327a1.054 1.054 0 01-.392-.85c0-.464.225-.79.675-.98-.42-.218-.631-.551-.631-1.002 0-.392.167-.69.5-.892-.319-.03-.595-.16-.827-.393a1.118 1.118 0 01-.326-.784c0-.348.13-.617.391-.806.262-.203.581-.304.959-.304.798 0 1.198.34 1.198 1.023 0 .45-.145.799-.436 1.046.755 0 1.133.297 1.133.893zm12.322-10.02a1.221 1.221 0 01-.392.872 1.182 1.182 0 01-.87.349c-.393 0-.734-.146-1.025-.436-.246.29-.573.436-.98.436a1.39 1.39 0 01-1.023-.414c-.247.29-.566.435-.959.435-.377 0-.704-.116-.98-.348a1.115 1.115 0 01-.413-.893c0-.334.145-.61.435-.828a1.687 1.687 0 011.002-.326c.406 0 .712.152.915.457.276-.232.624-.349 1.045-.349.407 0 .733.124.98.37.29-.246.646-.37 1.067-.37.8 0 1.198.349 1.198 1.046zm1.982 4.14c0 .45-.21.783-.631 1 .406.132.61.386.61.763 0 .523-.255.93-.763 1.22.45.145.675.486.675 1.024 0 .479-.188.827-.566 1.045.378.13.566.392.566.784 0 .523-.246.922-.74 1.198.45.145.675.494.675 1.045 0 .436-.167.763-.5.98.333.131.5.37.5.72 0 .493-.152.87-.457 1.132-.305.247-.632.37-.98.37-.349 0-.632-.116-.85-.348-.203-.233-.305-.523-.305-.872 0-.42.254-.733.763-.936-.494-.189-.74-.537-.74-1.046 0-.464.224-.79.674-.98-.435-.218-.653-.551-.653-1.002 0-.479.261-.82.784-1.023a.769.769 0 01-.457-.327c-.218.305-.53.457-.937.457-.421 0-.777-.145-1.067-.435a.959.959 0 01-.828.435c-.45 0-.828-.174-1.132-.522-.247.348-.596.522-1.046.522-.45 0-.806-.152-1.067-.457a.957.957 0 01-.37.327c.392.174.588.493.588.958 0 .508-.196.857-.588 1.046.363.188.544.515.544.98 0 .508-.203.856-.61 1.045.392.203.588.523.588.958 0 .494-.101.864-.304 1.111-.19.233-.458.349-.806.349-.378 0-.712-.145-1.002-.436-.29-.305-.436-.646-.436-1.024 0-.435.24-.755.719-.958-.465-.218-.697-.559-.697-1.024 0-.464.24-.798.719-1.001-.45-.218-.675-.552-.675-1.002 0-.465.24-.799.718-1.002-.464-.218-.697-.566-.697-1.046 0-.464.225-.791.675-.98-.45-.189-.675-.5-.675-.936 0-.494.225-.871.675-1.133-.42-.247-.631-.602-.631-1.067 0-.668.363-1.06 1.089-1.176-.233-.233-.349-.494-.349-.784 0-.363.131-.64.392-.828.262-.189.581-.283.959-.283.813 0 1.22.348 1.22 1.045 0 .726-.35 1.133-1.046 1.22.218.203.327.472.327.806 0 .465-.175.806-.523 1.024.334.217.5.544.5.98 0 .522-.217.893-.653 1.11a.876.876 0 01.37.284c.277-.262.625-.392 1.046-.392.421 0 .74.116.959.348.275-.218.624-.327 1.045-.327.435 0 .762.124.98.37.276-.26.639-.391 1.089-.391.436 0 .762.13.98.392.087-.102.21-.19.37-.262-.435-.218-.653-.552-.653-1.002 0-.479.261-.82.784-1.023-.508-.218-.762-.581-.762-1.09 0-.362.16-.638.479-.827-.74-.13-1.11-.515-1.11-1.154 0-.363.13-.64.391-.828.276-.189.596-.283.959-.283.827 0 1.241.348 1.241 1.045 0 .407-.145.734-.436.98.726.044 1.09.422 1.09 1.133zm14.174 5.836c0 .58-.275.995-.827 1.242.348.203.523.515.523.936 0 .407-.138.762-.414 1.067-.276.305-.61.458-1.002.458-.189 0-.298-.008-.327-.022.015.014.022.087.022.218 0 .174-.058.356-.174.544-.102.175-.24.334-.414.48-.16.145-.334.26-.523.348-.189.087-.37.13-.544.13a.908.908 0 01-.74-.348c-.248.261-.567.392-.96.392-.435 0-.783-.145-1.045-.436a1.2 1.2 0 01-.958.436c-.363 0-.683-.116-.958-.348a1.115 1.115 0 01-.414-.893c0-.218.043-.45.13-.697a4.265 4.265 0 00-.195.043h-.11c-.362 0-.682-.13-.958-.392-.276-.261-.413-.566-.413-.915 0-.406.181-.704.544-.892-.624-.175-.937-.552-.937-1.133 0-.45.24-.777.72-.98-.466-.218-.698-.566-.698-1.046 0-.464.225-.791.675-.98-.45-.189-.675-.5-.675-.936 0-.494.225-.871.675-1.133-.42-.247-.631-.602-.631-1.067 0-.668.363-1.06 1.089-1.176-.305-.233-.458-.523-.458-.871 0-.378.138-.69.414-.937.29-.247.625-.37 1.002-.37h.196c-.073-.262-.109-.45-.109-.567 0-.348.138-.631.414-.849.276-.232.595-.348.958-.348.392 0 .712.13.959.392a1.56 1.56 0 011.045-.37c.407 0 .733.123.98.37.29-.247.646-.37 1.067-.37.799 0 1.198.348 1.198 1.045 0 .348-.13.639-.392.871a1.23 1.23 0 01-.87.349c-.393 0-.734-.146-1.025-.436-.246.29-.573.436-.98.436-.377 0-.711-.124-1.002-.37-.232.406-.595.61-1.089.61h-.26c.057.1.086.268.086.5 0 .712-.334 1.118-1.002 1.22.247.218.37.515.37.893 0 .45-.174.784-.522 1.002.334.217.5.544.5.98 0 .522-.217.893-.653 1.11.392.16.588.487.588.98 0 .494-.203.85-.61 1.068.393.174.589.493.589.958 0 .421-.16.748-.48.98.596.116.894.465.894 1.046 0 .275-.051.508-.153.697a.641.641 0 01.153-.022.81.81 0 01.195-.022c.48 0 .865.21 1.155.632.276-.218.624-.327 1.045-.327.407 0 .734.13.98.392a1.795 1.795 0 011.22-.457.64.64 0 01.153.021c.058 0 .123.008.196.022a1.387 1.387 0 01-.131-.588c0-.653.312-1.096.936-1.328-.42-.204-.631-.53-.631-.98 0-.48.261-.82.784-1.024a.769.769 0 01-.457-.327c-.218.305-.53.457-.937.457-.421 0-.777-.145-1.067-.435-.204.29-.465.435-.784.435-.175 0-.356-.036-.545-.108a2.27 2.27 0 01-.523-.284 2.1 2.1 0 01-.37-.435 1.203 1.203 0 01-.13-.545c0-.246.137-.457.413-.631.276-.175.581-.262.915-.262.45 0 .784.124 1.002.37.276-.26.639-.391 1.089-.391.436 0 .762.13.98.392.261-.262.61-.392 1.046-.392.798 0 1.197.34 1.197 1.023 0 .537-.188.908-.566 1.111.378.13.566.392.566.784z" fill="#EDEFF1"/></svg>