<svg viewBox="0 0 1482 687" fill="none" xmlns="http://www.w3.org/2000/svg"><g clip-path="url(#clip0)"><path d="M1326.09 40.965c-.84-2.067-3.49-2.452-5.09-.963-8.47 8.464-24.86 3.255-18.25-9.833a5.501 5.501 0 012.18-2.389c.95-.56 2.05-.825 3.16-.758a4.8 4.8 0 00-.72 1.325c-1.23.289-2.35 1.144-3.05 2.705-5.6 22.074 30.11 6.75 17.77-8.027a15.896 15.896 0 00-6.67-4.664c-12.59-4.671-20.99 8.93-21.64 5.114 3.08-23.732-24.5-31.843-36.03-13.205-2.46 4.788 3.63 8.489 3.65 13.361.74 6.253-5.63 12.442-11.94 10.937-10.89-1.79-8.95-13.762-2.82-14.974-.03.203-.05.408-.06.614 0 .14.03.269.04.401-2.73 1.525-4.59 5.302-2.91 7.999 2.65 3.973 9.28 5.494 12.78 1.762 9.72-12.31-10.83-29.5-23.14-16.383-8.53 7.81-7.28 16.515-5.97 20.645.05.177.05.366 0 .544a.944.944 0 01-.79.683.922.922 0 01-.53-.083c-8.5-5.378-17.6 6.506-14.96 13.521.04.15.04.308.01.46a.927.927 0 01-.22.406.902.902 0 01-.38.26.92.92 0 01-.45.05c-9.8-2.07-12.48 5.061-10.39 11.64.18.53.5 1.006.91 1.382.42.376.93.638 1.47.763a3.3 3.3 0 001.66-.052 3.262 3.262 0 001.42-.854c4.37-4.415 11.74-12.674 23.61-6.658 14.7 7.417 37.29 11.073 49.77 3.688 2.01-1.204 4.65-.987 6.2.755 1.26 1.408 1.65 3.576-.63 6.401-.54.863-5.06 3.36-3.02 4.531 3.54 1.638 13.57 5.17 17.84-5.02.46-1.159.45-2.45-.04-3.597a4.761 4.761 0 00-2.57-2.524 11.391 11.391 0 01-4.94-3.893c-3.53-4.459-.74-9.275 3.71-10.238-.1.357-.16.725-.17 1.095-9.2 4.202 5.76 18.55 12.1 8.91a.957.957 0 01.48-.508.977.977 0 01.7-.054c7.05 3.331 22.76.679 17.92-15.275z" fill="#9E7494"/></g><g clip-path="url(#clip1)"><path d="M1228.99 88.822c.48-13.44-17.61-20.063-25.9-9.845v.01a1.985 1.985 0 01-2.08.613c-4.46-1.307-9.2 2.862-8.52 7.491.05.417-.02.84-.23 1.209-.2.368-.51.66-.89.835-3.14 1.482-6.73 2.245-10.55 1.35a.655.655 0 00-.39.027.717.717 0 00-.31.245.645.645 0 00-.12.378c0 .136.04.268.12.38 1.96 2.955 7.24 9.294 16.59 9.912.5.03.98.171 1.42.413.44.243.81.58 1.11.987 4.76 6.759 16.19 6.977 21.05.166.31-.433.47-.96.45-1.494-.18-4.141-.92-8.488-3.51-11.811-3.06-3.94-10.44-5.872-13.29-.733-2.71 4.944.51 8.714 4.42 8.927.47.025.47.72 0 .732-4.54.058-8.7-4.656-5.56-10.316 3.18-6.077 11.95-4.215 15.39.633 2.41 3.263 3.1 7.422 3.04 11.426a.878.878 0 00.46.786.848.848 0 00.9-.055c1.98-1.368 3.59-3.2 4.71-5.337a15.037 15.037 0 001.69-6.93z" fill="#9E7494"/></g><g clip-path="url(#clip2)"><path d="M141.992 636.822c.478-13.441-17.61-20.063-25.897-9.845l-.009.01a1.98 1.98 0 01-2.072.613c-4.464-1.308-9.204 2.862-8.525 7.491.056.417-.023.841-.225 1.209-.202.368-.516.66-.896.835-3.136 1.482-6.727 2.245-10.544 1.35a.66.66 0 00-.703.272.675.675 0 00-.003.758c1.966 2.955 7.247 9.294 16.594 9.912a3.342 3.342 0 012.524 1.4c4.761 6.759 16.189 6.977 21.052.166.313-.433.471-.96.449-1.494-.179-4.141-.919-8.488-3.505-11.811-3.063-3.94-10.447-5.872-13.292-.733-2.709 4.944.508 8.714 4.424 8.927.468.025.468.72 0 .732-4.549.058-8.706-4.656-5.566-10.316 3.183-6.077 11.948-4.215 15.396.633 2.407 3.263 3.097 7.422 3.038 11.426a.876.876 0 00.458.786.865.865 0 00.902-.055 14.84 14.84 0 004.704-5.337 14.967 14.967 0 001.696-6.929z" fill="#9E7494"/></g><g clip-path="url(#clip3)"><path d="M372.78 128.18a2 2 0 01-.62-3.31c3.76-3.33 9.32-10.23 4.6-19.15a12.198 12.198 0 00-7.83-6.55 11.34 11.34 0 00-10.93 3.35c-10.57 11.27-21.49.07-15-6.6.141.297.326.57.55.81-1.48 3.72 1 8.34 5.74 7.58a7.307 7.307 0 001.1-.41c3.63-1.7 5.76-5.52 6.16-9.51 2.9-29.1-37.93-33-48.44-7.23a.923.923 0 01-1.12.41C290.61 83 274.56 98.08 275.68 115c.42 6.36 2.6 12.26 8.21 16.14 5.37 3.27 13.52 5.41 18.76 1.23 6.2-4.58 5.32-16.26-1.48-19a3.598 3.598 0 00-.13-.65c8.44 1.8 10.49 15.78 3.32 21.67-6.24 5.61-15.73 3.46-22.28-.39-9.6-6.05-10.7-18.31-8.91-28.56a2.012 2.012 0 00-.499-1.626 1.997 1.997 0 00-1.571-.654c-5.39.38-15.65 2.62-18.8 14a2.999 2.999 0 01-3.73 2.1c-24.57-8.32-40.13 9.42-38.45 30.59a1.454 1.454 0 00.871 1.186 1.453 1.453 0 001.459-.186c19.6-15.37 29.71 10.94 48.43-2.06a2.192 2.192 0 012.71.07c10.92 9.3 57.85 29.43 69.63-17.59 4.64-17-6.81-32-20.48-41.19a2.54 2.54 0 00.53-.76c23.79 8.12 31.33 37.68 15.94 58.11a1.99 1.99 0 00-.388.902 1.991 1.991 0 001.498 2.258c5 1 12.46 1.47 17.57-3.33a1.903 1.903 0 011.478-.506 1.905 1.905 0 011.362.766c19.35 26.76 48.15-9.26 22.05-19.34z" fill="#9E7494"/></g><g clip-path="url(#clip4)"><path d="M1475.14 477.281a1.299 1.299 0 01-.8-.978 1.304 1.304 0 01.39-1.2c2.47-2.191 6.13-6.731 3.03-12.6a8.081 8.081 0 00-2.11-2.72 8.022 8.022 0 00-3.05-1.59 7.445 7.445 0 00-3.89.13 7.4 7.4 0 00-3.3 2.074c-6.96 7.416-14.15.046-9.87-4.342.09.195.21.375.36.533-.98 2.447.66 5.487 3.78 4.987.24-.07.49-.161.72-.27 2.39-1.118 3.79-3.632 4.05-6.257 1.91-19.147-24.96-21.713-31.88-4.757a.585.585 0 01-.32.27.58.58 0 01-.41 0c-10.79-3.007-21.35 6.915-20.61 18.048.27 4.184 1.71 8.066 5.4 10.619 3.54 2.152 8.9 3.56 12.35.81 4.08-3.014 3.5-10.699-.97-12.502a3.055 3.055 0 00-.09-.427c5.55 1.184 6.9 10.382 2.18 14.258-4.1 3.691-10.35 2.276-14.66-.257-6.32-3.981-7.04-12.047-5.86-18.791a1.349 1.349 0 00-.33-1.07 1.297 1.297 0 00-.47-.331 1.341 1.341 0 00-.57-.1c-3.54.251-10.3 1.724-12.37 9.212-.07.253-.19.49-.35.697-.16.207-.36.38-.59.509-.23.128-.48.21-.74.24-.26.031-.52.009-.77-.064-16.18-5.475-26.42 6.198-25.31 20.127.02.169.08.331.18.468.1.137.24.245.39.312.16.067.33.091.5.07a.926.926 0 00.46-.192c12.9-10.113 19.56 7.198 31.88-1.355a1.432 1.432 0 011.78.046c7.19 6.119 38.08 19.364 45.83-11.574 3.05-11.186-4.48-21.055-13.48-27.102.15-.144.26-.313.35-.5 15.66 5.343 20.62 24.792 10.49 38.235a1.42 1.42 0 00-.26.593c-.03.216-.01.438.06.644.07.206.2.391.36.538.16.147.36.252.57.304 3.29.658 8.2.967 11.56-2.191a1.288 1.288 0 01.98-.333 1.227 1.227 0 01.89.504c12.74 17.607 31.69-6.093 14.52-12.725z" fill="#9E7494"/></g><g clip-path="url(#clip5)"><path d="M121.696 594.077a2.217 2.217 0 01-1.88-2.125c-.02-2.096-.837-5.268-5.442-6.069a2.164 2.164 0 01-1.703-2.515c.875-5.147 1.909-17.432-7.033-22.004-9.486-4.85-15.71-2.255-18.997.289a2.176 2.176 0 01-2.061.305 2.189 2.189 0 01-1.38-1.563c-6.33-25.009-54.885-25.6-54.043 4.909a2.185 2.185 0 01-1.912 2.224c-.356.045-.717 0-1.052-.129-10.19-4.292-20.985 7.105-18.574 18.023a2.293 2.293 0 01-.966 2.36c-.25.168-.53.284-.826.343-11.382 2.23-3.981 15.458 4.3 10.697 1.054-.604 2.44-.306 2.93.809 1.917 4.464 8.765 6.798 11.683 7.678a2.478 2.478 0 002.374-.532c4.085-3.638 8.372-7.377 10.796-12.297 2.683-6.334-3.529-13.057-9.976-10.089-3.014 1.48-3.403 5.03-2.06 7.691a4.174 4.174 0 00-.573.633c-2-2.993-1.766-7.649 1.938-9.64 5.664-3.131 13.296 1.136 13.153 7.704.055 6.869-5.76 11.576-10.913 15.65a2.201 2.201 0 00.339 3.684c2.997 1.543 7.284 2.972 11.721 1.849a2.244 2.244 0 011.942.343c3.027 2.339 13.853 9.389 24.05-.201a2.214 2.214 0 011.972-.582 5.793 5.793 0 002.976-.139 2.216 2.216 0 00.967-3.52c-8.9-10.99-5.96-33.95 11.282-31.934 11.056 1.303 14.045 13.71 8.573 18.178a7.976 7.976 0 00-.385-1.987 8.033 8.033 0 00.758-8.282 11.082 11.082 0 00-4.01-4.338c-15.853-8.852-25.335 14.217-15 27.243.77.969 2.19 2.042 3.408 2.251 4.433.767 15.514 2.062 21.161-5.059a2.187 2.187 0 012.83-.532c2.164 1.257 6.032 2.762 9.494.134a2.224 2.224 0 012.78 0c9.992 8.311 18.578-7.435 7.359-9.46z" fill="#9E7494"/></g><g clip-path="url(#clip6)"><path d="M982.688 650.142a36.802 36.802 0 00-8.266 1.636c-1.739-1.425 7.445-3.176 11.184-3.204a1.755 1.755 0 001.731-1.705c.185-5.201-4.725-15.309-18.754-15.869h-.508c-1.655.046-12.079.163-14.575 9.039-.361 1.272 3.846 6.647 4.55 7.838 5.821 9.833-.895 22.473-11.408 21.401-12.904-1.822-13.591-18.424-1.499-18.699a5.779 5.779 0 011.942.255c4.776 1.583 5.637 7.125 2.892 9.591a3.179 3.179 0 00-.254-.598c1.886-2.466 1.124-6.845-2.987-8.102a5.335 5.335 0 00-1.542-.227c-8.96-.061-9.776 12.088-1.129 15.447 7.455 2.896 14.173-3.415 14.697-10.06.49-6.252-3.589-11.744-5.519-13.945a8.517 8.517 0 00-2.196-1.794c-9.974-5.634-23.196 1.051-27.601 10.38-.254.377-4.171 5.99-12.455 1.107-7.9-4.665-15.708-7.354-20.805-.562a.934.934 0 00-.181.484.927.927 0 00.972.994c2.313-.163 6.146.178 8.329 3.675 3.274 5.245 5.132 27.308 23.23 27.216 6.329-1.071 9.295-4.835 4.168-11.706-1.525-2.545-5.337-2.11-6.801.318-1.228 2.374-.102 4.581 1.83 5.123.006.19.037.378.091.56-6.293.537-3.584-13.208 4.847-8.172 1.437 1.303 2.402 3.029 3.007 4.869 1.154 3.504 3.384 6.593 6.609 8.397 9.303 5.214 26.15 5.011 37.774-8.219a2.133 2.133 0 00.346-2.291c-7.054-15.329 10.576-21.266 12.864-10.688h-.059a2.678 2.678 0 00-.429.044c-3.267-8.103-16.298-3.818-11.647 10.207a3.66 3.66 0 001.362 1.631c21.964 12.024 29.612-25.779 6.19-24.371z" fill="#9E7494"/></g><defs><clipPath id="clip0"><path fill="#fff" transform="translate(1199)" d="M0 0h128v74H0z"/></clipPath><clipPath id="clip1"><path fill="#fff" transform="translate(1180 74)" d="M0 0h49v34H0z"/></clipPath><clipPath id="clip2"><path fill="#fff" transform="translate(93 622)" d="M0 0h49v34H0z"/></clipPath><clipPath id="clip3"><path fill="#fff" transform="translate(210 70)" d="M0 0h173.21v91.19H0z"/></clipPath><clipPath id="clip4"><path fill="#fff" transform="translate(1368 439)" d="M0 0h114v60H0z"/></clipPath><clipPath id="clip5"><path fill="#fff" transform="translate(0 542)" d="M0 0h127v75H0z"/></clipPath><clipPath id="clip6"><path fill="#fff" transform="translate(890 631)" d="M0 0h107v56H0z"/></clipPath></defs></svg>