<svg xmlns="http://www.w3.org/2000/svg" width="434" height="96" fill="none" viewBox="0 0 434 96"><g stroke="#191926" stroke-miterlimit="10" clip-path="url(#a)"><path stroke-width="0.65" d="M.792 4.77c-.94 14.32-1.24 28.69.2 42.72 4.45-.31 8.89-.61 13.32-1.12-.79-4.16-1.02-8.42-.17-13.03 6.64.77 13.37.76 20.02.47 2.55 4.56 5.1 9.12 7.66 13.67 3.86-.39 7.72-.77 12.15-1-3.93-4.16-6.83-9.25-8.5-14.73 4.6-1.4 8.5-5.07 9.78-9.64 1.28-4.57-.26-9.86-4.03-12.81-3.56-2.79-8.4-3.26-12.94-3.58-12.48-.87-25.01-1.42-37.48-.96l-.01.01Z"/><path stroke-width="0.65" d="M15.804 14.85c0 3.5 0 6.99-.01 10.49l15.26.33c2.65.06 5.43.09 7.8-1.09 2.37-1.17 4.14-3.97 3.2-6.42-.79-2.06-3.19-3.13-5.43-3.22-2.24-.09-4.42.6-6.62.99-4.72.85-9.68.39-14.19-1.09l-.01.01Zm43.399-8.79c1.54 9.99 1.54 20.21.01 30.2-.56 3.67-1.27 7.69 1.13 11.42 7.91-1.96 16.22-1.05 24.34-.36 8.13.69 16.57 1.1 23.87-1.62.11-3 .21-6 .31-9.15-2.21.13-4.51 2.28-7.02 2.13-2.51-.15-4.95-.9-7.42-1.44-7.13-1.55-14.67-1.26-21.55.9-.11-2.37-.23-4.74 0-7.48 10.56.32 21.14.11 31.92-.57.04-2.67.07-5.34.45-8.38-10.97-.1-21.94-.2-33.17-.45.07-2.88.14-5.77.14-8.88 11.27-.4 22.56-.16 33.41.58.2-3.04.4-6.07.86-8.18a115.263 115.263 0 0 0-33.43-.92c-4.65.55-9.43 1.39-13.87 2.19l.02.01Zm55.51-1c4.91-.75 9.88-1.15 14.88-1.06 3.84 4.4 7.68 8.8 11.48 13.54 4.16-4.34 8.1-8.9 11.45-13.38 4.96.55 9.91 1.1 15.85 1.61-6.41 6.99-12.82 13.98-19.1 21.04 5.27 6.61 10.55 13.23 15.89 20.18-4.76.37-9.51.73-13.6.89-4.37-4.47-8.38-9.27-12.03-14.16-3.95 4.62-7.36 9.68-9.52 14.34-5.33-.32-10.65-.64-15.84-.89 6.97-6.08 12.74-13.48 17.05-21.37-6.25-6.59-11.96-13.68-16.5-20.74h-.01Z"/><path stroke-width="0.65" d="M223.653 11.54c-1.87 1.91-4.89 2.13-7.5 1.62-2.61-.51-5.1-1.63-7.75-1.99-2.65-.36-5.84.27-7.32 2.6-1.6 2.54.28 5.86 3.28 5.95l19.5.57c.3-1.71.51-3.23.72-4.74 3.74-.42 7.91-.54 12.07-.66l-.65 5.2c2.81-.19 6.05-.53 9.29-.87l-.19 9.99c-2.77-.13-5.16-.25-7.55-.38-.09 5.38 0 10.76.07 16.14-13.39.05-26.23-.33-39.07-.71-4.97-.15-9.55-4.15-10.37-9.06-.6-3.57.86-7.34 3.49-9.8.87-.82.67-2.28-.42-2.78-3.36-1.53-5.75-5.37-5.43-9.07.43-5 4.58-9.07 9.28-10.84 4.7-1.77 9.87-1.65 14.87-1.33 5 .32 10.09.84 15.12-.49-.63 3.78-1.26 7.55-1.44 10.64v.01Z"/><path stroke-width="0.65" d="M225.363 36.79c-7.6-.08-15.21-.15-22.81-.23-2.09-.02-3.98-1.89-4.03-3.98-.05-2.09 1.76-4.04 3.85-4.16 6.96-.38 13.92-.76 21.11-1.75.44 3.15.88 6.29 1.88 10.12Zm38.59-34.3c.29 3.89.57 7.79 2.12 11.34 2.66-1.94 6.25-1.96 9.5-1.45s6.49 1.45 10.41.36c-.23 10.72-.47 21.44-.1 32.49 3.47.06 6.95.12 11.29.3.02-11 .45-22 1.72-33.17 5.8-.37 11.63-.26 17.92-.25.39-3.38.78-6.75 1.21-10.62a164.563 164.563 0 0 1-40.22-.87c-2.53-.37-5.08-.8-7.63-.54s-5.12 1.3-6.24 2.41h.02Zm58.979 1.44c.04 13.81.09 27.61 1.23 41.74 3.36-.22 6.72-.44 10.83-.68-.64-5.15-.89-10.36-.31-15.77 10.36.15 20.73.3 31.39.69-.58 5.34-.86 10.71-.5 16.02 3.9-.83 7.89-1.22 12.27-1.76-1.98-13.67-1.81-27.64.32-41.87-4.26.8-8.62 1.02-12.56.46.72 5.69.86 11.45.71 17.28-10.17-1.07-20.48-.82-30.06.34-.62-5.74-1.44-11.45-2.02-17.06-3.88.67-7.84.82-11.3.63v-.02Zm61.721-.09c.59 13.62-.17 27.3-2.09 40.99 9.17.34 18.35-2.84 27.41-1.39 3.96.63 7.73 2.13 11.66 2.95 3.93.82 8.25.89 11.73-1.05-.02-3.38-.03-6.77-.07-10.39-2.33 1.04-4.97 1.16-7.5.88-2.53-.28-5.01-.93-7.52-1.36-6.83-1.19-13.94-.8-20.9.58.03-1.84.06-3.68.31-5.43 5.42-.8 10.94-.14 16.41.16 5.47.3 11.14.22 16.02-1.94.27-2.35.54-4.7.66-6.95-3.13 1.39-6.73.57-10.09-.07-7.54-1.42-15.28-1.8-22.75-1.11.16-2.09.33-4.17 1.08-6.53 10.88.02 21.76.04 34.2.08l.84-11.16c-16.29 2.41-32.86 2.88-49.4 1.74ZM77.582 80.53c5.07-1.52 9.07-6.15 9.84-11.39.77-5.24-1.73-10.82-6.15-13.74-3.39-2.24-7.57-2.9-11.61-3.28-11.51-1.1-23.19-.45-34.51 1.94.43 13.88-.06 27.46-1.23 41.24 4.13-.24 8.25-.47 12.67-.63.38-4.46.77-8.92 1.45-12.68 5.51.22 11.66.57 17.11-1.34 2.32 5.46 5.55 10.54 9.51 14.86 4.1-.16 8.2-.33 12.22-1.13-4.31-3.82-7.64-8.74-9.3-13.85Z"/><path stroke-width="0.65" d="M46.833 62.84c.22 3.11.44 6.22.91 9.04 6.73.89 13.56 1.01 20.32.36 1.14-.11 2.29-.25 3.34-.71 1.05-.46 1.98-1.31 2.28-2.41.46-1.69-.73-3.48-2.28-4.31-1.55-.83-3.37-.9-5.13-.97-6.51-.24-13.02-.48-19.44-1.01v.01Zm45.921-10.42c.55 14 .14 28.03.1 42.57 3.75-.12 7.5-.09 11.25.08-.29.01-.571.03-.861.04"/><path stroke-width="0.65" d="M103.883 94.77c.99-5.13 1.44-10.37 1.45-16.14 9.36-.13 18.71-.26 28.4.13-.49 5.29-.13 10.65.79 15.73 4.66.86 9.45 1.04 13.69.07-1.88-13.99-1.71-28.25.31-42.43-4.6-.14-9.19-.28-13.91-.47.58 5.78.66 11.61.46 17.45-10.35-1.01-20.86-.43-30.68 1.49-.49-6.01-.28-12.09.88-18a63.03 63.03 0 0 0-12.81-.05m80.43 25.9c2.23 5.27 2.64 11.3 1.16 16.83 4.05-.25 8.17-.28 12.27-.07.59-4.45.53-9.15-.15-13.76 1.4-5.88 6.13-10.3 10.49-14.55s8.79-9.14 9.39-15.2c-4.54.11-9.14-.17-13.74-.45-2.97 6.37-6.55 12.13-10.96 17.16-6.95-3.13-11.67-9.4-13.39-16.45-4.93.45-9.86.53-15.16.61 1.41 5.47 4.44 10.41 8.09 14.73 3.65 4.32 7.91 8.05 11.99 11.15h.01Zm89.469-25.96c.53 3.12.68 6.3.46 9.45-7.05.54-13.91.86-20.77 1.18-1.81 11.15-1.49 21.89.86 32.18-3.76 1.03-7.83 1.04-11.75.29-1.17-10.79-1.04-21.46-.11-32.04-7.24.34-14.22.17-21.15-.5.25-3.14.22-6.53 0-10.25 17.43-.14 34.85-.27 52.46-.31Zm6.49 1.2c-.2 13.66-.4 27.32-.63 41.13 3.74.82 7.63.98 12.03.43-.45-5.38-.77-10.77-.32-16.14 10.38 0 20.75 0 31.27-.3.9 5.78.67 11.74-.41 17.42 4.58-.48 9.2-.6 13.94-.66-.1-14.33-.21-28.66-.14-43.28-3.68 1-7.48 1.54-10.61 1.57 0 5.6-.23 11.2-.74 16.67-10.63-1.35-21.46-1.1-31.91.43-.82-5.47-1-11.04-.47-17.14-3.88.14-7.75.28-12.01-.14v.01Zm62.372 1.87c1.22 13.27.99 26.67-.27 39.63 2.14-.38 4.32.17 6.46.56 2.14.39 4.46.59 6.39-.67-2.37-9.54-2.86-19.54-1.14-29.12 5.49 9.99 11.45 19.72 17.89 28.8 2.95.41 5.95.5 9.16-.2 5.78-10.26 11.57-20.52 17.2-30.69 2.35 10.25 3.32 20.81 2.78 31.09 3.9.46 7.87.3 11.74-.81.17-13.45.34-26.9.75-40.53-7.05.03-14.1.06-20.73.39-4.91 8.75-10.26 17.26-15.6 24.74-6.51-7.86-12.3-16.3-16.36-25.17-6.27-.07-12.55.39-18.26 1.98h-.01Z"/></g><defs><clipPath id="a"><path fill="#fff" d="M0 0h434v96H0z"/></clipPath></defs></svg>