<svg width="1332" height="313" viewBox="0 0 1332 313" fill="none" xmlns="http://www.w3.org/2000/svg"><path d="M1.898 10.893c3.448 46.408 4.3 93.001 2.187 140.074 14.089 1.219 28.25.96 42.71 0-9.825-47.073-.816-95.846-2.04-143.104-14.421-.924-29.028.074-42.857 3.03zM67.148 13.331l-.779 91.967c-.148 15.407-.26 30.852 2.188 45.854 12.53-.259 25.025-.481 37.556-.739-5.042-18.327-6.488-37.615-4.189-56.459 1.668-14.04 5.375-28.524 2.817-41.53 8.082 12.895 21.615 21.652 29.697 34.51 6.302 10.05 8.823 21.911 12.16 33.291 3.374 11.38 8.008 23.019 17.017 30.335 9.417 1.072 18.982.961 29.622.407 14.904-29.042 29.771-58.047 44.675-87.09 3.151-6.17 6.525-12.562 12.79-16.22.89 34.067 1.78 68.134 4.116 102.09 10.455-1.736 20.91-3.473 31.402-5.172 3.707-.592 8.008-1.035 11.715.184-7.007-23.499-9.454-48.33-7.229-72.752 2.002-21.69 7.674-43.49 4.708-63.886-20.391-2.069-40.93-2.55-59.727-1.7-14.607 11.049-24.172 27.417-31.476 44.155-7.303 16.738-12.716 34.289-22.8 50.029-3.448-6.836-6.896-13.671-10.381-20.544-4.857-9.606-9.788-19.361-16.98-27.379-5.747-6.43-12.865-11.639-17.87-18.66-5.709-8.017-8.304-17.772-10.232-28.228-19.056.258-38.15-1.146-57.02-3.99h.148c.037 0 .111 0 .482-1.183-.668 4.914-2.373 9.754-2.41 12.71zM312.173 10.228c-.149 46.999-.26 93.998-.89 141.737 12.605-5.838 27.954 3.879 42.042-.185-.185-16.775-.371-33.55-.148-51.618 18.166 8.609 39.595 10.124 60.653 4.36 7.118 15.371 14.2 30.742 22.616 45.484 15.904 3.104 32.44 3.141 48.233-1.81-13.272-15.704-23.579-33.846-28.992-51.027 15.608-5.801 27.213-21.098 28.584-37.614 1.372-16.553-7.6-33.513-22.059-41.753-10.974-6.281-24.024-7.537-36.629-8.387-37.853-2.55-75.78-2.328-113.41.813z" stroke="#191926" stroke-width="2" stroke-miterlimit="10"/><path d="M354.548 38.605c-.297 9.015-.557 18.03-.742 26.344 18.685.998 37.408 1.996 56.093 2.993 5.339.296 10.826.554 15.905-1.108 5.079-1.663 9.751-5.764 10.455-11.048.816-6.023-3.744-11.713-9.305-14.226-5.525-2.55-11.827-2.623-17.907-2.66a9263.022 9263.022 0 00-54.499-.295zM499.73 18.06c3.893 43.564 3.559 87.496-1.742 130.542 54.128-2.55 108.479-1.552 162.162-.85-.926-11.676-1.89-23.352-2.409-34.067-4.931-3.769-11.345-5.247-17.537-5.321-6.228-.074-12.382 1.109-18.5 2.18a615.167 615.167 0 01-37.63 5.506c-14.57 1.663-30.104 2.66-43.34-3.954-1.816-6.244-2.743-12.747-2.41-19.472 36.296-2.66 73.37 5.025 108.183-2.18-1.372-9.053-1.298-18.29.223-27.047-34.85 2.993-69.96-2.143-104.105.591-2.224-6.54-2.966-13.56-1.928-20.839 35.369-8.72 73.555 5.32 107.849-3.88-2.113-10.087-2.558-20.543-1.038-29.891-24.395 4.434-49.42.295-74.037-2.365-24.618-2.66-50.644-3.547-73.741 11.048zM671.014 148.306c12.531 1.552 25.211 1.811 37.927.481 4.56-9.164 9.12-18.327 13.68-27.454 17.537 7.058 37.334 8.277 55.612 3.474 5.709-1.515 11.27-3.584 17.128-4.508 5.821-.887 12.123-.517 16.832 3.732 3.596 7.907 7.637 15.592 11.901 23.315 14.681-1.257 29.437-1.441 44.711-.665-25.025-44.376-50.087-88.79-74.593-132.833-17.128-.739-34.257-1.514-51.126-2.808-22.541 46.852-47.121 92.706-73.332 137.636-.075.037-.075.148 1.26-.37z" stroke="#191926" stroke-width="2" stroke-miterlimit="10"/><path d="M763.064 39C752.794 55.738 743.563 73.067 736 91.32c18.166.776 36.332.96 55.24.037-8.638-17.55-15.163-36.173-28.176-52.357zM921.932 6.237c0 32.256 0 72.827-.037 105.083 1.149-.184 13.421 4.249 33.7 4.249 12.532 0 14.904-.184 26.805.703 10.233.738 33.03-1.22 35 0 .63 11.454 2.04 15.555.48 25.975-19.797 9.57-44.118 6.429-66.696 2.623-22.579-3.806-45.528-1.958-67.698.739 3.263-44.339 1.743-89.86-4.189-135.086 13.977-1.7 27.917-3.4 42.635-4.286zM1079.76 10.412a513.06 513.06 0 01-1.3 101.5c10.64-2.439 24.77.775 34.11 2.032 10.38 1.367 14.57 2.586 23.91 3.842 17.24 2.254 28.47 1.626 42.04-6.466-1.11 9.607-1.89 23.315-2.26 32.442-14.57 7.611-33.11 9.422-51.68 7.5-13.53-1.404-37.89-5.209-44.41-6.244a25.32 25.32 0 01-2.93-.591c-6.2-1.515-32.56-3.991-44.75-.111-.52.998-.26-.85-.26-.85 3.52-43.009 5.26-86.128 5.56-130.357 14.42-.517 28.88-.997 41.97-2.697zM1145.64 12.075c22.46 29.227 47.27 56.68 70.81 82.286 2.11 16.849 3.11 33.808 3.48 50.546 13.24 1.885 26.44 3.806 39.75 5.616-4.75-17.403-6.64-35.545-5.9-51.396 24.44-29.522 48.83-59.082 75.52-88.345-16.49-.037-32.99-1.257-48.27-4.988-15.12 19.694-30.25 39.387-45.38 57.936-15.01-17.994-30.03-36.026-42.96-52.8-15.69 0-31.33 1.219-47.05 1.145zM211.923 311.585c4.004-8.831 8.045-17.662 12.049-26.53 31.439.665 60.95.333 90.462 0 1.557 5.432 4.078 12.12 6.599 18.807.63 1.663 1.334 3.437 2.817 4.471 1.595 1.109 3.708 1.035 5.673.961l43.599-2.328c-25.47-47.11-51.607-92.816-79.339-137.525-15.497-.591-30.697-.813-45.861-.406-21.836 47.627-48.53 94.072-79.783 136.305 2.595 2.956 6.339 4.656 10.158 5.469 3.819.813 7.786.813 11.715.776 7.23-.037 14.459-.074 21.911 0z" stroke="#191926" stroke-width="2" stroke-miterlimit="10"/><path d="M237.209 253.685c9.342-18.622 19.538-36.801 30.512-54.537 8.675 18.512 17.388 37.06 26.879 56.2-19.798-2.734-39.929-2.993-57.391-1.663zM536.729 205.356a290.516 290.516 0 0162.322-1.035c.927-12.858 1.668-25.199 1.075-37.503-58.614 1.663-116.895.591-176.176 1.182-.631 11.196-1.298 22.429-1.001 36.211 23.876 1.847 47.862 2.327 72.035 3.621 2.743 33.328.408 67.062-5.747 99.651 15.942.037 31.884.037 47.826.481-3.225-34.289-3.3-68.91-.334-102.608zM614.104 169.368c-3.003 46.74-4.004 93.592.631 139.372 14.31-.998 28.621-1.996 42.857-3.658-2.521-13.561-3.299-27.49-.556-42.492 21.355 2.513 43.044 2.476 64.435 1.515 8.231 14.854 16.424 29.744 24.655 44.598 12.42-1.256 24.839-2.513 39.113-3.252-12.642-13.56-21.985-30.187-27.361-48.034 14.793-4.581 27.361-16.553 31.476-31.443 4.116-14.891-.852-32.146-12.976-41.79-11.456-9.089-27.027-10.641-41.671-11.676-40.114-2.845-80.451-4.655-120.603-3.14z" stroke="#191926" stroke-width="2" stroke-miterlimit="10"/><path d="M662.412 202.252c0 11.417-.037 22.798-.037 34.215 16.387.37 32.737.702 49.124 1.072 8.527.184 17.499.295 25.099-3.548 7.637-3.842 13.31-12.969 10.307-20.913-2.558-6.724-10.27-10.235-17.462-10.493-7.193-.259-14.237 1.958-21.318 3.251-15.238 2.734-31.217 1.22-45.713-3.584zM802.109 173.543c4.968 32.589 4.968 65.917.037 98.506-1.817 11.972-4.078 25.089 3.633 37.245 25.47-6.392 52.201-3.436 78.338-1.182 26.175 2.253 53.313 3.584 76.855-5.284.334-9.792.667-19.583 1.001-29.855-7.118.443-14.496 7.427-22.615 6.946-8.119-.48-15.942-2.956-23.876-4.692-22.949-5.062-47.233-4.102-69.366 2.956-.371-7.723-.741-15.482.037-24.387 33.997 1.035 68.069.37 102.77-1.884.111-8.72.222-17.403 1.446-27.306-35.332-.332-70.626-.628-106.774-1.478.223-9.385.445-18.807.482-28.968 36.259-1.293 72.629-.517 107.552 1.885.631-9.903 1.298-19.805 2.781-26.678-35.443-6.318-71.85-7.315-107.589-2.992-15.053 1.847-30.401 4.581-44.712 7.168zM980.768 170.291c15.831-2.438 31.812-3.732 47.902-3.436 12.34 14.336 24.73 28.709 36.96 44.154 13.39-14.151 26.06-29.005 36.89-43.637 15.94 1.811 31.88 3.584 51.01 5.247-20.61 22.798-41.26 45.595-61.46 68.615 16.98 21.578 33.96 43.156 51.12 65.843-15.31 1.182-30.62 2.402-43.78 2.919-14.06-14.558-26.96-30.224-38.75-46.186-12.71 15.075-23.69 31.554-30.66 46.777-17.13-1.034-34.291-2.069-50.974-2.882 22.434-19.805 41.004-43.969 54.874-69.723-20.14-21.504-38.524-44.634-53.132-67.691z" stroke="#191926" stroke-width="2" stroke-miterlimit="10"/></svg>