<svg width="1332" height="313" viewBox="0 0 1332 313" fill="none" xmlns="http://www.w3.org/2000/svg"><path d="M1.899 11.272c3.448 46.408 4.3 93.001 2.187 140.074 14.088 1.219 28.25.961 42.71 0-9.825-47.073-.816-95.846-2.04-143.104-14.421-.924-29.028.074-42.857 3.03zM67.148 13.71l-.778 91.967c-.148 15.408-.26 30.852 2.187 45.854 12.531-.259 25.025-.481 37.556-.739-5.042-18.327-6.488-37.614-4.189-56.459 1.668-14.04 5.376-28.524 2.818-41.53 8.082 12.895 21.614 21.652 29.696 34.51 6.303 10.05 8.824 21.911 12.161 33.291 3.373 11.381 8.008 23.02 17.017 30.336 9.416 1.071 18.982.96 29.622.406 14.904-29.042 29.771-58.047 44.674-87.09 3.152-6.17 6.525-12.562 12.791-16.22.89 34.067 1.78 68.135 4.115 102.091a7939.766 7939.766 0 0131.402-5.173c3.707-.591 8.008-1.035 11.716.185-7.007-23.5-9.454-48.33-7.23-72.753 2.002-21.69 7.674-43.49 4.708-63.885-20.39-2.07-40.929-2.55-59.726-1.7-14.607 11.048-24.172 27.416-31.476 44.154-7.304 16.738-12.717 34.29-22.801 50.029-3.448-6.835-6.896-13.67-10.381-20.543-4.856-9.607-9.787-19.362-16.98-27.38-5.746-6.429-12.864-11.639-17.869-18.659-5.71-8.018-8.305-17.773-10.233-28.23-19.056.26-38.15-1.145-57.02-3.99h.148c.037 0 .112 0 .482-1.182-.667 4.914-2.372 9.755-2.41 12.71zM312.173 10.607c-.149 47-.26 93.999-.89 141.737 12.605-5.838 27.954 3.88 42.042-.185-.185-16.775-.371-33.55-.148-51.618 18.166 8.609 39.595 10.124 60.653 4.36 7.118 15.371 14.2 30.742 22.616 45.485 15.904 3.103 32.44 3.14 48.233-1.811-13.272-15.703-23.579-33.845-28.992-51.027 15.608-5.8 27.213-21.098 28.584-37.614 1.372-16.553-7.6-33.513-22.059-41.752-10.974-6.282-24.024-7.538-36.629-8.388-37.853-2.55-75.78-2.328-113.41.813zM504.743 18.61c3.893 43.563 3.559 87.495-1.743 130.541 54.129-2.55 108.48-1.552 162.163-.85-.927-11.676-1.891-23.352-2.41-34.067-4.931-3.769-11.344-5.247-17.536-5.321-6.228-.074-12.383 1.109-18.5 2.18a615.167 615.167 0 01-37.63 5.506c-14.57 1.662-30.105 2.66-43.34-3.954-1.817-6.244-2.744-12.747-2.41-19.472 36.296-2.66 73.37 5.025 108.183-2.18-1.372-9.053-1.298-18.29.222-27.047-34.85 2.993-69.959-2.143-104.104.591-2.225-6.54-2.966-13.56-1.928-20.84 35.369-8.72 73.555 5.322 107.849-3.879-2.113-10.087-2.558-20.543-1.038-29.892-24.395 4.434-49.42.296-74.038-2.364-24.617-2.66-50.643-3.547-73.74 11.048zM671.015 148.686c12.531 1.552 25.211 1.81 37.927.48 4.56-9.163 9.12-18.327 13.68-27.453 17.537 7.057 37.334 8.277 55.612 3.473 5.709-1.515 11.27-3.584 17.128-4.508 5.821-.886 12.123-.517 16.832 3.732 3.596 7.907 7.637 15.593 11.901 23.315 14.681-1.256 29.437-1.441 44.711-.665-25.025-44.376-50.087-88.789-74.593-132.832-17.129-.74-34.257-1.515-51.126-2.808-22.541 46.851-47.121 92.705-73.332 137.635-.075.037-.075.148 1.26-.369zM921.932 6.616c0 32.257 0 72.827-.037 105.084 1.149-.185 13.421 4.249 33.7 4.249 12.532 0 14.904-.185 26.805.702 10.233.739 33.03-1.22 35 0 .63 11.454 2.04 15.555.48 25.975-19.797 9.57-44.118 6.429-66.696 2.623-22.579-3.805-45.528-1.958-67.698.739 3.263-44.339 1.743-89.86-4.189-135.086 13.977-1.7 27.917-3.399 42.635-4.286zM1079.76 10.791a513.057 513.057 0 01-1.3 101.5c10.64-2.439 24.77.776 34.11 2.032 10.38 1.367 14.57 2.586 23.91 3.843 17.24 2.254 28.47 1.626 42.04-6.466-1.11 9.606-1.89 23.315-2.26 32.441-14.57 7.612-33.1 9.422-51.68 7.501-13.53-1.404-37.89-5.21-44.41-6.245a25.111 25.111 0 01-2.93-.591c-6.19-1.515-32.55-3.99-44.75-.111-.52.998-.26-.85-.26-.85 3.52-43.008 5.26-86.128 5.56-130.356 14.42-.518 28.88-.998 41.97-2.698zM1145.64 12.454c22.47 29.227 47.27 56.68 70.81 82.286 2.11 16.849 3.11 33.808 3.49 50.546 13.23 1.885 26.43 3.806 39.74 5.617-4.75-17.403-6.64-35.545-5.9-51.397 24.44-29.522 48.83-59.081 75.52-88.345-16.49-.037-32.99-1.256-48.27-4.988-15.12 19.694-30.25 39.388-45.38 57.936-15.01-17.994-30.03-36.025-42.96-52.8-15.69 0-31.33 1.22-47.05 1.145zM211.924 311.964c4.004-8.831 8.045-17.662 12.049-26.529 31.439.665 60.95.332 90.461 0 1.558 5.431 4.079 12.119 6.6 18.807.63 1.663 1.334 3.436 2.817 4.471 1.595 1.108 3.708 1.034 5.673.96l43.599-2.327c-25.47-47.111-51.607-92.817-79.339-137.525-15.497-.591-30.697-.813-45.861-.407-21.836 47.628-48.53 94.073-79.783 136.306 2.595 2.956 6.339 4.655 10.158 5.468 3.819.813 7.786.813 11.715.776 7.23-.037 14.459-.074 21.911 0z" stroke="#191926" stroke-width="2" stroke-miterlimit="10"/><path d="M237.209 254.065c9.342-18.623 19.538-36.802 30.512-54.537 8.675 18.511 17.388 37.06 26.879 56.199-19.798-2.734-39.929-2.993-57.391-1.662zM536.73 205.735a290.45 290.45 0 0162.322-1.034c.927-12.859 1.668-25.2 1.075-37.504-58.615 1.663-116.895.591-176.177 1.183-.63 11.195-1.297 22.428-1.001 36.21 23.876 1.847 47.863 2.328 72.035 3.621 2.744 33.328.408 67.063-5.746 99.652 15.942.037 31.884.037 47.826.48-3.226-34.289-3.3-68.91-.334-102.608zM614.104 169.747c-3.003 46.741-4.004 93.592.631 139.372 14.31-.997 28.621-1.995 42.857-3.658-2.521-13.56-3.299-27.49-.556-42.491 21.355 2.512 43.044 2.475 64.435 1.515 8.231 14.853 16.424 29.744 24.655 44.597 12.42-1.256 24.839-2.512 39.113-3.251-12.642-13.561-21.985-30.188-27.361-48.034 14.793-4.582 27.361-16.553 31.476-31.444 4.116-14.89-.852-32.146-12.976-41.789-11.456-9.09-27.027-10.642-41.671-11.676-40.114-2.845-80.451-4.656-120.603-3.141zM802.109 173.922c4.968 32.589 4.968 65.917.037 98.506-1.817 11.972-4.078 25.089 3.633 37.245 25.47-6.392 52.201-3.436 78.338-1.182 26.175 2.254 53.313 3.584 76.855-5.284.334-9.792.667-19.583 1.001-29.855-7.118.443-14.496 7.427-22.615 6.946-8.119-.48-15.942-2.955-23.876-4.692-22.949-5.062-47.233-4.101-69.366 2.956-.371-7.723-.741-15.482.037-24.387 33.997 1.035 68.069.37 102.77-1.884.111-8.72.222-17.403 1.446-27.305-35.332-.333-70.626-.629-106.774-1.478.223-9.385.445-18.807.482-28.968 36.259-1.294 72.629-.518 107.552 1.884.631-9.902 1.298-19.805 2.781-26.677-35.443-6.319-71.85-7.316-107.589-2.993-15.053 1.847-30.401 4.581-44.712 7.168zM980.769 170.671c15.831-2.439 31.811-3.732 47.901-3.437 12.34 14.337 24.73 28.71 36.96 44.154 13.39-14.151 26.06-29.005 36.89-43.636 15.94 1.81 31.88 3.584 51.01 5.246-20.61 22.798-41.26 45.596-61.46 68.615 16.98 21.578 33.96 43.156 51.12 65.843-15.31 1.183-30.62 2.402-43.78 2.919-14.05-14.558-26.96-30.224-38.75-46.186-12.71 15.075-23.69 31.554-30.66 46.777-17.12-1.034-34.29-2.069-50.974-2.882 22.434-19.804 41.004-43.969 54.874-69.723-20.14-21.504-38.524-44.634-53.131-67.69zM357.741 39c-.296 9.016-.556 18.031-.741 26.345 18.685.997 37.408 1.995 56.093 2.993 5.339.295 10.826.554 15.905-1.109 5.079-1.663 9.751-5.764 10.455-11.048.816-6.022-3.744-11.712-9.306-14.225-5.524-2.55-11.826-2.623-17.906-2.66a9262.888 9262.888 0 00-54.5-.296zM770.064 34C759.794 50.738 750.563 68.067 743 86.32c18.166.776 36.332.96 55.24.037-8.638-17.55-15.163-36.173-28.176-52.357z" stroke="#191926" stroke-width="2" stroke-miterlimit="10"/></svg>