<svg viewBox="0 0 157 313" fill="none" xmlns="http://www.w3.org/2000/svg"><path d="M19 271.825h-3.5c.5-.8.4-.8.6-1.5.5-3 .2-6 .5-9 .1-.5 0-1 0-1.4 0-.7 0-1.4.1-2 .7-.4 1.2 0 1.8.2.7.2 1.3.1 1.6-.8-1.2-.2-2.3-.3-3.4-.5-.1-1.1-.3-2.1-.1-3.2.1-.5.1-1.1 0-1.6-.1-.8.2-1.3.9-1.7.3-.2.8-.2.9-1-.6.3-1.1.6-1.7.9-.1-.3-.3-.6-.3-.8v-5.3c0-1.2-.2-2.3 0-3.5.1-.8.1-1.6.7-2.1-.4-2.2-.1-4.1.6-6 .7-.5.9-1.7 2.1-1.8-.1.5-.5 1.1.3 1.5.4-1 1.2-1.2 2.1-.9l.7-.7c.2.3.4.5.6.7.9-.9.9-.9 2.1-.9h5.6c0 .9 0 .9-.9 1.3.3.6.7.5 1.2.4.4-.5-.3-1.3.8-1.5.7.5 1.6.6 2.6.7 1.5 0 3 .1 4.5.1h3.4c1.1-.1 2.1.2 3.2 0 .5-.1 1.1.3 2 .5.1 0 .5-.1.9-.3.4.2.8.5 1.2.8.3-.4.6-.7 1-1.3.1.5.1.8.1 1.2.7-.4 1.3-1 2.3-.6.1.3.3.7.5 1.2.3 0 .8.2 1.1.1.9-.3 1.7-.1 2.5.2.2.1.5 0 .8-.1.2-.1.5-.1.7-.2.1 0 .1-.2.1-.4-.4-.2-.9-.5-1.5-.8 1.2-.4 2.3-.1 3.3 0 2.2.1 4.3.2 6.5.3.3 0 .5-.1.8-.1h1.4c.4.3.7.6 1.1.9 1.3-.8 2.6-.8 4-.6.3 0 .6.2.8.1.8-.3 1.6-.1 2.2.1.8-.2 1.5-.4 2.2-.4 1.2.1 2.3 0 3.5 0 1.3 0 2.6-.2 3.8-.3h.8c0 .9-1 .6-1.1 1.3.1.1.2.3.3.3.9-.2 1.9-.3 2.8-.8l-.3-.6c.9-.2 1.8-.5 2.8-.7.1.1.1.3.2.4.4 0 .8-.3 1.3-.2.7.2 1.5-.1 2.2-.2 2.5-.2 5-.1 7.5 0 2.1.1 4.2.1 6.3.2 1.3 0 2.7.1 4 .2 1.8.1 3.7.1 5.5.1h2.9c.6.7.2 1.6 1 2.1-.4 1.1.2 2.3-.2 3.4-.2.5-.2 1.1.1 1.7-.2.2-.3.4-.5.5-.1.4.4.4.3.8-.1 1.7 0 3.3-.1 5 0 .3-.2.6-.3.9v.1-.1c.1.2.4.3.4.5.1 1.1.1 2.1.1 3.2 0 2.2 0 4.4-.1 6.6-.1 1.9-.2 3.7-.4 5.6-.2 1.6 0 3.2-.1 4.8-.1 1.5 0 3 0 4.5 0 .3.1.5.1.8.1.5.3 1 .2 1.4-.1.9 0 1.7.2 2.5.1.3.1.6.1.9-.1 1-.4 2-.1 3 0 .2-.1.4-.1.6l-.3 1.5c-.1.9-.2 1.9-.3 2.8-.1.5-.4.9-.6 1.3-.5.2-1 .3-1.4.6-.9.5-1.7.7-2.7.5-.9-.1-1.8-.1-2.7 0-1.4.1-2.9.2-4.3.3-.1 0-.2.1-.3.1-2.2.1-4.4.6-6.6.5-.8 0-1.7.2-2.6.3-2.6.1-5.1.4-7.7.3-2.8-.1-5.6.3-8.4 0h-.3c-1.8.4-3.6.2-5.5.4.1.5.2.9.4 1.5-.1.3-.3.8-.4 1.2.7 1.3.6 2.7.7 4.2.1.1.4.3.6.5 1.3 1.4 3 1.6 4.8 1.5.8 0 1.6 0 2.3.3.5.2 1 .2 1.6.2 1.3-.1 2.5-.1 3.8 0 1.3.1 2.7 0 4 0 .6 0 1.1-.2 1.7.1.5.2 1.2 0 1.9 0 1.6 0 3.2-.1 4.8-.1 1.3 0 2.7 0 4-.1 1.9-.2 3.8-.5 5.6-.5 1.4 0 2.8-.3 4.1-.5 2.6-.4 4-1.9 5.1-4.2-.3-.9-.3-1.8-.1-2.7.3-1.3.3-2.6.4-3.8 0-.4 0-.8.1-1.4.5.3.8.5 1.2.7.2.2.5.3.7 0 1.3.1 1.7.3 2.9 1.3h.4c.5.7 1.3.9 2 1.2 2 .8 4 1.6 5.9 2.4.7.3 1.3.7 1.9 1v3.2c-.3.1-.5.1-.7.2-.5 1.1-.5 2.3-.3 3.6.7-.8.5-1.7.7-2.6.5 1.5-.1 2.9-.2 4.5-.3-.2-.4-.4-.5-.5-.1 1-.1 1-.8 2.1v-.1c.1.1.2.3.3.4v.3c-.5.1-1 .3-1.4.4-.1.4-.2.7-.2 1.1.2.1.5.1.7.2 0 .1.1.3 0 .3-1 1.3-2.1 2.4-3.7 3-2.8 1-5.8 1.6-8.7 2.2-1.5.3-3.1 0-4.6.6-.6.2-1.1.3-1.7.4-.4.1-.8.2-1.3.2-2.2 0-4.4.5-6.7.6-2.1.2-4.2.2-6.2.3-.7 0-1.5.1-2.2.1-1.5.1-3.1.2-4.6-.1-.5-.1-1.1.1-1.6.1-.4 0-.8.1-1.1.1-2.6-.4-5.1-.2-7.7-.1-2.5.1-5 .1-7.6.1-1.5 0-3-.6-4.4 0-1.8-.6-3.7-.1-5.6-.2-1-.1-2-.2-3-.4-1.2-.2-1.9-1.1-2.5-2.1-.3-.6-.5-1.2-1.1-1.8-.3-.3-.3-.9-.5-1.4.4-.2 1.1-.2 1-1.1-.4-.1-.9-.2-1.4-.4-.3-.7-.6-1.4-.7-2.2v-1.1c0-.8.1-1.6 0-2.3-.1-.8-.3-1.6-.6-2.3-.6-1.6-.7-3.2-.8-4.9-.1-1-.2-1.9-.3-2.8.2-.6 1.1-.6 1-1.5-.4.3-.7.5-1 .7-1.6-.4-3.3-.3-5-.2-.9.1-1.9.1-2.8-.3.3-.1.5-.2 1-.3-.4-.3-.7-.6-1.2-1 .1.7.2 1 .3 1.4-1.3.1-2.6.3-4 .4-.7.1-1.4-.4-2 0-1.6-.4-3.2.1-4.8.1-1.2 0-2.4.2-3.7.4-.5 0-.9 0-1.7.1-.4.3-1 .7-1.7 1.1-.3 0-.7.1-1 .1-.1.9.8.8 1.2 1.5-.1.2-.3.4-.5.6-.1.2-.1.5-.2.5-.6.2-1.2.3-1.9.3-2.2.1-4.4.1-6.7.1-.1-.3-.2-.6-.3-1-.8-.1-1.5-.2-1.8-1-1.2 0-2.3.1-3.2.7l-.4.4.1-.1-.4.4c-.8.2-1.6.3-2.3-.2-.4-1.1.7-1.7.6-2.7.9.9 1.8 1.3 3 1.5 0-.7-.7-1-.8-1.5-1.1-.4-2.2-.3-3.2-1-.1-.4-.1-.9-.2-1.4.5-.1.9-.1 1.4-.2.1-.3.2-.6.3-1h-1.5c-.5-1-.7-3.1-.6-4.8.2-.1.4-.3.6-.4l-.4-.4c-.1-.1-.2-.1-.3-.2-.1-2-.1-4.1-.2-6.2 0-.1.1-.2.2-.3h1.1c.2-.2.4-.4.7-.6.9.6.9.6 1.8.4-.3-.2-.4-.3-.7-.5.3-.8.3-1.2.4-1.6.2-.3.3-.6.7-1.1-.5.1-.7.2-1.1.3.2.3.3.6.4.8zm51.6 13.5c.1 0 .1 0 0 0 .1 0 0 0 0 0 0-.1 0-.3-.2-.1.1 0 .2 0 .2.1zm-36.2-8.8c.1 0 .1 0 0 0 .1 0 .1 0 0 0 .1.1 0 0 0 0zm7.1-1c.1-.1.2-.2.4-.3-.1.2-.2.2-.4.3zm41.8-39.7h.3c.1-.2.3-.4.5-.7-.6-.2-.7.1-.8.4v.3zm-11.6 34.9c-.1 0-.1-.1-.1-.1h-.1s.1.1.2.1zm3.5-23.9c-.1.1-.1.1 0 0-.1.1-.1 0 0 0zm-13.9 1.4c-.1-.1-.2-.3-.4-.4-.2-.2-.4-.5-.6-.7v-1.9c-.9-.1-1.8-.1-2.6-.2-.9-.1-1.8-.1-2.8-.2.2-.2.2-.4.3-.4 1.7 0 3.5.1 5.3.2.1-.3.2-.5.2-.7 0-.1-.1-.3-.2-.5-.5.1-1.1.2-1.5.3-.6-.3-1-.6-1.5-.9-.6.3-1.2.7-1.9.4-.6.5-1.2.3-1.9.3-2.3 0-4.7-.2-7-.2h-2.9c-2.4-.1-4.8-.2-7.2-.4-.2.2-.5.4-.7.6.2.1.3.2.3.3-.1.8-.2 1.4-.3 2.1-.4-.3-.8-.8-1.4-.6-1.1.2-2.3.5-3.4.8-.1 0-.1.2-.2.4.2.2.5.3.7.5.7-.2 1.3-.4 1.9-.5l2.4-.3c.2.3.4.6.6 1l-.6.9c.2.4.4.8.6 1.1-.5.6-1.4.4-1.9 1 1.3.2 1.7.4 1.8 1.5v.5c.1.4.3.8.5 1.3-.1.1-.1.3-.3.6 1.1 0 1.9.6 2.9.2.1-.6-.3-.6-.7-.6-.4.1-.5-.1-.4-.5.1 0 .2.1.3.1 1.8-.1 3.5-.3 5.3-.4.3 0 .5 0 .9.1-.1.7-1.4.1-1 1.1h.5c1-.1 2-.4 3.1-.1 1.1.2 2.2.1 3.3.1.3 0 .6-.2.5-.6-.8-.5-1.9.4-2.8-.6 1.5-.3 3 .5 4.4-.3.2.4.4.8.6 1.4.6-.2 1-.3 1.5-.4v-.3c-.4 0-.7 0-1.2-.1.1-.3.1-.4.2-.6h3c.3.3.6.5 1 .9.2-.4.3-.6.4-.9.4-.1.8-.1 1.1-.3.7-.4 1.4-.3 2.1-.1.3.1.5.2.8.3.3-.2.5-.5 1-.8h-1c-.2-.8-.8-1.1-1.7-1.4v.9c-.2-.1-.5-.2-.7-.3.1-1 .3-1.8.4-2.7.3-.1.5-.2.7-.4 0 .1.1.2.2.4zm-3.3 8.9h.6c-.1-.1-.3-.2-.6 0 0 .1 0 0 0 0zm33 20.5h-.2.2zm-12.9-17.2c-.1 0-.2-.1-.2-.1s.1 0 .2.1zm-47.2 3.2c.1 0 .2-.1.2-.1s-.1.1-.2.1zm30.7 0c-.1 0-.2-.1-.1 0h.1zm18.8 17.5c-.1 0-.3 0-.4.1 0 0 0 .1.1.1 0-.1.1-.2.3-.2 0-.1 0-.2.1-.2-.1.1-.1.1-.1.2zm-40.2-46c-.1 0-.2.1-.1.1-.1 0 0 0 .1-.1.1 0 .2 0 0 0 .2 0 .1 0 0 0zm-14.4 46.9h-.2.2c0 .1.1.1.1.2-.1-.1-.1-.1-.1-.2zm-1.5 6v-.6l.1-.1-.1.1c.1.2 0 .4 0 .6h0zm26.6-46.3c.1 0 .2 0 .3.1-.1-.1-.2-.1-.3-.1zm-21 26.5c-.1 0-.1 0-.2.1.1-.1.1-.1.2-.1zm6.4 17.6h0v.5c-.6.3-.6-.4-1-.5-.4.3-.7.6-1 .9.2.8 1.4.3 1.4 1.4.5-.7 1.2-1 1.9-.8.8.2 1.6 0 2.3-.3 1-.7-.3-1.5.2-2.3.1-.1.3-.1.4-.2l.4.4c.8.1 1.6.3 2.4.4.1-.2.1-.4.2-.6-.4-.2-.7-.4-1.1-.7-.5.3-1 .6-1.5.8l-.4-.4c-.2-.2-.4-.4-.7-.8-.4.7-.9 1-1.1 1.8.3.3.6.7 1.2 1.2-.8-.2-1.3-.3-1.8-.3-.6-.1-1.2-.1-1.7-.2-.1.1-.1-.1-.1-.3zm-1.5-15.8v.1-.1l-.1-.1.1.1zm41.1 15.3l-.1.1.1-.1v-.1.1zm-7.4.2v.6c-.2 0-.6-.3-.9.5.4-.3.6-.4.8-.5.1-.2.1-.4.1-.6h0zm13.5-.5c-.2-.1-.3-.2-.6-.3.1.6.1.6.6.3.1 0 .3 0 .1-.2 0 0-.1.1-.1.2zm-38.8-46.5c-.1.1-.3.1-.1 0-.1.1 0 0 .1 0 .1-.1.2-.2.3-.2l-.2-.2c0 .1-.1.2-.1.4zm-1.3-1.7c-.1.1-.2.1-.3.2l.2.2c-.1-.2 0-.3.1-.4.1-.2.2-.3.3-.4.1-.2.2-.5.3-.7h-.2c0 .2 0 .5-.1.7-.1.2-.2.3-.3.4zm-15.1 48.9c.2 0 .3-.1.5-.1 0-.1-.1-.1-.1-.2-.2.1-.3.2-.4.3h-.2.2zm44.2 23.6c.1 0 .2.1 0 0 .2 0 .1 0 0 0zm-32.7-51.9c.2 0 .5.2.7-.4-.4.2-.5.3-.7.4zm31.6 53.8c.3 0 .5-.1.8-.1.4.2.8.3 1.2.4.2 0 .4-.2.6-.3-.6-.6-1.2-.6-1.8-.4v.3c-.3.1-.6.1-.8.1 0-.2.1-.3.1-.6-.1.1-.2.1-.2.1 0 .2.1.4.1.5zm-24.8-31.8h.6c0-.1-.1-.1-.1-.2-.2 0-.3.1-.5.2zm12.3-40.9c-.3 0-.6-.2-.7.3.4.2.5-.1.7-.3zm26.5 46.6c-.2-.1-.4-.2-.7-.3.1.7.5.3.7.3.1-.1.1-.1 0 0 .1-.1 0-.1 0 0zm-15.8-24.1c0 .2 0 .3.1.5.1 0 .1-.1.2-.1-.1-.1-.2-.3-.3-.4-.1-.1-.2-.2-.3-.4l-.2.2c.2 0 .3.1.5.2zm-34.3 13l.9.3h.1-.1c.1-.1.1-.2.2-.3.2 0 .4.1.6.1.1.3.3.6.4.9l.9-.9h2.4c.2.3.3.5.4.8.4-.3.7-.6 1-.8.6-.1 1.2.2 1.8-.2.2-.1.5-.1.8-.1h3.6c.9 0 1.8.2 2.7.2 2.5 0 5 .1 7.6.1h2.4c.6-.5 1-.8 1.4-1.1 0 .2-.1.5-.1.7 1.1.1 1.1.1 1.7-.3.5 0 .4.5.6.8.9.6 1.8.1 2.8.4-.1-.3-.1-.5-.2-.7.1-.2.3-.4.5-.6-.6 0-1.1-.2-1.5.2 0 0-.2-.1-.3-.1.1-.4.1-.8.2-1.2-.1 0-.1-.1-.2-.1-.2.2-.3.5-.4.6-.5.3-.9.5-1.3.7-.6-.1-1.1-.3-1.7-.4-.3-.2-.7-.3-1.1-.5.4-1.2-.3-2.4.1-3.7.3-1.3-.2-2.6.3-3.8-.4-.3-.7-.6-1.1-.9.5-.2.8-.3 1.1-.5-.1-.2-.1-.3-.2-.6-.5.1-.9.2-1.4.3-.5-.3-1-.5-1.4-.8-.9-.6-1.7-.7-2.7-.3-1.2.4-2.5.9-4 .5-.4-.5-.8-1.2-1.7-.7.1.3.2.6.3 1.1-.9-.2-1.7-.3-2.4-.5-.1 0-.2-.3-.3-.5.4-.1.9.1 1.4-.6-.8 0-1.5-.1-1.8-.8.5 0 .9.1 1.5-.2-.7-.2-1.1.1-1.5.3-.9.1-1.8.1-2.5 1 .3.4.7.7 1.1 1.1-.8 0-1.4.1-2.1-.1-.3-.1-.8-.1-1.1 0-1.2.5-2.1.1-3-.6-.6 0-1.2-.1-1.8-.1-.3.3-.7.6-1.1.9.3.2.5.4.7.6.2.2.3.5.4.8.6 0 1 .1 1.5.1-.4.1-.9 0-1.3.2-.4.1-.7.5-1 .7-.2-.2-.4-.4-.6-.7-.2.2-.3.4-.4.6-.1.4 0 .7.4 1 .1.2.2.5.3.7-.2.4-1 .3-.9 1 .4.8.7 1.7 1.1 2.6-.7.5-1 1.2-1.8 1.4-.3-.3-.6-.5-.9-.8.1-.2.1-.4.2-.8-.7.3-.7.3-.2.7 0 .7.3 1.2.8 1.7H32c.7.7 1.3.3 1.9 0 .1.2.3.5.4.6.2.1.5.2.7.2-.1.2-.1.4-.2.5-.3-.2-.6-.6-1-.1-.1 0-.1.1-.2.1.1-.1.2-.1.2-.1zm29.1-25l-.3-.6c-.1 0-.1 0-.2.1.1.2.1.4.2.6-.3-.1-.6-.1-.9-.2-.5-.1-.7.1-.7.5-.1 0-.3.1-.4.1l.2.2c.1-.1.1-.2.2-.3.5-.1 1.1-.2 1.6-.3.1 0 .2 0 .3-.1zm60.7 48.5c-.2.2-.4.3-.7.6h.7c.1-.2 0-.4 0-.6.4.1.6 0 .6-.7-.3.4-.4.5-.6.7zm-1.8 10.2h-.8v.1c.2-.1.5-.1.8-.1zm-60.9-41.5c.1 0 .1 0 0 0 .1 0 0 0 0 0 0-.2.3-.6-.4-.5.2.2.3.4.4.5zm-4.4-31.3c.1-.1.2-.2.4-.3-.1 0-.1-.1-.2-.1-.1.1-.1.3-.2.4H56c-.4-.2-.8-.5-1.2-.7.1-.1.1-.2 0-.1v.1c-.2.1-.3.3-.5.5.4.5.8.4 1.2.3.1 0 .3-.1.5-.1h.5zm-38.9 47.7c-.2.1-.5.2-.7.3l.2.2.5-.5c.2-.1.5-.2.8-.2.2.1.5.1.7.3.7.6 1.3 1.2 1.9 1.8-.3.5-.6.9-.9 1.3-.7-.3-.7-.3-.7.2.2-.1.5-.2.7-.3.6-.2 1.1-.3 1.7-.5 0-.6-.1-1.2-.1-1.8.5-.2 1-.3 1.4-.5.4-.2 1-.1 1.2-.7-1.1-1-1.9-.1-2.9.3-.1-.5-.1-.8-.2-1.1.5-.2 1-.4 1.4-.5.3-.1.8.1 1.1-.5-.6-.3-.8.1-1.1.5-.6-.1-1.1 0-1.4.6-.2-.2-.4-.3-.6-.5-.2.3-.3.5-.5.9-.4-.5-.6-.8-.9-1.2-1.1.8-1.1.8-.8 1.8-.3 0-.6.1-.8.1zm67.9-49.3l-.6.6c.7 0 .7-.3.6-.6zm-50.4 42.7c.1.3.1.7.8.3-.4-.2-.6-.3-.8-.3zm28.5-43.1c-.1-.1-.2-.1 0 0-.1-.1-.1-.1 0 0 .1.3 0 .6.7.5-.3-.3-.5-.4-.7-.5zm-26.3 25.2c.1-.1.3-.3.4-.6-.5-.3-.8-.2-1.3.2.5.2.7.3.9.4zm11.3-16.9c.3 0 .5-.1.8-.1-.2-.2-.3-.2-.4-.2-.2.1-.3.3-.4.3v0zm-21.6 30.9c.8.3.8.3 1.4 0H27zm6.5-8.8c-.3-.1-.7-.2-1.2-.3.6.7.6.7 1.2.3.1-.1.3-.1.4-.2 0-.1-.1-.1-.1-.2-.1.2-.2.3-.3.4zm12.2-6.2c.7.2.7.2 1-.1-.3-.3-.6-.1-1 .1zm20.4 52.7c-.4-.2-.7-.4-1.1-.7v.7h1.1zm-3.9-41.6c.3.1.5.1.8.2.5.7.5.7 1.4.5-.4-.5-.9-.4-1.4-.4-.3-.1-.6-.2-.8-.3-.3-.3-.6-.4-1 0 .4.4.7.1 1 0zm12.6 3.8c-.6.1-1.1-.7-1.7-.1-.4.2-.7 0-1-.2-.4-.2-.8-.3-1.1-.4-.1 0-.3.1-.4.1l.3 1.2c.5-.1.9-.2 1.2-.2.5.2.9.4 1.2.5-.1.2-.2.3-.3.7 1.1-.4 1.9-.2 2.6.3.3-.4.6-.7.9-1-.5-.1-1-.1-1.5-.1-.6 0-1.2.1-1.7.1 0-.4-.1-.8-.1-1.1.4.2 1 .8 1.6.2 0 0 .1 0 .2-.1-.1.1-.1.1-.2.1zm-46 6.4c-.3.1-.6.2-1 .4.8.3.8.3 1-.4h.3-.3zm59.4-39.7h-.3.3c-.1.3-.2.7-.3 1.2.8-.4.8-.4.3-1.2zm-63.7 23.4c.3-.1.6-.2 1.1-.4-.8-.2-.8-.2-1.1.4-.1 0-.2 0-.3.1.1-.1.2-.1.3-.1zm37.1 23.2c.2.1.3.2.5.3 0-.1 0-.2.1-.2-.3-.1-.5-.1-.6-.1-.1-.5-.3-.8-1.1-.8.1.3.1.5.2.8h-.1v.1c0-.1.1-.1.1-.2.2.3.5.3.9.1zm-31.9-26.8c-.4 0-.7-.2-1 .4.1.1.2.2.4.5.2-.4.4-.6.6-.9v-.3.3zm23.2 19.6c.1 0 .3 0 .6.1-.2-.4 0-.9-.7-1.2 0 .5 0 .8.1 1.1-.1.1 0 0 0 0zm20.9-42.8c.1 0 .2.1.1 0h-.1c0-.4.4-.7 0-1.2-.2.1-.4.3-.7.4.3.3.5.5.7.8zm-28.7 49.4c-.4.2-.8.5-.8 1 .8-.2.8-.2.8-1zm23.3-33.6c.3.4.7.9 1.3 1.2.1-.2.3-.4.4-.6.9-.3 1.4-1 1.9-1.8-.7 0-1.3-.1-1.9-.1-.1.2-.2.4-.2.5 0 .5.1.9.2 1.4-.6-.2-1.2-.4-1.7-.6zm-8.4 34.8c-.4-.7-.4-.7-1.5-.7.3.8 1 .4 1.5.7zm-8.1-6.5c.3.2.7.4 1 .4.2 0 .4-.1.7-.3-.6-.5-1.1-.4-1.7-.1zm10.1-42.3c-.5-.1-.9-.2-1.4-.4-.9-.6-.9-.6-1.6 0-.2.2-.4.5-.6.7.8-.2 1.5-.5 2.3-.7.1.4-.1 1 .5 1.2.5 0 .6-.4.8-.8h.6c.1.3.2.5.4 1 .5-.6.8-1 1.1-1.5-.4-.2-.6-.3-.7-.3-.4.4-.6.7-.9.9-.1-.7-.5-1-1.3-.9l.8.8zm-.3 7.3h1.6c.2 0 .3-.3.6-.7-.9.2-1.4.3-2 .5-.1 0-.1.1-.2.2 0 .3-.1.6 0 .8.1.2.4.3.6.3.1 0 .2-.3.3-.4-.3-.2-.6-.5-.9-.7zm-33.1 47.4c-.5-.1-.9-.1-1.4-.1-.1 0-.2.3-.5.5.6.1 1.1.1 1.6.2.1-.3.2-.5.3-.6.1-.1 0 0 0 0zm38.2-40.1c.4.2.8.7 1.6.4-.6-.4-1-.8-1.6-1.2.1.4 0 .6 0 .8-.1.1-.3.1 0 0-.2.2-.1.1 0 0zm-17.2 24.2c-.2-.1-.4-.2-.5-.3-.1-.2 0-.5 0-.8 0-.3-.2-.5-.6-.2 0 .5.1 1.1.2 1.8.4-.3.6-.4.9-.5 0-.1.1-.1 0 0 .2-.1.1-.1 0 0zm27.5-18.1c-.2-.4-.4-.8-.7-1.2-.5.2-1-.2-1.4.2.6.7 1.4.9 2.1 1zm-22.9 27.1c-.2-.1-.4-.3-.6-.4 0 .1-.1.1-.1.2.3.1.5.1.7.2-.1.3-.2.6-.4 1 .4.2.7.3 1.1.5.1-.4.2-.7.3-.9-.1-.1-.1-.2-.2-.2-.2-.1-.5-.2-.8-.4zm46.9-27.3c.5-.3 1.3.1 1.6-.9-.3-.1-.5-.2-.9-.4-.2.5-.5.9-.7 1.3-.2 0-.5-.1-.9-.3.3.6.6.4.9.3zm-50.2-23.4c.1.2.2.4.3.5.4.2.6 0 .5-.7-.2.1-.5.2-.8.2-.9-.6-1.6.1-2.4.4v.4l1.2-.3c.5-.1.8-.3 1.2-.5zm-30.7 28.1c-.1-.4-.3-.9-.4-1.4-.3.3-.4.6-.5.8-.2.3-.5.5-1 1 .9-.2 1.4-.3 1.9-.4zm24.6-4.4c-.2 0-.4 0-.7-.1-.2-.2-.3-.5-.5-.8-.4.6-.1.9.2 1.1l-.9.9c-.1.1-.2.3-.3.6.7-.2 1.1-.3 1.5-.4.3-.4.5-.9.7-1.3zm-8.7 19.6c-.2-.2-.3-.5-.9 0h.9c.2.1.3.3.5.5.4-.4.8-.8 1.4-.5h-.1c.1-.2.1-.5.2-.7-1.2-.3-1.2-.3-2 .7zm24.9-24.2l1.2.9c.2-.2.4-.3.5-.5.1-.1.2-.3.3-.6-.7-.1-1.4-.4-2 .2-.8-.1-1.7-.7-2.8.3 1.2.2 2 .2 2.8-.3zm-32.1 12.4v-.2.2c.1.4.1.8.6 1 1-.5 1-.5 1-1.6-.6.2-1.1.4-1.6.6zm-3.3 2.1c-1.1 0-1.1 0-2-.7.1.6 0 1.1.5 1.6l1.8.3c.3.2.6.3.9.5-.2.3-.4.6-.5.8.1 0 .1.1.2.1.4-.2.8-.5 1.2-.8-.3-.5-.5-.8-.8-1.2-.4.2-.7.4-1 .6-.1-.5-.2-.9-.3-1.2.1-.1.2-.1 0 0 .2-.1.1-.1 0 0zm42.8-32.3c.5.1.9 0 1.4-.3.3-.2.7-.2 1-.2.1 0 .1-.1.3-.2-.2-.3-.5-.6-.6-.9-.5.4-.9.7-1.3 1-.4.1-.6.4-.8.6zm4.5 32v1.4c.3.2.6.5.9.6.4.2.7.1.8-.4-.4-.6-.8-1.1-1.3-1.6-.1.1-.2 0-.4 0zm-35 14v-.1.1c-.1.2-.3.4-.5.6.2.6.3 1.2.5 1.8.4 0 .7-.1 1-.1-.2-.6-.2-1.1-.4-1.6-.1-.3-.4-.5-.6-.7zm23.3-20.2c.4.1.7.1 1 .5.3.4.7.3 1.2 0 0-.2.1-.5.1-.7h.3c-.1 0-.1 0-.2.1h-1.1c0-.4.1-.6.1-1-.3.1-.6 0-.7.2-.4.1-.5.5-.7.9 0 .1-.1.2 0 .1v-.1zm15.3-20.6c-.2-.2-.5-.2-.7 0-.3.1-.7.2-1.1.3.2.5.3.9.5 1.3.5 0 .9-.1 1.3-.1.2-.6.4-1.1 0-1.5zm-45.7 47.4c.3-.1.5-.2.8-.2.6-.1 1.2-.3 1.8-.4.1 0 .2-.1.3-.3-.1-.2-.1-.5-.2-.8-1.3-.2-2.1.5-3 1.1.1.3.2.5.3.6v.1-.1zm19.3-4.2c.6 0 .9-.4 1.3-.8-.1-.3-.2-.5-.4-.9-.2.3-.3.5-.4.6-.8.2-1.5.4-2.2.5.4.7 1 1.4 2 1.3-.1-.3-.2-.5-.3-.7zm12.3 6.4c-.6 0-1.1.1-1.4.8l.3 1.2c1 .3 1.3-.5 1.9-.8v-2.4c.1 0 .2-.1.3-.1-.1.1-.2.1-.3.2-.1-.1-.3-.2-.5-.4-.5.5-.8.9-.3 1.5zm-35.4-6.6c.5-.2 1-.4 1.2-1.2-.7.1-1.4.1-2 .4-.3.1-.6.3-.9.3-.8-.1-1.4.3-2.2.7-.1.3-.2.6-.4 1 1 .2 1.1-.8 1.8-.9.9-.1 1.7-.2 2.5-.3zm24.2-43.3c.1.5.6.7 1.1.6.6-.6 1.4-.9 2.3-.9.2 0 .4-.2.7-.4-1.4-.6-3.3-.6-4.7-.1.3.3.4.5.6.8zm-2.8 14.9c-.4.2-.8.4-1.1 1 .6.3 1.2.5 1.8.8-.2.1-.4.2-.8.3 1.4.7 2-.2 2.9-.8-.2-.3-.3-.5-.5-.6-1 0-1.9.2-2.3-.7zm-2.6 20.3c-.7.2-.4.9-.8 1.3-.6.1-1.2.2-1.7.3-.1.3-.2.4-.3.7.6.5 1.2.5 1.8.2.5-.3 1-.5 1.6-.8l.3-1.2c-.4-.3-.7-.4-.9-.5zm-21.6-22.6c.1-.4.2-.9.3-1.3.3-.1.7-.2.2-.7 0 .3-.1.5-.1.7-.7.1-1.2.4-1.5 1-.2.4-.6.8-1 1.3.2.1.6.2.8.3.3.2.4.5.6.7.6-.3 1-.6 1.6-.9-.3-.5-.5-.8-.9-1.1zm52.9 10.3c1.1 0 2.1.1 3.2.1h6.9c.2 0 .4 0 .6-.1.2-.1.3-.3.6-.6h-2c-1.5-.1-3.1 0-4.6-.1-1.4-.1-2.9.3-4.3-.2-.2-.1-.6.1-.9.2.3.3.4.5.5.7.1 0 0 0 0 0zm-24.9-4.8c-.2-.2-.3-.6-.5-.5-.7 0-1.4.2-2 .3-.2 0-.3.4-.7.8.8-.2 1.3-.4 1.8-.5.5-.2 1-.3 1.4-.1-.2.4-.5.9-.3 1.5.2 0 .4.1.5 0l1.2-1.5c.7-.1 1.5-.2 2.2-.4.4.5.4.5.7 0 .4-.3.4-.5 0-.7-.3-.2-.5-.3-.3-.8.5 0 1 .1 1.4.1.4-.4.7-.7.6-1.4-.8.1-1.6 1-2.3 0-.1-.6.3-1.2-.1-2-.4.5-.7.9-1 1.3.5 1 .5 1.9.2 3.1-1 .3-1.9.5-2.8.8zm6.1-17.4c.4.3 1 .5 1.2.1.4-.7 1.2-.3 1.6-.7.3.4.6.7.8 1.1 1-.1 1.8-.6 2.6-.9.4.1.6.1.9.2 0-1.1-1-1.3-1.3-2-.7-.1-1.3-.1-1.9-.2v.5c-.9.6-1.9.9-3 .5-.2-.1-.4.1-.6.1l.3-.9c.4-.1.7-.1 1.2-.2-.7-.8-1.2-.2-1.8-.1.1.4-.3.9.3 1.1 0 .3.1.5 0 .8.1.2-.1.4-.3.6zm31.4 39c-2.3.4-4.5.3-6.9.3-.5.1-1 .3-1.8.6.4.1.5.2.7.2 1 0 2 0 3.1-.1.7 0 1.4 0 2 .5.2.2.6.1.9.1v-.6c1.4-.1 2.7-.2 4-.3.5 0 1 .1 1.4-.3 0 0 .2-.1.2 0 .6.6 1.3 0 2 .2 1.1-.6 2.3-.1 3.4-.2.7-.1 1.4 0 2.1-.1.6-.1 1.2-.2 1.9-.3 0-.1 0-.3-.1-.4-.5 0-1 .1-1.3-.1-.8-.6-1.7-.3-2.6-.3-.8 0-1.7.1-2.5.2-1.3.2-2.7.3-3.9.7-1 .2-1.8.3-2.6-.1zm-22.9-43.9c-.4-.1-.8-.1-1.4-.2.1.5.2.9.3 1.4 1.3-.3 2.6-.5 3.8-.8.2 1-1 1.2-1.1 2 0 .2-.3.3-.4.5-.1.1-.2.1-.3.2-.4-.1-.8-.1-1.3-.2-.2.3-.3.6-.5.9l.7.7c.4-.1.6-.1.9-.2.4.3.7.6 1 .8.5-.1.8-.2 1.2-.4.2.3.3.6.4.8h1.4c-.1.2-.2.3-.4.6H73c-.7-.3-1.2-.4-1.6-.6.1-.3.2-.6.2-.9h1.3c.3-.4.6-.8.8-1.1h.7c.1-.2.1-.4.2-.5l.4-.4c.4 0 .8.1 1.2 0 .2 0 .4-.3.6-.4-.7-.1-1.5-.1-2.2-.7v-.9h-.2c-.2.7-.4 1.4-.6 2.2l-.9.6c-.4-.1-.7-.2-1-.2-.1-.3-.2-.7-.3-1.1-.6.3-1 .6-1.6.9.1-.8.2-1.3.3-1.8 1.1-.1 2-.1 3-.2 0-.8-.6-.9-1.1-1-.9-.1-1.8-.2-2.9-.3-.6.3-1.4.9-2.4.3.3-.4.6-.8.9-1.3-.9 0-.9 0-1.6.4.3.2.4.6.6.9zm22.7 25.4c-.2 0-.3-.1-.5-.1v.2c.1-.1.3-.1.5-.1-.3.4-.9.6-.6 1.4h2c1 0 2 .3 3 0 .2-.1.4.1.8.3-1.1.5-2 .5-3 .6h-5.8c-1.4 0-2.8.2-4.2.2-.5 0-.9-.2-1.4-.3-1 .6-2.1.3-3.3.3-.2 1.7-.3 3.4-.5 5.1.3.6.4.7.4 1.4-.2.1-.3.2-.5.3.9 1 .8 2.1.8 3.4 1.1.2 2.3.7 3.4.7 2.2-.1 4.3 0 6.4.2 2.5.2 5 .1 7.6-.1 2-.2 4.1.1 6.1.1 1 0 2 .2 3-.3.1-.3.2-.6.2-.9-.1-1.1-.3-2.2-.4-3.3-.1-1.1-.3-2.1-.3-3.2 0-1.2.1-2.5.1-3.7 0-.2-.1-.5-.1-.8-.7.1-1.2.1-1.8.2.2-.7 1.2.1 1.1-.8-1.1-.2-2.1-.7-3.3-.2-.2.1-.5 0-.8 0-.7 0-1.4-.1-2.1-.1-1.7.2-3.4.4-5.2.3-.4-.2-.9-.5-1.5-.8.1.1 0 .1-.1 0zm14.3-9c.8-2.8.4-5.6 1-8.4-.7 0-1.4 0-2-.1-.8 0-1.6 0-2.4-.1-1.6-.1-3.2 0-4.7.2-1.2.1-2.3.2-3.5.2-1.8 0-3.6-.3-5.4.2-.4.1-1 0-1.6-.1.2-.3.3-.5.5-.5 1.4-.3 2.8-.6 4.3-.3.6.1.6.1 1.8-.3-.2-.1-.3-.2-.4-.2-1-.2-2 .1-3 .1-1.2 0-2.4-.2-3.5-.1s-2.2.1-3.3-.3c-1.1-.5-2.2.1-3.2.6-.1.1-.2.4-.2.4.1.6.8.4.9.9-.5 0-.8 0-1.1-.1-.3 2.5-.4 4.9-.4 7.5.7.1 1.2.2 1.8.2 4.5 0 9 .1 13.5.1.5 0 1 .2 1.5.3.5-.1 1-.3 1.5-.3 1.7 0 3.3.1 5 .1h2.9zm-68.3 8.4c1.3-.1 2.2-.1 3-.2.3 0 .5-.5.6-.5 1-.6 1.9-.1 2.9 0-.2-.4-.3-.6-.4-.7-.1-.2-.3-.3-.4-.3h-2.8c-.2 1.3-1.5 1.1-2.9 1.7zm30 19.1c.2-.2.4-.3.6-.5.4.3.2 1 .8 1.1.2-.3.3-.7.5-1-.2-.8-.5-1.6-.7-2.4h-.2l-.3 1.5h-1.7c.4.6.7 1 1 1.3zm40.3-38c-.7.2-1.4.2-1.9.5-.6.4-1.4-.1-1.8.6 4 .2 4.2.2 5.1-.5-.5-.2-1-.4-1.4-.6zm-40.5 63.5c-.9.1-.9.8-1.2 1.3.8.2 1.5.5 2.2.6.4.1.8.1 1-.5-.8-.2-1.8-.2-2-1.4zm-33.1-49.3v-.7c.1-.5 0-.9-.4-.9h-1.7c.7 1.3.7 1.3 2.1 1.6zm.2 25.2c-1-.7-1.8-.4-2.5 0-.4.2-.9.3-.8 1 1.1-.1 2.1-.5 3.3-1zm13.7-44c1 .6 1 .6 1.8-.3 0-.6-.4-.8-.9-.9-.8-.1-.9-.1-1.5.6h2c-.2.9-1 0-1.4.6zm-23.5 34.3c.8.2 1.4.3 2 .4 0-.3-.1-.6-.1-.8.3-.2.5-.4.8-.6-.5-.1-.9.1-1.3 0-.4 0-.7-.2-1.3-.4.3.4.4.6.6.8-.2.3-.4.4-.7.6zm41.2-14.4c-1 0-1.6.5-2.4 1.2.8.2 1.4.4 2.1.3.1-.6.2-1 .3-1.5zm-19.1-23.7c-1.8-.2-1.8-.2-2.8.2 0 .2 0 .4-.1.8 1-.1 1.9-.3 2.9-1zm74.3 15.7c-.5-.2-.8-.4-1.1-.6-.5.6-.4 1.2-.3 1.8.3.1.5.2.9.4.2-.6.3-1 .5-1.6zm-39.7-12.2c-.2.5-.4.8-.5 1.1 0 .2.1.4.3.6.3.3.7.2 1-.1.3-.5.2-.7-.8-1.6zm-55.7 37.9c-.3.1-.6.1-.9.1-.3 0-.6-.1-.9-.1.2.8.6 1.1 1.2 1.2.4-.3.8-.5.6-1.2zm56-16.2c-.2-1-.4-1.1-1.2-1-.5.1-.8.3-.5 1h1.7zm-47.4 24.9c0 .4 0 .7-.1.9-.1.2-.4.4-.7.6.7.4 1.2.2 1.8-.1 0-.2.1-.6 0-.7-.1-.2-.5-.4-1-.7zm44.1-25.1c-.7-.1-1-.1-1.3-.2-.3-.1-.5-.3-.8-.5-.2.3-.3.5-.5.8.5.3.9.6 1.3.8.5-.3.8-.5 1.3-.9zm-55.9 8.6c-1.2-.5-1.2-.5-2.1.3.5.2 1 .3 1.6.5.2-.3.3-.5.5-.8zm41.6 17.7c.5-.6.7-.9 1-1.2-.5-.6-.9-.6-1.4-.1.1.4.2.7.4 1.3zm-29.7-23.5c.5.3.9.2 1.4-.1.2-.1.3-.4.5-.7-1.6 0-1.6 0-1.9.8zm37.1 5.5c.7.1 1.2.3 1.8.4-.8-.4-1.4-1.2-2.5-.8 0 .3-.4.5-.1.8.3-.1.6-.3.8-.4zm-34-34.1c.3.7.7 1 1.3 1 .1 0 .3-.1.4-.2-.6-.9-.6-1-1-1-.1 0-.3.1-.7.2zm11.3.2c.9.3 1.7.3 2.6-.6-1 .2-1.7.3-2.4.4-.1 0-.1 0-.2.2zm-18.3 31.2c-.4-.4-.8-.5-1.2-.3l-.4.4c.4.3.7.5 1.1.8.2-.4.3-.7.5-.9zm39.9-8c-.7-.5-1.5-1-2.2 0h2.2zm-3.8 45.2c.5.5.8.9 1.4.9 0-1.1-.2-1.3-1.4-.9zm-2.6-54.7c.4.6.8 1 1.7.9-.3-1.1-1.1-.8-1.7-.9zm9.9 5.2c.3-.4.6-.8 1-1.3-.9-.3-1.2.5-1.6.8v.3c.1.2.3.2.6.2zm-44.5 35.3c.6.2.9.8 1.6.6.2 0 .3-.2.5-.3-1.4-.6-1.4-.6-2.1-.3zm89.2-31.8c1.1.8 1.6.8 2.3.3-.8-.2-1.5-.2-2.3-.3zm-70.5 3.3c1 .4 1.6.3 2.4-.4-.9-.2-1.5-.1-2.4.4zm-26.4 28c.8 1.3.9 1.3 1.5.7-.5-.2-1-.4-1.5-.7zm58.9-53c.7.1 1.1-.1 1.7-.6-.5-.1-.8-.3-1.1-.4-.3.3-.4.6-.6 1zm-54 44.8c-.8-.7-1.1-.6-1.8.2.6-.1 1.2.3 1.8-.2zm4.3 2.1c-.5-.1-.9-.2-1.4-.3.1.4.1.6.2.9.6.1.9.1 1.2-.6zm10.1-24.6c-.8-.3-1.6-.5-2.3.4.9.3 1.6-.2 2.3-.4zm45.2 49.2c-.6-.7-1.1-.7-1.6-.4 0 .2 0 .3.1.6.4-.1.8-.1 1.5-.2zm-51.7-16.6c.9.5.9.5 1.4.2-.2-.3-.3-.6-.5-1-.4.3-.6.5-.9.8zm75.8-44.6c-.1.6 0 1.1.4 1.6.3-1.4.3-1.4-.4-1.6zm-34.1 4.4c.2.8.5 1 1.2 1-.1-.6-.4-.9-1.2-1zm-8 28c.5-.4.8-.6 1.2-.9-.5-.2-.8-.3-1.3-.4 0 .5 0 .8.1 1.3zm-25.1-22.1c.7.1 1.1-.1 1.5-.7-.7-.1-1.2 0-1.5.7zm28.8 37.6c.7 0 1.2-.1 1.7-.5-.7-.2-1.2-.2-1.7.5zm-37.4-11.3c.2-.5.1-.8-.3-1-.5.6-.5.7.3 1zm7.7-18.8c.6.3 1 .3 1.3-.3-.6-.3-1-.3-1.3.3zm76.5-17.6c-.6 1.2-.6 1.4-.2 2.1.3-.6.3-1.2.2-2.1zm-4.9-10.1c.8.3 1.1.1 1.1-.4 0-.1-.2-.2-.3-.4l-.8.8zm-78.3 9.4c-.5.3-.7.4-1.4.8.7.1 1.1.1 1.4.1.1-.3 0-.5 0-.9zm9 33.3c-.8-.2-1.5-.3-2.3.2.8.2 1.5.3 2.1.4.1-.2.1-.3.2-.6zm63 3.2c.7.1 1.4.4 1.9-.4-.8-.5-1.3-.4-1.9.4zm-41 4.4c-.5.3-.9.6-1.4.9 1.4.3 1.5.2 1.4-.9zm-42.3-19c-.5.3-.7.4-.9.6-.1.1-.1.3-.2.6.8.1 1-.3 1.1-1.2zm7.5-3.6c-.5-.2-.7-.3-1.1-.4.3 1 .3 1 1.1.4zm30.1-6.9c-.2.4-.3.5-.5.7.2.1.4.3.9.6-.2-.6-.2-.9-.4-1.3zm3.6 20.9c.6.2.9.1 1-.4 0-.1-.2-.2-.3-.4-.3.3-.5.5-.7.8zm-6.1 0c-.5-.4-.8-.4-1.2-.1.4.7.7.4 1.2.1zm-33.9-32c.3.7.6.9 1.1.7.1 0 .2-.2.4-.4-.5 0-.9-.1-1.5-.3zm9.4-1.3c-.5-.3-.8-.3-1.1 0 .3.6.6.4 1.1 0zm39.5 18.1c0 .9 0 .9.8 1.1l.2-.2c-.3-.2-.5-.5-1-.9zm6.9-19.2c-.6-.2-1-.7-1.8-.2.5.1 1 .3 1.4.4h.2s.1 0 .2-.2zm-52.2 48.2c.6.7.6.7.9 0h-.9zm52.1-27.6c.3-.7.3-.7-.4-.8 0 .2 0 .3.1.5s.2.2.3.3zm-45.8 13.2c-.4.4-.2.7.1.8.2 0 .4-.1.8-.3-.4-.3-.7-.4-.9-.5zm30.1 18.9c.8.1 1.2 0 1.4-.8-.5.3-.8.5-1.4.8zm-33.9-53.8c.8-.2.8-.2 1.3-.6-.6-.2-.9.2-1.3.6zm41 19.5c0-.6-.3-.7-.6-.5-.1 0-.1.2-.1.4.2 0 .5 0 .7.1zm-21.9.5c.1-.4-.1-.6-.5-.5-.1 0-.2.3-.2.4.1.4.4.4.7.1zm22.4-15.9c.6.1.9.2 1 .1.2-.1.2-.4.4-.9-.6.3-.8.5-1.4.8zm-37.3 12.2c.2-.2.4-.3.3-.4 0-.2-.2-.3-.3-.5-.1.1-.4.2-.4.4 0 .1.2.2.4.5zm10.4 19.7v-.4c-.3 0-.6.1-.9.1v.3h.9zm-16.7-22.1c-.8-.3-.7.2-.7.9.3-.4.5-.6.7-.9zm2.3 14.9c-.1-.5-.5-.5-.8-.4-.1 0-.2.2-.3.4.4.3.7.5 1.1 0zm46.1-33.4c.2.6.3 1 .5 1.4.4-.7.4-.7-.5-1.4zm-35.1 1.2c-.5.3-.6.5-.4 1 .6-.2.7-.5.4-1zm16.7 23.6c.2-.2.3-.3.3-.4 0-.1-.1-.3-.3-.3-.1 0-.2.1-.3.2.1.1.2.3.3.5zm-21.7 22.8c-.6-.4-.8-.2-.8.5.3-.2.6-.3.8-.5zm-9.9-3.5c-.7-.3-.7-.3-.9.1.4 0 .6-.1.9-.1zm-8.9-2.3c-.1.1-.1.2-.2.3.3.1.6.2 1 .4 0-.1.1-.1.1-.2-.4-.2-.6-.3-.9-.5zm56.2 32.6c.1-.2.3-.3.3-.4 0-.1-.2-.2-.3-.3-.1.1-.3.2-.3.3.1.1.2.2.3.4zm45.2-64.4c-.4.3-.3.7-.2 1.3.1-.5.2-.9.2-1.3zm-46.1 35.3c0-.1 0-.1-.1-.2-.4.1-.8.2-1.1.3v.2l1.2-.3zm15.8 3.7c-.9-.2-.9-.2-1.7.1.5-.1 1.1.3 1.7-.1zm-66 3.6c-.2.4-.3.7-.4 1.1.5-.2.8-.4.4-1.1zm102.5 18.8c-.8-.5-1.1-.2-1.5.3.4-.1.8-.1 1.5-.3zm-99.3-16.7c-.2-.1-.5-.1-.9-.2.2.6.4.7.9.2zm-1.5-1.6c-.6-.1-.9.1-1.1.9.5-.4.8-.6 1.1-.9zm33.8-3.1c-.6-.4-.6-.4-.9.1.4 0 .7 0 .9-.1zm34.1-25c-.1-.1-.2-.1-.3-.2-.1.3-.2.5-.4.8.1 0 .2.1.2.1.2-.2.4-.5.5-.7zm17.3-18.8c-.5.2-.7.3-1.1.6.5.2.7.4 1.1.6v-1.2zm22.2 47.1v1.1c.2-.1.4-.1.7-.2-.2-.3-.3-.5-.7-.9zm-56.6-37.9c.2-.2.4-.4.3-.4-.1-.2-.2-.3-.3-.4-.1.1-.3.2-.3.3 0 .2.1.3.3.5zm-49.7 12.8c.5.3.7.2.8-.3-.2.1-.4.2-.8.3zm85.5-14.7c.4.6.4.6 1 .1-.4 0-.7 0-1-.1zm-89.5-10.3c-.8-.1-.8-.1-.8.6.3-.2.5-.4.8-.6zm91.7 4c0 .1 0 .1.1.2.3-.1.6-.2.9-.2 0-.1 0-.2-.1-.3-.4.1-.7.2-.9.3zm-18.5 38.6c.1.1.1.2.2.3.2-.1.5-.3.7-.4 0-.1-.1-.2-.1-.2-.3.1-.5.2-.8.3zm-22.7-26c.2-.2.3-.3.4-.5l-.2-.2c-.2 0-.3.2-.5.2 0 .2.1.3.3.5zm-6.9-13c.1-.1.2-.2.2-.4-.2-.1-.4-.2-.6-.2l-.2.2c.3.2.5.3.6.4zm-26.5 33.1c-.9-.1-.9-.1-1.1.4.3-.1.6-.2 1.1-.4zm.7-37.2c0 .1-.1.2-.1.3.2 0 .3.1.5.1l.1-.2c-.2-.1-.4-.2-.5-.2zm46.8 61c-.4-.2-.7-.1-.9.3.4.3.7.2.9-.3zm-.4-61.8c-.5-.4-.7-.2-1 .2.3-.1.6-.1 1-.2zm-17.3 55.4c.1 0 .2.1.2.1l.3-.6c-.1 0-.2-.1-.3-.1 0 .2-.1.4-.2.6zm-36.1-.7c0-.1 0-.2-.1-.3-.2.1-.4.1-.6.2 0 .1 0 .2.1.3.2-.1.4-.1.6-.2zm71.2-12.2h1.2c0-.3-.1-.5-.1-.8-.3.2-.6.4-1.1.8zm-25.9-.3v.4c.2-.1.4-.1.6-.2 0-.1 0-.2-.1-.3-.2.1-.4.1-.5.1zm-26.3 7c-.5.4-.3.7.2 1.1-.1-.6-.2-.8-.2-1.1zm-29.5-24.1c.1.7.4.8 1 .7-.4-.3-.6-.4-1-.7zm73.1 47c-.5.1-.6.3-.2.6 0-.3.1-.5.2-.6zm-49.7-73.5c-.1 0-.2.1-.3.1 0 .1 0 .2.1.3.1-.1.2-.1.4-.2-.1-.1-.2-.1-.2-.2zm22.3 28.4c-.2-.1-.3-.3-.4-.3-.1 0-.2.2-.3.3.1.1.2.3.3.3.1 0 .2-.2.4-.3zm-3.2-.1v.3h.6v-.3h-.6zm2.6-16.2c.1.1.1.2.2.3.2-.1.3-.2.5-.4 0-.1-.1-.1-.1-.2-.2.2-.4.2-.6.3zm40.4-7.2h.9c-.4-.5-.6-.5-.9 0zm-24.3 36.5c-.1-.1-.1-.2-.2-.3-.1.1-.2.1-.3.2 0 0 .1.2.2.2.1.1.2 0 .3-.1zm-59.7-7.9c.1.1.1.2.2.3.2-.1.3-.2.5-.4 0-.1-.1-.1-.1-.2l-.6.3zm13.1-14v-.2c-.2 0-.3-.1-.5-.1v.2c.2 0 .3 0 .5.1zm18.6 5.5c-.2-.1-.3-.2-.5-.2-.1 0-.1.1-.2.2.1.1.2.3.3.3.1-.1.2-.2.4-.3zm-4.5 16.8c1.1.5 1.2.5 1.1 0h-1.1zm68.4-42.9c0 .1.1.2.1.3.2-.1.5-.1.7-.2 0-.1 0-.1-.1-.2-.2 0-.5.1-.7.1zm-2 16.7h-.4c.1.2.1.4.2.7h.2v-.7zm-68.4-12.3c.6.3 1.1.2 1.7-.1-.6-.3-1.1-.3-1.7.1zm1.6 46.5c.1 0 .2-.1.2-.1-.1-.2-.1-.3-.2-.5-.1 0-.2.1-.3.1.2.2.3.4.3.5zm3.5-.3c-1.1-.5-1.1-.5-1.2 0h1.2zm21.6-39l-.3-.3c-.1.1-.2.2-.2.3 0 .1.2.2.3.3.1-.2.1-.2.2-.3zm-8.1-3.8c.3.2.6.5.7-.1-.3 0-.5.1-.7.1zm3.6 18.4c-.1-.1-.2-.1-.2-.2 0 .1-.1.1-.1.2l.1.1c.1 0 .2-.1.2-.1zm-25.8 17.7l-.2-.2c-.1.1-.1.2-.2.3.1 0 .2.1.3.1.1 0 .1-.1.1-.2zm48.1-1.2c-.3 0-.4-.1-.5-.1-.1 0-.1.1-.2.2.1.1.2.2.3.2.1 0 .2-.2.4-.3zm-27.9-31.8v-.3h-.2v.3h.2zm-7.3 32c.1-.1.2-.1.2-.2s-.1-.2-.1-.2c-.1.1-.2.1-.3.2 0 .1.1.2.2.2zm-26.4-6c0-.1 0-.3-.1-.3h-.3v.3h.4zm58.7-31.2c0-.1-.1-.2-.1-.2-.1 0-.2.1-.2.1 0 .1.1.2.1.2 0-.1.1-.1.2-.1zm-22.6 4.6c0 .1-.1.1-.1.2.1.1.3.2.4.4 0-.1.1-.1.1-.2-.1-.2-.3-.3-.4-.4zm-34.4-7.3c0 .1-.1.2-.1.2 0 .1.1.1.2.2.1-.1.1-.2.2-.3-.1 0-.2-.1-.3-.1zm31.1 55.1l-.8-.8v.9c.2-.1.3-.1.8-.1zm-38.1-40.8c-.1-.1-.1-.2-.2-.3-.1.1-.2.1-.3.2l.1.2c.2 0 .3-.1.4-.1zm113.8 40.1c.8.1.8.1.5-.7-.2.2-.3.4-.5.7zm-93.7-12.4c.3.3.6.5.8-.1-.3 0-.5 0-.8.1zm-16 6.2c-.1.1-.1.2-.2.2.1 0 .2.1.3.1.1 0 .1-.1.2-.2-.1 0-.2 0-.3-.1zm4.4-17.5c0-.1 0-.1-.1-.2-.2.1-.3.1-.5.2 0 .1 0 .1.1.2.2-.1.3-.1.5-.2zm-11.1-.6c0-.1.1-.2.1-.3-.2-.1-.3-.1-.5-.2 0 .1 0 .1-.1.2.2.2.3.3.5.3zm2.3-30.7c0-.1 0-.2-.1-.2h-.3c0 .1 0 .2.1.2.1.1.2 0 .3 0zm28.7 49.7l.3-.3s-.1-.2-.2-.2c-.1.1-.3.1-.4.2.1.2.2.2.3.3zm6.1-9.9c.1 0 .2-.1.2-.1-.1-.1-.1-.2-.2-.2s-.2.1-.2.1c.1.1.2.1.2.2zm-25.4-29.3c0 .1-.1.1-.1.2.1.1.3.2.4.3 0-.1.1-.1.1-.2-.1-.1-.3-.2-.4-.3zm18.2 13.2c.1-.2.1-.3.2-.5 0-.1-.1-.2-.1-.2-.1.1-.2.1-.3.2-.1.1 0 .2.2.5zm-5.4-19.5c.1-.1.2-.1.3-.2 0-.1-.1-.2-.1-.2-.1.1-.2.1-.3.2 0 0 .1.1.1.2zm36.9-9.7l-.2.2c.1.1.1.2.2.2s.1-.1.2-.1c-.1-.2-.1-.3-.2-.3zm-53.3 21.8c-.1 0-.1-.1-.2-.1l-.1.1c0 .1.1.1.1.2l.2-.2zm51.9-17.2h-.3v.3h.1c.1-.1.1-.2.2-.3zm-19.1 43.7c-.1-.1-.1-.2-.2-.2s-.2.1-.3.1l.3.3c0-.1.1-.2.2-.2zm8.8-17.2c.1 0 .2-.1.3-.1-.1-.2-.1-.4-.2-.6-.1 0-.2.1-.2.1-.1.3 0 .5.1.6zm2.2 11c-.1 0-.3-.1-.4-.1l-.1.2c.1.1.2.1.3.1.2 0 .2-.1.2-.2zm-53.8-31.8c.1 0 .1.1.2.1.1-.1.1-.3.2-.4l-.1-.1c-.1.1-.2.2-.3.4zm44.4 20.8h.2c0-.2-.1-.3-.1-.5h-.1v.5zm33.3 44.4c.6.4.9.4 1.3-.2-.5.1-.7.2-1.3.2zm-24.3-64.3v.2h.8v-.2h-.8zm-37.1 11.9c-.1-.1-.1-.2-.2-.2s-.1.1-.2.2c.1.1.1.2.2.2s.2-.1.2-.2zm-5-4.5c0 .1.1.2.1.2.2 0 .3-.1.5-.1 0-.1-.1-.2-.1-.3-.2.1-.4.2-.5.2zm5.1-14.3c0-.1.1-.1.1-.2-.2-.1-.3-.1-.5-.2 0 .1-.1.1-.1.2.2.1.4.1.5.2zm-9.2 18.6c-.1 0-.2 0-.2.1 0 0 0 .2.1.2s.2-.1.3-.1l-.2-.2zm.3-7.9c.1-.1.2-.1.3-.2-.1-.1-.1-.2-.2-.3l-.2.1c0 .2.1.3.1.4zm25.7 27.3c0 .1-.1.3-.1.4l.2.1c0-.1.1-.2.1-.4.1 0-.1 0-.2-.1zm11.9-23.4c-.1-.1-.1-.2-.2-.2s-.2.1-.2.1l.3.3c0-.1.1-.2.1-.2zm-36.6 24s.1 0 .1-.1v-.1c-.1.1-.2.1-.1.2-.1 0-.1 0 0 0zm31.1-39.4c.1 0 .2-.1.2-.1-.1-.1-.1-.2-.2-.2s-.2.1-.2.1c.1.1.2.1.2.2zm-40.3 19.3l.1.1s0-.1.1-.1l-.1-.1-.1.1zm18.3-19.3s0-.1.1-.1l-.1-.1-.1.1c0 .1 0 .1.1.1zm-.2 19.1l-.2.2c.1 0 .1.1.2.1 0-.1.1-.1.1-.2 0 0-.1 0-.1-.1zm14.5-19.1l-.2.2c.1.1.1.2.2.2s.1-.1.2-.2c-.1-.1-.1-.2-.2-.2zm27.7 70.3s-.1 0 0 0c-.1 0-.2 0-.2.1h.1c.1 0 .1 0 .1-.1zm-3.9-70.6s.1 0 .1-.1-.1-.1-.1-.2c0 0-.1 0-.1.1s0 .2.1.2zm-2.2 46.8v-.1H74v.1h.3zm-20.2-27.5l-.2.2s0 .1.1.1h.2c0-.1-.1-.2-.1-.3zm73.5 51.7v.2h.7v-.2h-.7zm-62.1-56.5v.1h.4v-.1h-.4zm52.4-7l-.2-.2-.1.1c0 .1.1.2.1.2.1.1.2 0 .2-.1zm-59.4 32.8l-.1-.1c0 .1-.1.1-.1.2h.1l.1-.1zm8.8 27.7c-.4-.2-.5-.2-.7-.3v.2c.2.1.3.1.7.1zm25.1-.5v-.1h-.3v.1h.3zm-17.4-5.5v.1c.1 0 .2 0 .4.1v-.1c-.2 0-.3-.1-.4-.1zm-6.2-63v-.1h-.2v.1h.2zm-6.1 31.2l-.1-.1s0 .1-.1.1l.1.1.1-.1zm37.9 42.4c.1-.1.2-.2.2-.3l-.6-.3c0 .1-.1.1-.1.2.2.1.4.3.5.4zm-23.8-16.4c.1 0 .2 0 .2-.1 0-.2-.1-.4-.1-.6-.1 0-.2.1-.2.1 0 .2.1.4.1.6zm.6-15.6v.1c.1 0 .1 0 .2-.1 0 0 0-.1-.1-.1s-.1.1-.1.1zm-16.7-42.4l-.2-.2s-.1 0-.1.1 0 .2.1.3c0-.1.1-.1.2-.2zm-14.9 0c-.1 0-.2-.1-.2-.1l-.1.1c0 .1.1.1.1.2l.2-.2zm-10.6 8.5l-.1-.1c-.1 0-.1.1-.2.2 0 0 0 .1.1.1.1-.2.2-.2.2-.2zm43.6 38.7c-.1.1-.2.1-.2.2s.1.1.1.2c.1-.1.2-.1.2-.2 0 0 0-.1-.1-.2zm4-39.1c-.1-.1-.1-.1-.2-.1l-.1.1c0 .1.1.2.1.2 0-.1.1-.1.2-.2zm-53.4 32.1c0 .1-.1.2-.1.2s.1 0 .1.1v-.3c.1.1 0 .1 0 0zm-3.5-40.8l-.2-.2-.1.1c0 .1.1.2.1.2.1 0 .1 0 .2-.1zm44.2 76c-.1 0-.1-.1-.2-.1v.1c.1.1.1 0 .2 0zm-49.5-35.1s.1-.1 0-.1c0 0-.1 0-.1-.1 0 .1 0 .1-.1.2h.2zm52.7 28.8c0 .1-.1.1-.1.2l.1.1c.1 0 .1-.1.2-.2-.2 0-.2-.1-.2-.1zm-32.4-15.2c0 .1-.1.1-.1.2l.1.1c.1 0 .1-.1.2-.2-.1 0-.1-.1-.2-.1zm35.7.1c0-.1-.1-.2-.1-.2-.1 0-.1.1-.2.1 0 0 0 .1.1.1h.2zm-58.2-26.6c.1 0 .2-.1.2-.1 0-.1-.1-.1-.1-.2 0 0-.1 0-.1.1v.2zm67.2 15.7v-.1h-.2v.1h.2zm-9.1-23.4c-.1 0-.2-.1-.2-.1l-.1.1c0 .1.1.2.1.2 0-.1.1-.2.2-.2zm-43.7-11.5s0-.1.1-.1h-.2s0 .1-.1.1h.2zm40.7 3s.1 0 .1-.1v-.1s-.1.1-.1.2c0-.1 0-.1 0 0zm5-7.4v-.1c-.1 0-.2.1-.2.1v.1c.1 0 .2-.1.2-.1zm3.9 19.9s0-.1-.1-.1h-.1s.1.1.2.1c-.1 0 0 0 0 0zm-57.2 8.1v-.1H25v.1h.2zm50-20.2c0-.1.1-.2.1-.2-.1 0-.2-.1-.2-.1-.1 0-.1.1-.1.2.1 0 .2.1.2.1zm5.8-7.8c-.1.1-.1.1 0 0 0 .1 0 .2.1.2v-.1s-.1 0-.1-.1zm30.1 48.7v.2h.5v-.1c-.1-.1-.3-.1-.5-.1zm-88-8.4s0-.1.1-.1H23s0 .1-.1.1h.2zm42.2-19.1l-.1-.1c-.1 0-.1.1-.2.1 0 0 0 .1.1.1 0 0 .1-.1.2-.1zm-30-6.9v-.2h-.5v.1c.2.1.4.1.5.1zm87.6.2c0 .1 0 .2-.1.4 0 0 .1 0 .1-.1v-.3zm-99-6.3c-.1 0-.1-.1 0 0-.1 0-.1 0-.2.1h.1c.1 0 .1-.1.1-.1zm56.7 32.1c-.1 0-.1-.1-.2-.1 0 .1-.1.2-.1.2 0 .1.1.1.2.1 0 0 .1-.1.1-.2zm32.6 32.4c-.1 0-.2.1-.2.1 0 .1.1.2.1.2.1 0 .2-.1.3-.1l-.2-.2zm-62.2-71.8v-.1h-.2v.1c.1-.1.1-.1.2 0zm14 19.2l.2.2.1-.1v-.1H65zm-9.3-18.9c-.1-.1-.2-.1-.2-.1 0 .1-.1.1-.1.2l.1.1c.1-.1.2-.1.2-.2zm9.2 32.3c0 .1-.1.1-.1.2l.1.1.2-.2s-.1 0-.2-.1zm-7.2-30.4l-.2-.2s-.1 0-.1.1v.2c.2 0 .2 0 .3-.1zm-37.3 24.2c.1.1.2.1.2.1l.1-.1c0-.1-.1-.1-.1-.2-.1.1-.1.2-.2.2zm49.1 5.3l.2-.2c-.1 0-.1-.1-.2-.1-.1.1-.1.2-.2.2.1.1.1.1.2.1zm-22.5-30.3v-.2h-.6v.2h.6zm-7 18.2s0-.1-.1-.1h-.1c.1.1.1.1.2.1 0 .1 0 0 0 0zm1.1-18.2c-.1-.1-.2-.1-.3-.1l-.1.1c0 .1.1.1.1.2.2 0 .2-.1.3-.2zm1.1 18.4l-.1.1c.1 0 .1.1.2.1v-.1c0-.1-.1-.1-.1-.1zm-17.5-18.7c0 .1 0 .2-.1.2.2 0 .3 0 .5.1v-.1c-.1-.1-.2-.1-.4-.2zm45.5 48.3s.1 0 .1-.1c0 0-.1 0-.1-.1v.2zm-42.3-29.3v-.1h-.1v.2s.1 0 .1-.1zm41.3-.7s.1 0 .1.1c0-.1-.1-.1-.1-.2v.1zm-3.7 51s.1 0 .1-.1v-.1c-.1 0-.1.1-.2.1.1 0 .1.1.1.1zm-8-50s-.1 0 0 0c0 .1 0 .1.1.2 0-.1 0-.1.1-.2h-.2zm-17.6 19.6s.1 0 .1-.1c-.1 0-.1-.1-.2-.1.1 0 0 .1.1.2-.1-.1 0 0 0 0zm34.5-21.9c-.1 0-.1 0-.2-.1v.1h.2zm-1.8 0v-.1s-.1 0-.1-.1v.2h.1zm-17 22.9s-.1 0-.1.1c.1 0 .1.1.2.1 0 0 0-.1-.1-.2.1.1.1.1 0 0zm13.3-1.2v.1-.1zm-37.7-18.7s0-.1-.1-.1H31c0 .1.1.1.1.2 0-.1.1-.1.1-.1zm6.8 20.4s0-.1-.1-.1h-.1c0 .1.1.1.1.2 0-.1 0-.1.1-.1zm35.9 26.9h-.1c0 .1.1.1.1.2h.1c-.1-.1-.1-.2-.1-.2zm-5.4-51.6c-.1 0-.1 0-.2-.1v.1h.2zm-29-.1s.1 0 .1-.1l-.1-.1c0 .1-.1.1 0 .2-.1 0 0 0 0 0zm26.4 4.9l-.2-.2-.1.1.2.2s.1 0 .1-.1zm2.8 0s.1.1.1 0c0 0 0-.1.1-.1 0 0-.1-.1-.1 0-.1 0-.1.1-.1.1zm11.3 45.4s.1 0 .1-.1v-.1s-.1 0-.1.1v.1zm-5.2-27.6s-.1-.1-.1 0c0 0 0 .1-.1.1.1 0 .1 0 .2.1v-.2zm-51.5-17s.1 0 .1-.1l-.1-.1c-.1 0-.1.1-.1.1 0 .1.1.1.1.1zm68.6 41.2s.1-.1 0-.1c0 0-.1 0-.1-.1 0 .1 0 .1-.1.2h.2zm-9-.3h-.1v.2h.1c0-.1-.1-.1 0-.2zm-2.9-1.3h-.1v.2h.1v-.2zm-28.7-22.9s0-.1-.1-.1c0 .1-.1.1-.1.2.1-.1.1-.1.2-.1zm-19.8-25.5s0 .1-.1.1c.1 0 .1-.1.2-.1-.1.1-.1.1-.1 0zm56.8 25s-.1 0-.1-.1c0 .1.1.1.1.2-.1 0-.1-.1 0-.1zm-32.9.2s0-.1.1-.1h-.2v.1h.1zm-25.8-44.9s-.1.1 0 0c-.1.1 0 .2 0 .2l.1-.1s0-.1-.1-.1zm9.9 44.7h-.1c0 .1 0 .3-.1.4h.3c0-.1 0-.2-.1-.4zm13.2-44.6l.1-.1-.1-.1c-.1 0-.1.1-.2.1.1.1.2.1.2.1zm8.1.2v-.1c-.1 0-.1.1-.2.1 0 0 0 .1.1.1 0-.1 0-.1.1-.1zm-32.2.2v-.1c-.1 0-.1.1-.2.1 0 0 0 .1.1.1s.1-.1.1-.1zm47.5 17.3c-.1 0-.1 0 0 0 0 .1 0 .2.1.2v-.1c0-.1-.1-.1-.1-.1zm49 45.6c.1.1.2.1.3.2l.1-.1c0-.1-.1-.2-.2-.2 0 0-.1.1-.2.1zm-57.9-46.1s0-.1-.1-.1H67s0 .1.1.1c.1.1.1 0 .1 0zm5.3-2.4l-.1-.1s-.1 0-.1.1l.1.1c0-.1.1-.1.1-.1zm-54.5 16.6h-.1.1zm48.1 30.2l-.2.2.1.1.2-.2c0-.1-.1-.1-.1-.1zm5.1-47.4c0-.1-.1-.2-.1-.2-.1 0-.2.1-.2.1s0 .2.1.2c0 0 .1 0 .2-.1zm-48.7-.7h-.1c0 .1 0 .1.1.2 0 0 .1 0 .1-.1-.1 0-.1-.1-.1-.1zm40.3-11.4c-.1 0-.1 0-.2-.1v.1c0 .1.1 0 .2 0zm60 10.3v0zm-4.5 0l-.1.1v.1l.1-.1c.1 0 0-.1 0-.1zm-94.8 20.8s0-.1.1-.1l-.1-.1s0 .1-.1.1c0 .1.1.1.1.1zm6.5 10.3l.1.1v-.1H30zm1.7-31v-.1h-.1v.2c0-.1.1-.1.1-.1zm43.2 46.3l-.1-.1c0 .1-.1.1-.1.2h.1c.1 0 .1-.1.1-.1zm-43-25.3l.1.1v-.1h-.1zm36-22.4s.1 0 .1.1c0 0 .1-.1 0-.1 0 0-.1 0-.1-.1v.1zm6.1 46.6s0-.1-.1-.1l-.1.1c0 .1 0 .1.2 0-.1.1-.1 0 0 0zm-43.9-.1l-.2-.2-.1.1.2.2c.1 0 .1-.1.1-.1zm3.6-47.2l.1-.1h-.1v.1zm93.6 46.1c-.1-.1-.1-.2-.2-.2s-.2.1-.3.1c.1.1.2.2.2.3.2-.1.3-.1.3-.2zm-61.8-6.2s.1 0 .1-.1v-.1s-.1 0-.1.1c-.1 0-.1.1 0 .1zm-20.9-40.4h-.1l.1.1c.1 0 .1-.1 0-.1.1 0 .1 0 0 0zm22.4 44.4c0 .1.1.2.1.2s.1-.1 0-.1c0-.1-.1-.1-.1-.1zm-2.3-.1s0 .1-.1.1h.1c.1.1.1 0 0-.1.1.1.1 0 0 0zm-32.8-11.8s0 .1-.1.1c0 0 .1.1.1 0 0 0 0-.1.1-.1h-.1zm85.2-33.8c.1 0 .1-.1.2-.1h-.1s0 .1-.1.1zm-56.2 28.5h-.1c0 .1 0 .1.1.2 0 0 .1 0 .1-.1l-.1-.1zm25.7-29.5s.1-.1 0-.1c0 0-.1 0-.1-.1 0 .1 0 .1-.1.2.1.1.1 0 .2 0zm-44.7 43.5h-.1v.3h.1v-.3zm27.6-9s0-.1-.1-.1h-.1s0 .1.1.1h.1zm-32.2-34.5c.1 0 .1-.1.2-.1 0 0-.1-.1-.1 0-.1 0-.1.1-.1.1zm-9.1 30.9v.1-.1zm16.8-31.8c-.1-.1-.2 0-.2 0l.1.1c.1 0 .1-.1.1-.1zm9.4 45.3v.1c.1 0 .1 0 .2-.1 0 0 0-.1-.1-.1 0 0 0 .1-.1.1zm24.5 1.1c.1-.1.2-.1.2-.2-.1-.1-.1-.2-.2-.2s-.2.1-.2.2.1.1.2.2zm-56.5-46.7l-.1-.1s-.1 0-.1.1l.1.1.1-.1zm68.1 46.1v.3c.2 0 .3-.1.5-.1v-.2h-.5zm10-46.4s0-.1.1-.1c-.1 0-.1 0-.2.1 0-.1 0-.1.1 0zm-20.4 46.6l.2.2.1-.1-.2-.2-.1.1zm-2.2 0h-.1v.1h.2s0-.1-.1-.1zm-40.8-.1H37h.1zm5.4-45.3h-.1v.2h.1v-.2zm-2.6.4l.1.1v-.1h-.1zm73.8 0l-.1-.1.1.1zm-31.1 42.6l-.1.1.1.1v-.2zm26.3 3.6v-.1h-.1l.1.1zm-80.7.4v-.2c-.1 0-.3 0-.4.1v.1h.4zm100 0h.1c-.1-.1-.1-.1-.1 0-.1-.1 0-.1 0 0zm-84.8.4s0-.1-.1-.1c0 .1 0 .1.1.1 0 .1 0 0 0 0zm32 1.4l.1.1v-.1h-.1zm29.3-6.1h-.2l.1.1c.1 0 .1-.1.1-.1zm-15.5-.3c-.1 0-.1 0-.2-.1v.1h.2zm-13-38.5l-.1-.1v.1h.1zm17.1.1h.1v-.1s-.1 0-.1.1c0-.1 0-.1 0 0zm1.6 0h.1-.1zm-58.4 38.4l-.1-.1v.1h.1zm37.3 10c0-.1-.1-.1-.1-.2l-.1.1c0 .1.1.1.1.2.1 0 .1 0 .1-.1zm65.5 1.9l.1-.1h-.1v.1zm-87.1-13.2l.1-.1-.1-.1v.2zm-16.2 0c-.1 0-.1-.1-.2-.1l-.1.1.2.2c0-.1.1-.2.1-.2zm33.5-32.8l.1.1.1-.1h-.2zm48.6.4l-.1-.1-.1.1.1.1.1-.1zm-90.7 0l-.1.1.1.1v-.2zm-9.4 32.3l-.1.1.1.1v-.2zm87.5-31.8s.1 0 .1-.1l-.1-.1v.2c0-.1 0-.1 0 0zm-20.6 12.9h.1v-.1h-.1v.1zm-3.2-.4h-.2l.1.1.1-.1zm23.8-9.5s0-.1-.1-.1c0 0 0 .1.1.1-.1.1 0 0 0 0zm33.6 47.4s0-.1-.1-.1c0 .1 0 .1.1.1-.1.1-.1 0 0 0zm-29.4-19.5l-.1-.1c0 .1-.1.2-.1.2l.1.1c.1 0 .1-.1.1-.2zm-57.3-26.2c-.1 0-.2-.1-.3-.1l-.1.1c.1.1.1.1.2.1s.2 0 .2-.1zm-12.1.4c.1.1.2.1.2.1l.1-.1c-.1-.1-.2-.1-.2-.1 0-.1-.1 0-.1.1zm78.1 54.3h.1-.1zm-77.7-50.8h.1-.1zm74.4-6.8v.1-.1zm-9.4-4.6c0 .1 0 .1 0 0-.1.1 0 .2 0 .2s.1-.1 0-.2c.1.1.1.1 0 0zm-5.1-2.8s0-.1 0 0c-.1-.1-.1 0-.2 0 .1 0 .1.1.2 0 0 .1 0 0 0 0zm10.7 36.5s0-.1 0 0c-.1-.1-.2 0-.2 0l.1.1s.1 0 .1-.1zm23.3 26.8c-.1 0-.1 0 0 0-.1-.1-.2 0-.2 0 0 .1 0 .1.2 0-.1.1-.1.1 0 0zM135.6 220.025c-.4.5-.7 1-.4 1.6.1.3.1.7.2 1.1.3.1.6.2 1.1.4v1.3c-.9.1-1.7.3-2.6.4-1.3.2-2.6.4-4 .5-.6.1-1.3.1-1.9.1-2 0-4-.2-5.9.3-.4.1-.9-.1-1.3 0-.9.1-1.8.3-2.7.3-.8 0-1.5.3-2.4.1-.5-.1-1.2 0-1.7.1-1.1.2-2.2.4-3.3.2-1.4-.2-2.7.2-4 .5-.1-.3-.2-.5-.3-.7h-1.5c-.5 0-.9-.1-1.5-.2-.2-.2-.4-.5-.7-1 0 .5 0 .7-.1.9-.1 0-.3.1-.4.1-1.4-.3-1.4-.3-2.7-.1-.2 0-.4.1-.6.1l-2.4-.3h-.6l-.1.1.1-.1h.7l.9.6c-.9-.1-1.8.2-2.6-.3-.2-.1-.4 0-.6 0-.9.3-1.8.1-2.7 0-1.9-.2-3.9-.6-5.9-.4-1.4.2-2.1 0-2.9-.5-1.4.4-2.8.1-4.2.1-.3-.2-.7-.5-1.1-.8-.1.3-.2.6-.2.8-.1 0-.2.1-.3.1-2 .1-4-.2-5.9.3h-.5c-2.9.1-5.9.2-8.8.3-1.2 0-2.5.2-3.7-.3h-.2c-3.1-.1-6.1-.5-9.2-.4-4.1.1-8.3.1-12.4 0-1.7 0-3.3-.3-5.1-.4 0 0-.2-.2-.3-.4h-.3c-1 .7-2.1.6-3.1.4-2.2-.3-4.3.1-6.4.1-2.2 0-4.4-.1-6.6-.2-1.2 0-2.4-.1-3.5-.2-1.6-.1-3.1-.1-4.7-.1-.6 0-1.2.1-2 .1-.4-.4-1-.9-1.6-1.4-.2.1-.4.2-.7.3-.1-.1-.2-.1-.2-.2-.1-.8-.3-1.6-.3-2.4v-4.7c0-1.3.1-2.6.2-3.8 0-.7 0-1.4-.7-1.8 1.1-.5 2.1-1.4 3.4-1.2 1.2.2 2.3 0 3.5.3 1.3.3 2.8.1 4.1.1 1.7 0 3.3-.3 4.9-.3 3.2.1 6.3-.2 9.5-.1.6 0 1.2.1 1.7.1 2.1-.1 4.2-.2 6.3-.4.5 0 1-.5 1.5-.7 0-.2.1-.5 0-.7-.9-1.7-1.2-3.5-1.8-5.3-.3-1-.6-1.9-.8-2.9-.1-.3-.1-.6-.2-.9-.2-.8-.4-1.6-1.2-1.9.2-.1.5-.2.8-.3-.6-.6-1.2-.5-1.7-.4-1.9.5-3.9 0-5.8.2-.8.1-1.6.1-2.4.1-2.3-.1-4.5-.2-6.8-.2-1.7 0-3.3-.3-4.9-.7 0-.6-.1-1 .4-1.5.2-.2.2-.7.4-1.1-.4-.2-.7-.4-1-.6.1-.4.1-.7.2-1.1-.2-.2-.5-.4-.6-.7-.2-.6-.2-1.2-.3-1.7 0-1.8-.1-3.6-.3-5.4 0-.3.1-.5.1-.8 1.4-.5 2.8-.4 4.3-.3 1.2.1 2.5-.1 3.7-.1 2.2.1 4.3-.3 6.4-.6.3 0 .5-.1.8 0 2.3.3 4.6.2 6.9.2 1.7-.1 3.3 0 5-.1.9 0 1.8-.1 2.7-.1 3-.1 5.9-.2 8.9-.1 2.7.1 5.3-.3 8-.2.3 0 .5-.1.9-.1.2-1.2 0-2.4-.1-3.5-.1-.9.1-1.7.5-2.5.1-.3.4-.5.6-.7 0-.4 0-.8.1-1.3.1-.6.5-.9 1.1-1 .5 0 1.1-.1 1.6.1.8.3 1.5.2 2.2.1 1.4-.1 2.9-.1 4.3 0s2.9.1 4.4.1c1.5.1 3 .2 4.5.2.1.1.3.2.4.3.4.4 1 .7 1.2 1.2.3.7.2 1.6.3 2.4l.3 4.5c.4.5 1 .5 1.5.5h7.1c2.3 0 4.6-.1 6.9 0 4.5 0 9 .1 13.5.1 2.2 0 4.4.2 6.6.3 1.6.1 3.2.1 4.8.1.9 0 1.8-.2 2.7-.2h5.3c.3 0 .7.2 1.1.3 0 .9-.5 1.7.2 2.4-.6.8-.7 1.7-.5 2.6.1 0 .3 0 .5.1-.3 1.1-1.5.6-2.1 1.3.2.7.9.4 1.4.7-.2.2-.4.3-.6.5.1.3.3.7.5 1.1-.4 0-.7.1-1.2.1.2.4.4.8.6 1.3-.3.2-.5.3-.8.4.5.1.9.3 1.4.4-.2 1-.3 1.9-.5 2.9-.4.1-.7.3-1.1.3-3.3.1-6.5.7-9.8.9-.5 0-1-.1-1.6-.1v-.1.1c-.7.3-1.1-.3-1.6-.6-.8 1-2 .5-3 .8-.7.6-1.2 1.3-1.5 2.1-.3.8-.6 1.5-1.4 1.9v-.1h.1c-.2.9-.8 1.5-1.3 2.1-.8 1.1-1.6 2.2-2.5 3.5-.1 0-.4.1-.7.2-.2.4-.4.7-.6 1.1.6.3.6-.3.9-.4.4.2.7.5 1.1.5 1.3.1 2.7.1 4 .1.7 0 1.5-.1 2.2-.2.2 0 .4-.1.6-.1 2.3.1 4.5.1 6.8.2 1.8 0 3.5.1 5.3.1.6 0 1.2-.1 1.9-.2.8.5 2 .6 3 .3.9-.2 1.8-.2 2.7-.1-.2.1-.5.1-.9.2 1.1.3 2.1 0 3 .2.9.2 1.9-.1 2.8.4-.2.4-.3.7-.5 1.1.4.3.7.5 1.1.8-.1.6-.3 1.2-.5 2 .4 0 .7 0 1-.1v3.2c-.1.1-.4.4-.6.7-.1.3-.1.6-.1.9 0 1.1.2 1.9-.6 2.5-.1-.6-.1-1.3-.1-2.3-.4.9-.6 1.5-.9 2.2.4 0 .7 0 1 .1zm-83.7-15.8c.1 0 .1 0 .1.1h.1c-.1 0-.2-.1-.2-.1zm-34.6 12.2c0-.1.1-.1.2-.2l-.2.2zm87.6.1c-.1-.2-.2-.2-.4 0-.6 0-1.3-.4-1.9.2 1.1.3 1.1.3 1.9-.3.1 0 .3 0 .4.1h0zm8.8 0v-.2.2zm21.9 0s0-.1-.1-.1c.1 0 .1 0 .1.1h.1-.1zm-37.8-21.7c.1 0 .2.1.2.1s-.1-.1-.2-.1zm-35.3 23.7v-.1.1h.8c.4 0 .9.2 1.2-.5-.6-.2-.9-.1-1.1.5h-.9zm-1.8-2.1c-.1 0-.2-.1 0 0-.2 0-.1 0 0 0 .2.1.3.2.4.3 0-.1.1-.1.1-.2-.2 0-.3-.1-.5-.1zm12.5-2.6c.1-.1.2-.2 0 0 .1-.3.1-.1 0 0v0zm-32.3-6.5v-.3s-.1-.1-.2-.1v.1c.1.2.2.3.2.3zm47.5-3.8h.4c.2.1.4.2.7.3-.3.7-.5 1.3-.7 1.8.7.4 1.3.2 1.8 0-.1.3-.2.5-.3.8h.2c.1-.3.1-.5.2-.8-.3-.8 0-1.4.4-2.1.3-.1.5-.1.8-.3.3-.2.5-.4.8-.6-1.4-.3-2.5 0-3.6.5v.5c-.4 0-.6 0-.7-.1-.2-.1-.3-.1-.5-.2 0 .1 0 .1-.1.2h.6zm-38.8 16.4h.6c0-.1 0-.1-.1-.2-.1.1-.3.2-.5.2zm14.8-24.4h.5c1 .1 2.1.1 3.1.2.2 0 .4-.2.7-.4-.7-.1-1.2-.2-1.7-.2-.7 0-1.5-.1-2 .5-.3-.1-.5-.1-.6-.1-.2-.1-.3-.2-.4-.3l-.1.1c.2.1.3.2.5.2zm3.3 28.7c-.1 0-.3 0 0 0-.3 0-.2 0 0 0 .1 0 .1-.1.2-.1-.1 0-.1 0-.2.1zm18.2-.6c.1 0 .3-.1.4-.1-.1-.1-.1-.2-.2-.2 0 .1-.1.2-.2.3-.1 0-.2 0 0 0-.2.1-.1 0 0 0zm-51.8-5.8c-.3.1-.6.2-1 .4.7.2.8-.2 1-.4 0-.1 0 0 0 0zm88.2-31.7c-.4-.1-.8-.4-1 .2.5.2.8.1 1-.2l.2-.2-.2.2zm-98.5 30.3c.1.1.2.2 0 0 .2.1.1.1 0 0-.3-.2-.5-.5-1-.2.3.5.6.3 1 .2zm80.1-13.9c.1 0 .2 0 .3-.1l.2-.2c0-.1-.2-.2-.2-.2-.1.1-.2.1-.3.3v.2c.1 0 0 0 0 0zm-12.6 21.1c.1.1.1.2.1.2.1.1.2.1.4.1l.1-.1-.3-.3s-.2.1-.3.1zm-37.7-.4c-.1-.1-.2-.1 0 0-.3 0-.1 0 0 0 .4.3.7.3 1-.1-.4 0-.7.1-1 .1zm-37.9-37.1c-.5 0-1.1-.2-1.8.3.8.3 1.3 0 1.8-.3zm78.8 11.9c.7-.6.7-.6.6-1.6-.2.5-.7.9-.6 1.6-.1.2-.3.3-.4.4-.3.2-.7.5-1 .7 0-.3.1-.6.1-.9-.1 0-.2 0-.2-.1-.7 1.2-1.3 2.4-2.1 3.7.1.1.3.2.6.3.4-.9.7-1.6 1.1-2.4.1-.3.4-.5.6-.7.3.1.6.1.9.2.4-.3.6-.7.4-1.2zm-91.2 14.2c.4.2.7.1 1-.2.1-.1 0-.2.1-.4-.3-.1-.6-.2-1.1-.3.1.4.1.6 0 .9zm68.3-3.2c.3.3.6.6.9.8.1.1.4-.1.6-.2-.4-.7-1-.5-1.5-.6zm-17.7 13.2c.6-.1 1-.4 1.3-1.1h-1c-.1.5-.2.8-.3 1.1zm47.4-21.6h.2c0 .1-.1.1-.2 0-.3-.6-.7-.9-1.3-1-.2 0-.4.1-.8.2.8.4 1.5.6 2.1.8zm-84.2 21.6c-.2 0-.4-.1-.5-.1v.1h.5c.1.5.2 1 .8 1.3.2-.1.5-.3 1-.6-.8-.3-1.3-.5-1.8-.7zm82-21.3c-.2-.2-.5-.5-.7-.8-.7.3-1.2.5-1.7.8-.1.3-.1.5-.2.7v.1-.1c.8-.5 1.7-.6 2.6-.7zm8.7 15.5c1.2.7 2.5.1 3.7.2-.3-.3-.6-.5-.9-.5-.8 0-1.7.1-2.5.1-.1 0-.2.2-.3.2-1.4-.2-1.4-.2-2.1.3.6 0 1.2.1 1.7.1.1 0 .3-.2.4-.4zm-98.2 2.3c.4.4.9.8 1.4 1.2.3-.2.5-.3.7-.4 0-1.1-.9-1.1-1.6-1.4-.3-.1-.7-.1-.9.4.2.1.3.2.4.2zm61.4-.3s-.1 0 0 0c.1.1.2.3.3.5.5-.1 1-.1 1.1-.9-.3-.2-.7-.4-1-.6-1.1.5-1.5.8-2.5 1.8.8-.3 1.4-.5 2.1-.8zm-14.2-8.4c0 .5-.1 1.1-.1 1.7.5.2 1.1.3 1.6.5.9-.3 1.3-1 1.8-1.6-.3 0-.6.1-.9.2l-.9.6c-.1.1-.3 0-.5 0 0-.3-.1-.5-.1-.8l-.9-.6zm26.4-14.9c-.1 0-.1-.1-.2-.1.1 0 .2.1.2.1.2.1.3.3.5.3h1.2c1.2-.1 2.4-.2 3.7-.1.4 0 .8-.2 1.2-.3-.1-.6-.6-.7-1-.6-1.1.2-2.2.1-3.3.2-.7.1-1.6-.1-2.3.5zm7.1 15.8c-.3-.3-.7-.4-1.2-.4-1.5 0-2.9.1-4.4.1H81c-.2 0-.4.1-.8.2.4.6.8.5 1.2.5 2.3 0 4.6 0 6.9-.1.5 0 1.1 0 1.6-.1.2.1.3-.1.4-.2 1 .3 1 .3 2 .1-1-.6-1-.6-2-.1zm-15.5-2.6c.9 0 1.8.1 2.7.1h1.8c2.1 0 4.1 0 6.2-.3-.4-1.8.2-3.3 1.4-4.6-.1-.2-.2-.5-.4-.7.5-1 .7-2.1 1.3-3 .6-.9.9-1.9 1.2-3.1-.2-.2-.4-.4-.4-.5-.7.2-1.2.3-1.6.4-.9.1-1.8 0-2.7.1l-4.8.3c-.6 0-1.3-.1-1.9-.1-3.2 0-6.4.1-9.7.1-.9 0-1.8.1-2.5-.2-.9-.3-1.8.1-2.7-.1-.3-.1-.6-.1-.8-.2-.6-.3-1.1-.2-1.7-.2-1.6 0-3.2 0-4.8-.1-1.6-.1-3.2-.3-4.8-.4-.3 0-.5.1-.8.1 0 .3 0 .6.1.8l1.2 2.4c.2.3.4.6.5 1 .1.8.2 1.6.3 2.5h-1.5c.5 1 1.6.3 2.1 1.3.1.5.3 1.3.5 2.1 0 .3-.8.2-.5.7.3.3.7-.3 1 .3-.6.2-1.1.5-1.6.7.5.5.5.5 1 .5.9 0 1.8.1 2.4.9 0 .1.2.1.3.1.1-.2.2-.4.4-.7h6.3c2.1 0 4.3-.2 6.4 0 2.1.2 4.1-.4 6.1-.1-.3.2-.6.4-1 .7.3.3.4.5.6.7.4-.4.7-.9.4-1.5zm46.4 2.4c1.4.5 2.8-.1 4.2.1 1.5.3 3 .1 4.4.1l.4.4c.1.1.2.2.4.3 1-.4 2-.7 3.2-1.2-.4-.1-.7-.3-.9-.3-1.6 0-3.2 0-4.8.1-.5 0-1.1 0-1.6.1-.4.1-.8.1-1.2 0-1.4-.1-2.8-.1-4.1.4zm-51 3.2c-.4 0-.8 0-1.1.1-.5.1-.9.4-1.3.5-.4.1-.9-.1-1.4-.1.3 1 .5 1.2 1.2 1.2.6 0 1.2-.1 1.7-.2.8-.3.9-.3.9-1.5zm11.5 4.4c-.3 1 0 1.7.7 2.2.3.3.6.5 1 .8.1.1.3.1.6.2-.2-.9-.4-1.6-.5-2.2-.6-.3-1.1-.6-1.8-1zm-39.1-22c.3 1.9 1.3 3.1 1.7 4.5.4.3.7.6 1.4.7-1-1.9-1.5-3.6-3.1-5.2zm8 19.3c-.7.2-1.3.1-1.4.8 0 .2.1.4.1.6.8.2 1.3-.1 1.8-.5-.2-.4-.4-.6-.5-.9zm-32.5 0c-.2.7.1.9.5.9 1 .1 2 .1 3 .1.1 0 .3-.1.7-.3-1.1-.2-2-.4-2.8-.5-.4-.1-.9-.1-1.4-.2zm20.7 3.7c-.4-.7-1-.9-1.8-1-.5.4-.9.8-1.5 1.2.9.5 1.2-.5 2-.5.3.1.8.2 1.3.3zm9.6 2.9c-1.3-.6-2 .4-2.8.8-.1 0 0 .2-.1.3h1c.7-.3 1.2-.7 1.9-1.1zm-27.7-1c.4.7 1 1.2 1.9 1.2 0-.5.6-.6.4-1.2-.4.1-.8.3-1.2.3-.3 0-.7-.2-1.1-.3zm53.6-10c-1.1-1.1-2.1-.5-3.1-.5-.2 0-.4.2-.8.5h3.9zm-47 9.5c.6.5 1.2.3 1.7 0 .3-.9.3-.9-.3-1.3-.4.4-.9.8-1.4 1.3zm62.4 2.6c.2-.3.4-.4.4-.5 0-.3-.1-.5-.3-.7-.4-.5-.9-.5-1.5-.6-.1.3-.2.5-.3.8.4 0 .7-.1.9-.1.3.3.5.6.8 1.1zm-29.9-3.5c-.5.2-.8.4-1.4.7 1 .2 1.8.7 2.8.1-.5-.3-.9-.5-1.4-.8zm14.2-5.1c-.5.2-.8.4-1.2.5l-1.2.3c.9.1 1.8.4 2.8 0-.1-.4-.2-.6-.4-.8zm.4-21.7h-3.3c.8.9 1.9.5 2.9.6.1 0 .2-.3.4-.6zm-34.8 11.8c-.6-.1-1.2-.1-1.8-.2 1.2.9 1.2.9 2.6 0-.2-.3-.3-.5-.6-.9-.1.5-.2.8-.2 1.1zm10.6-1.6c-.5.5-.9.8-1 1.4.4.6.4.6 1.1.9 0-.7.4-1.3-.1-2.3zm13.3-27.6c-.1.8-.2 1.3.4 1.8.6-.2.7-.7 1-1.3-.4-.1-.8-.3-1.4-.5zm-27 30.6c0 .4 0 .6-.1 1 .7-.1 1.2.4 2-.1-.6-.3-1.2-.5-1.9-.9zm43.6 4.6c-1.1-.3-1.8-.4-2.7.1 1.6.5 1.6.5 2.7-.1zm17.8-.7c.5-.4.6-.8.5-1.4-.3.1-.6.1-1 .2.2.4.3.8.5 1.2zm-25.7-14.8c1 .3 2.5.2 3.5-.2-1.3.1-2.3-.4-3.5.2zm-65.9 24.8c.3.1.7.2 1 .2.3.1.6.5 1 .2-.6-.7-1.3-.7-2-.4zm34.1 1.7c.8-.1.8-.1 1.2-.7-.8-.3-.9.2-1.2.7zm38.4-28.5c.5-.2 1-.3 1.8-.5-.9-.3-1.5-.2-1.8.5zm12.5-1.4c.3-.1.5-.3.8-.3.3-.1.7-.1 1.2-.1-.9-.5-.9-.5-2 .4zm19.4 30.3c.4.2.8.6 1.4.3-.4-.6-.9-.5-1.4-.3zm-23.3-30c.9.4.9.4 2.1-.2-.6 0-1.2.1-2.1.2zm-12.6 18.6c.4.2.6.4.8.4.4-.2 1 .3 1.3-.5-.7-.1-1.3-.2-2.1.1zm-14.6 7.9c1.2-.3 1.2-.3 1-1.1-.3.3-.7.6-1 1.1zm27.5 5.7c.3.4.6.3.8 0 .2-.2.2-.5-.2-.6-.1.1-.3.1-.4.2-.1.1-.1.3-.2.4zm-48.9-6.6c.4-.3.4-.6 0-.8-.1-.1-.5 0-.5.1-.2.4.1.6.5.7zm18.6-2.9c0-.5 0-.5-.5-.8-.1.6-.1.6.5.8zm-4.8-23.7c0 .1 0 .1.1.2l1.5-.3c-.4-.1-.9-.1-1.3-.1-.1 0-.2.1-.3.2zm22.4 2.4c.6-.2 1-.3 1.7-.5-1.1-.2-1.1-.2-1.7.5zm-19.1 2c.6.5.6.5 1.1 0 0 0 0-.2-.1-.4-.3.2-.6.3-1 .4zm-19.9-5.9h-1.9c.6.1 1.2.9 1.9 0zm46.3 22c-1-.2-1-.2-1.9.2.7 0 1.2.6 1.9-.2zm-20.4-2.1c.4.7.8.6 1.2.4.1-.1.1-.2.2-.4h-1.4zm32.5-18.5c.3.2.6.4.8 0 .1-.1.1-.3 0-.4-.3-.2-.6-.1-.8.4zm-30.2 23.4c0 .1 0 .3-.1.4h.8s0-.3.1-.4h-.8zm29-12.4c.7.3.7.3 1.1.1-.2-.1-.3-.1-.4-.2-.2 0-.4 0-.7.1zm23.3 14.1c-1-.2-1-.2-1.6.3.6.1 1.1 0 1.6-.3zm-28.2-12c-.5.4-.8.8-.3 1.4.6-.3.5-.8.3-1.4zm-51.7-14.4c.4.1.8.4 1.5-.1-.6-.1-1-.2-1.5.1zm37.8 22.7c-.2-.7-.6-.6-1.3-.4.5.2.9.3 1.3.4zm-60.2-1v-.4c-.4-.1-.8-.4-1.1.4.5.1.8.1 1.1 0zm6.3 12.9c0-.7-.3-.8-.9-.3.4.1.7.2.9.3zm18.3-13.2c.9.3.9.3 1.3-.1-.4 0-.8.1-1.3.1zm41.4 12.4c-.4.6-.4.6 0 1v-1zm-10.2-.6c-.6-.6-.9-.4-1.3.1.5 0 .8 0 1.3-.1zm2.3.7c-.1-1-.1-1-.8-.6.3.1.5.3.8.6zm25.8-4.9c-.6 0-1.2-.3-1.8.2.6-.1 1.2.1 1.8-.2zm1.2-.1c.8.3.8.3 1.7 0h-1.7zm-57.1.4c0 .7 0 .7.8.6-.3-.2-.5-.4-.8-.6zm-21.3.1c-.8-.1-1.2-.1-1.3.7.4-.3.7-.4 1.3-.7zm11.3-28.2v.4c.2-.1.5-.2 1.1-.4h-1.1zm61 23.9c-.2.1-.3.1-.4.2.1.2.2.3.3.5l.2-.1c0-.3 0-.4-.1-.6zm-76.6 6.3c.1-.6.1-.8-.5-.5.2.2.4.3.5.5zm-1.9-.5c0 .1 0 .3-.1.4h.6v-.3c-.1.1-.3 0-.5-.1zm61.3 1.9v.2c.3.1.5.1.8.2v-.2c-.3-.1-.5-.2-.8-.2zm37.1-.1h.3c0-.3-.1-.6-.1-.9h-.2v.9zm-68.7-5.7v-.3c-.2 0-.4 0-.6.1v.3c.3 0 .4-.1.6-.1zm80.4-24.1c.1.1.1.3.1.3.1 0 .3-.1.4-.1-.1-.1-.1-.3-.2-.3 0 0-.2.1-.3.1zm-100.1 19.2v-.1c-.1-.1-.3-.1-.4-.2h-.5v.2c.3 0 .6.1.9.1zm100.2-26.1c.4.2.7.6 1.4.1-.7-.1-1.1-.1-1.4-.1zm-80.9 31.7c-.1.1-.2.1-.3.2.1.1.2.3.4.4 0 0 .2-.1.2-.2-.1-.1-.2-.2-.3-.4zm64.7 5.6c-.1 0-.2-.1-.3-.1 0 .2-.1.4-.1.6h.2c.1-.2.2-.3.2-.5zm-10.2-6.6c-.1 0-.2.1-.3.1l.3.6c.1 0 .1-.1.2-.1 0-.2-.1-.4-.2-.6zm-17-21.3c-.2-.2-.2-.4-.3-.4-.2 0-.3.1-.5.2.1.1.2.4.3.4.1.1.3-.1.5-.2zm11.8 28.1c0-.1 0-.2-.1-.3h-.3c0 .1.1.2.1.3.2.1.2 0 .3 0zm-18.9-5.3c-.2-.1-.3-.3-.4-.2-.1 0-.2.2-.3.3 0 .1.2.2.3.2.2-.1.3-.2.4-.3zm-39.3-17.7v-.2h-.5c0 .1 0 .3.1.3 0 0 .2-.1.4-.1zm41.9 15.1c-.1-.1-.1-.3-.2-.4-.1.1-.2.1-.2.2s0 .2.1.3c0 0 .1 0 .3-.1zm-47.2-3v.5c.2 0 .3.1.5.1-.2-.2-.3-.3-.5-.6zm16 7.7c-.3-.2-.5-.3-.5-.3l-.3.3.2.2c.2-.1.4-.1.6-.2zm13.7-7c0-.1-.1-.2-.1-.2-.1 0-.2 0-.2.1.1.1.1.2.2.3 0-.1.1-.1.1-.2zm-12.1 5.5c.3 0 .4.1.5 0 .1 0 .2-.2.6-.4-.4.1-.5.1-.6.1-.2 0-.3.1-.5.3zm24.8 5.8v.3c.1.1.3.1.4.2 0-.2 0-.3-.1-.3 0-.1-.1-.2-.3-.2zm23.9-29.3c.1 0 .1.1.2.1.1-.1.2-.2.3-.4l-.2-.2c-.1.2-.2.4-.3.5zm-30.6 18.1H65c-.2.1-.3.5-.1.4.2.1.4-.1.6-.4zm17.1 1.2v-.3c-.2 0-.4.1-.6.1v.2h.6zm-30.8 4.6c-.1.5-.1.5.4.5v-.3c-.1-.1-.3-.2-.4-.2zm.1-4c.2-.3.3-.3.3-.4 0-.2-.3-.4-.3-.3-.1.1 0 .3 0 .7zm-44.7-.8v-.1h-.5v.1h.5zm83.5 10.3l.2-.2-.4-.4-.2.2c.1.2.2.3.4.4zm12.4-24.7c.1.1.1.2.2.3.1-.1.3-.2.4-.3-.1-.1-.1-.2-.2-.2s-.2.1-.4.2zm31.4 13.6c.1 0 .1-.1.2-.1-.1-.1-.2-.3-.2-.4-.1.1-.2.1-.2.1 0 .1.1.3.2.4zm-89.4 1.5c-.1-.1-.1-.2-.2-.2s-.1.1-.2.1c.1.1.1.2.2.2 0 0 .1-.1.2-.1zm45.3-18.3c.1 0 .2-.1.3-.1.1-.1 0-.2.1-.3-.1 0-.3.1-.3.1-.1 0-.1.2-.1.3zm-56.7 15.4c-.1 0-.2.1-.3.1 0 .1.1.2.1.3.1-.1.2-.1.4-.2l-.2-.2zm39.8 11.2c-.1-.1-.1-.2-.2-.2s-.2.1-.2.1c.1.1.1.2.2.2.1.1.1 0 .2-.1zm-19-7.2c0 .1-.1.2-.1.2 0 .1.1.1.2.2.1-.1.1-.2.2-.3-.1-.1-.2-.1-.3-.1zm23.4-4.1c.6 0 .9 0 1.4-.1-.5-.3-.9-.3-1.4.1zm-15 4.6c-.1-.1-.1-.2-.2-.2s-.1.1-.2.1c.1.1.2.2.3.2 0 0 0-.1.1-.1zm42.4-13.3c-.4.2-.5.3-.5.3-.2.2-.1.5 0 .4.2-.1.2-.3.5-.7zm-42.4 18.7c.3.2.5.3.5.3.1-.1.2-.2.2-.3-.1-.1-.2-.2-.2-.1-.1 0-.3 0-.5.1zm10.8-.1c0-.1-.1-.2-.1-.3-.1 0-.2.1-.2.1 0 .1.1.2.1.2.1.1.2 0 .2 0zm-6.6-.4c0 .1-.1.1-.1.2.1 0 .2.1.2.1.1 0 .1-.1.2-.2-.1 0-.2-.1-.3-.1zm-23.4.4c0-.1 0-.2.1-.3-.2 0-.4-.1-.5-.1v.2c.1.1.3.1.4.2zm57.2-17.3c0-.1.1-.2.1-.3-.2-.1-.4-.1-.6-.2 0 .1-.1.2 0 .3.2.1.4.1.5.2zm-21.5-9.7c0 .1-.1.2-.1.3.2.1.4.1.6.2l.1-.2c-.2-.2-.4-.3-.6-.3zm14 22.9c-.1-.1-.1-.2-.2-.2-.1.1-.1.1-.1.2l.1.1c.1-.1.1-.1.2-.1zm12.9 1.4v.1h.9v-.1h-.9zm-65.1-9.5c.1-.1.1-.2.2-.2-.1-.1-.2-.1-.3-.2 0 .1-.1.2-.1.3 0 .1.2.1.2.1zm29.4 0c.1-.1.2-.1.3-.2l-.3-.3-.3.3c.1.1.2.1.3.2zm-47 8.9v-.1h-.3v.1h.3zm37.7-8.2c-.1.1-.2.1-.2.2 0 0 .1.1.1.2.1-.1.2-.1.2-.2.1-.1 0-.2-.1-.2zm-13.5-.3v-.1c-.1 0-.1 0-.2.1 0 0 0 .1.1.1 0 0 0-.1.1-.1zm50.4-21.3l-.2.2c.1 0 .2.1.2.1.1 0 .1-.1.2-.2-.1 0-.2 0-.2-.1zm23.3 5.1l-.1-.1s0 .1-.1.1l.1.1c.1 0 .1-.1.1-.1zm-67.7 17.2c0-.1-.1-.1-.1-.2 0 0-.1 0-.1.1v.2c.1 0 .1-.1.2-.1zm-6.7-2.8c0 .1-.1.1-.1.2 0 0 .1 0 .1-.1v-.1zm78.9-18.4c.2-.1.4-.2.6-.4-.4-.1-.6-.1-.6.4zm-56.4 27.9v-.3h-.2v.1c0 .1.1.1.2.2zm-12.6-.2c0-.1 0-.2-.1-.2h-.1c0 .1 0 .2-.1.3.2-.1.3-.1.3-.1zm44.2 2.9s0-.1.1-.1h-.2v.2c-.1-.2 0-.1.1-.1zm2.4-14.9c-.1 0-.2.1-.2.1 0 .1.1.2.1.3.1-.1.2-.2.3-.2-.1-.1-.1-.2-.2-.2zm-8.4 11.7s.1 0 .1-.1v-.1c-.1 0-.2.1-.1.2-.1-.1-.1 0 0 0zm-32.9 4l-.1-.1s0 .1-.1.1l.1.1c.1.1.1 0 .1-.1zm9.7.2c-.1-.1-.1-.2-.2-.2s-.1.1-.2.2c.1.1.1.2.2.2 0-.1.1-.2.2-.2zm44-25.6v-.1c-.1 0-.1 0-.2.1 0 0 0 .1.1.1l.1-.1zm7.6-5.4c-.2 0-.3-.1-.4-.1 0 0-.1.2 0 .2.1.1.2.1.3.1-.1 0 0-.1.1-.2zm-35.5 21.3v.2h.5v-.2c-.1-.1-.3 0-.5 0zm5.7-15.4c-.1.2-.1.3-.2.4.1 0 .2.1.4.1 0 0 .2-.2.1-.2-.1-.1-.2-.1-.3-.3zm-24.3 16.3l-.2.2.1.1c.1 0 .2-.1.3-.1-.1-.1-.2-.1-.2-.2zm-16.2 1.9c-.1 0-.2-.1-.2-.1l-.1.1c0 .1.1.1.2.2 0-.1.1-.1.1-.2zm18.8-1.5l-.2.2c.1.1.1.1.2.1l.1-.1c0-.1 0-.2-.1-.2zm-1 11.9c-.1.1-.1.2-.1.2.1 0 .1-.1.2-.1 0 0 0-.1-.1-.1zm-31.9-.8l.1-.1-.1-.1-.2.2h.2zm26-.2s-.1 0-.1-.1c0 0-.1.1 0 .1 0 0 .1 0 .1.1-.1 0 0-.1 0-.1zm61.9-37.9c-.2 0-.3-.1-.4 0-.1 0-.1.2-.2.2.1 0 .3.1.4.1.1 0 .2-.1.2-.3zm-75.6 37.4h-.1.1zm-16.1.1s.1 0 .1.1c0 0 .1-.1 0-.1 0 0 0-.1-.1 0zm89.1-35.2v-.1s-.1 0-.1-.1v.2h.1zm-83.7 34.8s0-.1 0 0c-.1-.1-.2 0-.2 0l.1.1.1-.1zm4.3-14.1l.1-.1-.1-.1c0 .1 0 .1-.1.2h.1zm-5.1-19.1v-.3c-.2 0-.3 0-.5.1v.1c.2.1.4.1.5.1zm-19.3.8h-.1v.1h.2c-.1 0-.1 0-.1-.1zm60.9 1.7h-.1c0 .1 0 .1.1.2 0 0 .1 0 .1-.1s-.1-.1-.1-.1zm-3.9.8s0-.1.1-.1l-.1-.1s0 .1-.1.1l.1.1zm-32.7 28.5s.1 0 .1-.1l-.1-.1v.2c0-.1 0-.1 0 0zm54.6-27.5s.1 0 .1.1c0-.1-.1-.1-.1-.2v.1zm-21.5 2s.1 0 .1-.1v-.1c-.1 0-.1.1-.2.1.1 0 .1 0 .1.1zm12 24.4v-.1c-.1 0-.2.1-.2.1v.1c.1-.1.2-.1.2-.1zm-51.9-.7c-.1 0-.1 0 0 0-.1 0-.1 0-.2.1h.1s0-.1.1-.1zm-5.6 0h.1-.1zm48.3-.4c0-.1 0-.1.1-.2h-.1v.2zm-34.5-.2s0-.1-.1-.1l-.2.2s0 .1.1.1c.1-.1.2-.1.2-.2zm46.3-13.4c-.1 0-.1.1 0 0-.1.1 0 .2 0 .2l.1-.1c-.1 0-.1-.1-.1-.1zm-45 3.3h-.2l.1.1c0-.1 0-.1.1-.1zm-16.9 13.7l.1.1v-.1h-.1zm19.8-10.6v.1c.1 0 .1-.1.2-.1 0 0 0-.1-.1-.1 0 0-.1 0-.1.1zm26.5.2v.1c.1 0 .1-.1.2-.1 0 0 0-.1-.1-.1 0 .1-.1.1-.1.1zm7.9 1.4c-.1 0-.1 0-.2-.1v.1c.1.1.2.1.2 0zm-35.4.6s.1 0 .1-.1v-.1s-.1 0-.1.1c-.1 0-.1.1 0 .1zm51.6 2.1c.1 0 .2.1.3.1.1 0 .1-.2.1-.2-.1 0-.2-.1-.2-.1-.1 0-.1.1-.2.2zm-92.2-.7s0-.1.1-.1c0 0-.1-.1-.1 0 0 0 0 .1-.1.1H9zm-3.4-2.5h.1-.1zm46-.3v-.1h-.1l.1.1zm70.1-1.4h-.1v.1c.1 0 .1 0 .1-.1 0 .1 0 0 0 0zm-34.7.1h.1l-.1-.1c.1 0 .1 0 0 .1zm-2 0l-.1-.1c-.1 0-.2.1-.3.1l.1.1c.1-.1.2-.1.3-.1zm-1.9 0l-.1-.1c-.1 0-.2.1-.3.1l.1.1c.2-.1.2-.1.3-.1zm-13-.7H70v.1l.1-.1zm13.5 12.9h-.1.1zm45.5-15.4h.1-.1zm-77.9-.2v-.1h-.1v.1h.1zm52.9 10.8h-.1c0 .1.1.1.1.2-.1-.2 0-.2 0-.2zm0-14.5h.1v-.1l-.1.1c0-.1 0-.1 0 0zm1 14.5c-.1 0-.1 0-.2-.1v.1h.2zm-56.2-15.3v-.1h-.1v.1h.1zm-18.9 15.6c0 .1-.1.2-.1.3l.1.1c0-.1.1-.1.1-.2.1-.1 0-.1-.1-.2zm55.1 0h.1-.1zm-41.9-19.7v-.1h-.1l.1.1zm33.1-4.5v.2l.1-.1-.1-.1zm-4.4 0l-.1-.1s-.1 0-.1.1.1.1.1.2c0-.1.1-.1.1-.2zm-1.1 0c-.1 0-.2-.1-.3-.1l-.1.1c.1 0 .2.1.3.1l.1-.1zm54.7-4.6v-.1l-.1.1h.1zm-81.2-.9c-.1 0-.2-.1-.3-.1l-.1.1c.1.1.1.1.2.1s.2-.1.2-.1zm-1.3.2l.1-.1H43v.1zm-9.9-.1c.1 0 .2-.1.3-.1l-.1-.1H33c.1.1.1.1.1.2zm-1.5-.2h-.1v.2c0-.1.1-.1.1-.2 0 .1 0 .1 0 0zm94.1-1.5c-.1 0-.2-.1-.3-.1l-.1.1c.1.1.1.1.2.1s.2-.1.2-.1zm-68.4-.1h.1-.1zm21.9 31.7v.1-.1zm-73.9-8.4l-.1-.1-.1.1.1.1s.1 0 .1-.1zm60.1-.3s0-.1 0 0c-.1-.1-.2 0-.2 0l.1.1.1-.1zm36.5-.3l-.1-.1-.1.1.1.1c.1 0 .1-.1.1-.1zm-1.3 0s0-.1 0 0c-.1-.1-.1 0-.2 0 .1 0 .1.1.2 0 0 .1 0 0 0 0zm5.8-9.2v.2l.1-.1s-.1 0-.1-.1zm-64.1-11.8l.1.1v-.1h-.1zM65.2 36.8c0-.6-.1-1.2.1-1.7.2-.6-.9-1.1 0-1.6-.8-1-.4-2-.2-3.1v2c.7-1.3.7-1.9-.2-2.8.2-.1.3-.3.5-.5-.2-1.1-.4-2.2-.5-3.4-.1-1.1 0-2.3-.3-3.5.6-.4.5-1 .4-1.7-.1-.7-.3-1.5 0-2.2.1-.1.1-.3.1-.5-.5-1.7-.1-3.4-.4-5.1-.2-1.5-.3-3-.3-4.4 0-1-.1-2.1.9-3 .6-.1 1.2-.2 1.9-.2 1.4-.1 2.9.1 4.3-.2 1.1-.2 2.2-.1 3.3-.2 1.2-.1 2.3.1 3.5 0 1.4-.1 2.9 0 4.3.1s2.9.2 4.3.1c1.6-.1 3.2.1 4.8.1.9 0 1.7-.1 2.6-.2h.3c3.1.4 6.1-.3 9.2 0 1.4.1 2.8.4 4.1.5.9.1 1.8 0 2.7-.1.5-.1 1-.4 1.5-.4 1.2.1 2.3.3 3.5.4.7-.1 1.5-.1 2.2-.2.9-.1 1.6.2 2.1 1-.1.5-.1 1-.2 1.5-.1 1.2-.3 2.3.1 3.5.2.6-.2 1.3-.4 2 .1 1 .3 2.1 0 3.1-.1.3 0 .6 0 .9 0 .3.1.5 0 .8-.4 2.8 0 5.5.4 8.3.1.9.4 1.9.2 2.9-.1.4.1.8.1 1.3 0 1.8 0 3.5.1 5.3.1 3.3-.3 6.5-.6 9.8-.2 2.1-.1 4.2-.1 6.3v2.1c0 .5-.1 1 0 1.5.4 2.2.3 4.5.2 6.7-.1.8.2 1.6.4 2.4 0 .3.2.6-.1.9l-.1-.1h.1c-.1.2-.1.4-.2.5v.6c.1 0 .2.1.3.1v-.2c-.1 0-.2.1-.3.1v-.7c.3 0 .5-.1.9-.1.2.3.3.6.6.9.3.1.6.2.8.3.2-.2.4-.3.6-.4.2.2.5.4.8.6.6-.4 1.2-.7 1.7-1.2.4-.4.7-.8.9-1.3 1-2.2 2-4.3 2.5-6.7.3-1.5.7-3.1 1.6-4.4.3-.4.6-.8 1.1-1.4.3 1.1 1.1 1.5 2 1.9.8.4 1.5 1 2.3 1.4.6.4 1.2.8 1.8 1 .9.3 1.7.6 2.4 1.3.3.3.7.5 1.1.8 0 1-.1 1.9-.1 2.9 0 1.2 0 2.5-.3 3.7-.1.3 0 .7 0 1.1 0 1 0 1.9-.4 2.8-.2.5-.2 1-.3 1.6-.1.5-.2.9-.3 1.4-.3 1-.5 2-.5 3 0 1.8-.6 3.2-1.9 4.5-.2.2-.4.4-.5.6-1.1 1.9-2.7 2.9-4.8 3.6-1.2.4-2.3.9-3.5 1.1-1 .2-2.1.1-3.2.1-.6 0-1.3-.2-1.9.2-.3.2-.7 0-1.1 0-1.4-.1-2.6-.7-4-.7-2.7 0-5.1-1.1-7.5-2-1.5-.6-2.8-1.6-3.9-2.8 0 0 0-.1.1-.1v.1l-1.2-2.4c-.6.2-.7-.4-1-.7.1-.2.2-.5.3-.7-.6-.3-1-.6-1-1.4-.1-1.1-.5-2.2-.7-3.3 0-.1-.1-.3-.1-.4 0-1-.1-1.9-.4-2.8-.2-.7-.1-1.4-.1-2.1 0-1.3-.1-2.6-.1-4 0-.2-.1-.4 0-.6.4-1.9.2-3.8.1-5.8V53c-.6.7-1.2 1.1-2 1.4-1.1.5-2.4.9-3.2 1.9-.4.6-1 1-1.5 1.4-.3.2-.7.2-1.2.3-.1.2-.2.6-.3.9-.3.1-.7.3-1 .5-.2-.1-.4-.2-.5-.4-.4-.6-.7-1.2-1.1-1.8.1-.1.3-.2.4-.3-.2-.5-.3-.5-1-.5-1.4-2-2.6-4.3-4.3-6.2-1.7-1.9-3.2-4-5.1-6-.4 1.1-.9 1.9-.8 3.1.1.7-.2 1.5-.6 2.1-.5 1.1-.6 2.3-.9 3.4 0 .2 0 .5-.1.6-1.2 2.1-1.4 4.6-2.6 6.7-.2.4-.3.9-.5 1.3-.1.3-.2.8-.5 1-1.2.9-1.6 2.2-2.2 3.5-.5.9-.9 1.8-1.4 2.7-.6 1.3-1.1 2.7-1.8 3.9-.4.8-1 1.5-1.7 2.1-1.2 1-2.3 2.1-3.4 3.1s-2.2 1.9-3.4 2.7c-.8.5-1.6 1.1-2.4 1.6-.4.3-.8.5-1.3.7-.6.3-1.2.7-1.8 1L54 85.2c-1.1-1-1.2-2.5-2.5-3.3-.2.1-.4.2-.7.3-.5-.6-.9-1.3-1.6-1.7-.3-.2-.5-.5-.7-.9-1.2-1.8-2.3-3.6-3.4-5.4.1-.7.6-1 1-1.2 1.5-.9 2.9-2 4.5-2.8 3.3-1.7 5.4-4.7 7.6-7.5 1-1.2 1.7-2.6 2.2-4.1.6-1.7 1.3-3.3 1.9-4.9.6-1.7 1.1-3.4 1.1-5.2 0-.4.1-.7.2-1.1.6-1.3.9-2.6.8-4 0-.6 0-1.2.1-1.8.1-.4.4-.8.6-1.3-.1-.2-.8-.5-.2-1v.1h-.1c0-.4-.3-.9 0-1.3.1 0 .2.1.3.1-.1 0-.2-.1-.3-.1 0-.2 0-.4.1-.6.5-.5.5-.6.3-.7 0-.1 0 0 0 0zM104 49.7c-.2 0-.3-.1-.2.2.1 0 .1-.1.2-.2zm-25.5 2.7v-.1.1zm40.7 10.8s0 .1 0 0v.1-.1zm-51.5 5.6l-.3.3h-.1v.1c0-.1.1-.1.1-.2.1 0 .2-.1.3-.2zm-.9 1.3c-.3-.1-.4 0-.3.3-.2.2-.4.4-.8.7.8 0 .7-.4.7-.7.2-.1.3-.2.4-.3zm68.2 2.2c.1 0 .2 0 .2-.1 0 .1-.1.1-.2.1zM97.5 43v-.1.1c.1 0 .2.1 0 0 .2 0 .1 0 0 0zm19.5 5h-.2.2c0 .1-.1.3 0 0 0 .3 0 .2 0 0zM58.4 80.4c.1.1 0 .4.3.2-.1 0-.2-.1-.3-.2zm49.7-53c0-.2.4-.5-.2-.8.1.4.1.6.2.8zM91.4 54.6c-.2-.1-.5-.3-.6 0 0 .1.1.3.2.3.2.1.4 0 .4-.3zM65.8 67.2c-.3.3-.5.6-.6 1.1.8-.3.6-.8.6-1.1 0-.1.1-.1.2-.1h-.1s-.1 0-.1.1zm15.5-44c-.3.6-.4 1.2.3 1.9 0-.7.3-1.3-.3-1.9zM57.8 79.8c-.6-.3-1.3-.3-2-.3-.1-.1-.2-.3-.2-.4l-.2.2c.2.1.3.2.5.2 0 .3.1.7.1 1.1.7-.2 1.4-.2 1.8-.8v-.1.1zm29.8-50c.8.7 1.4 1.2 2.1 1.8.4.4.7.9 1.1 1.3 2.1 1.9 3.9 3.9 5.6 6.2.9 1.1 1.7 2.2 2.5 3.3.8 1.1 1.7 2.1 2.4 3.2.3.5.8.8 1.2 1.3.4-.7.7-1.3 1-1.8-.5-2.6-.5-5-.1-7.5.1-.8.3-1.6.3-2.4.1-1.5-.2-3.1.3-4.6v-.3c-.1-2.1-.1-4.3-.2-6.4 0-1.1-.1-2.1-.1-3.3-2.2-.2-4.3-.4-6.3-.6-.3 0-.6.1-1 .1-.3 0-.5.1-.8.1-1.8 0-3.6-.1-5.5 0-2.1.1-4.3.3-6.5.5-.1 1.9 0 3.8-.2 5.5-.2 2-.5 4.4-.3 5.6 1.7-.6 3.1-1.3 4.5-2zm20.7-8.9c-.2 0-.3-.1-.5-.1 0 1.3-.3 2.6.3 4 .1-1.3.2-2.6.2-3.9zM55.6 76.1c.3.4.6.7.8 1l.8-.8c-.5 0-.9-.1-1.6-.2zm25.5-47.2c-.6.4-.3.9-.1 1.3.2-.4.6-.8.1-1.3zm36.4 26.5l-.3.3.3.3.3-.3-.3-.3zM81.3 26.8c.1-.1.2-.1.2-.2v-.3c-.1-.3-.4-.3-.4-.1 0 .2.1.4.2.6zm33.7-7.4c-.1-.1-.1-.1-.2-.1l-.2.2c.1 0 .1.1.2.1.1-.1.1-.2.2-.2zm-17.9-12c-.1-.1-.1-.1-.2-.1s-.1.1-.2.2c.1.1.2.1.2.1.1 0 .2-.1.2-.2zM58.8 75.3c-.7.1-.7.1-.6.6l.6-.6zm67.5 1.3c0-.1-.1-.2-.1-.3-.2.1-.3.2-.5.3 0 .1.1.1.1.2.1-.1.3-.1.5-.2zm9-13.6c0-.1 0-.1-.1-.2-.2.1-.3.1-.5.2v.1c.3 0 .4 0 .6-.1zm-19.1 7.5s.1 0 .1-.1v-.1c0 .1-.1.1-.1.2 0-.1 0 0 0 0zm13.2 8.3c.1 0 .1.1.2.1l.1-.1c0-.1-.1-.1-.2-.1s-.1 0-.1.1zm1.4.6s-.1 0 0 0c0 .1 0 .1.1.2v-.1c0-.1-.1-.1-.1-.1zm-16.5-58.2s-.1 0 0 0c0 .1 0 .2.1.2v-.1c0-.1-.1-.1-.1-.1zm9.1 51.2s0-.1-.1-.1-.2 0-.3.1c0 .1.1.1.1.2.2-.1.3-.1.3-.2zm-20.8-22.9h-.2c0 .1 0 .3.1.4h.2c-.1-.1-.1-.2-.1-.4zm-8-35.9c-.1-.1-.1-.2-.2-.2 0 0-.1.1-.2.1.1.1.1.2.2.2s.1-.1.2-.1zm-9.5-.2c.2 0 .1 0 0 0 .1 0 .2 0 0 0zm7.8 41c.1 0 .2-.1.3-.1 0-.1 0-.2-.1-.3-.1.1-.2.1-.4.2.1.1.1.2.2.2zm46.3 13.1c.1 0 .2.1.2.1s.1-.1 0-.1c-.1-.1-.1-.1-.2-.1v.1zm-34.4-.1c-.1 0-.2-.1-.2-.1l-.1.1c0 .1.1.1.2.2 0 0 0-.1.1-.2zM103.2 11s.1 0 .1.1c0-.1 0-.1-.1-.2v.1zm23.6 68.3c0 .1 0 .1.1.2v-.1c0-.1 0-.1-.1-.1zm-11.2-49.5s0-.1-.1-.1h-.1c0 .1.1.1.1.2l.1-.1zM64.5 73c.1-.1.2-.2.2-.3l-.1-.1c-.1.1-.2.1-.3.2l.2.2zm20-37.2v-.1.1zM129 69.2s-.1 0-.1.1.1.2.1.2.1 0 .1-.1-.1-.1-.1-.2zm-15.1-24.1h-.1v.4h.1v-.4zm-33-12.5s0-.1-.1-.1l-.1.1c0 .1.1.1.1.2l.1-.2zm56.6 42.2h-.1v.1h.2c-.1 0-.1 0-.1-.1zm-81.8 2.6l-.1-.1c0 .1-.1.1-.1.2l.1.1c.1-.1.1-.1.1-.2zm25.6-56v.1h.1v-.2c0 .1-.1.1-.1.1zm26.1-.6l-.1.1h.1v-.1zm16.9 59.4l.1.1v-.1h-.1zm-20.6-29.4v.2h.5v-.2h-.5zm12.5-38.7s0-.1-.1-.1c0 0-.1 0-.1.1s.1.1.1.2c.1-.1.1-.1.1-.2zM74.9 9.6s.1 0 .1-.1h-.2c.1 0 .1 0 .1.1zm-5-.6l-.1.1.1-.1zm-6.2 64.7l-.1.1.1.1.1-.1s0-.1-.1-.1zm5.8-7.9c.1 0 .1-.1 0 0 .1-.1 0-.2 0-.2v.2c0-.1 0 0 0 0zm24.4-11.1l-.1-.1v.1h.1zm-13-23.3v.1-.1zm27-1.3h.1-.1zm-26.7-2.3l-.1.1h.1v-.1z" fill="#FF2B59"/><path d="M20.9 46.8l.3-1.2c.1-.3.1-.6.2-.9h.3-.3c-.2.1-.3.2-.6.3 0-.6-.1-1.1-.1-1.5.4-.6.9-.5 1.6-.6.1-.6.1-1.2.2-1.9 0-.5.1-1 .2-1.4.1-.5.5-.9.1-1.4v-.3c.9-.6.5-1.4.6-2.2.1-.4.2-.9.4-1.4-.5-.5-.6-1.2-.3-1.8.4-.9 1.2-.9 1.8-1.3-.2-1.3-.2-1.3-2-2.2 1-.3 2-.6 3.2-.9-.4-.3-.6-.5-.8-.5-.4 0-.7 0-1.1.1l-.4-.4c-.3-.3-.5-.5-.8-.9.3-.6.7-1.2 1-2l-.6-.9c-1.2.3-1.2.3-1.3 2.3-.1-.8-.3-1.5-.4-2.3-1.1-.7-2.5-.7-3.8-.3-.3-.2-.3-.4-.5-.8-.4.2-.8.3-1.1.5 0-.3-.1-.5-.1-.8.4-.5.7-.9 1.1-1.4.8.3 1.6.7 2.4 1 .3-.2.7-.5 1-.8-.8-.7-1.8-.9-2.8-1.3-.2.1-.6.3-1 .4-.2-.2-.5-.4-.8-.6-.7.2-1.6.1-2.4.9 1 .2 1.8.3 2.5.9-.3.3-.6.5-1 .9-.7-.2-1.4-.3-2.2-.5-.6.1-1 .9-1.9.9-.7 0-1.4-.1-2.2.3.2.2.3.4.5.4.3.1.7.1 1.4.1-1.3.3-2.1.1-3-.1l.1-.1c0-.1 0-.2-.1-.3v.1l-.3-.3c0 .1-.1.2-.1.3-.2 0-.4-.1-.6-.1 0 .3-.1.4-.1.7l-1.2-.3c.1-.1.1-.2.1-.4.1 0 .2-.1.3-.1-.1.1-.2.1-.2.2-.7-.2-1.5.3-2.2-.2 0-.5.4-.5.7-.5 2.1-.2 4.2-.4 6.3-.5 0-.5-.4-.6-.7-.6-.6 0-1.2 0-1.8.1-.3 0-.3 0-.9-.5 1.2-.7 1.4-.8 2.7-.4.3-.3.5-.6.9-.9.1-.1.4 0 .6 0 .1-.1.3-.1.4-.2-.2-.6-.3-1.2-.5-1.8-1.2-.7-2 0-2.8.8-.1-.3-.1-.5-.2-.8-.6.2-1 .4-1.3.6-.1-.1-.2-.3-.3-.5-1 .3-1.9-.1-2.6-.8 1.3-.4 2.6-.7 3.9-.8.3 0 .8.1.9-.5.4.1.8.2 1.3.2.2 0 .5-.1.7-.2-.4-.6-.9-.8-1.5-.7-.1.2-.3.5-.4.8-.9-.3-1.7 0-2.5.1-.6.1-1.3.3-1.9.4-.4.1-.7 0-1.1 0-.4-.9-.1-1.7-.2-2.6-.1-.9.2-1.7.7-2.4.1-.1 0-.3.1-.4 0 0 .1 0 .1-.1 0 0 0 .1-.1.1-.3-.2-.5-.4-.8-.6 0-.5 0-1-.1-1.8.4.5.6.8.8 1.1.2-.3.3-.5.5-.8C6 7.9 7.3 8.2 8.6 8c1.4-.2 2.8 0 4.2-.5.5-.2 1 0 1.6-.1 1.5-.1 3.1-.2 4.6-.3 3-.3 5.9.1 8.8.2 2.1.2 4.2.3 6.2 0 .6-.1 1.3-.1 1.9 0 2.5.5 5 .1 7.5.1 1.1 0 2.3-.2 3.4.1.1 0 .2.1.3 0 1.7-.6 3.5 0 5.2-.5 1.2-.4 2.7-.1 4-.1.4 0 .7.2 1.1.3 0 .5.1.9.1 1.3 0 1.8-.1 3.5-.1 5.3v6.3c0 .7 0 1.4-.1 2.1-.1.8-.7 1.5-1.5 1.4-2.2-.3-4.4.4-6.6.3-.9 0-1.8 0-2.7-.2-1.3-.2-2.7-.1-4 0-1.3.1-2.6.2-3.8.6-.1 0-.1-.1-.2-.1.1 0 .2.1.2.1-.3.5-.3.6.2.6-.6.9-.6 1.9-.5 2.9 0 1.9-.2 3.9-.1 5.8.2 2.7.1 5.4.1 8.1 0 .7.1 1.4.1 2.1 0 1.3.6 2.5 1 3.7.3.8.9 1.2 1.7 1.1 1.4-.2 2.8-.3 4.2-.6 2.9-.5 5.7-1.1 8.5-1.6.1 0 .2 0 .3.1.1.7-.6.6-.9 1 0 .2.1.4.1.6h1.3c.1.2.2.4.2.6 0 .8.3 1.6.6 2.3.4 1.1.8 2.1.4 3.3.3.2.6.5.9.7.5 1.8.9 3.6.9 5.6-.8.3-1.5.6-2.3.9-1.6.6-3.1 1.1-4.7 1.7-1.1.4-2 1.1-3.1 1.5-1.1.4-2.3.8-3.4 1.2-1.1.4-2.2.8-3.3 1.1-1 .3-2 .6-3.1.8-4.2.7-8.2 2.3-12.1 3.9-1.3.5-2.7 1-4.1 1.5-1.3.4-2.6.9-4 1.2-1 .3-2 .4-3 .7-1 .3-2 .6-2.9.9-.6.2-1.1.3-1.7.5-1.6.4-3.3.6-4.9 1.1-.6.2-1.3.3-1.9.1-.5-.8-.8-1.6-.9-2.5-.1-1.7-.4-3.3-.6-5-.1-1.2-.2-2.5-.4-3.7-.2-1.4-.5-2.7-.8-4.1.5-.6.5-1 .5-1.5 1.2-.1 2.2-1.2 3.6-.4.4-.5 1.2-.2 1.6-.8 1.6-.6 3.3-1.3 4.9-1.9.2-.1.6-.3.8-.2 1 .4 1.8-.1 2.6-.4.4.5.6.2.8-.2-.2 0-.3-.1-.4-.1l.2-.2c1.4.2 2.4-.9 3.7-1.1.8-.2 1.2-.9 1.4-1.6.4-1.6.6-3.2.9-4.8 0-.1-.1-.2-.1-.3.4-.8.6-1.5-.1-2.1zm-7.2-31.3c.2.1.3.1.5.2v-.2h-.5c0-.1 0-.2-.1-.3h-.2v.1c.1.1.2.1.3.2zm3.3.6c-.4 0-.7.1-.5.7.2-.2.3-.5.5-.7zM8.9 9.3c.4-.1.9-.3 1.4-.5-.8-.1-1.6-.3-2.4.1.3.5.7.4 1 .4zm7.8 9.1c-.6-.4-1.1-.7-1.6-1 0-.1 0-.3-.1-.6-.4.1-.8.2-1.2.2.1.2.2 1.1.3 1.2 0 .2.1.3.2.5.4.1.8.2 1.1.3.4 0 .8-.2 1.3-.6zm1 45.3c1.2.5 2.1-.1 3-.3v-.3c-1 0-1.9.3-3 .6zM29 24.8c0-.6.4-1.3-.4-1.9-.3.8-.4 1.4.4 1.9zm-10.7-8.5c.6.1 1 .3 1.5-.3-.6-.3-1-.1-1.5.3zM6.5 9.7c0 .1 0 .2-.1.3H7s.1-.2.1-.3h-.6zm18.1 16.7v-.3h-.2v.3h.2zm-12-8.5s.1 0 .1-.1-.1-.1-.2-.2c0 0-.1 0-.1.1l.2.2zm16.7 18v-.2h-.1c0 .1-.1.2-.1.2h.2zM19.6 13l.1-.1s-.1 0-.1-.1l-.1.1.1.1zm9.2 16.5l-.2.2c.1 0 .2.1.2.1l.1-.1c0-.1 0-.1-.1-.2zM6.1 13.2s0 .1-.1.1c0 0 .1.1.1 0 0 0 0-.1.1-.1h-.1zm6.3 2.3v-.1c-.1 0-.1.1-.2.1v.1s.1-.1.2-.1zm28.5 35.1c-.1-.1-.1-.2-.2-.2s-.2 0-.3.1c0 .1 0 .2.1.3.1-.1.2-.1.4-.2zM104 111.2c1.2.2 2.2 1 3.2 1.4.2.8.4 1.5.5 2.3.1.4 0 .9-.1 1.3-.2.7-.5 1.4-.7 2.1-.9-.8-1.8-.9-2.8-.2h-.2.2c.9 0 1.6.5 2.3 1 .2-.3.4-.6.6-.8-.2 1-.4 2.1-.5 3.1-.3.2-.6.4-.8.6v-.1l.1.1c0 .4.1.7.1 1.2l-1.8 2.7c0-.1-.1-.2-.1-.3.1.1.1.2.2.3-.2 1.5-.5 3.1-1.8 4.2-.2.2-.4.5-.6.8-.6.7-1.2 1.3-1.8 2.1.1.1.3.2.5.4-1.3 1.4-2.8 2.1-4.9 2.2.2.3.3.5.5.8 0 .2-.4.2-1.6-.2-.2.2-.4.5-.5.7-.2-.1-.3-.2-.5-.3-.6.1-1.1.2-1.8.4.2.2.3.3.6.5-1 .1-1.9.2-2.8.2-.6.1-1.2.1-1.8.2-.5.1-.9.3-1.4-.1-.1-.1-.3 0-.4 0-1.9.4-3.8.1-5.8.1-1.7 0-3.3-.1-5 0-2 .2-4-.1-6.1-.1-.6 0-1.1-.1-1.7-.2h.1s-.1 0-.1.1c-1.1-.4-2.1-.4-3.3-.3-1.1.2-2.3-.2-3.5-.4v-.1.1c-.4-.1-.8-.4-1.3-.2-.6.2-1.3-.1-1.7-.6-.4.3-.8.4-1.2.1h.1v.1c-.2-.1-.3-.1-.5-.2-.3-.1-.5-.3-.8-.4-.6-.2-1.3-.3-1.9-.4-2.2-.3-4.2-1.2-6.1-2.1-.5-.2-.9-.6-1.3-.9-.5-.4-.9-.8-1.4-1.1-.8-.5-1.4-1.3-2-2-.6-.8-1.1-1.5-1.7-2.3.3-1-.2-1.6-.9-2.2l-.4-.4h.1c-.1-.3-.3-.3-.4 0v-.1c-.5-.5-.8-1.2-.8-1.9 0-1.4-.2-2.7-.6-4.1-.4-1.5-.3-3 0-4.5.4-2.5.6-5 .5-7.5-.1-1.1.1-2.2.3-3.2.6-2.6.9-5.2 1.3-7.8.1-.8.2-1.6.4-2.4 0-.3.2-.5.3-.8.4 0 .7-.1 1.1-.1 2 0 4 .1 5.9 0 2.6-.1 5.1.1 7.7.3.6 0 1.1.2 1.7.4v2.2c-.1 2.6-.3 5.2-.4 7.9 0 .5 0 1-.1 1.4-.3 3.1-.2 4.3.1 6.8.1.8-.1 1.7 0 2.5.1 1.7.3 3.4.9 5 .5 1.5 2.6 3 4.1 3.3 1.4.2 2.7.3 4.1.3.3 0 .6 0 1 .1 1.1.1 2.1.3 3.2.4-1.3.6-2.8-.3-4.3.3.2.2.4.2.5.3-.1 0-.1.1-.2.1-.6.1-1.3-.2-2 .3.8.3 1.6.3 2.3.1.8-.2 1.4-.2 2.2 0 .6.1 1.1.3 1.7.1h.1-.1c0-.1.1-.3.1-.4.3-.1.6-.2 1-.4 0 .4.2.5.8.1-.4 0-.6-.1-.8-.1.9-.4.9-.4 1.4.1.3.3.5.4.8.2.3.6.8.4 1.3.4.6 0 1.1-.1 1.8-.2 0 0 0-.1.2-.4.1 0 .3-.2.6-.2.9 0 1.8-.2 2.7 0 1.4.3 2.9 0 4.3 0 .9 0 1.8-.2 2.6-.7.1.1.2.3.3.4 0 .1 0 .2.1.3-1-.1-1-.1-1.6.5 1 0 1 0 1.6-.6 1 .5 1.6 0 2.2-.8-.8 0-1.5.2-2.2.5 0-.1.1-.3.1-.4.8-.7 1.5-1.3 2.3-2 0 .1.1.2.1.3 0-.1-.1-.2-.1-.2 1.2-.8 1.7-2 2-3.3.2-.7.6-1.5.1-2.2-.1-.1.1-.4.1-.6.1 0 .2.1.3.1-.1 0-.2 0-.3-.1.1-.3.4-.6.3-.9-.4-1.4.3-2.6.8-3.8.4-.9.8-1.6 1.9-2 .2.1.7 0 1 .3 1.7 1.2 3.8 1.5 5.7 2.3.6 0 1.6.7 2.5 1.2h-.2.2zm-49.8 9c.1 0 .1.1.2.1-.1-.1-.2-.1-.2-.1-.1 0-.1 0-.1-.1 0 0 .1 0 .1.1zm41.1-11.9c-.1 0-.3 0-.5.1.2.1.4.2.5.2 0 .3 0 .5.1.9.4-.4.3-.7-.1-.8-.1-.2-.1-.4 0-.4zm2.4 2c0-.2 0-.3 0 0 0-.3 0-.2 0 0 .2 0 .3 0 .5.1v-.2c-.1 0-.3.1-.5.1zm4.9 8.6c-.2-.2-.3-.5-.9-.3.5.1.7.2.9.3zm-3.4.7c.4-.1.9-.1 1.3-.2-.5-.1-.9-.2-1.3.2h-.5v.2c.1-.1.3-.2.5-.2zm-2.3-4.3c-.1.4-.2.9-.4 1.3s-.1.8.2 1.2c.5-1.1 1-2.1 1.5-3.2 0-.1 0-.2-.1-.4-.3 0-.6-.1-.8-.1-.1.6-.2.9-.4 1.2zm8.3-2.9c-1.1-.4-1.8-.8-2.6-1.1-.9-.3-1.9-.7-2.9-.9-.2-.1-.6.1-1 .1.8.4.8.4 1.5.4 1.4 1.1 2.9 1.6 5 1.5zm-34.1 15.4c.2.2.3.4.4.4.7.2 3.5 0 4.3-.2-.8-.1-1.5-.3-2.3-.4-.8 0-1.6-.3-2.4.2zm-13.7.3c-.9-.8-1.5-2-3.2-1.9 1 1 2.1 1.4 3.2 1.9zm45.4-10.4h.3c0-.6-.1-1.2-.2-1.9-.6-.1-1.1-.1-1.5-.2-.1.7.6.6.8 1 .2.4.4.8.6 1.1zm-2.8 10.1c0-.8-.3-1-.9-.9-.1 0-.3.1-.5.2.6.4.9.5 1.4.7zM88.9 126c-.3-.7-.6-.6-.8-.4-.1.1-.2.3-.4.7.5-.1.8-.2 1.2-.3zm2.4-5.1c.6.2 1.1.4 1.7 0h-1.7zm-48.8-9c-.3.7-.1 1 .2 1.4.5-.5.4-.9-.2-1.4zm8.9-14c-.2-.5-.2-.8-.8-.7 0 .4.1.7.8.7zm-10.7-4.8c0 .6.4.7.9.7 0-.8-.4-.8-.9-.7zm2.4 13.4c-.2.2-.4.4-.4.5 0 .1.1.3.2.4.1 0 .1 0 .2-.1v-.8zm53.2 14c0 .1.1.1.1.2.1-.1.3-.1.4-.2 0-.1-.1-.1-.1-.2-.1.1-.2.2-.4.2zm-.9 0c-.2-.1-.3-.3-.4-.3-.1 0-.2.1-.2.1 0 .1.1.3.2.3 0 .1.2 0 .4-.1zm8.2 5.8c-.2-.1-.3-.2-.4-.2-.1 0-.2.2-.3.3.1.1.2.2.3.2.1 0 .2-.2.4-.3zm-22-2.6v-.2h-.7v.2c.3-.1.5-.1.7 0zm8.7 1.8c-.1 0-.2-.1-.2-.1s-.1 0-.1.1.1.1.1.2c.1-.1.2-.1.2-.2zm.3 3.5h-.1.1zm3-.3l-.1-.1v.1h.1zm-23-.5c0-.1-.1-.2-.1-.2h-.1v.3c.1-.1.1-.1.2-.1zm30.2-.9v-.1s-.1 0-.1.1v.1c0-.1 0-.1.1-.1zm-6.3-.1l-.2-.2-.1.1.2.2.1-.1zm-31.7-3.9v-.1h-.5v.1h.5zm-1.2-.9v-.2c-.2 0-.3-.1-.5-.1 0 0 0 .1-.1.2.3.1.5.1.6.1zm-9.3-.4h-.1c0 .1.1.2.1.2h.1c0-.1 0-.2-.1-.2zm40-9.5c0-.1-.1-.2-.1-.3 0 0-.1 0-.1.1v.3c0-.1.1-.1.2-.1zm-48.7 6.4h.1v-.1l-.1.1zm13.6.4l-.1-.1c-.1 0-.2.1-.3.1l.1.1c.1 0 .2 0 .3-.1zm46 2.2v.1-.1zm-58.8.7c0 .1 0 .1 0 0 .1.1.1.1.2.1v-.2c-.1.1-.2.1-.2.1zm13.1.4c-.1 0-.2-.1-.2-.1l-.1.1.1.1c.1-.1.1-.1.2-.1zm-16.1-17.9l.1-.1h-.1v.1zM60 124.2h.1v-.1c0 .1-.1 0-.1.1zm-1.2 12l-.1-.1v.1h.1zm2.8.3s0-.1 0 0c-.1-.1-.1-.1-.2-.1v.2c.2 0 .2-.1.2-.1zm-19.8-29.8l-.1.1h.1v-.1zm9.6 16l.1-.1-.1-.1-.1.1.1.1zm-6.7.1l-.1.1h.1v-.1zm11.9 7.1l-.1.1.1.1.1-.1s0-.1-.1-.1zM118.5 122.1c-.3-.2-.6-.3-.9-.5-.2-1.1-.7-2-1.6-2.8-.4-.4-.5-1-.8-1.5h.3c.1.1.2.2.4.3v.1-.1c-.1-.1-.2-.2-.4-.3-.1-.5-.1-.6-.6-.4v-.1c-.9-1.4-1.9-2.7-2.8-4.1-.4-.6-.7-1.3-1.4-1.7v-.4c-.3-.6-.5-1.2-1.3-1.4-.6-.2-1.1-.8-1.3-1.4v-.1s0 .1-.1.1c-1.5-1.7-2.8-3.5-4.2-5.4-2-1.7-3.9-3.7-5.5-6.2.5-.3.8-.5 1.2-.7l4.5-2.7c.5-.3.9-.6 1.5-.3h-.1l.1-.1c.3 0 .5-.1.9-.2l-.5-.5c1.2-1 2.4-2 4.1-1.9 0 .2.1.5.1.7h-.1.1c.7-.3 1.3-.5 2.2-.9-1-.4-1.6.3-2.3.2.4-.5 1.3-1.2 1.7-1.2h.2c.7.6 1.6.5 2.5.7 1.1.3 1.7 1.2 2.5 1.9 1.1 1.1 2.2 2.2 3.2 3.4.7.7 1.4 1.5 2 2.3.8 1.2 2 2.1 2.6 3.4 2.9 2.4 4.8 5.5 7 8.5-.3.1-.3.3 0 .4h-.1.4l.3.6c-.1.2-.4.5-.3.7.2 1 .7 1.8 1.7 2.3.1-.2.2-.3.4-.5.2.4.4.8.6 1.3h-.7.6v.8c.1.2.4.3.4.7 0 .3.3.7.5 1 .2.3.6.6.8 1l.6.9c.2.3.6.5.8.8-.5.1-.5.2-.1.6.1 0 .1 0 .1.1h-.2c0-.2.1-.5.1-.7.6.8.6.8.6 1.7.1 0 .3.1.4.1.1 0 .2.1.3.1-.2.8.2 1.4.7 2.1-2 1.2-3.8 2.5-6.2 2.8-.1-.1-.2-.3-.3-.5.2 0 .5 0 .6-.1.3-.3.4-.7.7-1-.2 0-.3-.1-.5-.1-.1 0-.3.1-.5.2-.1.4-.1.8-.2 1.2-.1.1-.4.1-.4.2-.2.7-.7.8-1.3 1.1-1.8.9-3.5 1.8-5.2 2.7-.4.2-.7.5-1.1.9-.4-.1-1-.5-1.5.1.1.1.2.2.5.4-.4.3-.9.6-1.3.8-.9-.9-.8-2.4-1.8-3.3-.1-.8-.7-1.2-1.1-1.8-.4-.6-.7-1.3-1-2-.3-.6-.5-1.2-.8-1.7 0-.1.1-.4.3-.6.1.3-.1.8.8.6-.3-.3-.6-.5-.8-.6zm14.2-1.7c.1-.1.2-.2.4-.3-.1.2-.2.3-.4.3zm-11.9-1.6v.2-.1c.1 0 0 0 0-.1zm6.2-14.5l.1.1s0-.1-.1-.1zm-4.3 4.5h0zm2.3 13.6c0-.1.1-.1.1-.2 0 .1-.1.1-.1.2zm2.6-2.9c.1.1.2.3.3.4.1.3.1.6.3.9.1.1.3.2.5.4-.1-.7-.3-1.1-.8-1.2-.1-.2-.3-.3-.3-.5 0-.1-.1-.3-.1-.6-.3.4-.3.6.1.6zm-4.9-7.4c-.3 0-.5 0-.8-.1 0 .1-.1.1-.1.1s.1-.1.1-.2c.3.1.6.1.8.2zm-1.7-5.2c-.1 0-.3.1-.1 0-.1.1 0 0 .1 0 0 0 .1-.1.2-.1 0 0-.1.1-.2.1zm13.7 15.9v-.4c-.1 0-.3 0-.4.1-.1.1-.2.2-.2.4-.2-.1-.5-.1-.8-.2-.1.4-.2.7-.3 1.1h1.8c.2 0 .3-.3.5-.5-.3-.3-.5-.4-.6-.5zm-7.8-4.1c-.1-.5 0-.7-.1-.8-.8-1-1.6-1.9-2.4-2.8.2 1.5 1.3 2.4 2.5 3.6zm1-7.3c-1.1-.5-2.1.1-3.2.1 1.1.6 2.2.1 3.2-.1zm-21-19.4c.8-.1.8-.1 1.4-.5-.6-.1-.6-.1-1.4.5zm24 29c-.1-.1-.1-.2-.2-.3l-.3.3.1.2c.1 0 .2-.1.4-.2zm2.2.3c0 .1.1.2.1.3.2-.1.4-.1.7-.2 0-.1 0-.1-.1-.2-.2 0-.4 0-.7.1zm-21.8-24.9c-.1-.1-.1-.2-.2-.3-.1 0-.2.1-.2.1.1.1.1.2.2.3.1 0 .2-.1.2-.1zm1.8 5.6c0-.1 0-.1.1-.2-.2 0-.3-.1-.5-.1v.2c.1 0 .2.1.4.1zm11.3 21.6c.1 0 .2-.1.2-.1-.1-.1-.1-.2-.2-.2s-.1.1-.2.1l.2.2zm-9.6-20.3l-.2.2c.1 0 .1.1.2.1l.1-.1c0-.1 0-.1-.1-.2zm.6 7.6h.3s0-.1-.1-.1c0 .1-.1.1-.2.1zm7.8 5.2l.2-.2c-.1 0-.1-.1-.2-.1 0 .1-.1.1-.1.2-.1 0 0 .1.1.1zm.4-4.5c0 .1-.1.1-.1.2l.1.1c.1 0 .1-.1.2-.1 0-.1-.1-.1-.2-.2zm-14.2-20.7c-.1 0-.2-.1-.3-.1-.1 0-.1.1-.1.2.1 0 .2.1.2.1.1 0 .1-.1.2-.2zm18.9 22.3c.1 0 .1 0 .2-.1-.1-.2-.1-.3-.2-.5-.1 0-.1 0-.2.1.1.2.2.4.2.5zm-17.4-14.6v-.1c-.1 0-.2-.1-.3-.1 0 0 0 .1-.1.1.1 0 .2 0 .4.1zm13.7 9.4c0-.1.1-.2.1-.4-.2-.1-.4-.1-.6-.2 0 .1-.1.2-.1.2.2.1.4.3.6.4zm12.2 13.8c-.1-.1-.2-.2-.2-.3l-.3.3.1.2c.2 0 .3-.1.4-.2zm-11-14h-.1.1zm5.1 2.1s-.1.1 0 .1c0 0 .1 0 .1.1 0-.1 0-.1.1-.2h-.2zm-4.6-6.2c-.1 0-.2 0-.2-.1v.1h.2zm-6.1 13.3c0-.1 0-.1.1-.2h-.1c-.1.1-.1.1 0 .2zm0 6v-.1h-.1l.1.1zm5.2-14.3h-.1v.2h.1v-.2zM99.7 96.4s-.1-.1 0 0c-.1-.1-.2 0-.2 0s.1.1.2 0c-.1.1 0 0 0 0zM2.7 120.9c.9-.1 1.3-.7 1.7-1.4h-.1l.4-.4c.5-.1.3-.5.5-.8.1 0 .1.1.2 0 .5-.2.6-.8 1.2-1.1.5-.2.9-.9 1.3-1.4.4-.5.7-1 1-1.4L11 112c1.4-1.8 2.5-3.8 3.3-5.9.6-1.5 1-3 1.6-4.5.5-1.5 1.1-3 1.7-4.5.9-2.4 1.8-4.7 2.7-7.2.8.4 1.6.8 2.4 1.3 1.1.6 2.2 1.3 3.4 1.8 1.2.6 2.4 1 3.6 1.8.9.6 2 .8 3 1.2l.4 1.2c.2-.4.3-.7.4-.9.3.2.6.3 1.1.6-.1.8-.2 1.6-.4 2.4-.3 1.4-.6 2.7-.9 4.1-.1.3-.1.5-.1.8 0 2.9-1.1 5.6-2.1 8.2-.7 1.8-1.8 3.4-2.3 5.3-.2.8-.7 1.4-1.1 2.1-.8 1.4-1.4 3-2.5 4.3-.2.2-.5.4-.7.6h-.1.1c-.1.3-.2.6-.4.9-.2 0-.5.1-.8.2-.1.4-.3.8-.5 1.2-.5.3-1.1.4-1.2 1.1-.3.5-.5.9-1 1.2-.4.2-.5.9-.8 1.4h-.7c-.7.8-1.4 1.5-2.1 2.3-.7.8-1.8.9-2.6 1.4-.9-.4-1.9-.7-2.7-1.2-1-.6-1.9-1.2-2.7-1.9l-4.8-4.5c-.3-.3-.8-.6-1.1-.9-.4-.3-.9-.6-1.3-1-.6-.6-1.1-1.3-1.6-1.9-.1-.6.2-1 .6-1.1.5-.1.8-.8 1.4-.3h.1-.1c.1-.3.3-.5.5-.7zm8.8 6.7c.2 0 .3-.1.5-.1.1.2.2.4.3.8.3-.4.4-.6.7-1-.5.1-.7.2-1 .2-.2.1-.3.1-.5.1 0 0-.1.1-.2.1 0 .1.1.1.1.2 0-.2.1-.2.1-.3zm.1 4.8c0 .1-.1.3.2.2-.1-.1-.2-.1-.2-.2-.1 0-.2-.1-.2-.2 0 0-.1 0-.1.1.1 0 .2.1.3.1zm2.4-2.6c-.1 0-.2.1-.2.1 0 .1 0 .2.1.2s.2-.1.2-.1-.1-.1-.1-.2zm12.2-28.6c0 .1-.1.2-.1.3l.1.1c.1-.1.1-.1.1-.2 0 0-.1-.1-.1-.2zm.2-3.5s0-.1 0 0c-.2-.1-.2 0-.3 0 .1 0 .1.1.2.1s.1-.1.1-.1zM15 126.2c-.1-.1-.2-.1-.2-.1l-.1.1.1.1c.1 0 .2-.1.2-.1z" fill="#FF2B59"/><path d="M58.7 88.1c-.8-.2-1-.4-.6-1l.6-.9c.5-.6.8-1.5 1.9-1.1.6-.4 1.4-.4 1.7-1.2h-.1c.7 0 .8 0 1-.7l-.1.1c1.2 0 2-1 3-1.5 1.1-.6 2.1-1.4 3.1-2.2.3-.2.8-.1.7-.7.5-.2 1-.5 1.5-.5 1.1.1 2.1.4 3 1.3.9.9 2.1 1.6 3.2 2.4.7.5 1.4 1 2 1.7.4.5 1.1.7 1.6 1.2s.9 1 1.4 1.5c.1.1.3.2.4.3 1.5 1.7 3 3.5 4.5 5.2.3.3.6.6.6 1.1 0 .3.3.5.6.8.3.3.7.5.9.9.7 1 1.2 2.1 2 3.3l-.8-.4c-.4.2-.1.6-.7 1-1.3 1.1-3 2.5-4.6 3.9-.7.6-1.4 1.3-2.4 1.7-.3.1-.6.4-.9.6-.8.6-1.7 1.1-2.5 1.7-.4.2-.7.5-1 .8-.5.4-1 .8-1.4 1.1-1.1-.4-1.6-1.4-2.1-2.1-.6-.8-1.2-1.6-2-2.3-.5-.4-.9-1-1.3-1.6-.3-.4-.4-1.2-.8-1.3-.7-.2-.6-.8-.9-1.2-.1-.1-.3-.1-.4-.2-.5-.4-1.1-.7-1.4-1.3h.1v-.1c0 .1-.1.1-.1.2-1-.9-2.1-1.9-3.1-2.8l-.1-.1c-.5-.4-1-.9-1.5-1.2-.6-.3-.3-1.2-1-1.3-.5-.9-1.4-1.4-2-2.2-.6-.8-1.4-1.3-2.2-2-.1-.4 0-.6.2-.9.2 0 .4.1.6.2 0-.1.1-.2.1-.2-.2-.2-.3-.3-.6-.5 0 .3-.1.4-.1.5zM77 107.3c-.1-.1-.1-.2-.1-.3.1.1.1.2.1.3zm2.4-13.4c-.3-.4-.3-1.1-.9-1.3-.2 1.1-.2 1.1.9 1.3zm-8.6-12.3c.5-.6.5-.6.3-1.4-.7.9-.7.9-.3 1.4zm-.3 6c-.3-.3-.6-.6-.9 0h.9zm13.2 7.9l-.1.1c0 .2.1.5.1.7.1 0 .3-.1.4-.1l-.3-.6c0-.1 0-.1-.1-.1zM72.3 85.2s.1 0 .1.1c0 0 .1-.1 0-.1 0 0-.1 0-.1-.1v.1zm13.6 6.5l-.2-.2-.1.1c0 .1.1.2.1.2.1 0 .2 0 .2-.1zm1.5 2c-.1 0-.1.1-.2.1.1.1.1.3.2.4h.1c0-.2 0-.3-.1-.5zm-2 2.3s0-.1-.1-.1l-.2.2s0 .1.1.1l.2-.2zm-12-5.3c0-.1.1-.2.1-.3l-.1-.1c-.1.1-.2.1-.2.2.1 0 .2.1.2.2zM19.9 291.825c1 .1 2 .2 3 .4.2 0 .3.2.5.3-1.4 1.1-1.6 1.2-4.1 1.1 0-.4-.1-.8-.1-1.2l.4-.4-.1.1c.2-.1.3-.3.4-.3 0-.1 0 0 0 0zM7.3 18c.3.4.6.7 1 1.1-.4.4-1.1.1-1.6.4-.9.6-1.8.5-2.8.4-.1 0-.3-.1-.5-.2.8-1.1 1.8-1.7 3.1-1.1.3-.2.6-.4.8-.6zM21.8 33.2v4.7c-.6-.2-.7-.7-.7-1 .1-1.1.3-2.3.5-3.4 0-.1.1-.2.2-.3zM69.3 4.2c1.5-.3 3-.5 4.6-.4-1.1.5-3 .6-4.6.4zM76.8 4c.9-.7 2 .2 3-.2-1 .3-2 .3-3 .2zM35.2 230.425c.2-.2.4-.5.7-.5.6-.1 1.2 0 1.9.2-.9.1-1.8.2-2.6.3zM54.4 230.125c.7 0 1.4.1 2 .1-.7.5-1.4.3-2-.1zM56.1 231.525c-.5.3-.8.5-1.3.7 0-1 0-1 1.3-.7zM24.5 27.7c-.6.8-.6.8-1.1 0 .3-.1.6-.2.8-.3 0 .1.2.2.3.3zM134.401 208.325h-2.1v-.1h2.1v.1zM23.8 30.1c.3.1.6.2 1 .4-.6.5-.8.1-1-.4zM62.5 230.425c-.4.1-.9.1-1.3.2v-.1c.4-.1.9-.2 1.3-.3v.2zM4.4 16.7c0 .2-.1.5-.2.8-.3-.2-.4-.2-.8-.5.5-.1.8-.2 1-.3zM74.1 122.9c.3-.4.8-.4 1.6-.3-.8.1-1.2.2-1.6.3zM22 30.8c-.2-.3-.3-.4-.4-.6 0-.1.1-.2.2-.3l.3.3c.1.1 0 .2-.1.6zM2.8 120.8c-.1 0-.3-.1-.6-.2.4-.3.7-.6 1-.9.1.2.2.3.2.3-.2.3-.5.6-.6.8zM74.8 230.625h-1v-.1c.4 0 .7 0 1 .1 0-.1 0-.1 0 0zM49.7 230.125h.6v.2c-.2 0-.4.1-.6.1v-.3zM20.9 48.8c-.2-.7-.5-1.3 0-2v2zM34.6 230.525c-.2-.1-.5-.2-.7-.3.4-.3.4-.3.7.3zM21.3 41.3c-.1-.2-.1-.4-.2-.7.1 0 .2 0 .2-.1.1.2.1.4.2.7 0 0-.1.1-.2.1zM59 230.425c-.3 0-.6.1-1 .1.4-.3.4-.3 1-.1z" fill="#FF2B59"/><path d="M58.9 230.425c.3-.1.6-.2.9-.2-.2.3-.2.3-.9.2zM16.7 22.9c-.1.3-.2.6-.7.2.3-.1.5-.1.7-.2zM4.4 119.5c-.2-.1-.3-.2-.6-.3.4-.3.6-.4.9 0l-.3.3zM21.6 38.7l-.2.2c-.1 0-.1-.1-.2-.1.1-.1.1-.2.2-.2s.1.1.2.1zM62.6 83.3l.6-.6c0 .3-.1.5-.1.6l.1-.1c-.2.1-.4.1-.6.1zM16.7 289.525c-.1 0-.1-.1-.2-.1.1-.1.1-.2.2-.3.1.1.2.1.2.2l-.2.2zM51.9 230.225h.4v.1c-.1-.1-.2-.1-.4-.1zM40.4 229.825c.1 0 .2.1.4.1v.1c-.2 0-.3-.1-.4-.2 0 .1 0 .1 0 0zM18 293.425h.3v.1H18v-.1zM68 4.4h-.4v-.1c.2 0 .3 0 .4.1 0-.1 0-.1 0 0zM61.1 84.1c0 .1.1.1.1.2 0 0 0 .1-.1.1s-.1 0-.2-.1c.1 0 .1-.1.2-.2zM55.7 135.8H55v-.1c.2.1.4.1.7.1zM43.4 230.025l.1.1h-.1v-.1zM64.9 81.7v.2l-.1-.1.1-.1zM82.7 230.525c.1-.1.1-.1.2-.1v.1c-.1.1-.2 0-.2 0zM87.2 230.525h.1l-.1.1v-.1zM20.6 50.2s0 .1-.1.1-.1-.1-.2-.1c.1 0 .1-.1.2-.1 0 0 .1 0 .1.1zM39.7 124.4c-.5.3-.5.3-.6-.3v.1h.4-.1c0-.1.2.1.3.2zM12.9 23.2c.1-.1.3-.2.4-.3 0 .1.1.1.1.2-.2 0-.4.1-.5.1-.1 0 0 0 0 0zM22 31.7c-.1 0-.1.1 0 0-.1 0-.2 0-.2-.1h.1s0 .1.1.1zM132.4 110.1c.2.1.3.2.5.3-.1 0-.1.1-.2.1-.1-.1-.2-.2-.3-.4zM126.2 285.625c.2-.4.4-.3.6 0h-.6zM23.4 292.425h.1c.1.1 0 .1-.1 0zM69.1 121.6s0 .1 0 0H69h.1zM70.1 123.1c-.1 0-.3-.1-.1 0-.2-.2-.1-.1.1 0zM74 122.9c-.3.1-.6.1-.9.2.3-.3.6-.4.9-.2zM6.2 59.7c-.1 0-.2 0-.3-.1v.1h.3c-.1-.1 0 0 0 0zM49.8 231.325v.1l-.1-.1h.1zM88.7 230.625h-.1v.1s.1 0 .1-.1zM21.6 230.425v.1h-.1v-.1c0 .1 0 .1.1 0zM47.5 230.225h-.1v-.1l.1.1zM46.3 230.225s0-.1 0 0c.1-.1.1 0 .1 0h-.1zM62.3 84c-.1 0-.2-.1-.3-.1.1 0 .2-.1.2-.1v-.1c.1 0 .1.2.1.3zM62.3 83.7c.1-.1.2-.2.3-.4h-.1c0 .1-.1.2-.2.4zM124.5 253.725v.1h-.1l.1-.1zM69.5 99.9l-.1-.1.1.1zM34.6 230.525c.2 0 .4-.1.6-.1-.2 0-.4 0-.6.1zM14.4 57.2c.1-.1.3-.2.4-.4-.2.1-.3.2-.4.4 0-.1 0 0 0 0zM131.7 109.2c.1.1.3.2.4.4h-.4.1c0-.2 0-.3-.1-.4zM21.1 42.2c-.1.1-.1.3-.2.4.1-.1.2-.2.2-.4zM115.3 117.3l-.4-.4v.1c.1 0 .3.2.4.3zM5.2 118.4c-.1 0-.1 0-.2.1.1 0 .1-.1.2-.1zM61.1 120.7l-.1.1.1-.1zM68.2 121.6l.1.1h-.1v-.1zM39.2 24.7c.1.1.1.1 0 0 .1.1 0 .1 0 0zM8.3 23.2l-.3-.3h.4v-.1c-.1.2-.1.3-.1.4zM98.4 263.125c-.8.2-1.7.6-2.8.2 1.1-.6 2 0 2.8-.2zM100 263.125h.4v.1c-.2 0-.3-.1-.4-.1zM103.4 274.625c-.4-.1-.5-.1-.7-.2 0-.1.1-.2.1-.3.2.1.3.2.6.5zM46.7 264.825v-.6c1.4-.2 2.8-.4 4.1-.5 1.5-.1 3 0 4.5 0 .4 0 .8.2 1.5.4-1.1.4-1.9.3-2.7.3-.9 0-1.7.1-2.6 0-.8-.1-1.6.4-2.3.2-.9-.1-1.6 0-2.5.2zM57.9 267.225c.3.1.5.2.7.3-.1.9-.2 1.7-.3 2.8 0 0-.2.3-.5.6.2.3.4.6.7.9-.1.4-.1.8-.2 1.4-.3 0-.5-.1-.8-.1.2-2 .3-3.9.4-5.9zM45.1 263.925l-.2.4c-1.1.2-2.2.6-3.4.3-.4-.1-.7-.1-1.1-.1h-1.6c1.2-.7 2.2-.1 3.2-.3 1-.1 2-.2 3.1-.3zM58.4 265.025c.5.6.5.6.2 1.5-.2-.1-.4-.1-.5-.2-.4-.4-.3-.8.3-1.3zM46.1 262.025c-.3 0-.7-.1-1.2-.1.7-.7.9-.2 1.2.1zM35.7 266.625c-.1-.4-.4-.4-.7-.3.7-.4.8-.4.7.3z" fill="#FF2B59"/><path d="M35.4 266.925l.4-.4c-.2.1-.3.3-.4.4zM46.2 244.725c1.4-.5 4.3-.5 5.5-.2-.8.3-1.5.3-2.7.2h-2.8zM43.6 244.325c-1.2.1-2.3.3-3.5-.2 1.2 0 2.3.1 3.5.2zM47.3 253.425c-.5-.2-1.2.1-1.9-.5.8 0 1.2-.1 1.8-.1 0 .2 0 .4.1.6zM44.9 244.625l.2-.2.2.2-.1.1c-.1 0-.2-.1-.3-.1zM53.8 244.625v.1h-.2v-.1h.2zM37.2 244.025v.1l-.1-.1h.1zM35.7 246.225v-.4c.1.1.2.1.4.2-.1.1-.3.1-.4.2zM60.5 251.125c.1 0 .2 0 .3-.1h-.1c-.1.1-.1.1-.2.1zM58.2 252.525h-.3c.1.1.2 0 .3 0-.1 0 0 0 0 0z" fill="#FF2B59"/><path d="M47.2 253.425l.2-.1-.1.1h-.1zM81.4 244.525c-.5.2-1.1.4-1.6 0 1.2-.6 2.9-.7 4.8-.3-.1.1-.1.3-.2.4-.6.1-1.2.3-1.9 0-.4-.1-.8 0-1.1-.1zM71.9 239.325c0 .1-.1.2-.1.3h-.2s0-.1.1-.1.2-.1.2-.2zM20.9 283.025l-.2.2c-.1 0-.1-.1-.2-.2l.2-.2c.1.1.1.2.2.2zM63.5 239.725c0 .1-.1.1-.1.2 0 0-.1 0-.1-.1v-.3c0 .1.1.2.2.2zM62.2 240.325l-.1-.1.2-.1-.1.2zM56.5 258.125h-.7c.2-.1.4-.2.7 0zM24.2 253.025c-.1 0-.2.1-.2.1 0-.1.1-.1.2-.1zM51.2 240.425c.2-.2.4-.3.6-.5 0 .1.1.1.1.2-.2.1-.5.1-.7.3 0-.1 0 0 0 0zM27.1 283.725l-.1-.1v.1h.1zM62.4 290.425c.1.3.2.6-.2.8-.3-.5 0-.7.2-.8zM50.1 283.925c-.1 0-.2 0-.3.1h.1c.1-.1.1-.1.2-.1zM32.8 287.025s0 .1-.1.1-.1-.1-.2-.1l.1-.1c.1 0 .1.1.2.1zM75.8 240.725h.7c-.2.2-.5.2-.7 0zM43.8 258.225l.4-.4c-.2.1-.3.2-.4.4zM83.2 235.925v-.4l.4.4c-.1-.1-.2 0-.4 0zM71 218.425v-.1l-.1.1h.1zM134 122.7h.7c-.2.2-.3.3-.6.5 0-.2-.1-.3-.1-.5z" fill="#FF2B59"/></svg>