<svg width="518" height="1042" fill="none" xmlns="http://www.w3.org/2000/svg"><g clip-path="url(#clip0)" fill="#FF2B59"><path d="M212.9 6.2c1-.8 2-1.6 3-2.6.5-.8.9-1.8 1.1-2.8 1.1.2 2.3.3 3.4.2 1-.2 2-.5 3-1 1 1-.6 2.4 1.5 2.9 2.4.5 4.3 2.5 5.6 4.5 1.6 2.4 3.5 2.5 6.1 1.2l.5 3.1.3 2c1.3.3 2.1-1 3.4.2 2.6 2.2 4.9 4.9 6.8 7.7 2.7 4.5 4.7 9.5 8.9 12.9 1 2.8 3.3 4.7 4 7.7.7 2.5 2.6 4.7 4.3 7.5l-1 1.8A43 43 0 01256 60c-3.3 2.3-6.5 4.7-10 7a70 70 0 01-7 3.7c-1.2.6-2.3 1-3.1 2.3-.4.8-2.3.8-3.5 1-6 1.3-11.4 4.4-17 6.5-8.8 3.1-17.7 5.8-26.2 9.3-3 1.2-6.2 2.1-9.4 2.9-1.7.3-3.4.8-5 1.4-1.7 1-3.4 2.1-4.9 3.3a9.6 9.6 0 012.4 9.5c-.8 3.8-1.1 7.7-.8 11.6 0 5-.2 10-.9 15a46 46 0 00.2 8.8c.3 1 .7 2 1.3 3 1.5.4 2.7 1 4 1.2.7.2 1.5.2 2.2 0a27 27 0 0114.2-1.5c1.7.4 3.5-.1 5.2-.2 1.8 0 3.5-.3 5.1.1 2.1.6 4.3.7 6.4.2 4.8-1.2 9.6-.8 14.4-.9l27.9-.6c1.2 1.2 1 2.8 1.1 4.3 0 3 .3 5.9 2.4 8.2.3.3.6.8.5 1-1.6 2.1 1.9 3 1.2 5-.4 1.2.1 2.7 0 4-.2.7-.4 1.5-.8 2.1-.8 2.6-1 5 .6 7.6.7 1.1.2 3 2.2 4-2 2.1-2.8 4.5-.6 7.4l2.2-.9c1.3 3-1.7 4.5-2.4 7l1 3.1.6 3-3 1.5c0 .5-.2 1 0 1.2l4.3 5.2c1.5-1 1-2 .6-3.1v.1c1.4.5 1.3 1.6 1.5 2.8.4 2.6-.6 5.5 2.6 7.3l-2.2 1.8 2.3 2.1-8.3 2.6c-1.7-2-3.6-3.3-6.5-2.3-1 .2-2 .2-2.8-.3-2.2-1.2-4.1-.5-6.2.2-.8.1-1.7.2-2.6.1.1-2.5 2.5-1.2 3-2.5a1.6 1.6 0 00-2.3-1.5c-2.4.8-5.3.7-6.8 4l-1.4-3.3c-.9-.2-.9-.2-3 4-.6-.4-1.5-1.1-1.7-1-2.2 1.4-4.3 2.5-6.8.5-.3-.3-1.3.2-2 .5-2.2 1.1-4.7 1.2-6.5-.4-1.7-1.3-3.6-1.5-5.4-1.9-2.1-.4-4.2-.6-4.7-2.7-2.5-.5-4.2 1.4-6.2.3-.3-.2-1.2.5-1.8 1l-4 3c-3 .6-4.9-2.2-7.5-.9l.8 2.6h.2c-2.1-1-3.1 1-4.8 1.8a14 14 0 005.5 8.4c1.8 1.1 1.7 2.7 2.4 4.8l-2.7-1.3-1.4-1-1.2-2.6-.7.5 2 2 1 1.4c.3 2.8 3 4 3.9 6.3l3.9.4c.7 1.7 1.2 3.6 3.3 4.6 1 .5 1.6 2.1 2.5 3.2a16 16 0 002 1.9c1.4 1.2 3.2 2.2 4.3 3.6 3 3.8 5.8 7.8 8.2 12a25 25 0 004.3 5.3l12.5 13c1.2 1.5 2.6 2.8 4.2 4 1.6 1 2.7 2.3 2.7 4a6.4 6.4 0 004.6 6.8c1.8.6 3.3 1.8 4.4 3.4 2 2.8 3.9 5.9 6.1 8.5 1.4 1.6.3 3.4 1 5.3 2.8 1 5.4 2.6 5.7 5.8l-5.6 9.2-3 4.1c-.6.6-1.3 1.2-1.5 1.8-.4 2.5-1.3 4.4-4.2 4.7-.7 0-1.6 1.2-1.8 2-1.7 5.7-6.6 9.5-8.8 14.9-.3.5-.7.9-1.3 1.1-1.9 1-2.7 2.5-3.3 4.5-.5 1.3-1.3 2.9-3.4 2.2v.2c-1.8-1.1-3.4-1.6-5 .5-.7.7-1.6 1.4-2.4 1.9-3.4-5.9-6.6-11.9-12.5-15.8l-1 2.3.1-.1-3.5-4.6-.1.1 2.1-.2c.8-.9 0-1.4-.4-2-2.7-3.4-5.3-7-8.8-9.9-1-1-2.1-2.2-3-3.4l-.2.1.8-1-.8-.4.2.1v-6.1l-5-1.5-.2.1c0-1.6-.2-3.2-2.4-3-2 0-2.9-1-3.3-2.7-.2-1-.5-1.8-1-2.7-.5-.6-1.5-.8-2.5-1.3a12 12 0 00-.8 2.6c-.5 8.5-1.4 17-2.6 25.4v2.3c-.6 3.2 1 6.3-.3 9.7-1.1 2.9.3 6.4-1.2 9.5.3 5.9-1.3 11.5-2.1 17.2-.3 2 0 4-1.4 5.5a1.3 1.3 0 00-.3 1.1c1.2 4-.7 7.6-1.2 11.4-.7 4.6-.2 9.2-.6 13.8-.2 2.7.2 5.4-.1 8.1-.3 3 .1 6.2 1.3 9a19.7 19.7 0 00-2.1 9c0 2.1.1 4.7-2 6.5a2.3 2.3 0 00-.5 2.1c1.4 2 .4 4 .1 6-.5 4.3-.4 8.6-.7 12.8-.1 2.5-.2 5-.6 7.5-.2 1.5-1 3-1 4.4 0 1.3.9 2.6.9 3.9-.1 2.4-.5 5-1 7.4-.8 4.5-1.9 9-3 13.7l-3.8-.4-2.8 5.4c-5.6-1.1-11 .5-16.4 1-2.6.2-5.1.4-7.3-.6-2.8-1.2-5.6-1.3-8.5-1.6-3.5-.2-7.5 1.1-10.5-2a7.1 7.1 0 01-6.7-1.5c-.5-2.3-1-5-3.8-6.4a3 3 0 01-1.5-3.4c.1-.5-.6-1.6-1.2-1.7-2.3-.7-2.2-2.7-2.3-4.3-.1-1.1.8-2.3 1.4-4.2l-1.1-1.6a5.4 5.4 0 01-.7-6c1-1.7 1-3.2-.2-4.6l4-5.7-2.9-3.3 2.6-2.9c-.6-2.2-2-4.3-2-6.8 0-2.2-.4-4.5-1.3-6.6a9.6 9.6 0 01.1-7.5l4.6 1.1h.3l-.4-.1.9-2.5.9-2.4-.2.1c.1-.1.3-.3.3-.5l-.3-1 .2.3-1.4-1.4.2.1c-.6-1.3-1-2.7-1.5-4.2-.1-.6.3-2 .7-2 2.8-.9 1.7-2.9 1.8-5.3l-1.6 1.2-1.5 1.5c-.4-5.8-.3-11.1-2-16.6l-1.9 3-.1.1c1.2-1.5-.3-3-.2-4.8l4.9-2.9.5-6.7c0-5.5 0-5.5 2.5-9.9-2.6-3.6-1.6-7.6-.8-11.5 1-4.2 2-8.2 2.6-12.5.6-4.3-.3-8.3.8-12.4l-3.7-3.5c-.3.1-.8.1-1 .3-2.6 2.8-5.4 5.5-7 9.1l-1.5 1.9c-3.8 5.4-7.6 10.7-11.3 16.2-3.6 5.4-6.6 11-11.5 15.2-2.3 5.7-7 9.6-10.2 14.7a6 6 0 00-.2 2.2c-2.4 1.5-2.4 1.5-1.6 4.8l-2.8.4-1.6 3 .2-.1-1.4 1.4 1.5 1.1h-.2l-2.4 3.3-.3.4.1.3v-.9l2.2-.2c.1.4.4.9.3 1.1l-3 5.3-.5-1.6c-.6-1.9-2-2.7-3.3-1.7a38.8 38.8 0 00-3.8 4.2l5.3 2.7c-.8 1-2.3 2-2.3 3 0 2-1.3 1.3-2.3 1.5l.4-2.5-2.4-.2c-.1 0-.5-.3-.5-.6 0-2.7-.7-4.7-3.5-6-1.8-.9-3.3-2.5-5.2-4l-.1-4.2c-.4-1.3-1-2.5-1.7-3.7-2-3.1-3.6-6.5-4.8-10-.5-1.6-1.8-1.8-3.3-1.3-1.3-1.7 1.9-3.7-.3-5.3 1.5-1.8.5-3-.7-4.5a39 39 0 01-3-4.4c-.7-1.2-1.2-2.3-.2-3.7.5-.7 0-1.2-.8-1.7-1.9-1-1.6-4-4-4.5v-1c0-.7.3-1.6 0-2.2l-7-15.4c-.2-.7-.2-1.5 0-2.2a3.7 3.7 0 00-.9-3.7c.5-2 3.7.3 4-2.3l4.2-1.8-.1-.1c.5.5 1 1.3 1.4 0l-.2.2c.8-.5.5-1 0-1.4h.1c.5-.2 1-.7 1.5-.8 1.8 0 2.2-1 1.8-2.7.4-.1 1.4.2.6-.8l-.4 1c-.4-.4-1.2-1-1.1-1.1 1-2.2 1.5-5 4.8-5 1.9-2 4.4-3.5 5.5-5.8 1.2-2.5 3.4-4 4.5-6.5 1-2.2 2.8-4.1 4-6.3a62 62 0 003.2-5.8c.6-1.3-.3-2.2-1.3-2.9v.2c2.3-2 4-4.8 6.7-6.6 1.3-.9 2-2.8 3-4.2l4.1-4.8 1.4-1.8c2.4-4 4.5-8.4 8-11.8 2.8-2.6 5-6 7.2-9 .4-1 .5-1.9.2-2.8-.3-1.3.3-1 1.2-1.6 1.8-1.1 3.2-2.7 4.2-4.5 2.5-4 4.7-8 7.2-12.4l-1.2-4.2 2.2-1.9c2-2 3.7-4 4.5-7a45.4 45.4 0 018.2-15.4c.8-1 1.4-2.2 2.1-3.3-1.7-2-2.9-4.1-5.7-3.8h-.6c-4.5-4.4-10.2-2.7-15.4-3-3.5-.1-7 .2-10.5 0-2.3 0-4.6-.7-6.9-.8-3.4-.2-7-.3-10.4-.1-5.4.2-10.8.9-16.2.4-1.5-.1-3 .5-4.6.7-1.3 0-3-1.6-2.4-2.7 1.4-2.7.3-5.2 0-7.9-.3-1.7-.3-3.5 0-5.2 0-2.1.4-4-.9-6.2-.8-1.3-.8-3.4-.6-5 .5-3.2-.8-6.5.7-9.7.2-.4-.5-1.4-.8-2h1c.2 0 .3-.5.3-.8H18a7 7 0 00-.6 1c-.5-.4-1.3-.7-1.3-1 .5-3-.4-6-.8-9-.2-1.5-.2-3 1.1-4.2a9.4 9.4 0 001.8 7.3l1.5-1.8 1.6-2.1c-1.2-.7-2-1-2.8-1.6l-2.2-1.6c-.5-1.6-2.2-2.7-1.3-5l1.8 2.7c2.7-2 4-4.7 5.2-8 .9-.2 1.7-.2 2.6 0 5.8 1.7 11.5 0 17.2-.8 4.4-.7 8.8-1.1 13.3-1.3 9.8-.2 19.7-.8 29.6-1.6 3.4-.3 6.8-.9 10.3-1 2.6 0 5.1-1 7.8-1.7.7-3.7.7-7.4 2.7-10.5.5-.7.2-2 .1-2.9-.5-4.6-.3-9.3.6-13.8.9-4.8 1.4-9.6 1.8-14.4a2.9 2.9 0 00-1-2.4c-1.7-.7-3.8-1.1-5.3-.3a66.2 66.2 0 01-13 5.4 43 43 0 01-7 .8c-1.3 0-1.5-1-.6-2.8-3-.2-3-.2-3.4 3.3-3.3 1.1-6.6 2-10.1 1.5-1.9-.2-3.6 1.6-5.6.3-.5-.2-1.6.3-2.1.7-2 1.7-3.9 1.6-5.9.2a3.9 3.9 0 00-4.2-.6c-1.2.5-3-.3-4.3-.5l-3.8-4.4c-1.4-2-3.3-4-4-6.2-1.8-5-4.3-9.7-7.6-14 2-2.3-.8-3.7-1-5.6v.1c.8-.5.5-1 0-1.5.7-2.3-.9-4.9.7-7.2.1-.2-1-1-1.2-1.8-.7-2-.9-4.6-2.2-6-1.6-1.8-2.6-3.9-4-5.5-1.4-1.5-1-2.8-.2-4.5-1.6-1.6-4.5-2.4-4.5-5.7 1.1-2.6 3.2-3.6 6.3-2.6l2.8.8V46l1 .8.4-.8 1.6-2.7c5-.8 10-2 15.1-2.6 3-.3 6 .2 9-.6 1-.3 2.1-.7 3.1-1.2h-.2c.2 1.4.3 2.9 1.8 3.4 1 .5 2 .8 3.2.7 2.6-.5 5.4 0 8-1.4.6-.5 1.8 0 2.8 0l-.2-.2-1.6 2.6c5.5-.6 9.9-2.3 14.3-3.5l-6.8-.3.2.1c3.7-2.3 8-2 12.3-2.6.5 0 1.3.6 1.9 1 1.5.7 2.1.5 3-1.2.7-1 2.9-.7 4.3-.7 3.4 0 9.3-1 11.5-2.7.1-.1-.2-1-.4-1.8l20-5.4a32 32 0 015.2-.9c1.3 0 2.2.5 1.6 2.5 5.2-1.3 9.8-2.7 14.4-3.8l19.2-4.3c2-.5 4.3-.7 5.9-2a7.9 7.9 0 016-2c1 .2 2.3-1.2 3.4-2h-.2l1.1 2.4 4.7-1.4c1.9-.8 3.6-2 6-1.6a3.5 3.5 0 002.5-1 8.8 8.8 0 015.4-2.8c1.4-.1 1-1.5 1.4-2 1.4-1.4 3.4-1.7 5.3-2l.1 1.8h-.8l.2.1.5-.2c1.2-.7.9-1.1-.1-1.5zm-93.6 26l-.2.2V32l.3-.2v.4zm-31.7 146l.2-1.3.2-.1-.3 1.5c-.3.1-1.3 0-.4.8l.3-1zm91.4 111l-.4-.1h.6v.2h-.2zm-64.5-114.6c.6.1 1.1.1.5-.7l-.4.8c-.2 0-.3 0-.4.2v.3l.3-.6zm76.2 137.7v.4-.4zm-29.4-6l1.3-.7c1.8.1 2.3-1.2 2.3-2.5-.1-1-.5-2-1-3-.2-.2-.8-.2-1 0-.3 0-.8.4-.8.6.1 1.7.4 3.3.6 5l-1.4.9v.3-.5zM146 441.2c-.3.2-.5.5-.6.9l.3.7c.2-.2.5-.5.5-.8a3 3 0 00-.3-1l.8.1-.3-.2-.4.3zm-17.1 54.3c-1 .1-2.3-.6-2 1.4l1.8-1.6.2.2zm20.8-252.7l-1.3.7.5 1 .7-.7v-1.1h.1zM134.6 28.9c-1-.4-2.1-1-3.1.9 1.3 0 2.3.1 3-1v-.3.4zm3 438.8c.4 0 1 0 1-.2.7-1.8.7-3.7 0-5.5-1.3 2.1-.8 4-.8 5.8v.6c0 .3 0 .7.2 1-1.7 3.5-.5 7.6-2.4 11.5l-2-3c-.8 2.7-1.3 5.3-3.5 7.2-1.2.9-.6 2.4.8 3.5.5-1.3 1.2-2.4 2-3.6.6-1 1.4-1.7 2.5-2.1 1.1-.4 2.4 0 3.8 0 .6 1.7 1.4 3.3 3.5 2.8 1.5-1.5 1.5-3.2 1.2-5-.1-.7-.2-2-.5-2.1-3.7-.7-2.3-4-3.3-6-.5-1.1-.4-2.9-2.2-3l-.3-2zM115.7 427c2-1.1.4-2-.2-3-.2-.2-1.1 0-2.1.1l2.4 3c-.5 0-1.2 0-.4.8l.3-.9zM36.3 197l-2.8-1.7C31 197 31 197 31.2 199c1.8-.6 3.8-.2 5-2h.5l.1-.4-.5.5zm126 168c.9 1.3 1.5 2.4-.1 3.8-1 .7-.5 1.6.4 2.2l.5.9.6-.9a8.9 8.9 0 00.2-8.3l-1.5 2.4-.8 1.3.7.6.3-.4-.3-1.6zm-.9 18.9l.1.2-.2-.1c1.8-2 1.7-4-.5-6.2-2.6 2.8-1.5 6-1.3 8.9 0 .3.9.5 1.3.7 1-1.2-1.2-2.6.6-3.5zm59.7-47.9c.3-.6 1-1.6.7-1.8-2.8-3.3-5.3-7-9.8-9.1-.1.8-.6 1.8-.3 2 3.1 3 5.2 7.3 9.5 9h-.4l-.3.3.6-.4zM52.4 88c1 1 1.5 2 .5 3.4a2 2 0 00.5 2 2.2 2.2 0 002 0 8 8 0 002.1-1.8c1-.9.1-1.7-.3-2.5l.1.2 2.5-2.3c-3 .1-5-1.8-7.5-.6V86v.2l.3 2c-.2.3-1.7-.3-.8 1l.6-1.3zm97 248.4c.5-2.4 1.3-4.7 2.4-6.8.8-1.3-.1-2.4-2-2.5-.4 0-1 .4-1.5.7 1 2.8-.4 5.8 1.3 8.4l-.7 1.6c-1.4 1.9-1.4 1.9-4 .2-.2-.1-.6 0-.9.1-.6 1.3-.4 2.4 1.2 2.6 2.1.2 2.9 1.5 3 3.5.1 1.4-.2 3 1.3 4.2.8-1.6 2-6.4 1.7-7.3-.5-1.6 0-3.6-1.8-4.7zm9.6 92.2c1-1 2-2.5.8-3.4-1.8-1.6-1.5-3.4-1.4-5.2l.6-11.5.2-.1-.1.2c-.7.6-1.7 1-2 1.8-.5 1.3-.7 2.6-.8 4-.4 7.3-.6 14.6-1.2 22-.6 6.4-.5 13-2 19.4a6.8 6.8 0 00.7 5.6 1.9 1.9 0 001.4.8 1.7 1.7 0 001.3-1c.3-1 .5-2.2.6-3.3.4-4.7.5-9.3 1.2-13.9.8-5 1-10.3.8-15.4h-.1zm6.8-105.2c-1.4-4-.4-9-4.9-11.6-1.7 2 .3 2.8.6 3.4a76.2 76.2 0 00-.9 23.4c.8-.7.3-2.5 2.1-2.3.2-.4.3-.8.2-1.3-.2-.6-1-1.3-1-1.8.2-2.2.8-4.3 1-6.4.2-1.8 1.4-2.6 3-3.4zm-51 165c-.8 1-1.5 2.1-2 3.3-1 2.2 0 3.5 2.5 4l6.7.8c1.7-3.5-.6-5.3-2.3-7.3-.1-.3-.6-.3-1-.3l-1.3 2.5-2.6-3zM148.6 278l.9.3 4.8-7.4c-3.4-1.6-1.6-5.2-2.8-7.6-1.8-.2-2.8.5-2.8 2.1V278zm-27.8 92.4c3.5-4.8 3.6-9.9 3-15.2-1.9.1-3 .6-3.3 2.3a397 397 0 00-.9 11.3c0 .4.7.9 1.2 1.6zm9-267.5c-1.4-.3-2.7-1-3.4-.6-1 .7-1.6 1.7-1.8 2.8-.1 1.2 0 2.3.4 3.5.1.5.4 1 .7 1.4 2-.8 1.5 2.8 3.9 1.8-.3-1.3-.4-2.7-.5-4 .1-1.7.3-3.3.6-5zm103.1-49.3c.5.2 1.2.7 1.5.5 1.7-.7 3.3-1.7 5-2.6-1.2-1.5 1.2-3-.5-4.6-2.7 1.6-5.3 3.1-6 6.8zM141 362l1.8-5.2-2.1-2.8-.9.1c-2.1 2.7.6 5.1 1.2 7.9zm11.8-68.5l-3.2 5.4.4.9h2.8v-6.3zm61.8-86.3l.7-1.4v-2.3c-3.5-.9-3.5-.9-4 2.2l3.3 1.6zm-70.2 252.5l2.5.6c1.8-2 1.7-3.9-.3-5.7-.8 1.4-.2 3.7-2.2 5zm7-417.5c2.4-1.2 5.2-2 6.2-5.9-3.7.8-4.4 4-6.1 5.8h-.1zm89 133.2c-1.4-1.6-3-2.4-5.3-.8.7.8 1.1 2 2 2.4 1.3.6 2.6-.3 3.3-1.7zM116.7 318.6l.2-5.8c0-.5-.7-1-1.2-1.7-1.6 2.7-.4 4.6 1 7.5zm66.7-137c.2-.9.1-1.8 0-2.6-.3-.5-1.3-.7-2-.7-.4 0-1.2.8-1 1 .1.7.5 1.3 1 1.7a6 6 0 002 .7zm-68 251c.8.7 1.7 1.5 1.8 1.4.7-.6 1.3-1.3 1.6-2.1 0-.3-1-1-1.5-1.5l-2 2.2zm38-188.6c-1.3 1.8-1.3 1.8-2 6 1.6-1.4 1.6-1.4 2-6zm5.6 160.9l1 .2c.2-1.8.5-3.6.5-5.4 0-.9-.5-1.3-1.5-.8v6zM114.7 466l.9.4c.5-1 1-2 1.3-3 .3-1.1-.1-1.8-1.7-1.6l-.5 4.2zm-10-107.6c.8-2 1.6-3.3.6-5.5l-2.1 2.5 1.6 3zm26-125.6c-2.2.3-2.1 1.7-2 3.2.2 1 .8 1.2 1.8.6l.2-3.8zm30.6 158.6a2.1 2.1 0 00-2-2.6 1.7 1.7 0 00-1.4.8 2.2 2.2 0 001.8 2.6c.5 0 1.2-.6 1.6-.8zm61.1-181c-.8-1.4-1.6-2-2.8-1.5a1.6 1.6 0 00-1 1.2c0 .3.7 1 1 1l2.8-.7zM95.5 416H95l.1 3.8h.5V416zm74.3-89.5c-1 0-2 .1-2.9.4-.4.3-.7.7-.8 1.2-.1.3.2.7.3 1l1.3-1 2-1.6zM152 309.6c-.8 0-1.6 0-2.4.2-.4.1-1 .7-1 1 .2 1.3 1.5.9 2.3 1 1.4.2 1.3-.8 1.1-2.3zm-7 128.2h1l1-2.4c0-.3-.6-1-1-1-.3 0-1 .4-1.1.8v2.6zM135 230a5 5 0 00-.3 1.8 6 6 0 001 1.7s.4 0 .5-.2c.8-.6.5-1.3 0-1.9L135 230zm14.2 128l1.1-2.4c0-.1-.6-.7-.7-.6-.5.3-1 .6-1.2 1-.1.4.3 1 .8 2zM123.5 32.7l1-.5c-.3-.4-.6-.8-1-1-.2-.2-.6.1-1 .3l1 1.2zm126.2 184c-.5-1-.9-1.8-1-1.7l-2.7 1 .2.9 3.5-.3zm-30.5 142.6c.3-.2.8-.4.8-.7 0-.6 0-1.3-.2-2 0-.1-.7 0-1-.2v2.6l.4.3zM35.3 44c1.4.7 2.9 2 4.4 0h-4.4zM151 487.5l.9.1.7-2c.1-.8 0-1.6-1-1.6-.3 0-.8.8-.8 1.3 0 .7 0 1.4.2 2.2zm1-6.2h.8l.1-2-.4-.1-.6 2zM215.2 63c.3.2.6.5.9.5a1.7 1.7 0 002-1.3 1 1 0 00-.4-.8 2 2 0 00-2.4 1l-.1.6zm-68.5 399.2c-.5.6-.9 1.2-1.2 1.9 0 .5 0 1 .2 1.4.4-.3 1-.5 1.2-1 .2-.4 0-1-.2-2.3zm38.4-281.7l.1 1 1.6.2c.5 0 .9-.5 1.3-.8-.4-.3-.7-1-1.1-1-.7.1-1.3.3-1.9.6zM39.7 167.6c-.5-.1-1-.5-1.4-.3-.5.4-1 .8-1.4 1.4.4.2 1 .5 1.3.4.7-.1 1.6-.2 1.5-1.5zm125.1 141.5c-.8-.6-1.3-1.1-1.7-1a1.6 1.6 0 00-.8 1.2c0 .4.5.8.8 1.2l1.7-1.4zm-21.2 26.7c.5-.4.9-.9 1.2-1.4 0-.3-.3-.6-.5-1-.4.2-1 .4-1.2.7-.2.4.2.9.6 1.7zm25.6-1c-2 2-2 2 .3 3.2l-.3-3.1zm50.3-320c.3.5.4 1 .6 1 .5 0 1 0 1.5-.3-.2-.3-.4-1-.6-1a4 4 0 00-1.5.4zm-56.8 343.7h.7l.3-1.8c0-.4-.2-.7-.4-1l-.6.7v2zm63.5-143.2v-.7l-2.4.2v.5h2.3zm-91.5 28.5h.8l-.2-2.5h-.6v2.5zm9.9 84.1h-.6l-.1 2.3h.7V328zm-10-76c1.7-1.4.8-2.4 0-3.4v3.3zm22.1 230.9l-.6-.2-.4 1.8.6.1.4-1.7zM51.8 151.7c.4.3.5.5.7.5l2-.2v-.4l-2-.4-.7.5zm100.3 153.7h1l-.4-2.6-.6.1v2.5zM40.3 69.6c-.1-.3-.2-.7-.5-.9-.2-.1-.6.2-.9.3l.6 1.3.8-.7zm129.9 36.2l-.5 2.4c0 .2.3.4.5.5l.2-.4-.2-2.5zM166 348.3l-2.2-.7-.5.2.6.7c.7 0 1.4 0 2.1-.2zM146.1 451l-.5-1.1-1.1 1.1c-.1.1.2.6.4.8l1.2-.8zM96.5 174.6l-.6 1.6 1.5.5c.1 0 .5-.7.4-.9l-1.3-1.3zM49 81.6l.9.3.4-.3-.5-.8-.8.7zm55.7 267c.3-.2.7-.3.8-.6l-.3-.9c-.2.2-.6.3-.7.6l.2 1zm137-171c.1.2.3.7.6.8.3.1.6-.2 1-.3l-.9-1.1-.8.6zM162.1 297l-.8-.3-.3.3.6.7.5-.7zm29.5-116.2v.5h1.9v-.5h-2zm4.2-108h-.5l.2.8.3-.3v-.5zm-75 300.3l-.3 1 .7.1v-1h-.5zM45.3 164.3c-.4-.3-.8-.7-.9-.6l-1 1c.2.1.5.5.7.5l1.2-1zm90.3 97.4l-.3-1.2-.9.5c-.2.2-.1.6-.2.8h1.4zm-100-70l-1.4-.3-.3.8 1.2.6.5-1.1zm117 66.6l-.9-.6-.3.3.8.6.4-.3zm-15.4-1c-1.4-.5-2-.9-2.2-.7-.3.1-.4.8-.5 1.3a1 1 0 00.8.3c.7-.2 1.3-.6 2-1zm-17.4 84.6l-.2 1 .4.2.2-1-.4-.2zm82.4-28.8c-.1-.3-.3-.8-.5-.8-.3-.1-.6.2-1 .3l.8 1 .7-.5zm-79 37l-.3 2.4.4.4c.2-.2.6-.4.6-.7l-.7-2zm-53.4-153c.2.4.3.8.6.9l1-.3-.8-1.2-.8.7zM52.5 43.4l-.6.8c.2 0 .3.2.5.3l.5-.2-.4-.9zM141 491l.4-.3-.2-1-.5.4.3.9zm.2 4v-1h-.4v1h.4zm82.1-453l-.6-1c-.3.3-.7.4-.9.7-.2.3 0 .6.1.9l1.4-.6zm-29.9 168v.7l1.8.1v-.8h-1.8zm-69.1 120.2l.7.6c0-.1.3-.3.2-.4l-.5-.8-.4.6zm11-93.6l1-.3-.4-.6-.8.6.3.3zM225 37.4l-.7 1s.3.4.4.3c.3 0 .5-.3.7-.6l-.4-.7zM164.3 36v-.5c0-.1-.3 0-.4 0v.7l.4-.2zm-5-1l.8-1.1c-.4-.2-1-.7-1.2-.5-.2.1-.5.8-.7 1.2l1 .5zM124 340c.4-.1.8-.2 1-.5l-.2-1-1.1.6c-.1.1.2.6.4 1zm109-163.2v-.5h-2v.5h2zm-74.5-136c-.1 0-.3-.4-.4-.3l-1 .3.4.4a6 6 0 001-.4zm-3.2 453.5l-.4-1-.4.4.4 1 .4-.4zm2.3-19.3l-.3-.4-.2.3c0 .2 0 .4.2.5l.3-.4zm-12-3.6l-.2.4h.3v-.4zm7.3-5.8l-.4.1v.5l.6-.2-.2-.4zm27.4-254.2c0 .2.2.4.3.4l1-.3-.4-.4-1 .3zm25.4-141.5a4 4 0 00-.8-.3l-.4.3c.2.2.3.5.5.5s.4-.3.7-.5zm-67 388.8h-.3l.1.4.2-.4zm56.5-252.9l.4-.2-.4-.2v.4zM57 201l.4.3v-.4l-.4.1zm93 215.8h.4l-.1-.4-.2.4zm-45.7-4l-.4-.3v.3h.4zm15.8-3l-.4-.8s-.4.2-.3.3l.3.8.4-.4zm37.3-11.4c-.2 0-.5.2-.4.3l.3.9.4-.3-.3-1v.1zm-16.2-1.6l-.4-.8c-.2 0-.4.2-.4.3l.4.9.4-.4zM63.5 107.5c-.2 0-.3-.3-.5-.3l-.4.2.4.3.5-.2zm81.4 160.3l.5-.2-.5-.2v.4zm15.9-86.6c-.1-.1-.2-.3-.4-.3l-.4.1.3.3.5-.1zM125.6 114l.4-.1-.1-.5-.4.1.1.5zm-16 237.8l-.3-.4-.4.9.3.3.5-.9zm24.4-5.5l-.2.4h.3l-.1-.4zm31.6-3.6c-.2.2-.3.3-.3.5 0 .1 0 .3.2.4l.2-.4-.2-.5zm-29.4-1.3l-.1.5.5-.3-.4-.2zm-31.4-2.3c-.2.3-.6.4-.6.6l.4.9.6-.5-.4-1zm19-6.3l-.4.3.2.3.6-.4-.4-.2zm78.5-7.4l-.5-.8c-.2.3-.5.5-.5.8 0 .2.3.6.5.8l.5-.8zm-53.4-4.7l-.1.4h.6l-.1-.4h-.4zm57-4l-.6-.9-.4.3.5.9.4-.3zm-60-3h-.4l.2.5.2-.5zm-29.4-8.4l-.2.4h.3l-.1-.4zM49.7 163.7l1 .3c.2 0 .3-.2.4-.3-.2-.2-.4-.5-.7-.5-.2 0-.4.3-.6.5zm141.5 131.8l-.2.2h.3l-.1-.2zm-30.7 14.4l.3.4.4-.4-.5-.3-.2.3zM220.2 3.4l.4.2v-.4l-.4.2zm-77.9 287.5l-.2-.1v.3l.2-.2zm66.6 31.7l-.2-.2v.3l.2-.1zm-2.1 9.3l-.3-.3-.4.3.3.3.4-.3zm-41.1 8.3l-.3-.2v.3l.3-.1zm-61.2 10.4l.2.2v-.3l-.2.1zm36.2 0l.3.2v-.3h-.3zm8.6 1.3l-.3-.2v.3l.3-.1zm13.8-80.6l.2-.2-.3-.1v.3zm7.4-159.1l-.3-.4c-.2 0-.4.2-.4.3 0 .2.2.3.3.4l.4-.3zm.6 68.8l.3.2v-.3l-.3.1zm-10.5 195.3l.3.2v-.3l-.3.1zM100 266.1l-.3.3.2.4c.2 0 .4-.2.4-.3l-.3-.4zm53.8-1.1l-.2.3h.3v-.3zm-36.3 147.4l-.2.3h.3v-.3zm-19.8 3.4l-.2.3h.3v-.3zm49.1 14l-.2.4h.4l-.2-.3zm-75.6-230l-.4-.4-.4.3.4.4.4-.3zm153.2 5.8l-.4-.3-.3.3.3.3.4-.3zM121 239.9l.3-.3-.3-.3-.3.3.3.3zM243 51.3l-.4-.2v.4l.4-.2zM93 481.8l.2-.3h-.3l.1.3zM253.6 216h-.9l.4.4c.2 0 .3-.2.5-.4zM113.2 485l-.4-.2v.3l.4-.1zm42.1 2.4l-.3-.3-.3.3.3.4.3-.4zm-23.4 6l-.3-.5-.3.3c0 .2.2.3.3.4l.3-.3zm28.8-272.2l.3-.4h-.5l.2.4zm-23 274.3l-.3-.4-.4.4.4.4.4-.4z"/><path d="M292.1 244a3 3 0 001.3-3.7l-.1.2c1.4-1.9 2.5-3.8 1.3-6.3-.1-.4 0-.8.1-1.1 1.2-3 1.3-6-1-9l2.9-2.1c-.6-2.3-1-4.9.2-7.4.2-.6.2-1.1 0-1.7-1.5-3.4.5-5.8 2.6-8l-2-3.3 5.7-12.4c-1-.6-1.7-1.4-2.4-2.3-.6-1 .5-2 1-3a46 46 0 003.6-7.8c.2-1 .1-2-.3-2.8-.9-2.4-1-5-.3-7.4.3-1 .3-2 0-2.8-1.2-3-.7-5.3 1.9-7l-1.7-4.1c2-2.2 3.8-4.8 5-7.7l1-3.2c.9-3 1.2-6.2 3.1-9 1.4-2.4 1.8-5.1 1.3-7.8-1-3.6.3-6.7 1-10 0-.3.6-.7.5-1-1.4-5.5 2.1-10.7 1.3-16.3 0-1 .1-2 .4-3l3.9-2.4c-.2-.5-.2-1-.4-1-1.8-.5-2.3-1.6-2-3.4.6-4.4 2-8.7 1.3-13.1 1.4-3.5-.6-7.4 1.5-10.7.3-.6.4-1.2.3-1.7-.8-3.3.4-6.2 1.5-9-2-5.6-2-11.6-.4-17.2-1.5-4.4-4.8-7.7-7.4-11.3 1.6-2.8 4.7-2.3 7.2-4.3.6-1.7 1.6-4 4.4-5.1a38.3 38.3 0 0020.2 1.2l-.1-.2c.6.4 1.3 1 1.7 1 2.8-1.2 5.5-1 8.4-1a21 21 0 004.2-.6l4-.5-3.4 1.6c1.2 2.6 3.4 3.3 5.5 4.2 1.1.5 1.7-.4 2-1.4 1.4.4 2.5 1.9 4.3 1l4.6 1.9c2.5 2.3 3.3 2.6 6.3 2.5 1.7-.2 3.4-.3 5.2-.3 1 .2 2.6 1.6 2.5 1.9-.7 2 1.2 3 1.5 4.7.2.9.2 1.8.2 2.7v7.6c0 1.8 1.2 2.6 2.9 2.9v5.6l-2-2.4v-.3l.2.4a75.2 75.2 0 00-2.8 17.7 33 33 0 01-2 10c-1.5 3.8-2 7.8-1.8 11.9 0 2.1-.3 4.2-1 6.2-.1.7-1.3 1-2.3 1.7-.5 2.1 1.7 4.4.2 7-.4.7.7 2.4 1.1 3.7-1.4 2.9-3.7 5.6-2.5 9.2-1.3 4.8-1.7 9.8-3.4 14.5-.6 1.8-1 3.7-1 5.6-.4 2.2-.2 4.6-.7 6.8a19 19 0 000 9.2c1.3 4.2 1 8.4.7 12.6a12.6 12.6 0 01-4.5 9.4c.6 1.7 2.4 3.4 1.6 5.6-.9 2.1-1 5-3.5 6.4h.2c.2-1.7-.1-3.7.7-5 1.4-2.4-.5-3.5-1-5.6l-2.4 2.1c-.7-1.7-.5-4.2 1.2-11.3 1-3.8 1-7.5 1.3-12.3-1 1.2-1.5 1.5-1.6 1.9l-2.8 15.3a15 15 0 01-1.2 3.3c-1.3 2.9-1.5 4-1.4 8.8l4.1-3.5a67.2 67.2 0 01-3.3 18.3 28 28 0 00-1.7 8.5c0 1.3-.5 2.6-.6 3.9-.2 1-.2 1.9-.1 2.8 1 5.6.7 6.3-3.7 10.3l2.3 1.8-.6 2.6a655.9 655.9 0 00-7 33c-.7 3.4-1.3 6.8-1.7 10.3-.6 7.4-3 14.4-4.6 21.5-.4 1.5-.8 3-1 4.5-.2 1.3-.6 3 1.7 2.8 0 .7 0 2-.2 2-3.8 1-4.4 3.8-4.5 7.2 0 1.6-.4 3.1-.9 4.6-1.8 6.5-3.3 13.1-4.3 19.8-.7 3.3-2.5 6.3-5.2 8.4l1.5 3.4 3.2.2c0 .8.2 1.6-.1 1.8-2.3 1.7-2.3 4.8-4.3 6.6-.4.4-.9 1-.8 1.5.5 4.4-3.3 6.4-5.3 9.4-.7 1.2-1.2 2 .3 2.9l-.1-.1c-1.2 1.8-2.4 3.6-3.5 5.6-1 1.7 0 3.8-.7 5.6-.1.4.5 1 .8 1.5h.1v1.4l-.2-.1-1 3.3 1.1 1.7c-2 3.3-1.9 7.2-2.7 10.9 1.6 4.3-1.2 7.5-3.2 10.5a7.1 7.1 0 00-1 6.5c.9 3 3.4 3.9 6.5 3 2.6-.6 5.2-1.2 7.8-1.5.4-.1 1 .9 1.3.9 1.3-.2 2.4.6 3.9 0a22 22 0 0110.7-1.2c5.8.3 11.5 1.9 17.3.7h1.2c5.3.5 10.7.2 16-1 6.5-1.5 13.1-.8 19.7-1h8.6c.8-2.3-1-3.4-1.6-5-.6-1.4-1.6-2.8-.6-4.3a3 3 0 00-.3-3.7c-1.6-2.5.8-5.9-2-8.2-2.2-2-1.8-5-2.5-7.6l-2.6-6.4c-.6-1-1-2.2-1-3.3-.1-3.7-1.8-7-2.2-10.6l-1.6-10.3 2.3-3.3-2.4-2.8c-.5 2-.5 4.2.2 6.2-1.7-2.5-4.5-4.3-4.4-7.9v-2.8a2.6 2.6 0 00-.6-2.6 9.7 9.7 0 01-2.3-6.4c0-1.3-1.3-2.6-2-4l1.8-3.4v.1l6.5-.6c-.8-3-1.6-5.9-3.6-8.4-.3-.4-1.3-.2-2-.3 0 0 0-.3.1-.1 0 1.6 0 1.6-2.2 1l-.4-1.4-.4.4 1 .8-.6 5h.2a49.7 49.7 0 01-5.6-18.2c-.1-1.5-.6-3-1.4-4.3-1-2.1-1.9-4.4-2.6-6.6l3.5-3.1c1 .7 2 1.3 3.2 1.8a3 3 0 003.2-.6c1.4-1.6 3.3-2.6 5.3-3.1a3 3 0 002-1.2c1.7-3 4.4-3.3 7.4-3.7a11 11 0 006.8-2.9c1.1-1 2.7-1.6 4-2.4l6.8 1.4 1-1.4.9 1.8 1 1.3 8.6-2.1a7.8 7.8 0 002.2-8.1c2.8-2.5 6-1.9 9-2.6v-.1c-1 2.3-1 2.3.4 3.3l2-3.4v.2l8.6 1.8c.4 2.9 2.2 4.8 3.9 7 1.5 2 2.6 4.2 3.2 6.7 1 4.2 3 7.9 5 11.6 4 7.3 7 15.1 9 23.1 1 3.6 2.6 6.9 3.6 10.4 1.6 5.4 3 10.8 4.3 16.3l4.8 19.7c1.5 5.9 3.2 11.6 4.4 17.5 1 4.2 1.3 8.4 1.9 12.6l2.4 17.8c.1.7 1 1.4 1 2 0 2.2 1.9 4.2.5 6.6a3 3 0 00.1 2.3c2 4.5.9 9 .1 13.5-.2 1-.3 2-.1 2.9l2 10.2c.5 2.8.6 5.7.1 8.6-.4 2.9-.3 5.8.4 8.6 1 5 2.4 9.9 2.5 14.8.2 4.8.6 9.5.7 14.3 0 1.3-.4 2.6.7 3.8.2.2-.8 1.3-.7 1.9 0 .6.7 1 1.3 1.8l-.8.7a7.6 7.6 0 00-3.8 4.8c-.9 2.7-2 5.5-5 7.1-1.3-.3-2.5-.8-3.6-1.3a4.3 4.3 0 00-3.8-.5c-2.3.7-5-1.5-7 1l-4.5-.6c-1.2 0-1 1-.8 1.7l.1-.2a28 28 0 01-3.3-.6c-2-.6-3.9-1.6-6.1-.3a3.4 3.4 0 01-2.8 0 5.5 5.5 0 00-5 0 2.5 2.5 0 01-2.2-.1c-2-1.8-3.9-1.1-6-.4-3.1 1-3.5.6-4.5-3.4-.4.6-.8 1.4-1 1.4-1-.3-1.5-1.5-2.7-.8a9 9 0 01-.8-2.7c0-1 1-2 .7-3-.2-.8-1.4-1.7-1.9-2.7-.5-1-.9-2.2-1-3.4-.2-3.2-1.1-6-4-7.9-.6-.4-.9-1.6-1-2.5-.3-.9-.2-2-.4-2.9-1-4.8-4.2-7-9.2-6.7-7.3.6-14.7 1.1-22 2.4-2 .4-4-.8-6.1.2-9-1-17.8.5-26.6 2-3 .5-6.1.4-9.2.7-2.7.3-5.5.2-8 1-5.8 1.7-11.5 1.9-17.3 2.1l-8.8.7-13.3.4c-.6 0-1.2-.5-2.4-1a5.4 5.4 0 014.2-1 12.7 12.7 0 0010.5-3.4c-13.4.1-26.8.5-39.9 3.2 0 2 1.5 1.8 2.5 1.9 1.2 0 2.3-.2 3.5-.4 2.4-.5 4.7-1.1 7.3-.4 1.4.4 3-.3 4.6-.5.6.7.7 1.6-.2 1.8-1.8.6-3.7.9-5.7.8a19 19 0 00-5.6.3l-10.9 2c-2.8.6-5.8.1-8.3-1.4l3-2.2c-.5-.4-1-1-1.2-.9-3 1.2-6.5 1-9.3 2.7h-.5l.4-.1h3.3c1.5 0 2.2 1 2.2 2.4l.1.1c-2.4.4-5.1-.7-7.2 1.5-3 0-6.2.7-9 0-3.2-.8-5.9-.9-8.7.7a8.4 8.4 0 01-6.8.6c-2.2-.9-4.6-1-6.8-.3-.8.2-1.5.1-2.2 0-1.5-.4-3.1-.3-4.6 0-2.6.7-5.2 1.2-7.7-.8-.8-.7-2.5-.3-3.8-.2l-3 .6c.7-1.4.6-2.3-.6-6.1l-3 1.5c-1.2-2-2.2-3.9-1.4-6.4a3.4 3.4 0 00-.3-2.8c-1.5-1.9-1.5-4.5-2.9-6.2-1.6-1.9-1.1-3.7-1.6-5.6-.3-1.7.4-3.1.1-4.5-.3-1.2-1.5-2.2-2.1-3.3-.4-1-.7-1.9-.8-2.8-1-5-2.7-9.8-2.6-14.7 0-5.4-1.1-11.3 2.7-16.1v.4l.1-.3a2.7 2.7 0 012-3c3-1 6-2 9-2.8l8.8-2.5c4.4-1.3 9.1-1.6 13.7-1.9 4.3-.2 8.5-1 12.5-2.6.6-2.3 1.7-4.4.7-6.8-.2-1-.1-2 .2-2.9.6-2.8 1.6-5.5 1.3-8.5 0-1.2 1.7-2.7 1.4-3.6-1-3 .5-4.6 2-6.7 1.7-2 2.5-4.4 2.3-7-.4-3.4.5-7 2.5-9.8l1.3.9c.5-.8 1-1.5 1.3-2.3.9-2.4 1.2-5 2.4-7.1 1-2 2-4 2.6-6.1.8-3.5 1-4 3.2-6.8l-1.3-2.4c.4-2.5 2.5-3.7 4.2-5.2l.4-.9-.3-.3v1.4l-2.1-1c1.1-1.5.6-4.3 3.4-4.4.2-1.3.6-2.6 1-3.8.8-1.7-1.4-1.5-1.3-2.7l3.5-2.4c-1-2.3-3-.9-4-2-.2-.3-.6-.7-.5-1l4.2-10.6c.2-.3 1-.3 1.5-.4l-.1-.1 1.4 3.4-.3.1.2-.1 2.8-5.6c0-1.6-.3-3.8-2.8-5.3 1.8-3.8.1-9 4.8-11.6-.3-3.5-.6-6.9 2.1-9.6.6-.8 1-1.7 1.1-2.6l3.2-11.8c.8-2.8 1.4-5.5-1.6-7.8-1.1-.9-1.4-3-.8-4.9 1-3 1.8-6.3 2.7-9.5.6-2 .6-2 3-3.8l-.7-2.2-.2.1zm16.8-92.5l.9-2-.7-.2-.7 1.7-.5 1.2 1-.7zm187.1 290l1.2-1-1.5-.1-.3.4-.5 1.3 1.1-.6zm-212.7 49l.5-.7-.4.8h-.4.3zm134.2-206c1.4 0 2.8 0 2.8-2-1.4.3-2.6.6-2.6 2.3l-1.3.4.5.2.6-.8zm-77-221.2c-.3-.2-.7-.7-.8-.6-.7.5-.3.9.3 1.2-.4.6-1.2 1.6-1 1.7.7 1 1.7.5 2.3-.2.9-1 .4-1.7-.8-2zm62.7 227l-5.2.7c2.6.8 4 .4 5-.9.5.2 1.1.3 1.7.2.3 0 .6-.7.9-1l-.3-.6c-.3 0-.7.1-1 .3l-1.1 1.3zM211.8 439a53 53 0 00-9.3-2c-.3 2 .1 3.3 2.1 3.4 1.5.2 3 .2 4.5.2a2.3 2.3 0 002.5-1.8l1.4-.5-.7-.5-.5 1.2zm250-96c0-1.7 0-3.4-.3-5.2 0-.3-.8-.5-1.3-.7 0 0-.5.6-.5 1a6.4 6.4 0 002.2 4.8c-.2.6-.3 1.1-.3 1.7l3 16.3 1 4.8c1.7-.2 2.1-1.2 1.8-2.1-1.5-5-2.1-10.1-2.8-15.3-.2-2-.8-4.1-2.8-5.3zm-44.3-47l-.6-2-3.3 1.7 3.7.6c.3 1.8 2.5.4 3.2 1.7l-1 1.4-1.7 1.6a2 2 0 001.2 3.2h3.9c.5 1.4 1.3 2.5 1.3 3.5s-.8 2.2-1.6 3.9c1.4-.3 2.6-.3 2.7-.6.7-2 1.2-4 1.4-6 0-2.2-.5-4.3-1.3-6.3-.4-1-2.1-1.4-3-2.4-.8-1-2.6-1.6-2-3.4-.4 0-1.3-.2-1.4 0-.6 1-1 2-1.4 3.1zm-59.4 125c.8.8 1.4 2 2.8 1 .6-.5 1.3-.9 2-1.2.3-.2 1 0 1.1.3.7 2 2.2 1.4 4 1.2l1.6-4.3-33-.5c-2.3 0-4.5-.5-6.8-.5-6.6.2-13 1.6-19.6 1-4.2-.6-8.6 0-12.8-.6-3.4-.4-6.2.8-9.4 2 2.6 2.2 5.4 2.1 8.1 2.1 7 0 14-.4 21-.5 1.5 0 3.2-.4 4.6.1 2.6 1 5.3 1 8 1l23.2.6c1.9 0 4 0 5.3-1.7h-.1zm-6.7-147.3c1.6-5.4 3.4-10.6 4.8-16 1-2.8.9-5.7 0-8.4-.8 1-1.3 2-1.8 3.2-1.7 7-2.7 14-3 21.2zm9-226c-2.1 2.4-2.3 2.5-1.7 4.3.4 1.1.3 2-.6 2.5-2.5 1.5-1.4 3.4-1 5l3.8-1c.6-3.5 2.7-7-.4-10.8zM223.7 494.6c13.9.3 13.9.3 16.2-1.6h-14.3c-.4 0-.9.7-2 1.6zM388.9 46.2l2.4-6.2-1.6-2.9 1.7-3.1c-3.7.1-4.2.5-4.3 2.7-.1 3-.2 6.1 1.8 9.5zm1.9 2.2c-1.4 4.4-.1 8.8-1 13-.2 1.7.7 3.6 1 5.4 1.6-5.3 1-10.6 1.3-15.8 0-.8.2-2-1.3-2.6zm-56.1 19c.4-1.2.8-2.3 1-3.5.4-3.9-.3-7.8 1-11.6.2-.7-.2-1.7-.4-3.3-2.2 6.5-2.2 6.5-1.6 18.3zm-61 258.9a4 4 0 004.2-3.6c0-.6-.6-1.3-1.2-1.8a1.5 1.5 0 00-1.4.4c-.9 1.4-2.4 2.7-1.5 5zm170.8-30.6c2.4-.2 3.5-1.1 3.4-3.3 0-1.2-.2-2.2-1.8-2-1.5 2.6-1.5 2.6-1.6 5.3zm-180 198c-4.2-1-4.2-1-8.5.6l4.7-.5h3.8zm136.6-167.9c.6 2.2 1 3.6 3 3.8.6-2.4-.5-3.2-3-3.8zm65.7 43.5c-.5 3.8-.5 3.8.6 5.7.5-4.5.5-4.5-.6-5.7zm-128.5-326c1.3.7 2.4.6 3-.7.5-1 .4-2.1-1.3-2.8l-1.7 3.5zm24.7 2.5c.7-1.2 1-2 1.6-2.8-2.1.1-2.1.1-1.6 2.8zM331.7 486v.6l2.5-.1v-.6h-2.5zm72.7-169.7l-1.3-1c-.1.4-.5.8-.4 1l1.2 1.1.5-1.1zm-7.5-3.6c-.2 3-.2 3 1.7 2.8l-1.8-2.8zm14.1-16.4l-.8.5v1.5l.8.7c.2-.5.6-.9.5-1.3 0-.5-.2-1-.5-1.4zM387.8 76h-.4v1.9h.4v-2zm84 298.8c-.4.7-.9 1.1-.9 1.6 0 .4.5 1 .7 1.4.3-.4.8-.8.8-1.2 0-.5-.3-1-.6-1.8zm-160-99.3l-.4-1c-.5.2-.8.5-1.2.8l.4 1 1.2-.8zm183.6 171.1h-.7v2.4c0 .2.2.3.3.4.3-.2.6-.4.6-.7l-.1-2h-.1zm-86.6-160.4c.7.5 1.5 1 2.3 1.2.2 0 .6-.7 1-1-.3-.2-.6-.5-1-.5l-2.3.3zM421.7 440l-.6-.6-.4.1.6.7s.3 0 .4-.2zM360 177.2l-.6-.2-.2 1.5.3.4.5-1.7zm-9.7 103.2c.2-.3.5-.6.5-1 0-.2-.3-.5-.5-.8-.2.3-.5.6-.5.9 0 .3.3.6.5.9zm91.3 14.7l.8-.6c-.3-.2-.6-.6-.8-.6l-1 .8 1 .4zM208.7 456.7c0 .3-.3.7-.2 1 0 .2.5.3.8.5.1-.3.4-.7.3-1-.1-.2-.6-.3-.9-.5zM376 166.5l-.3.3v.5l.4-.3c.1-.2 0-.3-.1-.5zM415.2 300l1.2-.6c-.3-.4-.8-.6-1.2-.8-.3 0-.6.4-1 .5l1 .9zM282.4 412.6a4 4 0 00-.8-.2l-.4.3.5.5.7-.6zm51.5-55v-.5h-.5v.7l.5-.2zm63.8-28.7l-.7.7 1.1 1 .5-1.3-.9-.4zm49 175.1l-.3-1.2-1.2.6.3.8c.4 0 .9 0 1.3-.2zM220 494.7l.5-.2-.9-.1.4.3zM336.6 43l-.3-.3-.4.8.3.4.4-.9zm18.5 442l.5.3v-.4l-.5.1zm-2.8-426.5l-.6-.2v.4l.6-.2zm3.9 5.4l-.4.8.2.3c.2 0 .4-.2.4-.3l-.2-.8zm-16.5 5.2c.2 0 .4-.2.4-.3l-.4-.8-.3.3c0 .3.2.6.3.8zm-133 392.3l-.2-.5-.3.7.4-.2zm138.2-19.8v.4l.4-.1-.4-.3zm-140.2-10.1v-.4l-.4.2.4.2zm74.4-9.4l-.3-.5-1 .4.3.4c.4 0 .7-.2 1-.3zm-1.3-3.9l-.4.4.3 1 .4-.4c0-.3-.1-.7-.3-1zM387.4 90l-.4-.3-.1.4.5-.1zm86.5 298l-.2 1 .4.4c.2-.2.3-.5.4-.9l-.6-.5zM462 334.1l-.5.2.5.2v-.4zM388.7 313l.4-.3-.4-.8-.3.8.3.3zm79.6-5.8l.2-.4h-.3v.4zm-91.2-146l-.2.2h.3v-.2zm24.5 148.3s-.3.1-.3.3l.3.3.3-.3-.3-.3zm-41-135.1l.3-.3h-.3v.3zm60.2 111.9l-.4-.4c-.2 0-.3.2-.4.4l.6.4.2-.4zm64.8 87.8l.3.2v-.3l-.3.1zM385.1 101.6l.3.3v-.4l-.3.1zM414.7 409l-.3-.2v.3l.3-.1zm-135.5 4.9l-.3-.3v.4l.3-.1zM292 249l-.3-.2v.3l.3-.1zm41.6-179l.3.2v-.3l-.3.1zm29.5-13l-.3.3.3.4.3-.4-.3-.3zm2.6-9.2l-.3-.3-.3.3.2.3.4-.3zM217 494.8l.2-.3h-.3l.1.3zM336 35.3l.4-.3c0-.1-.1-.3-.3-.3l-.3.2.3.4zm106.6 255.5l-.2.2h.3l-.1-.2zm-349 94.3l-2 4.8c-.4-5-2-9.6.4-14.3l2.8 1.4c-.3 2.8.7 5.7-1.3 8.3l-.2-.3.3.1zm366.9 136.3l3 1.2.1.9-6 .8h-3.8l.4-4c1.7 0 3.4.8 4-1.3.2-.4 1-.4 1.6-.6l.6.3v2.7z"/><path d="M269.2 323.8c.6-3.7 1.5-7.3 2.8-10.8 1.5-.1 1.5.8 1.4 1.5a16 16 0 01-4.2 9.3zM91.8 397.1c1 4.8 1 5-1 7a4.4 4.4 0 01-1.5-5.1c.3-.8.5-1 2.5-1.9zM352 294l3-9.9c.4 3.9-.1 7.3-3 9.9zm-3.4-278l-.5-2.6c1.7-1.4 2.8-.5 4 .7l-3.6 1.7.1.2zm161 494l-1.8 2a1.5 1.5 0 01-1.4 0c-.8-.6-.3-1.3.5-1.6l2.3-1 .4.6zM386.4 128.8c-.4-.3-.7-.4-.6-.5.3-1.1-.7-2.7 1-3.3a.5.5 0 01.6.1c1 1.7 0 2.6-1 3.7zM97.2 437.7l-5.5-.3c-.1-.9-.4-1.9.8-1.2 1.5.8 2.4-.2 3.5-.8l-.2-.1 1.4 1.4-.2-.3v1.5l.2-.2zM72.6 41.5c.8-1.5 2.2-1.6 3.7-1.4l2.2.2-.2-.2c-.5.5-1.1.8-1.8 1-1.3.2-2.7.2-4 .2l.1.2zM374.2 190l-.2 4.3-1.9-2.6 2.2-1.7h-.1zm28.4 219h4v.6l-3.9.3v-1zm-27.8-224.2c1.4 2.4 1.3 2.7-.6 5.1l.1.1.6-5.1-.1-.1zm-348 138.5l-1.6 2.3c-.6-1-.5-1.8 1.6-2.4zm440.1 196.4l1.2.6c-.4.3-.8 1-1 1-.3-.1-.8-.7-1.1-1l.9-.6zm-59.2-108.8l2.5.2v.5h-2.5v-.7zm-201.1-50l-2-3.8.1-.1c1.4 1 2.7 2 1.8 4l.1-.1zM392.5 85l-.3.3-.1-1.1.2-.3.2 1.1zM199.8 351.4l-1.6-1.8c2-.2 1.6 1 1.4 2l.2-.2zm-112-205.6l.8.3h-1l.2-.3zM518.2 491l-1.4 1h-.6c.1-.4.2-1 .4-1l1.6.2v-.1zM389.9 124.6h.3v.6l-.3.3v-.9zm-2.2-1.5l-.6-2.2.6-.5c.1.1.4.3.3.4 0 .5 0 1-.3 2.3zM233 219.6h.4v.1h-.5v-.1zm19.1 1.6l-.5-.6 1-.1.4.3-.9.4zm226.3 296.9l1.1 2-.6.2-.4-2.3-.1.1zm-96.5-370.6c.2.3.5.6.5.9 0 .3-.4.6-.7.8-.1-.3-.5-.6-.4-.9 0-.3.4-.5.6-.8zM188.5 13.3l.1-1-.2 1h.1zm-100 20.4l.5-.2.1.6h-.5l-.1-.4zM57 38.9l.8.2-1-.2h.2zm235.3 204.9l-.6-.7.4.9.2-.2zm-30.6-39.5l-.4-1 .3 1zM47.9 416.7c1.6.8 1 1.5 0 2.3l.1.1v-2.5l-.1.1zm397.7-147.2c.7-1.4 1.5-1.2 2.3 0v-.2h-2.4v.2zm-161 5.9l-.1-.5.4-.2v.5l-.3.2zm-100.1 51.9l.1 2.9c1.2-1 .6-2-.2-2.8v-.1zm-152-14l-.4 1.1.5-1v-.1zm240.6-3.7l.5-.2v.6h-.4v-.4zM237.5 295l1 .9s-.3.1-.4 0l-.5-.8-.1-.1z"/><path d="M237.6 295.1l-.5-.3v.4l.4-.2v.1zm39.7 20.1v-.3l-.1.2.1.1zm71.2 7.6h-.2l.3.1v-.1zm.1.2v.2-.4.1zm41.4.4h.5-.4zm1.7 3.5l-.1-.4v.5-.1zm-4.4-176.7l-.3-.4.2.3zm-367.7 181l.4-.2-.2.1h-.2zm165-1l.4.3v-.4l-.3.1zm-164.8.9l-.3.5h.3l-.2-.4.2-.1zM188 335l-.2-.2v.4l.2-.2z"/><path d="M189.5 336l-1.5-1-.2.1 1.8-.2-.2-.2v1.4h.1zm5.7 9.4l.2-.3-.6.1.4.2zm0 0l.4.3v-.4l-.4.1zM3.9 350.6l.3-.2v.3l-.3-.1zm4.3.7l1.3-1.3h-.2v1.3l.2-.2H8.1v.2zm195 4.9a1 1 0 011.4.3l.1.5-.1.1-1.3-1.1-.1.2zm3.3 4.8l.6-.2h-.5v.1zm124.3 5.5l.2-.3-.2.3zm-106.6.5l.1.6-.1-.4v-.1zm138.9-100.8l.1.3h-.3l.2-.3zm-35.8 113v1.3h.2v-1.4h-.2zM363 264l.2.2h-.3l.2-.3zM53.8 408.5v.5l.4-.5h-.4zM90 413l-.3.6.4-.1-.2-.4h.1zM29.1 80l.3-.8-.1-.5v1.5L29 80zm264.3 160.3l-.6-.8.4 1 .2-.2zM397 56.9l.3.3-.4.3-.2-.3.3-.3zM26.9 46.2l1.3-.1V46h-1.4v.2zm246.6 448.9l.4.3v-.4l-.3.2-.1-.1zm-90.4-274.7l.5.1h-.5zM371 19.1l-.3-.4.2.3v.1zm2.9-2.8l-.4.1v-.3l.4.2zM356.3 14l-.3.1V14l.3.1zm-167.9-.8l-1.7 1.2h.1l1.7-1-.1-.2zM159 428.5v.1zm-31.6-322.8l-.5-.1.8-1.2.6.6-1 .7zM57.2 89.1l-.3.8v-.4l.4-.2-.1-.2zm301.1 332l-1.4-.2 1.2.3.2-.1zM56.8 874.8c1.6-.5 2.3-1.8 3-3.2.9-1.8 0-4.4 2.5-5.6.1 0 .2-.7 0-1-1.6-3 .4-5.5 1.2-8.1.5-1.4.7-2.7-.9-3.5l-.1.1v-2.1c-.1-2 .3-2.3 2.6-1.1-.4 0-1.3-.3-.6.7l.4-.9a9.3 9.3 0 002.2-6.6c0-.6-.6-1.2-1-1.8l-.1.2c.5-1.3 1.5-2.5 1.5-3.7 0-2.4 1.1-3.9 2.4-5.6 1.5-2.2 2.3-4.8 3.5-7.5-.3-1.4-1.2-3.3-.9-5 .3-1.4 2-2.6 3.3-4.1l-.9-3 1-1.3c.9-1 2.2-1.2 1.7-3.2-.4-1.8 2.7-9.7 4-11.5.1-.3.6-.4 1-.6l.3.3-.5-.2c.8-1.7 2-3.2 1.1-5.4a4 4 0 011.6-4.6c2.4-1.3 2.4-3.4 2.2-5.2-.3-5.4 2.7-10 3.2-15.1 0-.2.5-.4.8-.6-.8 4.3-.8 4.3.5 8.7l.1-.2c-2.5.8-3.3 3-3.6 5.2-.3 1.7.7 2.8 2.5 3.1l-.4 3.4c2-.4 2.9-1.3 2.2-2.8-.2-.4-1.3-.3-2-.5a8.9 8.9 0 004.9-6.7c0-1 .4-1.9 1-2.6 1.9-1.6 1.8-4 2.3-5.9a202 202 0 004.5-21.6c.6-2.8 1.3-5.6 2.2-8.4l1.2-5a3.5 3.5 0 00-.8-3.8c-1.2-1.1-1.2-2.1-.2-3.5.7-1-1.4-2.3-.2-4 .8-1 .7-3 1-4.5a7.7 7.7 0 00-8.2-.9 14.1 14.1 0 01-12.4-.3c-4.7-2.3-10-3-15.1-2.3a27 27 0 01-7-.1c-4.2-.6-8.4-1-12.6-1-3.6-.2-7.1-1.7-10.6-2.8-.6-.1-1-1.4-1.5-2.6-.6 0-1.2.2-1.8.5-2.2 1.2-4.1.7-6-.6-3-2-6.6-3.4-10.3-3.7-1.4-.2-3.1-.7-4 1.1-.1.2-.4.2-.7.3-.8-3-4.2-1.1-5.6-3l.6-3c-3.2-1.3-4.9-3.5-4-7 .2-.6.5-1.3.3-1.7-2.8-5.9 0-11.7.1-17.5L8 670c0-3.3.4-6.5 1.3-9.7 1-3.4 0-7 1-10.6 1.1-4.9 1.7-9.8 3.7-14.5.4-1 .6-2.2.8-3.3 2.9-1.6 6.3-1.3 9.5-1.5 1.5 0 3 .4 4.5.9 1.1.2 2.2 1 3.3 1 5.2-.4 10.3 1 15.5.8a271 271 0 0115.6-.1c6.4 0 12.7-.3 19.1.4 4 .4 8-.7 12-1.1l16.3-1.7c3.6 1.9 7-.5 10.6-.6h5c.6-1 1.7-2.3 2-3.7.9-5.1 1.6-10.3 3.5-15.1.2-.4.4-.9.3-1.1-2-3.8 1-6.6 1.7-10.2l-2.2-1.5v.1l3.8-7.3c.2-.5-.1-1.1-.2-1.7l.1.1c-.3-.8-1-1.7-.9-2.5.3-3.6.8-7.2 1.3-10.8l3.8 1.7 1.5-4.9a8.3 8.3 0 00-3.3-3.7l.1.2c.5-1.8 0-3.7 2.2-5 1.1-.7 1.2-3 2-5l4.6-2.8c2 1.1 4.2 1.7 6.3 0l-.1-.2a3.3 3.3 0 004.1 1c2.2-1.1 4.2-.7 6.2 0 4.8 2 10.1 2.7 15.3 1.8.4-.1.9.5 1.4.8a2 2 0 00-.5.2v.3l.4-.6 1 .3c2.1.7 3.6 3 6.3 1.8 2-.8 4 0 6.2-.8 2.6-1 5.5-1 8.4-1.3.7 0 1.6.8 2.3 1.3 1.7 1.4 1.7 1.4 3.3-1.4l1.3 4.3c.6-1 1.3-1.6 1.4-2.3.2-1.6.3-3.1.2-4.7V553c1.5 2.6 2.3 4.4 2 5.6-.9 4.5.3 8.7 1.3 13 .4 1.5 0 3.1.2 4.6 0 1.6-1.5 2.7-.2 4.4.4.5-.6 2-1 3-1.4.7-1.3 1.5 0 3v-3l2.3-.6c1.2 2.7 1.5 5.7.7 8.5-1.2 4.4-3.3 8.7-3.7 13.4 0 .5-.3 1.3-.7 1.5-2.6 1-2.4 3.2-2.4 5.4a18 18 0 01-.8 4c-.4 1.7-.2 3.6.7 5.2 5 .3 10 .7 14.5-2.2 1.1-.7 2.5-1.1 3.8-1 4.6.4 8.8-1.3 13-2.3 3-.6 6-1.5 9-2.2 1-.2 2-.3 2.9-.1 1.6.2 3.2 1.3 4.4-1 .2-.4 1.5-.5 2.2-.4 3.8.8 7.3-.3 10.8-1.4 2.2-.6 4-1.1 6.1.3.7.4 1.8.1 2.7.1l3.4-.2v-.1c-2.3 1.6-4.6 3.2-3 6.7a48.4 48.4 0 01-13 3.3c-1.2.4-2.4.8-3.5 1.4.7 1.9 2.6 2 3 4a1.7 1.7 0 002.8 1c1.4-1.4 2.7-2 4.7-1.4.5.2 1.3-.6 2-.9.6.9 1.4 1.7 2.2 2.4.2.2 1.2-.5 1.8-.8-.3-.5-.5-1.3-.8-1.4H274c4-2.9 4-2.9 6.9-8 .4-.9 1.1-1.6 1.6-2.4l2.3-3.9v.1l3.9.4c1-1.5 1.5-2.9 0-4.2l1.3-1.2c1 2.4 1.6 5 1.6 7.7l3.5-4.2a2.4 2.4 0 013.1-.7c.6.4 1.5 1.2 1.4 1.5-1.4 3.7 1 6.7 1.6 10v1.4l5.8.5 2 4.3-2.1 1.2-1.4-1.5v-1.3h.2l-1.9.3v.6l1.9.3 1.3 1.4c1.2 3.6 3.4 7.2-.1 10.7.3 2 .5 4 .9 5.9 1.2 6.1-.2 12.3-.4 18.4 0 .4-.4.7-.5 1h.1c-.3.4-1 1 0 1.4h-.1l-2.2 2.4c2 1.9 4.2 1.3 6.6 1.5-1.6 2.6-2.8 4.9-6 5.4-1 .2-1.8 1.3-1 3.1l6.8.6-4.2 2.7-3.5 2.8.1-.1c-.4.5-.7 1 0 1.5l-.1-.2a5.3 5.3 0 01-4.3 1.2c-2-.2-2.3.4-3 3-.1.7-.5 1.3-1 1.8-2 1.3-2.6 4-5.2 4.5l.8 2.2c-3.2 1.9-5.8 5-10 4.8-5 2.6-10.4 2.2-15.6 3.5-2.3.6-4.5 2-6.7 1.8-3.8-.2-6 1.8-8.3 4-.8.9-1 2.7-2.4 2-1.8-.8-1.7 1.4-2.6 1.4-.8 0-1.5-.2-2-.7l-2.2-3c-2 1.3-2.6 4.1-5.3 4.2-2.2 0-4.2 0-5.6-2.8a15 15 0 00-.8 3.2 2 2 0 01-2.2 1.2l-4.5-1.2c-3.4 2.7-7.5 1.7-11.4 1.8l-12.3.7c-2 4.3-1.8 9.3-2.7 14-.7 3.7-2.1 7.4-1.9 11.4.1 2.2-1.5 3.8-3.2 5l-.6 1.3 1.1-.7c.3.7.8 1.5.7 2.1-.4 3-1.1 6-1.7 9-.5 3-2 5.7-4.2 7.7a9.5 9.5 0 01.2 7.2c-1.7 4.3-2.7 8.9-6.3 12.3-.3.3-.8 1-.7 1.4.6 2.2-1.1 2-2.2 2.7-.6.3-1 1-1.4 1.6l-1.2 2.3v.2-.4c1.7-.1 1.3-1.2 1.1-2.2.6 1.2 1.5 2.3.6 3.8-.7 1.3-.4 3.2-2.3 3.7-.5.1-1.3.7-1.2 1 .4 1.7-3.6 2.5-.8 4.6-.5 1.7-1 3.3-1.8 4.9a35.9 35.9 0 00-3.8 10.2c-.7 2.8-2 5.5-3 8.2-1 2.4-1.7 4.8-2.6 7.3 2.6 4.2 3 8.5.1 12.9-.3.5-.1 1.4-.3 2-.3 1.4-.3 3.2-1.2 3.9-3.8 2.8-4.5 7-5.9 11-1.2 3.3-1.9 6.6-3.5 9.8-.9 1.6-.7 3.7-1 5.6l-1 5-3.6 10.4c-3.2 9.6-7 19-10.8 28.3-.9 2-3.5 3.4-2 6.1-1 1.9-1.9 3.9-2.6 5.9-1.6 5.4-5.8 9-9.1 13.2-2.9.7-3.3 3.5-4.8 5.4-.6.9-.5 1.5 0 2.5.5.6 0 2.2-.5 3.1a32 32 0 00-4.2 10.1c-.4 2-2 2.8-3.4 3.6.2 1.5.7 3 .4 4.4-.3 2.1-1.1 4.1-2.4 5.9-4 5-6 11.1-9.8 16.3-3.6 5-3.4 5.3-8 8-.8 1.4 1.5 2.8 0 4.3-1.4 1.4-2.2 3.2-4.4 3.5l-2.7 1c.2-1.6-.6-2.5-2.3-3.2-.4.7-1.4 1.8-1.2 2.1 1.6 2.6.5 4-1.4 5.9-1.5 1.5-1.3 3.6-.3 6.8l2.5-6.1 2.8-5.6c1.5 2.2 1.9 4.3-.1 6.7-1.3 1.5-2 3.7-3 5.8-1.6.5-3.3 1-5 1.8-1 .4-1.2-.2-1.9-.4-3-.8-6-1.3-8.9-2.2-2.5-.9-5-2-7.2-3.4-7-4.3-14-8.5-21.2-12.2-4.4-2.2-8.7-4.6-13.4-6.5-3.1-1.3-5.8-3.7-8.5-5.9-1.3-1-2.2-2.6-3.5-4.2 2.7-1.8 2.6-4.2 1.6-6.6 2.8-1.1 2.8-1.1 2.8-4.3l-3 1.6c-.4-.7-1.1-1.3-1.1-2 0-1.8-.2-4 .7-5.4 1.5-2.2 2-4.6 2.6-7 .4-.8.8-1.7 1.4-2.4 1.8.6.8 2.4 1.6 3.4l.6-.5c1.6-4.3 3.2-8.6 5-13 1-2.7 1.8-5.4 3.7-7.8 1.6-2.2 2-5 2.2-7.7l.8-.8-1.3.3c0-.4-.4-1-.2-1.4.2-.3.9-.6 1.4-.8a5.6 5.6 0 003.8-4.6c.1-1 1-2 1.4-3 .1-.6-.3-1.3-.5-2l-1.9.8-.5.3.1.1c1-3.3 2-6.6 4.4-9.2a3.4 3.4 0 001-2.5c-.4-1.7.7-2.6 1.3-3.6.3-.5 1.3-1 1.2-1.2-.8-2.6.6-4 2.5-5.6 1.6-1.4 2.3-3.9 3.9-5.4 1.2-1.2 1-2.4 1.1-3.7v.2c.6-1.2 1.7-2.2 2-3.4a36 36 0 016-14.1c1.6-2.7 2-6 4.7-8.2.7-.5.2-2.5.3-3.9l-.4.2zm-21.1-172l.1.2-1.2-.2-1.3-1h-.5l.3.8h1.7v.8l.9-.6zm-22.2-44.2l-.2-.1h.6l-.4.1zm101.8 13c-.4 0-1.1-.5-.6.5l.6-.6.3-.1-.3.2zm26-55.7l-.2 1.6.6.3.2-.4-.8-1.3-.4-2.3 1-.3-.4-.5-.4 1c-1.8 1-.3 1.4.4 2zM67 929l-.4-1 .5.9.8.9v-.5l-.9-.2zm18 82.5l-1-.4 1.2.3-.5 2.3-.1.3v-.4c1.9-.3.8-1.3.4-2.1zM61.5 939c1-1 1.6-1.9-.1-3.8l.3 4c.2-.3-.7.5-.1-.2zm-6-279.5c.4 0 .9.2 1.1 0 .2-.1.5-.7.7-1-.4 0-1 0-1.4.2-.2 0-.2.6-.3 1-.5 0-1 .3-1.4.5-.3.3-.3.9-.4 1.3.5-.1 1-.1 1.3-.4.3-.3.3-1 .5-1.5zm-25.3 40.7l-.2.4.1-.3-1.5-.7-.5.2c.1.2.3.6.5.7l1.6-.3zm30.1 267.1c-.8.5-1.3 1-.2 2.2l.1-2.3.1.1zM45 965.7c1.6 0 1.1-.9.7-2.2l-.5 2.3-.7 1 .2.3.3-1.4zm133.6-189c-1.4 1.5-1.4 1.5-1.7 4.3 2-1.1 2-2.6 1.6-4.4.4-.4.7-.8 1-1.4.1-.6 1.3-1 .4-1.9-1.8.7-1.1 2.3-1.3 3.5zM129 868c.6.2 1.1.4 1.7.4.2 0 .4-.5.6-.8-.3 0-.6-.3-.9-.2l-1.5.8v-4c-2.7 3-2.6 3 .1 3.8zm-73.8 18c2.6-.5 2-2.7 2.9-5-3.2 1.4-2.6 3.5-2.7 5.2l-.7 2.1.8.1-.3-2.3zm52.6-213.8c-2 .3-4 .6-5.3 3.2a7.4 7.4 0 006-2.5l1.3-.8-1.6-.3-.4.4zm57.5-82.9l2 .3c0 1.8-1.4 3.6.3 5.4 2.6-3.3 1.8-6.7.8-10.3-2.3 1-2.4 3-3 4.8a8 8 0 00-.9 1.1l.6.7c0-.2.3-.3.3-.5l-.1-1.5zm-92.1 76.4l-.7-2.3-1.8 1.7 2.7.4-5 4.6-.3.4.1.3v-.9a3 3 0 003.3-.2l6-4.6c1.3-1 3.1-1.6 3.5-3.6-1.6-.6-2.7.1-3.7 1l-4.1 3.2zm-1.4 346.1l-.2-.7v.3l.3.3c0 1-.2 2-.4 3.2l-4.3-1c.2 2 .2 3.2 2 3.5 1.3.2 2.6.3 4 .3l1.4-2 .9-2.2-3.7-1.7zm189.6-312.3c-.5-.2-1-.7-1.5-.6A27 27 0 00248 703c-.5.3-.8 1-1.2 1.7.8.2 1.2.5 1.5.3 3.4-1.8 7-3.2 10.8-4 .8-.1 1.4-1.1 2.1-1.7 3.6.8 6-2.1 9-2.9-4-.5-4.8-.2-8.9 3zM58 934.4a3.7 3.7 0 01-.1-3.3c.5-1.3.9-2.8 1.1-4.2a3.8 3.8 0 00-2.1 2 593 593 0 00-4.7 10.7c-1 2.2-.9 2.2 0 6.6.9-1.7 2-3 2-4.4 0-3.2 2.2-5.1 3.7-7.5.2 0 .3 0 .4-.2v-.3l-.3.6zm9.1 12.6c2.2-5.4 5.7-10.3 6-17.6l-1.7 2.6-2 2.2c-3 3-3.5 5-2.3 9.5.2 1.1.3 2.3.2 3.5-1.1.6-2.3 1.3-1.3 2.9a.6.6 0 00.4.2c1.5-.5 1-1.7 1-2.7l-.3-.6zm82.1-184.3h-.1c-1.8 1-3 2.4-2 4.6l1.7.2.6 4.6c3.6-2.7 3.5-2.7 2.7-6.1-.2-1.6-.3-3-.3-4.6 0-1.2-.4-2.1-1.8-2.5-.6-.2-1-1-1.6-1.8-.2 1.3-.4 2.6-.4 4 0 .5.8 1 1.2 1.7zm-25.7-72.6c-2.3 1.3-1.2 3.6-2.4 6 3-2.4 4.9 1.4 7.3-.3.8-2.1 1.8-4.4 2.5-6.7 1-3 .2-3.7-3.4-3.3l-2.3 5.2-1.9-1 1-1-.4-.3-.4 1.4zm-55 17.4c-2.5-.3-5-.4-7.5-.8-4.9-.7-9.8-1.7-15-1.3l.5.7c7.7 2 15.6 2.4 23.2 4.5 3.2 1 7-.4 10 1.8.4.2 1.2 0 1.7 0l5.7-.5v-.5c-5.5-3.9-11.9-4-18.2-4.1l-.5.3.1-.1zm160.4-1.3c-3.1.8-5.5-2.4-8.8-1.2-2.8 1-6 1.2-8.5 1.7-.3 1 1.5 1 .2 2-.6.3-1.5.5-1.1 1.5 5 .3 11.5-1 18.2-4zM30.3 641.9l-.4-1.4c-3.1 1.5-6-1.4-9.3-.2l-.3 3.4 3.6.6-1.4 2.4-2.9-.7v6.5c1.3-1 2.4-2 3.6-2.8.8-.5 1.6-1.1 2.3-1.8.8-1 1-2.5 1.9-3.5.9-1 1.9-1.8 3-2.5zM117.8 757c-3.6 1.6-2.8 5.6-4.4 8.3-1 1.7-.8 4-1.2 6.2l5.9-.9c.6-4.6 1-9-.3-13.6zm37.9-18.5l-.8 1.2c-2.8 2.2-2 5.3-2 8.3a1.8 1.8 0 001 1.3c.4.1 1.3 0 1.5-.3 1.8-2.7 5-5 3.9-9l-.4-1-3.2-.5zM36.4 1002.3l.4-1 .1-5.2c-2-.6-2.1-3.3-3.9-4-3 1.3-1.8 4.2-2.7 6.2-.6 1.4.4 2.6 2 3l4.1 1zM177.8 587c1.7-2.2 1.7-2.2 1.7-4 0-3-.5-3.5-3.7-3.7a1.8 1.8 0 00-1.5.6c-.6 1 .1 1.3 1 1.5 1 .3.7 1 .6 1.9-.2 1.6 0 3 1.9 3.7zm127.8 62.4c-1 1.6-2 3.3-2.8 5a11 11 0 00-.4 4 3.2 3.2 0 002.3 3c0-4 1.4-7.5.9-12zm-84.3-2.1l.1 1.6c1.7 1.7 3.8 1.7 5.8 1a2 2 0 001-1.7 2.2 2.2 0 00-1.6-1.5c-1.8.1-3.6.3-5.3.6zm-105 213c-2.1 1-2.8 2.3-2.9 4.2 0 2-.5 3.7-.7 5.6 0 .4.3.8.7 1.6 3.1-3.4 2-7.3 2.9-11.4zm99-211.6c-2.8-.9-5.2-.7-6.9-2.6-.5-.6-2.3-.7-2 1.5 2.7.5 4.5 5 9 1.1zM52 963l-.8.4c-2 2.8-1.5 6.2-2 9.3 0 .2.8.6 1.6 1 0-3.7 2-7 1.2-10.7zm145.5-321.7c1.5-1 2.7-1.2 3-1.9.5-1.6.9-3.3 1.1-5 0-.4-.2-1.3-.5-1.4-.9-.3-1.4.2-1.6 1l-2 7.3zM74 637c-5.9-.4-6-.4-8.2 1.2 2.5 0 5 .8 8.2-1.2zm24.2 66.7c1.4 0 2.8.2 3-.2.9-1.7 2.5-2 4.1-2.3-2.5-.4-5.1-1.8-7.1 2.5zm7.3-66.5c-3.8-3.2-2.7-2.1-9.5.3 3.8 0 6.5.5 9.5-.3zm17 124c1.6-.6 2.2-1.6 2-2.8l-1.5-6.1h-.4v9zm76.2-77c-1.9 0-2.8.8-2.5 2.1a2.1 2.1 0 001.4 1.4c1.5.2 3.1-1 2.7-2-.2-.8-1.2-1.2-1.6-1.5zm-94.9 26.6l-.2-.5h-7.8v.5h8zm21.5-76.2c-2.2-1-4 .6-5.9 1 2.2 1 4-.4 6-1zm56.3-55h.8l.3-2.4c0-.1-.5-.5-.8-.5-.2 0-.7.4-.7.6l.4 2.3zM130.8 750l-.5-4.5c-.8 1-1.3 2.3-1.3 3.6l1.8.9zm74-133c-1.3 1.5-2 2.7-1.4 4.6 2.2-1.4 2.2-1.4 1.4-4.5zM151 792c-.6 1.7-2 2.6-1 4 1.6-.6 1.3-2 1-4zm150.5-165.5l-2.7-2.6.3 3.3 2.4-.7zm-39.3 20.7c-2-.6-3.3-.4-4.3 1.1 1.3-.4 3 .8 4.3-1.1zM125.8 754.4h.7v-3h-.4l-.3 3zm8-1.8l-1.3-.6h-1.6c0 .4 0 .9.2 1 .4.3 1 .5 1.4.5.3 0 .6-.3 1.3-.9zm-24.1 126c.7 1.3 1.5 1.5 2.4.8.4-.3.5-.9.7-1.4-.4 0-.9-.4-1.3-.3-.6.2-1.3.5-1.8 1zm4.3-5l-1-.4-.6 2.3 1 .2.6-2zM79 933c1.6-.6 1.4-1.6 1.5-2.5 0-.2-.5-.6-.8-.6-.3 0-.8.3-.8.6l.1 2.5zm186.1-267.1v.5h2.8v-.5h-2.8zM123.4 766h-.7v2.2h.5l.2-2.3zm140-64.2c.3.2.6.6.7.5l.8-.7c-.2-.2-.5-.6-.7-.5-.2 0-.5.4-.8.7zM43.7 972l1-2-.3-.3-1.3 1.3.6 1zm-31-285.8c-.4.7-.8 1.3-.7 1.5.3.6.7 1 1.2 1.4.3-.4.4-1 .5-1.5 0-.4-.5-.7-1-1.4zm269.5 6.8c.3.1.7.4 1 .3.3 0 .3-.6.5-.9-.4 0-.8-.4-1-.3-.3.1-.4.6-.5 1zM57.8 950h-.6v1.8h.4l.2-1.8zm125.8-353l-1.1 1c-.1.1.2.5.4.8a5 5 0 001.2-.8l-.5-1zm-48.3 260l-.8-.3-.3 1 .7.3.4-1zm68.8-230.5v-.4h-1.9v.4h1.9zm-86.6 147l-.5-1c-.2.3-.5.6-.6 1l.5.9.6-1zm-82 216.3l-.4-1-.8.4.5.9.7-.3zm88.7-125.5c-.3.7-.6 1.4-.7 2.1 0 .2.3.5.5.7l.4-.4-.2-2.4zm82-252l-.3-.4-.4 1.2.4.2.2-1zm-82.9 259.4l-.4-1c-.2.3-.6.6-.6 1 0 .2.3.5.5.8l.5-.8zM268 660l-1.5-.3c-.2 0-.4.5-.6.7l1.4.5c.2 0 .4-.5.7-1zM50.3 898.8c.2-.3.5-.5.5-.9 0-.3-.2-.6-.4-.9-.2.4-.5.7-.6 1.1 0 .2.3.5.5.7zm76.1-155.2l-.3.3.3.9.4-.3c0-.3-.2-.6-.4-.9zm-59.3 275.6a5 5 0 00-.9-.4l-.3.3.3.4 1-.3zm59.6-271.3l-.4-.7-.3.3.4.9.3-.5zM87 1007.5l-.3-.4-1 .3.3.5 1-.4zm-70.2-22.3l-.4-.4a6 6 0 00-.3.9l.3.3.4-.8zm40.6-5.1l.2-.5-.4-.2-.1.5.3.2zm79.8-397.7l-.3-.4-.3.3c0 .2.2.4.4.6l.2-.5zm-80 379.4a5 5 0 00-.2 1l.3.4.5-.9-.6-.5zm1.4-5c-.2.3-.5.5-.5.8 0 .3.3.5.4.8.2-.2.5-.5.5-.8 0-.3-.2-.5-.4-.8zM56.3 943l.2-.5-.5.4.3.1zm178-237.3l.3.3.1-.4-.5.1zm-87 67c.2 0 .5-.2.5-.3l-.4-.8-.4.3c0 .3.2.6.3.8zm17.1-162l-.7.6.3.4 1-.4-.6-.6zm5.3 2l-.4.3.4.9.4-.3-.4-1zM281 699.2l.5-.3-.4-.4-.6.5.5.2zM260 623c-.2-.2-.4-.6-.6-.6l-1 .3c.2.3.4.7.6.7.4 0 .7-.2 1-.4zm-117.2 2.5l-.3.4h.4l-.1-.4zm-18.3 254.8l-.3-.4-.4.4.5.4.2-.4zm-3-4.3h.4v-.6l-.4.2v.4zm146.8-244.2l-.8.4.3.4.9-.4-.4-.4zM115 636.1l.9-.4-.3-.3h-.9l.3.7zm189 3.8h.3l-.1-.5-.2.5zM89 789.1c0 .3-.2.6-.3.8l.3.4.4-.8-.3-.4zm-19.6-146l.9-.3c-.2-.2-.4-.6-.6-.6l-.8.3.5.6zm-54.9 5.2l-.1-.5-.3.6.4-.1zm271.1 42.4l1 .3.3-.4c-.2-.2-.4-.5-.6-.5-.2 0-.4.3-.7.5zM14.1 676.5l-.4-.4a5 5 0 00-1 .3c.2.2.3.5.4.4.4 0 .7-.2 1-.3zm39 2.3l-.4-.3-.4.3c.1.1.2.4.4.4l.4-.4zm139.9 6.9l-.2.2h.3l-.1-.3zm100.3.1l.3.2v-.3l-.3.1zM65.7 671.7l-.2.3h.3l-.1-.3zm188.1-.8l.2-.2h-.3l.1.3zm-44.5-17.6l.2-.2h-.2v.2zm-100.5 39.4l-.1.3h.2v-.3zm18.5 176.7l.3.2v-.3l-.3.1zm143-242.3l-.4.3.3.4.4-.3c0-.2-.2-.3-.3-.4zm-133.4.2l-.2.2h.3v-.2zm161.5-6c-.2 0-.4.2-.4.3l.3.4c.2-.1.4-.2.4-.4l-.4-.4zm-209.7 81l.3.2v-.3h-.3zm76.3-98.4l-.2.3h.3l-.1-.3zM31.8 931.5l-.2-.2v.3l.2-.1zm152-328.6l-.2-.1v.2h.2zM57.4 937.1l-.2.3h.3l-.1-.3zm19.8 2.8l.2-.3H77v.3zM165 600.4l-.2.3h.3l-.1-.3zM55 945.1l-.3.3h.6l-.3-.3zm-3.7 4l.4-.2-.3-.4-.3.3.2.4zm27.2 5.8l-.2-.2v.3l.2-.1zM118 718.4l-.2.3h.4l-.2-.4zm90-126l.2.1v-.2h-.3zm-70-4.9l-.3.3h.3v-.3zm-33.7 394l-.3-.2-.4.4.7.2v-.4zM11.8 985l-.2.3h.3l-.1-.3zm180-240.4l.2-.3h-.3l.1.3zm-62-4.5l.4-.4-.3-.4c-.2 0-.3.3-.4.4l.3.4zM214.4 981v-.5c-3.3-1.9-3.3-1.9-5.5-6l3.6 1.9c-.7-1.9-1-3.2-1.6-4.5-.8-1.9-3 .2-4-1.6 1.4-3.5-.5-6.4-2-9.4-2.1-.8-1 3.9-4 1.9l1.3-11.1-.1.1 1.6 2.3a3.3 3.3 0 00.2-3.7c-1.2-2.6-2.2-5.2-3.2-7.9.1 0 .3 0 .4-.2v-.3l-.3.6-.7-1c-1.1-1.6.2-1.8 1.6-2l-.7-2.2c-.7-1.8-2.3-3.8-2-5.3.5-2 0-3.7 0-5.6 0-.8.7-1.7 1.3-3l2.5 2.1v-4.5l-3 1c-.3-.9-1-1.9-.9-2.6 1-4.1-.6-8.1-.3-12.2.1-1.4-.6-3-1-4.4-.8-3.4-2.2-6.6-.5-10.1.4-1 .3-2.3.4-3.6l3.7-2.4c.1-.5.4-1 .3-1.3-1.3-4-.2-7.5 1.6-11a93 93 0 002.5-5.3c1.1-2.4 1.6-5.3 5.1-5.4.3 0 .6-.4.9-.7 3.9-4.3 8.9-4.8 14.3-4 1.3.2 2.6 0 3.9-.4a5.1 5.1 0 014.9-.6 159 159 0 0022 1.3c3.6-.2 7.3-.3 10.4-2.9l6.6 2a2.6 2.6 0 011.7 3.4l.1-.1-.2.5.3 1-.3-.1c.7 2 3.4.6 4.3 2.7l-3.3 2 1 2-4.8 3.7c.3.8.4 1.6.4 2.4l-.9 5.5c.1 2-.5 4.6.4 6.1 2.2 3.7 1.8 8 2.9 11.8.8 3 1 6 3.6 8.2a2.1 2.1 0 01.7 1.5c-.2 2.8 2 4.6 2.6 7 .7 3 2.2 5.4 5.5 5.9-.5 1.8-1 3.2.3 4.6l2.5 3.1.2-.1c-1 .4-.8 1 0 1.4l-.2-.2c.5 1 1 .7 1.4 0l-.1.1c1.6.3 2.1 1.5 2.2 2.9 0 2.5 1.5 3.5 3.7 4.3 3.2 1 5.6 3.6 8.3 5.6l-.2-.1a7.5 7.5 0 016.3 3.3c1.1 1.3 2.6 2.3 4.2 3 1 .3 2.1.4 3.2.2 1.7 0 3.3-.3 5-.5 1.9 1.5 4 1 6.2 1 3.8.2 7.6 0 11.5-.1 2.5-.1 5 0 7.5.2 1.7.2 1.7-2.5 3.1-1.5 1.5.9 2.4.6 3.8.2 1.2-.3 2.6.4 3.9-.5.3-.2 1.3.4 2 .8.9.7 1.5.5 2.5-.1s2.4-.8 3.6-1c.2.4.4.6.3.7l-.7.9c.3.1.6.4.9.4 3.2-.2 3.2-.2 6 1.9l1.2-2.1c4 2 8.3 2 13.2 1.5 1 1 2 1.7 3.2 2.4 1.5.7 2-.4 1.9-2.1 3.3 1.5 6-.9 9.2-1 2 0 4-1.6 5.8.6 2.4-1.3 5.3.2 7.8-2.2a8 8 0 019-1.3l-.3.2.2-.3c2.6 0 5 0 7.6.3 1.4.2 2.7 1.1 4.3 1.9l2.4-3.9c3.5-.8 7-1.8 10.6-2.5 1-.2 2.3-.5 3 .8l-1 .3-.2.6c.1 0 .4.1.4 0l.7-1.1c2 2.2 2.3 4.4-.5 6.6l2.5 1.3-1 5.5c-.4 2-.1 4.2 1 6 .8 1.4 1.3 2.3 1 4-.3 1.4.2 2.7-.6 4.3-1 1.9-1.9 4.3-.3 6.6.9 1.3.5 2.6-.2 3.9-.3.6-1 1.3-.9 2 .4 2.1-1.2 3-2.4 4l1 2.2-2.7 4.2c1.7 2.2 1.4 4.6.6 7a3.2 3.2 0 00.3 3.3c1.5 1.7 0 3.2 0 4.8l.2-.1c-.1.2-.3.3-.3.5l.3 1-.2-.2-3.3 3.6 1.8 4.2c-.6 2.4-1.3 4.5-3.8 6-1.9 1.1-3 3.5-4.4 5.4-1.8-.3-3.6-.5-5.5-.5-1.8 0-3.8 0-5.5 1.5 1.6 2.1 3.9.3 5.8 1.4a97.7 97.7 0 01-21 4 25 25 0 01-9.7.2c-2.7-.7-5.8 0-8.6.3-4 .6-8 1-12-.8-2.5-.9-5.2-1.2-8-.8-3.5.5-6.9-.1-10.7-.2a15 15 0 01-2 2.4c-.9.7-1.9 1.3-3 1.6-1.2.5-2.1-1.6-3.7-.5-1 .7-2.6.8-4 1.2-.7-.7-1.5-1.2-2.4-1.7-1.2-.5-2.5-1-3.7-1.3l6.2-.7v-.4h-6c-.8 0-2 0-2.2.5-1.8 3.3-5.7 2.2-8.1 4-2.8 2-5.7.7-8.5.6-1.2-2.8-2.3-1.3-3.7-.2-.7.5-2.3 1-2.5-1 0-.4-1.8-1-2.5-.8-5.8 2-10.4-.4-15.2-3.2a51.6 51.6 0 00-8.5-3.7c-5-1.8-10.4-2.6-15.3-5-.6-.3-1.5 0-2.3 0l-4-.7-8.7-3.1c-2.5-1-4.7-2.3-7.7-1.8a4.7 4.7 0 01-5.2-3c-1-2.7-3-4-5.3-5a41 41 0 01-3.8-2.7l-7.2-4.8c-1.3-.8-2.4-1.9-3.4-3-1.6-1.9-2.8-4-4.7-5.7-1.8-1.5-2.4-4.4-3.4-6.5-2.5 0-4.9.4-7-.1a7.7 7.7 0 01-4.8-4l-.1.1 1.4-2.4c.6-1.6.5-3-1.1-4l-.2.1zm213.4-29.8c-.6-.1-1.1-.3-1.7-.3l-.4.1c.1.3.4.7.5.6l1.6-.6-.2-.3.2.5zm-206 36.8l.6.7-.7-.6c-.2-.7-.5-1.3-.9-2h-.9c0 .4-.2 1.2 0 1.3.6.3 1.3.5 2 .6zm17.4-3.4l.4 1.5.4.2c.1-.2.4-.7.3-.8-.4-.3-.7-.6-1.2-.8.1-2.7-1.3-4.5-3.2-6.1a5.4 5.4 0 012.2-5.2c-1.8-2.5-4.2-3.1-6.6-3.7-1.8 3.8 3.2 4.7 2.7 7.8 0 .2.8.6 1.3.9h.5c-1 3.1.6 5 3.2 6.2zm99.3-3.4l-.3-1.4-.6.5 1 .8c-1.3 1.8-3 3.4-3.4 6.4a10 10 0 004.2-4.6c.2-.3-.6-1.1-1-1.7zM209 868.2c-2.6 1.5-3.5 4-3.6 7.5.8-1 1.4-1.3 1.5-1.8l2-6v-.2.4zm66.4 122.1c1.6-3.2 2-6.8.5-8.8-.6 3.2-1.5 6-.3 9l-.2-.2zm146.4 30.2l-2.3-4.5-3.2 4.5-1.3-1.1-2 3h5.3c-1.1 1.5-1.1 1.5-5.9 3 4 .3 8.1.1 12.1-.6l1.8-5.4-4-.1c-.3 0-.4.9-.6 1.4v-.2zm-92.4-26.7c1.5-4.7 5.7-7.4 5.6-12.7-2.8 1.6-2.3 4.7-4.3 6.4H326l-1.6 3.4 5 2.9zM245.9 876c-3-.6-5.4-.5-7.2 2.1l.4 3.3v3c1.8-3.3 6-4.2 6.8-8.4zm29.7 92c-.8 3.4 1.2 6.6-2 8.6l4.3 3.1c.4-1.4 1.4-3.1 1-3.7-1.6-2.3.3-5.8-3.3-8zm34.5 46.5l-2.6 6c2.8 1.3 2.8 1.3 4.8.7l-2.2-6.7zm14.7 9.1c-2.9-1-2.9-1-4.7.7l4.7-.7zm-56-19.5l.8-.3.5-2.4-.4-.2-1.1 2.2s0 .3.3.8zm13.3-62l-.5-1-1.5 1.5.5.9 1.3-1 .2-.4zm-40.5 35.7c-.8-.5-1.3-1-1.8-1-.4 0-.9.6-1 1 0 .5.6 1 1 1 .4.2.9-.4 1.8-1zM329 984l.7.6.5-.2-.2-.7c-.4 0-.7.2-1 .3zm-43.5-55c-.2.3-.6.6-.5.8l.8 1 .9-.8-1.2-1zm44.5 96l2.2.5c.2 0 .4-.5.5-.7l-.4-.3-2.3.4zm-1.5-5l.2-.4h-.3v.4zm-29.1-3.5c-.2.2-.6.5-.6.8 0 .3.4.6.5 1 .2-.4.6-.6.6-1l-.5-.9zm-33.7-12.9v-.5l-.6.2.2.4h.4zm-21.6-6.6l-.9-.4-.3.3.8.4.4-.3zm29.4-12.2l-.7.6.4.3.9-.3-.6-.6zm-68.7-27l-.1-.6-.4.2c0 .1 0 .3.2.5l.3-.2zm210.2-4.6l-.4.4 1 .4.3-.3-1-.5zm36.6-2l-1-.3-.4.3c.2.2.4.5.6.5l.8-.4zm-215.2-86.5l-1-.3-.4.3c.3.2.5.5.7.5.3 0 .4-.3.7-.5zm35.8-4.5l-.5-.3v.4l.5-.1zm-48.5 5.7l-.3-.3c-.2 0-.3.2-.4.3l.3.3c.2 0 .3-.2.4-.3zm24.4 8.2l-.3-.2v.4l.3-.2zm-28.4 6.2l.3-.3-.4-.1.1.4zm8.5 67.5l-.3-.2v.4l.3-.2zm209.3 4.7l-.3-.2v.4l.3-.2zm-28.5 2.3l.3.2v-.3l-.3.1zm-124.8 2.6l.3-.3-.3-.3-.3.3.3.3zm-82 1.9l-.2.3h.3l-.1-.3zm204.6 4.6l-.2.4h.4l-.2-.4zm29.5 12l-.3-.2v.3h.3zm-129 42l.3.3v-.4l-.4.1zm-51.6 1.3l.3.2v-.4l-.3.2zm68 .3l.3-.3h-.3v.3z"/><path d="M452 742.9c-1-.2-1.4.3-1.3 1.2.3 1.3 1.1 2.6 1 3.8-.3 2.6.2 5.2-.2 7.7-.5 2.6-2.1 5.1-3.3 7.6-.2.3-.7.4-1 .6l.2-1c0-.4-.2-.8-.4-1 0-.2-.8 0-.8.2 0 .4 0 .7.2 1 .2.3.6.5.9.7-.5 1.2-2 2.5-.7 3.6 1.8 1.6-1.1 3.4.7 4.8 1.5 1.2.4 2.9.4 4.3 0 .9.7 1.7 1 2.6.8 2.5 1.9 5-1.2 7a2.6 2.6 0 00-.9 2 2.5 2.5 0 01-2 2.4 3 3 0 00-2.1 3.6c0 .8.3 1.8-.1 2.3-2.4 2.7-1.1 5.4.2 8.3-2.4 1.2-4.5 2.6-7.3 2.7-1 .1-1.9.5-2.6 1a8 8 0 01-7.8.6c-1.9-.8-3.2-1-4.7.6a2.1 2.1 0 01-3.1 0l-.1-.2.1.4-1-.6a63 63 0 00-21.7-2c-1.9-.1-3.7-1-5.6-.9-2 0-3.8.8-5.7 1-3 .4-6.2.3-9.2-.2-2.3-.3-4.7 0-7 0l-6.6-.3.9-2.5c-.7-.3-1.4-.4-2.1-.5l-17.4-1.3a2.3 2.3 0 01-2.4-1.7c-.4-1.4-3.3-1.5-3.6-.2-.8 2.6-2.8 1.6-3.3.9a3.7 3.7 0 00-4-1.5c-3 .6-6.3.3-9.1-.9a7.3 7.3 0 00-5.7.1 6.7 6.7 0 01-5.7.1c-.6-.3-1.4-.4-2.1-.3-2.9 1-5.7.4-8.6.4-5.2-.2-10.4-.1-15.6.3-4.1.4-8.4-.4-13-.7l.6-3.2c-.3-.4-.7-1-1.2-1.1-4.7-.7-9.4-2.2-14.1.3-1 .4-2.2.6-3.3.5-2.3-.3-3.7-1.3-4.2-4-.4-2.4-1.4-4.8-1-7.4.1-1 .3-2.3-1.2-3a2.2 2.2 0 01-1-3 5.8 5.8 0 00-.7-6c-.6-.8-.5-2-.7-3.1 2-.5 1.6 1.5 2.8 2a3 3 0 002.8-3v-1.1c-.2-2.1-.6-4.2-.7-6.3-.1-1.9 2.1-3 1.2-5.4-.6-1.6 2-3 1-5.3-.7-1.3.4-3.3.5-5 .3-2 0-4 .5-5.8.9-3.6 2-7 3.1-10.6l.5-1c1.4-2.3 2.7-2.5 6-1.2l3.3-2.8c.5.3 1 .5 1 .7.6 1 1 2.2 1.4 3.2.7 1.8 1.7 2.6 3.5 2 1.5-.4 3-.4 4.5.1 3 .8 6.1 1 9.2.5 1.9-.3 3.8-.3 6-.5l-3.4-2.8c5.5-1 11-1.6 16.6-2 5.4-.3 10.8 0 16.1-1.6 2.4-.7 5-.4 7.6-.2 1 0 2 1 3 1.5 1-.6 2-1.6 3-1.6.9 0 1.9 1 2.3 1.2 3.7 0 7 .2 10.3 0 7.1-.3 14.4.2 21.5-1 1.5-.2 3-.2 4.6 0 1.5 0 1-1.3 1.4-2 .4 0 .8.1 1.1.3 2.6 2 5.2 2.3 8 .3 3.2-2.2 6.4-.7 9.3.6.9.3 1.2 1.1 2.3.4.8-.5 1.7-.8 2.7-.8 1.6.2 3.3 1 5 1 1.6 0 3.2-.6 5 .5a5 5 0 003.8.2c1.6-.7 3.4-.7 5-.2a27 27 0 0011.3 1.3c3-.3 6.1 0 9 .8.6 2.3-1.6 1.7-2.4 2.7.3.1.5.3.8.3 4.6.6 9.3 1 13.9 1.7 2.8.5 5.6 1 6.2 4.8.2 1.4 1.6 2.6 2.5 4-.5 1.2.1 3-1.6 4v-.2l-.7-1.4-.6 1.4v.3zm-131 22l-.1.2v-.4l.3-.2-.1.4zm30.5-18.9l1.7-.7c-.2-.1-.3-.3-.5-.3-.9-.1-1.4.2-1.1 1.2h-.3l.2-.2zm57.5-3l1-.5v-.7c-.2.1-.6.1-.8.3l-.1 1h-1.3l.2.2 1-.3zm-89 12.7l.5-.1c1.1-.1 2.4.2 2.8-1.3 0-.3-.1-.9-.3-1-1.8-.7-2.3.7-2.8 2v.5l-1.1-.3-1.2.7.2.4c.4 0 .7 0 1-.2l.8-.7zm1-8.5l1 1.2c.7.5 1.4 1.1 2 1 .7 0 1.5-.8 2.8-1.5-1.5-.8-2.4-1.6-3.4-1.7-.7 0-1.5.7-2.3 1.1l-.1-.1zm87.8 29.2l-1-.7.6 1.1-3.6.8c.9.6 1.4 1.3 2 1.3 2.1 0 4.8-1.3 7.4-3.7l-5.4 1.2zm-57.7-10.1c-2 0-4.2 0-6.2 1.3 1.2 1 2.1 2 3.2 2.6a4.2 4.2 0 004.4.7c.3-.2.3-1.1.5-2 2.3-2 6.9-2.4 7.3-7-4.5-3.6-6.8.6-9.8 2l.5 2.5.1-.1zm70 29.2c1.2-3-.7-4-1.1-5-6.5 3-13.4-.6-19.4 2.4-6.6-.3-13.1 0-19.7.2-6.5.1-13-.4-19.5.6 1.5.3 3 .5 4.5.5 7 0 14 0 21 .2 2.5 0 5 .8 7.5.8 7.1.2 14.3.2 21.5.3h5.2zm-150.7-53.2c6 1.1 11.5-.4 16.8-4.5-2.8-1.6-5.6-1-8.5-.8-2.5.3-5 .6-7 2.4-.7.6-.9 1.9-1.3 2.9zm142.4 29c4-1.7 7.4-2.1 9.2-4.8 1.4.1 2.9.6 4 .2a4.1 4.1 0 002.6-4.1c0-.5-.3-1.3-.6-1.5-.7-.3-1.5-.4-2.2-.1-2 1-4 2.1-5.9 3.5-2.2 1.8-5.3 2.5-7.1 6.8zm23.3-29a8.6 8.6 0 00-6.4-1.6c-1.6 1.6-3.6 2.8-4.7 5.1l9 2 2-5.5zM389 774.4c-1-2.1-1.5-2.7-2.4-2.6-2.2.2-4.3 1-5.9 2.6 3.4-.2 5.6 1.8 8.3 0zm-59-28.7c4 1.2 6.7-.4 9.6-1a2 2 0 00-2.6-2c-2.4.9-4.7 1.8-7 3zm28.5-.6c2.9-.1 6 .5 8.5-2-3.5-1.1-6 .4-8.5 2zm-94.7 36c1.9.4 3.1.2 3.3-1.7-2.5-1 .4-2.4-.3-3.7l-3.2 1 .2 4.5zm154.3-7.3c2.4.7 3.8-.5 5.4-1l-.5-3.2c-2.4.6-3.3 2.6-4.9 4.2zm-90.4-24.5c2.6.6 4.5 1 5.7-1.5-2.4-1.3-3.6.4-5.7 1.5zm90.8 33.5c-2 .4-2.7.4-3.2.8-.8.4-2 .5-2.1 2 1.8-.1 3.4 0 5.3-2.8zm8.4-33.7c1.2 1 2.4.8 4 .1-2.5-1.7-2.5-1.7-4 0zm-72.7 10.7c-1.3-1.7-2.3-1.3-4 .5l4-.5zm4.5 14.5c-.8-.7-1.2-1.1-1.6-1.2-1-.2-1.9.1-1.9 1.3 0 .4.7 1 1 1l2.5-1.1zm4.7-9.7c-.4-.5-.7-1.2-1-1.2-.4 0-1 .5-1.4.8l1.2 1.5 1.2-1.1zm-21.2-21h4.2c-2.3-2.1-2.3-2.1-4.2 0zM376 759l-.4-1-1.3.7c0 .3.2.6.3.8l1.4-.5zm-7.8 46c-.3-.3-.6-.7-.8-.7-.3 0-.6.5-.9.7.3.2.6.6.9.6.3 0 .5-.5.8-.7zm-10.8-12.9a6 6 0 00-.7.6l.3.5.7-.6-.3-.5zm-4.9 0c-.1 0-.3-.1-.4 0l-.3.3h.5l.3-.3zm62-2.2c0-.2 0-.4-.2-.5h-.5l.1.6.5-.1zm-14-17.4a5 5 0 00-.5-1c-.5 0-1 .2-1.4.4 0 .3.2.8.3.8.5 0 1 0 1.5-.2zm28.8-13.7l.6-1.3-.6-.6-.9 1.2.9.7zm-160-18c-.2 0-.4.2-.4.3l.3.9.4-.3-.3-1zm101.3 2l-.5.2.6.2-.1-.4zm-52.4 6.4v-.4h-.5l.1.6.4-.2zM424.5 727l-.8-.4-.4.3.9.4.3-.3zM327 764l-.5.1.1.4.5-.1-.1-.4zm-3 5.2v-.4h-.5v.5l.5-.1zm67.2.8v.4h.6l-.2-.6-.4.2zm18.2 2.5l-.4-.4-.9.3.4.4.9-.3zm-84.8 17.7l.4-.2-.4-.1v.3zm15.5 3l-1 .3c.2.1.3.4.4.3l1-.3-.4-.4zm4.1 7l-.4.3.3.4.6-.5-.5-.2zm28.5 5.2l.4-.2h-.8l.4.2zm-108-21.2l-.3-.4-.3.3.3.4.3-.3zm155.6-1.2l-.3-.3-.3.3.2.3.4-.3zm-41-8.1l-.4-.3v.4l.4-.1zM246 773.7l-.3-.4-.3.3.2.4.4-.3zm72-3.6l.2.2.1-.3h-.3zm11.6-2.4l.2.2v-.3l-.2.1zm-12.4-2.2l-.3-.2v.3l.3-.1zm59.7-9.3l-.3-.4-.4.3.3.4.4-.3zm-65.8-2.7l-.3.3.3.3.3-.3-.3-.4zm79.5-.6l.3-.4h-.4l.1.4zm-49-4l-.2.2h.3l-.1-.2zm133.5-92.6c-2.3-1-4.7-1.7-7.2-.4-1 .4-2 .4-2.8 0-.8-.3-1.7-1.4-1.6-2a2.8 2.8 0 00-1.6-3.3 10 10 0 01-4.8-6.3c-.8-2.7-2-5.2-3.7-7.4-1.6-2.2-3-4.5-4.4-6.8-2.6-4-4.5-8.6-5.6-13.3-.6-2.4-1.6-4.7-3-6.8-3.8-6-7.6-12.1-9.2-19.2-.3-1.2-.6-2.3-1.2-3.3a27.4 27.4 0 01-3.2-10.5c-.4-3-.4-6.2-.2-9.3l3.3.7c.9.1 2 .4 2.2 0 1.8-2 4.8-2.4 6-5 .8-1.6 1.7-3 3.8-3.1 1 0 1.8-.5 2.6-1a6.2 6.2 0 017.5-1c1 .4 2.2.4 3.3.1 3.6-.9 7-.6 10 1.6 2.2 1.7 4.8.9 7.5 1.5.2 1.5.5 3 1 4.5.4 1.4 1.4.6 2.4 0l.2 3.7c3.3.8 4.8 3 5.3 6.4.3 2.4.3 5.7 3.5 6.9-.4 3.4 4 5 3.3 8.6 1.7 2.6 3.2 5.3 5 7.8 2.7 4 5.7 7.8 8.6 11.7.4.6.7 1.3.9 2 .2 1.2-.3 2.6.2 3.4 1.6 2.4 3.4 4.6 5.6 6.5 1.5 1.2 2.7 2.6 3.8 4.3.4.8.5 1.8.3 2.7-.7 4.4-.7 4.4.5 7.7-1.2 2-3.3 2.6-5.3 3.3a25 25 0 00-9 5.7 8.7 8.7 0 01-6.2 2.8 16 16 0 01-3.4-.2 10.1 10.1 0 00-7.8 1.4c1 2.5-1.6 3-2.5 4.5l-1.8-2.7-2.4 4 .1-.2zm-27.9-77c.3 5.3 3.9 8.8 4.3 13.5 2.6-1 2-3 2.5-4.3l-6.8-9.2zm-4.4-6c.3.8.7 1.5 1.2 2.2.4.4 1 .7 1.7.9.2 0 .9-.9.8-1.3a2.6 2.6 0 00-1-1.7c-.6-.3-1.4-.1-2.7-.1zm66.8 56.2v1.6l.6.1.2-1c0-.2-.4-.4-.8-.7zm-52.6-29l.4.3v-.4l-.4.2zm-8.2-37.3l.2.1v-.2h-.2zm-74.2 32.1a21 21 0 012.3-1.7c1.6-.7 3.1-1.7 4.5-2.9 2.2-1.9 5.2-2.8 8-4.2l.7 1.8c-1.7.3-3.4.7-3.5 3 3.1.4 3.1.4 3.3-3.2 2.2.8 4.7-.6 6.8 1.7l.6-2.8-.2.2 6.9 2.8c.5.2 1.3.6 1.4 1 .7 4.8 6.3 6 7.6 10.4.8 2 1.6 4 2.6 5.8l2 4c.3.6.9 1 .8 1.6-.9 5.3 2.4 9.5 4 14.2 1.6 4.6 4.4 9 5.4 14 2.4 2 1.9 5.3 3.2 7.8 1.3 2.5 2.8 4.6 4 7a7 7 0 01-1.5 8.2 3 3 0 01-2.4 1.2c-2.5 0-3.7 2-4.1 3.8-.3 1.3-.7 2.2-1.8 2.6-4.2 1.8-8 4.4-13 4.4-1.2 0-2.5.7-3.8 1a35 35 0 01-5 1.1c-1.5 0-3 0-4.4-.2-1-1.1-.9-3.7-3.4-3.2-.7-2.6-4-4-3.9-6.4.3-5-2.7-8.3-4.7-12.2-2.3-4.7-4.8-9.2-7.7-13.6-3.2-4.6-5.2-9.8-8-14.6-2.6-4.7-5-9.5-7.5-14.3-.4-.9-.6-1.8-.8-2.7l-3.4-.3c1.5-2 3.1-3.6 2.2-6-.3-.6.5-2 1.2-2.5 2.7-2 5.6-4.1 8.5-6 1-.5 2.1-.8 3.3-1l.2.4-.4-.2zm56.5 66.7l-.2-.1h.3c0 .4-.4 1.3.6.7l-.7-.6zm-28.3-65.4c0-.5.2-1.2-.7-.6l.8.5a2.4 2.4 0 002.4 2.3l.6 2c.2.3.8.3 1.2.5l.4-.6-2.3-1.8c-.1-1.5-.6-2.6-2.4-2.3zm-21 14v-1.4c3.2-.3 3.7-.8 3.2-3l-1.6-4.2c-1 .6-2.2 1-2.5 1.6-.8 2-1.1 4 1 5.7l-.4.4.3.9c.3 2.3.5 4.7 3.1 5.8-1-1.9-.5-4.6-3.2-5.8zm6.5-6.8l1.3-1.2-1-1c-.1 0-.8.4-.8.6l.5 1.6zm37.2 60.9c-.3 0-.7 0-.9.3-.2.2.2.5.3.8.3 0 .6-.1.8-.3.2-.3-.1-.6-.2-.9zm-13-44.2c-.1 0-.2-.3-.4-.3l-.4.2c.1.1.2.3.4.3l.4-.2zm14.3 28.9l-.4.2.3.9.4-.3a6 6 0 00-.3-.8zm-42-38.7l-.3.3h.6l-.3-.3zm2.3-11.5l-.3.3.3.4.3-.4-.3-.3zM6.2 1010c1.5 1 2.2 2.1 1 3.6a1.5 1.5 0 01-1.5.1c-1.2-1.3-.7-2.5.5-3.8zm271-400.5c2.9-2.3 2.9-2.3 6.6-2l-6.6 2zM57 874.7c-2.8-1.3-2.8-1.3-1.6-4.6 1.7 1.3 1 3.2 1.4 4.7l.1-.1zm-34.7 70c.6 2-.4 2.8-1.9 3.8-.6-2.3-.3-3.5 2-3.8zm69.6-182.9c.5-1.5 1-3 1.7-4.4l.5.2-1.4 4.5-.8-.3z"/><path d="M342.9 722.5l-4.1.5c1.3-2 2.7-1.4 4-.5zm-36.7-108.2l.5 2.9-1.1-2.8.6-.1zm-91.8 372.9l-2.7-2.6c1.3-1.6 2.2-1 2.7 0 .3.8 0 1.8-.1 2.7l.1-.1zm-67.1-431.7c.8-2.1 1.8-1.7 3.3-.4l-3.3.4zM49.8 885.4l-1.1.7c-.2-.3-.7-.9-.6-1l1.2-.8.5 1zm-21.3 49.7c-.2 1.3.6 3-2.3 4.4l2.4-4.2-.1-.2zm-7.9-226.8h-2.5v-.3h2.5v.3zm116.9-138.9L136 572c-1.2-2.3.8-1.9 1.7-2.3l-.2-.2zM397.3 587a8 8 0 01-1.6-.3l-.2-.8.5.2 1.1 1 .2-.1zM240.8 781h.3l.1 1h-.6l.2-1zm40.5-170.4c1.9-.9 1.9-.9 3.5 0v-.1h-3.6zm-128.6-53.8c.2-1.6 1.3-.8 2.2-.4l-2.3.3zM380 1039.2h-2v-.5h2v.5zM269.5 1028l-.3-.5.1.4h.2zm-24.4-277.3l.5-.7-.1.4-.5.2.1.1z"/><path d="M245 750.6l-.3 1 .4-1h-.1zm-.2 5.8l-.4-.3.5-.2.4.3-.5.2zm-.2 7.4l-.2.3-.1-.3h.3zm-44.3 184.5l-.3.4v-.9l.3.5zm90.7-26l.4.1.1.5-.6-.1.2-.5zM45.3 895l-.6.6-.3-.2.8-.3.1-.2zM17.2 628.3l.4.2-.6.4-.2-.4.4-.2zM303.3 683c.8.4 1.3.8 0 1.2l.2.1v-1.5l-.2.1zm3.6-19.9l.3.8c0 .2-.2.3-.3.5h.2V663l-.2.1zM66.1 841.7l-.3.3.2-.1.1-.2zm-3.5 11.7l-.3.3.2-.2h.1zM475 656.5l.5-.2h-.4l-.1.2zM254.9 858.1l-.1-.3h.3l-.2.3zm20.4 3.8c.2.2.3.5.3.8l-.3.4.2.1v-1.4h-.2zm-.5 13.1l.2.4h-.4l.2-.4zM45.3 895zm-4.2 8.2l.1.4-.3-.1.2-.3zm2.9.8h-.2v.2l.2-.1zm47.8-129.8l.5.5-.3-.1v-.5l-.2.1zm103.6 151l.4.3-.4.3-.3-.3.3-.3zm95.2 4.5l1.2 1.2h-1.3.2v-1.3l-.1.1zm40.4 17.9l.2.4h-.3l.2-.4zM131.5 598.4v.5-.5zm193 351.1l.4-.1-.4.2zm-122.4 2.2h-.7s.2-.2.2 0l.4.1.1-.1zm-2.3 4.3h.3v.2l-.3-.2zm14.7 25l-.3.4h.4l-.2-.4h.1zm237.4 29.3c.7.4.7.9 0 1.3h.2v-1.4l-.2.1zm1.2-267.5l-.6-.8-.4.9-.2-.2h1.4l-.2.1zm-183.8 285.1l.3.2-.1-.2h-.2zm-201-320.3l.4.2-.2-.3-.2.1zm80.9 55.2l.3-1-.4.9h.1zm272.4 257.9l.1.2v-.4.2zM351 766.3l.6-.1h-.5zm32.1-160.4l-.1.3.5-.2-.3-.1z"/><path d="M383.2 605.9l-.2-.4.1.4h.1z"/></g><defs><clipPath id="clip0"><path fill="#fff" d="M0 0h518v1042H0z"/></clipPath></defs></svg>