<svg data-name="Layer 1" xmlns="http://www.w3.org/2000/svg" viewBox="0 0 1045.63 516.24"><path d="M971.49 343.47a15.37 15.37 0 01.86 3.9c-.13 2.87-.59 5.73-1 9.32l2.38 1.31c-1.6 3.39.34 7.26-2.46 10.33l1.24 1.36c-.07 3 .61 6.09.11 9.38s0 6.58-.08 9.88a8.7 8.7 0 01-1.16 3.8c-.73 1.46-.73 3.3-1 5 0 .2.51.47.79.71l-.13-.07a5.37 5.37 0 011 4.89 17.64 17.64 0 00.21 7.31 15.67 15.67 0 01-.23 7.78 23.49 23.49 0 00-3.13 1.65c-.54.37-.77 1.2-1.14 1.82l.13-.12-1.36 1.28.07-.13a15 15 0 00-3.48 0c-4.93 1.1-9.87.91-14.85.54-2.09-.16-4.22.32-6.31.19-2.29-.15-4.55-.67-6.41-1-4 .08-7.69.2-11.35.21-4.26 0-8.53-.24-12.78 0-3.08.15-6.13.87-9.2 1.33a18.1 18.1 0 01-9.59-1.08c-1.91.65-3.71 1.72-5.55 1.82-5.4.29-10.81.57-16.23.59-2.68 0-5.36.19-8.76.32-1.14-.14-3-.51-4.92-.61-4.85-.24-9.7-.38-14.55-.53-1 0-1.91.08-2.87.11-1.73.05-3.46.13-5.19.13-2.31 0-4.62-.13-6.93-.14a40.91 40.91 0 01-5.75 0 6.78 6.78 0 00-3.82.84c.44 1.42 1.22 2.69 1.13 3.9-.28 3.54.72 6.87 1.21 10.28.24 1.67.65 3.32.05 5.13-.44 1.37 0 3 .1 5.36a11.54 11.54 0 012.47 1.81 12.69 12.69 0 011.5 3c2.31-.05 2.31-.05 3.51 1.27l-2.81 1.41 3.14 2.51 5-2.07c2.29.79 3.9 3.1 6.59 2.75l-3.38 1.2c6.54 1.75 12.68 1.11 19 2.32a5 5 0 003.6-1.86l-.13.14 4.54-2c1.54.53 1 1.73 1.32 2.66 3 1 6.71-.82 9.15 1.57 10.74-2.87 21.36-2 31.94-2 1.43-.39 1.51-3 3.74-2.21l1.51 2 3.08-1 3.13 1.17.69-1.85c.29-.14.61-.31.94-.44 3.54-1.31 7.24-1.24 10.93-1.2a11.56 11.56 0 003.49-.18c5.27-1.65 10.68-1.57 16.1-1.53a6.58 6.58 0 002.84-.44 17.12 17.12 0 017.83-1.46l2-1.62 2.1 1.79c2.59.84 3.64-1.8 6-2.6l2.13 1.23c-.84 0-1.23.37-1.14 1.21-.31.11-.73.14-.88.36s0 .63 0 1h.46c.12-.48.23-1 .35-1.44l1.21-1.14 3.41-1.92 6.69-.66c.17-1.25.31-2.31.49-3.59l-4.36-1.56a11 11 0 011.78-6.54 7 7 0 00.62-6.23c2.23-4.05 4.08-8.29 3.33-13.21a6.62 6.62 0 012-.29 22.19 22.19 0 015.55 1.51c3.21 1.7 6.91 1.82 10.11 3.52a94.26 94.26 0 0017.16 6.9 76.1 76.1 0 009.48 2.41c1.91.32 1.89.42 4 2.76 2.78-.5 5.38-.78 7 2.52 1.2.3 2.66.61 4.09 1 .29.09.46.6.84 1.15l-.93 1.87-.08-.4.22.26v4.61c-1.76.63-1.93 1.87-1.32 3.41-1.07.26-1.55.74-.43 2.08.32-.71.55-1.25.78-1.78l1.53-1.64-.73-2.21h1.69c.45 3.45.38 3.44-1 6.44l-3.93.89a9.88 9.88 0 01-4.22 7.07c-.52 2.64-1.67 5-.69 7.27-2.18 3.86-3.85 7.8-6.39 11s-5.84 5.61-8.81 8.37l.14-.09-1.36 1.37.24-.22c-2.35.55-2.36.57-1.24 2.54l-.14-.13a1.79 1.79 0 01-2.32 1l.17.19c-1.56-1.3-1.85-1.17-2.51 1.23l.19-.21-.94.42.91 1-.16-.13c-1.23 1.4-2.55 2.6-4.62 2.28l.13.13c-2.09-1.62-3.46-.25-4.82 1.16l.08-.09-1.14 1.81-2.39-1.3-4.59 3.28-4.68-1-1.71 1.24c-.37 0-.85.26-1.09.1-1.48-.95-3.06-.52-4.55-.32-5.34.73-10.72 1.12-16.06 1.93a118.85 118.85 0 01-15.58 1.18 24.06 24.06 0 00-9.11 1.54 17.78 17.78 0 01-6.81 1.24c-5.63.1-11.27-.39-16.89.39-.22 0-.52-.44-.79-.68 2.09-1.08 2.09-1.08 4.57-1 1.56 0 3.11-.07 4.67-.12a12.63 12.63 0 005.65-1.84c-8.2-1.68-15.26.26-22.37 1 .19.26.34.71.57.75 1.31.25 2.63.38 3.95.59.08 0 .16.3.16.47a4.31 4.31 0 01-.25.86 36.63 36.63 0 00-4.23-.74c-1.74-.1-3.5.1-5.25.1-1.55 0-3.11-.11-4.66-.17-3.15-.1-6.24.09-8.82 2-5-2.31-6.16-2.12-7.4 1.41H875.1l-1.69-1.3c-.22.72-.43 1.43-.7 2.31-14.53 1.25-29.12.25-44 2.14-.29-.28-.84-.78-1.85-1.71-2.37 0-5.45-.64-8.08.17-3.24 1-6.09.21-9.23-.1-.18-.76-.33-1.44-.49-2.16-1.68-.83-3-.18-4.1 1.24l1.44 1.72a91.93 91.93 0 01-12.17.29c-5.77-.4-11.6 0-17.4.08-.51 0-1 .49-1.59.79-4.59-1.57-7.49-5.38-10.78-8.58-1.29-1.26-1.66-3.44-2.5-5.17q-4-8.08-8-16.17l1.43-4.58a10 10 0 00-2.35-.76c-.17-2.46-1.31-4.85-.49-7.41a2.42 2.42 0 000-1.16c-1.37-6.84-2.89-13.66-4.07-20.53-.78-4.53-2.53-9.12 0-13.43-.71-2-1.3-3.6-2-5.51a7 7 0 00.88-2.42c0-1.07.39-2.23-.58-3.31-.47-.53-.17-1.74-.21-2.48l-3.17-2.86-2.54 1.1a31.51 31.51 0 00-8.38-.19c-4 .39-8.06.19-12 1.08a6.4 6.4 0 01-1.75.05c-8.92-.59-17.82.48-26.73.39-3.18 0-6.21.33-8.7 1.75h-5.47c-2.72 0-5.45.23-8.16.08-1.47-.09-2.91-.77-5-1.36a27.25 27.25 0 00-4.13 1.86 33.73 33.73 0 00-4 3.48c.52 4.24-2.22 8.69-.41 13.62a17.79 17.79 0 00-1.63 2.76 13.24 13.24 0 00-.41 3.05c-4.65.79-8.83-1.58-13.09-1.27l-1.73-2.14-2.73 1.1c-1.91-2.33-5 .16-7.38-1.57-1.74-1.27-3.72-.6-5.34.78l.15-.15c-2.51-1.19-2.51-1.21-5.7-1.06l-1.42 1.78c-2.34.6-3.62-.45-4.86-1.79l-3.66 2h-5.2l-1.33-1.94c-2.56 1.93-5.24 3.19-7.92.46l-6 1.43c-1-1.86-1.41-3.45-.71-5.18l3.34-.31c0-.6.23-1.12.06-1.32-2.68-3.12-3.1-7-3.41-10.8-.4-4.91-.6-9.84-1.09-14.75a17.6 17.6 0 00-1.47-4.95c-1-2.42-1.5-4.72-.41-7.29a30.41 30.41 0 001.24-5.08l-1.52-3.18c.64-1.55 1.3-3.13 2.08-5l-2.21-2.33c.24-3.28.84-6.91.68-10.51s-1.16-6.85-.8-10.36l2.17-.27c.19-8.73-.56-17.39.38-26a7 7 0 00-1.74-5.24c.83-5.41 1.66-10.73 2.52-16.29-1-2.1-2.14-4.34-3.26-6.63l3.3-11.46-2.39-1.87v-9.81l3-3.12c-.23-4.65-2.1-9.52 1-13.62-.88-4.75 1-9 .63-13.52-.36-4.14 1.92-8.28 1-12.57l2.19-3.21-2.55-4.65c1.36-6.1-.36-12.94 3.69-19.28l7.6-2.07 1.66-2.53c4.16 3.21 8.89 2 13.34 2.22.54-.63.89-1.08 1.28-1.49s.58-.5 1.16-1l2.31 1.43 4.3-1.87 8.36.26c0 .47-.24 1.27.74.64l-.88-.51c.66-.3 1.36-.93 2-.85 4.19.55 8.38.5 12.58.64 3.81.13 7.66 0 11.46.38a10.15 10.15 0 012.93 1.26c2.13-.09 4.31-.55 6.34-.18a15.3 15.3 0 0010.11-1.3l3.6 2.55a14.29 14.29 0 013-1.14 10 10 0 013.45.14c5.35 1 5.35 1 9.59.11l1.39.9 1.93.49.08-.4h-2.16c1-1.28 2.37-1.1 4-1.08l4 4.72h3.2l2.94-2.84 9-.58c2.5-.05 2.72 3 5.13 4l6.12-2.57c4 .3 8.15-1.74 12.39-.19l1.18 2.1a10 10 0 007.16-2.66c1.55-.8 3.59 1 4.82-1l-.17.16 1.71-.22 1 2.12c3.05 1.08 6.24.22 9.38.18.78 0 1.54-.93 2.52-1.57 4-.12 8.33-.72 12.38 1.37.5.55.62 1.09-.06 1.6l.26.13h-.25v-1.92l3.62-1.38c2.77.36 5.53.89 7.75 3 .28.26 1.07 0 1.63-.08l-.15-.18 1.7 1.2 3.31-2.94 3.32-.66c-.32-.65-.49-1-.65-1.3 2-1.5 3.58.45 5.35.74a4.59 4.59 0 013.49 3.67c2.74 1.12 3.08-1.4 4.69-2.34L822 220a3.61 3.61 0 013.3-1.85l-.21 2.32c.72-.33 1.56.43 1.77-1l-1.75-1.18c2.26-2.53 4.93-1 7.32-.94 1.48 1.9-1.64 1.4-1 3 2.75 0 5.62.19 8.45-.05 2.58-.23 5.05-1.32 7.71-1 .2 0 7.85-1 8.19-1.09a28.94 28.94 0 004 1.88 22.2 22.2 0 004 .48c4.43.47 8.89.51 13.3 1.35a27.63 27.63 0 009.81.07 17.44 17.44 0 003.56-1.56 17.51 17.51 0 003.86-.06c2.32-.46 4.55-1 6.79.26a1.44 1.44 0 001.11.16c3.19-1.57 6.38 0 9.55 0s6.13.8 9.21.94a37.27 37.27 0 006.21-.58 28.1 28.1 0 017.49.3c4.39.6 8.86.61 13.3.78 2.71.1 5.43 0 8.05 0l2-1.29h10l2.74-1.86.77 1.31 2.15.39-.11-.1c1.45 6 .66 11.87-.21 18.26 2.83 5.37-.55 10.92-.53 15.67.49 5.11.89 9.29 1.27 13.29-.38 1.81-.63 3.53-1.12 5.19a44.72 44.72 0 01-1.69 4.22l3.15 2.27c1.43 2.77 1.41 5.46 1.17 8.28-.76 1-1.54 2.09-2.44 3.33 1.76 3.82 1.69 7.85.87 11.79a7.35 7.35 0 00.86 5.22c-.75 1-1.55 2-2.35 3.08-1.88 6.06-1.24 12.26-1 18.44.13 2.89.15 5.77.28 8.66.05 1.11.44 2.23.39 3.33 0 .65-.62 1.27-1 1.91l-.3-.49zm-58.65 150.77a1 1 0 001.15-1.18l.39-.27-.26.4a1 1 0 00-1.18 1.15c-.37.12-1.24-.12-.51.75.14-.28.27-.57.41-.85zm-44.38-23.53l.3-.17-.29.28-.31.12zm-171.84-93.19l-.16-.25.29.12.76.4zm160.11-74.8c-.52.1-1 .19-.29.06l.29-.14.36-.15zm-96.93 125l.13-.1.21 1.37 1.6-.83zM616 293.12c.83-.81 2.59-1 1.88-2.93l-1.83-.38v3.37l-.39.13zm253.55 10.64l-2.82-1.28c1 1.34 1 1.34 2.66 1.1h4.89c-2.47-1.19-3.69-1.11-4.77.18zm-44.3-38.66l2.28-2.1-2.56.35c.19.82.31 1.37.43 1.92l-3.66.25c1.7.74 2.71.63 3.51-.42zm55.86 40c1.24.09 2.59.71 3.55-.75-.75-.88-1.53-.68-2.33-.09l-1.35 1c-.26-.47-.52-.94-.88-1.61l-3.35.49 2.81 1.69zM811 251.19a11.06 11.06 0 001.35.73c.13.05.39-.24.89-.57h-2.39l1.81-2c-.83-1.21-1.71-2.14-3.26-1.45-.75 1.76.87 2.31 1.6 3.29zm41 252.59l-2.77-1.78a4.67 4.67 0 00-1.47 5l4.1-3.37c.48-.72 2.26-.18 1.93-2.13zm24.55-272.62l.26.26-.36-.2c-.49-1.47-1.08-2.86-3.08-3.56l-2.63.64 1.08 2.86zm24.85 43.5l-1.4 1.17c.2 3.45-1.62 6.79-1.05 10.62l1.83-.7c.41-3 .87-6 1.17-9.05a5.8 5.8 0 00-.69-2.15 1.46 1.46 0 00.54-2.38c-.2-.28-.89-.21-2.13-.46zm-48.13 233.47c3 .3 6 .51 9-1.53-1.49-1.16-2.58-2.76-4.88-2.82l-4.05 4.45-.33.11zM956.11 500l-.13.13c.61-1.86 2.26-3.32 2.49-6-3 .93-4.77 2.93-7 4v1.85l-5.09 1.22a8.61 8.61 0 01-6.14-4.1l-1.2 3.57c-2.65-.3-5.34-.59-7.62 1.73.55.43 1 1 1.33 1 .73 0 1.57-.76 2.13-.56 3.51 1.28 6.83-.06 10.23-.39a10 10 0 006.22-2.61c1.55 1.16 3.16.96 4.78.16zm-124.9-271.28l-1.07-.57.6 1.06.79 1.59 8.91 1.08c.43-2-1.37-1.67-1.92-2.29.14-.8.25-1.48.34-2-1.34-.93-2-.26-2.71.45l-.27 2.09zm-212.92 47l-2.07.23c-.27 1.75-.48 3.14-.71 4.66l-1.61-1.1c-1.59 1.17-1.17 2.31-.12 3.45l2.88.83c-.33 1.43-1.22 2.85.49 3.85.35-.33 1.07-.69 1.08-1.06v-10.95l.36-.91c-.13.38-.21.71-.3 1.05zm311.05 226.8c.57-1.48.57-1.48.21-4.47-2.16.94-3.54 3.47-6.26 3.16v-2.16c-1.93-.71-2.92.46-4 1.72 2.24 1.12 3.55 3.6 6.86 3.91l3.33-2.29zm-29.19-263.27v2.54c1.57-1.37.49-1.84-.14-2.41 1.18-1.53-1-2.28-.86-3.47l3.22-3.32.34-.57c.1-.29-.07.21-.23.72l-2.07-2.74-2.68.81c-.32 1.61-.61 3.09-.93 4.67-.93.26-2.06.49-3.12.9-.69.28-1.32.8-1 1.66.74 1.15 1.75.43 2.62.57 1.09.19 2.12.74 3.22 1a4.62 4.62 0 001.63-.36zm118 216.52l-1.34 1c-1.69.15-2.43 1.62-3.54 2.57 0-.35.06-.69.08-1l-.87-.06c0 .18-.1.47 0 .52a7.05 7.05 0 001 .45c-.27 1.43-.53 2.87-.82 4.44 1.8-.7 7.49-5.12 9.5-7.43a5.8 5.8 0 00.74-1.95l-2.31-1.38a15.52 15.52 0 011-2.08 7.08 7.08 0 011.25-1.12c.25.68.49 1.36 1 2.83l1.59-1.63-2.79-1c-1-1.61-2.44-1.44-4.07-1.06.28 1 .52 1.88.76 2.78-.45 1.35-1.94 2.41-1.16 4.12zM957.12 272c-.38.53-.81 1-1.14 1.59-.45.74-.83 1.52-1.24 2.27.43-1.37 1-2.75-.35-4.1-1.66 1-2.08 2.14-1.15 3.77l1.68.17v10.34c-2.12 1.43-.77 4-1.75 5.82a3.24 3.24 0 00-.12 1.1l1.56 2.23-1.43 1.34c.57 1.46.43 3.46 3.14 3.85 0-4.05 1.26-7.65 1.18-11.54-.09-4.79.53-9.59.75-14.4a6.36 6.36 0 00-.75-2.12c.91-.55 1.16-1.22.09-2.36-.19.85-.33 1.45-.47 2.04zm-75.9 100.76l-.14-.11c1.87 2.08 3.91.55 6.2.22 1.58 1.42 3.64 1.37 5.58.91l3.81-3.54c-.27.87-.16 1.58 1 1.45.29 0 .52-.62 1-1.27h-2.16c-.35-3.05 1-9.37 2.67-13a4.09 4.09 0 00.14-1.19c-.5-1.36-1-2.79-1.46-4l1.14-2.92-2.4-2.48a15.6 15.6 0 00-2 .38 10.79 10.79 0 00-1.49.63l-18.1-.75-3.29 2.42h-19.77a29.47 29.47 0 01-4-.55 21.46 21.46 0 00-3.44-.5c-6.79.08-13.59.35-20.38.34-5.15 0-10.39 1.62-15.56-1a11 11 0 00-1.13 2.94 13.58 13.58 0 001.2 6.8 20.63 20.63 0 011.86 4.87c.57 3 .8 6.07 1.14 8.94l-3 3.08 7.76 3c5.26-1.07 10.12-3.43 15.47-2 1.62-.69 3-.07 4.34.79l2.27-1.82 5 1.5 1.16-1.35 18.74-1.6 2.61 1.47v2c0 .14.26.26.41.39 2.63-.48 5.25-1 6.58-3.9l2.47 1.73a10.32 10.32 0 005.77-1.87zm-217.43-99.51c.23.52.67 1.05.64 1.56-.21 3.32-1.65 6.27-3.11 9.34a26.61 26.61 0 01.21 14.7 1 1 0 000 .58c.33 1 .69 2.06 1.08 3.18 3.61-.42 6.85-1 10.11-1.13 6-.29 12-1.33 18 0a9.61 9.61 0 005.16-.29c2.15-.81 4.2-.28 6.29-.35 1.29 0 2.85.74 3.83.25 2.09-1.06 4.2-.13 6.29-.6s4.62 0 6.94 0c5.4-.12 10.85.5 16-.8 1.34-2.67 2.52-5 3.87-7.75-1.33-4.51-2.92-9.4.51-14-1.4-1.8-.61-3.39.06-4.8-1.48-2.22-3.71-3.29-5.83-4.51 1.23-.11 2.67.74 3.66-.9-.19-.43-.4-.92-.71-1.65l-2.42.77c-.15.86-.25 1.42-.35 2-.56-.14-1.27-.57-1.66-.37-2.63 1.36-5.51 1.56-7.33 1.91a41.21 41.21 0 00-4.9-.68c-4.64 0-9.28.26-13.92.25-3.69 0-7.38-.24-11.06-.45a8.82 8.82 0 01-2.2-.75c-.75-1.13-1.47-2.22-2.18-3.32l-1.7.32-.16 2.73c-2.64 0-5.21.36-7.64 0a63.64 63.64 0 00-17.28-.19l-1.44 3.05 1.37 2.14-.25.26zm189.6-4.57h.12l-3.58-2.53c-5.72.25-11.13-.86-16.52.26-1.46-1.71-3.14-1.14-4.85-.74.08.83.14 1.37.19 1.91a26.15 26.15 0 00-7.94.46c-2.77-1.49-5.75-.16-8.61-.61a7.52 7.52 0 00-2.8.56c-1.12 5.76-2.14 11.05-3.13 16.15l2.38 3c.35 1.69.7 3.37 1.11 5.32-.79 2.33-1.68 4.84-2.46 7.38a6.22 6.22 0 000 1.92c2.67.93 2.46-1.21 3.37-2.51 4.13.34 8.29-.3 11.23-2.09 5.88.6 10.87 1.37 15.88 1.57 8.52.34 17 .25 25.58.5 3.09.09 6.16.91 9.23.87a69.93 69.93 0 008.8-1.13l2.62 1.91 4.51-.73 3 1.76a12.48 12.48 0 002.88-7.1c.63-4.6.84-9.32 2-13.78a20.58 20.58 0 00.76-9.06c-1.23-.19-2.63-.76-3.85-.51a10.44 10.44 0 01-5.68-.31 11.58 11.58 0 00-3.45-.26c-2.55 0-5-.41-6.55-1.47h-7l-2.77 1.35h-5.76c-2.49-1.99-5.58-2.13-8.71-2.09zM657 362c.17 2.27.3 4 .43 5.7-1.93 1.84 1.06 2.91.74 4.72-.27 1.52.64 3.25 1.07 5 7 .12 13.65.43 20.31-.89l-7.37-.59a11.46 11.46 0 014.5-.71h24.48c4.66 0 9.35-.35 14 .06 4.81.44 9.55-.17 14.32-.17a21.58 21.58 0 003.6-.66c-.36-4.11-.8-7.94-1-11.79S732 355 731.93 351a12.41 12.41 0 00-2.49-.66c-3.29-.06-6.59 0-9.88 0-5.61-.1-11.25.75-16.81-.94a8.5 8.5 0 00-4.61 0c-4.56 1.32-9.18 1.13-13.82 1.14-3.15 0-6.19-.18-9-2.17l-5.51 2.9c-.91-.29-1.74-.51-2.54-.82a11.86 11.86 0 01-2-.94c-.79-.49-1.53-1.08-2.44-1.74l-4.61 1.68c.63 2.29 1.17 4.27 1.78 6.53-.89 1.78-1.92 3.87-3 6.02zm1.54-145.16v-.86c-2.69.23-5.38.54-8.07.67-6.17.3-12.26 1.68-18.49 1-2.45-.25-4.91.09-6.87 2.71 1.71-.16 3.08-.6 4.3-.35 7.94 1.63 15.82.61 23.71-.26a17.6 17.6 0 012.9-.12c4.61.26 9.22.53 13.82.88 2.12.16 4.23.82 6.32.74 5.13-.2 10.25-.69 16.75-1.16-3.08-.21-4.9 0-6.5-.51-4-1.24-8-1.12-12.07-1.51-2.11-.2-4.31-.71-6.33-.32-3.69.7-7.33.29-11.68.51zM695.14 346a30.73 30.73 0 004.94.43c1.47-.1 2.89-.79 4.37-1a28.33 28.33 0 016.86-.33c6.35.87 12.71.48 19.06.61.49 0 1-.39 1.52-.61-.09-.88-.16-1.62-.24-2.51-6.12 0-12.12-.18-18.11.07a77.6 77.6 0 01-10.89.11c-2.67-.26-5.22.6-7.95 1 .17.94.3 1.47.44 2.23zm-.36 38.13a2.76 2.76 0 00.67.24c4.07 0 8.14.07 12.21 0s8.17.12 12.14-.54 8 1.52 12.29.1c-.13-.8-.27-1.64-.37-2.29-4.55.09-8.78.15-13 .25-4.07.09-8.15.08-12.21.34s-8.39-.52-12.77.34zm-84.13-68.81c1.64-5-.29-10.29 2.27-14.66-1.18-3.05-2.29-5.92-3.4-8.82-.52.91-1.07 1.88-1.72 3.05 1.75 2.32-.2 5 .79 7.73.9 2.44.7 5.28 1.07 8.72-.13.5-.45 1.79-.8 3.16zm246.29-3.58c5.17.14 9.93 1.55 14.94 1.45s9.68 1.74 15.11 1c-.75-.67-1.11-1.25-1.53-1.3a65 65 0 00-7.37-.62 41.45 41.45 0 01-7.36-1 42.34 42.34 0 00-13.25-.3c-.1.03-.18.26-.54.8zm-178.79-46.68c-5.23-2.3-10.24-2.15-16-.36 4.66.54 8.5 1.11 12.36 1.37 1.15.08 2.41-.65 3.64-1.01zm142.42 130.45a12.63 12.63 0 012.27-.24c3 .26 6 .62 9 .89.71.06 1.53.07 1.69-1.27-4-2.51-8.36-2.33-13-2-.04 1.02-.01 1.74.04 2.62zm141.09-162.65c-1.48-1.32-1.39-3.76-3.48-4.86-1.47 3.39-1 6.53-.52 9.84l2.36.88c.58-2.08 1.08-3.87 1.64-5.86zM825.54 343.68a18.39 18.39 0 00-2.19-.33c-3.26-.07-6.47.17-9.76-.6-2-.47-4.41-1-6.58 0 .1.44.09.76.2.8a5.38 5.38 0 002.1.75c5.37-.23 10.74.98 16.23-.62zm-48 162c2.52.61 4.57.84 6.52.19.69-.93 1.39-1.66.59-3-2.2 2.22-4.93-2.52-7.29.78zM592.91 361.72c-.12 3.09-.36 6.17-.35 9.25s-1 6.44.7 10.59c1.43-7.31-.48-13.56-.35-19.84zm273.56-18.61a21.41 21.41 0 0010.32 1.08c-3.21-1.8-4.93-2.02-10.32-1.08zM596 277.56c-.51-1.63-1-2.87-1.27-4.16a30.29 30.29 0 01-.31-3.45c0 4.47-1.55 8.95 0 13.8zm357.09 87.54c-2 .32-1.56 2-2 3.11-.48 1.33-1 2.66-1.38 3.66 1.41-.92 3-1.91 4.46-3 .25-.18.32-.64.6-1.23zm-67.24-133h9.24c.22 0 .44-.49.94-1.1a20.26 20.26 0 01-3.57.22 32.91 32.91 0 01-4-1zm-140-5.5h5.43c.28 0 .56-.39 1-.75-2.17-2.53-4.58-1.82-7.15-1 .27.54.39.89.7 1.71zm205.26 99.77c1.47 1.35 2.36 2.48 4.25 1.32a36.21 36.21 0 00-.05-3.72c0-.44-.62-.83-1.17-1.5zm-340-59.76c-1.42 2.7-1.07 5.35-.7 8.73l1.93-1.9c-.49-2.44-.88-4.67-1.28-6.87zm69.59 79l.15-.41a62.3 62.3 0 00-6.2-1.08c-.77-.06-2.3-.19-2.15 1.49zm28.48 32c2.62 1 5.25 1.34 7.82 0zm247.3-125.23l-1 1.89c1.36.42 1.7 2.51 4 1.56-.14-1.17-.29-2.36-.45-3.65zM953 345.44c1.27-4 1.25-5.88.17-10a26 26 0 00-.17 10zm-218.4-41.06c1.86-.09 2.76-.61 2.77-2.1-.85-.87-1.67-.69-2.57.15-.05.46-.11 1-.2 1.95zm4.23-79.38c1.44 2 1.44 2 4.53.72l-.73-1.64zm79.84 280.45c-1 2.31-.62 3 1.87 3.27zm34.72-274.87c-.56 1.21-.29 1.95.71 2.34s1.78.34 1.92-1.23zm-21.48 276.9c-1.47-.22-2.64-.05-3.15 1.79h3.8zm95.74-270.83c-.11-1.79 1.73-3.06 1.36-5.17l-1.87.19c-.37 1.75-.86 3.33.51 4.98zm4.4-4.88c2.07 1.16 2.76 1.16 4.11 0-1.35-1.19-2.68-1.06-4.11 0zm-94.14 278.37c2.17-.41 3.6-.46 4.92-1.28-1.83-.7-2.83-.55-4.92 1.28zm117.45-201.76c1.15-1.8.63-3.63 0-5.45zm-41.21 193.17a6 6 0 00-1.66-.46c-.22 0-.64.7-.58.78.3.37.71.86 1.11.88s.61-.62 1.13-1.2zM818.7 393.9c-1.39.05-2.53-.86-3.57.51 1.78 1.28 1.78 1.28 3.57-.51zm8.77-48.12c2.07-.18 3.06-.63 3.42-2-1.33-.15-2.55-.12-3.42 2zM637.25 303a9.92 9.92 0 00-.31 2.17 4.39 4.39 0 00.66 1.29c1.27-1.55 1.27-1.55-.35-3.46zm316.48 11.86c1.93-1.27 1.93-1.27.47-3.62-.2 1.45-.33 2.51-.47 3.57zM898 300.15l2.18-.8-1.65-2.6-.75.25.22 3.15zm-267-19.77c-1.69 1.4-1.64 2.54-.65 3.83 1.31-.88 1.23-2.06.65-3.83zm322.52 68.75l-.57-.05a9.47 9.47 0 00-.29 1.81 14.84 14.84 0 00.86 2.6zm-57.25 121.94l.14-.87h-3.18zm-75.21-210.58c1 .83 1.85 1.14 2.43-.62zm23.09 205.87c.43.93 1 1.76 2.26.6zM893 305.82c-3.09-.91-3.09-.91-4.06 0zm80.31 160.63l1.11.85a8.76 8.76 0 00.78-1.44 6.85 6.85 0 00.16-1.45c-.31.14-.71.21-.91.44a15 15 0 00-1.13 1.6zM592.75 431.1c-.23-1-.42-1.78-.7-3l-2 3zm197.72-1.54c1.68-1.27 1.68-2.17.26-3.12l-1.26.58c.29.73.58 1.49 1 2.54zM900 290.8c-2.27 2.43-2.27 2.43 0 4.22zm67.74 169.84l-.59-.63-.74.73c.21.19.48.57.62.52s.51-.4.75-.62zM597.3 220.9a3.09 3.09 0 00.42.21c.18-.27.34-.57.5-.86-.15-.07-.41-.23-.42-.22-.19.28-.34.58-.5.87zm131.4 30.6a4.39 4.39 0 00-.5.82c0 .09.27.42.32.4a6.36 6.36 0 00.78-.49zM890.35 315l3.07 1.43c-.1-1.97-.84-2.33-3.07-1.43zm-124.8-47.82a7.53 7.53 0 00-.73.65l.29.43a9.4 9.4 0 00.74-.66s-.19-.27-.3-.42zm-62.66.15v-.67H700v.51zM762.76 226l.84-.4-.18-.34-.84.5zM591.85 408.41h.22v-1.61h-.22zm.77-118.78c2.29-.73 2.33-1.45 1.51-2.66zM881.68 233c-1.18-.69-2-1.06-2.55.14.68.92 1.4 1.13 2.55-.14zM592.44 396.23c-.38.32-.85.65-.82.71a4.31 4.31 0 00.86 1.09s.73-.46.7-.55a7.07 7.07 0 00-.74-1.25zm109.75-163.17c.33-.15.81-.21.93-.46s-.2-.62-.32-.94c-.33.14-.81.2-.94.45s.21.62.33.95zm143.3-5.22H845a2.83 2.83 0 00.35.67c.08.08.34 0 .51 0zm112.17 34.48a5.29 5.29 0 001-1.31c.08-.21-.38-.86-.46-.83-.46.13-1.05.31-1.24.66s.36.79.7 1.48zM739 239.61v.89l2.66-.26c0-.26 0-.51-.07-.77zm-141 6.52c-.57-.82-1.21-.84-1.75-.07a1 1 0 00.26 1c.95.47 1.37-.06 1.49-.93zm35.27-15.52c-.14-.32-.19-.76-.43-.92s-.6.12-.91.2c.16.39.32.77.49 1.15zm96.9 73.63l.7.13v-.05zm297.48 132.47l-.78.56a2.49 2.49 0 00.32.41 8.52 8.52 0 00.8-.53zm-30.85 1.45l-.27.4 1.1.76c.09-.15.27-.42.26-.43-.32-.26-.69-.49-1.06-.73zm-266-173a5.71 5.71 0 00.9.51c.06 0 .37-.3.34-.38a4.71 4.71 0 00-.48-.8zm84.1 114.09l.53-.1-.42-.11zm2.19-113.73v.34l1.32.08v-.32zm-32.71 242.2c-.83.25-.41.13 0 0zm153.48-1c-.2-.23-.39-.64-.56-.63s-.55.3-.83.46c.11.15.23.42.33.42a7 7 0 001.07-.21zm-67.46-3.94c-.24.18-.63.32-.69.55s.14.63.23.95a6.41 6.41 0 001-.81c.06-.01-.35-.41-.53-.65zm75-121.47v-.36l-.32.08zM718.14 267.87c0-.17.16-.37.1-.49s-.28-.19-.44-.27c0 .16-.11.35-.06.47s.26.2.4.29zm10 .35V268H727v.22zm224.89-29l-.17-.44a6.37 6.37 0 00-.85.36 2.81 2.81 0 00.16.46zM812 395.62a6.72 6.72 0 00.88-.47s-.08-.29-.13-.45c-.3.17-.61.33-.9.52-.07.02.05.26.15.4zM692.73 344c-.3-.17-.75-.53-.87-.45a4.27 4.27 0 00-.79 1c.35.09.74.32 1 .22s.45-.48.66-.77zm176.91-111.07zm96 184.17l-.74-.12c0 .17.07.33.11.5zm-356.36-96h.39c0-.33-.07-.66-.1-1h-.29zm356.87-93.29a7.12 7.12 0 00.81.64s.23-.2.35-.31c-.28-.23-.56-.47-.86-.68a4.07 4.07 0 00-.33.39zM787.3 427.1l-.47-.09c-.09.42-.18.85-.28 1.28.18 0 .5.06.51 0 .11-.38.17-.79.24-1.19zm91.08 38.31l-.48.26c.16.08.32.23.48.23s.32-.15.48-.23zm-37-152.52l-.13-.23-.18.3zM626 288.43c-.13.1-.32.17-.37.3a1.55 1.55 0 000 .57 2.92 2.92 0 00.61-.4s-.14-.31-.24-.47zm53.1 18v.39l1-.09v-.3zm-66.38-12.93l.54-.1c-.06-.42-.12-.84-.33-2.36-.11 1.58-.15 2.03-.19 2.48zm235.87 9.7l-.92.08zm-218.4-88l-.38.17.38.16zm158.46 216.92l-.27-.39c-.11.12-.33.29-.31.34a2.79 2.79 0 00.42.49zM930 291l-.14-.4c-.08.11-.22.21-.23.33s.07.26.12.39zm-212.78-67.39l.32.19.06-.27zm5.91.24l.42-.18-.41-.17zm36.12 2.36v-.47h-1.28a2.06 2.06 0 000 .35c.42.06.85.09 1.28.12zm74.4.87a1.49 1.49 0 00-.4-.11l-.15.27a1.35 1.35 0 00.41.12s.1-.18.14-.28zm19 86.47l-.42-.15-.09.57a1.29 1.29 0 00.45-.08c.06-.03.03-.22.05-.34zm77.62-85.15c-.11-.16-.24-.47-.31-.45a7.09 7.09 0 00-1 .35c.11.15.25.45.34.43a4.91 4.91 0 00.96-.33zm23.15 48.83l-.47.07c.06.4.13.81.2 1.21.12 0 .35-.08.35-.12-.02-.39-.06-.77-.09-1.16zm-222.16-45.44l.31.19.06-.27zM592.39 403.47c-.11-.15-.2-.38-.33-.41s-.28.18-.42.29c.17.19.35.38.53.56.07-.14.14-.29.22-.44zm361.67-170.64l-.44-.15-.07.59a2.21 2.21 0 00.46-.11c.06-.04-.01-.22.05-.33zM684.75 345.38v-.33l-.42.11zm50.45-105.31c-.08-.13-.13-.33-.25-.37a1.25 1.25 0 00-.5 0l.33.63zM587.56 388.3c-.11-.13-.2-.35-.34-.38s-.29.13-.44.21l.55.62zm372-140.1c-.15-.3-.3-.59-.44-.89-.13.12-.39.27-.37.35a7.61 7.61 0 00.39.88zm-23.2 250.36l.37-.15-.36-.15zm-216-246.79c-.11-.09-.21-.22-.33-.24s-.27.08-.4.13zm-111.07 2.32l-.15.41.57.09a1.49 1.49 0 00-.08-.43c-.04-.07-.22-.05-.34-.07zm-14.84 7.73l-.1-.41-.19.53zm213.84 104.66l-.19.32.27.06zM823.59 508l.45-.18c-.11-.11-.22-.29-.35-.32s-.29.11-.43.18zm-97.88-242.4l-.37.15.37.13zm67.2 244.3v.38h1.28v-.38zM594.57 265.12c-.14-.28-.27-.57-.4-.85-.14.11-.42.26-.4.33a5 5 0 00.41.88zm87.35-.86l-.23.4h.41zm-88.74-8.11l-.21.29.32.05zm25.63 12.92l-.21.29.32.05zm319.11-36.95l.21-.3h-.33zm-110.76-1.42l-.28-.2v.3zm72.22 71.5l.2-.27-.3-.05zm12.91 14.8l-.21.29h.32zm42.15-.22l-.44.39c.14.15.26.39.4.4s.29-.23.43-.36zm-147.57 45.93l.29.21.05-.32zm155.72 96.84l-.2.3h.32zm-74.47 10.88l-.3-.35c-.12.1-.33.19-.34.3s.18.24.28.36zM915 490.3c-.1-.12-.18-.32-.29-.34s-.24.17-.36.26c.09.12.18.33.29.34s.24-.17.36-.26zM539.69 194.94l-3.82-3.46c-.52-3.35-.87-6.8.07-10.27A3.51 3.51 0 00536 179a3.78 3.78 0 01.24-3.83c.34-.64.63-1.76.31-2.22-1.58-2.24.36-4.48-.24-6.72s-.78-4.58-1.17-7c2.13-4.29 1.15-9 1.24-13.64 0-1.92-.54-3.9 1.26-6 1.08-.13 2.57-.37 4.06-.47s2.72 0 3.87 0l2.79 2.14c5-.26 9.74-.54 14.55-.39 4 .13 8.08-.75 12.18-.71 4.62 0 9.22-.62 13.88-.36 2.87.16 5.79-.5 8.69-.59a136.67 136.67 0 0118.54.6 24.16 24.16 0 003.47-.26c7-.25 14-.56 21-.66a16.33 16.33 0 005.73-.67 11.06 11.06 0 012.86-.3l3.42 2.76 4.65-2.06c-.33-1-.56-1.73-.82-2.53l1.74-4.49-3.34-6.84a19 19 0 001-2.4 15.18 15.18 0 00.22-2.53 24 24 0 01-5.37-10.66 16.5 16.5 0 01-.57-3.37c.09-5.92-2.67-10.74-5.68-15.75-1.16-.1-2.61-.7-3.35-.21-3.27 2.14-6.77 1.22-10.29 1.33l-2.9-1.89c-1.39.45-3.14-.06-4.12 1.57-.86 1.44-2.13 1.43-3.53.86l1.42-1.72c-2.88-2.37-4.74.11-6.16.83l-12.65-.22a33.77 33.77 0 01-4.61 0A26.56 26.56 0 00582 92.81a5.45 5.45 0 01-2.47.28l-10.33-3.44c.36-1.67.67-3.13 1-4.72-.88-2-1.78-4.11-2.73-6.28.8-.91 3.17.06 3.22-2.54l-4.24-1.24c-.78-1.4.45-2.07 1.13-3l-.89-1.52 2.42-1.57-2.65-.14v-7.55l1.46-2c-2.79-5-2.2-10.38-2.81-15.46l1.71-1.82-.12.11 2.67-1 2.45 3.13 1.42-1.89c3 0 5.93-2.37 9.35-.67 2.92-3.23 6.83-2.07 10.28-3 .15.82.24 1.34.4 2.21l10.8 1 .41.29-.57-.14c.44-.33.85-.91 1.31-1 3.27-.39 6.55-.68 9.82-1a2.47 2.47 0 011.14 0c3.52 1.55 7.24.74 10.87 1a30.62 30.62 0 014.31 1c4.17-2.33 9-1.93 13.77-1.19l-.09-.07h1.41l-.15.15a15.46 15.46 0 002.74-.68c2-.84 3.84-1.8 5.2-2.45 4.47.23 8.31.64 12.14.56 3.19-.06 6.12.24 8.74 2.72l3-2.31c4.3-1.24 8.95-.06 13.92-.24-.34.65-.56 1.07-.81 1.52.15.2.35.69.58.71a65.39 65.39 0 0012.59 0l1.33-3.44 3 .28c.73 1.5 1.38 2.86 2.18 4.5l3.29-1.38c-.3-1-.56-1.76-.8-2.54.41-.3.7-.69 1-.71 2.9-.14 5.81-.29 8.72-.31 3.46 0 6.91.09 10.47.15 1.72-4.12.12-8.73 2.73-12.34-.22-.32-.7-.73-.62-.95 1.33-3.79.59-8 2-12.76-.11-.44-.46-1.91-.87-3.57l3.83-1.37-1.7-.92c.1-.31.11-.8.31-.89 1-.48 2.21-1.3 3.23-1.19 2.83.32 5.35-.77 8-1.27 2.1-.4 4-.91 6.28-.45 1.77.37 3.77-.36 5.66-.64a38.77 38.77 0 015.07-.82c7-.09 14 0 21.37 0l2.63 2.08c3.87 0 7.93.87 11.91-.64.42-.16 1.07.28 1.6.49.14.06.2.3.39.59l-2.28 1c.05.42.08.77.14 1.35l2.45-.15L807 6.91l1.72-.23.28.32 2.62.47a17.78 17.78 0 012.66 9.43c-.05 2.71.45 5.45.25 8.14a34.38 34.38 0 001.48 12.46c1.79.11 3.72.58 5.52.29 8.08-1.33 16.34.54 24.65-1.29 1.23.21 2.79.84 4.24.65 2.32-.29 4.69 0 6.92-.33 6.57-1.12 13.19-.44 19.78-1 6.77-.55 13.59-.6 20.38-.86a12.81 12.81 0 011.75 0c3.1.32 6.16.36 8.9-1.12l1.9 2.07 3.41-2c3.87.57 8.43 1.41 13 1.89 4.41.46 8.85.31 13.25 1.29s9.09-.58 13.58.65l-2.59-2.2c1.55.27 2.53.51 3.52.6s1.94 0 3.08 0c.15.51.29 1 .53 1.85l2.47.22 2.39-2.06a13.58 13.58 0 012.41 1.27c1.78 1.42 3.33 3 5.9 1.29a4.14 4.14 0 013.33-.19c4 1.63 8.3 1.7 12.75 2.6a17.08 17.08 0 01-1.08 11.5l1.66 5.31c-1.25 2.64-.42 5.5.2 8.32.72 3.23 1.38 6.39-.17 9.58-.17.33.28.93.37 1.42a28.52 28.52 0 01.52 8.22l-3.27 1.46c-.24.56-.54 1.26-.83 1.92l-4.55 3-12 2.19a32.85 32.85 0 00-9.24-.56c-3.45.25-6.95-.25-10.43-.44-5.59-.31-11.17-.7-16.75-.9a26.77 26.77 0 00-4.74.59c-8.41 9.61-13.33 20.91-20.23 30.41v3.55l-3.76 5.31a11.39 11.39 0 002 1.08c1.63.5 3.29.88 5 1.31v2.68c.44.08 1.12.42 1.43.22 2.65-1.8 5.67-3.3 7.8-2.81 3.52.82 6.91-.07 10.36-.1 5.85 0 11.69-.12 17.53.07 6.22.21 12.42.73 18.63 1 2.33.12 4.68-.06 7 .06 2.9.15 5.79.48 8.69.72 4.83.41 9.68.79 14.51 1.22 5.79.51 11.58 1.08 17.62 1.64 1.22 4 3.63 7.17 6.15 10.15a5.33 5.33 0 00.44 3.72c.58 1 .12 2.6.12 3.91l-3.27 2.64c.28 1.21.52 2.32.85 3.76-.27 1.51-.6 3.39-.94 5.34l-1.42 1.09c.49 1.91 2.41 1.22 4.48 1.55L1017 174c1.16 3.56-1.43 7.18-.6 10.6.9 3.77-2.37 7.25.17 11.08-.94.48-1.81 1.34-2.57 1.25-4.51-.48-8.78 1.3-13.21 1.26a14.78 14.78 0 01-2.84-.48c-3.35.61-6.4 1.79-9.34 1.57-5.38-.4-10.8 1.88-16.4-.48-2.09 1.39-4.59 1.08-7.12.69-1.92-.3-3.85-.52-5.78-.73a28.58 28.58 0 00-10.37.41c-2.91.73-6.15.15-9.53.15l-1.41-2.76a3.2 3.2 0 00-1-.49 144 144 0 00-21 .41c-3.27.29-6.58.05-10 .05l-2.36 1.86-3.39-1.91-3.34 1.91c-9.74-.81-19.77-.12-30.94.45-1.72-.44-4.49-1.29-4.62-5.27-1.33.54-2.42.64-2.61 1.1-1.65 4.06-4.79 4-8.23 3.13a13.35 13.35 0 01-2-.82c-1.6.41-2.75 2-4.46 1.17s-3.41.18-5.11.39c-1.5.19-3 .42-4.73.65l-2.91-2-3.75 2.46-7.4-1.71-2.46 1.37c-3.93-.33-8.11.21-11.62-2.59l-2.8 1.76a20.22 20.22 0 00-3-1.09 14 14 0 00-2.91-.14q-9.6-.12-19.22-.21a14.63 14.63 0 01-2.89-.16 55.1 55.1 0 00-11-1.06c-3.47-.05-6.93-.71-10.39-1.1-3.09-.34-6.17-.73-9.26-1-3.28-.31-6.57-.62-9.86-.77-3.66-.16-7.28.54-11 .08a40.78 40.78 0 00-11 0c-3.68.55-7.34.41-11 .69a24.36 24.36 0 00-4.17 1.13c-4.27-1.8-8.83-.33-13.39-.14a98.8 98.8 0 01-11 0 82.75 82.75 0 00-13.16.2 166.3 166.3 0 01-20.34.29c-2.71-.09-5.41 0-8.13 0 0 .64 0 1 .1 1.79-5 .54-10.06 1.08-15.13 1.34-5.22.27-10.52-.47-15.49 1.1-2.23-.62-4.26-1.25-6.32-1.74a7.08 7.08 0 00-2.85-.21c-3.21.6-6.47-.05-9.66.62-3.61.76-7.2-2.3-10.83-.07l-11.32.46-1.51-2.18c-4.92-.63-10.17-.2-15.4-.36-1.31 0-2.79.36-3.66-1.14l.9-.16.19-.07zm289.14-59.39l-.24.08.07-.23c.28-.18 1.24 0 .38-.75zm-21.11 38.36l-.36.12v-.39l.45.33.51.29zm-35.21-124l.16.24-.29-.12-1-.37zm132.06 98.28c-.51.81-2 .7-2 2.18l1.86-.19v-2.15c.53-.07 1.29.5 1.56-.53-.26 0-.48-.06-.6 0a8.69 8.69 0 00-.82.71zm-272.4-68.74l-.1-.41.25.27 1.61 1.55 3-2.12c-2.12-1.74-3.41-.34-4.76.71zm35.29 12.68l-.15-.29.27.28c-1.12.63-2.25 1.25-3.38 1.87 1 3.09 1 3.09 5.5 5.66.38-2.08.74-4.09 1.14-6.31zM824 49l-3.09-1.82c-.53-1.39-1.28-2.91-3.58-2.39v2.92c-7.69 0-15.18.44-22.67-.66-3-.43-6-1.15-9.26.33l1.09 2.19a39.69 39.69 0 009.93-.12 21.42 21.42 0 018.55.11 15.48 15.48 0 009.72-.58 19.46 19.46 0 003 1.83 10.55 10.55 0 002.78.26c.62 1.48 1.23 3 1.86 4.48a24.35 24.35 0 0111.08-4.49c-.15-.88-.07-1.72-.36-1.88-2.97-1.63-6.05-2.38-9.05-.18zm23.41 49.14c1.34-1 2.75-2 2.73-4.36a8.84 8.84 0 01-7.14-1.12c-2.3-1.6-5.29-.32-7.62-2-.62-.45-1.84 0-2.79 0-3.79-.16-7.58-.35-11.71-.55-2.89.21-6.18.87-9.39.59-5.55-.48-11 .12-16.57 0a14.18 14.18 0 00-3.45.2c-.63.14-1.11.89-1.66 1.36l.16-.17c-1.27.42-2.54.86-3.83 1.21-.23.06-.57-.31-.86-.48l1.37-1.66c-3.38-1.63-5.25.67-6.7 1.87-5.12 0-9.63.4-14-.14a72 72 0 00-9.07-.78 63.73 63.73 0 01-9.59-.78 8.86 8.86 0 00-2.28.36c-2.83.37-5.67-.07-8.53.13-3.2.22-6.47-.58-9.85-1-3.09 2.52-7 1.54-10.54 2.36s-7.33-.41-11.18 1.09l1.74 1.73c.22 2 .45 4.09.68 6.2 2.5-.46 2.5-.46 5.11.33-1.56 1.91-2.69 4-1.7 6.43 1.18 1.46 2.31 3 4.57 2.38a25.12 25.12 0 011.13-5.36c0 2.1-.37 4.09.1 5.84s1.8 3.29 2.76 4.93a11.85 11.85 0 00-.28 5.56 3.84 3.84 0 01-.26 1.17 5.44 5.44 0 01-1.46.79 6.16 6.16 0 01-1.8-.22c-.7.79-1.43 1.63-2.49 2.82l6 .68-.14-.14-1.48 6c.48.87.94 1.71 1.41 2.59l4.21.63 2.07 3.28 7.07-1c1-.92 1-2.33 2.46-2l1.76 2.08c2.15.57 4.54-1.33 6.54.6-.42 1-.86 1.9 1 2.22l4.17-4.11 8.72 1.09 3.48-2.51c5.68 1.22 11.53-.57 17.22 1.1a5.74 5.74 0 001.67-.15q9.84-.53 19.7-1a4.34 4.34 0 011.71.29c2.23.82 4.52.42 6.79.49s4.62.45 6.92.34c3.47-.16 6.93-.61 10.39-1 .23 0 .41-.52.61-.8-1.63-1.62-4.24.85-5.84-1.53l1.12-1.8c2.75-.53 5.64.3 7.94-1.62l.1.33-.19-.33a7.89 7.89 0 012.43-5.69c2.94-2.68 4.5-6.12 6.4-9.44 1-1.8 2.49-3.35 3.63-5.1 2.17-3.36 4.3-6.75 6.34-10.18a5.87 5.87 0 00.22-2.26zM765.1 38.63c3.35 1.47 5.87 1.12 8.29-.7l3.7 1.32 4.14-1.41-4.42-1.93a54.27 54.27 0 00-6.23.66 39.64 39.64 0 00-5.48 2.06zm23.68 30.63c-4.44-.86-5.52-.89-8.33-.06-.65.19-1.38.64-.73 1.74 2.93.33 5.88.34 9.06-1.68zM675.61 53.05a39.43 39.43 0 00-14.52-.26c5.6 1.91 10.07.49 14.52.26zm214 94.29c-1 1-1.75 1.83-2.51 2.66 0 0 .14.25.32.56h5.62c.25 0 .48-.43 1-.94zM930 149l-2.56-2-3.82 3c2.66.56 4.53 1.63 6.38-1zm-270.2-2.47c-6.19-.75-6.19-.76-8.17.75 2.61 1.72 4.61-.52 8.17-.75zm10.25-38.62l1.75 2.67c.27-1.69.39-2.59.55-3.49.2-1.08.42-2.16.62-3.21l-1.8-1.19zm248.6 42.28h3.09c-.92-1.35-1.89-1.79-3.09 0zM576.9 44.7c4 .69 4 .69 6-1.65zm40.94 150.75v.3h3.83v-.5zM786.1 53.93v.33h3.38v-.33zm-144.67 91.78c-1.73-1.57-2.36-.74-3 .58 1.18.78 1.96.5 3-.58zM888.71 61c1.89.21 1.89.21 2.86-1.37a2.32 2.32 0 00-2.86 1.37zM722.22 84.84l.69-1c-.54-.49-.95-1.32-2.24-.27zm60.38-35.08v-.58h-2.94v.58zm11.28 19.68l.15.63 1.54-.38-.15-.59zm88.77 125.23v-.44l-1.16.14v.3zM736.75 40.85a5.51 5.51 0 00.88.5c.07 0 .39-.31.36-.35a6.92 6.92 0 00-.59-.83c-.22.22-.4.45-.65.68zM732 39.63l2.26 1.59.37-.9zm-36.13 45.91zM895.2 57.81c.9 2.38 1.53 2.87 2.77 2zm-98.07 115.74c-.29-.1-.62-.34-.85-.26s-.36.54-.3.77.62.41.72.33a2.3 2.3 0 00.43-.84zM723.87 40.06c0-.15-.08-.42-.14-.43a5.54 5.54 0 00-.91 0c0 .16.06.44.11.44a5.93 5.93 0 00.94-.01zm182.91 109.72v.31h1.36v-.31zM784.71 40.41l-.37-.1.16.35zm-159.78 106.5c-.16-.29-.27-.76-.49-.83s-.69.13-1.05.22c.18.28.31.71.56.8s.65-.1.98-.19zM799.52 54.2l-.93.09zm100.61 11.72h1.14c-.07-.11-.15-.32-.2-.31-.27.06-.53.17-.94.31zM578.48 90.2c2 .72 2 .72 1.7-1.36zm69.62-5.75a5.16 5.16 0 00-.91-.31c-.11 0-.25.2-.38.31.23.16.45.44.68.46s.4-.29.61-.46zm30.21 10.26h.28l-.11-.36zm22 .21l-.41-.15-.06.56a1.43 1.43 0 00.43-.1c.03-.03 0-.23.01-.31zm-27.83 19.72h.34l-.15-.4zm133.69-60.56l.74.11zm-11.23-.14l-.41.1.53.2zm-67.22-1.14l-.42-.19-.12.66c.16 0 .35 0 .46-.07s.06-.27.08-.4zm170.44 84.54l.47.15-.3-.58c-.06.14-.11.29-.17.43zM747.47 51.17l-.23.35.33.09zm80-6.24v-.28l-.36.1zM643.6 146.51l.85.38v-.75zm12.95-106.58c-.1-.1-.22-.28-.34-.28s-.22.19-.34.3l.49.34zM235.93 61.81l1.37-1.47-3.42-4.94c-.11-2.6-.12-6.07-.47-9.5s-.48-6.74-2.15-9.95c-1-1.91-.68-4.48-.93-6.51 1.71-2.33 4.22-1.16 6-2.06l2.33-2.71 3.44-.28 1.77-3.15 10.14-1.46 1-1.4h1.08c1.16.08 2.32.25 3.48.23 7.92-.14 15.85-.28 23.77-.5 2.51-.07 5.18-1.05 7.46-.45s4.66-.43 6.65.95l3.5-2.18c1.88.2 3.63.72 5.28.48s3.4-.84 4.78.63c5-1.86 10-3.47 15.5-1.95a27.24 27.24 0 009.21.86c2.45-.19 4.74.84 7.24.21a4.94 4.94 0 014.37 1.1c1.07 1 2.38 1 3.76 1.15A212.1 212.1 0 00374.78 21c2.5.06 5 .42 8 .68a10.89 10.89 0 018.61.28l4.09-1a47 47 0 0010.69 1.33c3.56-.06 6.9-.26 10.13-1.75l8.37 2.14c1.37 2.09-.25 3.68-1 5.13.9 3.69 1.73 7.07 2.53 10.45.73 3.07 1.42 6.15 2.22 9.63 2.27-1.49 1.7-3.31 1.73-4.93l-.18.17c2.25 6.55 2.43 8.69 1.27 15.27-2.25 1.14-2.25 1.14-3.85 3.38.2.7.46 1.6.8 2.83l-3.48 1.07a3.67 3.67 0 002.22 3.17c.74.43.83 2 1.43 3.64.59-1.32 1-2.2 1.33-3 1 .78 1.53 1 1.57 1.22.25 1.92.41 3.84.67 6.39L427 94.07c.36 1.15.81 2.63 1.33 4.34-.4 1-.88 2.29-1.38 3.57 1.69 1.15 2 2.86 1.81 4.64-.49 5.62.1 11.29-1.08 16.87a39.31 39.31 0 00-.48 4.66l-2.06 2.29c.12.67.06 1.17.28 1.38 2 2 2.53 4.75 3.09 7.36.2 1-.59 2.16-.92 3.24l.12-.09-2 .72c-.27 4.6-.55 9.31-.84 14.29l1.46 1.4-.13-.16c.16.38.31.76.46 1.14l-.33.33c-1.81 1-2.21 2.54-1.93 4.79l3 .64-2.31 5c1.41 2.12 1.07 4.77.09 7.38l3.31 5.32c.45 5.14.76 10.53-.45 15.89 0 .19-.21.38-.18.55.83 5.39-1 10.61-.91 16 .09 7.37.92 14.66 1.51 22.08l3 3.47v8c.27.49.87 1.61 1.46 2.71l1.56-.92c.12-.64.25-1.3.44-2.28l4.24 1.36 2.95-3 3.39-.66 5.23-9.59c.4-2.14 1-5.35 1.68-8.85l2-1.83 1.46-4.95 1.59.81-1.88-3.57c.32-1.17 1.25-.43 1.89-.61s1.41-.55 2-.8L458 213.8l3.2-1.8c-.43-1.12-.83-2.18-1.15-3 0-4.37 3.7-7.45 3.14-11.77 6.71.94 9.61 1.81 15.05 5.16a56 56 0 0012.75 5.5 76.9 76.9 0 0010 2.46 13.94 13.94 0 012.84 1.2c-.08 3.72.85 7.14 3 9.58-.32 4.88-.62 9.28-.9 13.69a7.24 7.24 0 01-.05 2.24c-2.08 5.13-2.23 10.51-2.49 15.93-.17 3.45-.93 6.86-1.43 10.29-.25 1.71-.42 3.43-.78 5.11a11.22 11.22 0 01-1.26 3.83 16.69 16.69 0 00-2.62 8.66l-1.74 2.36.44 1.76c-2.51 2.89-5.19 5.65-8.8 6.62-2.16 2-3.19 4.65-5.9 5.79-1.33.55-2.35 2-3.31 3.22-1.7 2.17-3.5 4.08-6.38 4.65-.37.07-.59.91-.79 1.24l-5-1c-4 2.11-8 3.9-12.54 4.16l-2.76-2.09a12.82 12.82 0 00-1.82.44c-5.74 2.38-11.54 4-17.92 3.28-3.41-.38-6.92.27-10.39.35a24.54 24.54 0 01-11.78-2.72c-1-.52-2.12-.86-3.22-1.3-.43-.66-.85-1.31-1.32-2.05-5.71-2.55-10.57-6.68-15.93-10l-.11.06h2.29c-1.72-6.2-3.34-8.54-7.17-10.51-1.59.67.31 3.25-1.94 3.56-7.16-8.71-7.88-10.08-7.84-14.51-.78-2-1.57-3.82-2.12-5.68s-.84-3.73-1.24-5.64c-.54-.45-1.11-.94-1.79-1.53 0-3.22-.62-6.51.72-9.85a8.71 8.71 0 01-2.77-5.86c-.4-4.64-.89-9.28-1.15-13.92-.13-2.3-.53-4.69.6-6.9-.59-5.33 1.71-10.68-.26-16.05-.46-1.28.16-3 .52-4.53a18.35 18.35 0 00-.05-6.89c-.06-.43-.77-.76-1.19-1.14l.16.15c-.1-.43-.19-.87-.28-1.3l.87-.39-.5-.36-.21.91c-2.93.29-4.38 3-6.8 4.2l-1.81-.44c-1.88 1.91-3.81 3.95-5.81 5.9-1.12 1.09-1.28 1.06-3.92 1.17-3.53 1.94-6.14 4.66-8.73 7.41a11.78 11.78 0 01-1.62 1.54c-2 1.46-4.08 2.86-6.45 4.51a21.74 21.74 0 01-3.18-4.68c.2-1 .34-1.74.48-2.46H329c-1.07-1.11-1.48-.11-2 .15l-2-2 1.88-3.33-3.06-5-4.14-.4a9 9 0 01-1.08-1.19c-2-3.09-4-6.16-5.89-9.33-1.06-1.82-1.8-3.83-2.92-6.26a33.89 33.89 0 01-8.55-10.88c-1-2.17-2.56-4.15-3.78-6.28a52.3 52.3 0 00-4.14-5.64 13.81 13.81 0 00-1.61-1.53c-2.35 1.84-.28 4.17-1.35 6.49a13.74 13.74 0 00-4.66 7.2c.12 1.17.27 2.51.4 3.7-5.11 8.32-6.81 17.71-9.77 26.64l-1.71.12c-.78 1.23.86 1.54 1 3.3-.5 5.66-1.65 11.85-7.8 16.2.22 5.27-3.58 9.25-5.54 14a15.34 15.34 0 01-2.38 4 47 47 0 00-7.08 12.49 88.4 88.4 0 01-5.45 10.88 13.42 13.42 0 00-.78 2.54l-2.53 1.77c-.19-.67-.38-1.35-.72-2.58l-1.71 1.69 2.6.72c-.53.76-1 1.53-1.58 2.3l-3.87-.35-2.25 4.08-1.94 2.08.17-.09v1.47l-.14-.11a19.88 19.88 0 01-6.84 7.58c-2.75 1.71-5.36 3.7-8.07 5.52a27.19 27.19 0 01-5 2.88c-2.12.86-4 2.42-5.9 3.7-2.74 1.81-5.57 3.5-8.16 5.5-2.27 1.76-5.41 1.7-7.44 3.92-.33.37-1.42.05-2.44.05l-.34-2.32-.15.12.95-.44-1-.92.17.09c-.76-.77-1.51-1.54-2.27-2.3-.38-.38-.79-.73-1.19-1.09l-.16.08v-1.44l.1.14-.74-.82-.65.88.09-.18a39.45 39.45 0 01-9.16-14l-.19.09 1.26-.12c0 .52-.13 1.25.78.58l-.86-.51c-.44-1.74-.48-1.76-2.46-1.22l.08-.18c-3-2.94-3-2.94-3-6.93l-5.03-4.46v.06l1.13-1.45-1.88-2.8c1.39-1 3.3-1.4 3.21-3.79l6.36-.79 5.49-3.89c-.06-.43-.18-1.34-.31-2.25 4.37-6.48 4.37-6.48 14.23-8.1.24-2.27-2.09-3.06-2.84-4.91 1.35-2.75 3.82-4.69 6.19-6.54a23.29 23.29 0 005.95-7c1.7-3 3.91-5.72 5.13-9a8.13 8.13 0 012.52-3.15 17.64 17.64 0 004.11-5.56 74.55 74.55 0 014.39-7.42c1.6-2.25 1.47-5 3-7.41a62.13 62.13 0 014.19-6.18 12.57 12.57 0 001.29-2.67l-2.57-.21.11.12c-1.32-1.61-.15-2.86.62-4.24l3-.8c-.87-1.07-1.64-2-2.59-3.22 1.67-3.12 1-7.12 4-9.93a7.29 7.29 0 01-.06-6.71c.29-.56-.11-1.49-.2-2.25l-.15.17a19.84 19.84 0 003-3.15 22 22 0 001.55-4.35l-1.87-2.9.68-1.76c-.49-1.4-1-3-1.7-4.9l2.72.78c.37-.6 1.09-1.24 1.09-1.88a95.25 95.25 0 011.26-14.33 3.13 3.13 0 000-1.71c-1.59-3-.84-6.13 0-9 1-3.37.07-5.95-1.91-8.47l-.14.18 1.65-.1c.82-.9 1-1.84.13-2.61a16.32 16.32 0 00-2.5-1.54c-1.38-3.41-.12-6.87-.52-10.4l3.52-1c0-.58-.85-.93-2.9-1.18-1.3-2.92.15-6-.6-9.13l4.09-3.55c.1-.88.2-1.79.33-3l-4 .31c-.35-.74-1.08-1.56-1.08-2.38a29.3 29.3 0 01.54-6.35c.69-3.14.82-6.36 1.47-9.49zm182.28 234.84l.23.25-.33-.18-1.11-1.16c-.08-.13-.15-.27-.22-.4l.41.21zm-21-30.25c-.07-.52-.14-1-.29-2.14-.77 1.47-.61 2 .41 2 .18.26-.31 1.1.62.72zm26-196.22c-.27.22-.54.44-.34.27-.1.27 0-.08.17-.43l.29-.42zm-134.7 89.55c.63-.8 1.65-1.56.18-2.8-.07 1.1-.13 2-.2 2.91l-.31.12zm160.25 107.8c.6-.55 1.58-.89 1.14-2l-1.24.1c.09.71.18 1.41.26 2.1-.39 0-1.13-.52-.81.54zm-189.35-52.36c-.67.87-1.41 1.71-2 2.64-.16.27.13.83.24 1.44 1.68-1.21 1.31-2.84 1.59-4.24.31-.54 1.32-.85.37-2.11zM392.65 81.68c-2 1.69-1.13 3.72-1 6.66a9.07 9.07 0 00.86-6.75c1.23-.3 1.32-.92.12-2.24zM424 262.46l2-.12 1.55-2.11c.55-.75 1.07-1.41 1.65-2.16-2.2-.92-2.22-1-6.09.82l.95 3.72-.36 1.35c.06-.5.16-.96.3-1.5zM293.55 120.17c7.54-4.47 13.57-10.1 21.72-11.59l1.52-1.79c.65.06 1.2.14 1.75.14s1.09-.06 1.74-.1a60.75 60.75 0 003.22 6.29c5.78 8.74 11.66 17.41 17.53 26.09 1.84 2.72 4.1 5.23 5.55 8.14 4 8.09 9.75 14.88 15.71 21.52a16.14 16.14 0 006.47 4.84 5.14 5.14 0 001.5-.07l2.33-3.11c-.08-1.53-.17-3.06-.25-4.48L370 165a60.12 60.12 0 01-1.5-15.6c.16-7 1.33-13.91 1.46-20.87.15-7.51 2-14.94 1-22.49 1.43-4.84.5-9.68-.25-14.45-.88-5.64-.47-11.46-2.39-17.35-5.15 0-10.35 1.09-15.52.34s-10.46 1.65-15.23-.84c-2.92.31-5.62.62-8.32.87-2.89.27-5.79.48-8.76.73l-1.37-.9c-5.61 2-11.39 1-16.95 1.13l-2.27-1.95c-1.61.19-3.52-1.1-4.8 1.41 1 .34 1.64.63 2.33.81s1.95-.59 2.22 1.29h-4.09c-.07 5.4-.24 10.63-.15 15.87a73 73 0 01-.71 10.44c-.7 5.36-.78 10.79-1.15 16.73zm76.05 115.14c0-3.63-.31-6.32.08-8.89a77.39 77.39 0 00.65-10.41 75.84 75.84 0 01.62-11.6c.76-4.46.45-8.89.66-13.33 0-.25-.41-.52-.82-1l-3.1 2.74c0 4.86-.12 9.71 0 14.54.2 6.6.19 13.18-1.23 19.84 1.2 2.24.54 5.23 3.14 8.11zm5.92-132.23c.56-2.41 1.09-4.17 1.37-6a48.35 48.35 0 00.59-6.36c0-1.89.88-3.64.37-5.69-.45-1.82 2.32-3.74 0-6.1l-2.83.58c-.53 5.49-.31 19.05.5 23.57zm47.23 59.07c-2.08 2-2.13 2.22-1.51 6.62l1.22.18c.87-2.16.37-4.33.29-6.8zm-158-123.49l2.46 2c3.05-1.66 3.05-1.66 2.39-2.71zm120 216.65c.25 3.34.26 3.33 3.12 2.9-.06-.68-.12-1.37-.19-2.13zm-11.49-105.74c-.49 2.74-1.14 5.47-.12 9.22.98-3.71 1.45-6.45.12-9.22zm55.05 152h3.43c.19-3.35.19-3.35-1.18-3.46zm-52.48-196.3c-1.57 1.88-2.65 3.14-1.14 5.16 1.89-1.09 1.64-2.68 1.14-5.17zM340.76 73.5l4.61-.52c-2.3-1.24-2.3-1.24-4.61.52zM238 91.29c-.48-2.61-.48-2.61-2.14-1.86zm191.75-40.51c-1.91 1.47-1.86 1.88.34 3-.09-1.07-.22-1.95-.34-3zM341.83 189.1c-.9 1-1.35 1.86-.33 2.59.31.22 1.19-.35 2.31-.73zm33.62-76.45c-1.71.87-1.71.87-.69 2 .24-.73.48-1.37.69-2zM412.75 66l.54.09-.07-1.72h-.38zm-38.43 74.83h.25v-1.78h-.25zm49.27 44.79c1.06-.9 1.05-1.74 0-2.67-.78 1.05-.84 1.87 0 2.68zm1.48-95.36c-1.21 1.88-1.44 2.77 0 4zm22.21 174.54c-1.34.69-2.29 1-1.73 2.31 1.11-.06 1.69-.62 1.73-2.3zm8.56-32.57l-.49-1.19c-.39.34-1 .62-1.1 1s.39.79.62 1.19zM425 39.48h-.44v1h.44v-1zM324.22 175.19a4.52 4.52 0 00.55-.75c0-.08-.19-.42-.24-.41a4.36 4.36 0 00-.77.33c.15.28.3.56.46.83zm101.66-34.6c1.13-.85 1.12-1.71.08-2.62-1.16.85-1.12 1.71-.08 2.62zm-.07-18.1l-.07-1.06c.02.35.05.71.07 1.06zm-3.68-65.21c1.19-.86 1.28-1.47-.15-2.27.02.89.1 1.48.15 2.27zM421 89.92h.55v-1.86H421zm-70-18.09l-.06-.46-1.3.2a1.69 1.69 0 00.12.38c.41-.02.82-.08 1.24-.12zm-114.37-.21c.11.08.22.22.33.24a1.15 1.15 0 00.41-.13zm-7.39 210.83l-.15.44.61.07a1.71 1.71 0 00-.12-.47c-.04-.06-.22-.03-.34-.04zM369.68 240c.58-.44.66-.91 0-1.35 0 0-.42.26-.4.35a5.54 5.54 0 00.4 1zm-121.55-60.65c-.1.12-.26.23-.28.36s.11.29.18.43c.09-.12.26-.22.27-.35s-.11-.29-.17-.44zM411.78 40.68l-.17.46.4.14a1.31 1.31 0 00.12-.45c-.01-.06-.23-.1-.35-.15zm19 211l-.29-.19v.31zm-46.06-5.83l.38.25v-.4zm-45.36-47.68l.19-.28h-.3zm32.49-23.68l.3.21v-.33zm2.86-27.93l-.32-.37c-.12.11-.33.21-.34.32s.19.24.29.36zm53.71-67.85l-.27-.2v.3zm-14.3-43l.25-.39h-.41z"/><path d="M89.75 33.48c1.51-.24 3-.53 4.56-.71 2.27-.26 4.67.28 6.75-1.28a3.67 3.67 0 012.26-.34 12.15 12.15 0 008.49-2.4l31.61.47 3.24 1.62c6.14-.55 12.33-1.07 18.51-1.67a13.32 13.32 0 018.32 2l4.16-2.68v2.76h4.12l-1.05-2c3.08-.67 6.08.41 9.06.1a9.05 9.05 0 013.9 1c.67.26 1.16 1 1.73 1.5 1.11.18 1.64-2.82 3.14-.58l-.36.3.2-.46c2.24 2.77 2.48 6.23 3.28 9.76-.41 1.46-.88 3.14-1.43 5.12.23.64.57 1.54.65 1.74-.16 3.36.11 6.14-.5 8.71-1.63 6.87-.62 13.83-1.19 20.72-.19 2.31-.59 4.61-.88 6.78-3.32 2.37-6.67 4-11 3.16l-3.12 2.31a17.26 17.26 0 01-14.32-.56l-2.63 1.67c-4.16-.69-8.21-3.23-12.53-.21l-3.38-1.6c-5.19-.1-10.36 1.65-15.87 2.61a19.28 19.28 0 00-.6 3.41c0 2.72.36 5.43.33 8.15a8.84 8.84 0 01-1.38 5.52c-.82 1.13-.79 2.88-1.09 4.15.49.79.77 1.29 1.1 1.76s.68.91.8 1.07c0 2.24.06 4.13 0 6a7.78 7.78 0 01-.31 2.83 6.38 6.38 0 00.11 5.07 12.72 12.72 0 01.18 8.58 9.24 9.24 0 00.16 7.11c-1.33 4.93-2.1 9.57-1.32 14.53.65 4.17.27 8.5.28 12.76a12.55 12.55 0 01-.49 2.39l2.83 5.7-2.07 3.12c5-1.45 9.29-2.55 13.48-3.93 5.7-1.89 11.38-3.69 17.41-4.41 2.85-.34 5.61-1.5 8.38-2.38 4.07-1.29 8.13-2.61 12.15-4a6.41 6.41 0 016.71 1c-.31.63-.64 1.29-.86 1.75.2 2.46.4 4.75.62 7.47 3.68 3 4 7.68 4.1 12.38 0 .43-.59.88-.91 1.32l-.12-.32.23.34a5.16 5.16 0 001.37 2.28 9.85 9.85 0 011.54 6.64c-.13 2.13-.33 4.29 1.13 5.64-.48 3.9-.9 7.29-1.34 10.84l3.4.78a2.84 2.84 0 01-.29 1q-4.62 5.91-9.3 11.79c-.84 1.06-1.74 2.07-2.12 2.51-3.1.51-5.36 1-7.63 1.21a17.34 17.34 0 01-3.42-.31l-.08-.34.19.2c0 .38-.08.76-.16 1.47l-4.29 1c-.62.89-1.27 1.83-2.12 3-.58-.31-1.2-.91-1.82-.92a45.8 45.8 0 00-6.31.25c-3.26.39-6.49 1-10.38 1.59-3.89 2.31-8.57 4.44-13.7 4.06-2.65.81-5 1.63-7.44 2.24s-4.91 1-7.52 1.52l-1.63 2.17h.16a11.08 11.08 0 00-2.07-1 3.93 3.93 0 00-1.72.16 108.19 108.19 0 00-11.7 3.45c-3.61 1.2-7.48 1.52-10.91 3.5A12.85 12.85 0 0192 259a26.25 26.25 0 00-9.93 3.33c2.58 1.52 4.86-1.38 7.67-.12a19.48 19.48 0 01-2.43 1.18c-3.87 1.23-7.71 2.47-11.52 3.93-4.31 1.66-9 2.27-13.52 3.48-3.75 1-7.48 2.11-11.15 3.38-1.4.48-2.55 1.62-3.89 2.32a23.75 23.75 0 01-12.16 2.72c-4.2 6-10 4.2-15.66 3.43a13.85 13.85 0 01-3.41-8.36c-.4-3.64-1.35-7.21-2.06-10.82-1.21-6.22-2.66-12.41-3.51-18.7-.5-3.65-.9-7.32-1.44-11a30.5 30.5 0 00-1-3.31c-.39-1.44-.7-2.9-1.08-4.5 3.35-1.45 5.73-4.11 9.73-3.54 1.95.28 4-1.11 5.74-2.47 1.29-1 2-3.1 4.2-2.71l-.09-.1 1.38 2.27a7.37 7.37 0 016.99-4.41 9.72 9.72 0 003.32-1A41.6 41.6 0 0151 210.56a2.88 2.88 0 001.14-.19c6.59-3.39 13.92-4.74 20.72-7.54.65-.27 1.1-1 1.84-1.71l-2.2-4.06.63-1.85c-.5-.64-1.08-1.38-1.67-2.11a4.31 4.31 0 01-.29-1.12c0-2.91 0-5.82.17-8.72s1.09-5.68.09-8.58a7.71 7.71 0 010-2.91q.58-8.7 1.22-17.41a11.53 11.53 0 00.35-2.26c-.93-5.82-.28-11.58.3-17.37.25-2.5-.1-5.06.15-7.55q.6-5.76 1.7-11.47c.24-1.26 1.19-2.39 2-3.88-.9-5.17-1.06-10.66 1.6-15.72-.3-.93-.54-1.66-.76-2.37-2.8-1.52-6.33-.8-8.79-3.36 0-.73-.12-1.63-.21-2.78-1.29-.31-2.61-1-3.87-.87-5.6.4-11.18 1.16-16.78 1.51s-11.23.36-16.78.52l-2-2.42-5-.49-1.24-3-2.63.15v6.27c-1.57-.2-2.83-.41-4.1-.5s-2.29 0-3.5 0c-.91-1.2-1.7-2.23-2.61-3.44L8.3 86.91c-2-1.35-1-3.1-.68-4.6-1-3.49-1.95-6.84-2.71-9.52.27-5.11.51-9.53.74-13.74L8 56.82c-.29-2-.57-3.86-.85-5.69.4-1.94.34-4.12 1.3-5.64 1.19-1.88-1-3.36.46-5.32 1.41-1 3.09-2.85 5.17-3.6s4-1.17 5.5-2.76a22.85 22.85 0 0012.69.67 7.44 7.44 0 012.21-.13c3.68.33 7.33.65 11-.36 1.23-.33 2.67.08 4.18.16l1.5-2.54c1.82-.39 3.7-.88 5.61-1.19.9-.15 2-.3 2.53.82l-.34.11.4-.2c2.4.51 4.82-.68 7.31.28 1 .41 2.61-.28 3.86-.7a13.89 13.89 0 016.8-.8c4 .64 7.93 1.35 12 2 .17.52.34 1.07.51 1.61l-.33.12zm53.67 153.4l.1.35-.19-.4c.37-.59.75-1.17 1.44-2.24l-2.18.47c.41.82.6 1.32.83 1.82zm-43.13-66.68c-.31-.91-.61-1.82-1.88-1.25v.92l2.07.16c-1.53 2.2-2.19 4.45-.31 7.07l2.54-.39c-1.25-2.29-.85-4.71-2.42-6.51zM65.13 62.8l.64.81.59-.81c2.27.19 4.54.42 6.23-2.31-2.89-.08-5.48-.16-8 1zm40.58 52.27c.19-2.58.31-4.09.42-5.6.15-2.11.23-4.23.48-6.33.37-3.24.88-6.46 1.28-9.7 0-.29-.34-.63-.54-1h-4.3c-.23 3.15-.54 6-.62 8.81s.06 5.4.12 8.1c.05 1.95.54 3.65 3.16 5.72zM20.52 73.85c2.53 1.75 5.07.7 7.47.87 2.66.2 5.34.21 8.92.33l3.81-1c-5.43-.16-10.43-2.65-15.52-2.8zm87.83-16.71c-6.54-.36-11.86-.54-17.11.75-.23.06-.35.55-.62 1l3.06 1.35c2.86-.35 5.15-.53 7.39-.94s4.59.52 7.28-2.16zM29.62 45.75c-1.76-.29-3.14-.92-4.27-.61-2.24.61-4.19 0-6.22-.61-.31-.09-.73.16-1.11.26 0 1.28-1.51 2.31-.5 4 .58.07 1.55.49 2 .17 2.42-1.61 5.13-1.26 7.83-1.42zm134.58 3.7c3.89 1.5 6.27-.86 9-1.26-2.8-.03-5.76-1.75-9 1.26zm-52 8.22c2 1.9 2.16 1.9 6.21.17l-.65-2zm-9.49 5.79c2.06 1.07 3.9.32 5.7.08.53-.07 1-.75 1.46-1.16-2.59-.21-5.29-2.07-7.21 1.08zm60.91-14c-2.69-1.64-4.7-2-7.17.13l4.07 1.28zm30.24 150.46c-1.15-.66-1.69.06-2.16 1 .54 1.53 1.09 3.06 1.63 4.58l1.54-.61c-.15-1.27-.29-2.58-.5-3.88a3.71 3.71 0 00-.56-1.09zM88.14 64.14C92 65 92 65 93.52 63.59c-1.62-.94-3.18-.96-5.38.55zm48.19 133l-.61-2.48-3.95.81c.21.82.32 1.29.5 2zM91.11 250c-2.61.49-3.9.67-5.14 1-.29.09-.43.73-.64 1.13 2.24 1.13 3.22-.7 5.78-2.13zm20.17-143.27c-.65 2.76-1.07 4.53-1.51 6.37l1.62 1.11c.8-2.31.75-4.34-.11-7.45zm4.63-45.54c-1.63-.95-2.66-.77-4 1.17 1.83-.17 3.09 1.11 4-1.14zm-39.67-1a9.34 9.34 0 002.17.4c.57-.07 1.58.31 1.54-.91-1.09-.37-2.12-1.18-3.71.51zm35.48 44.22c.46-2.65 1.86-3.92.84-5.81-1.42 1.34-2.24 2.69-.84 5.81zM23.16 79.59v.46h2.9v-.46zM159.35 188.2v.62h2.07v-.51zm-56.84 1.35c.42-.24.71-.35.7-.41a12.09 12.09 0 00-.32-1.18zM102.7 55l-.09.74 1.53-.19v-.41zm89.14-23.82l-4.67.46c1.41 1.22 2.45 1.24 4.67-.46zm-80.35 142.45c-1.08.78-1.35 1.57 0 2.38a1.45 1.45 0 000-2.38zm-27.88 73.21v.25l1.59.09V247zM21 53.19a1.94 1.94 0 00.54 0c.05 0 0-.25.06-.38a2 2 0 00-.54 0c-.06-.02-.06.19-.06.38zm82.65 139.07l-.26-.66-1.58.6.29.73zm6.85-74.43h-.31v1.39h.41zM56.33 64.3l-.33-.39-1.08.83c.14.12.36.36.4.33a12.46 12.46 0 001.01-.77zm43.83-.62c-1.27-1.13-2.06-.94-3.27.2zm5.2 4.68v-.46a10.32 10.32 0 00-1.55-.16c-.14 0-.26.42-.57 1zM88 58.83c-.14-.13-.28-.36-.39-.35a5.34 5.34 0 00-.93.31c.12.13.26.39.36.37a6.84 6.84 0 00.96-.33zm22.27-1.61a7 7 0 00-.53.81s.26.24.4.36a9.8 9.8 0 00.58-.85s-.3-.21-.46-.32zm43.65-1l-.45.1.58.26zm-31.55-1.07l-.4.17.39.16zm36.47 128.59v.28l.37-.09zM24.64 39l-.64-.16c0 .1.08.28.12.28a2.16 2.16 0 00.52-.12zm57.79 201.05l-.43-.25-.05.41zm82.67-52.45l.22-.32-.34-.05zm3.48-1.07l.25-.38-.41-.05zm-67.74-48.46l-.2.31h.32zM43.51 74.32l.21-.32h-.35zm44.83-13.15c-.11-.13-.23-.37-.35-.37s-.27.2-.41.32c.12.13.23.37.36.37s.27-.2.4-.32zM342.29 492.1l-4.65 6.16c-5.45.83-9.62 4.33-14 7.6-4.66-1.67-6.92 2.23-10 4.36-7.06-.45-14.17 1.57-21.14-.69a9.51 9.51 0 01-9.92-.63 57.88 57.88 0 00-6.12-2.92h-6.52c-.62-.26-1.08-1.54-2.15-.16h2.31a2.14 2.14 0 01-2.44 1.14q-5.19-.63-10.36-1.42c-1.92-.3-3.81-.76-5.76-1.16l-.92-1.64-2 1.11c-2.55.34-3.95-2-6.62-3.22l-1.62 2.46c-2.18.87-3.75 0-5.32-.78a64.64 64.64 0 01-4.16-2.09c-2.68-1.49-5.41-2-8.33-.68a5.88 5.88 0 01-1.89.17l-4.19-3.28h-7.24c-1.13-1.22-2-2.19-2.87-3.07l-7.93.89-6.94-4.38-5.27 1.87a28.27 28.27 0 01-9-3.41c-1.93-1.19-4.3-1.66-6.5-2.39-3-1-5.75-2.18-7.6-5a15.78 15.78 0 00-3.28-3.19 50.3 50.3 0 01-5.86-5.65c-1.86-2.17-4.31-3.83-6.61-5.81-1.8-6.1-6.71-10.6-9.23-17.06l-.29-4.31c-1.23-2.37-2.4-4.39-3.34-6.51-.86-1.93-1.79-3.84-1.45-6.14.16-1.09-.43-2.26-.56-3.41-.25-2.12-.55-4.25-.59-6.37-.08-6 .29-12.06-.18-18a57.1 57.1 0 010-9.06c.14-1.78 1.68-2.93 1.33-4.86-.3-1.67.16-3.46.16-5.2s-.41-3.54-.17-5.24c.59-4.12.61-8.29 1.91-12.37s1.89-8.7 2.88-13.05c.38-1.68 1.08-3.29 1.51-5 .46-1.84.77-3.71 1.19-5.84l2.72 2 1.89-3.59c-.52-2.17-1.4-3.32-3.72-3.76l2.85-1.63c7.67 1.27 15.41 2.81 23.22 3.75 4.57.54 9 2.31 13.72 1.66a4.62 4.62 0 011.16.12c8.8 1.18 8.8 1.18 16.81-.57l2.26 1.06c0 2.26.19 4.58 0 6.88-.42 6.38-1 12.76-1.42 19.15-.16 2.69 0 5.41.09 8.11a31.63 31.63 0 01-.45 8.06c-.29 1.22.31 2.64.57 4.35a22 22 0 00-1.18 13.3c.79 4 .93 8.1 1.44 12.15a25.1 25.1 0 00.86 3.36c-.47 1.86-.93 3.73-1.49 5.93l3.26 4.6-.24.27.1-.41 3.46 4.74c-.27-.13.26.08.72.38 1.9 1.26 3.67 3.35 5.69 3.62 2.23.3 3.59 2.09 5.75 2.26.65.05 1.22 1.23 1.83 1.9l.42.31.32-.13.27.24.65-.55c2.21 0 3.11 2.21 5.2 3.17 2.27-.9 4.6 0 7 .81 3.81 1.33 7.7 2.47 11.54 3.68l5.26-1.62c3.93 2.64 9.41.92 13.48 4.59l2.55-.83a15.2 15.2 0 0010.75.41 51.44 51.44 0 015.13-1.13 18.79 18.79 0 005.89-2.26c2.94-1.79 6.61-2.45 9.41-4.39 2.5-1.73 5.22-2.47 7.9-3.51a24.43 24.43 0 014.24-.81 1.34 1.34 0 00.66-.45c1.44-2.5 4.79-3 5.86-6.16.82-2.45 3-4.44 4.73-6.81v-8.94l4.62-4.66c-1-4 .83-6.91 3.43-9.81l-2.1-2.16c-.16-2.92-.16-2.92 1-5.31.5.11 1.18.06 1.54.38 4 3.46 8.77 5.7 13.39 8.17q5.13 2.73 10.36 5.27a24.38 24.38 0 003.3 1c1.29.42 2.82.56 3.82 1.36a9.63 9.63 0 006.31 2.38c.63 0 1.25.83 1.88 1.29l-.14-.15a3.11 3.11 0 00.19 1.09 13.91 13.91 0 001.39 1.51c2.92-.62 5.92-3.09 9.41-.5.08.45.2 1.16.38 2.26l3.71 1-3.63 8.37a16.63 16.63 0 00.38 2.36 8.89 8.89 0 01-1.07 7.8 7.41 7.41 0 00-1 2.69c-.08.41.47.93.74 1.4l-.15-.15a46 46 0 01-2.18 5.23c-.72 1.24-1.12 3.08-3.21 2.88h-.79c.05-.11.13-.33.14-.33.28.09.54.2.81.31l-1.63 2.36.15.18-.91-.8-.43.81.17-.2c-2.25.36-3.23 1.95-3.75 3.95-.41 1.57-.92 3-2.7 3.28-1.14 6.32-4.47 11.58-6.64 17.32.33.85.66 1.71 1 2.49-.89 1.88-2.61.22-4 1.3l-3.64 4.51c-4.12.81-6.07 4.8-9.71 6.15-.08-.36-.17-.72-.12-.5zm22.17-49.32l.24-.25-.11.38a1.59 1.59 0 00-.5.1c-.07 0-.07.23-.1.35zm-9.18 32.82c1.4-.73 2.84-1.44 2.06-3.47l.28-.22-.19.3c-1.26.84-2.29 1.8-2 3.52h-.32zm-37.42-18.7l-.27-.22.43.07c.91.8 1.66 2 3.19 1.47v-.94zm55.78-11.54c1.13.37 1.58.33 2.13-.22l-2.28.32c.49-1.17 1-2.34 1.51-3.65l-2.06-1.39c-.6 1.85-2.63 2.46-2.55 4.49a6.72 6.72 0 001.58.64 6.91 6.91 0 001.67-.19zm3-4c.92-1.58 1.79-3 2.58-4.5.12-.22-.13-.64-.22-1-3.14 1.14-3.44 1.79-2.32 5.46zM352.92 469c-1.48 1.19-1.48 1.19-.41 2.73.15-.95.28-1.82.41-2.73zm-200.25-7.19a15.57 15.57 0 001.79 1.25 10.23 10.23 0 001.72.42c-.41-1.89-1.18-2.48-3.51-1.64zm171.19-33.69l2.41-1.4-2.41-1.72zm37 12.69l.47-.27a9.1 9.1 0 00-.61-.78 2.33 2.33 0 00-.44.28zM190 363.26h-.41v1.38h.41zm150.42 115.88l.16-.49-1.26-.66-.36.92zm-5.87-43.59l.16.4.17-.4zm-181.68 28.76l-.47-.17v.7a1.37 1.37 0 00.47-.15c.04-.05-.01-.25 0-.38zM331 476.82l-.68.56c.12.12.26.35.35.34a4.39 4.39 0 00.83-.31c-.17-.2-.33-.41-.5-.59zm6.87-70.63v-.29l-.38.12zm-203.06-20.35l-.46.19.36.83c.14-.09.41-.2.4-.25a4.54 4.54 0 00-.3-.77zM161 355.75a5.31 5.31 0 00-.88-.4c-.11 0-.28.2-.41.31.19.21.38.59.57.59s.44-.32.72-.5zM411.3 327c2.65 2.13 2.81 5.27 3.42 8.4 1.8-1.41 3.56-.66 5.6.18 2.51 2.88 3.22 7.53 7.33 9.16.17 1.12 0 2.2.51 2.81a10.27 10.27 0 002.75 2.08 30.36 30.36 0 0110.92 12.29 11.48 11.48 0 002.77 3.66 20.9 20.9 0 015.29 6.91c2.07 4.2 5.17 7.63 7.75 11.44.53.77 1 1.61 1.31 2.19-.6 2.59-2.94.73-4 2.19 2.06 3.05 5.08 2.85 8.51 2.42 1.85 1.87 4.17 3.62 5.17 6.49l-.25.23.18-.33c1 .35 1.11 1.37 1.62 2 2.33 3 4 6.45 6.48 9.82.34.62 2.47-1 2.31 1.15l.12-.08v1.38l-.09-.14 1.31 1.34-.14-.07c-.3 1.66.49 2.92 1.35 4.24a18.74 18.74 0 013.38 8.4c-.19.91-2.06 1.68-.22 2.76.25.21.67.65.75.6.73-.51.22-.82-.24-1.12l-.45-2.42 3.7 1.78c.93 2.52 1.71 4.65 2.48 6.77-1.5 1-1.5 1-.55 2 .13-.78.25-1.47.38-2.17 2.11 1.09 2.7 3.1 2.92 5.19.19 1.77.51 3.39 1.9 4.62l-.05-.15 1.71 4.95h-2.95c-.15.74-.34 1.65-.64 3.08a23.13 23.13 0 01-3.28 2.53c-1.52.82-3.28 1.17-4.83 1.93a33.49 33.49 0 00-3.77 2.53c-3.94.55-14.5 5.65-17.77 8.81a28.12 28.12 0 00-13.55 7.15l-1.65-.67-.28-.26.38.22c-.5 1-1 2-1.63 3.32l-7.64.72-3.06-2.5c-.77-5.95-3.68-11.06-7.16-15.9.09-.56.19-1.12.32-1.87l-3-4c.25-.77.49-1.48.82-2.48l-5.13-3.24c-.73-1.23-.28-2.63-1.55-3.68a8.41 8.41 0 01-2.25-3.94c-.49-1.59-2.92-1.54-2.67-3.54a76.79 76.79 0 01-4.87-9.07c-1.18-2.33-3.48-4.08-5.23-6.14-1.25-1.46-2.42-3-3.55-4.4.6-2 .7-3.8-1.08-4.86a9.4 9.4 0 01-4.54-5.45c-.16-.54-1.19-.82-2-1.33.07-2.69.37-5.48-2-7.47l-.32-.32v-1.58c-2.33-3.36-4.63-6.58-6.82-9.87A5.25 5.25 0 00382 383l-.07.1a9 9 0 00-.91-2.67 50.7 50.7 0 00-4.24-4.8c-3.91-4-8.11-7.56-11.28-12.34-3.41-5.13-7.93-9.51-12.08-14.35a4.19 4.19 0 014.61-2.71c2.44.45 3.89-1.62 6.08-1.54s3.73-1.74 5.55-2.82c4.48-2.64 9.2-4.92 13.93-7.13 1.72-.8 3.81-.79 5.59-1.49 4.29-1.69 8.5-3.59 13-5.49l1.7 2.66c1.69-.56.87-2.35 1.75-3.22.13-.15.23-.36.39-.42 1.77-.65 3.55-1.27 5.63-2l-.29 2.25-.35.17zm7.89 26.9c0-4.07-.15-4.27-4.55-5.39.63 2.58 1.02 4.9 4.55 5.36zm-38.4 3.39a37 37 0 00-3.42-2.22c-.82-.4-1.48-.11-1.59.93 1.01 1.19 2.16 2 5.01 1.26zm.84 2.7c-.19.75-.41 1.31-.32 1.36a5.94 5.94 0 001.27.43l.38-.55zm87.69 92c-.24.18-.64.33-.69.55s.25.54.39.81l1-.76zm-85.42-83.93a1.68 1.68 0 00.14-.47s-.25-.09-.38-.13a1.24 1.24 0 00-.11.44c.01.1.23.1.35.16zm40.77-9.77l.21-.29-.31-.05zm6.21 6.66c-.11-.07-.25-.2-.33-.18s-.24.2-.36.3l.66.21zm57 68.22l.19-.29h-.31zM49.94 486.12l-1.44 2.18-1.79-1.25-6.44 3.62a10.47 10.47 0 01-5.62-3.07c-.09-.67-.2-1.58-.38-3-4.94-3.44-7.81-9.53-13.46-12.83-1.27-.74-1.39-2.8-3.16-3.15C11.83 462.52 4.94 457.43 0 450c1.18-2.78 3.9-4.4 5.85-6.56l2.77.31c2-2.88 5.5-3.83 8.27-5.9l6.92-11.2a17.79 17.79 0 002.34-.36 14.07 14.07 0 002-.83c.67-1.34 1.27-2.51 1.86-3.68.35.24.69.48.38.27.36.07-.09 0-.53-.12.52-1 1-2 1.7-3.22-.07-.36-.58-1.3-.3-1.79 1.74-3 2.23-6.54 4.21-9.49 2.33-3.46 4.22-7.22 6.3-10.86l-1.77-.82c.37-.67.73-1.33 1.2-2.21l2.65-.17c2.85-2.62 3.74-6.22 4.83-9.88l3.2-2.25c.69-2.46.74-5.15 3-6.63.06-1.18.1-2.15.16-3.23.28-.38.63-.83 1-1.31.65-1 1.64-1.86 1.84-2.91 1.59-8.23 6.09-15.45 8.07-23.54a12.72 12.72 0 011.83-3l-.43-1.14c.44-3.66 3.21-5.71 5.09-8.57h4.53c3.77 4.92 9.47 6.3 14.71 8.66s11 3.32 17 4.7c1.3.87 1.11 3.52 3.37 4l-.14-.14c.54.77 1.09 1.53 1.71 2.4l1.82-2.16 1.56 1.2c-.52 6.23-1 12.19-1.55 18.13a35.71 35.71 0 01-1 4.55 23.11 23.11 0 00-.17 11.11c-2.28 3.79-2.78 8.51-4.33 12.84-2.65 7.31-4.95 14.8-8.36 21.8-3.84 7.83-7.24 15.89-12.17 23.11-3.24 4.75-5.7 10.06-10.29 13.91-1.84 1.54-2.89 4-4.17 5.87l-4.9 2.69v3.56c-2.93 3.27-7.94 4.9-8.81 9.2-2.33 2.3-4.12 4-5.89 5.8-1.22 1.21-2.17 2.82-4.22 2.78l.1.1a1.27 1.27 0 01-1.06-.13l-.32.32a.94.94 0 01.14 1zm25.82-128.55c-.13-.19-.25-.38-.2-.29l.35.14V360l1.49-1.85zm-48.47 87.86a5.74 5.74 0 00-3.35 3.76c-.23.76-.34 1.54 1 1.73l4.48-4.06z"/><path d="M309.66 334.06c.32.44.88.86.91 1.33.12 1.5.05 3 .05 4.27.87 1.69 1.77 2.88 3.59 2.8v-.07c-.13.36-.25.73-.43 1.24 2.61 3.57 4.11 8 8.13 11.18l-1.83 2c-.23 2.26 1.27 3.84 2.5 5.78-17.48 10.41-35.2 20.5-51.18 33.66-6.56-5.14-9.74-13-16.44-17.43-4.62-6.3-11-10.93-16.32-17.33a14.79 14.79 0 00-7.1-10.13c-1.33-.82-1.5-2.19-1.92-3.46l1.49.27.12.32-.23-.33-1.24-.29-4.37-3c.63-.81 1.07-1.36 1.68-2.13l-1.47-2-3.19.14c-3.49-6.4-9.77-10.17-14.68-15.27-1.06-1.09-2.17-2.14-3.53-3.48l2.38-1.89-.09-.18.74.61.77-.67-.11.18c1-1.38 1.92-2.77 2.18-3.13 4.71-3.89 8.71-6.81 12.24-10.21a34.4 34.4 0 019.24-6.65c-.24-1.8-1.55-1.22-2.58-1.23l.16.16c1.85-2 4.87-.56 6.7-2.79-.06-.2-.28-.87-.53-1.6l1.68-.32v-.13l.72.79.72-.77-.07.14 5-2.68-.15.11 2.65-3.63c3.39-.62 5.83 2.15 8.84 2.27 3.25.12 5.37 2.94 8.54 2.9l1.92 2.81 5.9 2.13c.52 1 1 1.86 1.37 2.68l2.63 1.13c-.17 1.18-.33 2.25-.53 3.64l3.57-.76a20.09 20.09 0 017.17 5.83 16.76 16.76 0 003.3 3.11c2.2 1.79 4.63 3.47 5.74 6.36a6.92 6.92 0 003.15 3.27c.71.44 1 1.5 1.55 2.28l.11-.09v1.39l-.08-.14.69.79.65-.81-.12.17c2.2.3 1.72 2 1.83 3.46l6.54 5.55 1.22-2.11zm-67.6-16.69l-.52-.84-3.41 1.74 1.8.83zm12-2.44c.4-2.63-.14-3.08-1.89-2.32zM921.73 199c4.44-.07 8.65-2.22 13-.58-.18.33-.32.86-.5.87-4.23.4-8.44 1.16-12.5-.29zM63.75 202.46c-2.92 2.25-5.67 2-8.5 3.13 1.75-2.43 3.59-3.09 8.5-3.13zM896.36 461.15c2.07-1.32 3.89-.79 6.84 0zM233.81 117.72l1.49.77-.45 2.65-2.46-.49zM427.59 142.42c1.88 1.84 1.53 3.86.47 5.92 0 .06-.34 0-.52 0s-.44-.24-.43-.34c.18-1.88.39-3.75.6-5.63zM28.59 31.43l1.66 1.78-3.38.25c.68-.81 1.04-1.24 1.72-2.03zM1020.37 489.64c.37.39.74.78 1.28 1.37a3.94 3.94 0 01-3.64 2.1l.14.13c.41-.84.82-1.69 1.24-2.54l-.24.22 1.36-1.37zM892.24 33.2h-4c2.07-.89 2.07-.89 4 0zM370.27 465.13l-2.94-.65.22-1.46c1.53 0 2.13 1 2.64 2.05zM895.63 200.77l-2.46-.13v-.49h2.47c0 .21-.01.41-.01.62zM429.41 34.9c-.17 0-.36.17-.49.12s-.24-.27-.35-.41l.75-.24zM1015.69 494.15c.11 1.67-1 2.23-2.34 2.47l.16.13v-1.39l-.19.21 2.51-1.23zM385.12 389.33l1.14 1.33c-1.64.53-1.44-.36-1.14-1.33zM967.75 421.83l2.6.16v.57l-2.5.38.07.15-.07-1.38zM385.7 427.18h-1.61v-.52h1.6zM1037.22 469.08v-1.8h.37v1.8zM50.78 206h1.85v.34h-1.86zM756.55 215.65c-.33.17-.66.47-1 .46s-.61-.34-.92-.53c.33-.16.66-.46 1-.45s.61.33.92.52zM747.16 215.67h-1.87v-.44h1.86zM595.32 213.84l.17-.35.1.38-.27-.03zM379.7 443l.26-.31-.41.16zM884.2 201.23c0 .13 0 .32-.07.36a.61.61 0 01-.48.08c-.53-.25-.48-.48.1-.57a1.14 1.14 0 01.45.13zM846.11 216.78v-.28l.39.15-.39.13zM799.41 219.54c.45-1 1-1.52 2.16-.18h-2.31zM70.47 200.44h-1.28v-.32h1.28zM851.37 462.34c-.15.08-.39.25-.42.22a2.83 2.83 0 01-.34-.53 1.25 1.25 0 01.5 0c.11-.03.17.18.26.31zM383 431.38l-.41.38a5.64 5.64 0 01-.39-.92c0-.09.24-.25.38-.38zM859.24 462.63l-2.18-.25c1.34-.85 1.75-.35 2.05.39zM236.16 111.85l-.39-.18c-.22-.35 0 0 .22.34zM44.49 491.22l.12.39-.59-.26zM6.53 53.85l-.35.4.14-.88zM167.2 242.37a1.22 1.22 0 01-.42.14c-.12 0-.23-.16-.34-.25.14 0 .28-.15.42-.13s.23.15.34.24zM1004 500.19l1.75.26c-1 1.11-1.39.59-1.67-.35zM430.14 43c-.63-.26-1.53-.39-.58-1.45l.4 1.62zM368.67 267.84l-.31-.15.44-.27zM104.41 257.57a6.21 6.21 0 01-.89.3c-.09 0-.23-.23-.34-.35l1.18-.22zM100 258.57l.46-.17.14.6a1.41 1.41 0 01-.48-.1c-.12-.04-.12-.22-.12-.33zM427.02 153.24l-.09-.45.32.07-.23.38zM94.34 260.44c-.31.8-.72 1.24-1.63.33l1.74-.22zM232.86 159.63l-.47.15-.15-.62a1.4 1.4 0 01.51.09c.08.05.07.25.11.38zM86.48 28.61l-.47-.22.5-.15-.03.37zM960.12 514.91l-.48.16c0-.21-.09-.41-.13-.62a1.59 1.59 0 01.5.1c.08.04.08.23.11.36zM920.83 220.28c0-.09.1-.27.16-.27a1.29 1.29 0 01.41.1c0 .1-.1.28-.15.28a1.38 1.38 0 01-.42-.11z"/><path d="M94.45 260.55c.13-.29.27-.57.4-.85.74.87-.13.63-.51.74zM123.25 251.3l.31.19-.15-.14zM167 273.41l-.16-.35.13.41zM234.59 277.93l.8.67-.8.6.14.11v-1.47zM176.4 286.19l-1.4-1.36-.08.18 1.28 1.27zM263.33 290.09l.15.41-.39-.05.24-.36zM973.72 220.8l.41-.52c0 .11 0 .27-.09.31a1.43 1.43 0 01-.43.11zM243.28 291.79l-.42.08.26.03.16-.11zM237 294.44h1.32l.07-.14h-1.44zM388.09 295.56l-.34-.17.23.24.11-.07zM26.63 217.28l.11-.38-.2.28zM228.94 299c-.52.65.26-.05.16.16zM186.9 301.49l-1.34-1.34-.09.18 1.39-.06-.1-.14v1.44zM759.62 216.17l-.58-.63.41.79zM66.92 201.68l-.14-.35.34.03-.2.32zM190.37 306c-1.39-.37-.49-.76 0-1.15l-.17-.09v1.36zM364.59 196.17c-.52.65.32-.12.16.15zM206.58 320.21c.22-.25.44-.49.65-.74l.63.74.14-.21h-1.48zM298.92 325.92c.41.44.83.87 1.25 1.31l.12-.17h-1.34l.08.14v-1.39zM309.76 334.13l-.21-.4.11.33zM314.21 342.46l.4-.19-.36.12zM226.53 190.29l-.28.25.38-.13-.1-.12zM113.24 346.95l.15-.35-.31.19.16.16z"/><path d="M112 348.28l1.28-1.33-.16-.16-1.26 1.35zM231.45 163.26l-.55-.09.4.26zM426.7 159.72c.21.25.64.69.6.74-.71.83-.74 0-.93-.41zM426.37 158.74l.29-.08-.42-.07.13.15zM382 383l-.29.46h.36l-.14-.34zM392.72 397.43l-.74.41.42-.73zM971.21 398.45l.2-.22-.33.15.13.07zM479 410.1l1.23 1.15.15-.05-1.35.06.09.14V410z"/><path d="M480.21 411.25v1.28l.14.07v-1.4zM369.37 415.12c-.1 0 .2-.38-.14-.15zM967.88 422.94h-1.29l-.07.13h1.43zM220.5 441.54c.48-1.1 1.05-.83 1.66-.13l-.65.55a.45.45 0 01-.59-.11zM495.58 443.19l.09-.38-.14.23.05.15zM623.79 446.52h.43l-.28-.19zM372.62 453.27l-.33.88-.69-.89-.17.2h1.34zM867.92 460.86l.1.31-.29-.05.19-.26zM370.19 465.07l.2.42-.12-.36zM236.09 61.65l-.54-.12.38.28zM51.14 484.87l-1.2 1.25.06.09a1.16 1.16 0 01-.14-1l.32-.32h.54l.52.18zM1008.73 498.9l-.28.37.41-.24zM566.82 41.86l-.23-.28.11.39.12-.11zM646.25 39.53v1.28l.15-.15H645l.09.07 1.26-1.07zM646.39 39.67l.29-.83c.75.78-.22.5-.43.69zM808.72 6.68a5.94 5.94 0 01.66-.65c.77.6.18.79-.34 1zM828.59 267.45h2.53c-.85.76-1.69 1.26-2.53 0z"/><path d="M831 267.56c.43-1.23 1.49-1.25 2.54-1.3zM853.39 268.68l-.24.27.36-.25-.12-.02zM664.55 294.82l.08.32-.29-.06.21-.26zM811.86 355.67v1.25a3.28 3.28 0 01-.3-.7 1.47 1.47 0 01.06-.54zM893.69 355.29h-.26l.12-.38.14.38zM881.22 372.77l.16-.18-.3.07.14.11zM1019.58 456l.24-.25-.35.13zM1018.06 457l-.06-1.35 1.58.37-.11-.12z"/><path d="M1017.21 457.07a1.26 1.26 0 001-.23l-.46.28zM929.47 502.39l-.13.13zM789.82 92.28h6.41c-3.4 1.18-3.4 1.18-6.25-.17zM847.53 98l-2.17-1.71c2.06-.52 1.47 1.2 2 1.85zM804.62 92.78c-.15 0-.31.16-.45.14s-.25-.18-.37-.27c.16-.05.32-.16.46-.14s.24.18.36.27zM719.06 127.55c-.08 0 .1-.27-.14-.14zM839.29 96.84l.19.24-.1-.24h-.09zM839.38 96.84l-.2-.32.11.32zM824.1 48.8l-.48 2.69-3.24-.22c.93-1.27 1.88-2.54 3.72-2.47zM299 89.61c-.34-1.53-.57-2.57-.84-3.81 1.61.74 1.61.74.84 3.81zM296.66 114.93l.52-4c.56 1.87.82 2.9-.52 4zM66.47 63H65z"/></svg>