<svg data-name="Layer 1" xmlns="http://www.w3.org/2000/svg" viewBox="0 0 1026.08 527.91"><path d="M212.89 6.17a23.32 23.32 0 003-2.55A9.91 9.91 0 00217 .83a17.93 17.93 0 003.4.17 15.91 15.91 0 003-.95c.94.92-.56 2.37 1.51 2.82 2.42.54 4.26 2.53 5.63 4.56 1.59 2.34 3.47 2.51 6.07 1.17.21 1.3.36 2.2.51 3.1.11.71.22 1.43.31 2 1.28.34 2.09-1 3.36.2a36.29 36.29 0 016.8 7.75c2.71 4.43 4.66 9.46 8.89 12.85.94 2.79 3.29 4.75 4.09 7.75.66 2.48 2.58 4.62 4.24 7.41a21.44 21.44 0 00-1.09 1.87c-.84 1.7-5.86 7.31-7.59 8.49-3.33 2.29-6.57 4.72-10 6.91a69.9 69.9 0 01-7 3.82c-1.18.59-2.34.87-3.13 2.28-.41.75-2.25.77-3.46 1-6 1.26-11.4 4.33-17.12 6.43-8.68 3.19-17.57 5.81-26.13 9.37a88.64 88.64 0 01-9.4 2.85 32.13 32.13 0 00-5 1.45 40.59 40.59 0 00-4.89 3.3 9.61 9.61 0 012.42 9.5 39.34 39.34 0 00-.87 11.57 93.59 93.59 0 01-.82 15.07 46 46 0 00.19 8.7 10 10 0 001.31 3c1.46.47 2.71.94 4 1.24a4.24 4.24 0 002.18 0c4.63-1.51 9.25-2.52 14.19-1.49 1.65.34 3.47-.13 5.22-.18s3.53-.36 5.13.07a12.4 12.4 0 006.33.21c4.77-1.19 9.6-.78 14.4-.9 9.27-.24 18.55-.39 27.87-.58 1.23 1.19 1.14 2.73 1.17 4.28 0 2.94.23 5.86 2.42 8.18.24.26.53.85.42 1-1.54 2.14 1.93 2.94 1.25 5-.4 1.21.13 2.7 0 4a10.56 10.56 0 01-.8 2.14c-.81 2.59-1.09 5 .6 7.59.72 1.1.2 3 2.22 3.88-2 2.22-2.82 4.63-.67 7.47l2.22-.88c1.36 3-1.67 4.5-2.4 7.07.32.91.75 2 1.05 3.08.25.92.34 1.87.52 2.92l-3 1.56c0 .44-.15.92 0 1.14 1.41 1.76 2.88 3.47 4.32 5.18 1.56-.87 1-2 .66-3.06l-.07.15c1.42.43 1.35 1.59 1.53 2.78.39 2.57-.6 5.52 2.57 7.31l-2.16 1.76 2.27 2.14-8.32 2.53c-1.63-1.92-3.59-3.27-6.44-2.3a3.86 3.86 0 01-2.82-.22c-2.15-1.22-4.09-.52-6.14.13a10.21 10.21 0 01-2.62.16c.07-2.49 2.43-1.22 3.06-2.58a1.62 1.62 0 00-2.36-1.5c-2.42.88-5.29.78-6.78 4.09-.8-1.79-1.16-2.6-1.49-3.36-.81-.13-.81-.13-3 4-.57-.34-1.43-1.11-1.69-.95-2.2 1.4-4.27 2.45-6.72.43-.31-.26-1.37.26-2 .56-2.28 1.1-4.72 1.19-6.57-.37-1.66-1.4-3.55-1.56-5.35-1.93-2.14-.44-4.2-.64-4.75-2.74-2.45-.51-4.15 1.46-6.19.34-.33-.19-1.23.5-1.79.9-1.54 1.12-3 2.3-4 3-3.08.71-4.9-2.09-7.47-.8.27.89.51 1.73.76 2.57h.16c-2.06-.91-3.07.93-4.76 1.8 1 3.39 2.54 6.49 5.49 8.37 1.84 1.17 1.74 2.69 2.42 4.89l-2.71-1.36-1.43-1-1.14-2.6-.7.47 2 2 1 1.42c.24 2.79 2.94 4 3.85 6.35l3.9.34c.68 1.68 1.23 3.61 3.35 4.6 1.07.5 1.59 2.13 2.44 3.18a15.89 15.89 0 002 1.92c1.45 1.22 3.24 2.18 4.37 3.65a103.11 103.11 0 018.21 12 25 25 0 004.3 5.25c4.2 4.3 8.28 8.72 12.44 13.06a22.19 22.19 0 004.18 3.94c1.68 1 2.76 2.29 2.69 4.12a6.44 6.44 0 004.64 6.66 9.11 9.11 0 014.41 3.49c2.09 2.79 3.87 5.83 6.12 8.47 1.38 1.63.27 3.36 1 5.24 2.74 1.08 5.35 2.68 5.66 5.84-2 3.3-3.74 6.28-5.59 9.19-.93 1.45-2 2.78-3.08 4.15-.46.6-1.25 1.13-1.37 1.78-.45 2.51-1.29 4.38-4.26 4.66-.68.06-1.55 1.24-1.8 2.07-1.72 5.67-6.62 9.44-8.79 14.84a2.51 2.51 0 01-1.24 1.14c-1.95.89-2.75 2.47-3.38 4.44-.43 1.35-1.32 2.9-3.36 2.28v.16c-1.77-1.11-3.44-1.58-5 .46a12.86 12.86 0 01-2.46 1.94c-3.37-5.88-6.57-11.86-12.48-15.81-.44.95-.77 1.64-1.09 2.34l.16-.17-3.52-4.58-.16.16 2.15-.24c.84-.86 0-1.41-.42-1.93-2.72-3.49-5.24-7.13-8.75-9.93a28.65 28.65 0 01-3.08-3.41l-.19.07.86-1-.86-.43.23.17v-6.17l-5.09-1.49-.08.14c0-1.63-.2-3.23-2.43-3.11-1.91.11-2.85-.87-3.31-2.59a7.7 7.7 0 00-1-2.69c-.5-.62-1.52-.83-2.52-1.32a12 12 0 00-.8 2.59c-.43 8.52-1.4 17-2.61 25.41-.1.75.18 1.57 0 2.31-.54 3.18 1 6.27-.26 9.64-1.11 2.92.32 6.48-1.19 9.56.3 5.86-1.31 11.47-2.11 17.19-.27 1.91 0 3.9-1.42 5.5a1.32 1.32 0 00-.28 1.09c1.19 4-.73 7.62-1.24 11.41-.63 4.58-.12 9.21-.55 13.82-.24 2.67.15 5.41-.13 8.08a19.32 19.32 0 001.3 9 19.7 19.7 0 00-2.13 9c.07 2.13.15 4.71-1.93 6.48a2.27 2.27 0 00-.48 2.11c1.35 2.08.33 4 .09 6.05-.5 4.23-.48 8.51-.72 12.78-.13 2.49-.25 5-.57 7.47-.19 1.5-1 2.94-1.08 4.43 0 1.26.94 2.57.9 3.83a47.47 47.47 0 01-.91 7.41c-.88 4.51-1.93 9-3 13.71L152 506l-2.84 5.42c-5.54-1.14-10.95.52-16.4 1-2.58.21-5.06.36-7.26-.61-2.79-1.23-5.59-1.32-8.5-1.56-3.54-.28-7.47 1.05-10.49-2a7.1 7.1 0 01-6.71-1.55c-.5-2.3-.92-5-3.78-6.38a3 3 0 01-1.53-3.46c.12-.47-.63-1.54-1.17-1.69-2.31-.64-2.18-2.67-2.33-4.25-.1-1.13.76-2.35 1.44-4.18-.1-.13-.65-.85-1.17-1.59a5.43 5.43 0 01-.62-6c1-1.75 1-3.25-.22-4.65 1.39-2.05 2.57-3.81 3.89-5.74l-2.76-3.22 2.56-2.91c-.61-2.22-2.06-4.28-2-6.8a17.39 17.39 0 00-1.28-6.61 9.62 9.62 0 01.09-7.48l4.63 1.08.21.05-.35-.17c.29-.82.56-1.65.86-2.47s.6-1.62.9-2.43l-.16.12c.09-.16.29-.34.27-.49a6.78 6.78 0 00-.3-1l.17.26-1.36-1.36.19.11a32.4 32.4 0 01-1.46-4.22c-.14-.64.23-1.93.64-2.05 2.85-.85 1.7-2.84 1.84-5.24-.89.64-1.26.86-1.57 1.14s-.69.7-1.51 1.56c-.39-5.86-.3-11.17-2.08-16.6L90 413.07l-.13.05c1.26-1.51-.24-2.95-.12-4.86l4.84-2.81c.16-2.15.42-4.45.47-6.76.12-5.5.08-5.5 2.49-9.87-2.59-3.66-1.53-7.6-.7-11.5.89-4.17 2-8.26 2.58-12.55s-.31-8.31.78-12.4l-3.67-3.47c-.35.1-.82.1-1 .33-2.66 2.8-5.47 5.48-7.09 9.1a12 12 0 01-1.45 1.84c-3.77 5.39-7.61 10.72-11.25 16.19s-6.67 10.95-11.6 15.21c-2.21 5.71-7 9.62-10.1 14.73a6 6 0 00-.29 2.21v.06c-2.4 1.47-2.4 1.47-1.55 4.76l-2.79.37-1.58 3 .18-.13-1.4 1.43 1.45 1.15-.19-.11-2.4 3.31a2.45 2.45 0 00-.3.44c0 .06.08.19.13.28v-.87l2.22-.24c.11.45.39.92.26 1.16-.9 1.65-1.88 3.25-3 5.24l-.51-1.53c-.62-1.91-2.06-2.76-3.31-1.73a38.85 38.85 0 00-3.76 4.19l5.32 2.71c-.85 1-2.31 2-2.34 3-.08 2.07-1.32 1.3-2.27 1.47.11-.77.22-1.49.36-2.46l-2.38-.19c-.1-.1-.51-.34-.5-.57 0-2.74-.72-4.79-3.5-6.08-1.83-.84-3.29-2.48-5.24-4a20.25 20.25 0 00-.07-4.16 12.28 12.28 0 00-1.66-3.68 48.27 48.27 0 01-4.83-10c-.5-1.64-1.75-1.87-3.29-1.35-1.31-1.69 1.86-3.64-.27-5.25 1.49-1.82.5-3.1-.76-4.54a39.07 39.07 0 01-2.89-4.35c-.79-1.19-1.33-2.31-.3-3.73.48-.66 0-1.21-.84-1.69-1.8-1-1.51-4-4-4.48a3.68 3.68 0 010-1c0-.75.32-1.62 0-2.25-2.2-5.23-4.57-10.29-6.83-15.4a3.73 3.73 0 01-.05-2.15 3.73 3.73 0 00-.87-3.72c.51-2.11 3.72.31 3.92-2.33l4.24-1.77-.09-.16c.48.55 1 1.34 1.42 0l-.2.22c.8-.46.5-.94 0-1.43l.16.09c.47-.27.93-.76 1.42-.79 1.86-.12 2.23-1.14 1.88-2.72.3-.18 1.33.14.55-.8l-.42.93c-.39-.37-1.18-.93-1.11-1.09 1-2.2 1.54-5 4.83-5 1.88-1.89 4.37-3.49 5.46-5.77 1.2-2.49 3.47-4 4.59-6.46 1-2.25 2.74-4.18 4-6.32a61.85 61.85 0 003.12-5.85c.61-1.3-.23-2.19-1.31-2.85v.16c2.36-2.07 4-4.8 6.73-6.58 1.36-.89 2-2.82 3.06-4.19 1.3-1.66 2.73-3.22 4.08-4.83a15 15 0 001.33-1.76c2.44-4.11 4.51-8.38 8.1-11.8 2.77-2.64 4.9-6 7.15-9.11a3.67 3.67 0 00.21-2.69c-.35-1.35.26-1.1 1.2-1.62a12.85 12.85 0 004.19-4.49c2.48-3.93 4.69-8 7.19-12.37l-1.2-4.27a28.06 28.06 0 002.19-1.87c2-2 3.7-4.07 4.51-7.06 1.54-5.66 4.64-10.64 8.19-15.32.78-1 1.4-2.19 2.14-3.37-1.69-2-2.92-4.06-5.74-3.77-.18 0-.45 0-.56-.06-4.52-4.35-10.2-2.59-15.45-2.86-3.49-.19-7 .13-10.49 0-2.3-.09-4.57-.76-6.86-.88a103.72 103.72 0 00-10.43-.11c-5.41.27-10.79.89-16.23.44-1.48-.12-3 .53-4.54.66-1.3.12-3-1.57-2.43-2.63 1.45-2.75.28-5.26-.09-7.9a26.21 26.21 0 010-5.24c.13-2.11.48-4.06-.8-6.15-.81-1.33-.81-3.42-.58-5.08.45-3.2-.83-6.48.65-9.63.22-.48-.51-1.4-.8-2.11a3.74 3.74 0 001.1.05c.14 0 .17-.49.25-.75-.18 0-.45-.1-.53 0a6.93 6.93 0 00-.63.9c-.45-.29-1.31-.66-1.28-.88.47-3.09-.38-6-.8-9-.22-1.57-.21-3.08 1.16-4.22a9.41 9.41 0 001.74 7.28c.6-.69 1.08-1.2 1.51-1.76s1-1.38 1.58-2.18c-1.16-.64-2-1-2.76-1.54s-1.47-1.12-2.2-1.68c-.5-1.54-2.26-2.69-1.36-5l1.86 2.77c2.72-2 4.05-4.76 5.21-8a7.29 7.29 0 012.54-.08c5.86 1.75 11.53 0 17.27-.72a123.57 123.57 0 0113.22-1.35c9.87-.15 19.75-.78 29.59-1.59 3.45-.28 6.85-.87 10.37-.89 2.56 0 5.12-1.15 7.83-1.82.68-3.63.66-7.33 2.67-10.51.44-.7.22-1.9.1-2.85a44.5 44.5 0 01.59-13.86c.88-4.74 1.35-9.56 1.83-14.36a2.88 2.88 0 00-1.13-2.39c-1.65-.69-3.68-1.14-5.26-.28a66 66 0 01-6.48 2.93 44.94 44.94 0 01-6.53 2.4 43 43 0 01-6.89.84c-1.37.1-1.59-.93-.69-2.83-2.89-.11-2.89-.11-3.36 3.33-3.26 1.12-6.58 2-10.13 1.55-1.87-.24-3.6 1.52-5.61.3-.41-.25-1.54.23-2.07.68-1.94 1.71-3.88 1.58-5.86.22a3.9 3.9 0 00-4.25-.63c-1.21.5-3-.3-4.29-.49-1.31-1.55-2.63-2.94-3.76-4.46-1.47-2-3.35-3.87-4.07-6.12a48.44 48.44 0 00-7.54-14c2-2.36-.84-3.71-1.08-5.59l.06.06c.85-.47.48-1 0-1.46h.06c.67-2.36-.95-4.92.62-7.26.15-.22-.89-1.08-1.14-1.74-.77-2.06-.89-4.65-2.25-6.12-1.58-1.72-2.55-3.78-4.07-5.45-1.3-1.43-.86-2.81-.12-4.5-1.63-1.59-4.48-2.35-4.53-5.68 1.16-2.64 3.27-3.62 6.33-2.58.91.3 1.84.53 2.77.79l.04-.31 1 .78.39-.81v.09l1.6-2.71c5-.89 10-2.06 15.12-2.62 3-.33 6.05.16 9-.6A25 25 0 0057 38.9l-.17.05c.17 1.35.22 2.82 1.74 3.39a6.79 6.79 0 003.24.66c2.63-.49 5.42 0 7.91-1.44.71-.41 1.88-.05 2.84 0l-.13-.2c-.37.61-.75 1.22-1.66 2.69 5.55-.66 9.88-2.35 14.35-3.54l-6.85-.33.19.17c3.78-2.33 8.13-2.11 12.3-2.66.59-.08 1.3.59 1.94.94 1.47.82 2.15.58 3.07-1.08.61-1.1 2.83-.72 4.25-.7 3.35 0 9.24-1.1 11.43-2.76.17-.13-.15-.92-.31-1.74 6.65-1.81 13.32-3.67 20-5.44a32 32 0 015.15-.87c1.33-.13 2.22.49 1.63 2.5 5.13-1.38 9.73-2.73 14.39-3.84 6.37-1.52 12.79-2.81 19.17-4.28 2-.47 4.36-.76 5.88-2a7.9 7.9 0 016.12-1.93c1 .09 2.19-1.31 3.28-2l-.14-.08c.32.67.64 1.33 1.12 2.35a38.45 38.45 0 004.65-1.38c1.91-.81 3.59-2 5.92-1.53a3.51 3.51 0 002.55-1.08 8.82 8.82 0 015.49-2.79c1.37-.1.9-1.43 1.39-1.95 1.36-1.43 3.32-1.75 5.24-2l.13 1.8-.85-.05c.09.05.21.18.27.15a2 2 0 00.44-.26c1.21-.62.9-1.09-.08-1.5zm-93.57 26l-.22.23.09-.37.24-.24zm-31.71 146l.2-1.25.14-.14c-.07.5-.14 1-.22 1.5-.37.13-1.33-.06-.41.77.1-.37.2-.67.29-.96zM179 289.25l-.37-.16h.53l.06.24zm-64.5-114.64c.64.12 1.1.1.55-.7l-.44.81a1.31 1.31 0 00-.46.14c-.06 0 0 .22 0 .35zm76.18 137.69l.08.38-.11-.23zm-29.42-5.92l1.33-.79c1.81.12 2.36-1.2 2.36-2.53a7.17 7.17 0 00-1.12-2.93c-.09-.18-.72-.22-1-.11s-.78.48-.76.7c.15 1.66.41 3.3.64 5l-1.46.87v.27zM146 441.08a3.23 3.23 0 00-.63.89c-.05.21.23.51.36.77.17-.26.47-.52.47-.79a3 3 0 00-.34-1l.82.06c-.09-.06-.2-.19-.26-.17a2.31 2.31 0 00-.42.24zm-17.14 54.33c-.87.09-2.3-.62-1.9 1.4l1.78-1.56zm20.84-252.73l-1.35.73.54.93c.24-.21.58-.39.67-.64a3.69 3.69 0 000-1.15zM134.58 28.86c-1-.36-2.12-.87-3.12.94 1.34 0 2.35.14 3-1.08l.12-.18zm3.06 438.83c.34-.06.92 0 1-.21a7.3 7.3 0 000-5.44c-1.29 2.08-.79 4-.83 5.8a1.92 1.92 0 00-.09.56 8.78 8.78 0 00.29 1c-1.68 3.47-.51 7.61-2.37 11.46l-2-3c-.83 2.73-1.35 5.32-3.58 7.19-1.13.95-.56 2.45.83 3.52a26.39 26.39 0 011.95-3.53 5.79 5.79 0 012.55-2.16c1.12-.34 2.46 0 3.85.09.57 1.63 1.32 3.19 3.45 2.75 1.55-1.54 1.52-3.26 1.22-5-.13-.75-.21-2.08-.51-2.14-3.65-.71-2.28-4-3.29-6-.55-1.11-.37-2.85-2.23-3zm-21.92-40.54c2.06-1.15.4-2.14-.25-3-.19-.26-1.1 0-2.09.09l2.45 3c-.48.05-1.21-.06-.47.75zM36.32 197l-2.83-1.68c-2.53 1.54-2.53 1.54-2.24 3.59 1.72-.57 3.72-.23 5-2a1.24 1.24 0 00.48-.06c.07 0 .05-.25.07-.38zm125.94 168c.91 1.27 1.59 2.44-.07 3.76-.9.73-.49 1.62.39 2.25.17.29.34.58.52.87l.62-.84a8.87 8.87 0 00.14-8.36l-1.44 2.46a7.71 7.71 0 00-.77 1.29c0 .1.43.4.67.61.09-.16.27-.33.25-.48-.07-.56-.2-1.06-.31-1.56zm-.86 18.87l.12.25-.25-.12c1.84-2.06 1.77-4-.46-6.16-2.56 2.8-1.52 5.91-1.31 8.85 0 .27.89.48 1.35.71 1.03-1.17-1.24-2.63.55-3.55zM221.07 336c.28-.61 1-1.57.76-1.79-2.82-3.29-5.29-7-9.8-9.11-.15.85-.59 1.83-.32 2.08 3.13 3 5.2 7.18 9.5 9a1.77 1.77 0 00-.46 0c-.08 0-.14.16-.21.25zM52.44 87.92c1 1 1.47 2.08.48 3.5a2.06 2.06 0 00.47 1.94 2.24 2.24 0 002 .06 8 8 0 002.16-1.79c.89-.93.1-1.72-.37-2.51l.15.15L59.8 87c-3 .14-5-1.8-7.54-.61l.12-.41-.16.26.37 1.87c-.2.37-1.65-.22-.78 1zm97 248.47a24.51 24.51 0 012.38-6.79c.75-1.31-.12-2.36-1.93-2.53-.45 0-1 .43-1.62.76.95 2.78-.37 5.78 1.32 8.41a7.22 7.22 0 01-.69 1.52c-1.43 1.93-1.44 1.91-3.94.25-.21-.13-.63.07-.94.11-.58 1.33-.4 2.34 1.19 2.54 2.13.27 2.84 1.54 3 3.53.13 1.4-.24 3.08 1.28 4.23.77-1.59 2-6.4 1.67-7.35-.49-1.59.1-3.6-1.74-4.68zm9.52 92.24c1.12-1 2-2.57.87-3.47-1.87-1.55-1.57-3.32-1.47-5.2.19-3.83.4-7.66.6-11.48l.25-.13-.12.26c-.7.58-1.71 1-2 1.79a12.4 12.4 0 00-.74 3.94c-.44 7.32-.62 14.65-1.27 22-.59 6.5-.47 13.09-2 19.5a6.83 6.83 0 00.74 5.59 1.85 1.85 0 001.41.73 1.72 1.72 0 001.27-.9 16.35 16.35 0 00.6-3.41c.41-4.61.48-9.27 1.22-13.82a80.87 80.87 0 00.76-15.46zm6.87-105.26c-1.46-3.9-.4-8.89-4.92-11.61-1.71 2 .32 2.88.55 3.41a76.22 76.22 0 00-.83 23.44c.82-.72.31-2.52 2.08-2.34a2.29 2.29 0 00.22-1.23c-.23-.67-1-1.29-1-1.88.18-2.12.72-4.21.95-6.32.19-1.84 1.45-2.61 2.93-3.47zm-51 165.12a19.15 19.15 0 00-2.12 3.18c-.85 2.19.07 3.56 2.6 4 2.27.36 4.57.55 6.72.79 1.66-3.5-.66-5.28-2.28-7.29-.18-.22-.66-.22-1-.31l-1.37 2.54zM148.62 278l.88.28 4.79-7.42c-3.41-1.61-1.62-5.13-2.76-7.59-1.8-.19-2.85.56-2.88 2.18-.09 4.21-.03 8.4-.03 12.55zm-27.78 92.35c3.49-4.79 3.58-9.84 2.88-15.14-1.79.12-3 .56-3.17 2.24-.35 3.8-.69 7.59-.93 11.39-.03.41.63.84 1.22 1.54zm8.87-267.5c-1.27-.24-2.56-.89-3.32-.5a4.38 4.38 0 00-1.82 2.78 8.86 8.86 0 00.4 3.42 4.23 4.23 0 00.71 1.43c2-.81 1.49 2.8 3.89 1.8a28.5 28.5 0 01-.47-4 43.54 43.54 0 01.61-4.9zm103.2-49.22c.54.2 1.15.65 1.49.5 1.7-.77 3.33-1.69 5-2.58-1.21-1.56 1.23-3-.53-4.66-2.64 1.58-5.26 3.11-5.96 6.77zM141 362c.62-1.72 1.23-3.43 1.85-5.17-.79-1-1.47-1.92-2.17-2.79-.06-.07-.34 0-.86.1-2.13 2.63.57 5.07 1.18 7.86zm11.84-68.5c-1.55 2.58-2.43 4-3.21 5.41-.1.18.27.62.38.86h2.83zm61.76-86.25a6.81 6.81 0 00.74-1.49 21.82 21.82 0 000-2.29c-3.52-.83-3.52-.83-4.05 2.27zm-70.2 252.41l2.49.66c1.76-2 1.72-3.87-.25-5.76-.85 1.44-.2 3.78-2.2 5.06zm7-417.49c2.41-1.18 5.16-2 6.18-5.82-3.7.76-4.43 3.9-6.12 5.78zm89 133.19c-1.39-1.6-2.94-2.34-5.31-.8.66.89 1.12 2.13 1.94 2.47 1.42.53 2.64-.29 3.4-1.71zM116.7 318.61c.09-2.56.24-4.17.16-5.76 0-.53-.62-1-1.11-1.77-1.66 2.73-.48 4.63.95 7.53zm66.72-137a6.9 6.9 0 00-.09-2.65c-.22-.45-1.27-.67-2-.67-.37 0-1.12.78-1 1a3.71 3.71 0 001.16 1.71 6 6 0 001.93.66zm-68.11 251c.89.65 1.78 1.46 1.91 1.35a4.7 4.7 0 001.57-2.07c.09-.32-1-1-1.48-1.46zM153.47 244c-1.35 1.8-1.35 1.8-2.07 5.91 1.6-1.27 1.6-1.27 2.07-5.91zM159 404.89l1 .19c.19-1.8.47-3.6.53-5.41 0-.83-.56-1.32-1.57-.77zM114.65 466l.92.35a25.1 25.1 0 001.33-3c.34-1.09-.1-1.75-1.69-1.53zm-9.86-107.58c.71-2 1.51-3.35.54-5.48-.92 1-1.5 1.7-2.14 2.41.46.82.88 1.65 1.6 3.02zm25.93-125.65c-2.19.34-2.16 1.77-1.95 3.24.14.94.74 1.17 1.73.63zm30.56 158.63a2.14 2.14 0 00-2-2.62 1.7 1.7 0 00-1.33.8 2.19 2.19 0 001.72 2.59c.57-.03 1.2-.62 1.61-.82zm61.14-180.93c-.78-1.45-1.62-2-2.87-1.61a1.62 1.62 0 00-.86 1.2c0 .35.61 1 .94 1a15.37 15.37 0 002.79-.64zM95.54 415.85h-.68l.18 3.88h.5zm74.21-89.47a11.7 11.7 0 00-2.83.41 2.28 2.28 0 00-.87 1.22c-.09.25.22.65.35 1 .43-.31.87-.6 1.28-.92s.81-.67 2.07-1.71zM152 309.55a13.21 13.21 0 00-2.38.29c-.39.11-.95.62-.93.9.12 1.41 1.37.94 2.16 1.06 1.41.2 1.4-.8 1.15-2.25zm-7.08 128.24l1.15.07a13.91 13.91 0 00.87-2.49c0-.31-.57-1-.91-1s-1.12.45-1.17.79a13 13 0 00.07 2.63zM135 230.14a5 5 0 00-.29 1.77 6 6 0 001 1.69s.35-.06.48-.16c.8-.63.55-1.29 0-1.93-.31-.44-.7-.84-1.19-1.37zM149.2 358a23.24 23.24 0 001.14-2.41c0-.11-.63-.64-.76-.57-.45.23-1 .58-1.14 1s.31.98.76 1.98zM123.52 32.75l1-.56a4.68 4.68 0 00-1-1.06c-.19-.11-.64.22-1 .35.4.43.71.85 1 1.27zm126.15 183.86c-.48-.82-.87-1.69-1-1.65a21.8 21.8 0 00-2.71 1.12l.22.8zm-30.48 142.66c.29-.2.82-.4.83-.62a5.54 5.54 0 00-.26-2c0-.16-.67-.14-1-.2v2.52c-.03.12.24.21.43.3zM35.31 44c1.42.66 2.84 2 4.36 0zm115.56 443.48l.93.13a14.4 14.4 0 00.68-2c.14-.77 0-1.62-1-1.58-.3 0-.75.78-.8 1.23a10.56 10.56 0 00.19 2.22zm.94-6.2l.92.05c0-.69.07-1.39.11-2.08l-.4-.09zM215.26 63c.31.19.61.5.94.54a1.71 1.71 0 002.09-1.37 1 1 0 00-.53-.76 1.91 1.91 0 00-2.33 1 3.38 3.38 0 00-.17.59zm-68.43 399.19a8.59 8.59 0 00-1.26 1.89 3.54 3.54 0 00.25 1.46c.42-.33 1-.57 1.2-1s-.02-1.05-.19-2.35zm38.38-281.72l.13.94a4.94 4.94 0 001.61.29c.43-.06.81-.51 1.21-.79-.36-.34-.7-.94-1.07-1a6.3 6.3 0 00-1.88.56zM39.66 167.62c-.41-.13-1-.53-1.33-.37a7.3 7.3 0 00-1.46 1.43c.46.17 1 .55 1.37.46.64-.14 1.58-.22 1.42-1.52zm125.18 141.43c-.84-.53-1.36-1.08-1.69-1a1.59 1.59 0 00-.87 1.21c0 .42.53.85.83 1.27zm-21.19 26.77a6.69 6.69 0 001.13-1.44c.09-.23-.27-.63-.44-1-.44.24-1.1.37-1.28.74s.28.88.59 1.7zm25.52-.93c-1.95 1.83-1.95 1.83.31 3.09zm50.35-320c.23.46.39 1 .55 1a6.24 6.24 0 001.51-.35c-.2-.36-.35-1-.59-1a4.07 4.07 0 00-1.47.36zm-56.8 343.59l.72.06a12 12 0 00.29-1.86 2.86 2.86 0 00-.42-1c-.19.25-.53.48-.56.75a17.53 17.53 0 00-.03 2.06zm63.43-143.2v-.7l-2.33.22v.48zm-91.41 28.54l.77-.08-.21-2.45h-.56zm9.84 84.11h-.55l-.17 2.29h.72zm-9.9-76.08c1.62-1.37.74-2.34 0-3.32zm22.06 230.95l-.62-.16c-.14.58-.27 1.16-.41 1.74l.55.14zM51.8 151.67c.39.33.54.55.67.54a19 19 0 002-.22s.08-.4.07-.4c-.65-.15-1.3-.31-2-.41-.11-.02-.27.18-.74.49zm100.28 153.76l1-.08-.41-2.52-.6.07zM40.31 69.64c-.16-.32-.23-.77-.49-.92s-.6.19-.92.3c.2.42.39.85.58 1.27zm129.89 36.18a22.24 22.24 0 00-.49 2.39c0 .17.33.36.5.54a1.29 1.29 0 00.21-.47c-.02-.51-.08-1.01-.22-2.46zM166 348.34c-1.23-.41-1.72-.6-2.23-.73-.13 0-.31.13-.47.21.2.22.37.6.6.64a10.87 10.87 0 002.1-.12zm-19.88 102.58l-.53-1.16a7.67 7.67 0 00-1.13 1.15c-.08.13.28.55.43.83zM96.54 174.55c-.27.75-.43 1.22-.6 1.69a6 6 0 001.45.43c.14 0 .54-.69.45-.84a7.87 7.87 0 00-1.3-1.28zm-47.65-93a5.39 5.39 0 00.91.4c.1 0 .39-.29.36-.35a5.33 5.33 0 00-.5-.77zm55.71 267.06c.27-.18.67-.32.77-.58s-.13-.59-.22-.9c-.26.18-.66.31-.74.54s.11.63.19.94zm136.93-171.06c.21.29.36.72.65.84s.63-.16.95-.26l-.79-1.16zM162.22 297a4.71 4.71 0 00-.86-.32c-.07 0-.3.29-.28.33.19.25.42.48.64.72zm29.43-116.18v.49h1.91v-.49zm4.22-108.06l-.47.09.15.76c.14-.11.35-.19.4-.33s-.05-.28-.08-.5zm-75 300.38l-.22 1 .68.09c0-.33 0-.67-.1-1-.03-.05-.23-.05-.38-.07zm-75.6-208.85c-.4-.3-.78-.68-.86-.62a8.57 8.57 0 00-1.07 1c.25.17.59.55.74.48a6.5 6.5 0 001.19-.86zm90.29 97.44l-.3-1.2a2.86 2.86 0 00-.84.47c-.17.2-.15.55-.22.84zm-100-70.05a5.75 5.75 0 00-1.36-.27c-.1 0-.37.77-.28.84a4.68 4.68 0 001.17.56c.14-.31.27-.63.47-1.13zm117 66.61a8.67 8.67 0 00-.84-.62s-.23.22-.34.34a7.22 7.22 0 00.81.55c.1.03.29-.17.41-.27zm-15.33-1.05c-1.39-.43-1.94-.79-2.26-.64s-.37.82-.43 1.27a1 1 0 00.76.35 12.75 12.75 0 001.97-.98zm-17.42 84.62a7.35 7.35 0 00-.23 1c0 .06.24.15.37.23.08-.34.19-.67.24-1 .05-.09-.19-.15-.34-.23zm82.41-28.79c-.17-.28-.29-.73-.53-.81s-.6.22-.9.35l.71 1zm-79 37.07c-.17 1.31-.27 1.83-.29 2.37 0 .13.23.28.35.42.2-.23.59-.47.58-.69a12.21 12.21 0 00-.65-2.1zM69.8 197.19c.19.28.33.72.59.8s.63-.19 1-.31l-.79-1.17zM52.51 43.35l-.6.72c.16.11.3.28.46.3s.34-.09.51-.15zm88.4 447.53c.12-.1.36-.21.36-.31a6.42 6.42 0 00-.2-1c-.17.13-.48.28-.47.4a3.31 3.31 0 00.31.91zm.17 4.07v-1h-.38v1zm82.13-453l-.59-1c-.32.22-.72.37-.91.67s.07.57.13.87zM193.38 210v.66l1.8.17.06-.83zm-69.1 120.22l.68.61c.1-.13.31-.31.28-.38a6.3 6.3 0 00-.5-.87c-.16.22-.31.42-.46.65zm11.1-93.58l1-.33-.51-.65c-.25.2-.5.4-.73.62-.05.02.14.24.24.37zM225 37.37a8.47 8.47 0 00-.65 1c0 .06.29.39.31.37a2 2 0 00.77-.6c.05-.14-.29-.51-.43-.77zM164.32 36c0-.17.06-.38 0-.5s-.29 0-.45-.07v.8zm-5.1-.94c.3-.38.62-.78.93-1.19-.41-.18-1-.63-1.2-.49s-.51.8-.75 1.23zm-35.07 305c.3-.18.72-.29.86-.56s-.06-.64-.11-1a4.89 4.89 0 00-1.14.65c-.08.09.24.6.39.9zM233 176.7v-.53h-2v.53zM158.51 40.84c-.13-.13-.27-.39-.38-.38a6.81 6.81 0 00-1 .33c.12.14.27.4.37.39a5.89 5.89 0 001.01-.34zm-3.24 453.43l-.41-.92c-.13.14-.37.3-.35.4a4.83 4.83 0 00.38.92zm2.28-19.27l-.21-.45c-.1.13-.26.26-.27.4s.12.31.19.47zm-11.9-3.59l-.23.36.31.07zm7.26-5.8c-.13 0-.33 0-.39.1a1.16 1.16 0 00-.11.47l.7-.14zm27.36-254.22c.1.16.22.46.28.45a5.69 5.69 0 001-.32c-.11-.14-.23-.42-.33-.41a5.28 5.28 0 00-.95.3zm25.39-141.46a4 4 0 00-.8-.34c-.09 0-.24.18-.37.28.17.2.36.56.52.54s.44-.3.65-.48zm-66.92 388.75h-.31l.11.44zm56.41-252.87l.46-.17-.46-.19zM57 200.94l.39.23.07-.33zm93.07 215.81h.31l-.12-.44zm-45.78-4.1l-.37-.23-.08.32zm15.82-3l-.37-.78c-.13.1-.4.24-.38.28a6.86 6.86 0 00.38.83zm37.28-11.35c-.15.08-.44.2-.43.25a5.81 5.81 0 00.33.91c.14-.09.41-.22.4-.29a4.72 4.72 0 00-.26-.91zm-16.22-1.59c-.13-.28-.26-.56-.38-.84-.14.11-.4.25-.38.32a6 6 0 00.38.87zM63.45 107.5c-.13-.09-.26-.25-.4-.26s-.29.11-.44.18c.13.09.25.25.38.26a1.1 1.1 0 00.46-.18zm81.42 160.29l.5-.21-.49-.21zm15.92-86.62c-.12-.1-.23-.27-.36-.29s-.3.1-.45.16c.12.1.23.27.37.29s.29-.1.44-.16zM125.64 114c.13 0 .38-.08.38-.13a1.91 1.91 0 00-.13-.51c-.13 0-.38.09-.38.14a1.48 1.48 0 00.13.5zm-16 237.75l-.39-.33a4.65 4.65 0 00-.37.86c0 .07.23.22.36.33.15-.29.28-.61.42-.86zm24.36-5.42l-.22.36.31.08zm31.55-3.59c-.1.14-.26.27-.28.42s.12.3.19.45c.1-.13.26-.26.27-.4s-.17-.31-.23-.47zm-29.33-1.34l-.15.5.54-.33zm-31.41-2.25c-.22.2-.59.38-.6.58s.23.56.37.85c.23-.17.65-.34.65-.51s-.31-.6-.47-.92zm19-6.32l-.39.23.22.36.57-.42zm78.53-7.39l-.52-.85c-.17.26-.49.52-.49.78s.31.58.48.87zm-53.4-4.77l-.15.44.62.06a1.3 1.3 0 00-.12-.46c-.11-.06-.29-.03-.42-.04zm56.88-4l-.5-.86c-.14.11-.41.27-.39.32a4.73 4.73 0 00.44.83zm-59.95-2.95h-.35l.14.46zm-29.39-8.38l-.22.36.31.08zM49.75 163.67a5.3 5.3 0 001 .33c.11 0 .25-.22.38-.35-.24-.17-.46-.46-.71-.47s-.42.3-.67.49zm141.44 131.79l-.18.26h.29zm-30.7 14.44l.34.35.35-.34-.52-.35zm59.7-306.51l.36.24v-.38zm-77.86 287.55l-.27-.17v.29zm66.6 31.63l-.27-.19v.29zm-2.15 9.35c-.1-.11-.18-.31-.29-.32s-.23.16-.35.25c.1.12.18.32.29.33s.23-.18.35-.26zm-41.12 8.24l-.28-.2v.31zm-61.2 10.49l.28.19v-.31zm36.23-.06l.26.18v-.27zm8.61 1.29l-.27-.2-.03.32zm13.78-80.55l.19-.27-.27-.06zm7.42-159.16l-.33-.4c-.13.12-.36.22-.37.35s.2.26.31.39zm.64 68.87l.26.2.06-.3zm-10.55 195.3l.28.19v-.31zM100 266.15c-.12.1-.32.19-.33.3s.17.24.27.36c.12-.1.32-.2.33-.31s-.17-.23-.27-.35zm53.84-1.15l-.19.27.3.05zm-36.32 147.42l-.19.27.29.05zm-19.8 3.39l-.19.28h.29zm49.12 14.05l-.25.36h.4zM71.21 199.78c-.13-.14-.26-.38-.39-.39s-.28.22-.43.35c.13.14.26.39.39.39s.28-.22.43-.35zm153.15 5.82c-.11-.12-.21-.33-.33-.34s-.24.18-.36.29c.1.12.2.33.32.34s.24-.19.37-.29zm-103.3 34.34c.12-.11.33-.21.33-.32s-.17-.23-.28-.35c-.11.1-.32.2-.33.31s.22.24.28.36zM243 51.35l-.4-.24v.41zM93 481.77l.19-.28h-.29zm160.62-265.68h-.88c.13.14.24.39.38.4s.29-.22.5-.4zM113.15 485l-.3-.18v.32zm42.19 2.45l-.3-.37c-.12.1-.33.2-.34.31s.18.24.28.37zm-23.4 5.86l-.29-.37c-.12.1-.33.19-.34.3s.17.25.26.37zm28.76-272.14l.25-.38h-.41zm-22.91 274.37l-.37-.44c-.14.13-.39.25-.4.38s.22.29.34.44z"/><path d="M292.15 244a3 3 0 001.28-3.68l-.18.16c1.5-1.85 2.58-3.78 1.35-6.25a1.71 1.71 0 01.11-1.14c1.14-3 1.27-6-1-8.91l2.85-2.21c-.54-2.22-1-4.86.25-7.42a2.14 2.14 0 000-1.61c-1.54-3.48.48-5.85 2.55-8.12l-2-3.17 5.73-12.5a9.12 9.12 0 01-2.39-2.22c-.57-1.06.46-2 1.08-3a46.09 46.09 0 003.53-7.8 4.33 4.33 0 00-.31-2.85 11.58 11.58 0 01-.26-7.4 4.75 4.75 0 000-2.82c-1.27-2.89-.76-5.29 1.84-7l-1.72-4.06a25.77 25.77 0 005.05-7.68c.4-1 .7-2.13 1-3.21.88-3.08 1.18-6.21 3.13-9.1a10.66 10.66 0 001.22-7.68c-.87-3.65.3-6.75 1-10 .07-.36.61-.73.54-1-1.4-5.58 2.15-10.74 1.34-16.28a11.57 11.57 0 01.32-3l3.91-2.44c-.17-.48-.21-1-.39-1-1.8-.52-2.32-1.57-2-3.46.62-4.33 2-8.6 1.35-13.08 1.39-3.44-.59-7.35 1.49-10.72a2.48 2.48 0 00.26-1.69c-.78-3.24.4-6.13 1.48-9a28.39 28.39 0 01-.37-17.18c-1.45-4.4-4.76-7.67-7.41-11.32 1.6-2.81 4.68-2.28 7.2-4.25.66-1.67 1.62-4.06 4.41-5.14A38.27 38.27 0 00348.63 16l-.16-.16c.6.32 1.36 1 1.76.87 2.73-1.13 5.51-1 8.37-.86a21.07 21.07 0 004.16-.67c1.06-.16 2.13-.24 4.07-.45l-3.46 1.53c1.27 2.59 3.46 3.39 5.52 4.28 1.15.49 1.67-.47 2.05-1.39l-.09-.13c1.4.51 2.58 1.95 4.31 1l4.66 1.98c2.5 2.34 3.24 2.64 6.28 2.49a29.24 29.24 0 015.18-.25c1 .13 2.63 1.52 2.52 1.83-.73 2.08 1.23 3.1 1.52 4.7a14.62 14.62 0 01.17 2.73c0 2.52-.12 5-.06 7.56 0 1.8 1.26 2.63 2.95 2.94v5.57l-1.89-2.37-.1-.3.19.39a75.18 75.18 0 00-2.79 17.67A32.91 32.91 0 01391.74 75 29.25 29.25 0 00390 86.89a18.49 18.49 0 01-.94 6.21c-.18.66-1.4 1-2.34 1.66-.51 2.15 1.65 4.44.18 7-.45.77.71 2.47 1.14 3.74-1.45 2.89-3.7 5.56-2.57 9.17-1.3 4.79-1.64 9.8-3.4 14.5a25.44 25.44 0 00-1.06 5.6c-.28 2.26-.15 4.6-.63 6.81a19 19 0 00.09 9.2c1.2 4.23.84 8.43.63 12.64a12.6 12.6 0 01-4.5 9.38c.64 1.74 2.41 3.44 1.57 5.59s-.89 5-3.44 6.39l.13.09c.21-1.72-.06-3.72.74-5.09 1.39-2.41-.48-3.44-1-5.54l-2.36 2.09c-.77-1.71-.53-4.22 1.19-11.36.89-3.73 1-7.49 1.28-12.31-1 1.2-1.52 1.52-1.6 1.92-.95 5.12-1.81 10.25-2.79 15.37a15.07 15.07 0 01-1.26 3.21c-1.29 2.9-1.48 4-1.4 8.86l4.15-3.55c-.49 6.7-1.27 12.67-3.32 18.31a28.06 28.06 0 00-1.71 8.48c-.06 1.32-.46 2.62-.62 3.94a10.83 10.83 0 00-.06 2.84c.94 5.55.72 6.26-3.68 10.24l2.31 1.87c-.19.75-.45 1.65-.65 2.55-1 4.33-1.95 8.66-2.86 13-1.4 6.65-2.78 13.3-4.09 20a95.39 95.39 0 00-1.73 10.3c-.63 7.38-3 14.36-4.61 21.51-.34 1.51-.83 3-1 4.53-.15 1.23-.54 2.88 1.71 2.75-.06.7 0 1.94-.2 2-3.79 1-4.42 3.86-4.47 7.22a17.27 17.27 0 01-.88 4.57 170.55 170.55 0 00-4.4 19.87 14.12 14.12 0 01-5.13 8.3l1.48 3.41 3.23.22c-.05.79.14 1.64-.16 1.86-2.23 1.69-2.31 4.74-4.24 6.6-.4.38-.9 1-.85 1.47.47 4.4-3.33 6.39-5.26 9.41-.72 1.13-1.2 2 .23 2.83l-.07-.07c-1.17 1.86-2.42 3.67-3.49 5.59-1 1.74 0 3.8-.7 5.66-.13.35.49 1 .76 1.45l.16-.05c0 .48 0 .95-.05 1.43l-.14-.08c-.33 1-.67 2.1-1.06 3.33l1.14 1.67c-2 3.36-1.89 7.24-2.68 10.9 1.55 4.3-1.2 7.52-3.25 10.52a7.1 7.1 0 00-.88 6.52c.78 2.9 3.3 3.83 6.41 3a79.75 79.75 0 017.83-1.57c.37-.06.9.94 1.29.9 1.27-.13 2.34.7 3.86 0 3.35-1.55 7-1.36 10.72-1.15 5.76.31 11.51 1.89 17.32.68a4.16 4.16 0 011.17 0 50.69 50.69 0 0016-.89c6.51-1.58 13.11-.84 19.67-1 2.88-.06 5.76 0 8.6 0 .8-2.38-.95-3.5-1.56-5s-1.6-2.85-.65-4.41a3 3 0 00-.2-3.71c-1.7-2.45.73-5.84-2-8.19-2.25-1.93-1.84-5-2.56-7.56a62.34 62.34 0 00-2.64-6.42 10.21 10.21 0 01-1-3.3c-.08-3.69-1.71-7-2.19-10.62-.46-3.44-1.05-6.86-1.59-10.29l2.31-3.27-2.4-2.86a11.31 11.31 0 00.23 6.27c-1.68-2.51-4.55-4.35-4.42-7.88a11.87 11.87 0 010-2.8 2.57 2.57 0 00-.54-2.66 9.68 9.68 0 01-2.3-6.37c-.05-1.34-1.3-2.64-2-3.95.57-1.16 1.15-2.31 1.73-3.46v.09l6.48-.56c-.76-3-1.55-5.94-3.56-8.41-.32-.39-1.32-.23-2-.33.08 0-.09-.28.14-.15-.11 1.68-.11 1.68-2.25 1-.15-.44-.29-.89-.43-1.34l-.38.36.93.88c-.17 1.63-.35 3.27-.52 4.91h.18c-3.37-5.59-4.49-11.88-5.52-18.17a11.78 11.78 0 00-1.42-4.31 44.62 44.62 0 01-2.63-6.61l3.53-3.09a15.17 15.17 0 003.16 1.77 2.92 2.92 0 003.19-.57 10.46 10.46 0 015.36-3.08 3 3 0 002-1.15c1.65-3 4.35-3.38 7.38-3.72a10.94 10.94 0 006.83-2.92c1.05-1.06 2.63-1.61 4-2.41l6.79 1.38 1-1.39a17.35 17.35 0 00.83 1.79 12.7 12.7 0 001.1 1.31l8.48-2.13a7.75 7.75 0 002.28-8.08c2.75-2.51 6.05-1.85 9-2.53l-.1-.2c-1 2.32-1 2.32.5 3.39.68-1.13 1.35-2.26 2-3.39l-.11.19 8.63 1.79c.47 2.83 2.24 4.8 3.92 6.93a17.85 17.85 0 013.27 6.74c1 4.18 3 7.88 4.95 11.6a103.76 103.76 0 019.06 23.15c.86 3.52 2.53 6.83 3.54 10.32 1.56 5.39 2.92 10.84 4.29 16.28 1.66 6.58 3.23 13.18 4.87 19.77 1.46 5.83 3.12 11.61 4.38 17.48.89 4.16 1.29 8.42 1.87 12.64.82 5.93 1.57 11.86 2.42 17.77.1.71.94 1.35.93 2 0 2.21 1.93 4.23.58 6.61a3 3 0 00.12 2.25c1.92 4.52.83 9 .07 13.53a8.45 8.45 0 00-.16 2.87c.62 3.41 1.48 6.78 2.06 10.19a26.1 26.1 0 01.1 8.64 23.75 23.75 0 00.37 8.65c1 4.9 2.41 9.81 2.55 14.75.13 4.77.59 9.51.69 14.27 0 1.33-.43 2.63.64 3.85.19.22-.76 1.24-.71 1.87s.73 1 1.34 1.79a3.66 3.66 0 01-.82.72 7.56 7.56 0 00-3.78 4.81c-.88 2.72-2 5.53-5.08 7.11a20.65 20.65 0 01-3.5-1.36 4.32 4.32 0 00-3.81-.5c-2.28.75-5-1.46-7 1.11a43.72 43.72 0 00-4.53-.65c-1.21-.05-.93.92-.76 1.68l.1-.16a27.88 27.88 0 01-3.3-.64c-2-.65-3.92-1.63-6.13-.31a3.43 3.43 0 01-2.79 0 5.54 5.54 0 00-5 0 2.5 2.5 0 01-2.2-.12c-2-1.79-3.88-1.08-6-.41-3.11 1-3.51.63-4.52-3.33-.38.54-.8 1.37-1 1.33-.9-.25-1.52-1.45-2.7-.71a9 9 0 01-.8-2.7c0-1 1-2.14.76-3s-1.42-1.77-1.93-2.77a8.59 8.59 0 01-1-3.33c-.19-3.26-1.13-6-4-7.93-.65-.42-.87-1.63-1.09-2.52s-.13-1.94-.32-2.89c-.94-4.77-4.23-7-9.19-6.66-7.34.56-14.66 1.09-21.92 2.37-2 .35-4.15-.84-6.21.17-9-1-17.76.47-26.56 2-3 .52-6.16.45-9.24.73-2.7.24-5.51.2-8.07 1-5.67 1.68-11.45 1.84-17.26 2.12-2.91.14-5.82.48-8.73.62q-6.64.33-13.29.47c-.63 0-1.27-.49-2.45-1a5.41 5.41 0 014.22-1 12.73 12.73 0 0010.51-3.43c-13.46.12-26.76.48-39.88 3.16.05 2.13 1.51 1.87 2.47 1.94a14.7 14.7 0 003.46-.43c2.43-.44 4.76-1.09 7.34-.33 1.35.39 3-.32 4.55-.53.68.65.79 1.54-.13 1.78a16.89 16.89 0 01-5.68.82 19.06 19.06 0 00-5.65.29c-3.63.7-7.27 1.3-10.89 2a11.2 11.2 0 01-8.28-1.37l3.07-2.24c-.57-.39-1.08-1-1.33-.87-3 1.13-6.44.92-9.27 2.72l-.44-.06.31-.1c1.1 0 2.2-.08 3.29-.06 1.59 0 2.23 1 2.29 2.45l.07.14c-2.42.35-5.15-.75-7.16 1.51-3.05 0-6.25.69-9.1 0-3.17-.81-5.85-.88-8.69.7a8.36 8.36 0 01-6.77.53 10.58 10.58 0 00-6.83-.23 4.35 4.35 0 01-2.2-.09 9.22 9.22 0 00-4.54.15c-2.57.66-5.22 1.1-7.71-.91-.82-.66-2.54-.28-3.84-.2a18.37 18.37 0 00-3 .67c.76-1.41.64-2.37-.55-6.14l-3 1.49c-1.21-2-2.26-3.89-1.44-6.37a3.43 3.43 0 00-.25-2.79c-1.5-1.89-1.54-4.55-2.93-6.2-1.58-1.89-1.14-3.76-1.58-5.68-.37-1.67.43-3.09.11-4.48-.28-1.2-1.52-2.14-2.13-3.31a10.4 10.4 0 01-.78-2.79c-1-4.89-2.74-9.81-2.67-14.69.08-5.38-1.08-11.28 2.78-16.11l-.09.42.2-.27a2.72 2.72 0 012-3.11c2.93-1 5.88-1.95 8.87-2.73s5.95-1.57 8.9-2.45c4.38-1.31 9.11-1.59 13.71-1.93a38.22 38.22 0 0012.5-2.59c.54-2.32 1.63-4.4.71-6.85a5.62 5.62 0 01.15-2.83c.59-2.83 1.59-5.54 1.34-8.55-.1-1.16 1.68-2.68 1.36-3.6-1-3 .55-4.59 2.11-6.7a10.14 10.14 0 002.25-6.93 14.4 14.4 0 012.44-9.89l1.3.9a12.61 12.61 0 001.37-2.29c.81-2.36 1.15-4.95 2.31-7.11a25.9 25.9 0 002.6-6.11c.83-3.48 1.12-4 3.27-6.73l-1.3-2.38c.37-2.56 2.43-3.75 4.16-5.21.13-.31.28-.61.38-.93 0-.07-.15-.2-.23-.3v1.38l-2.16-1c1.12-1.52.6-4.24 3.45-4.42a20.49 20.49 0 011-3.79c.8-1.68-1.47-1.49-1.38-2.7l3.51-2.41c-.89-2.24-3-.86-4-1.91-.16-.35-.51-.76-.42-1 1.34-3.56 2.72-7.1 4.2-10.61.12-.3 1-.29 1.5-.42l-.15-.13c.47 1.14.93 2.27 1.4 3.4l-.33.14.21-.18 2.86-5.53c-.07-1.63-.31-3.85-2.84-5.28 1.84-3.85.11-9.06 4.83-11.6-.29-3.55-.64-6.91 2.12-9.68a6.16 6.16 0 001.1-2.6c1.09-3.9 2.11-7.82 3.16-11.73.77-2.86 1.37-5.48-1.57-7.81-1.13-.9-1.45-3-.82-4.88 1-3.12 1.82-6.33 2.71-9.5.57-2 .57-2 3.06-3.89l-.77-2.11zm16.73-92.5l.9-1.92-.68-.3-.72 1.7-.51 1.18zM496 441.49l1.19-1a12.45 12.45 0 00-1.49-.11c-.11 0-.21.29-.31.45-.16.41-.31.82-.46 1.23zm-212.73 49.09c.18-.26.36-.53.53-.8l-.37.87-.39-.12zm134.25-206c1.38 0 2.75-.06 2.73-2-1.36.17-2.51.54-2.59 2.17l-1.21.45c.13.05.35.2.4.16a8.09 8.09 0 00.67-.79zm-77-221.24c-.27-.23-.71-.72-.79-.67-.77.52-.34.91.23 1.24-.37.58-1.17 1.54-1 1.7.78.9 1.73.49 2.36-.25.85-1 .39-1.7-.77-2.03zm62.64 226.93L398 291c2.62.78 4 .41 5-.89a4.51 4.51 0 001.67.21c.37-.1.63-.7.88-1.11.05-.08-.17-.47-.25-.46a1.88 1.88 0 00-1 .23 10 10 0 00-1.11 1.28zM211.77 439.05a53 53 0 00-9.23-2c-.37 2.07.07 3.33 2.07 3.5 1.48.12 3 .19 4.48.17a2.31 2.31 0 002.54-1.83l1.34-.53-.65-.48c-.18.4-.32.78-.55 1.17zm250-95.95c-.06-1.72-.06-3.44-.24-5.15 0-.3-.82-.57-1.3-.71-.1 0-.56.57-.55.88a6.43 6.43 0 002.2 4.89 5.42 5.42 0 00-.23 1.71q1.43 8.16 2.94 16.29c.3 1.6.69 3.18 1 4.74 1.7-.18 2.15-1.13 1.85-2.08-1.59-5-2.19-10.1-2.84-15.25-.18-1.93-.77-4.12-2.79-5.32zm-44.23-47l-.63-2-3.27 1.68 3.64.58c.36 1.88 2.49.48 3.2 1.75a17 17 0 01-1 1.37c-.52.57-1.17 1-1.64 1.64a2 2 0 001.14 3.17 26.45 26.45 0 003.88 0c.58 1.42 1.38 2.5 1.35 3.55s-.86 2.17-1.6 3.85c1.37-.27 2.55-.24 2.65-.56a21.18 21.18 0 001.43-6.08 16.64 16.64 0 00-1.27-6.2c-.4-1-2.15-1.44-3-2.45s-2.66-1.56-1.95-3.45c-.51 0-1.34-.15-1.5.09a24.69 24.69 0 00-1.39 3.11zm-59.45 125c.77.85 1.45 2 2.85 1a11.89 11.89 0 011.9-1.24c.32-.13 1.11.09 1.19.32.71 2 2.21 1.41 3.89 1.23l1.63-4.34c-11.26-.16-22.08-.29-32.9-.49-2.3-.05-4.59-.52-6.88-.46-6.52.16-13 1.61-19.55.89-4.23-.46-8.57.08-12.78-.47-3.47-.44-6.24.71-9.4 1.92 2.57 2.2 5.4 2.18 8.06 2.16 7 0 14-.37 20.95-.56 1.55 0 3.25-.36 4.62.16 2.66 1 5.34.89 8 1 7.75.22 15.5.49 23.25.61 1.88 0 3.9 0 5.29-1.74zm-6.65-147.33c1.6-5.33 3.34-10.61 4.75-16a12.71 12.71 0 00-.08-8.38 18 18 0 00-1.72 3.18 101.15 101.15 0 00-2.91 21.25zm9-226c-2.16 2.46-2.32 2.52-1.72 4.35.37 1.13.25 2-.59 2.51-2.54 1.51-1.43 3.39-1.05 4.93l3.82-1c.64-3.44 2.72-6.93-.45-10.73zm-136.75 446.8c13.89.34 13.89.34 16.23-1.56-4.83 0-9.59 0-14.34.05-.43 0-.84.65-1.89 1.51zM388.9 46.18l2.36-6.18c-.57-1.06-1.1-2-1.56-2.87l1.67-3.13c-3.66.12-4.18.45-4.25 2.74-.12 3-.23 6.08 1.78 9.44zm1.86 2.25c-1.31 4.32-.06 8.76-.87 13-.32 1.68.61 3.6 1 5.41 1.54-5.3.89-10.62 1.2-15.89.02-.79.24-1.95-1.33-2.52zm-56.09 18.92a19.61 19.61 0 001.11-3.49c.27-3.84-.4-7.74.89-11.53.26-.75-.15-1.74-.33-3.28-2.23 6.49-2.23 6.49-1.67 18.3zm-60.88 258.91a4 4 0 004.07-3.59c.09-.52-.59-1.32-1.13-1.72a1.53 1.53 0 00-1.47.32c-.84 1.43-2.35 2.73-1.47 4.99zm170.73-30.53c2.36-.23 3.49-1.16 3.41-3.28 0-1.23-.2-2.26-1.8-2.09-1.54 2.64-1.54 2.64-1.61 5.37zm-180 198c-4.22-1.07-4.22-1.07-8.51.53 2.27-.22 3.5-.38 4.73-.45s2.5-.03 3.76-.05zm136.56-167.91c.6 2.18 1 3.56 3 3.74.59-2.37-.46-3.18-3-3.74zm65.7 43.45c-.52 3.79-.48 3.79.61 5.72.52-4.48.52-4.48-.61-5.72zM338.3 43.28c1.31.75 2.37.59 3-.64.51-1.06.45-2.14-1.29-2.8-.59 1.16-1.14 2.28-1.71 3.44zm24.7 2.48c.67-1.15 1.09-1.89 1.6-2.78-2.11.12-2.11.12-1.6 2.78zm-31.31 440.29v.62l2.55-.11v-.51zm72.74-169.67l-1.3-.91c-.15.31-.51.77-.41.91a6.79 6.79 0 001.19 1.14zm-7.58-3.57c-.14 2.9-.14 2.9 1.71 2.78zm14.15-16.4l-.75.53a5.17 5.17 0 000 1.42c.08.28.49.46.75.69.19-.42.55-.84.53-1.24a4.46 4.46 0 00-.53-1.4zM387.8 75.87l-.4.08v1.83h.4zm84 298.83c-.4.68-.86 1.12-.86 1.56s.42 1 .66 1.47c.3-.42.79-.82.83-1.27s-.29-.99-.59-1.76zm-160-99.33c-.18-.45-.31-.75-.44-1.05a6.12 6.12 0 00-1.14.92c-.1.12.22.57.35.87zm183.6 171.16h-.66c0 .79-.06 1.58-.05 2.37 0 .15.22.3.34.44.22-.23.62-.46.62-.69a15.6 15.6 0 00-.17-2.12zm-86.57-160.38a8.38 8.38 0 002.23 1.13c.28 0 .64-.67 1-1-.29-.17-.58-.47-.88-.47a14.05 14.05 0 00-2.35.34zM421.67 440a4.74 4.74 0 00-.53-.64c-.05 0-.28.11-.42.17a6.59 6.59 0 00.6.69s.23-.1.35-.22zM360 177.18l-.55-.14a12.89 12.89 0 00-.29 1.48c0 .1.25.23.38.35zm-9.7 103.22c.18-.31.51-.61.51-.92s-.32-.59-.5-.89c-.18.3-.49.6-.5.9s.3.61.48.91zm91.25 14.74l.84-.63c-.26-.21-.6-.66-.76-.6a3.83 3.83 0 00-1 .8zM208.73 456.66c-.09.33-.33.72-.24 1s.53.36.81.53c.1-.32.36-.7.26-.94s-.56-.4-.83-.59zM376 166.54c-.09.1-.22.18-.26.29a1.4 1.4 0 000 .46c.14-.1.33-.17.4-.31s-.07-.28-.14-.44zM415.21 300l1.2-.65a4.08 4.08 0 00-1.2-.72c-.28-.05-.64.33-1 .51zM282.42 412.64a4 4 0 00-.81-.24c-.12 0-.27.16-.4.26l.45.58zm51.44-55.07c0-.16.05-.36 0-.47s-.29 0-.44-.05v.74zm63.84-28.7l-.72.7 1.17 1c.16-.44.33-.87.5-1.31zM446.79 504l-.39-1.17a6.5 6.5 0 00-1.19.56c-.07.05.16.78.3.8a5 5 0 001.28-.19zm-226.85-9.32l.45-.2-.85-.08zM336.65 43.12l-.39-.34a4.78 4.78 0 00-.37.84c0 .09.21.24.32.36zM355.13 485l.44.27.06-.39zm-2.84-426.49l-.61-.19.09.34zm3.88 5.4a3.9 3.9 0 00-.42.74c0 .08.17.34.29.35s.37-.18.36-.27a3.75 3.75 0 00-.23-.82zm-16.44 5.22c.13-.09.4-.23.38-.28a5.43 5.43 0 00-.39-.85c-.12.11-.36.25-.35.33a4.09 4.09 0 00.36.8zm-133.12 392.3l-.14-.49-.26.63zm138.24-19.78v.32l.45-.12zm-140.13-10.18v-.32l-.45.12zm74.4-9.41c-.12-.15-.27-.44-.36-.42a5.69 5.69 0 00-1 .35c.13.14.28.42.38.41a6.67 6.67 0 00.98-.34zm-1.3-3.83c-.14.11-.42.24-.41.33a5.9 5.9 0 00.32 1c.13-.12.39-.26.38-.36a4.53 4.53 0 00-.29-.97zM387.4 89.9l-.44-.26-.06.4zm86.54 298a4.88 4.88 0 00-.2 1c0 .14.21.28.32.42a2.75 2.75 0 00.44-.87c.02-.15-.35-.35-.56-.54zM462 334.12l-.48.2.48.22zm-73.28-21.22c.12-.11.36-.25.34-.32a4.44 4.44 0 00-.35-.77 4.85 4.85 0 00-.34.78c-.02.07.23.21.35.31zm79.56-5.78l.23-.4-.34-.06zm-91.13-146.06l-.2.27h.28zm24.49 148.3c-.12.1-.32.18-.33.29s.16.25.26.37c.12-.1.32-.19.34-.3s-.17-.24-.27-.36zm-40.95-135.09l.19-.27-.28-.05zm60.07 111.89c-.13-.12-.26-.34-.39-.34s-.26.22-.39.35l.57.38zM485.61 374l.27.19.05-.29zM385.13 101.64l.3.21v-.31zM414.71 409l-.27-.17v.29zm-135.52 4.86l-.3-.21v.32zM292 249l-.28-.21-.05.31zm41.64-179l.28.19v-.31zm29.5-13c-.11.1-.31.2-.31.31s.18.22.28.34c.11-.11.3-.21.31-.31s-.18-.28-.28-.34zm2.53-9.19l-.3-.34c-.12.1-.31.2-.31.31s.18.23.28.34zM217 494.76l.18-.3h-.31zM336.07 35.31l.36-.29c-.09-.12-.18-.33-.29-.34s-.24.17-.36.26zm106.51 255.48l-.18.25h.29zM569.46 360.61c1.62-.5 2.31-1.79 3-3.22.88-1.8 0-4.39 2.45-5.51.17-.08.24-.79.09-1.05-1.69-3 .31-5.51 1.19-8.14.46-1.36.67-2.64-.93-3.44l-.11.13v-2.17c-.11-2 .33-2.23 2.57-1.13-.38.09-1.28-.22-.55.71l.41-.85a9.29 9.29 0 002.16-6.59c0-.62-.62-1.19-1-1.78l-.12.12c.53-1.23 1.52-2.47 1.5-3.7 0-2.35 1.18-3.83 2.41-5.6 1.48-2.14 2.29-4.73 3.52-7.41-.29-1.42-1.21-3.34-.87-5 .3-1.46 2-2.64 3.29-4.19-.24-.82-.54-1.88-.88-3a15.27 15.27 0 011-1.3c.84-.89 2.21-1.16 1.69-3.15-.47-1.77 2.68-9.7 3.91-11.53.19-.29.63-.42 1-.63l.36.3-.49-.17c.76-1.72 1.93-3.21 1.11-5.42a3.92 3.92 0 011.57-4.55c2.43-1.27 2.38-3.39 2.26-5.25-.35-5.36 2.64-9.94 3.13-15.07 0-.22.51-.39.81-.6-.75 4.32-.75 4.32.48 8.68l.16-.15c-2.52.8-3.29 2.93-3.65 5.18-.28 1.74.71 2.82 2.48 3.11-.12 1.05-.24 2.1-.39 3.37 2.06-.41 2.89-1.27 2.2-2.83-.15-.35-1.27-.28-1.94-.41a8.85 8.85 0 004.85-6.76 4.45 4.45 0 011.07-2.61c1.84-1.59 1.76-3.89 2.27-5.86a202 202 0 004.53-21.58 86.66 86.66 0 012.13-8.43c.43-1.69.8-3.39 1.26-5.08a3.48 3.48 0 00-.84-3.74c-1.15-1.1-1.19-2.09-.16-3.52.7-1-1.39-2.22-.22-3.88.81-1.15.67-3 1-4.59a7.74 7.74 0 00-8.24-.89 14.12 14.12 0 01-12.35-.33 25.68 25.68 0 00-15.14-2.22 27 27 0 01-6.95-.16 118.42 118.42 0 00-12.63-1.08c-3.59-.14-7.15-1.57-10.65-2.66-.6-.18-.86-1.47-1.48-2.64a5.8 5.8 0 00-1.77.46c-2.16 1.25-4.14.73-6-.57a22.1 22.1 0 00-10.32-3.71c-1.37-.18-3.11-.71-4 1.14-.08.15-.42.17-.64.25-.8-3.07-4.25-1.12-5.67-3l.64-3c-3.23-1.27-4.88-3.45-3.94-7 .15-.55.42-1.26.21-1.7-2.75-5.87 0-11.67.16-17.5 0-.58.19-1.16.21-1.74a37.1 37.1 0 011.31-9.74c1-3.4.11-7 1-10.6 1.15-4.86 1.78-9.83 3.76-14.48a18.78 18.78 0 00.76-3.37c2.9-1.52 6.27-1.21 9.51-1.45a15.06 15.06 0 014.5.87c1.12.27 2.22 1 3.29 1 5.21-.33 10.35 1 15.49.78s10.41-.14 15.62-.06c6.37.1 12.72-.32 19.12.4 3.93.44 8-.69 12.07-1.11l16.17-1.66c3.65 1.87 7.08-.48 10.62-.57h5.07c.6-1.14 1.65-2.39 1.9-3.78.91-5.11 1.68-10.24 3.59-15.11.14-.35.36-.84.23-1.11-1.93-3.7 1.1-6.53 1.73-10.12l-2.16-1.56v.18c1.27-2.45 2.59-4.89 3.78-7.38.2-.43-.13-1.1-.22-1.66l.13.13c-.32-.86-1-1.74-.9-2.57.3-3.59.81-7.17 1.25-10.8l3.78 1.77c.57-1.75 1.07-3.3 1.59-4.92a8.25 8.25 0 00-3.39-3.72l.19.19c.5-1.74 0-3.69 2.17-5 1.11-.67 1.21-3 1.92-5l4.67-2.82c2 1.14 4.15 1.77 6.26 0l-.1-.13a3.32 3.32 0 004.18 1c2.17-1.18 4.12-.73 6.13 0a27.33 27.33 0 0015.32 1.73c.39-.08.91.52 1.37.8a2 2 0 00-.45.19c-.06.05 0 .22 0 .34l.35-.63 1.08.37c2.07.64 3.58 2.9 6.3 1.75 1.87-.79 4 0 6.13-.83 2.6-1 5.57-1 8.39-1.21.75 0 1.63.74 2.33 1.28 1.74 1.35 1.72 1.39 3.27-1.43l1.29 4.32c.66-1 1.38-1.63 1.49-2.35a32.42 32.42 0 00.19-4.63v-4.44c1.42 2.61 2.27 4.42 2 5.64-.91 4.48.27 8.68 1.3 13 .35 1.45 0 3.06.12 4.59s-1.41 2.68-.15 4.33c.38.51-.59 2-.95 3.11-1.47.61-1.39 1.48-.12 2.88v-3l2.32-.52a11.8 11.8 0 01.7 8.42c-1.2 4.48-3.23 8.72-3.66 13.42-.05.53-.34 1.34-.74 1.5-2.58 1.07-2.31 3.24-2.38 5.39a18 18 0 01-.73 4 7.14 7.14 0 00.67 5.26c5 .32 9.9.66 14.46-2.25a6.62 6.62 0 013.84-1c4.58.41 8.75-1.26 13-2.24 3-.68 6-1.5 9-2.19a7.7 7.7 0 012.86-.18c1.64.26 3.27 1.3 4.45-1 .2-.4 1.49-.46 2.21-.32 3.78.77 7.31-.36 10.81-1.4 2.11-.63 4-1.16 6.07.23.64.43 1.79.16 2.71.13 1.14 0 2.28-.16 3.42-.24v-.1c-2.34 1.64-4.68 3.28-3 6.74a48.41 48.41 0 01-13.06 3.35 16.15 16.15 0 00-3.47 1.37c.7 1.85 2.61 2 2.9 3.89a1.67 1.67 0 002.93 1c1.4-1.34 2.67-2 4.64-1.3.5.18 1.34-.58 2-.91a14.51 14.51 0 002.19 2.42c.26.19 1.19-.55 1.81-.86-.27-.45-.48-1.25-.82-1.31a21.43 21.43 0 00-3.31-.1c4-2.84 4-2.85 6.92-8 .46-.83 1.16-1.53 1.66-2.34.79-1.28 1.51-2.61 2.26-3.91v.12l3.89.37c1-1.5 1.47-2.84 0-4.17l1.34-1.21a19.81 19.81 0 011.53 7.65c1.18-1.4 2.33-2.82 3.54-4.2a2.35 2.35 0 013.11-.64c.59.34 1.5 1.2 1.39 1.49-1.43 3.67 1 6.65 1.62 9.93a6.76 6.76 0 010 1.49l5.74.44c.72 1.48 1.37 2.82 2.08 4.3l-2.16 1.2-1.35-1.45v-1.37l.13.13-1.82.19v.62l1.85.32 1.33 1.42c1.2 3.56 3.35 7.14-.15 10.63.29 2 .5 4 .89 5.9 1.26 6.18-.14 12.29-.39 18.43 0 .36-.32.7-.49 1.05l.13-.08c-.27.48-.92 1 .06 1.41l-.16-.05-2.2 2.44c1.94 1.94 4.15 1.32 6.63 1.52-1.67 2.61-2.83 4.89-5.94 5.41-1.12.19-1.91 1.31-1.14 3.13l6.82.62c-1.65 1-2.94 1.82-4.16 2.68s-2.37 1.83-3.56 2.74l.18-.09c-.4.5-.71 1 0 1.48l-.18-.12a5.32 5.32 0 01-4.26 1.14c-2-.18-2.27.46-2.95 3a3.26 3.26 0 01-1.07 1.78c-1.91 1.35-2.56 4.12-5.22 4.59l.87 2.14c-3.21 1.9-5.83 5-10.09 4.86-4.86 2.58-10.38 2.2-15.54 3.46-2.26.56-4.51 1.94-6.7 1.82-3.78-.23-6 1.73-8.32 4.07-.75.76-1 2.64-2.42 2-1.79-.85-1.62 1.3-2.6 1.3a3.11 3.11 0 01-2-.66 21.21 21.21 0 01-2.11-3c-2 1.25-2.61 4.12-5.39 4.14-2.13 0-4.18 0-5.52-2.8a14.91 14.91 0 00-.7 2.42 2 2 0 01-2.32 2 24.74 24.74 0 01-4.5-1.19c-3.44 2.7-7.51 1.7-11.41 1.83s-8 .4-12.3.63c-2 4.38-1.8 9.34-2.7 14-.72 3.76-2.12 7.43-1.89 11.42.13 2.22-1.51 3.81-3.26 5.09-.17.4-.35.81-.52 1.22l1.07-.68c.26.71.81 1.47.71 2.12-.46 3-1.14 6-1.68 9.06a12.77 12.77 0 01-4.27 7.58 9.49 9.49 0 01.23 7.27c-1.69 4.29-2.71 8.86-6.25 12.21-.39.36-.84 1.09-.72 1.5.61 2.12-1.12 2-2.21 2.61-.58.34-.93 1.1-1.39 1.67l-1.18 2.25v.21-.38c1.65-.12 1.22-1.25 1.08-2.23.53 1.21 1.44 2.31.59 3.8-.72 1.27-.37 3.18-2.36 3.71-.46.12-1.22.73-1.16 1 .36 1.68-3.6 2.56-.84 4.6a27.71 27.71 0 01-1.73 4.86 35.89 35.89 0 00-3.87 10.28c-.62 2.81-2 5.46-3 8.19-.86 2.36-1.66 4.73-2.55 7.29 2.62 4.2 3.06 8.51.13 12.87-.36.53-.14 1.42-.32 2.11-.34 1.3-.36 3.11-1.23 3.76-3.74 2.81-4.46 7.14-5.87 11.05-1.18 3.25-1.9 6.64-3.55 9.77-.86 1.61-.68 3.76-1 5.65a38.36 38.36 0 01-1 5c-1.12 3.5-2.46 6.94-3.6 10.43-3.12 9.59-7 18.89-10.8 28.22-.82 2-3.44 3.42-2 6.15a45.17 45.17 0 00-2.59 5.84c-1.58 5.45-5.79 9-9.12 13.2-2.85.72-3.21 3.59-4.72 5.47-.66.83-.57 1.43.05 2.44.42.68-.09 2.25-.63 3.14a32.05 32.05 0 00-4.12 10.14c-.42 2-2 2.72-3.45 3.54.18 1.52.76 3.07.45 4.43a14.4 14.4 0 01-2.4 5.87c-4 5-6.09 11.16-9.84 16.35-3.63 5-3.37 5.21-7.94 8-.83 1.38 1.45 2.71-.11 4.27-1.33 1.34-2.13 3.19-4.3 3.54a16.43 16.43 0 00-2.74.94c.21-1.58-.6-2.49-2.33-3.21-.41.72-1.4 1.82-1.18 2.16 1.6 2.53.49 4.05-1.36 5.85-1.54 1.49-1.36 3.63-.31 6.79 1.11-2.74 1.73-4.45 2.49-6.1.87-1.9 1.85-3.75 2.79-5.62 1.48 2.27 1.86 4.34-.15 6.73-1.3 1.53-1.86 3.69-2.88 5.83a44.57 44.57 0 00-5 1.76c-1 .45-1.3-.21-1.94-.38-3-.8-6-1.25-8.92-2.23a36.41 36.41 0 01-7.26-3.41c-7-4.23-13.87-8.46-21.15-12.15-4.43-2.24-8.74-4.6-13.37-6.49-3.14-1.28-5.85-3.74-8.56-5.91-1.32-1-2.21-2.62-3.47-4.17 2.73-1.81 2.55-4.25 1.57-6.68 2.86-1.09 2.86-1.09 2.8-4.24l-3.11 1.56c-.39-.64-1.11-1.28-1.09-1.9.06-1.86-.16-4.09.76-5.5 1.44-2.2 1.92-4.54 2.57-6.93a11.76 11.76 0 011.41-2.5c1.76.68.79 2.42 1.58 3.44.18-.14.48-.26.56-.47 1.67-4.31 3.29-8.65 5-13 1.05-2.7 1.86-5.46 3.7-7.84 1.68-2.18 2-5 2.22-7.71l.79-.72-1.23.29c-.1-.49-.43-1.13-.24-1.44s.91-.59 1.42-.81a5.6 5.6 0 003.76-4.54c.17-1.06 1.08-2 1.38-3.05.16-.57-.26-1.31-.41-2l-1.92.84-.52.24.13.16c1-3.32 2-6.6 4.4-9.25a3.36 3.36 0 001-2.53c-.45-1.65.62-2.52 1.31-3.6.3-.46 1.27-.92 1.2-1.13-.87-2.67.58-4 2.44-5.63 1.64-1.41 2.35-3.86 3.92-5.4 1.2-1.18 1-2.36 1.13-3.65l-.12.13c.69-1.13 1.82-2.2 2-3.4.72-5.28 3.27-9.77 6-14.13 1.67-2.66 2.09-6 4.81-8.16.68-.53.21-2.53.27-3.85zm-21.1-172l.14.17-1.21-.16c-.45-.33-.88-.68-1.34-1-.11-.07-.32 0-.48 0 .1.27.17.76.31.78a10.23 10.23 0 001.66 0l.11.86zm-22.18-44.16l-.22-.15.33.06.27-.11zm101.76 13c-.35 0-1.1-.49-.62.51l.67-.64.24-.1zm26-55.68a10 10 0 00-.17 1.52c0 .12.41.24.63.35.05-.14.18-.32.14-.41-.23-.45-.5-.87-.76-1.31l-.4-2.32 1-.29-.38-.53-.4 1c-1.83 1.05-.33 1.46.4 2.03zm-74.17 313c-.12-.34-.24-.69-.37-1l.42.86.86.85c0-.16.07-.45 0-.47a7.13 7.13 0 00-.89-.2zm18 82.41l-1-.36 1.18.29c-.15.79-.31 1.57-.47 2.36l-.16.21v-.36c1.92-.32.85-1.32.48-2.1zm-23.58-72.37c1-.92 1.59-1.87-.14-3.8l.3 4c.18-.26-.69.49-.13-.16zm-6-279.46c.36 0 .83.16 1.07 0s.5-.71.74-1.08a4.76 4.76 0 00-1.43.22c-.2.09-.19.64-.27 1a4.56 4.56 0 00-1.46.59c-.28.26-.27.84-.39 1.28.47-.14 1.1-.14 1.35-.45s.3-1 .42-1.52zM542.88 186l-.21.4.09-.26c-.5-.23-1-.48-1.5-.67-.14-.06-.35.07-.53.12.17.24.35.68.53.69a8.33 8.33 0 001.62-.28zM573 453.15c-.82.48-1.35 1-.28 2.22.06-1 .11-1.67.15-2.36zm-15.41-1.62c1.59.07 1.08-.85.64-2.18l-.52 2.3a10.59 10.59 0 00-.64.9c0 .08.12.26.19.4zM691.2 262.59c-1.47 1.41-1.47 1.41-1.76 4.29 2-1.18 2-2.7 1.64-4.41a4.87 4.87 0 00.95-1.41c.15-.59 1.32-1 .4-1.88-1.74.69-1.09 2.2-1.23 3.41zm-49.5 91.18a7.27 7.27 0 001.63.38c.19 0 .39-.54.59-.82-.28-.07-.6-.27-.83-.19a12.88 12.88 0 00-1.53.77c0-1.17 0-2.34-.09-4-2.57 2.96-2.54 3.09.23 3.86zm-73.8 18c2.57-.58 1.89-2.7 2.82-5-3.17 1.33-2.54 3.41-2.7 5.14l-.63 2.15.73.08c-.07-.76-.12-1.56-.22-2.35zm52.59-213.87c-2 .33-4 .59-5.35 3.22a7.39 7.39 0 006-2.49l1.34-.8c-.55-.11-1.1-.24-1.65-.31-.08-.01-.22.25-.34.38zm57.43-82.85l2.1.27c-.14 1.84-1.47 3.59.26 5.44 2.56-3.35 1.82-6.75.76-10.29-2.25.94-2.34 3-3 4.72a8 8 0 00-.85 1.18c-.05.1.37.44.57.66.09-.15.26-.31.25-.46-.01-.51-.01-1.01-.09-1.52zm-92.08 76.35c-.18-.64-.37-1.28-.66-2.3l-1.85 1.7 2.7.42-5 4.58a2.86 2.86 0 00-.3.41c0 .06.09.18.14.28v-.83a2.91 2.91 0 003.28-.23c2-1.5 4-3 6-4.61 1.28-1 3.11-1.59 3.47-3.62-1.55-.61-2.62.15-3.69 1-1.38 1.1-2.74 2.14-4.09 3.2zm-1.39 346.15c-.05-.25-.1-.5-.16-.74 0 .1-.12.26-.08.31a1.72 1.72 0 00.39.31c-.13 1-.26 2.09-.4 3.18l-4.36-1c.19 1.93.25 3.25 2 3.52a39.48 39.48 0 004 .27 18.43 18.43 0 001.4-1.92 18.77 18.77 0 00.89-2.29zm189.64-312.29c-.53-.23-1.08-.69-1.58-.64a27 27 0 00-11.8 4.21c-.49.32-.72 1.06-1.15 1.74.79.17 1.23.42 1.48.29a38.73 38.73 0 0110.8-4c.8-.14 1.44-1.14 2.15-1.75 3.6.81 5.9-2.11 9-2.87-3.99-.52-4.84-.24-8.9 3.02zm-203.4 235a3.67 3.67 0 01-.14-3.28 31.41 31.41 0 001.15-4.26 3.79 3.79 0 00-2.16 2c-1.59 3.54-3.13 7.1-4.65 10.67-.95 2.26-.92 2.27 0 6.64.83-1.72 2-3.07 2-4.42 0-3.22 2.13-5.13 3.67-7.45a1.6 1.6 0 00.44-.2v-.33zm9.11 12.59c2.17-5.41 5.66-10.36 6-17.59-1 1.45-1.36 2-1.79 2.56a23.09 23.09 0 01-1.88 2.19c-3.09 3-3.54 5-2.41 9.51A19.09 19.09 0 01580 433c-1.18.63-2.31 1.29-1.39 2.91a.57.57 0 00.45.23c1.51-.51.93-1.72.91-2.75a2.65 2.65 0 00-.17-.53zm82.08-184.27l-.14-.14c-1.78 1.09-2.89 2.45-1.93 4.67l1.62.21c.19 1.46.38 2.92.59 4.57 3.63-2.64 3.55-2.62 2.78-6.11a28.47 28.47 0 01-.33-4.54c-.08-1.24-.41-2.16-1.84-2.53-.59-.15-1-1.05-1.58-1.75a23.77 23.77 0 00-.4 3.89c.04.6.8 1.15 1.23 1.74zm-25.72-72.68c-2.29 1.31-1.21 3.66-2.42 6.12 3-2.52 4.9 1.27 7.29-.41.82-2.12 1.81-4.36 2.54-6.7.95-3 .17-3.65-3.39-3.25-.78 1.73-1.52 3.4-2.33 5.21l-1.85-1.06.94-.92-.4-.35zm-55 17.4c-2.49-.23-5-.36-7.46-.72-4.93-.72-9.82-1.79-15-1.39.28.43.36.7.5.73 7.63 2 15.57 2.38 23.2 4.52 3.2.9 6.87-.37 10 1.76.39.27 1.12.08 1.69 0 1.9-.14 3.8-.32 5.7-.49 0-.17 0-.43-.1-.5-5.47-3.84-11.8-4-18.12-4.13-.15 0-.31.21-.47.33zm160.39-1.3c-3.1.81-5.52-2.4-8.81-1.15-2.77 1.06-5.89 1.21-8.48 1.7-.29.94 1.54 1 .16 1.92-.59.41-1.5.52-1.06 1.58 5.09.32 11.46-.96 18.19-4.05zM543 127.73c-.14-.47-.28-.94-.41-1.41-3.16 1.49-6-1.37-9.38-.16-.08 1.17-.16 2.27-.24 3.34l3.55.61c-.66 1.2-1.07 2-1.32 2.4l-2.92-.64v6.47c1.26-1 2.42-1.93 3.6-2.84a10.7 10.7 0 002.24-1.76c.79-1.07 1.12-2.48 1.94-3.52a18.69 18.69 0 012.94-2.49zm87.44 115.14c-3.61 1.57-2.81 5.55-4.37 8.26-.95 1.66-.83 3.94-1.24 6.2l5.92-.86c.65-4.6.99-9.12-.32-13.6zm37.87-18.53a4.73 4.73 0 01-.71 1.16c-2.83 2.24-2.06 5.38-2.07 8.3a1.8 1.8 0 001 1.28c.42.18 1.35.1 1.55-.2 1.81-2.76 5-5 3.87-9a7.6 7.6 0 00-.44-1zM549.09 488.17a8.27 8.27 0 00.36-1.12q.07-2.57.12-5.13c-2.07-.58-2.12-3.27-3.88-4-2.94 1.34-1.8 4.19-2.7 6.19-.64 1.44.37 2.57 1.88 3 1.27.34 2.57.64 4.22 1.06zM690.44 72.69c1.75-2.2 1.75-2.2 1.74-3.91 0-3-.56-3.52-3.77-3.72a1.83 1.83 0 00-1.44.6c-.57.92.1 1.25.93 1.47 1 .28.8 1.08.69 1.85-.22 1.64-.01 3.09 1.85 3.71zm127.79 62.47a38.65 38.65 0 00-2.76 5 11 11 0 00-.41 3.9 3.15 3.15 0 002.28 3.06c-.02-3.98 1.45-7.51.89-11.96zM733.92 133c.09.95 0 1.45.18 1.65 1.66 1.7 3.74 1.65 5.79 1a2 2 0 00.92-1.74 2.19 2.19 0 00-1.52-1.43 46.5 46.5 0 00-5.37.52zm-105 213c-2.1 1.08-2.81 2.31-2.85 4.24s-.53 3.72-.73 5.6c-.05.39.33.82.67 1.61 3.16-3.38 2.14-7.33 2.9-11.39zM728 134.48c-2.83-.93-5.26-.71-6.94-2.68-.53-.62-2.32-.63-2.05 1.55 2.71.5 4.57 4.89 8.99 1.13zM564.62 448.87c-.46.22-.7.26-.8.4-2 2.79-1.46 6.17-2 9.29 0 .19.86.55 1.66 1 .03-3.72 1.9-6.97 1.14-10.69zm145.51-321.73c1.56-1 2.69-1.24 2.94-1.87a23.82 23.82 0 001.19-5c.08-.47-.2-1.34-.53-1.46-.83-.32-1.34.25-1.57 1.09-.55 2.1-1.16 4.1-2.03 7.24zm-123.48-4.26c-5.87-.48-6-.46-8.16 1.11 2.42.11 4.89.82 8.16-1.11zm24.21 66.66c1.44-.08 2.78.15 3-.22.89-1.7 2.46-2 4.12-2.26-2.51-.43-5.13-1.81-7.12 2.48zm7.28-66.54c-3.83-3.2-2.7-2.1-9.45.37 3.75.03 6.51.5 9.45-.37zm17.09 124.06c1.5-.61 2.13-1.59 1.91-2.82-.38-2.06-1-4.08-1.48-6.11h-.43zM711.37 170c-1.89 0-2.77.85-2.52 2.17a2.1 2.1 0 001.42 1.34c1.53.22 3.12-1 2.72-2.05-.27-.72-1.25-1.16-1.62-1.46zm-94.91 26.6l-.25-.5h-7.72v.5zM638 120.43c-2.28-1.08-4 .62-5.93 1 2.17.96 3.93-.35 5.93-1zm56.26-55h.84a18.64 18.64 0 00.3-2.35c0-.18-.52-.51-.8-.52s-.73.37-.72.55a21.1 21.1 0 00.36 2.36zm-50.8 170.35c-.22-1.81-.38-3.14-.54-4.47a6.16 6.16 0 00-1.31 3.59c-.02.17.85.42 1.85.88zm74-132.87c-1.3 1.37-2 2.63-1.43 4.51 2.19-1.36 2.19-1.36 1.44-4.51zm-53.8 174.93c-.63 1.72-2.07 2.56-1 4.08 1.6-.72 1.28-2.02 1-4.08zM814.2 112.3l-2.75-2.58c.12 1.4.19 2.31.28 3.34zM774.81 133c-1.93-.56-3.25-.33-4.24 1.13 1.33-.43 2.93.75 4.24-1.13zM638.45 240.2l.72.06v-3.12h-.42zm8-1.76a6.25 6.25 0 00-1.31-.59 10 10 0 00-1.55 0c.06.35 0 .87.21 1a2.54 2.54 0 001.39.49c.27.02.56-.34 1.25-.9zm-24.12 126c.72 1.32 1.54 1.49 2.43.8.37-.29.5-.9.74-1.36-.45-.13-.94-.44-1.33-.34a9.2 9.2 0 00-1.85.9zm4.29-5l-1-.43-.57 2.37a4.74 4.74 0 001 .12 20 20 0 00.56-2.06zm-34.83 59.3c1.56-.59 1.4-1.64 1.42-2.54 0-.2-.5-.56-.78-.57s-.81.34-.82.55a22.1 22.1 0 00.17 2.56zM777.88 151.6v.56h2.8v-.56zM636.07 251.78h-.74V254h.54c.07-.69.13-1.45.2-2.22zm140-64.19c.26.22.61.63.72.58a2.93 2.93 0 00.76-.77c-.24-.19-.54-.56-.7-.51s-.5.45-.76.7zM556.4 457.79c.39-.72.72-1.31 1-1.92 0-.05-.32-.34-.33-.33a10.42 10.42 0 00-1.31 1.26c-.06.07.3.48.64.99zM525.37 172c-.38.75-.85 1.29-.73 1.57a5.73 5.73 0 001.23 1.4 4.3 4.3 0 00.49-1.51c-.03-.39-.5-.77-.99-1.46zm269.46 6.87c.36.11.75.35 1.06.27s.29-.57.43-.88c-.33-.12-.74-.42-1-.32s-.32.61-.49.94zm-224.41 257h-.6v1.8h.42zM696.27 82.8a9.14 9.14 0 00-1.15 1.07c-.07.08.28.49.43.74a5 5 0 001.16-.79c.1-.11-.25-.6-.44-1.02zM648 342.85l-.83-.34a3.29 3.29 0 00-.3 1c0 .1.65.36.71.29a3.69 3.69 0 00.42-.95zm68.76-230.48v-.44h-1.89v.44zM630.12 259.3l-.48-.94c-.19.3-.53.59-.55.9s.29.61.45.92c.2-.29.39-.58.58-.88zm-82 216.29l-.33-1-.79.41a3 3 0 00.41.91c.06.02.48-.22.75-.32zm88.69-125.5a11.77 11.77 0 00-.68 2.15c0 .22.37.46.57.69.12-.14.35-.29.35-.43.03-.5-.05-1.07-.2-2.41zm81.98-251.92c-.08-.16-.15-.32-.22-.48-.14.41-.3.82-.41 1.24 0 0 .25.15.38.23.08-.33.16-.66.25-.99zM636 357.51l-.49-.95c-.19.3-.53.59-.54.89s.29.61.46.92zm144.7-211.69a7.21 7.21 0 00-1.57-.29c-.21 0-.39.48-.59.73a6.63 6.63 0 001.45.47c.17.02.38-.47.71-.91zM563 384.66c.16-.29.44-.58.46-.89a2.51 2.51 0 00-.38-.93 4.82 4.82 0 00-.64 1.11c-.06.19.34.48.56.71zm76.1-155.23c-.12.11-.36.25-.35.33a5.69 5.69 0 00.34.82c.13-.1.4-.24.38-.3a5.76 5.76 0 00-.39-.85zM579.8 505a4.82 4.82 0 00-.9-.41c-.09 0-.36.23-.36.36s.25.4.35.38a4.76 4.76 0 00.91-.33zm59.6-271.23l-.4-.77c-.11.12-.34.27-.32.35a4.74 4.74 0 00.38.83zm-39.76 259.6c-.1-.16-.23-.48-.29-.46a7.35 7.35 0 00-1 .36c.11.15.24.45.32.44a5.78 5.78 0 00.97-.34zM529.49 471l-.39-.35a5.93 5.93 0 00-.38.86c0 .08.22.23.34.35.15-.26.29-.55.43-.86zm40.61-5.1a1.94 1.94 0 00.14-.51c0-.05-.25-.1-.38-.15a1.6 1.6 0 00-.13.51c0 .08.27.12.37.17zm79.72-397.66l-.27-.45c-.12.13-.35.31-.33.37a2.87 2.87 0 00.44.55zm-79.93 379.39a5 5 0 00-.24 1c0 .12.22.25.34.38a3.28 3.28 0 00.45-.87c.03-.14-.34-.33-.55-.51zm1.37-5c-.18.26-.5.51-.51.78s.28.57.43.86c.18-.27.49-.54.51-.82s-.28-.51-.43-.79zM569 428.86l.16-.49-.54.32zm177.9-237.29l.39.23.08-.33zm-86.88 67c.15-.1.43-.24.41-.29a6.21 6.21 0 00-.39-.88c-.13.12-.39.26-.37.34a3.76 3.76 0 00.33.82zm17.07-162l-.75.57c.12.13.26.39.35.37a5.48 5.48 0 00.93-.34zm5.26 1.94c-.12.11-.38.26-.36.34a5 5 0 00.36.87c.13-.11.4-.26.38-.33a5.2 5.2 0 00-.39-.91zM793.64 185l.47-.27c-.12-.13-.31-.39-.35-.37a3.23 3.23 0 00-.59.46zm-21-76.13c-.19-.23-.37-.64-.56-.65a2.77 2.77 0 00-1 .35c.19.23.36.64.56.65a2.55 2.55 0 001.04-.38zm-117.22 2.48l-.24.4.33.07zm-18.29 254.78l-.3-.38-.35.33.48.49zm-2.89-4.25c.12-.05.34-.08.34-.14a1.37 1.37 0 00-.1-.47c-.12 0-.36.08-.36.13a1.41 1.41 0 00.12.48zM781 117.65l-.8.38c.1.14.24.41.28.39a5.88 5.88 0 00.85-.39zm-153.49 4.28l.94-.35c-.08-.13-.15-.35-.25-.36a4.82 4.82 0 00-.93 0zm189 3.8h.37l-.15-.49zM601.65 274.94a5.32 5.32 0 00-.41.83c0 .06.23.21.36.31a4 4 0 00.37-.79c.03-.08-.2-.23-.32-.35zm-19.74-146l.9-.33c-.17-.21-.32-.56-.51-.59s-.58.17-.87.27zm-54.83 5.19l-.14-.51-.26.65zm271.11 42.35a7.25 7.25 0 001 .37c.07 0 .32-.38.29-.41-.18-.22-.43-.54-.63-.53s-.42.33-.66.55zM526.78 162.4c-.13-.13-.29-.4-.39-.38a5 5 0 00-1 .35c.12.14.27.42.37.4a6.35 6.35 0 001.02-.37zm38.94 2.36c-.12-.13-.23-.35-.36-.36s-.26.2-.39.32c.12.13.23.36.35.36s.27-.2.4-.32zm139.93 6.82l-.19.28h.29zm100.32.16l.27.19v-.3zm-227.65-14.21l-.19.25.28.05zm188.15-.75l.18-.26h-.29zM722 139.17l.2-.26h-.28zm-100.5 39.38l-.18.26h.28zM640 355.23l.26.21.06-.3zM782.94 112.9c-.13.11-.35.22-.36.34s.21.26.32.39c.13-.12.36-.23.36-.35s-.2-.28-.32-.38zm-133.36.21l-.18.25h.28zm161.45-6c-.13.11-.35.22-.35.34s.2.25.31.38c.13-.11.35-.22.35-.35s-.2-.29-.34-.41zm-209.63 81l.26.18v-.27zm76.25-98.38l-.2.27.29.05zM544.49 417.29l-.26-.18-.05.27zm152-328.52l-.26-.18v.27zM570.05 422.93l-.2.29h.3zm19.79 2.75l.2-.27h-.29zm87.81-339.44l-.2.27.29.06zM567.8 430.89l-.35.29.63.07zm-3.7 4.11c.12-.1.31-.19.32-.3s-.17-.23-.27-.34c-.11.1-.31.19-.31.3s.16.25.26.34zm27.2 5.68l-.27-.19v.3zm39.49-236.5l-.24.38h.41zm89.89-126l.25.18.05-.27zm-70-4.85l-.2.29h.32zm-33.62 394c-.11-.05-.26-.19-.34-.16s-.26.21-.39.33l.73.2zm-92.65 3.49l-.19.27.29.05zm180.08-240.39l.18-.25h-.29zm-62-4.53l.41-.36c-.12-.14-.24-.37-.37-.38s-.27.22-.4.34zM727.07 466.88c0-.2.07-.52 0-.57-3.29-1.84-3.3-1.84-5.48-5.94l3.56 1.85c-.66-1.85-1.07-3.22-1.63-4.53-.78-1.85-3 .25-4-1.57 1.48-3.45-.42-6.39-2-9.4-2.07-.79-1 3.86-4 1.87.44-3.57.91-7.34 1.37-11.1l-.16.15 1.6 2.33a3.35 3.35 0 00.26-3.73c-1.2-2.58-2.19-5.25-3.27-7.89a1.65 1.65 0 00.45-.19c.06 0 0-.21 0-.33l-.35.63c-.21-.32-.44-.63-.65-.95-1.11-1.73.19-1.85 1.56-2.07a21.74 21.74 0 00-.63-2.21c-.7-1.8-2.34-3.78-2-5.31.48-2.05 0-3.73-.13-5.59 0-.8.74-1.66 1.34-2.91l2.54 2.06v-4.57l-3 1c-.31-.87-1.06-1.85-.88-2.6 1-4.09-.61-8.08-.31-12.15.11-1.46-.65-3-1-4.48-.81-3.33-2.21-6.58-.53-10.1.47-1 .32-2.28.47-3.59l3.65-2.33c.14-.58.37-1 .27-1.3-1.31-4-.17-7.57 1.66-11.08.9-1.71 1.73-3.47 2.52-5.23 1.07-2.39 1.56-5.29 5.07-5.41.29 0 .6-.43.86-.71 3.93-4.33 8.92-4.83 14.33-4.06a6.41 6.41 0 003.86-.37 5.14 5.14 0 014.93-.59 12.29 12.29 0 003.45.49 159.17 159.17 0 0018.52.79c3.61-.14 7.33-.3 10.42-2.86 2.22.69 4.47 1.31 6.66 2.09a2.55 2.55 0 011.69 3.27l.11-.07c-.09.17-.27.35-.25.51a6.06 6.06 0 00.3.91L788 349c.69 2 3.4.68 4.23 2.77l-3.3 2c.37.7.69 1.32 1 2-1.61 1.24-3.24 2.48-4.78 3.65a7.51 7.51 0 01.42 2.39c-.2 1.09-.89 5-.87 5.53.1 2.07-.59 4.59.35 6.13 2.25 3.7 1.8 7.87 2.87 11.74.82 3 1.08 6.05 3.61 8.25a2.13 2.13 0 01.76 1.47c-.24 2.75 1.9 4.61 2.52 7 .77 3 2.27 5.35 5.59 5.86-.56 1.82-1.1 3.24.25 4.62a38.93 38.93 0 012.52 3.17l.16-.15c-1 .44-.8.91 0 1.39l-.15-.15c.44.88.89.65 1.35 0l-.1.08c1.65.24 2.13 1.44 2.18 2.85.09 2.5 1.52 3.49 3.76 4.28 3.19 1.12 5.56 3.68 8.24 5.67l-.13-.14a7.47 7.47 0 016.3 3.33 10.62 10.62 0 004.13 2.94 6.82 6.82 0 003.24.29c1.66-.1 3.32-.37 5-.57v.05c1.86 1.44 4.1 1 6.17 1.07 3.84.09 7.68-.17 11.53-.21a48.62 48.62 0 017.54.21c1.66.24 1.7-2.47 3.11-1.53s2.4.64 3.79.28c1.2-.32 2.57.38 3.84-.55.3-.22 1.37.43 2 .84.93.64 1.52.5 2.49-.13s2.45-.75 3.66-1.08c.19.45.36.68.31.77a7.8 7.8 0 01-.69.91c.29.14.59.4.86.39 3.18-.16 3.18-.17 5.95 1.86l1.24-2.1c4.07 2 8.31 2.06 13.2 1.56a16.8 16.8 0 003.2 2.38c1.46.67 2-.4 1.91-2.11 3.29 1.48 6.09-.85 9.22-.9 2 0 4-1.63 5.76.5 2.42-1.24 5.31.21 7.82-2.14a8 8 0 019-1.31l-.26.2.2-.29a69.72 69.72 0 017.52.26c1.4.19 2.7 1.13 4.35 1.86l2.41-3.81c3.47-.86 7-1.8 10.55-2.56 1-.23 2.34-.49 3.12.78a4.44 4.44 0 00-1 .33c-.16.09-.21.37-.31.57.15 0 .41.13.44.08a12.06 12.06 0 00.69-1.15c2 2.21 2.27 4.4-.52 6.58l2.5 1.28c-.34 1.8-.72 3.67-1 5.55a8.6 8.6 0 00.92 6c.9 1.4 1.4 2.3 1.06 4-.27 1.37.21 2.7-.62 4.29-1 1.9-1.82 4.3-.26 6.59.87 1.27.46 2.6-.2 3.86-.33.65-1 1.39-.89 2 .43 2.15-1.25 3-2.37 4.1.34.77.64 1.47.95 2.18L963.7 481c1.63 2.19 1.33 4.61.55 7a3.26 3.26 0 00.32 3.3c1.5 1.69-.06 3.21 0 4.8l.15-.07c-.1.16-.31.33-.29.48a5 5 0 00.31.95l-.17-.09-3.27 3.6c.57 1.32 1.16 2.72 1.77 4.12-.66 2.43-1.31 4.56-3.84 6.06-1.84 1.11-2.91 3.51-4.37 5.4a32.66 32.66 0 00-5.49-.57c-1.81.1-3.86 0-5.52 1.5 1.64 2.18 3.86.32 5.78 1.48a98 98 0 01-15.23 3.21c-1.93.23-3.85.52-5.77.81a25 25 0 01-9.68.1c-2.71-.62-5.78 0-8.64.39-4 .59-7.88.89-11.89-.81a16.18 16.18 0 00-8-.78c-3.52.45-6.92-.17-10.73-.29a15.08 15.08 0 01-2 2.45 10.09 10.09 0 01-3 1.6c-1.24.44-2.13-1.59-3.73-.5-1 .72-2.57.77-4 1.14a19.12 19.12 0 00-2.36-1.63 33.77 33.77 0 00-3.79-1.28l6.22-.75v-.39h-6c-.76 0-2 0-2.21.48-1.8 3.27-5.66 2.21-8.1 4-2.72 2-5.62.76-8.46.6-1.19-2.76-2.29-1.28-3.73-.14-.64.51-2.29.94-2.5-1.12 0-.33-1.8-.92-2.52-.67-5.74 2-10.38-.46-15.12-3.21a51.66 51.66 0 00-8.49-3.78c-5.07-1.79-10.48-2.56-15.36-5-.6-.3-1.49 0-2.24-.05a20.13 20.13 0 01-4-.6c-3-.93-5.92-1.93-8.78-3.12-2.47-1-4.7-2.31-7.66-1.78a4.75 4.75 0 01-5.18-3.09c-1-2.63-3.07-3.83-5.34-5a41.14 41.14 0 01-3.75-2.6c-2.39-1.61-4.84-3.15-7.2-4.81a18 18 0 01-3.48-3c-1.57-1.9-2.72-4-4.7-5.74-1.74-1.5-2.31-4.34-3.34-6.47-2.5 0-4.87.42-7-.12a7.65 7.65 0 01-4.77-4l-.17.15a18.36 18.36 0 001.44-2.44c.63-1.56.53-3-1.16-3.91zm213.34-29.82c-.53-.13-1.07-.28-1.61-.37-.15 0-.32.11-.48.17.18.22.41.64.53.61a10.18 10.18 0 001.56-.59l-.12-.3zM734.49 473.8l.54.73-.68-.61a14.87 14.87 0 00-.86-1.9c-.1-.17-.61-.08-.93-.11 0 .45-.18 1.18 0 1.29a8.11 8.11 0 001.93.6zm17.41-3.4c.11.5.2 1 .35 1.51 0 .12.28.18.43.26.11-.27.37-.7.29-.8a7.34 7.34 0 00-1.18-.87c.08-2.66-1.35-4.51-3.26-6.11a5.43 5.43 0 012.27-5.15c-1.81-2.48-4.21-3.12-6.61-3.71-1.86 3.78 3.18 4.7 2.66 7.76 0 .24.81.66 1.27.94.14.09.38 0 .57 0-1.02 3.15.58 4.93 3.21 6.17zm99.24-3.4l-.27-1.32-.64.47 1 .75c-1.28 1.8-2.93 3.42-3.37 6.41a10 10 0 004.22-4.61c.21-.3-.59-1.1-.94-1.7zM721.61 353.94c-2.6 1.63-3.41 4.05-3.58 7.57.85-1 1.38-1.32 1.56-1.8.71-2 1.32-3.95 2-5.93v-.22zm66.48 122.19c1.56-3.22 1.88-6.81.51-8.82-.67 3.18-1.5 6-.39 9zm146.32 30.24c-.69-1.42-1.38-2.84-2.21-4.57l-3.29 4.49-1.23-1.06-2 3.08h5.26c-1.13 1.42-1.13 1.42-5.85 2.83a42.26 42.26 0 0012.09-.53l1.81-5.34a38.8 38.8 0 00-4.1-.16c-.22 0-.38.92-.57 1.41zm-92.36-26.78c1.54-4.65 5.72-7.39 5.63-12.67-2.87 1.59-2.34 4.75-4.3 6.44h-4.83c-.56 1.15-1.06 2.18-1.64 3.4zm-83.53-117.67c-3-.56-5.38-.53-7.12 2.16.1 1 .23 2.11.32 3.22s.09 2 .13 3.05c1.71-3.28 5.98-4.23 6.67-8.43zm29.77 92c-.79 3.37 1.19 6.57-2 8.65l4.24 3.06c.43-1.45 1.45-3.11 1-3.74-1.53-2.25.37-5.76-3.24-7.95zm34.48 46.53c-1 2.4-1.84 4.17-2.63 6 2.8 1.27 2.8 1.27 4.85.65-.65-1.94-1.29-3.87-2.22-6.63zm14.66 9.09c-2.86-1-2.86-1-4.68.68zm-55.92-19.47c.4-.19.68-.24.71-.36.21-.79.37-1.59.52-2.39l-.39-.2c-.4.72-.78 1.43-1.12 2.17-.06.13.1.34.28.8zM794.77 428l-.47-.92a14.73 14.73 0 00-1.51 1.44c-.09.11.27.58.43.89.44-.3.9-.58 1.32-.91.13-.14.16-.37.23-.5zm-40.56 35.77c-.77-.51-1.24-1.05-1.71-1.06s-.93.67-1 1.08.6.89 1 1 .82-.5 1.71-1.06zm87.5 6.1a4.23 4.23 0 00.76.56c.12.06.5-.13.49-.17 0-.25-.16-.7-.22-.69a4.92 4.92 0 00-1.03.26zm-43.43-55.1c-.24.35-.63.69-.57.83a5.55 5.55 0 00.85 1.11l.85-.89zm44.48 96a15.06 15.06 0 002.24.52c.15 0 .33-.43.46-.68 0 0-.29-.31-.42-.29-.52.05-1.04.18-2.28.44zm-1.55-4.9l.24-.41-.34-.07zm-29.08-3.59c-.19.29-.53.58-.53.87s.31.6.49.91c.19-.29.52-.58.53-.87s-.31-.62-.49-.92zm-33.71-12.8c0-.17.05-.33.08-.5l-.62.13a1.58 1.58 0 00.18.46s.24-.06.36-.1zm-21.6-6.68a6.4 6.4 0 00-.83-.41c-.06 0-.21.24-.32.37a5.12 5.12 0 00.82.39c.07.01.22-.23.33-.36zm29.41-12.18l-.66.57c.13.12.28.37.38.35a5 5 0 00.88-.34zm-68.65-27.05l-.12-.5c-.13 0-.37.08-.38.13a2 2 0 00.13.5zm210.14-4.5l-.38.4a5.74 5.74 0 00.93.39c.1 0 .26-.23.4-.35zm36.6-2a6.61 6.61 0 00-.93-.36c-.12 0-.28.19-.42.3.21.19.41.54.62.54s.49-.27.73-.45zm-215.21-86.53a4.6 4.6 0 00-.91-.3c-.12 0-.27.19-.4.3.23.17.45.45.7.48s.4-.3.61-.48zm35.81-4.54l-.44-.26-.07.38zm-48.46 5.76c-.11-.12-.22-.34-.34-.35s-.25.2-.37.31c.11.13.22.34.34.35s.25-.24.37-.35zm24.44 8.18l-.35-.21v.36zm-28.43 6.2l.25-.36-.4-.05zm8.47 67.52l-.28-.19v.31zm209.3 4.71l-.3-.2v.31zm-28.45 2.3l.25.19.05-.28zm-124.87 2.6c.11-.11.3-.21.3-.32s-.18-.22-.28-.33c-.11.1-.3.21-.31.31s.18.19.29.3zm-82 1.84l-.2.32h.34zm204.65 4.64l-.22.37h.39zm29.46 12l-.26-.19v.28zM820 503.76l.37.23v-.39zM768.46 505l.31.19v-.32zm68.09.29l.19-.28h-.29z"/><path d="M964.74 228.71c-1-.16-1.5.33-1.35 1.2.23 1.29 1.11 2.59 1 3.79-.33 2.6.21 5.26-.22 7.72-.47 2.66-2.15 5.12-3.36 7.64-.13.28-.62.4-1 .6a4.54 4.54 0 00.25-1.11 1.74 1.74 0 00-.39-1c-.08-.09-.77.12-.79.26a1.64 1.64 0 00.21 1.08c.18.28.57.43.87.64-.5 1.18-2 2.47-.67 3.65 1.72 1.54-1.18 3.34.65 4.76 1.55 1.22.39 2.85.38 4.32 0 .84.75 1.66 1 2.52.88 2.55 1.93 5.11-1.16 7.07a2.61 2.61 0 00-.86 1.92 2.51 2.51 0 01-2 2.49 3 3 0 00-2.14 3.6c.09.74.25 1.77-.14 2.24-2.33 2.77-1.1 5.4.25 8.33-2.38 1.16-4.52 2.63-7.32 2.71a5.8 5.8 0 00-2.64 1.08 8 8 0 01-7.78.53c-1.86-.85-3.2-.93-4.68.55a2.11 2.11 0 01-3.1.1l-.09-.3.12.47a8.54 8.54 0 00-1-.6c-2.67-1.09-12.87-2.39-15.86-2.15a36.51 36.51 0 01-5.82.13c-1.9-.15-3.79-.94-5.68-.92s-3.74.78-5.63 1a33.82 33.82 0 01-9.26-.18c-2.27-.36-4.64 0-7 0-2.13-.05-4.25-.21-6.61-.34.29-.81.53-1.47.89-2.51a11.48 11.48 0 00-2.05-.49c-5.81-.42-11.63-.76-17.43-1.24a2.27 2.27 0 01-2.33-1.77c-.43-1.37-3.3-1.42-3.69-.15-.8 2.62-2.71 1.61-3.28.85a3.73 3.73 0 00-4-1.46 15.86 15.86 0 01-9.11-.9 7.3 7.3 0 00-5.69.13 6.68 6.68 0 01-5.63.08 3.1 3.1 0 00-2.19-.29c-2.85 1-5.69.38-8.56.32a147.06 147.06 0 00-15.56.34c-4.17.36-8.45-.4-13-.69.24-1.36.39-2.25.57-3.24-.35-.32-.74-1-1.21-1.06-4.69-.68-9.4-2.16-14.09.25a6.14 6.14 0 01-3.28.55c-2.29-.27-3.68-1.34-4.18-4-.45-2.45-1.46-4.75-1.06-7.37.15-1 .34-2.34-1.15-3a2.18 2.18 0 01-1-3 5.85 5.85 0 00-.77-6c-.58-.82-.49-2.12-.7-3.18 2.1-.5 1.61 1.58 2.87 2a3 3 0 002.72-2.91 4.61 4.61 0 00.05-1.17c-.23-2.09-.58-4.18-.7-6.27-.11-1.85 2.13-3.07 1.22-5.37-.63-1.59 1.94-3 .89-5.28-.6-1.32.44-3.36.63-5.08.21-1.93 0-3.93.47-5.79.86-3.56 2-7 3.1-10.57a4.41 4.41 0 01.5-1c1.4-2.27 2.67-2.55 5.93-1.24l3.32-2.78c.53.33 1 .46 1.11.73.49 1 .85 2.14 1.3 3.2.74 1.77 1.71 2.55 3.56 2a7.63 7.63 0 014.49.09 20.66 20.66 0 009.16.46c1.89-.3 3.83-.31 6-.47l-3.36-2.81a156 156 0 0116.58-1.93c5.38-.35 10.8-.08 16.12-1.63 2.35-.69 5-.38 7.55-.22 1 .07 2 .95 3.06 1.47.95-.56 1.91-1.54 2.89-1.55s1.94 1 2.42 1.21c3.68 0 7 .14 10.23 0 7.17-.35 14.38.19 21.51-1.1a20.15 20.15 0 014.59 0c1.5.09 1-1.28 1.44-1.92a3.4 3.4 0 011.11.28c2.61 1.91 5.19 2.31 8 .31 3.16-2.22 6.36-.75 9.32.56.83.36 1.19 1.14 2.26.46a4.62 4.62 0 012.65-.84c1.69.17 3.34 1 5 1s3.25-.55 5 .55a5 5 0 003.84.12 7.32 7.32 0 015.09-.14 27 27 0 0011.25 1.23 27.25 27.25 0 019.06.84c.49 2.28-1.72 1.71-2.47 2.67a2.61 2.61 0 00.79.38c4.62.57 9.27 1 13.87 1.7 2.81.44 5.59 1.05 6.21 4.77.24 1.38 1.61 2.58 2.51 3.92-.5 1.29.1 3.11-1.63 4l.12-.15-.75-1.39-.6 1.4zm-131 22l-.22.23.09-.36.23-.24zm30.38-18.83l1.71-.76c-.15-.12-.29-.33-.45-.34-.9-.09-1.42.21-1.15 1.23h-.32zm57.6-3.16a4.21 4.21 0 00.95-.47c.15-.12.12-.45.18-.68-.3.08-.73.06-.86.25s-.1.68-.14 1l-1.32-.07c.08.09.18.26.24.25a9.56 9.56 0 00.94-.23zm-89 12.67l.56-.07c1.08-.11 2.37.22 2.76-1.28.07-.28-.12-.88-.33-1-1.8-.67-2.22.71-2.72 1.94a4.86 4.86 0 00-.11.55 2.68 2.68 0 00-1.06-.27 3.65 3.65 0 00-1.15.64s.15.43.22.42a2.62 2.62 0 001-.2 4.05 4.05 0 00.8-.68zm1-8.47a7.92 7.92 0 001.12 1.25c.57.43 1.29 1.06 1.86 1 .8-.11 1.51-.8 2.81-1.55-1.48-.8-2.37-1.6-3.33-1.7-.73-.08-1.55.73-2.33 1.15zm87.84 29.23l-1-.74c.19.39.39.77.59 1.16l-3.62.78c.92.6 1.44 1.23 2 1.26 2.16.1 4.87-1.27 7.38-3.66zM863.88 252c-2.1.08-4.24 0-6.18 1.29 1.17 1 2.09 1.95 3.14 2.69a4.17 4.17 0 004.38.62c.34-.16.3-1.11.5-2 2.33-2 6.92-2.33 7.3-7-4.45-3.55-6.73.67-9.76 2.08.19 1 .32 1.74.46 2.49zm70 29.25c1.19-3-.68-4-1.13-5-6.51 3-13.44-.63-19.42 2.36-6.55-.28-13.09 0-19.63.18s-13-.32-19.52.6a17.29 17.29 0 004.51.54c7 .06 13.95 0 20.92.17 2.51.05 5 .79 7.5.86 7.17.18 14.34.18 21.51.25zM783.11 228c6 1.13 11.58-.35 16.84-4.43-2.81-1.6-5.64-1.07-8.47-.79-2.52.25-5 .59-7 2.3-.72.64-.91 1.92-1.37 2.92zm142.45 29c4.09-1.71 7.43-2.08 9.15-4.79 1.47.13 2.9.66 4 .25a4.11 4.11 0 002.65-4.15c0-.52-.28-1.3-.64-1.46a2.82 2.82 0 00-2.12-.15 34.08 34.08 0 00-5.91 3.53c-2.23 1.77-5.34 2.52-7.13 6.77zm23.25-29a8.56 8.56 0 00-6.39-1.57c-1.57 1.56-3.53 2.78-4.63 5.15l9.05 1.86zm-47.18 32.27c-1-2.15-1.49-2.75-2.41-2.63a9.32 9.32 0 00-5.84 2.56c3.35-.2 5.62 1.87 8.25-.02zm-58.89-28.74c3.89 1.16 6.62-.44 9.52-1.08a2.06 2.06 0 00-2.65-1.88 72.2 72.2 0 00-6.87 2.87zm28.42-.59c2.88-.15 6 .5 8.52-2.06-3.51-1.1-6.01.45-8.52 1.97zM776.49 267c1.84.28 3.07.12 3.27-1.73-2.46-1 .43-2.45-.34-3.78l-3.15 1c.08 1.63.15 3.1.22 4.51zm154.29-7.4c2.34.74 3.79-.49 5.4-1-.21-1.29-.35-2.14-.52-3.2-2.44.6-3.31 2.6-4.88 4.19zm-90.39-24.45c2.59.58 4.46 1 5.64-1.49-2.35-1.28-3.59.34-5.64 1.48zm90.73 33.51c-1.88.4-2.68.36-3.21.72-.73.5-2 .59-2.06 2.05 1.76-.13 3.45.03 5.27-2.78zm8.39-33.7c1.28.89 2.49.75 4 .12-2.44-1.76-2.44-1.76-4-.08zm-72.64 10.68c-1.33-1.69-2.36-1.3-4 .52zm4.5 14.47c-.83-.65-1.17-1.13-1.58-1.21-1-.19-1.9.17-1.91 1.35 0 .35.71 1.06 1 1a12.78 12.78 0 002.49-1.15zm4.69-9.69c-.43-.5-.74-1.15-1.08-1.17s-.88.49-1.32.76l1.17 1.49zm-21.19-21h4.19c-2.31-2.09-2.31-2.09-4.19-.04zm33.69 15.55c-.16-.45-.26-.74-.36-1a7.72 7.72 0 00-1.33.63 2.11 2.11 0 00.3.85 10.63 10.63 0 001.39-.52zm-7.78 45.87c-.29-.22-.6-.62-.87-.6s-.57.45-.85.7c.29.2.6.58.89.56s.55-.5.83-.7zM870 278.08a6.06 6.06 0 00-.74.6s.16.3.25.45a9.2 9.2 0 00.77-.63s-.16-.28-.28-.42zm-4.91 0c-.16-.05-.34-.17-.46-.12s-.18.25-.26.39a2.08 2.08 0 00.5 0c.13-.05.13-.19.24-.28zm61.91-2.26c0-.15 0-.38-.13-.44s-.34-.05-.52-.07l.15.67zm-14-17.36a5.16 5.16 0 00-.42-1.07 8.61 8.61 0 00-1.45.44c.11.28.21.81.34.82a7.7 7.7 0 001.53-.19zm28.83-13.75a5 5 0 00.59-1.24c0-.16-.39-.41-.61-.61A9.4 9.4 0 00941 244a6.93 6.93 0 00.85.71zm-160-18c-.13.11-.38.24-.36.32a4.66 4.66 0 00.3.89c.13-.11.38-.24.37-.32a5.51 5.51 0 00-.33-.89zm101.31 2.06l-.5.14.63.24c-.06-.15-.11-.25-.15-.38zm-52.34 6.38c0-.13 0-.33-.08-.39s-.3-.06-.45-.09c0 .21.07.42.11.63zm106.4-22.32a4.26 4.26 0 00-.85-.38c-.1 0-.25.2-.38.32a7.34 7.34 0 00.86.39c.09.02.24-.22.37-.33zm-97.65 37l-.5.12c0 .13.08.38.13.38a1.87 1.87 0 00.51-.11zm-3 5.17c0-.12 0-.3-.08-.35a1.23 1.23 0 00-.44-.07l.1.57zm67.16.83c0 .13 0 .32.13.37a2.16 2.16 0 00.53.12c-.06-.23-.11-.46-.17-.7zm18.22 2.48c-.12-.12-.25-.36-.34-.34a4.66 4.66 0 00-.89.3c.11.12.25.37.33.35a5 5 0 00.9-.34zM837.12 276l.42-.17-.43-.15zm15.5 2.94l-.91.38c.12.12.27.37.36.35a5.28 5.28 0 00.9-.36zm4.17 7.09l-.43.26.25.41.65-.46zm28.46 5.24l.44-.2-.84-.08zM777.26 270l-.31-.35c-.12.1-.32.2-.32.31s.18.23.28.35zm155.58-1.14c-.1-.11-.19-.31-.29-.32s-.23.17-.34.26c.09.11.18.31.28.32s.23-.22.35-.31zm-41-8.17l-.37-.25v.38zm-133.19-1.19l-.29-.37c-.12.1-.32.19-.33.3s.16.24.26.36zm72-3.6l.25.19.06-.26zm11.58-2.34l.25.18v-.28zm-12.42-2.26l-.25-.18-.05.27zm59.73-9.3c-.11-.12-.21-.32-.32-.33s-.24.19-.36.29c.11.12.21.32.32.33s.24-.21.36-.29zm-65.74-2.71c-.12.1-.33.21-.34.32s.19.24.3.36c.12-.11.33-.21.33-.32s-.19-.26-.29-.38zm79.5-.58l.23-.37h-.4zm-49.06-4l-.19.26.29.05zM987.79 142.13c-2.37-1-4.7-1.74-7.27-.4a3.74 3.74 0 01-2.81 0c-.71-.3-1.7-1.39-1.59-1.92a2.77 2.77 0 00-1.59-3.36 10 10 0 01-4.75-6.29 23.37 23.37 0 00-3.7-7.46c-1.59-2.17-3.06-4.45-4.44-6.76a41.72 41.72 0 01-5.57-13.29 20.18 20.18 0 00-3.07-6.77c-3.73-6-7.59-12.15-9.18-19.27a12.13 12.13 0 00-1.15-3.29 27.43 27.43 0 01-3.26-10.47 55.48 55.48 0 01-.15-9.29c1.52.32 2.39.56 3.27.67s1.94.39 2.26 0c1.72-2 4.76-2.38 6-4.93.77-1.64 1.65-3 3.75-3.17a4.71 4.71 0 002.6-1.08 6.18 6.18 0 017.49-.94 5.23 5.23 0 003.3.16c3.61-.9 7-.64 10 1.6 2.25 1.7 4.87.85 7.48 1.45a44.81 44.81 0 001 4.46c.49 1.43 1.47.62 2.48.14.07 1.22.14 2.32.21 3.6 3.28.85 4.71 3 5.21 6.45.34 2.41.3 5.64 3.54 6.81-.43 3.47 4.1 5 3.35 8.62 1.63 2.63 3.13 5.34 4.91 7.86 2.78 3.94 5.77 7.74 8.63 11.64a5.14 5.14 0 01.9 2.11c.18 1.1-.29 2.52.25 3.3a29.6 29.6 0 005.54 6.49 17.82 17.82 0 013.78 4.3 4.15 4.15 0 01.36 2.76c-.69 4.34-.74 4.34.49 7.64-1.19 2-3.35 2.61-5.28 3.37a24.94 24.94 0 00-9.09 5.67 8.64 8.64 0 01-6.16 2.75 15.94 15.94 0 01-3.39-.13 10.14 10.14 0 00-7.79 1.39c.92 2.5-1.64 3-2.54 4.46l-1.75-2.71-2.44 4zm-27.89-77c.25 5.33 3.83 8.76 4.26 13.46 2.55-1 2-3 2.5-4.23zm-4.43-6a9.17 9.17 0 001.14 2.15 3.48 3.48 0 001.75.93c.22 0 .89-.88.83-1.28a2.6 2.6 0 00-1.05-1.73c-.57-.31-1.42-.08-2.67-.08zm66.8 56.23v1.59c0 .06.56.13.56.11a2.17 2.17 0 00.2-1c-.03-.23-.36-.38-.76-.71zm-52.58-28.94l.38.25v-.4zM961.44 49l.26.18v-.27zM887.29 81.16a21 21 0 012.22-1.69 23.32 23.32 0 004.57-2.89c2.14-1.94 5.2-2.85 8-4.28l.71 1.86c-1.76.28-3.45.63-3.58 2.92 3.15.43 3.15.43 3.38-3.11 2.12.75 4.71-.66 6.76 1.7.22-1.09.39-2 .56-2.85l-.16.17c2.31.93 4.62 1.84 6.91 2.81.53.22 1.32.6 1.38 1 .74 4.82 6.33 6 7.66 10.43a46.51 46.51 0 002.6 5.77c.65 1.39 1.36 2.75 2.05 4.12.25.5.79 1 .72 1.48-.9 5.37 2.34 9.53 3.95 14.18s4.46 9 5.44 14c2.4 2.08 1.88 5.34 3.17 7.84s2.79 4.63 4 7a7.08 7.08 0 01-1.45 8.2 3 3 0 01-2.4 1.23c-2.51 0-3.71 1.92-4.14 3.78-.3 1.32-.7 2.17-1.77 2.63-4.17 1.8-8.09 4.35-12.92 4.34-1.29 0-2.57.69-3.87 1a35 35 0 01-5 1.17 26.63 26.63 0 01-4.44-.25c-1.07-1.13-.86-3.66-3.43-3.18-.64-2.57-3.92-4.08-3.81-6.42.24-5-2.78-8.32-4.78-12.18a118 118 0 00-7.62-13.56c-3.23-4.62-5.2-9.82-8-14.66-2.66-4.69-5.1-9.52-7.57-14.32a13.17 13.17 0 01-.78-2.67l-3.43-.25c1.52-2.12 3.16-3.68 2.2-6.13-.23-.56.57-1.86 1.23-2.38 2.75-2.13 5.57-4.18 8.48-6.08a10.84 10.84 0 013.3-.88l.25.37zm56.43 66.69l-.18-.17.3.09c0 .4-.36 1.23.64.63zm-28.24-65.46c0-.47.14-1.15-.71-.55l.82.45a2.37 2.37 0 002.41 2.29 8.91 8.91 0 00.58 2c.17.31.79.36 1.21.53l.36-.59-2.29-1.78c-.11-1.49-.58-2.6-2.38-2.35zm-21.09 14.09v-1.43c3.27-.34 3.8-.8 3.23-3.1a40.72 40.72 0 00-1.55-4.11c-1.05.62-2.24.9-2.5 1.56-.81 2-1.15 4.12.92 5.74-.13.13-.38.28-.36.38a4.75 4.75 0 00.35.88c.31 2.32.48 4.71 3.11 5.87-1.07-1.92-.54-4.68-3.2-5.79zm6.61-6.87l1.3-1.17a6.47 6.47 0 00-1.09-1c-.1-.06-.72.38-.72.6a6 6 0 00.51 1.57zm37.17 60.87c-.31.11-.71.14-.91.35s.16.55.26.84c.3-.12.68-.17.88-.39s-.18-.52-.27-.8zm-13-44.15c-.13-.09-.26-.25-.4-.26s-.29.11-.44.18c.13.09.25.25.39.26s.28-.11.46-.18zm14.31 28.9c-.14.08-.42.19-.41.23a6.53 6.53 0 00.31.84c.14-.08.4-.2.39-.26a6 6 0 00-.28-.81zm-42-38.72l-.36.3.66.07zM899.76 85c-.12.11-.33.22-.34.33s.2.24.31.37c.12-.11.33-.22.33-.34s-.19-.25-.3-.36zM93.59 385.13c-.65 1.47-1.29 2.94-2.08 4.76-.33-5-2-9.63.48-14.31l2.83 1.42c-.32 2.8.67 5.74-1.36 8.29l-.19-.3zM460.47 521.43c1 .39 2 .79 3 1.21.08 0 .06.32.15.85-2 .28-4 .61-6.05.82-1.12.11-2.27 0-3.79 0 .16-1.52.29-2.77.43-4 1.69 0 3.36.78 4.07-1.36.11-.31 1-.39 1.53-.53.14 0 .34.13.61.24zM269.18 323.78A63.33 63.33 0 01272 313c1.5-.1 1.48.83 1.41 1.48a16.06 16.06 0 01-4.23 9.3zM91.76 397.14c1.1 4.78 1.07 5-1 6.92a4.37 4.37 0 01-1.44-5.06c.23-.75.49-1 2.44-1.86zM352 294c1-3.21 1.95-6.42 3-9.86.43 3.86-.12 7.27-3 9.86zM348.63 16c-.18-.88-.37-1.76-.54-2.58 1.68-1.43 2.84-.56 4 .66l-3.57 1.76zM518.82 495.74c1.56 1.07 2.22 2.22 1 3.71a1.49 1.49 0 01-1.44.11c-1.23-1.37-.76-2.56.44-3.82zM789.87 95.28c2.84-2.21 2.84-2.22 6.59-2zM509.55 510a15.36 15.36 0 01-1.76 1.92 1.54 1.54 0 01-1.42.15c-.76-.72-.31-1.32.49-1.69s1.53-.66 2.29-1zM386.42 128.84c-.4-.31-.68-.46-.66-.53.3-1.12-.64-2.67 1.1-3.29a.52.52 0 01.51.11c1.08 1.67-.02 2.61-.95 3.71zM569.6 360.49c-2.75-1.26-2.75-1.26-1.57-4.54 1.69 1.28 1 3.18 1.43 4.66zM535 430.55c.52 1.89-.44 2.73-1.9 3.74-.67-2.29-.37-3.48 1.9-3.74zM604.52 247.6c.56-1.45 1.13-2.89 1.69-4.33l.51.17-1.35 4.5zM97.19 437.74l-5.49-.39c-.13-.81-.44-1.81.77-1.16 1.53.82 2.43-.2 3.53-.78l-.19-.11 1.36 1.36-.17-.26v1.46z"/><path d="M855.53 208.34l-4.08.44c1.28-1.98 2.66-1.33 4.08-.44zM72.6 41.52c.84-1.49 2.2-1.6 3.68-1.43l2.22.22-.19-.17a5.76 5.76 0 01-1.82 1 33.61 33.61 0 01-4 .15zM818.87 100.11l.48 2.92c-.53-1.27-.84-2-1.14-2.76zM374.16 189.91c-.05 1.2-.11 2.4-.2 4.38l-1.81-2.63 2.17-1.62zM727.09 473l-2.72-2.58c1.27-1.63 2.23-1 2.68.09.3.73-.06 1.75-.13 2.64zM402.64 408.92h4v.7l-3.93.25zM659.92 41.34c.87-2.15 1.85-1.72 3.36-.39zM562.48 371.22l-1.12.75c-.23-.35-.71-.93-.63-1a5.33 5.33 0 011.24-.85z"/><path d="M374.77 184.78c1.4 2.41 1.36 2.71-.61 5.13l.16.13c.19-1.72.39-3.45.58-5.17zM541.13 420.93c-.2 1.3.61 3-2.23 4.36l2.36-4.2zM26.84 323.25c-.83 1.2-1.24 1.79-1.63 2.37-.62-1.02-.54-1.82 1.63-2.37zM466.85 519.68l1.23.61c-.34.33-.75 1-1 .93s-.73-.65-1.08-1zM407.7 410.87l2.54.21v.49h-2.54zM206.63 360.86c-.69-1.24-1.38-2.48-2.08-3.72l.16-.16c1.43.94 2.64 2 1.8 3.95zM533.28 194.16h-2.57v-.38h2.57zM650.14 55.27l-1.45 2.47c-1.26-2.35.75-1.86 1.64-2.28zM909.93 72.82a8.09 8.09 0 01-1.56-.28c-.15-.06-.16-.53-.23-.81a1.87 1.87 0 01.5.2c.4.34.76.71 1.13 1.06zM392.47 85l-.3.26a9.28 9.28 0 01-.11-1.06c0-.08.18-.17.28-.26.04.39.09.75.13 1.06zM753.46 266.77c.11 0 .33 0 .34.06 0 .32.05.66.07 1l-.64-.09c.08-.33.15-.65.23-.97zM199.8 351.42l-1.55-1.83c2-.21 1.54 1 1.39 2zM87.78 145.8l.8.26a3.86 3.86 0 01-.49.1 2.53 2.53 0 01-.46-.06zM793.94 96.4c1.87-.86 1.87-.86 3.56 0v-.12h-3.63zM518.21 491.06c-.47.29-.94.61-1.44.86-.14.07-.36 0-.54 0 .11-.3.2-.86.33-.86a9.33 9.33 0 011.65.17zM665.35 42.62c.18-1.63 1.3-.76 2.16-.38l-2.26.25zM389.87 124.6c.11 0 .29 0 .3.07a.88.88 0 010 .48 1.7 1.7 0 01-.27.39zM387.72 123.1a14.61 14.61 0 01-.59-2.17c0-.17.38-.38.6-.57.11.15.32.3.31.43-.04.53-.13 1.06-.32 2.31zM232.93 219.56h.45v.14l-.45.06zM252.12 221.23l-.55-.6a5.62 5.62 0 011-.15c.13 0 .27.2.4.32zM478.36 518.14l1.15 2-.56.15c-.16-.76-.33-1.51-.49-2.27zM381.88 147.5c.18.3.53.62.5.89s-.41.57-.64.85c-.17-.31-.5-.62-.48-.91s.4-.55.62-.83zM892.61 525h-1.88v-.44l1.87-.12c0 .18.01.37.01.56zM188.53 13.34l.09-1-.24.89zM782.11 513.74l-.29-.38.15.35zM88.49 33.68l.49-.17.13.64a1.71 1.71 0 01-.51-.1c-.08-.05-.07-.24-.11-.37zM57 38.9l.83.21-1-.16zM518.21 491.19c.07.38.13.77.2 1.15l-.2-1.28zM757.77 236.53l.48-.69c0 .13 0 .31-.12.38a1.64 1.64 0 01-.5.17z"/><path d="M757.63 236.39c-.1.34-.19.68-.28 1l.42-.88zM292.29 243.84l-.57-.76.43.91zM757.41 242.26l-.39-.34c.17-.07.34-.21.49-.19s.27.21.4.32zM261.66 204.26l-.33-1c.08.37.17.75.26 1.12zM757.24 249.64l-.19.31-.09-.36.28.05zM712.92 434.14l-.29.41.09-.88c.07.16.14.33.2.47zM47.85 416.73c1.65.74 1.12 1.51 0 2.29l.19.11v-2.53zM803.72 408.17c.12 0 .31 0 .34.06a1.41 1.41 0 01.11.48l-.6-.08zM558 380.74c-.22.23-.43.46-.66.67 0 0-.17-.11-.26-.16l.81-.35zM445.56 269.47c.77-1.34 1.54-1.13 2.31 0l.11-.19h-2.52zM529.86 114.13l.4.16-.57.4-.23-.32zM284.61 275.35a1.74 1.74 0 01-.12-.5c0-.05.24-.09.37-.14a1.43 1.43 0 01.1.49c.04.07-.23.1-.35.15zM184.49 327.25l.15 2.91.05.09c1.12-1.07.5-2-.28-2.86zM32.53 313.3l-.39 1.12.41-1zM273.13 309.55l.45-.15.11.59a1.11 1.11 0 01-.46-.08c-.08-.05-.07-.23-.1-.36zM237.49 295l1.09.85c-.16 0-.43.18-.47.14a8.7 8.7 0 01-.53-.89zM816 168.76c.75.42 1.21.85 0 1.27l.18.12v-1.48z"/><path d="M237.58 295.1l-.45-.3v.36l.33-.16zM277.32 315.22l-.09-.37-.06.24.15.13zM348.54 322.76l-.23.07.3.1-.07-.17z"/><path d="M348.61 322.93l.07.26-.14-.43.07.17zM390.08 323.35l.46.03h-.28l-.18-.03zM387.17 150.11h.12zM819.56 148.94a4.17 4.17 0 01.3.81c0 .14-.17.31-.27.47l.16.05-.06-1.41zM391.67 326.87c0-.11-.07-.23-.11-.34l.12.47zM387.29 150.15l-.24-.34.12.3zM578.79 327.57l-.33.24.21-.12zM19.64 331.18L20 331l-.23.1zM184.64 330.16l.39.34v-.37l-.34.12z"/><path d="M19.79 331.1l-.34.47.38-.06-.19-.33zM187.98 335.03l-.2-.22.04.35.16-.13z"/><path d="M189.54 336.07L188 335l-.16.13 1.76-.25-.23-.17v1.4zM575.27 339.25l-.32.26.21-.13zM987.64 142.28l.55-.17h-.4zM767.56 343.95l-.14-.35.34.04-.2.31zM195.22 345.45l.18-.35-.55.1.31.16z"/><path d="M195.16 345.36l.4.34v-.37l-.34.12zM788 347.68a3.79 3.79 0 01.28.82c0 .15-.18.32-.28.47l.16.06v-1.42zM3.89 350.55l.32-.11-.05.3-.27-.19zM8.16 351.32L9.49 350l-.16-.09v1.43l.2-.22H8.11zM203.16 356.17a1 1 0 011.55.81l-.16.16-1.23-1.14zM206.51 360.93l.54-.12-.42.05zM787.48 360.87l.14.38-.36-.03.22-.35zM330.83 366.54l.18-.31-.25.24.07.07zM224.18 367.08l.14.48-.13-.32-.01-.16zM363.13 266.23l.1.3-.29-.05.19-.25zM327.33 379.17v1.3l.14.08c0-.48 0-.95.05-1.43zM557.93 380.9l.11-.16zM363.06 263.93l.11.29-.29-.04.18-.25zM553.76 389.02l.1.37-.32-.06.22-.31zM556.66 389.9l-.18-.13.06.26.12-.13zM53.78 408.51l-.05.46.49-.5-.45.1zM604.41 260.06l.59.47c-.12 0-.29 0-.33-.13a1.58 1.58 0 01-.1-.49zM708.09 411l.32.36c-.13.11-.25.3-.37.29s-.21-.21-.32-.34zM90 413.07l-.28.49.39-.08-.24-.36zM803.22 415.54l1.23 1.18.1-.08h-1.35l.15.15v-1.39zM843.71 433.48l.1.31-.29-.05.19-.26zM644.11 84.24v.45l.01-.27-.01-.18zM837.15 435.37l.38-.14-.4.19zM714.79 437.49l-.75-.05c.08 0 .17-.07.22 0a2.92 2.92 0 01.37.24zM712.47 441.86l.3-.12-.03.3-.27-.18zM29.12 80.07a6.7 6.7 0 00.23-.88 1.38 1.38 0 00-.08-.48h-.06v1.46zM293.43 240.31l-.63-.76.45.92zM727.2 466.81c-.12.15-.23.31-.34.46l.43-.07-.22-.32zM397 56.88c.09.12.27.24.26.35s-.21.2-.32.29c-.1-.11-.27-.24-.26-.34s.2-.18.32-.3zM26.88 46.17l1.27-.09v-.09h-1.38zM273.48 495.1l.44.3-.08-.39-.29.23zM183.14 220.41l.48.09-.32-.04-.16-.05zM964.54 496.13c.67.43.71.85 0 1.27l.17.09v-1.43zM965.8 228.67l-.64-.82-.42.86-.17-.18h1.35zM370.94 19.13l-.21-.4.12.27zM373.85 16.3l-.38.12.05-.35.33.23zM782 513.71l.24.24-.1-.21zM356.27 14.05l-.31.09.05-.28.26.19zM188.38 13.2l-1.71 1.17.14.08 1.72-1.11zM159 428.52l-.08.11zM127.39 105.67l-.49-.11.83-1.18c.18.21.36.43.55.64zM57.16 89.12l-.25.73c0-.11-.07-.27 0-.32a1.64 1.64 0 01.42-.26zM163.81 371.12zM358.29 421.1l-1.35-.17 1.19.22zM581 193.45l.37.15-.24-.29-.13.14zM661.88 248.59l.27-1-.41.89zM934.3 506.52l.08.18.03-.33-.11.15zM863.72 252.1l.57-.08-.41-.07zM895.77 91.68l-.12.38.54-.23-.33-.13zM895.86 91.7l-.21-.37.12.35z"/></svg>