<svg data-name="Layer 1" xmlns="http://www.w3.org/2000/svg" viewBox="0 0 1316.46 500.23"><path d="M416.41 227.64l3.63 2.71-.14-.17 1.29 2.51-.09-.14c.11.94.67 2.06-1 2.22l-.19-.21.32.32 1.88 3.31c-.06.3-.11.61-.16.91l.13-1.06a34.63 34.63 0 012.88 4.7 30.07 30.07 0 004.33 7.87c.3.37.18 1.09.25 1.65l-.46.41-2.91-2.51c1.87 5 3.66 9.48 5.3 14.06.89 2.48 1.42 5.11 2.71 7.42a47.88 47.88 0 004.17 6.22 44 44 0 004 3.95l-1 1.8a8.86 8.86 0 003.42 5.93c.64 5.88 1.47 11.34 5 16.15.26 1.52.18 3.4.91 4.89 1.22 2.51 1.37 5.14 1.65 7.77a60.23 60.23 0 001.48 9.14 17.88 17.88 0 01.19 4.58c0 4.83 0 9.64-1.06 14.42-.6 2.69-.09 3.41 1.69 5.89-.9 2.23-1.83 4.53-2.72 6.76 1.55 1.67 2.48.1 3.87-.58.12.74.22 1.39.33 2.08l-2.36.66c-.22.3-.58.57-.64.9-.19.94-.66 2.09-.31 2.82 1.47 3 .81 6.07.35 9.14-.23 1.53-.42 3.07-.63 4.62.76 1 1.45 1.89 2.2 2.87l-2.6 1.06c-1.43 3.47-2.15 7.24-4.85 10.13-.71.76-.77 2.12-1.09 3.22-.14.52 0 1.23-.31 1.57-2 2.25-2.72 5.08-3.77 7.78-.39 1-1.45 1.73-2.21 2.58l.15.14c-.17-.08-.35-.23-.52-.23-3.08-.08-4.79 1.48-5.39 4.9-.86-.19-1.8-.55-2.06.88 1.16.56 1.69 0 1.94-1l1.91.93a7.76 7.76 0 01-3 5.7c-3 2.18-5.19 5-7.62 7.71a28.13 28.13 0 01-3.3 2.7l.7 1.91c-.09.24-.12.7-.35.85-2.56 1.74-3.48 5.28-6.78 6.2-1.61 2.71-4.17 4.48-6.4 6.59s-4.29 4.45-6.46 6.65c-1 1-2 1.83-3.26 3L397 454c-1.44.89-2.91 1.79-2.11 3.93a8.39 8.39 0 00-6.18 3 6.31 6.31 0 01-3.78 2.46c-3.05.49-4.36 3.72-7.29 4.28-1.7 3.6-6 4-8.39 6.83a6.07 6.07 0 01-3.56 1.78c-2.52.39-4.45 1.74-6.57 2.95s-4.43 1.39-6.52 2.36c-3 1.42-6.29 2.23-9.23 4a41.59 41.59 0 01-9.55 4 32 32 0 00-9.29 4.3c-.9.62-2.49.13-3.69.42s-2.1 1.14-3.21 1.35c-2.72.49-5.47-.05-8.24 1.24-2.56 1.18-5.61 1.36-8.47 1.82-2.67.43-5.38.69-8.08.93a68.89 68.89 0 01-8.71.59c-6.78-.23-13.55-.72-20.32-1.13-.38 0-.77-.31-1.13-.27-5.24.7-10.16-1.48-15.31-1.64-1.82-.05-2.83-.72-5.16-2.52a12.91 12.91 0 01-5.19 1.42c-6.09.89-11.92 0-17.78-1.47a35 35 0 00-5.72-.68 20.37 20.37 0 01-8.92-2.3 10.67 10.67 0 00-3.32-.72c-4.52-.84-9.09-1.54-12.84-4.56l.06-.07 1.22-1.22-.09.17v-1.36l.1.13c-2.5-2.43-5-4.82-9.47-4.58l-1.15.79c-.39-.13-1-.17-1-.38a5.57 5.57 0 00-4.62-3.81c-.94-.18-1.86-.44-3.06-.74-.07-.94-.14-1.78-.21-2.63-4.23-.21-4.24-.19-7.64-2.78-6.13-4.66-12.26-9.31-18.34-14-2.07-1.61-3.94-3.36-3.94-6.41 0-2-1.49-3-3.45-3.24l.13.19-1.72-6.17-5.26-2.66-3.51-7.44 1.57-1.39c-1.07-1.16-1.9-2-2.84-3-.65 2.11.66 3.26 1.46 4.59h-3.58a10.35 10.35 0 01-3-6.11 29.92 29.92 0 00-3.4-9.7c-.8-1.51-1.45-3.09-2.17-4.63v.16c.44-.72.56-1.4-.31-2l-2.48 2.36a10 10 0 00-.12-2.82 16.91 16.91 0 00-2.19-3l3.45.8 1.07-3c-.09-.53-.18-1.05-.28-1.58l-.42-1.38 1.89.19v-.44l-1.76.36c-.83.23-2-.37-2.48 1.37l2.86-.21.18 1.85-4.55-.52c-.39-.71-1.1-2-1.81-3.23l-.14.14a8.3 8.3 0 005.7-7.22h-2.1c-.7 1.11-1.37 2.15-2.16 3.38A35.47 35.47 0 01105 382.7l-2-.84c-.35-4.77-.7-9.42-1.06-14.22-.45-.26-.91-.52-1.34-.79s-.92-.6-1.47-1c1.74-2.89 1.76-6.6 5.08-8.52-1.16.15-2.51.27-2.54-.83-.13-3.92-1.8-7.69-1-11.71a4.47 4.47 0 012.51-3.61c.24 1.08-.18 2.34 1 3.56.2-1.61.37-2.8-1.11-3.45l.13-1.78-1.82-1c-.55-3.39-1.09-6.7-1.61-9.87l-2.49-1a25.67 25.67 0 01.8-4.05 21.31 21.31 0 001.26-9c0-.51.37-1.05.57-1.58l-.17.16 1.58-.29c.15-.47.42-.88.34-1.19-.37-1.41-1-2.77-1.25-4.2-.37-2 .31-3.88 1.57-5.92l3.77-.19 1-2 .13.15-2.21-1.53-8.33 3.08-2.66-.75.11.11-1.1-2.1c-2.25-.32-4.35-.6-6.48.69-.88.53-2.15.4-3.25.57l.85-2.47-1.69.25 1 2.08c-1.36 1-1.36 1-4.22.47-.74-3.91-4-5.1-7.47-6A53.37 53.37 0 0157 287.71a14 14 0 012.34 0c1.7.27 3.38.67 5.07 1l1.07.52-1.2-.44a10.47 10.47 0 00-5.53-3.28c-3.11-.75-6.3-1.12-9.45-1.66l.16.2-1.77-1.69c-2.27 3.47-5.39 2.54-8.54 2.47 2.72.76 5.17 2 7.84 2.66l.07.07c0 .19.05.48-.06.56-1.3 1-2.63 2-4.14 3.15-3.86-2.17-9.27-1.43-10.71-7.57l-1.34 1.57-2.75.38c1.73 1.12 2-.12 2.62-.53l.78 1.37a1.67 1.67 0 01-2.57.54c-3.37-2.77-8-2.93-11.51-5.84l.16-1.6-5.3-2.51-1.61 1.69c-3.53-.25-3.53-.25-6.94-3.61a14.33 14.33 0 011.6-.16c.51 0 1 .06 1.86.11l-2.53-6.65c-2.68-.32-3.13-3-4-4.61-1.15-2.13-.74-4.91 1.58-7.59.3 2.14.52 3.7.75 5.38.23-.28.5-.47.52-.68a73.49 73.49 0 00.73-8.08 32.2 32.2 0 00-1-5.69c2.36-3.94 2.64-8.39 3.1-12.79.61-5.78 1.33-11.54 1.87-17.32.22-2.32.09-4.66.13-7 0-2.08.6-3.85 2.74-4.71L10 210.14c2-1.69 1.3-3.19 1-4.66l1.3-4.18c2.29-.7 2.76 1.53 4.64 2l3.08-.3-1 2.66-.15.2v-.32l1.86.9-1.47 2.19v.26c2.49.84 5 1.66 8.18 2.7l-1.76-2.93 2-1.84 9.7 2c0 .86.08 1.58.11 2.3l2 1.08v2.51c7.2 1.41 14 4.33 21.33 4.92a9.86 9.86 0 013.8 1.35c1.92 1.06 4 1 6.07 1.54a5.32 5.32 0 004.92-1c.61-.48 1.72-.33 2.94-.51-.81 1.11-1.34 1.85-2 2.78 2.19 1 4 1.08 5.55-.52h3.47v2.05c4.43 1.21 8.81 2.68 13.3 3.68 2 .45 4.19.07 6.41.07l3 1.94c2-1.16.22-3.41 2-4.66 1.14-.81 1.63-2.54 2.43-3.84s2.77-2 2.7-4c2.35-.73 1.52-3.41 2.9-4.74l1.24 1.38.41 2.36 2.21-2.52-2.74.28-1.21-1.4c.28-2.46.57-4.93.83-7.21l5.16-3.2c-.25 1.76-.42 3-.67 4.69 0 0 .43.41 1 .93.9-1.66 1.32-3.64 2.49-4.32 1.73-1-.19-3.3 1.86-3.77.81 1.08.81 1.08 2.51-.35l-2.67.53-.74-2.5 4.18-2.72-3.2-1.83-4.77 1.88v-4.24l-.17.16a2.07 2.07 0 001.06-2.82 3.87 3.87 0 01.29-3.15l-.12.14 3.49 1c1.65 1 1.65 1 2.86-.26l-3 .44.24-6 .15-.27-.12.36-1.23-.3.15.13h-1.39l.13-.09h-1.61c-1-2 1.47-2.62 1.38-4.19-.08-1.32 0-2.64 0-4 .58-.3 1.07-.57 1.83-1l2.45 2.19 3-5.45c-.25-2.19-4.81-2-2.78-5.66l3.42-.75a3.79 3.79 0 00-3.24-2.95c-3-.7-5.94-1.55-9-2.36-.29-.81-.53-1.5-.91-2.59l-3.63 1.9a.92.92 0 01-.65.05c-10-2.95-20.29-4.78-30.55-6.63-2.85-.52-5.67-1.26-8.46-2a12 12 0 00-6.19-.46c-2.75.63-5.11-1.1-7.36-2.63-7.19.72-13.56-1.55-19.45-5.54l-.28-.16.42.13c-.43.3-1 .95-1.27.86C37.34 138 31 136 24.28 133.92l-2.25-3-2.03-.28.7-.7-4.75-3.2c-.26-2.07 2.37-4.14-.5-6.06l-3 2 .9-3.68 5.06-1c2.7-5.53.69-11.69 2.84-16.34-.25-2.15-3.06-1.32-2.09-3.72l2-.3a23.93 23.93 0 001.1-3.19c.06-.31-.64-.78-1-1.17l-.09.12L23 91.94c-1.38-2.15-1.38-2.15-1.38-8.26l2.49-1.35c.49-2.34 1-4.8 1.52-7.34-.61-1-1.25-2.13-2-3.35 3.13-1.16 5.88.4 8.71.22a13.73 13.73 0 00-1.17.83c-.08.07 0 .37 0 .56 1.88 1.44 3.21-.6 4.75-.73 4.92 1.27 9.79 2.45 14.61 3.8 2.61.73 5.12 1.8 7.71 2.63 2 .64 4.09 1.14 6.14 1.7L66.64 82c.43.15.87.29.34.11h-.49c0-1.73-1.35-1.12-2.25-1.32-.87-2.48-3.33-2.32-5.21-3l-1.37-2.88c-5.31.71-10.11-1.38-15-3.15-.18-1.46.83-2 2-2.39 3.27-1.11 6.06.21 8.8 1.77.81.46 1.7 1.45 2.42 1.33C59 72 60.94 74 63.21 75.66c1.94-.2 4-1.8 5.94 0l1.59 3.84 3.17-2.3c.75 0 1.88-.33 2.64.06 2.53 1.29 5-.6 7.36 0s4.47 2.4 6.83 2.82c5.5.95 10.78 3 16.43 3.17 1.27 0 2.51.82 3.66 1.22.13 1 .22 1.81.34 2.79 3 .43 6 .69 8.39 3.18 1 1.07 3.23 1.27 4.93 1.41a27.41 27.41 0 006.26-.36c.78-.11 1.43-1 2.32-1.64L130.6 88c.26-1.85 1.76-1.06 2.6-1.12.57-1.3 1-2.34 1.53-3.48.79-.18 1.53-.34 2.26-.53 1.1-.28 2.21-.55 3.29-.91.29-.1.72-.65.66-.8-1-2.19 2.58-1.31 2.18-3.43-.21-1.1.93-2.45 1.56-3.94l-2.38-5.33c1.69-4.31-2.37-7-3.32-10.26l1.55-3.28-.13.11 1.5-3.29-3.15-1.85v-2.37c.14-.21.27-.63.55-.8 1.28-.79 2.66-1.43 3.91-2.27a3.9 3.9 0 001.8-4.12l-5.35 2.27c0-.83-.27-1.8 0-2.06 2.75-2.28 2.17-5.45 2.71-8.37l-1.86-.67.12.13c-.91-2.13.92-3.08 1.88-4.36.4-1.61-1.26-3.51.75-4.84a43.26 43.26 0 00-1.2-7 25.78 25.78 0 01-1.67-8 10 10 0 00-1.13-2.79l2.12-1.9-3-1.73c.55-.35.81-.67 1-.63 2.65.48 5.3 1 7.95 1.5 3.79.68 7.59 1.31 11.2 1.93l2.87-1.57 4.83 2.63 1.77-2.4h8.11l1.18 1.59 4.22-1.84-.11.14.93-.68-.93-.68.14.16c1.72-1.65 3.61-1.28 5.7-.77 4.65 1.14 9.34 2.14 14 3a27 27 0 005.69.11 14.16 14.16 0 017.28 1.24c1.66.85 3.71.93 5.54 1.35.08 1.47.15 2.77.22 4 2.21.46 2-1.48 2.85-2.52l1.9 1.71-.11-.1c1.45 1.31.66 3.24 1.29 4.79-1.19-.06-1.23.46-.47 1.58l.36-1.69c.46-.42 1.25-.8 1.3-1.26a15.11 15.11 0 00-.29-3.12l.45-.46 3.1-.38c-.1 1.23-.28 2.4-.27 3.57a9.19 9.19 0 00.36 3.77c.76 1.62-1.52 2.19-.88 3.57l.16-.13-1.91.74c-.31 2.3-.5 4.82-1 7.28-.34 1.56-1.32 3-1.77 4.52a8 8 0 00.17 2.64 45.23 45.23 0 01-2.72 6.22 24.8 24.8 0 00-3.78 8.57c-.59 3-.68 6-1.8 9-.85 2.24-.45 4.94-.62 7.44-.09 1.4-.37 2.7-2 3.07-.37-.32-.37-1.59-1.43-.44l1.61.26a6.3 6.3 0 01.7 2.21c-.35 4-.74 8-1.33 12-.15 1-1 2-1.63 3l.71 1.92-2.92 6.32 2.51 3.2 12.83 1.83c-.08-1.28-.15-2.25-.26-3.87l4.23 2.9 7-3.76.7-3 3.06 2.62c6.41-.37 13.17.88 19.95-.44 1.86-.36 3.89.23 5.8 0 5.13-.57 10.32-.86 15.16-3a15.24 15.24 0 009.63 1.13c4-.62 8.25 0 12.38 0l-1.3-2.48c3.73.22 5.43 2.45 6.67 5 .94 1.94.19 3.76-1.59 5.49 2 1.43 4.19 2.73 4.33 5.71-1.49 1.79-1.34 4.32-1 6.39.48 2.88-.21 5.36-1.07 8.22a19.15 19.15 0 012.44 12 7.07 7.07 0 00.38 2.86 9.25 9.25 0 01-.21 5.16 40 40 0 00-1.64 10.71l.18-.19c-3.18-.5-6.2-.62-8.23 2.62a2.55 2.55 0 01-3.45.9l-.15-.26.28.34-1.78 2.46L294 155l-3.7.28c-.54-.86-1.12-1.36-2.18.15l2.32-.33v1.9c-2.43.77-4.3-1.18-6.81-1.49l-1.63 1.15.11-.12c-2 .49-4.14.18-6.62 1.3h6.63l-.13-.15c-.06.55-.12 1.1-.2 1.91l-16.25 2.7-1.7-1.61-5.54-.26a5.32 5.32 0 01-4.2 2.47c-3.83.11-7.66.36-11.5.57a3.15 3.15 0 00-1.68.34c-2.84 2.16-5.44 1.18-8-.48-.49-.31-1-.54-2-1.06l-12.62.89c-4.83-3.27-11.15-1.17-17.45-3.18.59 1.62.93 2.57 1.32 3.67l-5.85 1.15c1.28 4.55-.48 8.8-1.14 13.09-1.28 8.23-2.54 16.5-5.64 24.36-1.32 3.34-1.37 10-.6 13.56 0 .1.35.13.53.19l.48.47c1.08 1.58.28 2.88-.62 4.16h-2.08c.5 1.09.86 1.88 1.21 2.68l.17-.15-.84.43.82.89-.14-.15c.58.51 1.16 1 1.67 1.45-.28 1.4-.56 2.76-.83 4.11.63.15 1 .36 1.33.28 2.41-.61 4.75-1.74 8.54-.4l1.5 2 8.63 2.06 1.63-1c2.48.77 5.27 1.6 8.12.28.42-.2 1.13.09 1.65.29a8.26 8.26 0 007.16-.68c1.89-1 3.88-1.87 6-.24a2.46 2.46 0 001.65.24c4.81-.57 9.57.13 14.36.31 3.39.12 6.79.05 10.18.4 3.71-2.11 8-.55 11.86-1.82 1.57-.51 3.45-.08 5-.08l2.67-2.34c.56 0 1.05-.16 1.3 0 2.68 2 5.5 2.24 8.74 1.38a85.39 85.39 0 019.35-1.52c1.13 1.72.54 2.82-.54 3.84l-.08-.15c2.92 2.28 3.21 5 1.07 8.22l2.68 2.35-.13-.12c.17 1.72.34 3.44.53 5.28l-2.5 1.14a12 12 0 00-.26 2.76c.73 5.68 1.47 11.35 1.72 17.68a23.79 23.79 0 00-1.56 13.19l1.83 1.43c0 .68-.09 1.44-.16 2.46l-2.79.94a3.94 3.94 0 00-.45 1.35c0 2.31.18 4.62.2 6.93 0 1.32-.14 2.65-.21 4l-3.4 2.38.12.17c-.35-.93.31-2.78-1.9-2.17.21.81.39 1.49.56 2.17l.11-.16c-1.47.34-3 1.12-4.39.91a7.58 7.58 0 00-3.88.36 6.5 6.5 0 01-5.15-.1c.05-.56.09-1.1.14-1.84l-3.4-.73c-1.6.72-.79 1.79-.9 2.64l.12-.12-10.74 3.1c-.95-.57-2.09-1.23-3.21-1.89-3.38 0-6.83-.1-10.28 0a27.7 27.7 0 00-6.81.87c-5.64 1.67-11.4 1.36-17.14 1.46a8.62 8.62 0 01-2.86-.37 15.38 15.38 0 00-8.56-.28c-1 .23-2.21-.31-3.35-.5-.33-1.45-.61-2.72-.87-3.87a4.28 4.28 0 00-1.3-.42 20.37 20.37 0 01-7.85-.21 19.16 19.16 0 00-5.77-.21c-.62 0-1.21.73-1.82 1.12l.19-.1-5.2 1.31.17.14c-.18-.69-.35-1.37-.56-2.2l-3.08.91.24.15-1.45-.05.09-.14-2.06-.45-4.33 6.17-1.93-3.62-1.9.61c-1 1.84-.72 2.78 1.67 5.14l-2.16 1c-2.34 7.39-2.34 7.39-1.73 16.25.81.44 1.76.95 3 1.62-3.16 5.09-2 10.42-.72 15.61s2.08 10.66 5.07 15.34a3.33 3.33 0 01.32 1.11c1.23 7 5.54 12.51 9.21 18.3 3.41 5.36 3.62 5.64 4.21 10.51.78.81 2.47-.57 2.85 1.19l-.2.22.3-.36c2.71.06 3.63 1.81 3.94 4.3l1.95-.15c3.19 2 6.26 3.92 9.37 5.81a7.09 7.09 0 002.1.9q5.63 1.29 11.27 2.47a27.68 27.68 0 009.77.68 10.78 10.78 0 018.35 1.91c8.5-.66 16.6-1.32 24.71-1.91a16.1 16.1 0 013.46.21c2.94.39 5.8.32 8.48-1.38 2.35 1 4.54 1.73 7.17.58 4.72-2.06 9.91-1.58 14.89-1.58a20.87 20.87 0 008.57-2.11 13.27 13.27 0 013.18-1.35c5.67-.8 10.49-3.67 15.35-6 1-1.51 1.86-2.92 2.73-4.28l3.22.83a9.71 9.71 0 015.68-5.75l2.2 1c1.65.24 2.5-3 4.77-1.82l-.17-.13 1.39 1a47.76 47.76 0 012.23-4.63c.79-1.3 1.92-2.38 2.8-3.63s1.76-2.75 2.72-4.27l-2.36-.63-.1.17c2.06-.84 2.61-3 3.86-4.5l-.17.11 3.53-.42-3.55-.94.16.07 4.67-4.35c-.31-1-.59-1.87-.9-2.88l2-2.57-1.83-1.51.87-1.46 2.1.64a45.26 45.26 0 003.13-12l2.62-.67 1.75-4.1-2.46 1.46c-.62-2.55-1.39-5-.5-7.74a6.64 6.64 0 00-.35-5.08 7.45 7.45 0 01-.6-4c.7-5-1.91-9.43-2.4-14.23-.13-1.2-1.57-2.2-2-3.44a126.45 126.45 0 00-5.34-11.59c-.47-.93-.3-2.18-.55-4.37l-2.51-1.48c-.13-2.06-.23-3.58-.33-5.2l-2.4-3.26v-6.91l-3.63-3c-1.42-3.41-1.37-7.19-4.16-9.73-.72-3.46-2.85-6.18-4.59-9.14-1-1.76-1.73-3.69-3.4-5-.28-.23-.52-.83-.73-.8-3.59.44-3.62-2.69-4.67-4.67l-2-.48c-.1-.59-.2-1.28-.31-1.93-1.55-2.22-4.08-.58-5.9-1.51-1.74-2.05.93-3.11.81-4.91 0 0-.1-.24-.18-.23-1.26.21-2.52.46-4.07.76-.14-2.15 1.9-2.59 2.31-3.91a35.43 35.43 0 00.79-3.74c1.76-1.46 3.09-.06 4.51.24q.09.79.18 1.56c1.64-.22 3.1-.45 4.56-.59 1-.1 1.24-.66 1.1-1.51-2.23-1.46-4 .95-6 .75-.47-2.18 1.43-3 2.31-4 3.22-.66 6.23-1.22 9.21-1.9a58.42 58.42 0 0112-1.53 8.26 8.26 0 005.79-2.08c.3-.29.32-.89.51-1.48l20.71-5.17a8.92 8.92 0 007.07.4c.07-.54.11-.91.2-1.57l6.54 2 .35.3-.5-.14c.36-.39.7-.81 1.09-1.18a10.21 10.21 0 011-.72l-3.17-1.15 4.8-1.28v4.66a8 8 0 005.59.89c1.92-.24 3.87-.27 5.24 1.52-.57 1-1.14 2-1.7 3l.15-.08c-1.08.45-1.13.91 0 1.4l-.17-.12a14.07 14.07 0 016 5.8 4.46 4.46 0 003.54 2.46l-.13-.14c.45.44.9.88 1.34 1.33l-.12-.14c-.05 1.14-.09 2.28-.13 3.43l-.2.21zM210.73 486l.05.14-.32-.14zm-45.47-39.76c-.09 0 .2.38-.15.15l-.33-.17zm-40.9-225l-1.39 1-.25.14.13-.26 1.44-1 .1-.27zm19.76-174.53l-.11-.28.22.27.07.23zm3.45 18.9l-.27-.11h.36l.3-.16zm-23.65 329.18l.85-.15c-.11 0-.27-.13-.33-.09a2 2 0 00-.38.39c-.27.17-.06-.14-.14-.15zm67.89-7.79l.24.15-.39-.07-.16-.51zm216.42-156.59l-.32-.54.5.36.15.32zm-285.09 18.41l-.19-.2.33.29v.3zM40 280.29l.27-.05-.37.18-.26.18zm311.27-21l.14.81c0-.1.13-.25.09-.31a2.3 2.3 0 00-.39-.37l-.6-.75-.18.64zm-338 15.19l.21.62-.37-.46-.67-.41zM289 292.21l.34-.13c.25-.36 0 0-.21.28-.61-.14-1.22-.28-.68.7zM422.5 243l-.37-.09h.52c.31.83.61 1.65.91 2.48.09.3.17.6.25.91l.45-.43-.86-.32zM55 106.48h.24l-.39.06c.27-1.51-.56-1.36-2.15-.85zm-4.5-2.56l.24.29-.37-.16-.2-1.88c-.5 1.27-.5 1.27.31 1.75zm71.4 123.94c.35-.55 1.26-.92.18-2.28l-.09 2.33-.28.18zm48 221c-.4-.17-.8-.34-.44-.18l.58.05.31.3zm-128.77-318l.36.23L41 131l-.32-3.78c-.58 2.08-1.44 3.25.46 3.62zm80.46 288l-.18-2-.43.07.71 1.77.66 2.24c.74-1.54.74-1.54-.75-2.08zM344.9 237.57h.21l-.38-.12c.66-1.79-.72-2.07-1.86-2.53l-.11-.33.17.33zm2.8 5.41l-.37-.13h.52l.12 1.92.78-.25zM148.74 33.8v1.26a17.58 17.58 0 00-1.08 3.78c-.25 4.18-.32 8.37-.38 12.56 0 .32.61.66 1 1 1.36-1.66-.33-4.16 2-5.27l1.34.88c1.1-2.53-1.92-3.82-1.82-6.08s.07-4.59.09-6.88v-1.26c.43-.63.86-1.25 1.41-2.07l-2.35.14zM374.6 309.51v.43c.39.58.11.15-.18-.27-.71-1 .71-2.81-1.79-3.68zM27.1 132l.24.28-.29-.22c-.17-.93.26-2-1.07-3l-.87 2.69zm35.26 98a1.61 1.61 0 00-2.43-.19c.13.84-.5 1.83.56 2.47l2-2.46c.27.82.53 1.64 1 3.21.73-1.25 1-1.75 1.39-2.36zM173.52 40c-1.45-.35-2 .38-2 1.66.94.83 1.82 1.54 2.82 0-.3-.57-.64-1.19-1-1.81l.65-1.59-.52-.14zm114.41 260.43l-.22-.19.32.15 1.11.7 1.85-3-.71-.56zm-127.33-264l-3.6-.88c.06 1.15.11 2.17.21 4.11l3.21-3.42c.13-.27 1.28-.11.35-.82zm-55.26 202l.45.21-.58-.09c-1.59-.9-1.59-.93-4.53 0 1.72 1.97 3.18.27 4.66-.09zm32.9 154.25l.23 2.39c.89-1.37 1-2.09-.4-2.24a14.15 14.15 0 00.24-3.28c-.35-2.24-.91-4.44-1.43-6.65a19 19 0 00-.7-2c.13 4.15.33 8.1 2.06 11.81zm14-198.7c2.11-3.36 4.26-6.7 4.46-10.81-1.19-.35-1.78 1.47-2.83.28l.53-3.53c-2.69 2-2.33 4.76-3.27 6.4.47 2.92.86 5.37 1.26 7.81l-3 .48c-.72 3.05-1.44 5.63-1.9 8.25a20.79 20.79 0 000 4 36.78 36.78 0 01-1.78 4.77c-.67 1.25.33 2.73-1.21 4-1.06.91-1.27 3.2-1.25 4.86s-.83 3.32.63 5.18c.93-.85 2-1.35 2.19-2.09 1.24-4.41 2.29-8.86 3.33-13l-2.06-3.87c1.2.29 1.76-.48 2-1.41 1.1-3.71 2.01-7.5 2.94-11.3zM36.46 280.4l.22.3-.26-.23c-.39-.31-.88-1-1.16-.87a38.67 38.67 0 00-3.79 1.48l-4.41-3.38c-2.4.69-5.52-.17-6.41 3.33 2.23-.41 4.11 1 6.39.71s4.61 2 7.3 1.06c.16-.68.31-1.33.47-2zm95.3 151.7l1.86-1.6c-3-2.05-4-4.83-3.9-8.38l-2.28 1.06c.65 2.71 1.25 5.26 1.82 7.63zm153.05-307.54c.51 1.92 1.67 1.7 2.81 1.41 2-.49 3.44-2.41 5.8-2 .43.08 1-.68 1.83-1.25l-3.4-2.33c-1.72 2.61-4.55 2.79-7.04 4.17zm-172.7 181.22c.34-.07.89 0 1-.22 1-1.95.27-3.89.18-6.31-1.79 2.88-1.79 2.88-1.18 6.53zm45.13-259.24c3.24-.48 3.79-.89 3.51-2.38l-3.51-1.79zm137.51 68.1l-.52-3.64-4.5 2.1zm-142 311c-.4 1.05-.78 1.87-1 2.73-.08.28.22.66.4 1.1 1.25-.39 2.65-.46 3.76-2.05zm61.77 46.41c-1.88-.73-2.54-2.31-4-4.9.38 2.49.54 3.55.74 4.9zm36.37-57.24l-.15.86a5 5 0 001.46.44c2.09 0 4.18-.17 7-.29a12.31 12.31 0 00-2.14-.71c-2.06-.11-4.06-.17-6.17-.26zm-96.28 22a25.31 25.31 0 00-1.28-3.78c-.45-.84-1.33-1.39-2.15-.15.82 1.57.69 3.89 3.43 4zm66.77-132.21l7.45 1.23c-2.7-1.58-4.54-2.26-7.45-1.23zm-5.68.16h4.05L215.7 301zm49.86 109.33c-.13.63-.33 1-.24 1.32s.46.73.71.73c1.44 0 2.89-.11 4.34-.19v-.58zM91 295.18c1.4.9 2.67 1.14 4 .16-1.21-2.03-1.21-2.03-4-.16zm255.5-43.65c.15 2.6.51 4.46 2.74 5.71l.66-1.68zM218.28 12.6c.92 2.22.92 2.22 4.17 3.83-1.55-2.03-1.32-4.29-4.17-3.83zm-99 372.87l-4.56-3c.84 2.11 1.29 3.27 1.86 4.72zm96.8-362.21c2-.49 1.21-1.89 1.55-3H216c.07.57.16 1.07.18 1.57a11 11 0 01-.11 1.43zm-2.95 40.14l1 .33.78-2.77-.78-.25c-.34.9-.67 1.79-1 2.69zm-82.54 128.15l-4.12-3.66c.13 1.72.19 2.63.27 3.66zm171.77-71.41c0-.18 0-.46-.13-.52-.55-.33-1.14-.61-1.71-.9-.08.16-.25.44-.22.46a15.3 15.3 0 001.59 1.19c.11.05.31-.14.47-.23zM170.43 23.67c-.56.87-2.1.78-1.38 2.25l3.09-.84zm112.13 89c2 1.38 2 1.38 2.57-.3zM143.11 5.73c.36 1.75 1.19 3.21 3.32 1.82zm24.18 6.06c-1.37-1-2.08-.45-2.25 1.06 0 .31.24.9.44.94 1.52.26 1.94-.65 1.81-2zm-38.85 348.7l2.35 1.25c-.36-1.66-1.37-1.19-2.35-1.25zm100.8 122l2.35-1.4-1.59-1.16zM105.6 242.77c1.46 2 1.46 2 2.56.29zm45.25-233c-.95-1.15-1.63-1.1-2-.34-.2.41.09 1.05.24 2.27zm-82.11 219c-.67-1.13-1.35-2.09-3-2.14.55 1.6 1.37 2.37 3 2.13zm381.53 99.67c-2 .9-2 .9-.29 3 .12-1.19.19-1.98.29-3.01zm-77.58 1a4.32 4.32 0 00.28 3l1.12-1.26zm-1.91-12.33l1.72 2.64c.63-1.13.72-1.91-1.72-2.66zm-236.13 79.47l1.09-.72c-.55-.73-1.09-1.46-1.64-2.18l-.73.46c.42.86.85 1.63 1.28 2.44zM135 89v3.3c2-1.36 2-1.36 0-3.3zm-17.67 216.89c1.25-.51 1.06-1.35.54-2.27-.99.55-1.27 1.27-.54 2.27zm258.14 11.95l-.76.44c.18.28.31.67.57.81s.52-.23.79-.36zM209.1 24.89c-.16-.31-.24-.76-.49-.9s-.62.13-.94.21c.16.31.24.76.5.9s.61-.1.93-.21zM48.79 226.18c-1.51-.45-1.51-.45-1.28 1.13zm77.82 115.35c1-.85 1.22-1.74.23-3.1-.1 1.35-.17 2.23-.23 3.1zm-76-227.87c-.28.17-.74.31-.79.54s.23.62.37.94l1.13-.88zm51.21 232.71c.24.88.39 1.53.62 2.15 0 0 .87-.06 1-.27.56-1.14-.13-1.6-1.66-1.88zm-27-263.45c1.18 2.23 2.09 2.27 3.18 1.69zm58.4 303.74c-1.41 1.32-.57 1.81-.35 2.39l.35-.16zm-6.84-30.84a12.94 12.94 0 001.15 2c.13.13.55 0 .84 0 0-.17 0-.41-.1-.5-.4-.32-.78-.6-1.95-1.5zm8.58 21.94l1.07-.17c-.17-.84-.33-1.68-.49-2.52l-.58.09zm-3.76-4.45c.12 0 .28.14.37.09s.16-.23.23-.35c-.1 0-.24-.1-.31-.06a1.28 1.28 0 00-.35.32zm78.6-288.67l.73.27.4-1.57c-.16 0-.44-.11-.47-.06-.25.44-.46.9-.66 1.36zm-128-3.23v-.49l-1.78-.18v.76zm245.91 324.11l1.87-.28c-.08-.31-.08-.82-.26-.91-.76-.33-1.32-.17-1.61 1.19zM75.46 80.1l1.25 1.16c.45-1.36-.04-1.6-1.25-1.16zm130.9-1.6h.58c0-.54.05-1.08.07-1.62h-.65zm-83.07 273.85a4.54 4.54 0 00.69.45s.34-.26.32-.3c-.15-.27-.35-.52-.53-.78-.16.21-.32.41-.48.63zm207.13 55.28v-.58l-2.45-.11v.69zM211.86 10.29c.32-.46.61-.84.85-1.25 0-.07-.25-.42-.26-.41-.42.22-.83.48-1.23.74zm77.45 110.26l-.92-.46c-.11.33-.35.69-.29 1s.54.26.83.38c.13-.31.25-.61.38-.92zM127 123.48v-.38h-2v.38zm211.57 98.07c-.14.06-.4.13-.4.18 0 .33.13.65.2 1l.72-.35c-.18-.29-.35-.56-.53-.83zM148.32 54.35c-.32.64-.47.79-.45.92a4.12 4.12 0 00.27.71zM22.78 217.41c-.34.47-.17.23 0 0zm98.16-5.32h.45v-2h-.45zm146.11 211.8v-.25l-1.51-.13v.38zm116.63-114.32c-.11-.33-.13-.84-.36-1s-.65.16-1 .26c.15.33.21.76.46 1s.59-.16.9-.26zm-259.88-95h-.49v1.9h.49zm162.75 281c-1.55-.45-2.2-.13-1.18 1.31zM213.78 20.34h-.33v1.32h.33zm-5.84 451l-.16-.47-.16.46zM35 209.87l-.13-.63-1.44.29.11.6zm159.75 257.19c.1.14.23.41.3.4a6.15 6.15 0 00.91-.32c-.12-.13-.25-.38-.34-.37a5.55 5.55 0 00-.87.29zm-4.22-2.76l.1-.54-.65.15a2.72 2.72 0 00.19.5s.24-.07.36-.11zm-7.42-5.47c-.16-.1-.3-.26-.46-.27a1.26 1.26 0 00-.51.16c.15.09.29.25.45.27s.34-.1.52-.16zm3.58-2c-.1.09-.35.23-.33.32a4.3 4.3 0 00.31.82 4.48 4.48 0 00.38-.8c.02-.08-.23-.23-.36-.34zM221.8 34.36a6.49 6.49 0 00-.91-.35c-.09 0-.23.22-.34.34.21.17.42.45.64.47s.4-.29.61-.46zM147 428.31a1.39 1.39 0 00-.46-.11c-.07 0-.12.2-.18.31a1.36 1.36 0 00.47.15c.02 0 .07-.23.17-.35zm-104.75-204l.48-.28c-.13-.13-.33-.38-.37-.36a3.9 3.9 0 00-.6.49zm96.72 1.31l.1-.46-.62.13a1.4 1.4 0 00.19.41s.17-.1.29-.13zm49.4 158.48a1.41 1.41 0 00.44.14s.1-.2.14-.32a1.69 1.69 0 00-.44-.12s-.1.2-.14.3zM86.57 104.68c-.09-.14-.2-.41-.27-.4a5.65 5.65 0 00-.89.26c.1.13.22.37.32.36a4.34 4.34 0 00.84-.22zM127 353l.17.48.15-.48zm244.33-9.42l-.17.44h.59a2.12 2.12 0 00-.12-.45c-.07.01-.24.04-.34.03zm-98.11-226c0-.12 0-.3-.11-.34a1.41 1.41 0 00-.47-.07l.12.54zm7.76.18l.49-.27c-.14-.12-.33-.37-.41-.33a2.3 2.3 0 00-.6.45zm-168.33 3.11l-.37.09.38.07zm261 205l.17.48.17-.49zM445.5 322c.11.13.26.39.33.37a5.07 5.07 0 00.82-.38c-.09-.15-.24-.43-.28-.42-.3.11-.58.27-.87.43zM125 307.86c0 .11 0 .28.12.32a1.53 1.53 0 00.49.11l-.14-.58zm-77.23-174c-.08-.14-.13-.35-.24-.39s-.32.05-.49.09l.32.54zm6.37.12c0-.12 0-.3-.12-.35a1.53 1.53 0 00-.49-.11l.15.63zm-13.64.9l-.43-.12.28.45zm94.68 110.53l-.16.46h.64a1.37 1.37 0 00-.14-.46c-.04 0-.22.04-.34.03zm148.5 56.25c.11-.08.28-.15.32-.25a1.32 1.32 0 000-.48l-.55.31zM49.73 138l-2.42.46c.12.12.27.38.35.36a20.28 20.28 0 002.07-.82zm73.21 107.86c0 .11 0 .27.09.31a1.24 1.24 0 00.44.11l-.12-.59zm8.83.49c-.13.11-.39.25-.37.33a5.65 5.65 0 00.37.84c.14-.09.43-.24.42-.28a7.23 7.23 0 00-.42-.87zm261.84 49.78c.11-.09.3-.16.33-.28a1.55 1.55 0 00-.05-.51 1.66 1.66 0 00-.5.35c-.04.08.14.31.22.46zM367 290.61c-.12 0-.3 0-.34.12a1.71 1.71 0 00-.1.51l.59-.14zm-288.27-.34l-.48.1c0 .1.09.29.14.29a2 2 0 00.48-.09zm284.75-6.11l-.08-.44c-.09 0-.25.08-.26.13a2.41 2.41 0 00.08.44zM153.76 175.84l-.16.4.58.11a1.14 1.14 0 00-.07-.43c-.04-.07-.23-.06-.35-.08zm-127.49 99.1l-.45.29a3.79 3.79 0 00.27.35 5.87 5.87 0 00.65-.46zm16.66 13.44l.2-.3h-.33zm253.48 11.5l.34.21v-.37zm79.94 15.19l-.34-.24-.05.37zM174 330l-.24.37.37.05zm-34.3-139l.33.23.05-.36zM66 107l.33.21v-.36zm55.27-13.16l-.21.3h.34zm-11.79 292.68l.23-.32-.34-.05zm40.92-318l.23-.34-.35-.06zM283.78 416.4l-.37.29c.11.12.2.32.31.33s.24-.17.36-.27zm-160.1 5.89l-.22.32.35.05zm18.64 2.82l.22-.34h-.35zm9-382.54l.31.21v-.32zm-2.07-28.94l.21-.3h-.34zm19.85-9.36l.21-.3h-.34zm119.3 491.09l.37-.31c-.11-.12-.21-.33-.33-.34s-.25.18-.37.29zM988.25 128.56c1.51-1.51-.32-2.82-.23-4.36l-5.23-.58c-1.46-4.83-3.13-9.41-4.12-14.27-.75-3.72-2.55-7.24-4-10.8s-3.19-7-4.53-10.55a18.36 18.36 0 01-.65-4.61l-2.41-2.62-.17.15c1.85-1.58 1.19-3.41.65-5.32-.62-2.22-2-3-4.23-3-.72 0-1.44-1-2.31-1.57 1.75-.87 1.75-.87 3.81-.15.3-1.26.6-2.51.91-3.79 0-.12-.06-.34-.17-.44-1.18-1-2.38-1.92-3.77-3v-3.4a5.13 5.13 0 011.4-.83c3.32-.75 4.77-2.83 4.44-6.33 4-2.16 7.68-4.86 12.44-5.14l-.1-.12c1.36 1.44 1.62 1.44 2.53 0l-.08.18c2.43.18 4.05-1.52 6-2.57l-.12.14h2.68c1.77-3.2 5.14-3.93 8.5-4.69a13.83 13.83 0 003.29-.71c5.65-3 11.78-4.26 18-5.29 2.59-.43 5.19-.85 7.78-1.35.17 0 .23-.62.34-1h.38l-.23.08c-1.08-.17-2-.94-3.28-.45-1.1.41-2.47.09-5.13.09 2.61-.88 3.88-1.67 5.14-1.66 4.92 0 9.67-1.08 14.54-2.29l1.59 2.59-2.83 1c-.12 1.23.34 1.84 1.59 1.71l-.13-.15 2.49 2.19 2.31 6.4-2.34 1.61 8.69 23.88 3.53 1.47-.9 2.5c1.53 2 3.24 4 4.66 6.21a8.78 8.78 0 011.7 4.24c.06 2.43 1.2 4.43 1.72 6.63a39.17 39.17 0 001.68 6.64c.84 2 .1 4.37.7 6.67 1.63 6.28 4.8 11.81 7.64 17.51.52 1 1.16 2 1.77 3.08h2.48c1.13 3.45 2.27 6.9 3.6 11-.06.24-.27 1.18-.53 2.35l1.73 1.2c.08.91.15 1.82.23 2.8l2.76.79c.14.33.48.74.39 1-.53 1.25 0 2.17.69 3.16 1 1.38 2.4 2.75 2.83 4.34s.5 2.88 1.81 3.85c-.71 3.12 1.23 5.55 2.25 8.2a34.13 34.13 0 002 3.92c1.35 1.71 3.39.14 3.84 2.13l-2.54.24c.91.47 1.41.85 1.52.75a4.66 4.66 0 00.75-1.22l3.41 2.3c1.41.14 1.41-1.13 1.63-2.22l-.14.1c.59.72 1 1.87 1.77 2.08 2.37.68 3 2.81 4.8 4.7 4.19 1.17 8-1.5 12-3.28 1.77-.8 3.38-1.86 5.72-1.66a14 14 0 017.1-4.29 32.77 32.77 0 005.32-2.2c2.23-1 4.4-2.2 7-3.5-.43-1-.85-2-1.28-3 1.29-.91 2 .29 2.91.88l.22.13-.37-.23c1.11-1 2.32-1.92 3.32-3a11.35 11.35 0 015.27-3.42 22.58 22.58 0 009.91-6.47c2.57-.53 5.48.32 7.33-2.2l4.93 1.7 5.11-3.18c1.11 1.42-.55 1.74-.55 2.58.08.13.17.36.25.36.57 0 1.14-.06 1.71-.09 3.51-.17 6-2.08 8.19-4.65-1.66-1.23-3.28 1.1-5.28-.37 1.76-.86 3.24-1.67 4.8-2.32 1.4-.59 2.88-1 4.72-1.64a31.83 31.83 0 010-3.77 20.4 20.4 0 01.83-3.15c2.62-.68 5-.94 7.15-2.55 1.59-1.2 3.91-1.41 5.91-2.06-.09.4-.19.8-.28 1.2s-.09 1.08-.14 1.61l.51 1.3a1.26 1.26 0 01-.23.39c-.06.06-.23 0-.35 0l.62-.52a76.2 76.2 0 01-.55-1v-2l2.06-.13-1.84-.73c.09-.57.19-1.13.29-1.78 2.92-1.46 5.71-3.46 8.81-4.27 3.28-.85 5.11-4.22 8.95-4.31l2 1.51c2.66.37 4.79-1.39 7.18-1.78s4.14-3.47 7.07-1.53c.23-.75.45-1.45.76-2.4l2 .27c1.39-.42.46-1.66 1-2.86L1252 103l3.93.26a26.27 26.27 0 016.4-4.2c2.31-1 4-3.49 6.16-5.56 3 .55 6.31-.27 9.65.9a3.61 3.61 0 004.81-2.1l-.12.12c4.48 2.52 4.76 3.12 3.84 9l3 2.36c2.53 5.54 5 11.17 7.68 16.74s5.41 11 8.37 17l6.76 8.58c-1.42 2.48-3.9 1.26-6.33 2.17a18.81 18.81 0 01-11.2 6l-5.8 4.48c-1.75 4.25-.81 4.92-6.3 4.87h-3.59c-.44.28-1.06.48-1.36.91-1.48 2.06-4.39.15-5.78 2.09a7.79 7.79 0 01-4.84 3c-2.08.51-4.13 1.13-6.22 1.55a17.1 17.1 0 00-9.15 4.58c.25.83.47 1.53.76 2.44a29.23 29.23 0 00-3.57 1.62 17.07 17.07 0 00-3.14 2.53c-2.53 2.59-5.91 3.69-9 5.22-.94.47-2.21.28-3.3.39l-1.38 2.65-3.28-.6c-1.32 2.25-3.73 2.87-5.49 3.12-2.49 2-4.26 3.81-6.39 5-3.7 2.09-7.6 3.85-11.47 5.64-1.91.88-3.74 1.85-6.05 1.81a6.62 6.62 0 00-4.11 1.92c-3.24 3-6.7 5.33-11.16 4.59-1.2 1.8-2 3.27-3.09 4.58s-2.33 2.53-3.66 3.94c-1.56.82-4.23-1-5.41 1.78a1.19 1.19 0 01-1 .47c-3.47-.23-6.13 2.06-9.24 3-1 .3-1.8 1.26-2.88 2.06a5.77 5.77 0 00-5.9 2c-.6.76-.46 2.11-.72 3.48l-7 3.18c-.75.91-.88 3-3.12 2.22-2.27 1.48-4.61 2.86-6.77 4.47-2 1.47-3.61 3.45-6.51 3.18-.79-.08-1.68.69-2.49 1.13-1.15.63-2.27 1.31-3.57 2.07.06.62.14 1.37.22 2.23-1.38 1.29-2.17-1-3.4-.75-3.41.08-5.27 4.53-9 2.84l-5.66 5.19c0 .64.07 1.22.14 2.39-.73.61-1.81 1.43-2.79 2.36-2.54 2.4-5 4.69-8.77 5.32-2 .34-3.76 1.8-5.72 2.8-.24.84-.5 1.75-.76 2.68l-7.21 2.18c-.68 2.66-2.59 4.4-5.25 5.67.45 1.38.89 2.78 1.34 4.16-1.43 2.3-4.2 1.64-6.53 3l-1 3.8-3.39 2 1.42 2.11c-.14 1.33-1 1.88-2.37 1.65l-1.07-.45c-2.54 1.6-5.26 2.91-6.87 5.73a4.74 4.74 0 01-2.8 1.95c-3.84.85-6.4 3.44-8.73 6.22-4.31 5.12-9.32 9.55-13.84 14.46-3.17 3.45-5.42 7.46-8.16 11.15a7.8 7.8 0 00-1.54 6 12.17 12.17 0 003.78 7.41 20.45 20.45 0 00-.61 4.53c.12 1.49 1 2.95-.75 4.32 1 2 2.89 3.72 2.08 6.25 2.65 5 2.77 10.72 4.45 16a18.11 18.11 0 006.74 9.53c1.76 1.32 4.18 2.38 4.15 5.23l-1.52-.05-.08-.28.26.08.54.95.63-.89c2.42-.7 1.91 3.3 4.29 2.68 2.3 3.28 5.71 5 9.32 6.59-.18.88-.31 1.56-.48 2.47l2.55 1.49c.11-1.14.17-1.76.27-2.82 3.59 1 7.25 1.57 10.62 2.93 5.62 2.27 11.55 3.06 17.34 4.5 8.11 2 16.36 2.8 24.52 4.28a8.4 8.4 0 012.73.72c2.66 1.58 5.53 1.6 8.71 1.45l-1.78-1.2c.12-1.39 1.29-1.34 2.12-1.24a131 131 0 0113.73 1.91 21.43 21.43 0 006.25.87c3.43-.26 6.83.38 10.26 0a9.91 9.91 0 018 2.27c5.46-1.88 10.7-2.37 16.23-.48.26-.24.61-.83 1.07-.94 3.35-.75 6.72-1.41 10.1-2.1l1.9 1.7c1.22-.68 2.41-1.69 3.76-2s2.65.19 4 .33l-.09-.11 2.41 1.76-1.17 1.61 7.72-1.25 2-3.49c2.52 1.48 5.39-1.17 8.56-.07.23 1 .5 2.06.82 3.39 2.64-1.33 5.32-2.52 8.51-1.23.32-.68.72-1.5 1.23-2.56l12.83-1.21c.27 1-1 1.92.5 3 2.31-1.15 4.6-2.93 7.53-3.15 2.69-.2 5.36-.64 8.27-1l1.19 1.66c.37 0 .88.1 1.08-.1a12.7 12.7 0 0110.43-4c2.27.16 4.55-1.37 6.8.06l-.16-.15c.41 1 .83 2.07 1.16 2.9a22.61 22.61 0 004.74 1.29c1.37.07 2.78-.53 4.56-.92l-2.2-5.36 11.19-2.39 2.94 2 5.41-1.3 2.83-.37c-1.21-.76-2.3-1.09-2.67.56l-.93-1.72 6.89-1.91 7.68 8.85c-3.23 3-4.19 6.79-4 11a6.6 6.6 0 01-2.21 5.74c-.83.71-.91 2.29-1.35 3.52l3 2.44-.95 2.44-.39-.32.53.18c.14.53.58 1.33.37 1.57-2 2.34-1.5 4.77-.61 7.35a9.33 9.33 0 010 2.8l.16-.1c-1.07.43-.44.91 0 1.38l-.09-.09c1.9 1.6.46 3.65.66 5.47.13 1.23-.6 2.54-.55 3.79a17.81 17.81 0 001 3.92c.27.93.64 1.83.89 2.52-.51 3-1 5.8-1.55 9.18l-3.07-2.16-11.89 3.17-2.37-1.31c-10.83 2.79-21.45 6.37-32.53 8.13-6.7 1.07-13.36 2.24-20.16 2.37-1.33 0-2.64.65-4 .69a17.2 17.2 0 01-3.6-.71l1.76-1.62a1.55 1.55 0 01.07-.22 3.54 3.54 0 01-.58-.07c-5.49-1.42-11-1.92-16.45.13.15 1.4 1.25 1.15 2.14 1.3 1.39.22 2.95-.72 4.25.33-.36 1.32-1.32 1.15-2 1.2-5 .38-10.07.68-15.11 1-.19 0-.42.15-.57.08-4-1.65-8 0-12 .39a35 35 0 01-5.21-.17c-2.39-.15-4.69-.06-6 2.08-2.3-.67-4.32-1.82-6.28-1.73a27.87 27.87 0 00-12.86 3.27c-.56.32-.8 1.2-1.25 1.93h-5c.08-.61.13-1 .22-1.72a28 28 0 00-9.85-1.88c-4.19.08-8.51-.13-12.67 1a4.86 4.86 0 01-2.28.23c-5-1.21-10-.26-15-.83-1.54-.18-3.07-.4-4.6-.64s-3.2-.87-5.08-.39c-1.22.31-2.81-.87-4.24-1.38l.11.11a22.7 22.7 0 00-12.52-.44l-4.75-2.67c-3.58 1.17-7.09.58-10.78-.22-4.52-1-9.24-1.09-13.89-1.38a12.78 12.78 0 00-5.15.63c-2.27.85-4.54-.88-6.69.35-2.49-2.24-6.53-1.18-8.71-4.13a8.54 8.54 0 00-1.78-1.4 1.3 1.3 0 00.1-.49 6.52 6.52 0 00-.22-.87l-.36-.76-.37.54.85.11.15 1.64c-3.9-1-7.78-2-11.09-4.55a7.86 7.86 0 00-3.78-1.35 12.75 12.75 0 01-8.44-4.66c-2.64-.45-5.35-.58-7.23-3.05-.74-1-2.34-1.24-3.53-1.86-1.35-.71-3-1.2-4-2.25a8.42 8.42 0 00-4.48-2.37c-2.67-.65-5-1.94-6-4.49h-9.07l-.17-1.89c-1.39-1.62-2.75-1.15-4.18-.32-1.52-2-3-4-4.57-6l-.67.73c-.31-1.39-.62-2.77-.92-4.08h-1.81l-3.43-8.75-3-3.45.12.11c-.49-.83-.78-2.07-1.48-2.39-2.9-1.32-3.94-4.07-5.32-6.5-1.91-3.35-3.57-6.84-5.3-10.29a11.47 11.47 0 01-1.32-3.2 15.27 15.27 0 00-2.91-6.6 3.6 3.6 0 01-.91-2.55c.26-3.31.48-6.59-.54-9.88-.29-.91.51-2.17.85-3.26.55-1.78.57-3.43-1-4.78.68-1 3.14-1.31 1.35-3.56l-1.78.13-1-2c-1.59.05-1.6.09-.86 4.57l-2.56-1.82-1.13 2.05c-1-.55-.46-1.59-.72-2.32-.32-.9-.56-1.82-.9-2.94l2.57-3c-.64-.9-1.31-1.82-2-2.74l.17.13c.32-1.46.65-2.92 1-4.44A14.45 14.45 0 00940 367a15.85 15.85 0 00-1.26-1c-.51-1.43 1.22-5.85 4.44-11.58-.12-2.6-2.36-4.84-1.33-7.93l2-.64.15.32-.18-.22c-.35-1.24-.69-2.48-1.1-4 .5-.57 1.09-1.24 1.54-1.77 3 .39 1.57 2 1.37 3.36l1.21 1c1.29-.23 2.2-3.34 1.75-5.59l.12.1v-3.14l4.46-3.9.79-1.64-2.07-.93c-.1-.28-.33-.61-.3-.9a10.86 10.86 0 012.27-5.09 14.7 14.7 0 002.88-10.14l-.1.11V312l.09.08a30 30 0 011.77-4.2c1.75-2.91 3.68-5.71 5.75-8.88-.3-1.3 0-3.39 1.29-4.25 2.12-1.36 2.09-3.8 3.6-5.35l-2-2.34 3.09-.87c.41-1 .37-1.86-.82-2.31l.16.15c1.19-1.89 1.19-1.89 4.14-3.49v-3.45l5.15-3.47-.12-.18a6 6 0 010 2.28c-1.31 2.8-2.77 5.52-4.19 8.26-.29.58-1.17 1.09-.17 1.8 4.79-4.9 6.14-7 11.38-17.87l-2.29-.32.17.12-2.56-2.71 1.39-2.65h2.43l2.77-4.75 2.68-.31 2.17.59c.05-.84.1-1.56.15-2.29 2.61.16 2.67.12 3.71-2 2-.52 2.31-2 2.23-3.76 1-.29 2.46.19 2.74-1.73l-2.25-1.32c-.13 1.33-.23 2.27-.33 3.22-.89 1.15-2.83 1.65-2.28 3.69-2-.63-2.44 1.42-3.69 2.06a3 3 0 01-2.64 1.69l.61-3.2c3.08-3.11 6.36-6.52 8.19-11a10.23 10.23 0 013.57-4.37c2.24-1.63 4.37-3.41 6.62-5.18l1.21 1.45-2.83 2.59c1.08.28 1.84.76 2.37.58 1.79-.63 3.49-1.49 5.23-2.26l-.15-.15c.07 1.12.13 2.25.19 3.43 2.59.35 2.89-1.78 4-3l-1.23-4.44c.27-1.09.54-2.2.86-3.52l3-.18c.54-1 1.16-2.19 1.85-3.47 1.5-.15 2.85-1 4.77-.71 3.32.55 5.57-1.51 7.11-4.36-2-1.7-1.53 1.4-2.9 1.31l-2.43-1.31.12.11a2.62 2.62 0 00-2.24-2.24l-.41-.42c1.4-4-.61-7.22-2.26-10.55 1.16 1 2.29 1.47 3.25-.16-.58-.59-1.15-1.16-1.71-1.74l.19-.21-.3.35-1.29 1.94c-.74-1.08-1.84-2.07-2.14-3.26a17.74 17.74 0 00-4-7.67 5.42 5.42 0 01-1.19-5.62 10.59 10.59 0 01-4.47-7.43 16.44 16.44 0 00-6.55-10.71c.42-1 .79-1.81 1.31-3-2.21-3.52-4.76-7.13-6.82-11-2.14-4-3.47-8.45-6.06-12.31-.78-1.15-.53-3-.75-4.45-3.55-2-4.68-5.41-5.41-9l.25-.8c-.09.31-.17.62-.26.92-1.78-.92-1.55-2.45-1.19-4zm125.16 97.31l-.39.16.41-.31.21-.15zm182.53-75c.4-.2.8-.4.39-.19l-.23.29a7.32 7.32 0 00-1.06.16c-.19.06-.33.25-.5.39.17-.07.34-.13.5-.21zM1134.33 236h2.1c-.83-.91-1.54-1-2 .14-.4.07-1.2-.12-.47.71zm150-126.39h.17c-.93 1.47-.37 2.23 2 3-1.11-1.43-1.67-2.2-2.22-2.98zM1080.8 264.35l2.37-2.22c-1.82.13-2.7.68-2.23 2.39a10 10 0 00-1.53-.26c-.14 0-.29.38-1 1.32zm22.94-15.78c2.58.4 2.58.4 3.82-2.23l-3.74 2.38c-.23.57-.47 1.13-.26.64-.11.48.04-.15.18-.79zm21.38-6.34l-4.47 1.51 3.9 1.95c.24-1.52.4-2.56.57-3.61l.1-.26zm-60.82 44.23c-2.54-.29-3.58 1.76-5 3.2l.11-.15c2.37.1 4.3-.45 4.76-3.19l.9-.33-.47-.46zm56-65.59c4.18-1.47 4.18-1.47 5.77-3.28-3.4.49-3.4.49-5.71 3.35l-2.23.3c.75.38 1.16.72 1.3.63a4.23 4.23 0 00.91-1zm18.73-11.64c-1.43-.27-1.4-1.44-1.53-2.51.35-.08.7-.13 1-.23a1.56 1.56 0 00.43-.31 3.11 3.11 0 01-.44.3c-.28.12-.57.2-.86.3-4.34 3.45-4.34 3.45-6.06 7.36l4-1.52c1-.38-.58-1.77.9-2.12a9.74 9.74 0 002.42-1.43c.57.12 1.23.32.69-.69-.14.28-.32.62-.51.85zm134.83-113.41c-1 1.18-1.72 2-2.41 2.9l.26.43c2.23.7 2.28.74 3.37-.23.34-.3.38-.94.57-1.44zm-75.29 391.89v.56h6.93v-.56zm54.28-3l-.21-.82c-1.31 0-2.62-.07-3.92 0-.66.05-1.57.1-1.14 1.59zM1116.7 239.39c2.41 0 3.72-.23 4.8-2-1.87-.32-2.77.96-4.8 2zm63.75-80.87c-2.36-.15-2.36-.15-3.1 1.41zm-72.63 263c-2.15-.64-3.33-1.16-4.93 0a9.8 9.8 0 002 .45 24.78 24.78 0 002.93-.49zm-34-154.46c1.39.93 2.1.79 2.77-.76zm167.06 220.05c-.66-1.89-.56-2.88-1.77-2.43zm-81-311.83l-1.6 1.08c.36.49.71 1 1.78 2.49-.06-1.96-.06-2.61-.16-3.61zm121.5-70.54a5.64 5.64 0 00-1.31.32 3.1 3.1 0 00-.66.73c.32.07.75.32 1 .19s.53-.69.99-1.28zm-276 137.92l.36-1a3.5 3.5 0 00-.45-.12c-.14.31-.24.63-.35 1zM967.31 61.84c-.06-1.59-.06-1.59-1.57-1.94zm129.06 358.49l.05-.19a5.62 5.62 0 00-.58 0v.24zm133 .14V420h-1.68v.48zm-105.51 1.26l.4.32c.07-.13.21-.32.17-.39s-.27-.17-.41-.25zm-73.7-125.55c-.07-.3-.14-.6-.2-.89-.16.06-.43.08-.46.18a6.14 6.14 0 00-.17 1zm78.58-81.64h.46v-1.32h-.39c-.01.44-.04.88-.08 1.32zm-19.24 206.74c0 .11 0 .27.11.31a1.94 1.94 0 00.49.1l-.13-.55zM998.17 85.8a2.6 2.6 0 00-.91-.39c-.15 0-.31.42-.46.64.28.13.57.37.84.35s.36-.4.53-.6zm117.74 143.94a7.67 7.67 0 00-.89-.38l-.29.41a4.44 4.44 0 00.85.34c.07.02.21-.24.33-.37zm145.59-127.26V102h-1.78v.47zm-241.13 129.37v.4l1.3.08a3.43 3.43 0 000-.38zm126.79 1.43a1.8 1.8 0 00.5.15s.1-.24.15-.37a1.69 1.69 0 00-.48-.09c-.07.03-.12.2-.17.31zm-44.29 3.17l-.44-.18v.65a1.57 1.57 0 00.45-.13c.02-.04-.01-.22-.01-.34zm31.07 2.53l.47.22v-.32zm67.79-110c0 .12 0 .32.11.36a1.59 1.59 0 00.5.07c0-.19-.09-.38-.13-.57zm-73.17 114.6l-.44-.15v.66a1.1 1.1 0 00.45-.16c.02-.01-.02-.19-.01-.31zm-11.7 3.72v-.32l-.5.12zm38.7-78.47a1.53 1.53 0 00-.45-.13l-.14.33a1.39 1.39 0 00.43.12c.06.04.11-.15.16-.28zm-56.78 94.39l-.22.35h.36zm-7.35 3.72l.32.23v-.36zm21.57-23.23l-.34-.2v.34zM1207.45 127l.21-.31h-.34zm76.11-30.8l-.24.33.35.06zM942 377.88l-.21.33h.36zm143 40.06c-.1-.12-.2-.32-.31-.33s-.25.17-.37.27c.1.12.2.32.32.33s.3-.21.42-.27zm224.11 11.89l.21-.3h-.34zm-.78 25.53c-.1-.12-.19-.32-.3-.33s-.24.17-.36.27c.1.11.19.32.3.33s.3-.17.42-.27zM692.63 482.78c0 .94-.1 1.89-.17 3.06l-8.77 1.8c-.92-.92-1.82-1.88-2.78-2.78s-1.94-1.68-3.06-2.63l.9-1.24 3.84 2.08c.19-.09.41-.12.52-.26 1.33-1.58-.6-1.19-1.35-2.08.37-.75.82-1.68 1.27-2.61.24.26.54.78.72.74 3.12-.65 6.44-.52 9.27-2.3a22.69 22.69 0 002.32-2.28 110.75 110.75 0 00-12.44 4c-.37-1.06-.75-2.12-1.17-3.3-1.7-.9-3.22.12-5 .92 0 .43-.08.94-.16 1.9l-2.67 1.25-.43.44-4.08 1.91-2.73-.85-1.39 3.2a13.34 13.34 0 008.68-1.67c1 1.37-.09 2-.47 3-10.54 2.15-21.27 2.58-32.35 3.32-.11-.84-.21-1.7-.32-2.6a4.19 4.19 0 00-.75.08c-.06 1.61-1 2.88-2.46 2.46-2.1-.62-3.23.93-4.91 1.47l-9.69-1.88c-.71.87-1.44 1.74-2.21 2.69l-3.32.36c-.48-.45-1.32-1-1.25-1.21.85-2.18-1.22-3.21-1.45-4.89h-3.43c.3-1.12.57-2.11.78-2.91-1-1.73-2.28-.18-3.63-.93a13.46 13.46 0 01-1.65-6.24l.48-.4 3.71 2.15a68.13 68.13 0 00-1.25-7 57.74 57.74 0 00-2.63-6.29l-2.43-1.6.14.14h-1.43l.13-.14c-.29-.42-.82-.82-.84-1.25-.32-5.11-2.06-9.87-3.39-14.73 0-.14-.31-.21-.47-.31l.17.17c-.17-.94-.33-1.88-.48-2.73l-1.89-.3c.11-1.38.21-2.68.33-4.28-3.08-5.44-4.17-11.86-6-18.69l-2.05-1.32 2.53-3.06c-.17-.9-.35-1.83-.53-2.76l2.23-2c-.36-.85-.72-1.7-1.06-2.52.25-.34.42-.84.68-.89a14.83 14.83 0 005.82-2c2.34-1.51 5.38-1.95 8.17-2.87l5.26 1.33 3.76 3.43c2.43-.56 4.81-1.15 7.2-1.64s4.89-.89 7.33-1.34 4.56-1 6.86-1.25 4.86.15 7.25-.46c2 2.11 4.75-1.95 6.72 1l-1.06 1.8c3.67 1.56 7-1.05 10.58-1.29a12.78 12.78 0 01-2.06-.07c-.93-.2-1.82-.56-2.73-.85v.22l2.28-3 4.54.88 4.58-2c.45.3 1.16.5 1.34.93.55 1.31 1.1 2.5 2.78 2.52l-.13-.14 1.29 1.28c1.77-4.09 4.65-6.06 8.91-5.84-.18.84-.33 1.54-.58 2.68l3.28-.41.15.26-.27-.32a10 10 0 011.27-1.09c1.49-.92 3.19 1.38 4.86-.51.9-1 2.71-1.28 4.14-1.8a7.66 7.66 0 014.44-.53c1.4.29 3.12-1 4.86-1.69l2.47 1.06c1.23-4.39 4.51-3.68 7.67-3.37.09.54.14.92.2 1.3.34 0 .85.22 1 .07 1.52-1.66 3.64-2.11 5.61-2.84 7.94-2.93 15.94-5.68 23.19-10 .59-1.82-1.2-1.73-1.87-2.51l-.6-.6 2.57-.91.06.07a2 2 0 002.07 1.21c.9 0 1.8-.13 2.7-.19l-2.24 2c3.81-.07 3.81-.07 7.39-3.27l-3.06.22c.33-.41.59-1.1 1-1.21 2-.53 4-.91 6-1.34-.21-1-.38-1.81-.61-3l3-.4-.13-.16 1 1.79 4.61-2.58c-.44-1.51-.75-2.52-1.05-3.53l.49-.41 1.72 1c.36-1.24.71-2.41 1.14-3.89l4-.36-.09-.11v3.83c1.29-2.06 2.28-2.6 2.48-3.84l-.22.14c3.11-.45 4.89-3.06 7.37-4.54l-.08.17-2.79-.64.18.14 1.63-2.25c2-1.19 4.55.44 6.12-1.59 1.23-1.6 2.35-3.29 3.53-5l-1.18-1.24 3.52-.66c.17-.63.35-1.32.53-2a1.28 1.28 0 00.38-.21v-.28c-.1.2-.19.4-.28.6l-2.59-.3.16.15c.08-.57 0-1.42.28-1.66 2.75-2 4.62-5 7.85-6.46 1.8-.84 3.19-2.59 4.65-3.83-.25-1.11-.41-1.85-.72-3.26l2.06-1.48.07.16c2-2 2.66-4.52 3.33-7.11 1-3.68 2-7.33 3.3-10.93.37-4.52 1.15-9.17 0-13.64a29.1 29.1 0 01-.81-10c.16-1.82-.74-3.73-1.17-5.67l-3.47-1.03q-2.77-7.44-5.56-14.89c-1-2.82-3.83-4.71-4.25-8l.62-.12-.45.3-2.78 1c-2.79-1.9-6.14-3.35-8.26-5.85s-5.69-3-7.62-5.63h4.77c-2-1.21-2.88-2.1-3.76-2.15a16 16 0 01-8.87-2.84l-2.61 1.84-5.63-.45-4.41-3.47h-10.47c-.31-.49-.72-1.12-1.12-1.73-2.24.39-4.47 1.29-6.8.1l-2.47 2.88c-3.27-.2-6.71-.55-10.16-.6-3.2-.05-6.41.21-9.92.34.51-1.3.82-2.12 1.19-3.09-.59-.13-1.33-.51-1.58-.3-2.35 2-6-.16-8.09 2.46-2.87.42-5.74 1.2-8.61 1.18-6.38-.06-12.59 1.83-19 1.24a16.11 16.11 0 00-8 1.12 25.41 25.41 0 01-8.41 1.93c-4.64.5-8.79 2.54-13.29 3.46-8.33 1.69-16.6 3.74-24.91 5.57-1.88.41-3.82.5-5.81.75a7.72 7.72 0 01-5.5 3.55c.2.8.33 1.35.5 2-2.44.33-5.1.27-6.66 2.73l.15-.17a70.27 70.27 0 00-20.23 4.38q-10.8 4.17-21.66 8.17c-2.71 1-5.6 1.52-8.23 2.66-3.83 1.66-7.56 3.59-11.23 5.59-1.4.76-2.59 1.64-4.31 1.12a2 2 0 00-1.6.43c-4.49 4-10 3.59-15.36 3.57a4.27 4.27 0 00-.66.12l1.54 2.23c-1.74 1.79-1.74 1.79-4.15 1.6-1.7 1.77-3.34 3.53-6.63 3.4 1.42-2.51 2.58-4.55 3.82-6.76l-2.08-.51-2.61 3h-2c-.37 1.44-.76 3-1.16 4.61-2.39.06-.71-2.34-1.93-2.89-1.39 1.6-3.25 1.47-5.08 1.56-.25-2.18-.49-4.2-.73-6.27l-3.19-.36.1.17c-.48-1.13-.95-1.09-1.41 0l.07-.14c-2-1.21-2.59-3.28-2.79-5.32-.4-4.06-1-8.1-1.6-12.19l2.36-.34.15 2.3.37-.12-.7-2a14.64 14.64 0 00-3.71-8l.12.11c-1.23-1.94-2.48-3.87-3.7-5.83a3.9 3.9 0 01-.7-1.58c-.3-3.91-3.65-6.86-3.16-11.54.24-.43.79-1.44 1.46-2.64a12.88 12.88 0 01-1.73-10.59 28.82 28.82 0 00-1.85-4.12 21.81 21.81 0 00-2.85-3l3.55-3.34h7.47c3.94-3.73 8.95-4.29 14.33-2.1l3.62-3.28-1.09-1.87c3.68-.92 7.06-2.13 10.87-1.27a5.56 5.56 0 004.19-1.41c2.16-2 4.9-2.33 7.4-3.3 1.75-.68 3.79-.43 5.31-2a4.1 4.1 0 012.72-.76c4.47 0 8.65-1.28 12.9-2.53 5-1.47 10.23-2.26 15.33-3.45 4.92-1.14 9.78-2.54 14.72-3.6 4.75-1 9.22-2.94 13.88-4.21a62.81 62.81 0 016.25-1.25 26.48 26.48 0 008.68-3.11 23.45 23.45 0 015.35-2.25c6.2-1.6 12.44-3 18.68-4.5a16.88 16.88 0 013.41-.37 25.74 25.74 0 009.06-1.8c1.08-.44 2.26-1.22 3.28-1.08 3.45.48 6.52-.52 9.61-1.78 4-1.64 8.32-1.6 12.65-1.45l4.74-3.38c2.89-.43 6.33-1.17 9.8-1.38a49.75 49.75 0 005.71-.71c4.58-.83 9.23-1.35 13.86-1.88 3.85-.44 7.74-.68 11.6-1.1a15.2 15.2 0 005.05-1 16.56 16.56 0 016.27-1c5-.12 10-.16 15.07-.29a23.31 23.31 0 017.16 1.05c2.53.76 5.5.06 8.16 0l1.4-2.29 3.27 2.53a19.19 19.19 0 018.38.82c3.34 1.11 7.16.77 11.46 1.11l1.78 1.36c.31 0 .76.14 1 0 3.48-2.15 6.67-.22 9.22 1.45a67.5 67.5 0 0016.72 7.86c2.72.87 5.21 2.55 5.82 5.89l2.85.86c.44.93.93 1.95 1.5 3.13 4.14 1.81 8.44 3.57 12.63 5.57 3.82 1.82 8.16 2.92 11.8 7.29l-4-.44-.32-.16h.47c-.38.9.12 1.32.8 1.83 3.86 2.88 7.67 5.82 12.15 9.23l4.39 1.11c1.22 1.33 1.38 3.28 2.68 4.8 5.38 6.3 8.6 13.93 12.33 21.25 3 5.88 4.25 12.38 7.09 18.25 2.48 5.14 3.19 10.68 4 16.13a96.3 96.3 0 004.3 18 3.67 3.67 0 010 1.15l-2.15-1.14c.15.76.09 1.47.38 1.66.75.49 1.37.1 1.7-.72l1.21 1.93c-.72 1.91-2.9-.45-3.15 2l1.36 1.58a20.24 20.24 0 00-.8 3.68 30.56 30.56 0 00.62 4.8l-1.68 3.6-.51-.87-.53.81a1.67 1.67 0 00-.52.16c-.08.05-.07.24-.1.37l.47-.68h1.36c.32 2 .43 3.85-1.52 5.14-.07-.48-.14-1-.18-1.26l.27 1.1c.28 2.69.75 5.38-.43 8.27l-1.2-1.05c-1.63 1-.07 2.54-.62 3.7s-1.43 2.3-1.92 3.54c-.26.66 0 1.52 0 2.28-.06 1.52.31 3.31-.37 4.48-1.72 3-1.53 6.34-2.44 9.47a45.71 45.71 0 00-1.07 8.06c-.18 1.71-.24 3.43-.36 5.32l-4.14 1.08-1.62-.22c-1.71 4-1.71 4-1.06 6.3 1.57-.77 1-2.26 1.18-3.5s.37-2.23 1.61-2.73l2 4.26-1.3 1.19 1 1.57-1.58 1.7c-.2 1.79-.27 3.64-.64 5.42a57.31 57.31 0 01-1.8 5.52l-3.41 3.72-3.16.55c-.39 2.37-.39 2.37 2.13 3.87a9 9 0 01-4 6.49l.11.14c-.2-.52-.41-1.05-.65-1.64a4.09 4.09 0 00-.74.3c-2.76 1.87-1.94 4.79-2.08 7.21-1.48 3.34-4.34 5-6.77 6.41-1 2.07-1.43 4-2.56 5.32s-2.81 2-4.74 3.34l-2.65-1.67c0 1.31-.07 2.13-.1 2.95l.16-.15-3.41.37c-.3.79-.56 1.5-1 2.64l3.25.44-.12-.16c-.06.52.08 1.25-.21 1.54q-4.29 4.23-8.73 8.32c-.84.77-1.89 1.73-2.89 1.8-1.93.14-2.64 2-4.24 2.44L828 431l.31.35-2 2.38-2.9-2.34v-1.24l.13.13-1.2-.06h-.08c-1 .5-2.47.5-2.3 2.21v-.13c-.69.66-1.26 1.64-2.08 1.93-5.77 2.06-10.14 6.35-15.26 9.42a10 10 0 00-1.92 2.07l.37 1.92-2.81-.92c-2.64.24-3.65 2.62-5.39 4.38l-4-.89-2.06 1.8-4 .62c-.92 1.34-1.78 2.62-2.9 4.28l-10.25 3.27-1.63 3.36-5.38 1.72a15.2 15.2 0 00-7.45-.54 85.26 85.26 0 00-11.78 3.07c-2.87.84-4.78 3-6.29 5.5-2.27-1.93-4.89-1.43-7.57-2.19l-3.19 4.78.11-.16c-.75.46-1.42.92 0 1.34l-.17-.18c-1.36.71-1.36.71-3-.43-.29.91-.55 1.71-.85 2.67-3.16 1-7.38-.73-9.72 3.44l-3.94-1c-3.81 4-8.8 3.7-14.34 2.86l1.89-.75c-.45-.37-.66-.7-.9-.73-1-.1-1.91-.11-2.87-.15l-.15-.28zM590.82 217.39l-.28-.17.43.06-.23 1.39-4.76-.14.1.12c-.86-.28-1.76-.88-2.56-.77a36 36 0 00-4.76 1.21l2.93 2.32c2.66-.57 5-1.12 7.4-1.57.81-.16 1.42-.37 1.53-1.29.83-.25.86-.65.2-1.16zm234.88 6l-.78.41.91.57-.18.16c0-.4 0-.79.05-1.19l.35-.11zm-4.63 152.89l.35-.22-.25.34c-.44.46-.89.91-1.34 1.36-.84.4-1.64.82-.94 2.19 1.14-.54.85-1.48.83-2.3zm16.46-20.87l.3-.39-.16.47-.36.1zm-27.15-32.9c.45 0 1.1.2.6-.66l-.46.8c-.2.2-1.2.06-.32.74zm-45.6-141.67h.26l-.35.15zm84.44 85.52l.23.58-.4-.42-.24-.31zM735.5 204.68c.47 0 1 1 1.35-.19l1.57-.29c-.92-.25-.92-.25-1.45.43l-1.63.22a1.26 1.26 0 01-.19-.43c0-.16.1-.31.13-.47s-.12-.08-.18-.13zM765 410.51l-.75.16.6-.32.45-.42zm-33.89 12.83l-.88.32.69-.49 1.08-.76-1-.46c.14-1.58 1.69-1.46 2.58-2.12l.15-.18-.23.34c-2.77-.86-5.29-.87-6.94 2.06l-2.65 1.06c-3.81.8-7.44 2-10.47 4.58l-.24.5.08-.65c5.46.95 8.72.37 12.72-2.22l-2.3-2.32c1 0 2.09.11 2.65-1.07l4.77-.09zm71.1 16h.36c.59-.43.19-.14-.2.16l-.36.41zM809.25 221l.17.31-.27-.39-1.22-.77-.15.15zm-210.47-4.77l-2 .46.24.44 1.64-1c.77-.55 2.06.71 2.92-1.37zm224.71 10.49l-1-.32 1.13.19c-.18 1.35.45 1.59 1.64 1.19-.26-1.02-1.07-.93-1.77-1.05zm5.68 4.64l.1.36-.16-.33c-.1-.5-.19-1-.29-1.49l-.72.57zm-12.91-43.45c.74-.06 1.68.09 1.38-1.14 0-.19-.55-.26-.87-.4-.13.57-.27 1.12-.4 1.68l-.18.22zm-256.07 65.58c1.29 0 2.84.87 3.65-1 1.17-.39 2.76.33 3.47-1.3l4.87-.89.14-.19-.23.35c-.76-.06-1.52-.08-2.28-.18a2 2 0 00-2.36 1.08c-1.29.09-2.67-.08-3.49 1.29a2.76 2.76 0 00-3.62 1l-3.13.34c1.72.9 2.79 1.36 2.98-.5zm252.71-69.92l-.17-.22.3.11 1.34 2.1c1.06-1.85 0-1.91-.91-2a3.57 3.57 0 00-.56.01zm-173 222l-.15-.28.26.34c1.09 1.46 2.5 1.1 4 .38zm156.42 28c.86-.3 2.41.57 2.33-1.89l-2.15 2.06-1.61.58c1.19.46 1.68.33 1.43-.81zM849 246.69l.14.26-.25-.31c-1.59-2.39-1.59-2.39-3.51-1.65zm-45.37 18.46l-.21-.19.34.3a7.21 7.21 0 00-.46 1.66c-.06 1.43.23 1.59 1.93 1.27-.51-1-1.05-2.02-1.59-3.04zM662.28 482.59l-1.15-.21 1.31.15c-.87 1.92-3.29.6-4.41 2.17 1.69 1.15 3.13.19 4.78-.08zm154-100.3c-1.76-.32-3 .25-3.5 2.44l1.78 1.13c.63-1 1.17-1.78 1.59-2.61.15-.29 0-.72 0-1.09zM520.71 231.55L525 230c-.05-1.07-.09-1.95-.16-3.33L521 227.8c.21.5.23.7.34.78.44.35.9.66 1.33 1a1.7 1.7 0 01-.19.59c-.52.54-1.08 1.06-1.62 1.58l-2.24-.13c.36.44.52.7.56.68.52-.25 1.02-.5 1.53-.75zm127.45 237.31h6.64c.44-1.39 2-2.32.54-4.06-1 1-1.87 1.84-2.64 2.58-1.46.2-2.78.34-4.08.59-.16 0-.21.61-.32.93h-.38zM522.74 238.34c-2.59.29-5.24-.76-7.85.19-.77 2.44.77 3.07 2.44 3.72 1-.73 1.92-1.39 2.81-2.09s2.35-.43 2.46-2a11.89 11.89 0 001.57.14c.16 0 .29-.37.92-1.23zm291.13-19.66l6.51 4.15c-.45-1.56-.44-2.35-.83-2.77-1.61-1.75-3.66-1.83-5.82-1.23.31-.68.61-1.36.92-2-7.56-3.56-7.56-3.56-11-2.87 3.56 1 6.23 1.91 8 4.34.35.41 1.47.26 2.22.38zm25.94 19.7c-.47 2.55 1.87 2.94 3.2 4.09-.92-1.47-.83-3.78-3.32-4l-.21-1.8-3.48-1.19-2.74-4.66c-.48 1.77-.72 2.62-.92 3.36 1.97 2.6 3.71 5.23 7.47 4.2zm-118.32-35.17l-4.54-.83-5.37 1.67c.51.74.74 1.48 1.1 1.55a12 12 0 007.78-1.21c.42-.2.59-.89.88-1.35 2.09.48 4.13 1.38 6.82.92-3.59-1.84-3.59-1.84-6.67-.75zm16 262.08c-3.79-.58-29.36 5.81-34.28 8a61.83 61.83 0 008.39-.75c3-.53 5.93-1.39 8.89-2.07s5.72-1.09 8.48-1.93 5.63-2.15 8.47-3.25zm-57.17-28.19c-.76-2.66-2.41-3.16-4.22-2.51s-3.29-.07-4.91-.56l-2.17 1.5 2.46 1.54c2.92-1.7 5.65-.79 8.84.03zM656 440.59l.23 1.12 9.31-.42-.48-2a17.19 17.19 0 01-3.39.51 22.75 22.75 0 01-3.69-.72zm106.19-263.15l-9.64 1.5c4.31 2.08 7.32 1.27 10.56.69zm-110 257l2.07-2.76a5.18 5.18 0 00-6.91-.29c.65 3.06 3.49 1.8 4.88 3.06zm113.6-248.77c-4.46-2-7.37-2.25-10-1.38zm-19.4 274.56a21.78 21.78 0 00-6.2 3.4l1.84 1.65c1.97-.79 3.59-1.69 4.36-5.05zm62.3-180.38c.1-1.76.15-2.68.21-3.86-.78-1.22-1.69-2.65-3-4.7.68 5.59.68 5.59 2.79 8.56zm-175.43-90.17a42.89 42.89 0 004.29-.21c1.3-.2 3 .46 4.26-1.83a19.21 19.21 0 00-8.55 2.04zm18.91-3.41c4.63.34 4.63.34 8.37-1.67zm54.37 16.67c.07-.31.15-.61.22-.92l-4.87-.33-.06.83zm81.9 12.82c.27-2.06.27-2.06-5.14-2.37a14.18 14.18 0 002 1.25c.97.45 2.06.75 3.14 1.12zm21.95-33.59c-1.43-1.09-2.4-1.92-3.46-2.61-.74-.48-1.61-.82-2.22.34 1.29 1.64 2.81 2.45 5.68 2.27zM662.91 437.28c.55-.88 1-1.56 1.3-2.11-.9-1.28-1.68-1.91-2.9-1.18zM814.4 225.2c3.42.83 3.42.83 4.65-.19-1.43-.33-2.78-2.25-4.65.19zM743 177.39c-2.34-.64-4.56-1.15-6.68 0zm86.62 191.72l.88.71 2.82-3.7a3.56 3.56 0 00-2.51 1.14 12.17 12.17 0 00-1.2 1.85zm-88-187.26c2.06.18 4.11 1.08 6.18 0a8.16 8.16 0 00-6.17 0zm109.6 90.52l-2.17.63a4.66 4.66 0 00.86 4.08c.5-1.75.83-2.93 1.32-4.71zm-144.6-67.8c0 .28-.11.57-.17.86l3.47 1.6c-.12-.83-.06-1.67-.28-1.75a20.11 20.11 0 00-3.01-.71zm-35.76 236.2c-1.25-1.47-2.37-1.49-3.65-.74.93 1.27 2.03 1.44 3.66.74zm170.22-35.85a7.5 7.5 0 001.68.48 4.34 4.34 0 001.4-.44c-1.68-1.56-1.68-1.56-3.07-.04zm-36.64-183.33c-.06-1.25.44-2.55-1.51-2.84-1.13 2.61-1.1 2.6 1.51 2.84zm-72.74-41.81l-3.16 2.79 4.05-.77zm-98.61 225c1.89 1.71 2.64.7 3.61 0zm146 46.48l-4.53.31c1.44.97 2.44 1.71 4.55-.32zm-228.5-193.73c1.08.29 2.19.7 2.31-1-1.24-.67-2.1-.53-2.31 1zM847.29 268c0 1.53.22 2.63 1.73 2.63l.66-1.31zm-75.13-58.86c.32 1.43 1.05 1.61 1.86 1.45.17 0 .23-.6.34-.92zm22.38 8.41c-.59-.88-1.24-2.84-2.61-.66zm-149.6 252v-.5a7.31 7.31 0 00-1.52-.21 11.12 11.12 0 00-2.17 1.06zM488.59 224.93l-2.68-1.69c.65 1.76 1.16 2.55 2.68 1.69zm364.07 60.88c1.13-.76 1.69-1.62.29-2.84-.12 1.23-.21 2.03-.29 2.84zm-112.72 128.5l2.69 1.65c.25-1.9-.33-2.42-2.69-1.65zm-64.18 50.13c.06.23.13.46.19.69l2.51-.35v-.34zM543.25 226.7l-.27-.41a5.78 5.78 0 00-.67.53l.25.39zm91.68 231.89v.37H637v-.25zm-2.26-17.16h4l-3.26-1.55c-.19.42-.27.58-.74 1.55zm162.24 2.22c-.79-.66-1.43-.63-1.95.19a3.11 3.11 0 00-.22.53c.29.11.68.4.86.3a7.72 7.72 0 001.31-1.02zm58.6-192l-2.74-2.78c-.94 1.78-.19 2.34 2.74 2.75zm-199-70.12v.5h1.87v-.5zm82.74.41c.32-1.49-.16-1.85-1.64-1.42zm-202.4 72.18l.49.18.09-.16zM733.76 238l.42-.27-.79-1.19-.43.28zm-204.69-1.2c.33.07.71.25 1 .16s.43-.45.64-.7a3.19 3.19 0 00-1.14-.24c-.21-.02-.34.48-.5.75zm283.12-7.18a1.27 1.27 0 00-.52 0c-.07 0 0 .29 0 .45h.79zm-98.32-27.82v-.47h-2.08v.47zm-67.33 258.29l-.81-.19zm-10.93-22.57c-.05-.16-.09-.31-.13-.46-.29.13-.58.24-.85.39 0 0 .06.26.1.4zM537.13 224.6l-2.26.34.36.9zm213.44 191a9.7 9.7 0 00-.6.86c0 .05.2.22.3.34a8.1 8.1 0 00.58-.86s-.18-.23-.28-.35zM639.2 218.46l-.08-1-1.93.4.08.58zm26.8-6.64h.34l-.14-.49zm48.3 265.78c-.09-.15-.14-.37-.26-.41s-.35.05-.52.09c.11.2.23.39.35.58zm-16.64-3.74v.44l1.32-.19c0-.12-.09-.36-.12-.36-.42.02-.86.07-1.25.11zm-65.88-4.39l-.12-.37-.8.3c.14.1.28.26.42.27s.28-.13.45-.2zm76.74-1c-.56-.43-.72-.63-.83-.61a4.85 4.85 0 00-.87.33zm-50.14-.92l-.46-.9c-.15.12-.42.24-.42.36a5.21 5.21 0 00.2 1zm-23.9-.59l-.89-.38v.76zM787 207.54c-.09-.16-.22-.45-.29-.44a5.71 5.71 0 00-1 .3c.12.14.24.41.34.4a4.83 4.83 0 00.95-.26zM629.5 467.16v-.3l-.48.12zm87-1.47c0 .13 0 .33.13.37a1.79 1.79 0 00.54.1l-.15-.64zm47.78-13.06l-.3.36a4 4 0 00.78.32c.09 0 .23-.2.35-.31zm-88.68.31l1 .11zm108.26-12.82c-.15-.1-.29-.27-.43-.27s-.32.13-.48.2c.14.1.27.27.41.27s.35-.13.52-.2zM642.21 439l-.41-.25-.09.32zm54.5-.73c-.12 0-.29 0-.34.11a1.29 1.29 0 00-.11.45l.62-.13zM563 222.48l-.43-.15-.06.5a2.22 2.22 0 00.45-.07s.04-.18.04-.28zm189.67 188.25a1.47 1.47 0 00-.48-.12c-.08 0-.13.23-.19.35a1.37 1.37 0 00.5.15c.06 0 .11-.24.17-.38zm31.22-10.2v-.32l-.48.13zM546.6 226.24c0-.13 0-.33-.13-.37a1.91 1.91 0 00-.54-.09l.15.64zm83.45-24.4v-.39h-1.41v.39zm-114.68 28.71c-.15.08-.45.19-.44.23a7.69 7.69 0 00.34.91c.14-.09.42-.22.41-.28a5.19 5.19 0 00-.31-.86zm356.91 136.76l-.24-.41a3.17 3.17 0 00-.33.29 4.92 4.92 0 00.41.52c.05-.14.11-.27.16-.4zm-51.7-176.64l-.92.48c.13.13.3.39.39.37a5.15 5.15 0 00.92-.44zM835.2 363l.42.32a5.67 5.67 0 00.39-.83c0-.08-.23-.24-.35-.36-.16.29-.31.58-.46.87zm-22.74-44.68H812v1.31h.33c.07-.43.1-.87.13-1.31zM801.4 184a7 7 0 00-1-.36c-.07 0-.3.35-.28.37.19.19.41.48.63.48s.4-.32.65-.49zm-83.59-.76c-.54-.42-.69-.63-.8-.61a5.47 5.47 0 00-.85.32zm67.51 65.29c0-.13-.08-.37-.13-.37a2.42 2.42 0 00-.5.12c0 .12.08.32.15.33a1.38 1.38 0 00.48-.11zm-244.85 3c.45.52.59.79.69.77a6.07 6.07 0 001-.31zm306.92 24.79l-.41-.16-.09.57a1 1 0 00.43-.06c.07-.1.05-.29.07-.41zm42 27.39l.22-.35h-.38zM694.18 186.08l-.36.3c.1.12.19.32.3.33s.24-.17.37-.27zm28.08 4.77l-.21.3h.34zm-162.51 31.6l-.23.34.36.05zM815 423.81c-.11-.12-.21-.33-.32-.34s-.25.18-.38.28c.11.12.2.33.32.34s.22-.18.38-.28zm-160.53 13l.21-.33h-.36zm142.41 5.57l.32.22.05-.33zm-7 3.58l.32.21v-.36zm-41.56 14.06l-.34-.22v.34zm-51.51 21l-.33-.21v.33z"/><path d="M195.71 302.62c1.41 1.72 3.41 1.53 5.28 1.48 2.29-.06 4.58-.43 6.87-.48a2.16 2.16 0 012.47 2.17c-5.28.91-10.49-.08-15.55-.2-.95-1.8.41-2.29 1.12-3.07zM787.24 342.59c-.78-2.08 1.18-3.16 2-4.5s2.95-1.94 4-3.5c.15-.22 1 .05 1.61.09-1.92 5.72-3 6.76-7.7 7.79zM769.48 357.65l.34 2.12-4.67 3.87v2l-.49.41-2.42-1.2-3.22.94.13.13 1.37-2.53h-.14a13.57 13.57 0 006.37-4.35 2.82 2.82 0 012.9-1.29zM1031 371.16a45.45 45.45 0 013.85 11.91c-2.27-2.07-3.03-4.4-3.85-11.91zM747.48 374.05l6.35-5.76h2.93l-.1-.13c-.07.35 0 .88-.23 1-2.46 1.68-4.94 3.33-7.48 4.88-.38.23-1.07-.05-1.62-.1zM439 267.35c-3.68-3.63-4-4.27-3.8-9.65a22.09 22.09 0 013.64 9.79zM128.18 87.32c-2.46 1.4-4.74.19-7.39.13 2.65-3.54 5.06-1.45 7.39-.13zM891.31 328.26c.19 1 .39 1.95.56 2.81-1 .87-1.79 1.58-2.61 2.32-.57-2.05.63-3.51 2.05-5.13zM429.56 252.26c2.74 1.82 1.93 5 2.93 7.51a16.59 16.59 0 01-3.39-7.1zM41.46 69.16l-.59 1.66a18.58 18.58 0 00-3.19-.51 12.16 12.16 0 00-2.83.76L34.13 69l-.16.16 7.66.15zM994.27 462.66c-2.21.47-3.22-1.43-5.32-2.13l2.16-2 3 4.27zM188.43 486.34l-5.83-2a24.68 24.68 0 017.11-.32l-.1-.13v1.36l.09-.17-1.22 1.22zM414.74 219c-2.13-.59-4.38-1.13-3.86-3.89.55.21 1 .23 1.2.47.92 1.12 1.78 2.29 2.66 3.42z"/><path d="M41.63 69.27L36.79 66c2.31-1 3.88.09 5.82 1.17-.43.76-.79 1.37-1.15 2zM598.86 445.35l-.09 5.9.14-.14c-1.82-1.25-1.87-3.33-2.85-5.59h3zM941.5 392.65c-1.94-1.8-1.19-3.82-.76-5.82 1.36 1.92.58 4 .6 6zM684.94 246.75c1.33-2.06 2.74-2.32 5-.54zM223.55 163.89h4.82v.5h-4.82zM22.78 81.27v-3.69l.49-.11a10.43 10.43 0 01.41 2 9.27 9.27 0 01-.35 1.91zM726.27 475.85l3.9-1c-.59 2.61-2.42 2-3.93 2l.17.18v-1.34zM978.91 273.62c1.08-1.27 2.15-2.55 3.22-3.82l.5.39c-.18 2.39-1.79 3.08-3.84 3.25zM678.72 246.36a14.16 14.16 0 012.62-.53c.39 0 .8.57 1.3.95-2.25.79-2.25.79-4.55.13zM415.34 223.3l.53-2.09 3 2.85-2.4.29.12.14c-.44-.45-.89-.89-1.34-1.33zM94.93 225.61h5c-1.67.62-3.43 1.69-4.86-.16zM798.46 330.77c-.12 1.55-1.57 1.43-2.57 2.46.36-2.01.36-2.01 2.57-2.46zM685.33 395.39H689c0 .17 0 .33.05.5l-3.48.57c-.07-.36-.16-.71-.24-1.07zM187.28 305c.05-.37.1-.73.14-1.1l-.19.09h3.64l-.17-.14c-.13 2.18-.66 2.67-2.33 2a5.74 5.74 0 01-1.24-1zM807.26 301.77v-2.6l.43-.05c.15.89.29 1.77.44 2.65zM1228.82 488.88l3-.25v.69l-3 .21c.03-.22.02-.43 0-.65zM193.58 218.21c.32-.11.71-.39.92-.29s.29.58.42.89c-.32.12-.73.42-.92.32s-.29-.6-.42-.92zM224.76 9.34c0-.91-.24-2 1.11-2.14s1.33 1 1.42 1.88l-.45.46-2.19-.3zM1030.26 219.68v3.13c-1-1.19-1.3-1.64-1.66-2.08l1.78-.94zM49.29 283.89c-.35 1.48.13 3.45-2.24 3.71l-.07-.07c-.24-1.91 1-2.78 2.47-3.44zM437.69 411.47c-.47-2.56-.3-2.79 2.38-3.34l-.15-.14c-.31 1.46-.45 3-2.32 3.44zM120.71 203.42c.07-1.3.13-2.6.24-4.64 1 2.15 1 3.45-.35 4.53zM943.33 399.47v2.58h-.24l-.32-2.56zM772 362.41c.09-2.14 1.7-2.32 3.27-2.54l-.14-.14c.95 1.35-.57 1.83-1 2.7l.22-.14h-2.48zM668.33 248.57h-1.87v-.38h1.87zM756.76 368.29c.5-1.08.6-2.58 2.39-2.33l-.13-.13c.07 1.64-.85 2.28-2.36 2.33zM879.36 369.44l-1.36 1.09-.52-.53 1.17-1.26zM671.9 246.11c.25 2.31.25 2.31-2.33 2.33zM777.74 246.66a8.72 8.72 0 01-1.62-.07 8.4 8.4 0 01-1.45-.61c1.47-1.22 2.42-.82 3.11.63zM741.85 377.85l-.58 1.47c-1.5-1-1.5-1 0-2.07zM18.19 110.22c.15.61.07.31 0 0 .1.3.19.6 0 0z"/><ellipse cx="288.38" cy="88.21" rx="1.32" ry=".29"/><path d="M787.13 342.47c-.73.84-1.47 1.67-2.21 2.5l.14.18c-.16-2.19-.16-2.19 2.18-2.56zM946.75 335.44l-1.65-1.66c1.96-.73 2.32-.21 1.65 1.66zM356.58 289.73l-.71.51-.72-1.12c.32-.08.7-.29 1-.19s.28.52.43.8zM58.2 293.68c-1.12.82-1.6.59-1.78-.34 0-.14.09-.31.13-.47zM945.9 328.17l-.21 1.9h-.57L945 328zM181.52 2.22h-2l-.08-.67 2-.35-.04-.2v1.36zM1100.22 491.21l.47-.18.13.69a1.31 1.31 0 01-.5-.11c-.09-.06-.07-.26-.1-.4zM606.84 474.8c-1-.57-.79-1.31.07-2.17.14.59.28 1.18.41 1.77zM59.4 216.64c-.2.22-.38.59-.57.59a2.72 2.72 0 01-.95-.36c.18-.23.35-.63.52-.63a3.17 3.17 0 011 .4zM62 217.81l-.83.19a5.79 5.79 0 010-.93c0-.09.26-.14.41-.21.16.31.3.63.42.95zM327.65 218.52l-1.91-.36c1.17-.57 1.91-1.08 1.8.48zM604.72 461.64c-.11.52-.21 1-.48 2.35-.36-1.26-.52-1.81-.68-2.35l-.13.14h1.43zM64.46 218.75h1.82c-.85 1.18-1.3.77-1.67-.16zM73 220.4c-.18.07-.35.2-.52.18s-.3-.17-.46-.26a1.39 1.39 0 01.51-.19c.19.02.34.18.47.27zM137.09 447.73c.24.33.48.65.18.23v-.37zM82.05 223.27l-2.23-.27c1.21-1 1.88-1 2.27.24zM980.08 48c.8-2.09 1.57-.3 2.35 0l.08-.18h-2.53zM219.73 53c0 .47-.08.93-.15 1.4h-.37v-1.42zM1196.35 420.84c.35-.23.69-.47.23-.15.55-.08.12 0-.32 0zM113.86 413.82l.39.43a7.24 7.24 0 01-1 .41c-.08 0-.24-.27-.37-.42zM95.07 225.45h-2.45c1.32-1.17 2-1.1 2.31.16zM594.7 404.09a2.6 2.6 0 01-.61.12c-.05 0-.08-.21-.12-.32zM105.84 226.54h.3a1.72 1.72 0 01.11.46l-.57-.06zM209.14 396.19l-.29.46.07-1zM706.43 390.49c-.55.73-1.1 1.45-2.29.19l2.3-.13zM1278.67 90.54c-.15.08-.39.27-.44.23a2.37 2.37 0 01-.38-.54 1.56 1.56 0 01.52 0c.12.01.2.19.3.31zM1273.87 91.79a10.63 10.63 0 01-1 .46c-.05 0-.21-.29-.32-.45a5.63 5.63 0 01.94-.42c.1-.02.26.26.38.41zM743.82 376.34c.36-1.52 1.49-1 2.47-.94l-.13-.21-2.28 1.22zM739.74 374.77a7 7 0 011-.39c.09 0 .24.28.36.43a7.47 7.47 0 01-1 .38c-.1.02-.23-.27-.36-.42zM422.31 232.61l-1.21-.06.09.14v-2.5l-.13.15c1.35.23 1.3 1.23 1.24 2.24zM100.15 371.08c-.07-.13-.22-.32-.19-.38a1.85 1.85 0 01.44-.32 1.2 1.2 0 010 .45c.01.11-.15.17-.25.25zM302.43 231.69l.31.38a4.85 4.85 0 01-.78.34c-.09 0-.23-.2-.35-.32zM878 233.18c-.15 0-.37.14-.44.07s-.12-.31-.18-.48l.67-.13zM4.19 233.47c.11.06.3.12.3.19a2 2 0 01-.11.51c-.12-.06-.34-.12-.34-.18a2.55 2.55 0 01.15-.52zM456.7 354.7c-.08-.15-.27-.4-.22-.45a1.94 1.94 0 01.54-.38 1.46 1.46 0 010 .54c-.02.12-.19.2-.32.29zM779.78 349.34l-.35-.32c.35-.14.7-.29 1.06-.41 0 0 .13.23.2.36zM1015.13 236.05a1.8 1.8 0 01-.07-1l-.15.12 2.23-.1v.82H1015zM124.2 191.71c-.51-.32-1.43-.51-.37-1.45l.2 1.61zM894 318.38a1.86 1.86 0 01-.08-.51c0-.06.21-.11.32-.16a2 2 0 01.11.52c0 .06-.23.1-.35.15zM99.92 313c-.88.13-1.3-.19-1.07-1.41.37.65.63 1.11.9 1.57zM601.36 187.74l-.49-.18.53-.1-.04.28zM187.13 304.85c.07.92-.27 1.23-1.23.71l1.38-.55zM683.11 243.24l1.66.14v.56l-1.67.08zM678.09 246.91c-.84-.66-1.84-1.29 0-2.5.24.73.45 1.34.65 2zM89.55 301a5.91 5.91 0 01-.34-.88c0-.08.22-.22.34-.33l.26 1.15zM359 298.51c-.13 0-.35.13-.39.08a1.34 1.34 0 01-.18-.46l.6-.12zM72.33 297.82l-1.67-.44a4.65 4.65 0 01.86-.25c.11-.01.25.21.81.69zM127.65 181.06a5 5 0 010 1.16 3.89 3.89 0 01-.41.94c-.32-.31-.76-.57-.92-.95s.11-.74.18-1.11l-.13.09h1.39zM48.12 294.61l1.55.19c-.07.24-.07.44-.14.46-.74.28-1.41.39-1.3-.77zM310 150.84l1.5.18c-.08.26-.09.46-.17.5-.91.43-1.24 0-1.15-.87zM284.4 157.72h-2.46l.13.15v-1.3l-.11.12c.91.11 2.11-.32 2.34 1.16zM352.89 281.16a4.61 4.61 0 01.28.92c0 .08-.24.21-.37.31zM744.78 158.33c0 .42-.08.83-.13 1.25h-.33l.08-1.25zM2.07 270.65l.09 1.35h-.42v-1.4zM982.13 269.8c.13-1 .32-1.89 1.52-2.09l-.17-.12c.08 1 .22 2-.85 2.6zM438.85 267.49c.38.61.75 1.23 1.21 2-2.22-.07-1.08-1.31-1.05-2.12zM639 255.17h1.44a3.1 3.1 0 010 .36h-1.4zM493.59 262.94c-.11.59-.23 1.17-.41 2.11-.91-1.4-.86-2 .53-2zM434.55 256.25c.14.18.33.3.32.41s-.21.21-.32.32zM608.06 263.15l1 .17c-.73 1-.61-.08-.82-.34zM434.58 265.02l-.11-.34.3.04-.19.3zM1103.08 167.05l-.38-.13.24.23.14-.1zM979 267.67l.52-.61c0 .13 0 .33-.11.38a1.84 1.84 0 01-.53.1zM978.87 267.54l-1.18 1.06-.09.13 1.39-1.06z"/><path d="M977.69 268.6l-.34.3.25-.17zM349.31 270.94l-.33-.19.36-.49c.1.12.29.24.29.35s-.21.22-.32.33zM440.17 271.75l.32-.12-.04.31-.28-.19zM311.79 157.9l.35.44-.35.27zM284.29 157.82l.47.13-.36-.23zM350.59 275.27l-.29.1.04-.27.25.17zM351.86 278.82l-.38.16.04-.38.34.22zM972.49 279l-.34-.35c.12-.11.25-.31.36-.3s.22.21.34.33zM969.46 283.88l-.27.53.43-.38zM354.56 286.33l-.42-.19.3.31z"/><path d="M354.44 286.45l.81.24-.46.49-.23-.85zM500.67 288.61h-1.24l-.06.14h1.4zM661.48 249.35l.11.29-.29-.04.18-.25zM51.4 291.68l-.41.14.04-.37.37.23zM48.23 294.49l-.85-.12.36-.54.38.78zM67.53 296.06l.16.42-.41-.05.25-.37zM1068.34 295.85c.09.13.27.26.25.37s-.22.2-.34.29c-.09-.12-.27-.26-.25-.37s.22-.14.34-.29zM38.24 140.62l.11.28-.29-.03.18-.25zM125.38 185.91l-.18-.16.06.29.12-.13zM1064.26 299.25c0 .17-.07.34-.1.51l-.45-.45.51-.09zM93.68 300.31l-.32.89c-.9-.84.12-.62.43-.78zM892.94 300.71l.11.35-.3-.04.19-.31zM2.17 244.98l-.3.09.05-.29.25.2zM187.42 303.91l-1.31-1.27-.09.14 1.45.05-.24-.15V304zM294.84 302.66l-.53.86-.58-.85-.11.16H295zM361.12 303.03l.11.35-.34-.05.23-.3zM276.15 303.91l.57.56c-.15-.05-.38-.05-.43-.14a1.37 1.37 0 010-.54zM302 243.28l.31-.72c0 .11.05.27 0 .33a2.25 2.25 0 01-.43.27zM988.38 128.42l-.7-.33c.12 0 .31-.07.36 0a1.89 1.89 0 01.21.48zM805.32 309l.08.33-.28-.06.2-.27zM743.01 240.17l.43-.14-.05.38-.38-.24zM178.4 312.79l-.09-.37.32.07-.23.3zM956.75 313.25l-.8-.51.79-.66-.09-.08v1.36zM888.87 324.86l.18-.25-.33.09.15.16zM802.8 325.78l-.31-.36c.12-.1.25-.29.36-.28s.21.22.32.34z"/><path d="M888.72 324.7l-.2.63.35-.47zM891.76 325.73l-.11-.35.32.05-.21.3zM800.39 327.74l.3-.1-.06.3-.24-.2zM948.92 329.26l-.09-.29.29.05-.2.24zM953.14 332l-.72-.41c.62-.63.73-.2.76.37zM369.29 339.36l.11.41-.36-.07.25-.34zM948.56 338.93l-.18.2.3-.1-.12-.1zM1015.06 235.05c-.23-.19-.07.12-.15.12zM784.92 345l-.86.55c0-1.09.53-.63 1-.37zM790.49 344.66c0 .33-.1.66-.16 1l-.56-.34.88-.49zM1232.84 111.56l.4-.15-.03.37-.37-.22zM456.79 348.71l.11.33-.3-.04.19-.29zM784.8 351.8a1.49 1.49 0 01.21-.48c0-.06.23 0 .36 0l-.72.32zM784.65 351.66v.45l.14-.31zM770.54 356.31l1.18-.56-.75 1c-.14-.15-.28-.3-.43-.44z"/><path d="M769.65 357.82l.89-1.51c.15.14.29.29.43.43l-1.49.91zM778.63 357.42c0 .32.07.63.11.95-1-.36-.07-.55.07-.81zM775.23 359.87l-.14-.14zM422.34 232.58l.86.32-.54.54-.35-.83zM760.52 363.43l-.39-.09.25.12.14-.03zM1011.5 232c-.21.17-.35.38-.48.37s-.23-.24-.35-.37zM1007.32 231.99l.3-.11-.04.29-.26-.18zM359.28 367a3.27 3.27 0 01-.34-.74c0-.12.2-.29.31-.44l-.16-.07v1.36zM940 368.88c-.12.09-.25.27-.36.26s-.2-.21-.31-.32c.12-.1.25-.28.36-.27s.25.21.31.33zM355.52 371.34l-.1.17zM940 372.57l.07.6s0-.22.1-.47zM746.29 375.4l1.19-1.35-.15-.09-1.17 1.23zM21.24 93.25l-.37.3.28-.18zM1282.92 92.28l-.91-.37.56-.41.23.9zM16.09 200.62l-.12-.29.3.03-.18.26zM348.91 383.65l.1-.8c0 .1.13.24.1.29a2.65 2.65 0 01-.37.38zM420 230.35l.71-.94.35.93.13-.15h-1.29zM715.15 384.85l.14.33-.33-.02.19-.31zM875.75 228.55l-.35.28.06-.62zM718.81 387.3l.1.29-.28-.05.18-.24zM711.45 388.65l.42-.14-.05.38-.37-.24zM706.44 390.55l.37-.17-.38.11zM865.48 391.6l-.6.75c-.37-.91.09-.85.71-.61zM682 393.75l-.64-.37c.11 0 .27 0 .32.05a1.71 1.71 0 01.19.46zM941.34 392.8l.46.31-.3-.46z"/><path d="M681.82 393.89l.21.17-.08-.31-.13.14zM107.59 398.83l-.08-.51-.06.65zM864 399.26c-.11.09-.24.26-.34.26s-.2-.21-.29-.32c.11-.09.23-.27.34-.26s.18.21.29.32zM120.6 203.31l-.27.79c-.69-.69-.11-.66.38-.68zM671.37 402.29l.45-.6-.58.46zM854.69 204.77l-.52-1c1.23 0 .42.65.37 1.06zM655.85 402.83l.06.48-.06-.33v-.15zM967.08 80.77l-.24-.48.07.63zM1297.18 409.71l.3-.1-.03.27-.27-.17zM114.56 409.87v.16zM437.6 411.43l-.23.22.32-.18-.09-.04zM34.13 69l-.9-.58c1-.54.74.24.74.74zM1275 414.13v-.64l-.16.49zM845.34 414l.6.17-.44-.32zM1281.14 414.69l-.16-.39.39.03-.23.36zM964 56.69l.31-.14-.03.32-.28-.18zM844.36 417.26l.73-.65c.2 1-.31.77-.85.49zM140.53 54.92l-.44-.64c.13.07.35.12.38.23s0 .34-.07.52zM188.39 223.31l.93.83-.92.19.14.15v-1.32zM220.56 49.75l-.07-.32.27.06-.2.26zM823.37 431.35c-.86.08-1.16-.4-1.18-1.16h.08l1.2.06-.13-.13v1.24zM988.38 45.4l-.76-.3c.13 0 .32-.1.38 0a2 2 0 01.26.48zM819.89 432.4l.16.25-.13-.38-.03.13zM424.01 434.35l-.07-.32.27.06-.2.26zM964.79 433.62l-.43.61v-.38a1.47 1.47 0 01.52-.12zM818.18 436.43l.1.3-.29-.04.19-.26z"/><path d="M854.54 204.88l.47-.13h-.32zM813.45 440.42l-.11-.31.28.03-.17.28zM1025.47 219.69l-.14.32.3-.16-.16-.16zM137.27 447.59c-1-.16-.19-.83-.34-1.22l-.13-.19.29 1.55zM1026.67 218.41l-1.2 1.28.16.16 1.17-1.3zM598.77 451.25l.47.35-.33-.49zM1310.86 452.37c.42.39 1.15.77 0 1.19l.09.09v-1.38zM327.54 218.64l.92.35-.31.48c-.16-.32-.33-.63-.5-.95zM1040.62 33.61l.8-.3-.93.15z"/><path d="M1028.14 217.55c-.2.77-.6 1.21-1.47.86l.13.14.93-1.42zM994.11 462.81l.3.43-.14-.58zM140.55 31.5l-.55.5c.06-.14.07-.37.17-.41a1.41 1.41 0 01.54 0zM64.61 218.59l-.42-.37.27.53zM189.4 216l1-.75-.54 1.22zM405.88 213.84a6 6 0 01.37.87c0 .08-.26.22-.41.33l.17.12v-1.4zM229.6 19.61c.12.28.24.56.37.84l-.21-1zM673.93 479.06l.66.9-1.09-.46zM139.04 19.36l-.35.11.05-.32.3.21zM607.59 485.88l-.09-.3.28.05-.19.25zM1105.11 490.92c-.1.26-.21.53-.32.79l-.46-.51.89-.17zM148.64 35.1v-1.35H150v1.35zM751 376.3c-.35 1.41-1.61 1.09-2.56 1.35.34-1.44 1.56-1.14 2.56-1.35zM760.23 370.57c.38-1.1.95-1.52 2.37-.16h-2.5zM586 218.53c-.05 1.42-.66 1.52-2.15.41l2.25-.29z"/></svg>