<svg data-name="Layer 1" xmlns="http://www.w3.org/2000/svg" fill="#FF2B59" viewBox="0 0 1922.03 549.57"><path d="M198.41 80.15c-.56 1-1.45 1.95-.19 3s.26 2.06.15 3.1l-.42-.45.55.33c-1.38 2.79-3.18 5.12-2.54 8.88.49 2.85-1.38 6.1-1.57 9.21.23 4.65.65 9.31.61 14 0 4.42-.57 8.84-.89 13.42 5 2 10 1.41 14.9 1.2l-.1.11c2.3-.86 4.58-2.39 6.9-2.45 7.79-.21 15.27-2.34 22.93-3.23 13.61-1.57 27.16-3.6 40.83-4.73 6-.5 12.43 1 18-2.55l4.87 6.95c-.35 5.07-.26 10-1.61 14.92-1 3.79-1.07 7.9-1.17 11.88-.2 8-.09 16-.23 23.94a17.64 17.64 0 01-1 4.19c-.39 1.4-.85 2.77-1.3 4.22l-6.58 1.14.09.14c-1-1.05-2.12-2.19-3.54-.91-.35.31.22 1.63.37 2.49v-.13a46.42 46.42 0 00-15.28 2.86c-1.86.68-3.84 1-5.77 1.57L255 196.33a15.13 15.13 0 01-2.12.64c-4.22.53-8.89.05-12.53 1.76-4 1.86-8 2.4-12 3.48a15.67 15.67 0 00-6.27 4c-5.46.67-10.91 1.5-16.39 2a25.27 25.27 0 00-14.81 5.95c-.21 5.88-.34 12.43-4.61 18l2.66 3.91c-.14 3.08-1.56 6-.37 9.46 1.07 3.16.28 7 .29 10.45v10.37l1.85 1.65c-.49 3.56-1 7.5-1.62 11.88.75 1.11 1.71 2.51 2.45 3.59a7.94 7.94 0 001.17.41c5.16.56 9.4-3.05 14.41-3.17 2.56-2.68 6.5-1.7 11.26-3.92l-8-.7c7.9-3.9 12.86-4.8 21.62-4.07 1.48.13 3.33.54 4.41-.14 2.32-1.46 4.36-.4 6.55-.16 2 .21 4.05.55 5.53-1.37h-.09l4 .19c-.18-1-.29-1.68-.41-2.41 2.26-1.95 2.24 2.18 4 1.72 1.83-2.74 5.24-3 7.83-5.11 6 2 12.19 1.21 18.44.57 2.71-.28 5.58-.63 8.18-.07 7.13 1.52 14 .12 20.66-1.85 3-.88 5.26 1.1 8 .17 2.42-.83 5-.81 7 1.23 1.36 1.36 2.95.05 4.2.42 2.84.85 5.45 2.42 8.26 3.42 4.24 1.5 8.54 2.85 12.87 4.05.74.21 1.79-.68 2.7-1.06l-.14.13c3-1.9 5.92-.92 8.94.07s5.84 2.56 9.14 1.43l-.1.09c.09-.74.18-1.48.33-2.64 17.48 2.76 32.2 10.12 43.47 23.89l.18-.16c-2-1.31-4.54-2.24-6-4-2.5-3.09-5.43-4-9.08-3.47l-1.11-.36 1.22.24c.11.46.06 1.12.35 1.36 5.57 4.69 11 9.62 16.68 13.6l4-1.17-.18-.16 1.7 1.7h-.1c0 .5.05 1 .1 1.5l-1.34.75c.18.05.48.2.53.14a8.66 8.66 0 00.7-1c.68.34 1.57.51 2 1.05 1.82 2.4 4.5 2.94 7.16 3.56v-.07l-1.13 1.05 1.06.47v.07c.34 5.43 2.28 9.87 7.63 12.17l-.14-.12c.36 2.34.36 2.34 3 3.16a16 16 0 00.67 4 17.3 17.3 0 002.55 3.39l-2.8.2c-.56 2.7-.48 4.63 2.32 5.32.33-.54.8-.95.78-1.34-.06-1.45-.29-2.88-.46-4.32a27.81 27.81 0 011.49 4.15c.92 4.67 3.18 8.72 5.23 12.94 2.13 4.41 3.1 9.38 4.57 14.11a19 19 0 011.22 4.17c.1 1.36-.56 2.77-.57 4.15 0 1.18.16 2.54 1.77 2.85-1.92 1.83-.93 4.12-1.16 6.54l4.3.88.06-.12A12.19 12.19 0 00458 393l4.09 3.19a15.48 15.48 0 01.23 7.8c-1.54 8.06-2.36 16.25-3.55 24.38-.8 5.45-.86 5.44-3.58 9.69l1.76 4c-1.61 4.64-3.61 9.14-7.2 12.44v7.1l-2.19.64-.79-.93.93.81c-1.11 1.66-2.21 3.33-3.31 5l-4.26 1.5c-.88 5-1.75 9.82-2.58 14.47-5.05 4-5.05 4-12.13 3.91l-12.35 9.9c-.13.54-.46 2-.68 2.92l-7.07 7.82c-5 1.59-11 1.66-15.57 5.15l-4.67-1.12a8.27 8.27 0 00-2.06 1c-2.83 2.74-6 4.29-10.09 4a7 7 0 00-6 2.57 15.88 15.88 0 01-10.73 6.13c-2.66.29-3.75 2.26-5.78 3.87-4.38 0-9.23-.46-13.27 2.81a3.73 3.73 0 01-2.17.46h-18.42c-3.59.9-6.12 1.74-8.72 2.16-6.72 1.07-13.29 2.47-18.89 6.88-.69-.08-1.42-.2-2.16-.24-6.66-.32-13.33-.67-20-.91-2.18-.07-4-.53-4.83-2.78l-.06.06c1.47-.37 3-.67 2.82-2.93l-7.05-6.08c-.28-3.18-.51-5.63-.71-8.09a10.37 10.37 0 00-2.51-5.85c-1.82-2.36-2.17-5.86-3.15-8.87l1.43-1.75-4.14-3.62c-.34-2.69.34-5.82-1.87-8.2l.23-.41-.11.53a3.42 3.42 0 01-.5-4.21l1.06.3-.39-1-.26-4.78-3.66-3.34c-1.48-3.11.62-5.83 1-8.89l-4.64-3.79 4.72-3.48c3.78-.28 7.19-.71 10.61-.74 11-.1 22-.09 33-.06a81.69 81.69 0 019.65.35c8 1 15.37-1.63 22.56-4.11 7.73-2.67 15.61-5.38 22.39-10.28a3.51 3.51 0 011.29-.76c3.89-.61 6.34-3.35 9.35-5.54 5.53-4 10.38-9.39 17.56-10.88.65-.13 1-1.55 1.52-2.37 1.14-.86 2.59-1.51 3.35-2.63 3.25-4.74 7-9.32 9.22-14.54a98.57 98.57 0 005.71-20.07 17.89 17.89 0 00-2-11.55c-1.84-3.58-2.44-7.95-4-11.83-1.32-3.19-2-6.74-5.09-9a3.37 3.37 0 01-1.09-1.94c-.95-4.77-4.23-7.62-7.69-10.68-1.69-1.49-3-3.14-5.31-3.52a5.82 5.82 0 01-2.17-.53c-9.44-6-20.48-7.93-30.75-11.8-4.21-1.59-8.76-2.28-12.94-3.92a31.45 31.45 0 00-19-1.24l-3.64-2.22-2 2.15c-.49.06-1.23.2-2 .25-2.25.14-4.87-.44-6.68.52-4 2.11-7.24.87-10.26-1.15-6.08.46-10.82 4.36-16.6 4.7-5.49.33-11 .81-16.81 1.25l-1.51 2.05c-1.9-.36-4.07-1.49-5.74-1-4.4 1.37-8.93.35-13.26 1.29-8.36 1.81-16.1 5.45-23.94 8.73-1.53.63-2.73 2.06-4.12 3.15-.38 4.31-.24 8.5-1.83 12.62-1.4 3.62.11 10 1.95 13.5-.49 1.11-1.57 2.34-1.38 3.31 1.32 6.77-.33 13.48-.16 20.21 0 2 .35 4 .51 5.93.17 2.23.43 4.46.42 6.68 0 2.49-.47 5 .73 7.36a1.34 1.34 0 01.2.71c-.69 5.93.35 11.8.45 17.69 0 1.66-.08 3.33.06 5.05.71 8.2 1.72 16.43 1.56 24.62-.08 3.79-.51 7.32 1.32 10.23-.5 2.18-.88 3.87-1.27 5.57s-.27 3.92-1.31 5c-2.74 2.94-2.17 6.83-3.57 10.13s-1.6 6.84-2.86 10.08c-2.44 6.24-4.22 13-10.7 16.46-.11 3.22 1.59 6.88-3.33 7.94-2.17.46-2.83 2.62-3.43 4.55l.08.06c-2.51.51-4.57 2.63-7.48 1.91-.63-.16-1.56.89-2.34 1.41-1.16.76-2.31 1.55-3.46 2.33l-.8.84-2.52 1.06-1.1-.47 1.2.35-2.15 1.31a8.91 8.91 0 01-2.6-1c-2.94-2.36-5.63-2.38-8.93-.33-2.86 1.78-6.11 3.34-9.85 2.51-1-1.88-1.64-4.35-5.15-3.81l-2.9 3.63a4.21 4.21 0 01-1.47.25c-5.85-1.3-11.67-2.72-17.53-4-11.07-2.39-21.73-5.72-31.52-11.7-4-2.45-8.64-3.9-13.28-5.93-.58-1.05-1.3-2.35-2.12-3.81-4-2.34-8.11-4.61-13.1-4.71a5.73 5.73 0 01-3.48-1.18c-4.4-3.93-10.19-6.64-11.88-13-.92-3.46-3.45-5.36-6.28-6.64-.34-1.58-.61-2.79-1-4.55l-3.37-.42c-2.4-2.19-4.74-4.42-5.4-7.89a5.32 5.32 0 00-1.33-2.59c-1.85-1.93-2.27-4.32-2.89-6.79-1.4-5.54-2.36-11.26-5.38-16.54h3.63c1.29-3.93-1.49-7.18-1.77-11l-3.85-2.63c-1.31-3.2-2.1-6.24 1.31-9.3a9 9 0 002.86-8.19c-1.1-7.38 1.22-13.77 6.13-19.5l-1.74-2.57c3.05-1.38 5.47-3.37 6.59-6.67.15-.46.6-.82.75-1.28 3.65-10.72 11.07-18.78 18.77-26.63 3.63-3.7 7.43-7.23 11.23-10.77 1.67-1.55 3.13-3.08 3.58-5.49.5-2.64 2.11-4.16 4.94-4.91a10.64 10.64 0 007-6.15 11.38 11.38 0 007.66-6.2c2.27-.89 4.42-1.24 5.91-2.42 3.55-2.83 7-5.7 11.44-7.05a6.41 6.41 0 001.9-1.2q3.42-2.65 6.78-5.38c.56-.46.89-1.27 1.5-1.58 5.36-2.69 10.75-5.29 16.14-7.93.32.37.63.75.23.27l-.36-.12c3.8-5 9.93-6.55 14.71-9.62a26.64 26.64 0 002.55-15.35 90.08 90.08 0 01-.18-10.53c0-3 0-5.54-2.5-8.12-2.18-2.19-1.76-6.19-1.27-9.21a49.32 49.32 0 00-.36-15.62c-.73-4.88-.07-10-.09-15a34.57 34.57 0 00-.38-3.71A31.24 31.24 0 00109.8 218a54 54 0 01-10.49.55c-3.48-.09-7.06-1.34-10.39-.8a27.83 27.83 0 01-10.34-.23 17.94 17.94 0 00-4.5-.37c-9.32.47-18.53-1-27.79-1.6-4.4-.29-8.92-.49-12.91-3.23-4.62 5.6-10.24-.34-15 2-2.52-4.15-.56-7.68-.9-11.09a55.17 55.17 0 01.25-9.69c.26-3.4-.87-7.16 2.33-10-.52-1.63-1.81-3.47-1.45-4.89 2.11-8.32 1.78-16.87 2.79-25.28a48.35 48.35 0 011.38-5.7A17.71 17.71 0 0133 145.59c2.72.16 5.47-.39 8.2-.41a26.37 26.37 0 016.72.55 27.23 27.23 0 0011.94.35 21.21 21.21 0 0111.79.7c6.79 2.61 13.44.63 19.8-1.36a33.23 33.23 0 0114-1.62 30.39 30.39 0 0011.17-.56c4.28-1.11 8.82-1.22 13.91-1.85a38.92 38.92 0 01-2.18-14.89c.09-4.75-.11-9.5-.14-14.25 0-5-.07-10.06 0-15.08a21.72 21.72 0 00-.32-5.07c-.54-2.55-.06-5.3-.11-8 0-2.5-.52-5 1.4-7.16.41-7.09 4.42-13.15 5.73-19.94-.38-1.73-.84-3.42-1.09-5.13a8.31 8.31 0 01.44-2.43 12.09 12.09 0 012.7-.91c6.2-.64 12.18-2.31 18.24-3.66a20.45 20.45 0 018.86-.32 33.28 33.28 0 008.16.8 66.08 66.08 0 0119.84 2.46c1 2.57-1.86 2.45-2.71 4 .71 1.06 1.53 2.18 2.25 3.36.61 1 1.11 2 1.85 3.4l3.55-2.35c.4.93 1.09 1.8 1.07 2.64-.14 6-.4 12-.7 18-.06 1.3-.16 2.5 1.09 3.31zM92.4 392.31l-1.61 1.45c-2.83.56-5.09 3-4.91 5.05.38 4.4-3 5.17-5 6.72-3.09 8.16-6.5 15.74-8.8 23.63-1.91 6.54-2.21 13.32 3.59 18.78a45.38 45.38 0 014.63 5.87c3.37 1.46 6.09 2.6 8.79 3.8 4.27 1.91 8.49 3.92 12.8 5.75.85.36 2 .1 2.94.17 1.48.1 3.1-.1 4.38.46 1.13.51 1.88 1.9 2.74 2.84a44.61 44.61 0 016.45-2.47 41.24 41.24 0 016.36-.49l6.06-4.81c4.27-5.43 4.28-10.22 3.56-15.38a206.06 206.06 0 01-2-22.32c-.16-5.18-1.29-10.48.83-15.63a5.94 5.94 0 00-.09-4.39c-1.41-2.77-.85-5.6 0-8 2-5.52.43-10.76.07-16.34l-7-2.72c-8.3 4-16.93 8-25.42 12.28-2.38 1.2-4.85 2.66-5.93 5.45-.92-.92-1.76-.94-2.44.3zm299.32-34.52c.11-.15.33-.32.31-.45a6.07 6.07 0 00-.31-1l.13-.12v1.7zm-282.4-10.53l.11.12-.34.44zm25.22-53.77l1.62.13-.65-1.12-1.23-.29c.09.43.17.85.26 1.28zm186.24-26.13l-.27-.23.38.11 1.31.49zM409.85 311l-.1.11-1.07-.38zm-15.11 13.83l-.18-.26.29.15.63 1 .46-.68zm-9.39 19.93l2.21.7c.07-.22.13-.44.2-.66l-1.74-.81-2.94-1.61c-1.87-2.05-4.18-3.18-8.13-4.09 2.62 3.12 4.82 4.34 7.47 4.88zM277 172.28c-.78.45-2.46-.06-1.93 2.37l1.81-2.5c.45-.18 1.67.18.71-1zm87.62 161.54l-.23-.24.31.19.31.16zm21.6-29.3l-1.74-.2.86 1.08c.43.25.86.7 1.28.7 1.28 0 2.24-1.17 1.57-1.77-.33-.33-1.29.11-1.97.19zM285.65 170.3a8.53 8.53 0 00-5.16 3.46c3 .56 4.37-1.34 5.92-2.7.3-.37.91-.95.83-1.06-.68-1-1.15-.32-1.59.3zm83.55 145.29c-.79-.46-1.43-2-2.8-.15h2.94a12 12 0 0011.84 4.64l.46.34-.57-.22c-3.07-3.9-7.68-3.69-11.87-4.61zm10.64-6.25c-1.22-.93-2.39-2.08-5.33-1l4.56 2c5.08 2.76 9.84 6.22 16 7.75-.16-1.2 0-2.28-.36-2.44-4.79-2.46-9.36-5.53-14.87-6.31zm-65.47-14.44c1 .33 1.19-.08.91-.95 2.26-.32 4.36-.85 4.86-3.56-4.45-2.6-5.34-2.72-11.31-1.29 2.11 1.9 2.72 4.8 5.54 5.8zM33.67 194.71c.68 2.54 1.27 3.71 1.23 4.86a15 15 0 01-1.14 3.75 9 9 0 006.63-4.13c.35-.51.24-1.33.39-2.31zm95.91 67.39l.92-.15c.3-5.62.6-11.25.92-17.28l-2.49-.56v16.05a6.54 6.54 0 00.65 1.94zm45.57-197.29a15.31 15.31 0 001.48 8.81c.89-.52 1.94-.8 2-1.26a20.33 20.33 0 00.53-5.74c-.16-1.62-1.45-2.45-4.01-1.81zM68.72 499c3.08 2.45 5.63 4.77 10.31 3.39-3.24-2.58-5.77-4.96-10.31-3.39zm210.37-365.86c-3.63-.25-7.56-1.6-10.39 2.36 3.95.8 7.24-.5 10.39-2.36zm-77.83 57.93c-4.09-3.65-6.56-3.54-9.92 0 3.32 2.24 6.66-.5 9.92 0zm62.83 278.71l.25 1.56a50.58 50.58 0 0014.44-1 69 69 0 00-11.17-1 25 25 0 00-3.52.44zm1.2-285.65c-5.47-1-5.47-1-8.48.37 5.19 2.33 5.19 2.33 8.48-.37zm11.59-36.38c-3.48-1-5.6-1-7.64 1l2.81 3.07zm-84.5 32c2.8-1.53 4.9-2.53 7.05-5.41-2.2 0-3.57-.48-4.4 0-1.56.93-3.42 2.04-2.65 5.4zm53-16.37c-3.71-.59-6.34-1.05-9 .26 2.13 3.27 4.17 3.36 8.95-.27zm-111 112.54c-2 5.11-1 8.85.16 12.59.46-3.78 1.13-7.51-.21-12.6zm154.06-114.36l-4.32 3.95 7.06 1.27zM173.33 55.72c3.78-.16 3.78-.16 5.13-2.44-3.19.3-3.19.3-5.13 2.44zm180.54 242.52c-2.49-.3-4.38-3.65-7.87-1.5 2.61 1.69 5 2.56 7.87 1.5zm50.5 71.52c.78-.45 1.53-.9 2.39-1.41-.76-1.87-1.39-3.4-2.36-5.76-1.16 2.87-1.4 4.84-.03 7.17zM247.26 188.59c-1.33-1.22-2.14-1.09-2.73-.16-.15.24.2.79.32 1.2zm-23.48-56.25c-1.82.89-3.27-.26-4.6 2.19 1.65-.53 3.06.39 4.6-2.19zm68.59 338.45l-.16-.85-2.09.17-.06.56zM58.9 483.4a8.34 8.34 0 00-1.66-1.06c-.25-.09-.91.33-1 .65a1.29 1.29 0 001.54 1.63c.3-.09.52-.56 1.12-1.22zM402.27 309c.72.37 1.34.7 2 1 0 0 .4-.41.35-.52-.48-1.16-1.19-1.48-2.35-.48zm.09 62.08c-1.2 1.32-2.56 2.86 0 4.47zM125.56 163l-.28-1.39-3.12.59.13 1zm235.07 157a13.39 13.39 0 00-2-1.79c-.19-.1-.67.29-1 .53-.06 0 .08.54.22.58.63.21 1.25.32 2.78.68zm-220.56-1.79c-1.16-1.37-2-1.14-2.68-.29-.18.22.12.81.2 1.24zm8.28-2.37l-.32-1.22c-.37.15-1.06.3-1.06.47a4.9 4.9 0 00.38 1.48zm35.38 189l-1.21-.94c-.27.38-.76.76-.77 1.14s.48.77.75 1.15zm72.69-317.3l-.5.35a4.17 4.17 0 00.86.55c.11 0 .33-.21.5-.33zm-17 2.08c-.09-.18-.2-.51-.27-.51a11.57 11.57 0 00-1.3.28c.09.18.2.52.28.51a11.9 11.9 0 001.29-.23zM380.88 301h-1.4a3.17 3.17 0 000 .49h1.38c-.02.04-.01-.26.02-.49zM193.07 60.91a9 9 0 00-1.15-.69c-.07 0-.46.38-.43.43.19.33.41.76.72.87s.55-.38.86-.61zm-45.23 282.42c0 .19 0 .47.14.55a2.12 2.12 0 00.69.13l-.18-.91zm61.21-138.25l.51-.33c-.14-.14-.36-.43-.4-.41a4.14 4.14 0 00-.65.54zM139.5 63c-.25-.3-.49-.61-.73-.91-.25.31-.7.61-.7.91s.43.65.67 1c.26-.35.5-.68.76-1zm51.67 283.65l-.42-.29-.09.42zm61.75-161.4l.05-.42-.5.16zM460.31 397.3c.17-.1.44-.16.5-.3s0-.43-.06-.64l-.81.42zm-56.72 2.7l-.56-1c-.17.13-.48.26-.48.39a4.63 4.63 0 00.2 1.1zm-155.1-236.1c-.14-.17-.33-.51-.41-.48a6.67 6.67 0 00-1.09.5c.14.17.32.51.4.48a6.77 6.77 0 001.1-.54zM123.05 302.69a1.66 1.66 0 00-.58-.17c-.07 0-.13.3-.19.46a1.56 1.56 0 00.58.15c.07 0 .14-.29.19-.44zm240.81-1.24a1.62 1.62 0 00.56.19c.08 0 .14-.3.2-.47a1.54 1.54 0 00-.56-.16c-.06-.01-.14.29-.2.44zM123.29 144.71l.57-.43c-.17-.16-.45-.48-.5-.45a5 5 0 00-.73.66zm-40.18 365c-.14-.16-.32-.47-.41-.45a7 7 0 00-1.07.43 6.23 6.23 0 001.07.45c.09.01.3-.29.41-.44zM315.5 286.05a1.84 1.84 0 00-.6-.2c-.09 0-.15.32-.22.49a1.44 1.44 0 00.61.19c.08 0 .14-.31.21-.48zm.67-19.85l-.51.3a3.37 3.37 0 00.3.41 8.9 8.9 0 00.76-.49zM276.6 464.68l.55-.24c-.15-.13-.28-.35-.44-.37s-.36.13-.55.21zm-64.2-260.07l.43.27v-.45zm184.91 132.94l-.42-.28-.06.45zM459 384l-.23.35h.37zm-66.13 23l-.43-.28-.05.45zm52.58 2.58l-.45.42c.14.15.28.42.42.42s.31-.24.46-.38zm-79.64 38.21c-.13-.16-.25-.42-.39-.44s-.31.22-.46.35c.12.15.24.42.38.43s.28-.19.44-.31zm-18.51 1l-.45.39c.13.15.26.41.4.42s.3-.23.45-.36zm-339.49 8l-.43-.49c-.16.14-.44.28-.45.43s.25.33.4.49zm236.59 21.35l.25-.33-.36-.06zM172 66.82l-.47.37c.13.16.24.42.38.44s.31-.22.47-.35zm4.89-8.57l-.43-.29-.06.46zM612.73 453.58l2.51-3.36c-2.58 6.32-3.53 13.39-8.59 18.67.46 1.54.94 3.13 1.58 5.25l-3.61.2c3.2 8-1.64 14.28-4.43 21a2.22 2.22 0 00-.65.17c-.09.07-.07.32-.1.48l.62-.77c.47 4.59-1 8.84-2.4 13.07a194.81 194.81 0 00-6.1 24.61c-.74 4.15-1.49 8.39-4.06 11.94-.35.49-1.2.62-1.81.91.15-.57.3-1.14.46-1.71l-1.78.41-2.49 2.17h.07l-8.43-3.88 3.06-1.62.06-1.64-1.12.62-2.94 1.56c-4.19-1-7.74-3.75-12.24-4.19-1.91-.19-3.63-2.2-5.9-3.68L549.3 536l-4.64-1.86-1.11-.61c0 .56.06 1.11.08 1.66-2.89 1.69-5.53-.1-7.82-1.15-6-2.74-12.32-4-18.58-5.55a14 14 0 01-7.38-4.35l2.86-2.41c-1.31-2.8-2.57-5.51-5-7.85-2-2-2.9-5.06-4.54-8.13a28.29 28.29 0 016.72-12.4c2.3-2.37 3.67-6 4.57-9.24.66-2.39 1.41-4.69 2.19-7a20 20 0 00.77-8.11 17.37 17.37 0 012-10.18 40.75 40.75 0 004.52-16.38 10.32 10.32 0 011.07-3.56 231.82 231.82 0 0014.38-38.53 50.24 50.24 0 012.34-5.47c.56-1.35 1-2.72 1.6-4.15l-2.76-1.77c2.75-4.57 5.42-9.18 6.67-14.48.68-2.9 1.66-5.73 2.54-8.58 1-3.09 1.44-6.47 3-9.2 5.52-9.52 9.48-19.88 15.84-28.93.42-.6.94-1.14 1.41-1.7.07 1.24.15 2.49.26 4.36l2.35-1.94-2.77-2.28c-.2-5.72 1.6-10.51 5.15-15.18s5.68-10 8.45-15a13.07 13.07 0 012.57-3.62c-1.65 4.16-4 8.12-2.48 12.8a2.21 2.21 0 00-.65.15c-.1.07-.08.32-.12.48.22-.25.43-.5.64-.76l2.43 1.1c2.21-2.57 3.43-5.81 5.11-8.75 2.57-4.51 4-9.66 7.69-13.54l.33.39-.45-.28c3.15-7.4 6.31-14.8 9.69-22.71h-5l5.67-5.66c.77.85 1.39 1.06 1.68-.36l.42-.27-.27.28a6 6 0 00-1.25-.38 16.39 16.39 0 011.92-9.43c4.14-8 7.52-16.34 12.76-23.75.93-1.31 1-3.25 1.53-5.27l5-1.35c-.59-1.22-1.09-2.25-1.58-3.29l1.26-1.8-.12-.15.53 1.12 1.16-1.12-.21.12h1.75l-.14-.05c-.08.93-.17 1.85-.26 2.77-.36.51-.74 1-1 1.53 0 .05.3.32.46.49l1.34-1.39c2.25-2.76 4.77-5.41 4.06-9.44v.05c2.72-1.18 3.25-3.46 3.06-6.1 3.12-.9 3-3.51 3.14-6l-.14.16c1.44-1.95 3-3.82 4.24-5.87.38-.63 0-1.75-.11-3.25 2-3.92 4.47-8.45 6.75-13 .27-.55-.15-1.43-.25-2.16l-.15.11 1.51-1.52.12.13-1.65-.28.14.05c.7-2.92 1-6 2.2-8.71 2.93-6.37 6.26-12.56 9.55-18.76 2.92-5.52 6.14-10.9 9-16.46 2.62-5.11 5.42-10.16 6.6-15.92.36-1.75.13-4.25 2.79-4.85l-.05-.1c.05 1 .1 1.93.15 2.83 2 1 3-.58 3.84-1.51a35.51 35.51 0 008.48-16.22c3.57-4.49 5.5-9.85 7.84-15 .22-.47-.31-1.27-.52-2l-1.94.32c-1.88 4-3.71 7.77-5.36 11.59a24.17 24.17 0 00-1 4.29l-3.9 1.88.16.15c-.44-3.68 1.07-6.84 2.72-10 3.53-6.63 6.91-13.34 10.71-19.81 1.31-2.22 2.4-5.11 6-5.81-.3 1.68-.58 3.21-1 5.28 1.74-.14 3.11.11 4.11-.38 3.51-1.73 6.74-.93 10.17.31 3.76 1.36 7.87 1.83 11.53 3.39a213.44 213.44 0 0119.5 9.44 7.84 7.84 0 013.94 6.6c5.53 1 10.69 1.63 15.5 4 1.76.87 4.32.14 6.61.14 2.79 4.42 9.48 5.06 10 12a6.58 6.58 0 00-1 2c-.9 5-3.39 9.15-6.57 13s-6.25 7.82-9.36 11.75c-2.34 2.94-4.6 5.94-7 8.84-2.21 2.68-4.54 5.26-6.63 7.65.34 1.76.57 3 .87 4.52a12 12 0 01-2 2.84c-5.82 4.59-9.15 11.21-13.7 16.81-2.48 3.07-2.92 7.35-5.44 10.67-3 4-5.23 8.53-7.83 12.82-4.81 8-8.29 16.53-11.59 25.18a7.16 7.16 0 01-.85 2.08c-5.73 6.84-8.57 15.28-12.4 23.11-4.63 9.45-8.33 19.35-12.36 29.08-.75 1.82-1.19 3.77-1.67 5.33 1.3 2.09 2.56 2.05 4.09 1.14a4.92 4.92 0 002.91-4.62l5.15 2.14 4.15-2.36c5.36-3.11 10.38-6.71 16.8-7.82 5.91-1 11.61-3.17 17.69-3.35a17.76 17.76 0 003-.17c7.15-1.47 13.81.49 20.35 3 1.78.69 3.31 2.07 5.42 3.44l5.25-1c3.19 1.59 7 3.37 10.73 5.39 1.74.95 3.09 2.6 4.83 3.51 8.21 4.28 12.27 11.64 14.42 20.08 1.07 4.21 3.33 8.5 1.46 13.12 2.41 5.34-1.34 11.41 2 16.64.31 5.47.54 11 1 16.41.27 3.47.88 6.9 1.29 10.35.26 2.24.53 4.49.65 6.73.42 8 .69 16.06 1.22 24.08.18 2.7-.17 5.59 1.62 8a2.77 2.77 0 01.51 1.39c.32 4.74.84 9.48.84 14.23 0 12.82 1.83 25.39 4.39 37.92.57 2.81 1.37 5.11 3.5 7.17 1.07 1 1.2 3 1.62 4.23 3.62 1.73 7 3.37 10.35 4.92 4.3 1.95 8.56 4 13 5.64 1.78.66 3.93.34 5.69.45l3.19-3 7.9 2.76c3.12-.87 6.56-1.62 9.84-2.8a41 41 0 009.52-4.37c2.81-1.95 5-4.86 7.4-7.34 3-3 6-6 8-9.88a11.4 11.4 0 013.14-4.19c4.81-3.37 6.78-8.67 9.29-13.49 2.34-4.5 4.83-8.71 8.62-12.12.92-.82 2.08-1.94 2.17-3 .36-4.15 3.16-6.55 5.7-9.33s4.61-5.85 5.06-9.83c.15-1.29 1.38-2.45 2.55-4.41-.08-2.59-.36-6 1.78-9.2.86-1.27.54-3.31.9-5 .73-3.33 2.34-6.28 3.83-9.32s1.81-6.83 3.43-9.87c2.54-4.77 5.73-9.2 8.9-14.15 1.38.7 2.85 1.11 3.86 2 7.83 7 15.52 14.21 23.36 21.23 6.74 6 13.5 12 20.47 17.79 3.27 2.7 7 4.81 10.59 7.15 1.2.78 1.24.73 3.3 4.22l-4.16 4.06 1.69 3.57c-.58 1.69-1.21 3.54-1.8 5.29l1.67 3.41a5.18 5.18 0 01-.65 1.47c-5 5.34-7.92 12.09-12 18.08-.56.84-1 1.76-1.6 2.55-3.19 4.21-6.71 8.19-9.54 12.62a104.57 104.57 0 00-6.89 13.3c-1.32 2.92-2.43 5.87-4.53 8.4s-3.84 5.24-6 8.21c-1.37.36-3.29.41-4.58 1.33s-2.07 2.76-3.07 4.19l.13-.15c-.53.47-1.42.88-1.54 1.44-1 5-6.5 6.79-8.16 11.33a2.57 2.57 0 01-1.8 1.18c-2.46.39-3.75 2.23-5.38 3.78s-3.86 2.86-6.71 4.91c-.35 1.87-2.43 3.79-4.67 5.89-3 2.83-5.17 6.53-8.14 10.43h-5.24c-1.9 1.83-4.61 4.35-7.21 7-1.95 2-3.74 4.12-6.89 3.92v.08h-1.74a42 42 0 01-4.87 2.58 41.48 41.48 0 01-5.76 1.57 23.24 23.24 0 00-11.22 5.79c-2.79 2.64-6.27 4-10 5.08a117.2 117.2 0 01-31.89 4.25c-6.64 0-13.29-1.2-19.92-2.51h11l.26-.91a23.64 23.64 0 00-2.09-1.16c-2.71-1.16-6.08-.64-8.2-3.28-5.87-.39-10.81-3.4-16-5.62a40.86 40.86 0 00-6.43-1.61l-2.86 2.19c.28.48.44 1.11.73 1.17 3.87.78 8.15.53 10.65 4.53-8.94-.41-17.28-3.63-26.81-6L786 521h-.09l7.77 2.49c1.4-1.29.69-2.44-.46-3-2.94-1.35-5.93-3.1-9-3.44a14.86 14.86 0 01-8.64-4.16 13.33 13.33 0 00-3.27-6.26c-1.57-1.67-2.81-3.18-4.56-3.36-1.78-3.09-3.51-5.75-4.9-8.57-2-4.19-4.87-8-6.63-12.27-2-4.81-2.88-10.07-4.19-15.16a9.36 9.36 0 01-.48-3.71c1-6.15-.57-12.28 0-18.44.23-2.46-.35-5-.46-7.49-.16-3.48-.22-7-.34-10.45-.05-1.21-.15-2.42-.25-3.63a44.91 44.91 0 01-.42-6c.32-5.42 1.74-10.85-.42-16.21 1.17-4.47 0-8.86-.36-13.29-.24-2.91-.73-5.93 1.24-8.63.51-.69.41-1.89.4-2.85 0-.73-.57-1.52-.43-2.19 1.65-7.78-.87-15.1-2.37-22.54l.63.22h.66c.28.75.6 1.36 1.4.45l-1.06-.76-1.77-1.5.06.05a3.1 3.1 0 00.08-1.45c2.74-2 .9-3.78 0-6l-4.61 1.47c-1.25-2.83-1.62-6-4.35-8.35-4.32-3.74-9.29-4.69-14.52-5.12a85.22 85.22 0 00-11.3-.14c-3.46.18-7.11.21-10.29 1.37-4.91 1.8-10.26 3.15-13.76 7.62l.05.13c-2.84-2.81-3-2.81-4.73 0l.06-.15-1.5.16.11-.11c-1.52 2-2.81 4.18-4.62 5.83a67.89 67.89 0 00-12.82 15.55 8.07 8.07 0 01-1.71 2.42c-9 6.84-14 16.72-20 25.92-1.88 2.89-3.85 5.73-6.47 9.61-.4 1.06-.86 3.64-2.24 5.56A34.54 34.54 0 00629.5 418c-1.06 5-3.88 9.75-6.78 14-1.26 1.88-1.56 4.06-2.94 5.74l.14.14c.05-1.23.11-2.46.15-3.51-1.35-1.3-2.75-1.19-3.24.13-2.16 5.86-4.68 11.63-5.19 18-.64 1.37-.32 1.81 1.09 1.08zm-83.59 59.74l-.13.13zM944.36 465l.27-.16-.15.29a1.88 1.88 0 00-.63.15c-.1.06-.08.31-.11.47zm-374.21-84.19l.41-1.05-1.11.36-.18 1.46zm91.76-23.06l1.6-1.51.39-.38-.27.5-1.58 1.51-.19.5zm-81.46-22.55l.27-.54-.15.67-.38.15zM650 204l-.45.42.32-.54.24-.54c-.02.22-.05.44-.11.66zm-15.18 31.73l-.28-.41.41.28.32.45zm169.23 48.07l.12.38-.24-.27-.22-.24zm-4.55 7.61a1.88 1.88 0 00.15.63c.06.1.31.08.47.11l-.75-.62a4.6 4.6 0 00-.12-1.3c-.07-.2-.53-.24-.82-.35 0 .21 0 .49.11.63a10.22 10.22 0 00.96.9zM609.7 443c.91-.67 1.29-1.45.28-2.28a10.47 10.47 0 00-1.35 1.23c-.63 1.38-.22 1.67 1.07 1.05zm378.47-2.12c1.4-.56 1.66-1.68 1.46-3l.38-.16-.26.28c-1.4.56-1.66 1.68-1.46 3l-.39.16zm-409.25-33.22a8.18 8.18 0 001-.9c.12-.14.08-.42.11-.64-.28.11-.75.16-.82.35a4.78 4.78 0 00-.12 1.32 2 2 0 00-.66.18c-.09.07-.07.32-.1.49zm50.85-189.21c-.24.78-.48 1.56-1.25 4l2.36-2.92c.14-.53.28-1 .43-1.58zM587.93 317l-.34 1.38.56-1.17c.7-.2 1.55-.34.55-1.28-.25.4-.51.75-.77 1.07zm-16.43 22.87l-2.26 2.34c-1.51 2.32-3.32 4.53-3.57 8.17 4-1.38 4.2-4.34 4.9-7 .26-1.22.53-2.43.79-3.65l1.2-1.1-.49-.4zm390.15 39.83c1.58-1.19 2.1-2.47.37-3.95-1.62.29-1.6 1.51-1.66 2.69l-.33 1.62zm39.76 9.52l-3.07 3.49c3.08.53 3.71-.8 4-2.54 0-.54.06-1.07.08-1.61zm-5.34 11.24c1.72-1.07 3-2.31 2.17-4.69-2.33.88-2.41 2.64-2.54 4.38l-.79 1.37zM798 458.93c1.2-.12 2.48-.13 2.81-2.26l-3-2.75.27 5.11zM662.27 157.35a8.24 8.24 0 002.64-6.25c-2.84 1.4-3.27 3.37-3.34 5.55-.06.5-.13 1-.19 1.5zm48.12-39.44c-1.88 1.45-1.89 3.25-.92 5.6l2.73-1.37c-.75-1.68-1.34-3-1.93-4.36l.38-.16zm58.37 379.34c.53 1.2.56 2.91 3.22 2.44l-2.11-3.45-3.8-6.62c.19 2.91-.15 5.95 2.69 7.63zm-209.39-139.2c-3.26 3.28-3.23 3.3-3.38 8 2.74-2.38 3.78-4.9 3.25-8.1zm303.86 133.83l-1.16-.25.22 1.22c1.2 2.67 3.22 3.28 6 2.54-1.93-2.46-1.93-2.46-5.06-3.51zm-102.54-22.79c-1.48-.74-1.63-.19-1.05 1.08-.42 4.59.66 9 1.9 13.31.35 1.22 1.13 2.27 3.13 1-2.31-4.64-2.64-9.8-3.52-14.86-.03-.16-.3-.34-.46-.53zM871.47 531c-4.42-.27-8.37 1.35-13.17 2.71 7.92 3.21 7.92 3.21 14-1.83l2-.86-.33-.81zM601.68 288.54c-.95.77-2.31 1.35-2.79 2.35-2.38 4.9-4.19 10.07-7.34 14.61a3.31 3.31 0 00.74 4.76 12.31 12.31 0 002-2.38c2.09-4.52 4.17-9.05 6-13.67a33.45 33.45 0 001.23-5.79c1.18-.19 1.87-.6.65-2.08-.17.89-.33 1.54-.49 2.2zm11.37-17.26l-1.28-2.4c-2.74 4.44-4.93 7.93-7 11.48a18.11 18.11 0 00-1.08 2.8c.63.5 1.18 1 1.78 1.37.77.52 1.57 1 2.48 1.52 2.92-2.45 5.4-4.56 5-8.7-.14-1.58.9-3.27 1.41-4.91 3.07-2.85 5.1-6.16 4.6-10.56 1.63-2.18 3.85-4.13 4.79-6.57 2.22-5.77 3.83-11.77 5.69-17.68.83-1.43 2.17-2.82 0-5l-1.3 3.92c-4.32 5.23-6.18 11.65-8.58 17.81-.8 2-1.31 4.18-1.95 6.28-3.51 2.71-3.39 6.95-4.56 10.64zM543.79 470.8c-3.91 7.36-6.91 15.93-7.57 21.82l2.83.72 5-9 .58-12.87c1.37-1.6 3.67-2.46 4.27-4.76-2-1.9-3.51-1.17-4.46.45-.55 1.03-.44 2.43-.65 3.64zm218-378.47c1.52.54 1.75 1.58 1.18 3-.5 1.25-2.1 2.39-.27 4.07 3-.15 4.83-1.76 5.65-5.38l-8.6-7.86a41.73 41.73 0 00-6.17.09c-1 .15-1.83 1.23-2.91 2a18.22 18.22 0 012.9 3.37l-.18 1.24 1.23-.24c2.56 2 5 2.17 7.29-.42zm-46.28 15.47a78 78 0 015.19-6.24c3.8-3.73 4.41-8 2.54-12.59 1.5-2.64 4.07-4.85 1.58-8.57l-5.24 7.09c.3-2.38.66-4.76.87-7.14a15.86 15.86 0 00-.68-3.32c-4.56 5.58-7.78 10.49-7.53 17a11.05 11.05 0 003-3.62 4.61 4.61 0 014.08-2.74 42.87 42.87 0 01-3.91 13.39c-.84 1.66-.78 3.77-1.13 5.68l-4.57 3.31c1.93 2.44 3 2.91 4 1.65a16.94 16.94 0 001.8-3.9zM583.43 489.38c-.11-1-.21-1.92-.4-3.56-1.39 2.12-.43 2.79.52 3.47l-4.19 3.71c-1.7 4.56.46 9.63-3.26 13.68 1.12 1.78 2.24 3.66 3.47 5.47.23.34.88.39 1.68.72l4.18-3.33c-1.34-1.88-2.54-3.54-3.84-5.35.68-1.21 1.1-2.92 2.19-3.7 2-1.43-.6-3.38 1-4.73 2.94-2.53 2.53-5.63 1.19-9zm53.63-260.65c4.25-2.23 5.71-6.31 7.48-10.09 1.52-3.23 3.62-6.37 3.58-10.71-1.19.63-2.14.8-2.36 1.29-2.76 6.53-6.67 12.59-8.7 19.51zm299.08 250.62c0 3 0 3 3 3.29.81-1.65 1.65-3.37 2.45-5-2.65-3.31-5.24-2.95-7.92-1.45-.6 2.47 1.1 2.68 2.47 3.16zM830.72 492c-.45-3.86-3.1-5.22-5.46-6.71-.53-.33-1.49 0-2.62.07 1.47 4.2 4 5.94 8.08 6.64zm-25.28-16.49l-7-9.75c-.02 6.02 1.79 8.5 7 9.77zm-26.75-162.67a25.69 25.69 0 01.27 3.71c-.1 1.12-1.33 2.21 0 3.31 3.31-2.79 3.31-2.79 2.8-7.39zm-199.13 62.43c-4.6 1.87-4.71 2.09-4.47 8 2.24-2.01 2.96-4.44 4.47-8zm239.62 147.67c-.43-2-1.72-2.28-3.27-1.4a1.91 1.91 0 00-.3 1.84c1.28 1.39 2.53 1.03 3.57-.44zm-247 15.69c-1.59-2.46-3.07-3.28-5.34-2.23.83 2.8 2.53 3.03 5.35 2.23zm198.89-48.5c1.75 2.56 1.75 2.56 5.37 1.61-1.29-1.64-2.44-2.99-5.36-1.61zM637.43 305.7l1.59 1.07a22.4 22.4 0 001.53-2.69 10.84 10.84 0 00-1.61-1zm216.86 184.67a7.74 7.74 0 002 .56c.84 0 2.05.31 2.06-1.2-3.04-2.42-3.04-2.42-4.06.64zm-38.56-13.16c.8-2.66-.34-3-3.28-3.16 1.61 1.54 2.36 2.27 3.28 3.16zM581 329.77c1.08 1.19 2 1.34 2.63.24s1.09-2.33-1.15-3.09c-.48.98-1.04 1.97-1.48 2.85zm218.15 173.9c.58.7.07 2.71 2 2 .45-1.49-.03-2.29-2.02-2zm-13.37-148.62l1.7.18.28-2.52c-.45 0-1.23-.19-1.3 0a16 16 0 00-.68 2.34zM582.7 526.23c.68-.89 1.34-1.4 1.42-2s-.63-1-1-1.49c-.47.47-1.2.89-1.33 1.44s.47 1.12.91 2.05zM727.62 86.4l.6-3.39h-1.09c.08.56.16 1.13.49 3.39zm224.3 306.45a6.86 6.86 0 00-1.08-.28c-.06 0-.3.51-.22.64a5.59 5.59 0 00.84.92c.15-.43.31-.85.46-1.28zm-149.1 115.58l.24.63a8.06 8.06 0 001.05-.55s-.13-.36-.21-.56zm18.84-26.35l-.34-.63c-.34.26-.69.52-1 .81a4.31 4.31 0 00.37.52zm-249.07-106.5c-.4-.51-.71-1.13-.9-1.1a7.94 7.94 0 00-1.74.73c.35.46.69 1.31 1 1.31.57.01 1.05-.59 1.64-.94zm48-133c-.42.21-1 .33-1.21.68-.14.2.21.75.34 1.14.43-.15 1.12-.21 1.23-.49s-.19-.84-.33-1.29zm248.6 273.07a8.28 8.28 0 00-1.22-.47c-.07 0-.39.45-.34.55a6.43 6.43 0 00.77 1zm-296.07 17.7l-.8-1c-.16.14-.48.37-.46.41a12.18 12.18 0 00.73 1zm118.36-383.52c-.42-.15-.88-.49-1.25-.41s-.59.6-.88.93a5.69 5.69 0 001.53.61c.12.04.4-.73.6-1.13zm77.88-60.12l-.5.22.49.22zm15.5-3.37a5.82 5.82 0 00-.35 1.07c0 .12.31.29.48.44l.74-.94zM585.49 323.93c-.15-.18-.37-.55-.46-.53a8.85 8.85 0 00-1.15.58c.14.21.36.6.41.58a10.53 10.53 0 001.2-.63zM802.57 466.1v-.45l-.51.18zM600.91 313.21a7 7 0 00-.52 1c0 .09.27.29.41.44a6.28 6.28 0 00.53-1c.03-.09-.27-.29-.42-.44zm101.48-183.4l-.34-.51c-.14.15-.43.38-.4.43a3.6 3.6 0 00.54.64zM600.67 299.69l-.24.54.87.12c0-.19 0-.44-.12-.57s-.33-.07-.51-.09zm115.66-4.11v-.66h-2.12v.66zm73.77 215.48l.44.3.08-.44zm-244 19.68c.12.2.29.57.37.55a9.06 9.06 0 001.2-.43c-.14-.18-.3-.53-.41-.51a6.09 6.09 0 00-1.12.39zM849.55 537l-.94-.29.14.52zm-43.22-248.87l-.33.48.51.08zm-200-.39c-.1-.19-.15-.47-.3-.53s-.42 0-.64.08l.42.84zM550 460.22l-.43-.57c-.16.17-.5.45-.46.5a4.6 4.6 0 00.66.74c.11-.22.23-.44.23-.67zm138.7-307.41c-.32.17-.89.29-.93.51s.26.71.41 1.08c.32-.19.83-.31.91-.57s-.24-.67-.39-1.02zm-109.21 388.6l-.23.59.54.2a1.54 1.54 0 00.18-.59c.02-.08-.32-.13-.49-.2zm75.3-344.28l-.49-.33-.07.52zm-29.37 63.43l-.45-.29-.05.48zm-23 35.79l-.27.45h.46zm-11.7 17l-.44-.48c-.16.15-.44.29-.45.44s.26.32.41.48zm120.48 11.78l-.28.42.45.06zm-57.06-125l-.44-.28v.47zm-65.32 154.32l.23-.34-.37-.05zm166.08 12.12l.27-.43h-.45zm-84.58-185.65l.28-.45-.47-.05zm-10.56-20.54l-.49.39c.14.16.25.43.4.45s.33-.23.49-.36zm7.24-13.22l.32.24.06-.36zM807.68 467.6l.25-.35-.37-.06zm-203.8 12.24l.29-.45-.47-.05zm-10.56 9.84l-.29.45.47.06zm-1.5 4.49l-.28.46.47.05zm4.83 9.57l-.33-.24-.06.36zm275.73-.15l.43.29.06-.45z"/><path d="M1044.06 515.09L1037 507c-.54 1-1 1.88-1.55 3-1.2-1.28-2.31-2.5-3.46-3.67a8.92 8.92 0 00-5.16-2.49 25.66 25.66 0 01-13.7-7.33c2.85-4 5.31-8 8.31-11.48 3.75-4.4 7.49-8.67 8.69-14.57.38-1.86 2.76-3.1 1.79-5.43l.38-.11-.27.23-2-1.69 6.54-11.88-.11-.13-1.34 7.45c4-3.3 4-3.33 4.46-7.44l-.07.09c4.29-2.34 4.61-7.38 7.67-10.71-.21-3.16-1-6.43 1.49-9.05.14.15.29.3.43.46l-.56-.34c.64-3.69 1.76-6.86 5.34-9.06 1.58-1 3.14-3.8 2.87-5.5-.46-3 1.57-4.42 2.47-6.53l-.09.11c2.8-1.57 1.85-3.65.51-6.07 3.34-6.81 7.25-13.58 10-20.79 2.73-7 6.34-13.56 9.26-20.45 3-7.12 6.91-13.86 10.42-20.77l-.05.05c1-.58 1.15-1.15 0-1.72v.06a15.24 15.24 0 001.84-2.37c2.59-5.12 5.52-10.13 7.53-15.47 1.84-4.89 4-9.6 5.84-14.5.59-1.64.9-3.54 1.94-4.83 3.46-4.28 4-9.41 4.89-14.5a53.32 53.32 0 014.14-12.6 57.94 57.94 0 004.39-14.13c.57-3.18 1.1-6.21 3.21-9 2.29-3 1.78-6.58-.4-10.16-2.38-.95-4.8-3-8.59-2a23.73 23.73 0 01-3 2.57 8.6 8.6 0 01-3.39 1.16c-4.92.64-9.84 1.22-14.78 1.65-1.58.14-3.59.79-4.43-2-5.39 2.11-11 2.32-16.78 2.31-10 0-20.08.21-30.11.37-1.25 0-2.84-.26-3.68.38-4.52 3.43-9.63 1.83-13.43 2.11-3.17-.11-4-4-6.78-1.91-.32-.35-.83-.67-.92-1.07-1-4.11-1.85-8.25-2.85-12.35-.54-2.18-.93-4.51-2-6.4a14 14 0 01-1.72-6.44 85.77 85.77 0 011.43-23.82c.67-3.17 1.52-6.31 2.3-9.46l3 1.58c-.11-2.22-.17-3.55-.26-4.88a3.51 3.51 0 00-.67-.1l-2.1 3.55q.91-5.5 1.83-11c6.75-2 13-3.28 19.6-1.61a14.37 14.37 0 005.23.29c5.43-.68 10.84-1.57 16.64-2.44 4.08 2.89 9 3 14.06 2.59 7.44-.55 14.9-.9 22.32-1.65 3.4-.34 7-.39 9.88-2.93a4.41 4.41 0 012.7-.78c7.2-.07 14.4 0 22.67 0l4.66-3.54h8.12c-.06-6.11 2.45-11.13 5.2-16.62l-3-1.64c1.93-1.93 3.85-3.86 5.48-5.48.74-6.75 2-12.94 1.93-19.13 0-4.43 0-8.83.2-13.26.23-4.2 2-8.28 1-12.61-.19-.81.71-1.82.88-2.78.47-2.69 1.28-5.41 1.14-8.08-.35-6.48-1.44-12.93-1.67-19.41-.18-4.89-.23-10 3-14.24l.76.5-.51-.75c0-.5-.07-1-.1-1.52 1-1.62 2.64-1 4-1 6.69-.06 13.39.11 20.09 0a73.66 73.66 0 008-1c.72-.09 1.65-.53 2.14-.23 3.79 2.32 8.18 0 12.28 1.95 2.88 1.35 6.93.94 10.26.32 2.81-.53 5.38.11 8 .05h-.07c.57 1.26 1.14 1.58 1.71 0h-.08c4-1.6 7.74-1.81 11.3 2.2 1.79 3-2.15 5.31-2.39 8.87l3.73 9.72c-1.31 6.41-2.91 14-4.37 21.52-.62 3.18-1 6.41-1.34 9.64-.16 1.76.08 3.57 2.2 4.27l.06-.13c-2.85 4.74-4.22 9.91-5.12 15.37a160.24 160.24 0 01-6.07 24.66c-.61 1.81-2.2 3.29-2.8 5.1-.54 1.6-.32 3.45-.46 5.6a29.21 29.21 0 004.19.82c4.48.21 9-.4 13.42.94a7.55 7.55 0 003.7-.19 21.56 21.56 0 0111.78.27c2.29.73 5 .48 7.43.39 8.79-.31 17.36 1.48 26 2.59 2.21.28 4.47.21 6.7.31l-.11-.18 1.66 1.66-.17-.11a117.1 117.1 0 0017.69 6.92c.92-2.3-.65-3-1.9-3.65-2.83-1.4-6.18-1.89-8.09-4.83l-.11.17 2.15-.84c4 1.68 7.65 3.06 11.15 4.7 4 1.87 7.91 3.93 11.78 6 .47.25.48 1.32.71 2l-.09-.12c2.81 1.34 5.6 2.73 8.45 4 1.54.69 3.19 1.15 5.39 1.92 1.58 2 3.43 4.68 5.6 7a22.13 22.13 0 014.51 7.57c1.1 3 3.17 5.59 4.81 8.35-1.37.57-.88 1.13 0 1.69v-.05a81.41 81.41 0 014 14.92c2.84 1.64 4.43 4.75 4.93 8.77.72 5.69 1.95 11.31 3 17a3.77 3.77 0 00.31 1.46c3.1 4.47 2.73 9.67 2.46 14.58-.75 13.51.4 27-.83 40.57a280.45 280.45 0 00-1.26 34.45 36.17 36.17 0 01-.65 4.45c-.44 4.72-1.6 9.41-.77 14.21a10.43 10.43 0 01-.08 3q-.91 7-1.94 14.07c-.28 2-.32 4.1-1.08 5.9-1.81 4.27-3.06 8.42-1 13a3.57 3.57 0 01-.2 2.93c-1.73 2.68-.51 5.32-.23 8.07l-2.37 4.48 1.38 3.62-3.51 6.13c1 5.53.18 11.13-1.28 16.72-.69 2.64-.92 5.39-1.48 8.07-.35 1.68-.42 4.17-1.5 4.81-4.31 2.54-4.6 7.64-7.66 10.9a8.44 8.44 0 00-1.56 3.34 109.08 109.08 0 01-8.9 22.21c-.7 1.25-.64 2.9-1.09 4.32-.82 2.55-2.32 4.39-5.6 4.41-.57 1.22-1.15 2.59-1.85 3.9-1 2-1.86 4.23-3.37 5.78-6.27 6.39-12.38 13-20.77 16.84-2.2 1-4 2.79-6 4.22v-.07c-.21-.66-.22-1.64-.67-1.93-.71-.45-2-.88-2.52-.53a1.93 1.93 0 00-.24 3.16 6.63 6.63 0 002 .89l-.14-.05c-2.45 2.11-5.72 2.46-8.45 2.29-6-.39-11.91.72-17.82.49-6.95-.26-13.87-.36-20.81-.12-4.58-2.32-9.24-.09-13.85-.26s-9-.51-13.43-1c-7.59-.77-15.28-.31-22.8-1.77-4.33-.84-8.59-2-12.67-3l-.34-2.81.29-.17-.17.28c-3.43-2.08-6-4.58-4.76-9.11a1.61 1.61 0 00.11-.74c-2.5-12.22-2.27-24.89-6.11-36.86-.65-2-2.16-3.77-3.41-5.89.83-1.13 1.68-2.3 2.86-3.93l-3.21-3.55c.53-1.86 1-3.69 1.61-5.64a3.36 3.36 0 011.12-.59c5.2-.75 10.37-.41 15.59 0 5.44.4 10.79.65 16 2.66a14.14 14.14 0 006.67.49c2.72-.37 5.33-1.32 8 0a1.71 1.71 0 001.43.13c4.63-3.5 9.11-.4 13.68.26.75 1.21 1.51 2.45 2.16 3.49 7.91 1.32 14-2.47 19.41-6.73 4.73-3.72 9.48-7.14 15-9.54l-.11.1a15.48 15.48 0 009-9.52 35.57 35.57 0 014-8.09 29.25 29.25 0 003.08-7.58c1.19-3.78 3.07-7.39 3.9-11.23 1.29-6 2.75-12 2.14-18.38-.34-3.57 1.07-7.3 1.66-11a52.28 52.28 0 00.79-6c.52-11.93.83-23.87 1.53-35.79.19-3.19-1.25-6.18-.09-9.54 1-2.74.62-5.95.62-9 0-2.2-.37-4.41-.58-6.62 1-.6 1.54-1.75.58-2.33-1.3-.79-1.28.73-1.54 1.54-.45-.13-1.23-.17-1.3-.41-.62-2.18-1.78-4.46.61-6.36l-.14-.15c.1 1.2-.1 2.61 2.28 2.58a38.65 38.65 0 002.85-16.38c-.74-12.15 1.13-24.38-1.22-36.5-.36-1.88.28-3.95.52-6.58-4.57-6.48-9.31-13.46-14.35-20.24-2.57-3.47-6.83-4.45-10.72-4.41-9.38.09-18.8.08-28 2.76-5 1.47-10.24 2.19-16.33 3.44-3.18-1.22-7.27-.48-11.47.55-3.81.94-7.71 1-10.88 4.06-1.4 1.36-4.16 1.32-6.42 1.95a14.76 14.76 0 00-3.27 10.1c.22 3.74.09 7.55-2 10.44.31 2.7.57 4.92.84 7.14v-.14l-2.53.2a24.38 24.38 0 00-1.21 4.66c-.77 11.2-5.34 21.48-7.69 32.29-.21 1-1 2.25-.58 2.86 2.68 4.41-.28 7.37-2.13 10.92-1.56 3-3.36 6.11-3.45 9.8-.13 5-3.3 8.93-5.39 13.08-2.73 5.44-3.4 11.46-6.06 16.88-2.53 5.14-4.2 10.7-6.63 15.9-2.13 4.57-4.3 9-3.72 14.33-4.09 4.12-5.76 9.34-7.63 14.55-2.61 7.25-5.69 14.33-8.7 21.42-1 2.33-2.41 4.47-.74 7.11l-4.71 3.26c1.15 1.27 1.56 1.79 2 2.23s1.11.85 1.73 1.31c-1.32 2-2.32 4-4.64 4.71l-.47-.29.58.17c-4 8-6.7 16.5-9.26 25a6.8 6.8 0 00.09 2.19c-.93.69-2.25 1.17-2.73 2.1-2 3.89-3.75 7.93-5.67 11.88-1.16 2.39-2.47 4.71-3.71 7.06l.13.18c.36-2.83.72-5.66 1.2-9.39-4.26 2.49-4.58 6.22-5.87 9.34l.11-.11-1.66 1.65v-.07a79 79 0 00-4.18 6.92c-.92 1.91-1.91 3.49-4.17 3.92-.67 2.45-1.3 4.79-1.93 7.08.94 1.64 2.24 1.47 2.85.19a18.44 18.44 0 017.26-8.14c-1.06 6.81-2.36 12.42-7.89 16-.21 2 1 4.75-2.44 5.08-2.83.27-3.58 2.22-4.25 4.66l2.85.85v-.14c-.53 1-1.07 2-1.61 3h.1l-1.14-1.09-.48 1-5.69-2.82-3.13 3.7c-3.86.88-8 3-12.67 1-1.15-.5-2.89.39-4.49.67a16.13 16.13 0 01-10.22-9.23l-4.37 1.48c-.86-3.42-3.93-4.8-6.35-6.8zm-9.06-35l.13.13zm3-4.47a2.22 2.22 0 00.65-.17c.1-.07.07-.32.1-.5l-.63.78-.29.19zM1337 213a2.19 2.19 0 00-.27-.6c-.07-.08-.29 0-.44-.06l.83.53 1.55 1.6-.14.12zm-156.69 92.45c.12-.38.23-.77.35-1.15l-1.11.39c-.11.36-.21.72-.31 1.08zm-110.52 186.92h-2.94c1.7 1.69 2.38 1.23 2.82-.12l.29-.17zm222.21 12.3c.94-.59 1.53-1.25.37-2.46l-1 1.89c-.1.46-.21.92-.31 1.38zm-109.1-213.29c2.48-2.13 2.48-2.13-.1-3.47.09 1.38.17 2.48.24 3.58-1.91 1.42-1.59 3.1-.14 4.86zm168.69-49.17l1.54.53-.45-1.63c0-1.52.66-3.29-1.44-4.17-1.54 1.96-.8 3.63.35 5.27zm-64.5-74.55l1.05.42-1.19-.29c-1.41-2.82-3.41-2-5.88-1.26 2.07 2.16 4.09 1.3 6.02 1.13zm-76.23-87c1.23-4.52 1.23-4.52-.46-7.64-.76 2.37-2.53 4-.89 6.41-.33.36-.9.69-.93 1.06a6.76 6.76 0 00.42 1.93c.54-.36 1.1-.68 1.6-1.08.16-.1.18-.42.26-.65zM1319 181.23c-2.32-2.08-2.32-2.08-4.43.06l4.56-.22c1.55 2.6 4.09 2.12 7.24 2.9-2.51-2.97-4.94-2.88-7.37-2.74zm24.91 51.85c.21 1.13.41 2.25.74 4.11 2-2.23 1.53-3.52.12-4.74 1-3.62-1.09-5.93-3.42-8.73-1.16 1.17-1.95 2-2.61 2.64.91 3.29 2.94 5.09 5.16 6.72zm-237.3 158.58c3.15-5.06 3.15-5.06 2.18-16.1-1.15 2.36-1.89 4.07-2.79 5.69-1.08 1.92-2.3 3.77-3.35 5.49l2.77 3.91c-.57 1-1.32 1.93 0 3.35.46-.88.83-1.61 1.19-2.34zm-30.15 93l-5.52 12.71 2.93 4a33.15 33.15 0 013.52-3.17 44.58 44.58 0 014.64-2.37c.15-3.91.52-7.81-1.23-11.66zM1340 275.93c-.13 2.39-.3 4.58-.36 6.78-.06 2 .32 3.13 1.85 6.13 2.2-4 .28-8.32 1.78-12.1 2.62-2.66 2.62-2.66 1.26-5.27zm-236.48 128.42c1.81-2.44 1.14-5.09.69-8.07l-5.9 3.25a9.45 9.45 0 00-.28 2.37 2.38 2.38 0 002.33 2.43c.99.08 1.98.02 3.16.02zM1325 214.23a13 13 0 00-11.33-6.59c2.64 4.29 6.95 5.36 11.33 6.59zm-159.7 26.32c3.26 2.29 6.07 1 9 .77-.17-1.46-.31-2.59-.44-3.67-5.86-.46-5.86-.46-8.56 2.9zm120.36 281.5c.14-.9.23-1.55.34-2.26-3.29-.48-6.41-1.11-9.55-1.33-1.17-.07-3 0-3 2.13 3.92 2.27 8.02 1.75 12.21 1.46zm21.78-318.79c-3.83-2.44-7.8-3.55-13.54-3.74 4.27 3.76 8.23 4.76 12.24 6zm-180.13 54c3.12-1.22 2.9-4.17 4.09-6.11a2.45 2.45 0 00-.88-3.72c-2.19 2.85-4.1 5.62-3.21 9.79zm77.76-191.07l-3.84 4.18c.77 1.66 1.45 3.13 2.21 4.8 3.47-2.28 2.26-4.95 1.63-9.02zm-126.75 440.07a16.39 16.39 0 001.68-1.36 3.92 3.92 0 00.76-1.28c1.06-2.58.07-3.53-3.48-3.23-.28 2.02-2.02 4.23 1.04 5.87zm271.31-276c2.07-2.56 1.09-4.74-.25-6.86-.21-.34-.78-.47-1.39-.81l-2.09 1.7c.29 2.71 1.16 4.82 3.73 5.93zm-50.13-56.16c2.85 2.88 6 4.27 9 5.73.55.26 1.51-.32 3-.68-3.83-3.15-6.66-6.23-12-5.09zm-258.56 25.42c-1.56 4.17-1.56 4.17.15 7.48 2.83-3.16 2.83-3.16-.15-7.52zm26.64 299.87c-.14 1.07-.28 2.2-.44 3.48h2.56c-.12-2.72 1.06-5.54-2.53-7.27l-2.32 1.92zm265.66-121.69a4.65 4.65 0 00-.13-5.84c-3.31 2.88-3.31 2.88.13 5.8zm-285.66 110.87c3.21.91 3.62-1 4.16-2.49.46-1.25 1-2.81-1.41-3.49a14.06 14.06 0 00-1.53 2.19 36.46 36.46 0 00-1.22 3.79zM1286.42 510c2.41.68 4.65 1.06 6.68-1.38-4.93-1.31-4.93-1.31-6.68 1.38zm27.81-335.31c2.29 1.18 3.83 2.26 6 1.27-2.82-2.88-2.82-2.88-6-1.26zM1057.54 486c-2.48-.28-3.45.71-3.5 3.21l3.5.61zm196.3 18.06l.39 1.55 4.47-.33c-1.31-1.07-1.83-1.84-2.42-1.89a7.15 7.15 0 00-2.44.71zm-66-429.63c2.17-.25 2.73-1.26 2.51-2.61 0-.29-1.14-.41-1.74-.61zm161.1 171.6c-2.72 1.18-2.72 1.18-1.62 3.9zM1179.88 71.22c.18 2-.85 3.57 1.61 4.35.43-1.36.82-2.62 1.28-4.09zm153.25 165.31c-.09.17-.33.48-.27.57a12.91 12.91 0 001.74 2.14c.16.15.84-.27 1.28-.43a15.22 15.22 0 00-1.43-2.24c-.19-.22-.86-.04-1.32-.04zm-50.56 279.14c2 1.16 3.74 1.49 5.66 0-1.82-1.51-3.54-1.15-5.66 0zm73.33-135c.28-.37.82-.78.77-1.09-.09-.49-.58-.9-.89-1.34-.19.4-.53.82-.51 1.21s.4.81.63 1.22zm-241.4 91.55c-.27.32-.73.62-.75 1s.38.71.6 1.07c.28-.32.77-.63.79-1s-.4-.71-.64-1.07zm83.46 50.3v.61l1-.4c-.12-.17-.22-.45-.36-.47s-.43.16-.6.26zm97.72-7.68a3.57 3.57 0 00-.34-.56 11 11 0 00-1.18.61l.65.91zm47.92-320.61c0-.16 0-.4-.13-.47a1.82 1.82 0 00-.59-.13l.16.8zM1084.21 497a1.79 1.79 0 00.17-.56c0-.07-.29-.12-.44-.18a1.63 1.63 0 00-.16.56c0 .02.28.08.43.18zm138.54-367.37c-.08.22-.15.45-.23.67l.92.05a2 2 0 00-.17-.67c-.06-.13-.34-.08-.52-.09zm114.35 61.9l.51-.33c-.14-.15-.36-.43-.41-.4a3.47 3.47 0 00-.64.52zm-31.68-1.71v-.42l-.5.16zm-14.06.1l.55-.24c-.14-.13-.28-.35-.44-.37s-.36.14-.54.21zm-189.8 201.61l-.6-.22-.06 1c.2-.06.46-.07.6-.2s.05-.43.06-.62zM1084 505.31c.18-.09.45-.14.52-.29s0-.42-.07-.63l-.8.41zm-66.48-262.58l-.23.61.9.06a1.61 1.61 0 00-.15-.61c-.11-.1-.37-.04-.55-.06zm115.06 0c-.16 0-.39 0-.45.13a1.71 1.71 0 00-.15.6l.8-.16zm-76.11 2.85l-.9-.26c0 .15.09.44.15.44a3.15 3.15 0 00.72-.23zm22.26-.32v.42l.5-.16zm274 .48l-.19.52.72.09a1.63 1.63 0 00-.11-.55c-.08-.13-.3-.1-.45-.11zm-12 46.35a5.91 5.91 0 00-.28 1.22c0 .16.28.33.44.5a4.1 4.1 0 00.63-1.1c-.02-.19-.52-.45-.84-.71zm-224.81 165.62a1.66 1.66 0 00.17-.55c0-.07-.29-.12-.44-.18a1.64 1.64 0 00-.16.55c0 .07.28.12.43.18zm58.83-383.95l-.3.44.45.08zm57.22 386a1.77 1.77 0 00-.55-.18c-.07 0-.13.28-.2.43a1.51 1.51 0 00.55.17c.07-.05.13-.32.23-.47zm-107-194.83l-.25.33.37.06zM1315 224.59l.24-.32-.36-.06zm10.33-21.49l.43.28.06-.45zm-229.07 202l-.29.45.47.05zm37.27 29l.45.29v-.48zm213.18 12.43l.23-.32-.35-.06zm-298.86 36.26l.29-.45-.48-.05zm239.06 41.93l-.4-.5c-.17.14-.45.26-.47.41s.24.33.37.5zM1799.05 369.81a73.15 73.15 0 019.67 9.37 59.23 59.23 0 0013.2 12.11c2.25 1.46 3.76 4.22 6.11 5.31s5.4.67 8.06 1.27a16.16 16.16 0 014.68 2.21c.41.25.36 1.25.6 2.22l-3.77-.94c-.22.4-.7.92-.59 1.15 1.76 3.62 3.73 7.09 7.47 9 2.13-.25.75-2 1.66-3.34.92.21 2.54.08 3.09.79 4.11 5.27 8.94 10.12 10.88 16.9 2 .56 4.25.73 5.94 1.81s2.31 3.14 3.69 4.49c3.4 3.31 7 6.45 10.45 9.66 1.84 1.7 3.61 3.47 5.5 5.1a19.93 19.93 0 004.17 3.09c4.29 2.07 8.47 4.12 11.45 8.08a9.53 9.53 0 006.54 3.4c5.51.7 9.54 3.76 13.18 7.58a10.47 10.47 0 011 1.33v6.38c.13-.27 0 .26-.3.61-4.39 4.76-8.76 9.55-13.26 14.21-1 1.06-2.56 1.59-3.72 2.53a10.92 10.92 0 00-3.15 3.17 34.45 34.45 0 01-11.82 13.16 4.87 4.87 0 00-1.16.95c-6 7.67-14.21 13.29-20 21.24-2 2.78-4.89 5-7.34 7.46-2.94 3-5.85 6.05-9.11 9.43l-5.15-4.74-4.1 1.6-1.56-1.29v.08l1-1.13-1-.54v.09c.86-2-.36-3.53-1.72-4.54-6-4.46-11.23-9.87-17.21-14.21-5.48-4-10.16-8.77-15.38-13-3.92-3.16-8.14-6.45-11-11a29.09 29.09 0 00-5.62-6c-.84-.74-2.23-.87-3.37-1.28l.08.16c-1.26-3.81-5.11-5-7.39-8.2l-3.37 2.17.1-.09c-.78-.55-1.82-.93-2.3-1.67-3.83-6-9.09-10.76-13.82-16.68.22-1.47.5-3.35.8-5.31-1.09-2.57-2.86-4.46-5.85-4.9l-.18-.23.29.12-1.17 2.46c-2.23-2.41-4.34-4.68-6.46-6.95l4.29-.21-3.59-4.69c-1 1.46-1.62 2.42-2.25 3.38v-.12c-1.6-1.51 0-2.79.28-4.17l-.54-.52a19.25 19.25 0 01-8.86-6.16c-5.58-7.32-13.5-11.64-21.19-16.2-2.61-1.55-5.23-2.82-7.12-5.37a17.7 17.7 0 00-4.49-4c-6.33-4.22-10.46-10.68-16.34-15.11.37-1.22.59-1.93.81-2.63l.1.12a16.55 16.55 0 01-6.66-4.66c-3.46-4.24-7.27-8.2-11-12.26a8 8 0 00-1.63-1.55c-4.07-2.57-7-6.14-9.92-9.93s-7.31-6.73-11.18-9.88c-4.42-3.6-9-7-13.47-10.56a11.41 11.41 0 01-1.76-2.41l-.83-.81c-1.82-2-3.61-4.08-5.44-6.1-4.69-5.13-9.19-10.45-12.55-16.52-1.09-2-2.91-2.52-4.09-4v.05c1.53-.62 1.48-1.93 1.42-3.25 1.4 1 1.7 3.53 4.42 3.6-.34-1.44-.58-2.37-.77-3.31-.23-1.17-.42-2.36-.65-3.67h-2.49l-.8.83c.13.91.27 1.81.41 2.71-2.17-1.08-3.09-4.14-6.23-3.85-.42 0-1-1.45-1.46-2.24l2-.46c-1.28-1.1-1.63-.38-1.88.59-2.33-4.42-4.79-8.78-7-13.28a45.41 45.41 0 01-4.87-21 14.88 14.88 0 012.59-8.49c2-2.88 3.89-5.83 5.82-8.76a9.53 9.53 0 001.55-2.54c1.45-5.54 5.22-9.28 9.53-12.64a5.14 5.14 0 00.13 1.37c.08.21.51.31.78.45a1.73 1.73 0 00-.14-.66 9.75 9.75 0 00-.91-1l3.09-3 .16.38-.28-.26a4.53 4.53 0 013.06-3.11l-.12.11c1.69-1 3.39-2 5.07-3 1.05-.65 2.72-1.18 3-2.08 1.13-4 5-5.82 6.82-9.37 1.53-3 4.23-5.45 6.6-8 5.08-5.42 10.11-10.91 15.53-16 1.49-1.39 3.12-4.19 6.31-2.75.27.12 1.41-1.69 2.15-2.6h-.06l1.68-1.67v.06l15-10.43v-.15l3.59 3.48 3-4.54.54-1.49-1.49.56-4.07.46h.08c5.66-3.24 10.61-7.6 16.52-10.44l-.08-.09c.3.84.6 1.69 1.05 3 3.06-2.17 3.74-4.42 2.37-7.31l1.14-1.9a4.91 4.91 0 001.32.45 1.67 1.67 0 001.19-.39 1.11 1.11 0 00-.28-1.06 1.51 1.51 0 00-1.26.08c-.36.2-.57.68-.85 1l-1.84 1.22-4.26 1.8c2.94-4 6.9-6.93 10.87-9.81.71-.52 1.82-.48 2.75-.7l-.08-.11c-.53 1-1 2-1.57 3l-.64.85.84-.64c2.29-.54 4.55-1.12 6.43-3.84l-3.55-.87.12.09c1.17-1.57 2.3-3.18 3.53-4.71.92-1.14 1.77-2.6 3-3.17 6.43-3 11-8.48 16.72-12.33a69.58 69.58 0 007.36-6.3c2.78-2.48 5.48-5.06 8.27-7.53 2.6-2.3 5.27-4.51 7.9-6.75 2.77-.41 3.71-2.92 5.26-4.68 1.1-1.25 2.19-1.81 3.77-1.24l-.12-.16c.16.19.27.49.47.55 3.51 1.08 5.92-1 8.46-2.9 2.31-1.73 3.82-3.73 3.32-6.78l-.13.17c2.59-.65 5.54-.73 7.1-4.61h-4a1.35 1.35 0 00.5-1c.22-.51.45-1 .68-1.52l-1.63.58-2.62.4.17.08c2.58-2.71 5.32-5.18 9.07-6.18v1.77l-1.74 1.67-.13-.13 1.57-1.57c1.37-.48 1.41-1 0-1.5l4.49-4.47h-.08l.3 3-.13-.13c2.63-1.17 3.14-3.94 4.58-6l.1.3-.21-.19c.22-1.84 1.43-2.87 3-3.67 1.7-.89 3.44-1.78 3.45-4.11l-.17.09c.79-.34 1.91-.47 2.31-1.08a15.43 15.43 0 016.15-5.53c2.89-1.45 6.2-2.9 8.09-5.31 2.44-3.13 5.32-5.69 8-8.52 2-2.09 3.76-4.4 5.63-6.61h-.08a22.79 22.79 0 009-7.54l1.08-.54-1.09-1.14h.05l2.67-2.85 7.21 3.1c1.93-.91 1.2-2.08.8-3.2h-.06l3.21-.62c2.58 3.18 2.07 8.07 5.49 10.88 3.21 2.63 6.32 5.4 9.47 8.11v-.13c.87.87 1.72 2.46 2.6 2.47 3.93 0 6.1 2.95 9.18 4.63-.4 1-.67 1.6-1 2.37 2.51 3.33 6.76 5.19 8.73 9.21 3.21 6.56 8.13 11.84 13.45 17.45a32.51 32.51 0 01-2.86 3.32c-3.18 2.83-6.32 5.67-7.8 9.83a16.3 16.3 0 00-9.1 6.14l-.72 1.41 1.65-.5h1.79c.53 1.92-.69 3.26-1.93 4.28-4.62 3.85-9.21 7.76-14.1 11.25-7.55 5.38-15.74 9.94-22.9 15.78-5.79 4.71-11.67 9.3-17.38 14.08-3.58 3-6.76 6.57-10.65 9.28-2.75-.58-5.52-3.78-7.93.29-.43 2.41 1.42 2.86 3 3.51l-.06-.1c-7.71 5.59-15.51 11.07-23.11 16.81-8.79 6.66-17.59 13.35-26 20.44-5.2 4.36-10.18 8.87-16.83 11.38-.52 1.64-1 3.27-1.62 5.13-.55.17-1.27.64-1.89.54-2.5-.39-3.73 1-4.63 3l.1-.08a39 39 0 00-12 10.62v-.05l-1.66 1.67.15-.18-1.68 1.69.18-.16-1.68 1.71.15-.18-1.67 1.68.14-.17c-.13.19-.38.4-.36.57a6.5 6.5 0 00.37 1.16l-.17-.08a13.66 13.66 0 00-6.89 5.17c-1.31 2-3.33 3.54-5 5.29l.06.13c-.58-.85-1.16-1.45-1.71 0v-.12a22.4 22.4 0 00-11.58 13.08 8.34 8.34 0 00.17 6.79 34 34 0 002.9 1.91c4.81 2.57 8.68 5.83 10.15 11.46.4 1.51 2 2.77 3.13 4q4.79 5.25 9.69 10.4c1.7 1.79 3.17 3.74 5.91 4.37 1.55.35 2.93 1.78 4.18 2.95 1.82 1.69 3.48 3.57 5.18 5.39 2.34 2.52 4.41 5.24 7.71 6.8 1.44.69 2.32 2.55 3.45 3.87l-3.47.6 2.9 2.93c1.37.63 1.66.21 1-1.08-.2-.86-.41-1.71-.61-2.57l10.17 5.48a14 14 0 006.53 9.78l-.16-.13c-.13 3.25 0 6.4 2.88 8.83 2.62-.83 1.79-4.15 4.42-5.21 3 1.81 4.42 5.46 7.2 7.95.15 1.24.31 2.46.42 3.68a6.29 6.29 0 004.74 6 6.85 6.85 0 012.67 1.2c3.25 3 6.39 6.17 9.58 9.27zm72.27-252.27l-1.62 1.46c-1.33.56-2.87.87-4 1.74-4.79 3.86-9.45 7.88-14.16 11.84l-.79 1.42 1.55-.66a83.24 83.24 0 0018.12-13.59l1.43-1.62c.13-.31.25-.62.37-.93zM1847.48 136l-.13-.13c.58-.08 1.65.21.76-1zm-12.09 298.79c.1-.16.31-.34.28-.47a5.13 5.13 0 00-.35-1l-.48-.27.6.18.06 1.63zm-10.57-24.11l.26.28-.38-.16-.49-.41zm-95.19-18.19l.13.13zm-65-24.21a2.84 2.84 0 001.12.75c.63 1.56 1.62 2.63 3.46 2.54l.39.23-.24-.39a3.65 3.65 0 00-3-3.12c-.61-.9-1.16-.94-1.63.11l-.14.24zm-54.19-111.37l-.4.36c.1-.16.19-.32.28-.49zm-6.59 27.49l1.52.61-.54-1.59a2.87 2.87 0 00-.79-1.2l.17.09zm3.66-29a11.8 11.8 0 001.19-1.37c0-.07-.46-.51-.71-.79l-1.14 1.53-.24 1zm133.3 148.7l-1.6-.43.39 1.65c.5.39 1.35 1.21 1.46 1.12.99-.82.56-1.63-.25-2.34zm-45.84.67l.13-.12 2.76 1.5.22.24-.31-.18zm135.32-340.85c.25.79.5 1.58.8 2.51 2.27-1.42 1.28-2.41.21-3.4-2.62-1.37-2.65-1.36-3.45 2l-2 1.62 2 1.3c.43.58.65 1.79 1.88.47l-2-.32c0-1.06.06-2.12.1-3.19zm-150.4 321a2.08 2.08 0 00.11.63c.06.11.28.13.43.18l-.66-.68c-1.49-2.38-1.49-2.38-3.36-1.95.42 2.06 1.99 1.9 3.48 1.9zm144.95 39.3l-.38-.23.23.39c-.06 2.89 2 4 4.2 4.92l1.19.64c0-.57-.1-1.13-.16-1.7-.92-2.24-2.92-3.24-5.08-3.98zM1695.11 177c-4.39-.2-4.39-.2-6.08 3.12 3 .4 4.58-1.17 5.93-3.25.52-.81 2.08-1.43.15-3zm-93.38 89.29c3.08-.1 4.62-2.26 6.06-4.55l.48-1.56-1.54.52c-3.16.19-5.71 1.07-5.69 4.92l-.39 1zm198.35 205.48c1.39.6 1.7.15 1.12-1.15-.78-2.59-1.87-5-4.56-6.65l-2.4 1.93zm18.64-26.2l-.27-.22.38.09c-.64 5 2.6 8.26 5.51 11.56 1.12 1.28 2.66 2.39 5 .75a6.87 6.87 0 00-.71-2.4c-2.14-2.73-4.36-5.41-6.72-7.95a12.57 12.57 0 00-3.19-1.86zM1607.06 280c-.1 2.16.24 3.83-.31 5.11-2.39 5.56.26 10.83.65 16.21.09 1.21 1.12 2.26 2.76.87a43.58 43.58 0 01-.34-16.31c.51-3.26-.71-6.79-1.09-9.73l-3.31-2.19 6.14-3.56-7.28-2.07c-1.18 2.62-4.84 4.1-4.18 8zm77.28-91.44c-6.88-.18-6.88-.18-11.63 2.87a9.79 9.79 0 000 6.15l6.53-5.19 4.83 1.53c.07-2.05.17-3.73.27-5.41zm-71.92 83.22v7.8l3.61.46c.03-4.37.03-4.37-3.61-8.31zm179.33 97.89c1.78 4.41 1.78 4.41 5.88 5.74-1.2-4.02-1.2-4.02-5.88-5.79zM1832.3 424c-1.77 1.83-1.73 3-.65 3.95 2.25 2 3.36 2.22 6.5 1.12zm-181.65-136.35c1.45-3 1.26-6.21.73-10.09-2.71 4.21-2.77 4.8-.73 10.09zm34.45-11.18c1.53-2.19 2.58-4-.49-5.86l-2.85 3.86zm160.35 259.3a13.08 13.08 0 001.46 2.83c.33.37 1.17.26 2.58.5-.85-1.88-.08-3.96-4.04-3.33zm-55.94-82.49c-2-1.06-2.91-.31-3 1.12s0 3.14 2.73 2.66c.1-1.28.19-2.63.27-3.78zm-173.64-189.14c-1.48-1.51-2.72-1.92-3.85-.23a1.39 1.39 0 00.1 1.33c1.36 1.23 2.56.97 3.75-1.1zM1836 66.77c-1.86-.53-2.62.35-3 2.4 1.71.07 2.78-.32 3-2.4zM1818.57 420l1-1.4-2.23-1.28c-.19.38-.63 1-.53 1.1a14.58 14.58 0 001.76 1.58zm40 116.34c-1.26 1.19-1.7 2.3.25 3.24 1.65-1.2 1.33-2.26-.25-3.22zm-213-226.75c1.52-2.26 1.52-2.26-.61-3.83.25 1.42.4 2.37.64 3.85zm80.57 70c-.05 1.39-2 3.86 1.81 3.28zm99.59 66.75c-.37-.19-.73-.39-1.09-.59a4.17 4.17 0 00-.23 1c0 .11.44.37.53.31a4.57 4.57 0 00.82-.68zm-121.22-59.23l1.1.57a5.36 5.36 0 00.26-1c0-.1-.45-.36-.54-.3a4.87 4.87 0 00-.79.77zm104.18 35.09c-.22-.38-.36-.92-.69-1.1s-.73.23-1.11.37c.17.39.27 1 .53 1.11s.87-.19 1.3-.34zM1792 462.43l.94-.06-.15-2.21h-.91zm53.14 36.76c.19-.12.48-.19.54-.36s-.05-.46-.09-.7l-.81.47zM1735.22 335.5c-.17.13-.44.23-.48.39s.16.39.25.59l.81-.67zm141.41-221.76a1.72 1.72 0 00-.58.19c-.06 0 .07.33.12.5a1.88 1.88 0 00.59-.21s-.08-.31-.13-.48zM1698.83 377c-.19.15-.56.34-.54.42a7.54 7.54 0 00.51 1.17c.2-.14.59-.33.57-.4a7.92 7.92 0 00-.54-1.19zm108.69 13.81l-.3.43.45.09zM1611 305.92a1.72 1.72 0 00-.19.55c0 .07.29.13.45.2a1.72 1.72 0 00.17-.56c-.03-.11-.31-.11-.43-.19zm203.4 125.41v-.47l-.51.2zM1603.87 291c-.18 0-.43 0-.51.12a1.53 1.53 0 00-.15.62l.89-.17zm113.21-137.87c0 .16 0 .4.12.46a1.6 1.6 0 00.6.12c-.06-.26-.11-.52-.16-.78zM1600.5 269.8l.24-.33-.35-.06zm107.29 13.58l.24-.33-.36-.06zm-102.65-24.7l-.3.45.47.06zm19.57 67.1l.28-.44h-.47zm102.6 60.33l.3-.44-.46-.07zm116.41 147.41l-.3.43.47.06zM1389.91 163.09l-6.12-4.85-3.21.86c-1.94-4.88-6.22-8.81-6.08-15.17l5.12-1c.38-.7.84-1.57 1.3-2.43l-.14.13L1384 136c8.73-.48 15.35-6.91 23.45-10.16l4.41 2.54c3.32-.92 2.47-3.42 2.49-5.88l3.89-1.27c.07-.57.32-1.15.15-1.51-1.32-2.68-2.75-5.31-4.09-8a64.09 64.09 0 00-10.07-14.82 12 12 0 01-2.81-4.24c-1.88-6.18-5.36-11.58-7.92-17.41-2.46-5.61-3.72-11.74-5.53-17.71l-3-1.95 3.52-6.7c3.83-2 7.63-3.94 11.37-6 6.58-3.58 13-7.54 20.74-8.2.87-.07 1.69-.93 2.53-1.43 2.15 7.52 5.67 14.43 9.23 21.35 2.63 5.11 4.94 10.38 7.56 15.52 5.73 11.26 13.16 21.3 21 31.88-.74 2.63-.07 5.69 1.44 8.54l-9.41 9-7.91-.69c-.3 2.82-.57 5.45-.84 8 2.29 6.66 7.47 11.26 11.08 16.9 1.33 2.08 3 4.08 3.76 6.37a35.77 35.77 0 005.31 9.66c3.73 5.35 7.52 10.66 11 16.15a25 25 0 013.26 7.54c1.1 4.61 3.84 8.66 4.09 13.6.09 1.71 2.08 3.33 3.2 5l-.75 3.71c1.44 2 2.88 4 4.63 6.35-1.15 2.67-1 5.53 2.45 7.85l2-1-.1.06c4.76 6 6.4 13.29 8.18 20.24 4.29 6.32 8.51 12.48 12.66 18.68a9.24 9.24 0 011.69 6.36 62.82 62.82 0 000 7.39c-.08.19-.25.39-.22.56a5.32 5.32 0 00.33 1l.48.41-.61-.29c0-.61-.09-1.21-.13-1.82l2.29 1c1 3.42 2 6.94.61 11l5.47 1.32a113.64 113.64 0 0110.38 22c.82 2.44.41 5.28.58 8-2.95 3.83-7.17 6.16-11.32 8.36-5.5 2.93-11.25 5.43-17 7.84-4.55 1.91-8.78 4.69-13.88 5.28-1.06.12-2 1.31-3 2l-8.79 6.49c.85-2.5 1.27-3.77 1.7-5l.23-.39-.38.24-5.4 3.08c.14 1.27.22 2 .35 3.06a24.52 24.52 0 00-2.67 2.14c-.68.71-1 1.77-1.71 2.44a27.46 27.46 0 01-3.29 2.34c-2.1-4.14-3-8-1.35-12.29h3.35c.09-.95.17-1.84.21-2.22-1.49-2.95-5 .06-6-2.89.11-.38.22-.77.32-1.15l-.18 1.28-1.48.17c-.24 0-.67.17-.7.11-2.18-4.72-4.54-9.39-6.42-14.24-1.16-3-2.1-5.86-4.34-8.49-2-2.32-2.46-5.91-3.61-8.94-1.58-4.19-3.16-8.38-4.61-12.24l2.92-4.44-5.8-3.14c-1-6-6.65-11.32-4.71-19-2.68-2.68-3.88-6.38-5.38-10.06-1.34-3.28-5-5.49-5.16-9.88a11.71 11.71 0 01-6.3-8.54 75.44 75.44 0 00-4.34-13.46c-1.82-4.36-4.42-8.38-6.43-12.67-2.84-6.07-5.46-12.25-8.51-19.17-5.71-4.63-8.3-12.53-13.42-19l2-1.28c.76 1.25 1.46 2.54 2.3 3.73.53.76 1.19 1.67 2.32.53-.27-2.31-1.84-3.84-3.32-5.43.28-1.22.61-2.42.82-3.65.39-2.3-.95-3.14-3-3.36zm81.52 185.65l-.13.13zm-6-19.59a1.93 1.93 0 00.15.65c.06.1.31.08.47.12l-.75-.64-.15-.29zm45.84-6.92c1.39-2.29 2.78-4.58 4.3-7.1l6.55-2.17c.17-5.07.21-5.09-1.59-8.12-.27-.45-1.16-.51-1.69-.72-1.7 1.85.26 2.87.48 4.19a16.72 16.72 0 010 3.06l-8.44-1c-4 6.34-4 6.45-.8 10.73l-5.65 1.17-2.09-4.84a14.83 14.83 0 00-.72 8.83l8.36-1.38c.47-.88.88-1.77 1.3-2.65zm-10.91-1.23c-2.13-2-2.26-6-6.85-5.8-.16 1.65-.21 3-.44 4.39s-.63 2.67-1.11 4.6c3.71.49 6.25-.19 8.4-3.19zm-17.21 11.87c-2.86-1.65-5.07-1.76-7.08.13-.29 2.15-.07 3.77 2.63 4.39zm49.4-24.31a4.76 4.76 0 00.47-.94c.19-1.36-.28-2.33-1.75-2.47a1.63 1.63 0 00-1.21.55c-.65.85.08 2.17 1.4 2.65a7.9 7.9 0 001.09.21zM1427.7 88.47c-1.67-4.75-1.67-4.75-4.39-2.63zm17.38 76.61c0 1.73.13 2.82 1.77 2.71.58-1.36.53-2.37-1.77-2.71zM1498 237c-.07-.43 0-1-.24-1.25s-.84-.21-1.28-.3a7.47 7.47 0 00.26 1.66c.03.14.8-.03 1.26-.11zm5 12.67v.49l.54-.19zm-120.08-102.28a6.65 6.65 0 001.14.42c.14 0 .32-.26.49-.41-.29-.22-.56-.58-.86-.61s-.5.38-.77.6zm90.52 35.85c-.08.15-.26.36-.22.47s.3.33.46.5l.26-1zM458.16 240.15l-6.1-4.58.29-.17-.18.29-4.28-2.78 1.9-1c-1.46-.44-1.46-.44-2.47.34l-4.16-2.75-.17.14 2.64-.9L443 228l.17.15c-2-4.69-6.42-6.07-10.66-7.67l.09.09c-.56-3.17-3.27-3.3-5.37-4.11l-2.05 1.38a5.21 5.21 0 01-1.45-.34q-6.87-3.84-13.71-7.74a41.81 41.81 0 01-9.63-7.05c-2.51-2.6-6.29-4-9.2-5.71-1.09-1.38-.16-3.61-2.44-3.78l.07.08-1.79-2.8-3.28 1.39c-4.27-2.78-9-5-11.3-10.11-1.29-.05-2.26-.15-3.24-.13-.74 0-1.48.18-2.49.31l-4.13-3.4c-8-2.1-15.59-4-22.86-7.21l-1.5-4.65-3.78-2-.15.06c.14-.18.4-.37.38-.52a6.89 6.89 0 00-.36-1.23l.12.07a27.49 27.49 0 015.78-13.71c4.85-6.4 9.34-13.07 14.37-19.31 4.87-6 10.23-11.67 15.12-17.19 2.78-1.32 4.71-.14 6.7 1 6.82 4 13.62 8.08 20.92 11.18a65.2 65.2 0 008.5 2.84c3.24 1.67 5.23 5.5 9.56 5.47.39 0 .67 1.24 1.21 1.59 1.81 1.17 3.27 2.69 5.62 3.32a46.29 46.29 0 0110.15 4.48c5.26 2.9 10.36 6.09 15.52 9.17 2.37 1.42 4.74 2.84 7.09 4.29 3 1.83 5.83 3.92 8.94 5.48a215.39 215.39 0 0124.39 14.83 29.29 29.29 0 002.55 1.59 47.57 47.57 0 0113.51 11c-2.73 4.29-4.68 9.08-8.07 13.24s-5.47 9-8.19 13.47c-3.63 6-7.32 12-11 18-2.21 3.64-4.38 7.29-6.46 10.75l-8.06-1.1c-1.87-1.4 1.15-5.16-3-6.21-.44.88-.94 1.88-1.45 2.87zm-71.06-86.08l-.14.14-.44-.51zm92.34 62.05c-1 .46-2.31.69-1.62 2.35 1.56-.37 1.1-1.64 1.48-2.47l1.13-.78-.85-.5zm-1.59-9.2c-.43-.35-.85-.7-.24-.19l.35.06c-.35 1-1.43 2 .18 3.52.71-.43 2.09 0 1.95-2.3zm7.25-4.92c2.3-2.9 4.1-4.74 4.44-7.87l-3.47-.9c-2 2.53-3.18 4.77-.97 8.77zm-129-43.83c.14-.38.48-.86.36-1.12s-.7-.37-1.07-.55c-.15.38-.52.87-.39 1.11s.68.39 1.07.56zm126.79 51.65l.22.51.24-.51zm7.78-25.95l.27-.42h-.45zM1534.2 78.51c-1.51 1.39-2.65 2.55-3.91 3.56a65.4 65.4 0 01-6 4.48c-3.39 2.14-6.9 4.08-10.37 6.1s-7.18 3.46-11.34 2.72l-3.4 3.9c-8.63-2.42-12.1-9.15-15.6-15.79s-6.77-13.28-10.27-19.85c-2.22-4.15-4.12-8.58-8.37-11.23-.2-.13-.51-.32-.51-.48 0-6.18-6.89-9.16-7.13-15.24a2.57 2.57 0 00-.39-1.44c-3.75-4.57-4.5-10.4-6.65-15.91l3.46-6.2c2-1 4.29-2.5 6.8-3.56 2.27-1 4.87-1.19 7.08-2.25 4-1.91 8.79-2.17 11.82-6.08.61-.79 2.28-.76 3.93-1.24a47.71 47.71 0 011.65 4.67c1.06 4.3 3 7.74 7.36 9.63 2.52 1.08 4.07 3.21 5.24 6 3 7.11 6.47 14.06 10 20.93 1.2 2.31 3.26 4.17 5.17 6.55.9-3.66.9-3.66-1-8.66 3.51 6.92 6.9 13.9 10.56 20.73 3.5 6.5 5.81 13.79 11.87 18.66zM1476 12.28l-.13-.13zm-.13 8.68c-3.37 1-5.33 2.22-5.81 5.08.71 3.89 2.08 7.44 5.57 10.31l3.49-3.26c-1.12-4.17-2.12-7.84-3.28-12.09zm-12.31 7.68l-.44-.46a6.89 6.89 0 00-.52 1c0 .1.27.3.42.45zM601.18 264c-.16 6.45-2.53 12.12-9.63 24.4-1.67-.53-1.49-2.05-1.2-3.1a25.38 25.38 0 012.19-4.74c2.63-5.13 5.29-10.19 8.64-16.56z"/><path d="M1289.39 159.3c-5.84 2.26-10.26 2.56-17 1.16 5.19-3.63 5.61-3.66 17-1.16zm-7.09 0a7.7 7.7 0 00-1.19-.5c-.14 0-.35.27-.53.42.26.27.53.77.78.76s.64-.41.94-.66zM1770.47 104.15l-1.36-.45c2.61-4.09 3.52-5 7.38-7l-.08-.16v1.75l.1-.22c-2.06.88-3.74 2-3.32 4.67.06.4-.84.94-1.3 1.42l.15.11c-.57-1.12-1.15-1.16-1.72 0zM1293.43 301.77c-1.8-3.34.2-6.43.63-9.62a20.27 20.27 0 01-.76 9.75zM1290.25 164.76v-1.63l8-1 1 2.59.11-.17c-2.85-.87-5.1 1.21-7.7 1.56l.17.11-1.66-1.66zM1497.12 13.61V8.84c1.65 2.66 2.55 4.12 4.26 6.85l-4.29-2.11zM630.35 210l2-4.65c3.28 1.19 2.13 2.88 1 4.57l.14.05h-1.75l.21-.12h-1.69zM817 534.9l5.94-.38c-1.61 1.82-3.47 1.51-5.32 1.2-.24-.04-.38-.44-.62-.82zM418.84 296.13c1.17.76 2.36 1.48 3.48 2.29a3 3 0 011.11 3.69h.1l-1.7-1.7.18.16c.22-2.38-1.71-3.33-3.07-4.66z"/><path d="M1776.49 96.74l3.09-3-.17-.08v6.14l.13-.17-2.11.64c-.34-.78-.64-1.47-.93-2.16l-.1.22c.13-.18.38-.38.36-.54a7.57 7.57 0 00-.35-1.21zM1036.58 451.6l2.29-5.57c.31 2.62.48 4.08.65 5.54l.07-.09h-3.12zM1782.58 493.68c-2.46-.52-4.09-1.88-4.51-4.47l-.16.11 4.56 4.52zM692.21 87.5c-.67 2.4-1.92 4.19-4.68 4.36l.11.15 4.73-4.36zM1380.92 140.54l-1.69-1.66.63-.5c.31.77.61 1.53.92 2.29zM1109 490.71l.13-3-.15.13 3.1-1.5-.13-.18-3.08 4.44zM1767.42 338.37c.17-.67.35-1.35.73-2.82l2.43 1.87-3.32.82zM1383.48 163.76l.38-.41a10.52 10.52 0 01.84.93l-.35.47zM440.07 321.79l.92-3.73c.12 1.92.31 2.46.13 2.77s-.78.57-1.19.84zM1279.09 228.78c-.24-.25-.44-.38-.51-.56a1.35 1.35 0 01.07-.55zM462.78 381.94l.38 2.18c0 .32-.14-1-.32-2.3zM432.5 220.47c-.93 2-1.91 1.28-2.9.05h-.07l3.06.06zM1906.37 96.65l.63-1-.66.93zM969.9 469.73l3.17.06-.12-.12c-1 1.44-2 2-2.92-.09zM1785.46 495.3c-1.09-.32-2.94.72-2.88-1.62l-.11.16 3.06 1.51zM201.21 277.79l-1.87 1.21-.31-.85 2.32-.21zM1596.73 305.2l.41.56c.25.59 0 0-.28-.67zM201.35 277.92l.4-.29-.54.16zM689.27 339.72c-1.54 1.09-3.08 1.5-4.62 0l-.06.15h4.73zM637.87 203.91c.06-.2.2-.42.15-.58s-.34-.15-.51-.22l.34.85zM1094 524.32l.22-.94c-.12.09-.33.16-.34.27a1.5 1.5 0 00.1.53z"/><path d="M1107.63 493.88c.47-1.06.94-2.11 1.4-3.17l-.13-.13-1.38 3.18zM459.66 374.49l.57-.69-.57-.25v1zM828.2 532.9l-1.19-.22 1 .36zM687.65 95.22l-1 1.11-.48-1.09h-.07 1.65zM440.11 228.18h3.05L443 228v1.67l.17-.14-2.92-1.45zM1059.23 410.84l-.75-.92.66 1zM1596.86 305.09l-.91-.81.78.92zM618.07 439.43l-.29.43.43-.28zM1871.68 51.68l.21-1c-.13.1-.35.18-.37.3a1.76 1.76 0 00.14.57zM415.74 294.6l3.1 1.53.1-.18-3-1.51zM1195.15 262.63a1.43 1.43 0 00-.13.59c0 .12.23.22.36.33-.07-.35-.13-.7-.2-1.06zM364.43 268.86l-.34-.13c-.38-.5-.08-.12.21.26zM1231.41 109l.36-1-.58-.09c.09.33.19.66.28 1zM364.3 269l.87.29-.74-.42zM248.44 270.35l-.34-.19.25.21.09-.02zM1711.56 252.14h-1.6v.12h1.71zM1725 240.12l-1.53 1.56.17.08v-1.73l-.14.17h1.69zM458.14 240.14l.11.44-.09-.43z"/><path d="M1726.53 238.59l-1.5 1.53.17.1v-1.7l-.15.18h1.67zM1293.3 301.9v1.82l.14.15v-2.1z"/><path d="M1728.08 237.1l-1.55 1.49.17.12V237l-.18.16h1.68z"/><path d="M1729.7 235.63l-1.62 1.47.12.09v-1.69l-.15.18h1.66zM1729.66 234.06a7.58 7.58 0 00-.34 1.12c0 .13.25.3.38.45V234zM432.56 308.1c-1.34.72-1.34.72-.12 1.52v-.07c0-.51 0-1 .07-1.52zM440.24 228.07l-1.66-1.51 1.56 1.63zM438.48 314.06l-.41-.38.35.42.06-.04zM438.58 226.56l-.13-.44.1.43zM1741.57 223.52l.1-.08z"/><path d="M438.42 314.1l.33.27-.27-.31-.06.04zM429.6 220.52l-.37-.26.3.24.07.02zM1494.26 219l-.3-.2.2.25.1-.05zM1610.43 320.18c0-.14-.07-.27-.1-.41 0 .15.05.3.07.46zM1353.68 205.39a7.07 7.07 0 00-.31 1.06c0 .16.19.35.3.53v-1.64zM62.56 338.28l-.17-.48.16.45zM640.91 197.86l-.13-.51.12.49zM1089.38 342.87c0-.54-.05-1.08-.07-1.61v-.06 1.72zM1663.21 194.92v-1.62 1.7zM388.74 193.21l-.22.3.29-.22-.07-.08zM748.18 348.85l-.06-.39v.41zM748.08 351.89v-1.59l-.06-.05v1.68zM1663.17 193.3h1.61v-.07h-1.7zM644.04 191.86l-.25-.17.16.25.09-.08zM288.92 188.8l-.7.24-.69-.28v.13h1.6zM193.91 371.5l.54-.14-.54.14z"/><path d="M290.57 187.17l-1.65 1.63.17.09 1.57-1.58zM1679.78 182.92l1.62-1.64h-.08l-1.59 1.53zM1697.92 170.84l-.08-.09zM9.68 400.17l-.49.06.5-.05zM1696.42 167.66l-.47.11.48-.1zM653 167.66l-.54.16.55-.14z"/><path d="M653 167.68l1.58-1.56-.14-.05v1.67l.15-.11h-1.62zM1815.74 166.35l.18-.32-.25.22.07.1zM372.1 428.87l-.13-.55.12.54zM1389.88 163.09h-.48.51zM619.78 437.8l-1.71 1.63.14.15 1.71-1.64zM334.44 164.71v-1.62l-.12-.07v1.75zM1290.3 163.13l-.21-.36c.06.12.11.25.17.37zM1269.19 444l-.11.1zM1747.77 454.54l-1.51-1.63v.12c-.1 1.14.44 1.63 1.55 1.52zM1710.05 157.16l1.55-1.55-.12-.09-1.51 1.53zM1143.74 149.55l-.55.14.55-.14zM1124.08 465.11l.1.4-.09-.41zM974.8 468.13l.26-.46-.38.33.12.13z"/><path d="M973.07 469.79l1.73-1.66-.12-.12-1.68 1.66zM1758.38 114.82v-.48.5zM1767.41 108.92l1.55-1.54-.1-.16-1.57 1.54zM1769 107.38l1.56-1.5-.16-.16-1.5 1.5z"/><path d="M1770.52 105.88v-1.73l-.16.16h1.64l-.15-.11c-.5.51-1 1-1.52 1.52zM684.69 101.42l.19-.3-.25.2.06.1zM1109.16 487.69l-1.65.09v-1.66l-.11.11 1.57 1.55zM1906.34 96.6l-.25.32.28-.26-.03-.06zM1107.51 487.78h-1.58v.07h1.66zM1778.07 489.21l-1.61-1.51-.1.09 1.55 1.53zM687.65 93.79v1.43h.12v-1.66zM686.19 95.24V93.63v1.65zM1107.52 493.76l-.27.43.38-.31zM1787 493.66c-.53.54-1 1.09-1.58 1.64l.07.05 1.59-1.53z"/><path d="M686.18 93.75l1.46-1.75-.11-.15.12 1.93.13-.18h-1.64zM1792.98 83.17l.2-.25-.28.2.08.05zM251.3 505.88l-.14-.45.14.45zM198.42 80.22l.22-.38-.23.31.01.07zM1802.06 72.5l-.53.19.59-.15z"/><path d="M1802.12 72.54l1.67-.11.17-.09-1.9.16zM785.99 521l-.42-.18.33.18h.09zM914.29 519.43l-1.66.05h1.74zM1294.76 524.06l-1.66 1.47.14.05 1.47-1.59zM1092.4 527.13c-.44-.92-.89-1.65-1.51-.11l1.62.06zM1220.72 52.84H1222.36h-1.71zM1833.97 45.38l-.47-.18.39.18h.08zM816 531.55l.11.46c0-.15-.07-.31-.1-.46zM171.15 533.05l.33.41-.25-.35zM1842.89 37.84a6.56 6.56 0 00.26-1.06c0-.17-.17-.35-.26-.52h-.05v1.68zM828.06 533l.45.26-.31-.4zM1853.57 33.31l-.39-.23.33.23h.06zM1423.14 33.29v-.46.47zM261.96 537.64l-.31-.23.25.29.06-.06zM1497.09 13.58l-.45.05h.48zM1841.31 545.14c1.1-.51 1.28-1 0-1.5v-.09 1.67zM581.88 546.64l.22.36-.15-.32zM93.21 393.52l.05-.31.32.02-.37.29zM91.86 394.61h.25zM761.86 92.2l-1.56-1.51h-.08l1.52 1.65z"/><path d="M760.3 90.69l-.45-.21.37.2.08.01zM609.15 279.37l.41-.08-.38.06zM609.18 279.35l-.44.1.41-.08zM1782.49 95.19l-.51.1.5-.1z"/></svg>