<svg width="457" height="1338" fill="none" xmlns="http://www.w3.org/2000/svg"><g clip-path="url(#clip0)" fill="#FF2B59"><path d="M439 267.4c-3.7-3.7-4-4.3-3.8-9.7 2 3 3.2 6.3 3.6 9.8l.2-.1zm-9.4-15.1c2.7 1.8 1.9 5 2.9 7.5-1.7-2-2.9-4.5-3.4-7.1l.5-.4zm8.1 159.2c-.5-2.6-.3-2.8 2.4-3.4l-.2-.1c-.3 1.4-.4 3-2.3 3.4z"/><path d="M438.9 267.5l1.2 2c-2.3 0-1.1-1.3-1-2.1h-.3zm-4.3-11.2l.3.4-.3.3v-.8zm0 8.7l-.1-.3h.3l-.2.3zm5.6 6.8l.3-.2v.3l-.3-.1zm16.6 76.9l.1.3h-.3l.2-.3zm-19.2 62.7l-.2.3.3-.2h-.1zm-13.6 23v-.4h.2l-.2.4zm32.7-79.7l-.2-.4.5-.4v.5l-.3.3z"/><path d="M416.4 227.6l3.6 2.8-.1-.2 1.3 2.5-.1-.1c.1.9.7 2-1 2.2l-.2-.2.3.3 2 3.3-.3.9.2-1 2.9 4.6a30 30 0 004.3 8c.3.3.2 1 .2 1.6l-.4.4-3-2.5 5.4 14c.9 2.5 1.4 5.1 2.7 7.4a48 48 0 004.2 6.3 44 44 0 004 4l-1 1.7a8.9 8.9 0 003.4 6c.6 5.8 1.4 11.3 5 16 .2 1.6.1 3.5.9 5 1.2 2.5 1.4 5.1 1.6 7.8.3 3 .8 6 1.5 9 .3 1.6.3 3.1.2 4.7 0 4.8 0 9.6-1 14.4-.7 2.7-.1 3.4 1.6 5.9L452 359c1.6 1.7 2.5.1 3.9-.5l.3 2-2.4.7-.6.9c-.2 1-.7 2-.3 2.8 1.5 3 .8 6 .3 9.2l-.6 4.6 2.2 2.8-2.6 1.1c-1.4 3.5-2.1 7.3-4.8 10.1-.7.8-.8 2.2-1.1 3.3-.2.5 0 1.2-.3 1.5-2 2.3-2.8 5.1-3.8 7.8-.4 1-1.5 1.7-2.2 2.6l.1.1-.5-.2c-3 0-4.8 1.5-5.4 4.9-.8-.2-1.8-.6-2 .9 1.1.5 1.7 0 2-1l1.8 1a7.8 7.8 0 01-3 5.6c-3 2.2-5.2 5-7.6 7.7-1 1-2.1 1.9-3.3 2.7l.7 2c0 .2-.1.6-.3.8-2.6 1.7-3.5 5.3-6.8 6.2-1.6 2.7-4.2 4.5-6.4 6.6-2.3 2-4.3 4.4-6.5 6.6l-3.3 3-2.4-.9c-1.4.9-3 1.8-2.1 4a8.4 8.4 0 00-6.2 3 6.3 6.3 0 01-3.8 2.4c-3 .5-4.3 3.7-7.3 4.3-1.7 3.6-6 4-8.4 6.8a6 6 0 01-3.5 1.8c-2.5.4-4.5 1.7-6.6 3-2.1 1.1-4.4 1.3-6.5 2.3-3 1.4-6.3 2.2-9.2 4-3 1.7-6.2 3-9.6 4a32 32 0 00-9.3 4.3c-.9.6-2.5.1-3.7.4-1.2.3-2 1.1-3.2 1.4-2.7.4-5.4 0-8.2 1.2-2.6 1.2-5.6 1.4-8.5 1.8a114.8 114.8 0 01-16.8 1.5c-6.8-.2-13.5-.7-20.3-1-.4 0-.8-.4-1.1-.4-5.3.7-10.2-1.4-15.3-1.6-1.8 0-2.9-.7-5.2-2.5-1.6.8-3.4 1.3-5.2 1.4-6 .9-11.9 0-17.8-1.5a35 35 0 00-5.7-.7c-3 0-6.1-.8-8.9-2.3-1-.4-2.2-.6-3.3-.7-4.5-.8-9.1-1.5-12.9-4.5l.1-.1 1.2-1.2v.1-1.3.1c-2.5-2.4-5-4.8-9.4-4.6l-1.2.8c-.4-.1-1-.1-1-.3a5.6 5.6 0 00-4.6-3.9c-1-.1-1.9-.4-3-.7l-.3-2.6c-4.2-.2-4.2-.2-7.6-2.8l-18.4-14c-2-1.6-3.9-3.4-3.9-6.4 0-2-1.5-3-3.5-3.3l.2.2-1.7-6.1-5.3-2.7-3.5-7.4 1.6-1.4-2.9-3c-.6 2 .7 3.2 1.5 4.6H123a10.4 10.4 0 01-3-6.1c-.6-3.5-1.7-6.7-3.4-9.8l-2.2-4.6v.2c.5-.7.6-1.4-.3-2l-2.5 2.3v-2.8c-.7-1-1.4-2-2.3-3l3.5.8 1-3-.2-1.6-.5-1.3 2 .1v-.4l-1.8.4c-.9.2-2-.4-2.5 1.3l2.9-.2.1 1.9-4.5-.5-1.8-3.3-.2.2a8.3 8.3 0 005.7-7.3h-2l-2.2 3.4c-2-3.8-3.4-8-3.9-12.4l-2-.8-1-14.3-1.4-.8-1.5-1c1.8-2.8 1.8-6.6 5.1-8.5-1.2.2-2.5.3-2.5-.8-.2-4-1.8-7.7-1-11.7a4.5 4.5 0 012.5-3.6c.2 1-.2 2.3 1 3.5.2-1.6.3-2.8-1.1-3.4l.1-1.8-1.8-1-1.6-9.9-2.5-1c.1-1.3.4-2.7.8-4 1-2.9 1.5-6 1.2-9 0-.5.4-1 .6-1.6l-.2.2 1.6-.3.4-1.2c-.4-1.4-1-2.8-1.3-4.2-.4-2 .3-3.9 1.6-6l3.8-.1 1-2v.1l-2.1-1.5-8.4 3-2.6-.7v.1l-1-2c-2.3-.4-4.4-.7-6.5.6-.9.6-2.1.4-3.2.6l.8-2.5-1.7.3 1 2c-1.3 1-1.3 1-4.2.5-.7-3.9-4-5-7.5-6-5-1.3-10-3.4-14.4-6.2h2.3l5.1 1 1 .5-1.1-.4a10.5 10.5 0 00-5.5-3.3c-3.2-.7-6.3-1.1-9.5-1.6l.2.2-1.8-1.7c-2.3 3.4-5.4 2.5-8.5 2.4 2.7.8 5.1 2 7.8 2.7v.6l-4.1 3.2c-3.9-2.2-9.3-1.5-10.7-7.6l-1.4 1.6-2.7.3c1.7 1.2 2 0 2.6-.5l.8 1.4a1.7 1.7 0 01-2.6.5c-3.4-2.7-8-2.9-11.5-5.8l.1-1.6-5.3-2.5-1.6 1.7c-3.5-.3-3.5-.3-7-3.6l1.7-.2 1.9.1-2.6-6.6c-2.7-.4-3.1-3-4-4.6-1.1-2.2-.7-5 1.6-7.6l.8 5.3c.2-.2.5-.4.5-.6.4-2.7.6-5.4.7-8.1-.2-2-.5-3.8-1-5.7 2.4-4 2.6-8.4 3.1-12.8L8.1 217c.2-2.3 0-4.7.1-7 0-2.1.6-3.9 2.7-4.7l-1 4.7c2-1.7 1.3-3.2 1-4.6l1.3-4.2c2.3-.7 2.8 1.5 4.6 2l3.1-.3-1 2.7-.1.2v-.4l1.8 1-1.4 2.1v.3l8.1 2.7-1.7-3 2-1.8 9.7 2v2.3l2 1.1v2.5c7.3 1.4 14 4.3 21.4 5 1.4.1 2.7.6 3.8 1.3 2 1 4 1 6 1.5a5.3 5.3 0 005-1c.6-.5 1.7-.3 3-.5l-2 2.8c2.1 1 4 1 5.5-.5h3.5v2c4.4 1.2 8.8 2.7 13.3 3.7 2 .4 4.2 0 6.4 0l3 2c2-1.2.2-3.4 2-4.7 1.1-.8 1.6-2.5 2.4-3.8.8-1.3 2.8-2 2.7-4 2.4-.7 1.5-3.4 3-4.7l1.1 1.3.5 2.4 2.2-2.5-2.8.3-1.2-1.4.8-7.2 5.2-3.2-.7 4.7 1 .9c1-1.7 1.4-3.7 2.5-4.3 1.8-1-.2-3.3 1.9-3.8.8 1 .8 1 2.5-.4l-2.7.6-.7-2.5 4.2-2.8-3.2-1.8-4.8 1.9v-4.2l-.2.1a2 2 0 001-2.8 3.9 3.9 0 01.4-3.2l-.1.2 3.5 1c1.6 1 1.6 1 2.8-.3l-3 .5.3-6 .1-.3-.1.4-1.3-.3h.2-1.4.1-1.6c-1-2 1.5-2.6 1.4-4.2v-4l1.8-1 2.5 2.2 3-5.4c-.3-2.2-4.8-2-2.8-5.7l3.4-.8a3.8 3.8 0 00-3.2-3c-3-.6-6-1.5-9-2.3l-1-2.6-3.5 2a1 1 0 01-.7 0c-10-3-20.3-4.8-30.5-6.6l-8.5-2a12 12 0 00-6.2-.5c-2.7.6-5.1-1.1-7.4-2.6-7.1.7-13.5-1.6-19.4-5.6l-.3-.1.4.1c-.4.3-1 1-1.2.9l-19.4-6-2.3-3-2-.3.7-.7-4.7-3.2c-.3-2 2.3-4.1-.5-6l-3 2 .9-3.7 5-1c2.7-5.5.7-11.7 2.9-16.3-.3-2.2-3.1-1.4-2.1-3.8l2-.3c.4-1 .8-2 1-3.1.1-.4-.6-.8-1-1.2v.1l1.8-1.5c-1.4-2.1-1.4-2.1-1.4-8.2l2.5-1.4 1.5-7.3-2-3.4c3.2-1.1 6 .4 8.7.3l-1.1.8v.6c1.9 1.4 3.2-.6 4.7-.8l14.6 3.8c2.6.8 5.2 1.8 7.7 2.7 2 .6 4.1 1 6.2 1.7l2.2 1.3.4.1h-.5c0-1.7-1.4-1.1-2.3-1.3-.8-2.5-3.3-2.3-5.2-3l-1.3-2.9c-5.3.7-10.1-1.4-15-3.1-.2-1.5.8-2 2-2.4 3.2-1.1 6 .2 8.8 1.7.8.5 1.7 1.5 2.4 1.4 3.1-.5 5 1.5 7.3 3.2 2-.2 4-1.8 6 0l1.5 3.8 3.2-2.3c.8 0 1.9-.3 2.7 0 2.5 1.4 5-.5 7.3 0 2.4.7 4.5 2.5 6.8 2.9 5.5 1 10.8 3 16.5 3.2 1.2 0 2.5.8 3.6 1.2l.4 2.8c3 .4 6 .7 8.4 3.1 1 1.1 3.2 1.3 4.9 1.5 2 0 4.2 0 6.3-.4.7-.1 1.4-1 2.3-1.6l-2.5-1.9c.3-1.8 1.8-1 2.6-1.1l1.5-3.5 2.3-.5 3.3-1c.3 0 .7-.6.6-.7-1-2.2 2.6-1.3 2.2-3.5-.2-1 1-2.4 1.6-4l-2.4-5.2c1.7-4.3-2.4-7-3.3-10.3l1.5-3.3-.1.1 1.5-3.3-3.2-1.8v-2.4c.2-.2.3-.6.6-.8l4-2.2a3.9 3.9 0 001.7-4.2l-5.3 2.3c0-.8-.3-1.8 0-2 2.7-2.3 2.1-5.5 2.7-8.4l-1.9-.7.1.1c-.9-2.1 1-3 2-4.3.3-1.6-1.3-3.5.7-4.9-.2-2.3-.6-4.7-1.2-7-1-2.5-1.6-5.2-1.7-8-.2-1-.6-1.9-1.1-2.8l2-1.9-3-1.7c.6-.3.9-.7 1-.6l8 1.5 11.2 2 2.9-1.7 4.8 2.7 1.8-2.4h8.1l1.2 1.6 4.2-1.9-.1.2 1-.7-1-.7.1.2c1.8-1.7 3.7-1.3 5.7-.8l14 3c2 .2 3.8.3 5.7.1 2.5-.2 5 .2 7.3 1.2 1.7.9 3.7 1 5.6 1.4l.2 4c2.2.5 2-1.5 2.8-2.5l2 1.7-.2-.1c1.5 1.3.7 3.2 1.3 4.8-1.2 0-1.2.4-.5 1.6l.4-1.7c.4-.5 1.2-.8 1.3-1.3 0-1 0-2-.3-3.1l.4-.5 3.2-.4-.3 3.6c-.2 1.3 0 2.6.3 3.8.8 1.6-1.5 2.2-.8 3.6l.1-.2-1.9.8c-.3 2.3-.5 4.8-1 7.2-.3 1.6-1.3 3-1.8 4.6 0 .8 0 1.7.2 2.6-.7 2.1-1.6 4.2-2.7 6.2-1.8 2.6-3 5.5-3.8 8.6-.6 3-.7 6-1.8 9-.8 2.2-.4 5-.6 7.4-.1 1.4-.4 2.7-2 3.1-.4-.3-.4-1.6-1.4-.4l1.6.2c.3.7.6 1.5.7 2.2-.4 4-.8 8-1.4 12-.1 1-1 2-1.6 3l.7 2-2.9 6.3 2.5 3.2 12.8 1.8-.2-3.9 4.2 3 7-3.8.7-3 3 2.6c6.5-.4 13.2.9 20-.4 1.9-.4 4 .2 5.8 0 5.1-.6 10.3-1 15.2-3 3 1.4 6.4 1.8 9.6 1 4-.5 8.3 0 12.4 0l-1.3-2.4c3.7.2 5.4 2.5 6.7 5 .9 2 .2 3.8-1.6 5.5 2 1.4 4.2 2.7 4.3 5.7-1.5 1.8-1.3 4.3-1 6.4.5 2.9-.2 5.3-1 8.2 2 3.6 2.9 7.9 2.4 12-.1 1 0 2 .4 2.9.4 1.7.3 3.5-.3 5.1a40 40 0 00-1.6 10.7l.2-.2c-3.2-.4-6.2-.6-8.3 2.7a2.5 2.5 0 01-3.4.9l-.1-.3.2.3-1.8 2.5-2.8-1.7-3.7.3c-.5-.9-1.1-1.4-2.2.1l2.3-.3v1.9c-2.4.8-4.3-1.2-6.8-1.5l-1.6 1.2.1-.2c-2 .5-4.1.2-6.6 1.3h6.6l-.1-.1-.2 1.9-16.3 2.7-1.7-1.6-5.5-.3a5.3 5.3 0 01-4.2 2.5l-11.5.6c-.6 0-1.2 0-1.7.3-2.8 2.2-5.4 1.2-8-.5l-2-1-12.6.9c-4.8-3.3-11.2-1.2-17.5-3.2l1.4 3.7-5.9 1.1c1.3 4.5-.5 8.8-1.1 13-1.3 8.3-2.6 16.6-5.7 24.4-1.3 3.4-1.3 10-.6 13.6l.6.2.4.5c1.1 1.6.3 2.8-.6 4.1h-2l1.2 2.7.1-.1-.8.4.8.9-.1-.2 1.6 1.5-.8 4 1.3.4c2.5-.6 4.8-1.8 8.6-.4l1.5 2 8.6 2 1.6-1c2.5.8 5.3 1.6 8.2.3.4-.2 1 .1 1.6.3a8.3 8.3 0 007.2-.7c1.9-1 3.8-1.8 6-.2.5.3 1 .3 1.6.2 4.8-.5 9.6.2 14.4.3 3.4.2 6.8 0 10.2.4 3.7-2 8-.5 11.8-1.8 1.6-.5 3.5 0 5 0l2.7-2.4c.5 0 1-.2 1.3 0 2.7 2 5.5 2.2 8.7 1.4 3.1-.7 6.2-1.2 9.4-1.5 1.1 1.7.5 2.8-.6 3.8v-.2c2.9 2.3 3.2 5 1 8.3l2.7 2.3-.1-.1.5 5.3-2.5 1.1a12 12 0 00-.3 2.8c.8 5.7 1.5 11.3 1.8 17.7a23.8 23.8 0 00-1.6 13.1l1.8 1.5-.1 2.4-2.8 1a4 4 0 00-.5 1.3l.2 7-.2 4-3.4 2.3.2.2c-.4-1 .3-2.8-2-2.2l.6 2.2.1-.2c-1.4.4-3 1.2-4.4 1a7.6 7.6 0 00-3.8.3 6.5 6.5 0 01-5.2 0l.1-2-3.4-.7c-1.6.8-.8 1.8-.9 2.7l.2-.1-10.8 3-3.2-1.8H252c-2.3 0-4.6.3-6.8.8-5.6 1.7-11.4 1.4-17.1 1.5-1 0-2 0-2.9-.4-2.7-.9-5.7-1-8.5-.3-1 .3-2.3-.3-3.4-.4l-.9-4c-.4-.1-.8-.3-1.3-.3-2.6.4-5.2.3-7.8-.3-2-.3-3.9-.4-5.8-.2-.6 0-1.2.8-1.8 1.2l.2-.1-5.2 1.3.2.1-.6-2.2-3 1h.2-1.5l.1-.1-2-.5-4.4 6.2-2-3.6-1.8.6c-1 1.8-.7 2.8 1.7 5.1l-2.2 1c-2.3 7.4-2.3 7.4-1.7 16.3l3 1.6c-3.2 5-2 10.4-.8 15.6 1.3 5.2 2.1 10.7 5.1 15.4.2.3.3.7.3 1 1.3 7 5.6 12.6 9.2 18.4 3.5 5.3 3.7 5.6 4.3 10.5.7.8 2.4-.6 2.8 1.2l-.2.2.3-.4c2.7 0 3.6 1.8 4 4.3l1.9-.1 9.4 5.8a7 7 0 002 .9l11.3 2.4c3.2.9 6.5 1 9.8.7a10.8 10.8 0 018.4 2l24.7-2c1.1 0 2.3 0 3.4.2 3 .4 5.8.4 8.5-1.3 2.4 1 4.5 1.7 7.2.5 4.7-2 9.9-1.5 14.9-1.5 3-.1 5.9-.8 8.5-2.1 1-.6 2.1-1 3.2-1.4 5.7-.8 10.5-3.7 15.4-6l2.7-4.3 3.2.9a9.7 9.7 0 015.7-5.8l2.2 1c1.6.2 2.5-3 4.8-1.8l-.2-.1 1.4 1c.6-1.6 1.4-3.2 2.2-4.7.8-1.3 2-2.4 2.8-3.6l2.7-4.3-2.3-.6-.1.2c2-.9 2.6-3 3.8-4.5h-.1l3.5-.4-3.6-.9h.2l4.7-4.3-1-2.9 2-2.5-1.8-1.5 1-1.5 2 .6c1.6-3.8 2.7-7.8 3.1-12l2.7-.6 1.7-4.1-2.4 1.4c-.7-2.5-1.4-5-.6-7.7a6.6 6.6 0 00-.3-5 7.5 7.5 0 01-.6-4c.7-5-2-9.5-2.4-14.3-.1-1.2-1.6-2.2-2-3.4-1.6-4-3.4-7.9-5.3-11.6-.5-1-.3-2.2-.6-4.4l-2.5-1.5-.3-5.2-2.4-3.3V271l-3.7-3c-1.4-3.4-1.3-7.2-4.1-9.7-.7-3.4-2.9-6.2-4.6-9.1-1-1.8-1.7-3.7-3.4-5-.3-.3-.5-.9-.7-.8-3.6.4-3.7-2.7-4.7-4.7l-2-.5-.3-2c-1.6-2.1-4.1-.5-6-1.4-1.7-2 1-3.1.9-5l-.2-.2-4 .8c-.2-2.2 1.8-2.6 2.3-4l.7-3.7c1.8-1.4 3.1 0 4.6.3l.1 1.6 4.6-.6c1-.1 1.2-.7 1-1.5-2.1-1.5-4 .9-6 .7-.4-2.2 1.5-3 2.4-4l9.2-1.9c4-1 8-1.4 12-1.5 2.1 0 4.2-.7 5.8-2.1.3-.3.3-.9.5-1.5l20.7-5.2a9 9 0 007 .4l.3-1.5 6.5 2 .4.3-.5-.2 1-1.2 1-.7-3.1-1.1 4.8-1.3v4.7a8 8 0 005.6.8c2-.2 3.9-.2 5.2 1.6l-1.7 3 .2-.1c-1.1.4-1.2.9 0 1.4l-.2-.1a14 14 0 016 5.8 4.5 4.5 0 003.6 2.4l-.2-.1 1.4 1.3-.2-.1v3.4l-.3.2.2-.4zM210.7 486v.1l-.2-.1h.2zm-45.4-39.8c-.1 0 .2.4-.2.2l-.3-.2h.5zm-41-225l-1.3 1-.3.2.1-.3 1.5-1v-.3.4zm19.8-174.5v-.3l.1.3.1.2-.2-.2zm3.5 19l-.3-.2h.4l.3-.2-.4.3zm-23.7 329h.9c-.1 0-.3-.2-.4-.1a2 2 0 00-.3.3c-.3.2-.1-.1-.2-.1zm68-7.7l.2.1h-.4l-.2-.5.3.4zm216.3-156.6l-.3-.5.5.3.2.4-.4-.2zm-285 18.4l-.3-.2.4.3v.3l-.2-.4zM40 280.3h.3l-.4.1-.3.2.4-.3zm311.3-21l.1.8.1-.3-.4-.4-.6-.7-.2.6h1zm-338 15.2l.2.6-.4-.5-.7-.4.9.3zM289 292.2l.3-.1-.2.3c-.6-.2-1.2-.3-.7.7l.6-.9zM422.5 243h-.4.5a247.8 247.8 0 011.2 3.3l.5-.4-.9-.3-.9-2.6zM55 106.5h.2-.3c.2-1.5-.6-1.3-2.2-.8l2.3.8zm-4.5-2.6l.2.3-.3-.2-.2-1.8c-.5 1.2-.5 1.2.3 1.7zm71.4 124c.3-.6 1.3-1 .2-2.3l-.1 2.3-.3.2.2-.2zm48 221l-.4-.2h.5l.3.3-.4-.1zm-128.8-318l.4.2-.5-.1-.3-3.8c-.6 2.1-1.5 3.3.4 3.6zm80.5 288l-.2-2h-.4l.7 1.8.6 2.2c.8-1.5.8-1.5-.7-2zm223.3-181.3h.2l-.4-.2c.7-1.7-.7-2-1.8-2.5l-.1-.3.1.3 2 2.7zm2.8 5.4l-.4-.2h.6v2l.9-.3-1.1-1.5zm-199-209.2v1.3c-.5 1.2-.8 2.4-1 3.7-.3 4.2-.4 8.4-.4 12.6 0 .3.6.7 1 1 1.3-1.7-.4-4.2 2-5.3l1.3 1c1.1-2.6-1.9-4-1.8-6.2v-8.1l1.5-2h-2.4l-.2 2zm225.9 275.7v.4c.4.6.1.2-.2-.2-.7-1 .7-2.8-1.8-3.7l2 3.5zM27.1 132l.2.3-.2-.2c-.2-1 .2-2-1.1-3l-.9 2.7 2 .2zm35.3 98a1.6 1.6 0 00-2.5-.2c.2.8-.5 1.8.6 2.5l2-2.5 1 3.2 1.4-2.3-2.5-.7zM173.5 40c-1.4-.3-2 .4-2 1.7 1 .8 1.8 1.5 2.8 0l-1-1.8.7-1.6-.5-.2V40zM288 300.4l-.2-.2.3.2 1.1.7 1.9-3-.7-.6-2.4 3zm-127.3-264l-3.6-.8.2 4 3.2-3.4c.2-.2 1.3 0 .4-.8l-.2 1zm-55.3 202l.5.2h-.6c-1.6-1-1.6-1-4.5 0 1.7 2 3.2.2 4.6-.1zm33 154.3l.2 2.4c.9-1.4 1-2.1-.4-2.3.2-1 .3-2.2.2-3.3-.3-2.2-.9-4.4-1.4-6.6l-.7-2c.1 4.2.3 8.1 2 11.8zm14-198.7c2-3.4 4.2-6.7 4.4-10.8-1.2-.4-1.8 1.4-2.8.3l.5-3.6c-2.7 2-2.3 4.8-3.3 6.4l1.3 7.8-3 .5c-.7 3-1.5 5.6-2 8.3v4c-.4 1.6-1 3.2-1.7 4.7-.7 1.3.3 2.8-1.2 4-1 1-1.3 3.2-1.3 4.9 0 1.7-.8 3.3.7 5.2 1-.9 2-1.4 2.2-2.1l3.3-13-2-3.9c1.1.3 1.7-.5 2-1.4l2.9-11.3zm-116 86.4l.2.3-.3-.2c-.4-.3-.9-1-1.1-.9a39 39 0 00-3.8 1.5l-4.4-3.4c-2.4.7-5.6-.2-6.4 3.3 2.2-.4 4 1 6.3.7 2.3-.3 4.7 2 7.3 1.1l.5-2 1.7-.4zm95.3 151.7l1.8-1.6c-3-2-4-4.8-3.9-8.4l-2.3 1 1.9 7.7 2.5 1.3zm153-307.5c.5 1.9 1.7 1.7 2.8 1.4 2-.5 3.5-2.4 5.8-2 .5 0 1-.7 1.9-1.3l-3.4-2.3c-1.8 2.6-4.6 2.8-7 4.2zM112.1 305.8c.4 0 .9 0 1-.2 1-2 .3-4 .2-6.4-1.8 3-1.8 3-1.2 6.6zm45.1-259.3c3.3-.4 3.8-.8 3.6-2.3l-3.6-1.8v4.1zm137.6 68.1l-.6-3.6-4.5 2.1 5 1.5zm-142 311c-.5 1-.8 2-1 2.8-.1.3.2.6.3 1 1.3-.3 2.7-.4 3.8-2l-3.2-1.8zm61.7 46.4c-1.9-.7-2.5-2.3-4-4.9l.8 5h3.2zm36.4-57.2l-.2.9 1.5.4 7-.3-2.1-.7-6.2-.3zm-96.3 22c-.3-1.3-.7-2.5-1.3-3.8-.4-.8-1.3-1.4-2.1-.1.8 1.6.7 3.9 3.4 4zm66.8-132.2l7.4 1.2c-2.7-1.6-4.5-2.2-7.4-1.2zm-5.7.2h4l-4-3.8v3.8zM265.6 414c-.2.6-.4 1-.3 1.3.1.3.5.7.7.7 1.5 0 3 0 4.4-.2v-.5l-4.8-1.3zM91 295c1.4 1 2.7 1.2 4 .2-1.2-2-1.2-2-4-.1zm255.5-43.6c.1 2.6.5 4.5 2.7 5.7l.7-1.6-3.4-4zM218.3 12.6c.9 2.2.9 2.2 4.1 3.8-1.5-2-1.3-4.3-4.1-3.8zm-99 372.9l-4.6-3 1.9 4.7 2.7-1.7zM216 23.3c2-.5 1.2-2 1.5-3H216l.2 1.5-.1 1.5zm-3 40.1l1 .3.8-2.7-.8-.3-1 2.7zm-82.5 128.2l-4.1-3.7.2 3.7h3.9zM302.4 120c0-.1 0-.4-.2-.5l-1.7-.9-.2.5 1.6 1.2.5-.3zm-132-96.4c-.5.8-2 .8-1.3 2.2l3-.8-1.7-1.4zm112.2 89c2 1.3 2 1.3 2.5-.3l-2.5.3zM143 5.7c.4 1.8 1.2 3.2 3.3 1.9L143 5.7zm24.2 6c-1.4-1-2-.4-2.3 1.2 0 .3.3.9.5.9 1.5.3 2-.7 1.8-2zm-38.9 348.8l2.4 1.2c-.4-1.6-1.4-1.1-2.4-1.2zm100.8 122l2.4-1.4-1.6-1.2-.8 2.6zM105.6 242.8c1.5 2 1.5 2 2.6.3l-2.6-.3zm45.3-233c-1-1.2-1.7-1.1-2-.4-.3.4 0 1 .2 2.3l1.8-2zm-82.2 219c-.6-1.2-1.3-2.1-3-2.2.6 1.6 1.4 2.4 3 2.2zm381.6 99.6c-2 1-2 1-.3 3l.3-3zm-77.6 1c-.3 1-.2 2.1.3 3l1-1.2-1.3-1.8zm-2-12.3l1.8 2.6c.6-1 .7-1.9-1.7-2.6zm-236 79.5l1-.7-1.6-2.2-.7.4 1.3 2.5zM135 89v3.3c2-1.4 2-1.4 0-3.3zm-17.7 216.9c1.3-.5 1-1.4.6-2.3-1 .6-1.3 1.3-.6 2.3zm258.2 12l-.8.4c.2.3.3.6.6.8.2.1.5-.2.8-.4l-.6-.9zM209 24.8c-.2-.3-.2-.8-.5-1l-1 .3c.2.3.3.8.6.9.2.1.6-.1.9-.2zM48.8 226.2c-1.5-.5-1.5-.5-1.3 1.1l1.3-1.1zm77.8 115.3c1-.8 1.2-1.7.2-3l-.2 3zm-76-227.8c-.3.1-.7.3-.8.5l.4 1 1.1-1-.7-.5zm51.2 232.7l.6 2.1s1 0 1-.3c.6-1 0-1.6-1.6-1.8zm-27-263.5c1.2 2.3 2.1 2.3 3.2 1.7L74.8 83zm58.4 303.8c-1.4 1.3-.5 1.8-.3 2.4l.3-.2v-2.2zm-6.8-30.9l1.1 2h.9l-.1-.5-2-1.5zm8.6 22l1-.2-.5-2.5h-.5v2.7zm-3.8-4.5l.4.1.2-.3c-.1 0-.2-.2-.3-.1l-.4.3h.1zm78.6-288.7l.7.3.4-1.6h-.4l-.7 1.3zm-128-3.2V81l-1.8-.2v.8h1.8zm246 324.1l1.8-.3c-.1-.3-.1-.8-.3-.9-.7-.3-1.3-.1-1.6 1.2zM75.4 80.1l1.2 1.2c.5-1.4 0-1.6-1.2-1.2zm130.9-1.6h.5l.1-1.6h-.6v1.6zm-83.1 273.9l.7.4.3-.3-.5-.8-.5.7zm207.1 55.2v-.6H328v.6h2.4zM212 10.3l.8-1.3-.3-.4-1.2.8.7.9zm77.4 110.3l-1-.5c0 .3-.3.7-.2 1 0 .3.5.3.8.4l.4-1zM127 123.5v-.4h-2v.4h2zm211.6 98l-.4.2.2 1 .7-.3a30 30 0 00-.5-.8zm-190.3-167c-.3.6-.5.7-.4.9l.2.7.2-1.6zm-125.5 163c-.4.5-.2.2 0 0zm98.1-5.3h.5v-2h-.5v2zM267.1 424v-.3h-1.6v.3h1.6zm116.6-114.3c-.1-.4-.1-.9-.4-1-.2-.2-.6.1-1 .2.2.4.2.8.5 1 .2.3.6-.1.9-.2zm-259.9-95h-.5v1.9h.5v-2zm162.8 281c-1.6-.5-2.3-.2-1.2 1.3l1.2-1.3zM213.8 20.3h-.4v1.4h.4v-1.4zm-5.9 451l-.1-.4-.2.4h.3zM35 210l-.1-.7-1.5.3.1.6 1.5-.2zm159.8 257l.3.4.9-.4c-.2 0-.3-.3-.4-.3-.3 0-.6.1-.8.3zm-4.3-2.8l.1-.5-.6.1c0 .2 0 .4.2.5l.3-.1zm-7.4-5.5l-.4-.2-.6.1c.2.1.3.3.5.3l.5-.2zm3.6-2l-.3.3.3.9.4-.8-.4-.4zm35.1-422.4l-1-.4-.3.4.7.4c.2 0 .4-.3.6-.4zm-74.8 394c-.1-.2-.3-.2-.5-.2l-.1.3.4.2.2-.4zm-104.7-204l.4-.4-.3-.3c-.3.1-.5.3-.6.5l.5.1zm96.7 1.2v-.4h-.6l.2.5.3-.1zM188.4 384l.4.1.1-.3-.4-.1-.1.3zM86.6 104.7l-.3-.4-.9.2.3.4.9-.2zM127 353l.2.5.1-.5h-.3zm244.3-9.4l-.1.4h.6l-.2-.4h-.3zm-98-226c0-.1 0-.3-.2-.4h-.5l.2.5.4-.1zm7.7.2l.5-.3-.4-.3c-.3 0-.5.2-.6.4l.5.2zm-168.3 3l-.4.2h.4v-.1zm261 205l.1.6.2-.5h-.4zm71.8-3.8l.3.4.8-.4-.2-.4c-.3 0-.6.2-.9.4zM125 307.9l.1.3h.5l-.1-.5-.5.2zm-77.2-174l-.3-.4H47l.4.6.4-.2zm6.3 0v-.3h-.6l.2.6.4-.2zm-13.6 1l-.4-.1.3.4.1-.3zm94.7 110.5l-.2.5h.7l-.2-.5h-.3zm148.5 56.3l.3-.3v-.5l-.6.3.3.5zM49.7 138l-2.4.5.4.3 2-.8zM123 245.9l.1.3h.5l-.2-.5-.4.2zm8.9.4l-.4.4.4.8.4-.3a7 7 0 00-.4-.8zm261.8 49.8c.1 0 .3-.1.3-.3v-.5l-.5.4.2.4zm-26.6-5.5l-.3.1-.1.5.5-.1-.1-.5zm-288.3-.3h-.4v.4l.6-.1-.2-.3zm284.8-6.1l-.1-.5-.3.2.1.4.3-.1zM153.8 175.8l-.2.4.6.2v-.5h-.4zM26.3 275l-.5.3.3.4.6-.5-.4-.2zm16.6 13.5l.2-.3h-.3l.1.3zM296.4 300l.4.2v-.4l-.4.2zm80 15.2l-.4-.3v.4l.4-.1zM174 330l-.2.4h.3l-.1-.4zm-34.3-139l.3.2v-.3l-.3.1zM66 107l.3.2v-.4l-.3.2zm55.3-13.2l-.2.3h.3l-.1-.3zm-11.8 292.7l.2-.3h-.3v.3zm40.9-318l.2-.3h-.3l.1.3zm133.4 347.9l-.4.3.3.3.4-.3-.3-.3zm-160.1 5.9l-.2.3h.3l-.1-.3zm18.6 2.8l.2-.3h-.3l.1.3zm9-382.5l.3.2v-.3h-.3zm-2-29l.2-.3h-.4l.2.3zM169 4.3l.2-.3h-.3l.1.3zm119.3 491l.4-.3c-.1 0-.2-.3-.4-.3l-.3.3.3.4z"/><path d="M195.7 302.6c1.4 1.7 3.4 1.5 5.3 1.5 2.3 0 4.6-.4 6.9-.5a2.2 2.2 0 012.4 2.2c-5.3.9-10.5 0-15.5-.2-1-1.8.4-2.3 1.1-3h-.2zM128.2 87.3c-2.5 1.4-4.8.2-7.4.2 2.6-3.6 5-1.5 7.4-.2zM41.5 69.2l-.6 1.6-3.2-.5c-1 .1-2 .4-2.9.8l-.7-2.1-.1.2 7.6.1-.1-.1zm146.9 417.1l-5.8-2c2.3-.4 4.7-.5 7.1-.3v-.1 1.4-.2l-1.2 1.2zM414.7 219c-2-.6-4.3-1.1-3.8-3.9.5.2 1 .2 1.2.5l2.6 3.4z"/><path d="M41.6 69.3L36.8 66c2.3-1 3.9 0 5.8 1.2l-1.1 2h.1zm182 94.6h4.8v.5h-4.8v-.5zM22.8 81.3v-3.7l.5-.1.4 2c0 .6-.2 1.3-.4 1.9l-.5-.1zm392.5 142l.6-2 3 2.8-2.4.3-1.3-1.2.1.1zM95 225.6h5c-1.7.6-3.5 1.7-5-.2v.2zm92.3 79.4l.1-1.1h-.2 3.7-.2c-.1 2.1-.7 2.6-2.3 2l-1.3-1 .2.1zm6.3-86.8c.3-.1.7-.4.9-.3.2.1.3.6.4 1-.3 0-.7.3-.9.2-.2 0-.3-.6-.4-.9zM224.8 9.3c0-.9-.3-2 1-2.1 1.4-.1 1.4 1 1.5 1.9l-.5.4-2.2-.3.2.1zM49.3 283.9c-.4 1.5.1 3.4-2.2 3.7H47c-.3-2 1-2.9 2.5-3.5l-.2-.2zm71.4-80.5l.3-4.6c1 2.1 1 3.4-.4 4.5l.1.1zM18.2 110.2c.1.6 0 .3 0 0 0 .3.2.6 0 0zm270.2-21.7c.7 0 1.3-.1 1.3-.3 0-.2-.6-.3-1.3-.3-.7 0-1.3.1-1.3.3 0 .2.6.3 1.3.3zm68.2 201.2l-.7.5-.8-1c.4-.2.8-.4 1-.3.3.1.3.6.5.8zm-298.4 4c-1.1.8-1.6.6-1.8-.4l.1-.4 1.7.8zM181.5 2.2h-2v-.7l2-.3-.1-.2v1.4l.1-.2zM59.4 216.6c-.2.3-.4.6-.6.6l-1-.3c.3-.3.4-.7.6-.7l1 .4zm2.6 1.2l-.8.2v-1l.4-.1.4 1zm265.6.7l-1.9-.3c1.2-.6 2-1.1 1.8.4h.1zm-263.1.3h1.8c-.9 1.1-1.3.7-1.7-.2l-.1.2zm8.5 1.6l-.5.2c-.2 0-.3-.2-.5-.3l.5-.2c.2 0 .4.2.5.3zm64 227.3l.3.3v-.4l-.2.1zM82 223.3l-2.2-.3c1.2-1 1.9-1 2.3.2zM219.7 53l-.1 1.4h-.4V53h.5zM113.9 413.8l.3.4-1 .5-.3-.5 1-.4z"/><path d="M95 225.4h-2.4c1.3-1.1 2-1 2.3.2l.2-.2zm10.8 1.1h.3l.2.5h-.6l.1-.5zm103.3 169.7l-.3.4.1-1 .2.6zm213.2-163.6h-1.2v-2.4.1c1.3.3 1.3 1.3 1.2 2.3zM100.2 371c-.1 0-.3-.2-.2-.3l.4-.3v.4l-.3.3zm202.2-139.3l.3.4-.7.3-.4-.3.8-.4zM4.2 233.5c.1 0 .3 0 .3.2l-.1.5-.4-.2.2-.5zm120-41.8c-.5-.3-1.4-.5-.4-1.4l.2 1.6.2-.2zM100 313c-1 .1-1.4-.2-1.1-1.4l.9 1.6.1-.2zm87.1-8.1c.1.9-.2 1.2-1.2.7l1.4-.6-.2-.1zM89.5 301a6 6 0 01-.3-.9l.3-.3.3 1.1-.3.1zm269.5-2.5c-.1 0-.4.1-.4 0l-.2-.4h.6v.4zm-286.7-.7l-1.6-.4.8-.3.8.7zM127.7 181v1.2l-.5 1c-.3-.3-.7-.6-.9-1-.1-.4.1-.7.2-1.1h-.1 1.4-.1zM48.1 294.6l1.6.2-.2.5c-.7.2-1.4.3-1.3-.8v.1zM310 150.8l1.5.2c0 .3 0 .5-.2.5-.9.4-1.2 0-1.1-.8l-.2.1zm-25.6 6.9h-2.5l.2.2v-1.3h-.1c.9.2 2-.2 2.3 1.3l.1-.2zm68.5 123.5l.3.9-.4.3v-1.2zM2 270.6l.2 1.4h-.5v-1.4h.4zm347.3.4l-.3-.3.3-.4.3.3-.3.3zm-37.5-113.1l.3.4-.3.3v-.7z"/><path d="M284.3 157.8l.5.1-.4-.2-.1.1zm66.3 117.5h-.3v-.2l.3.2zm1.3 3.5l-.4.2v-.4l.4.2zm2.7 7.5l-.5-.2.3.3h.2z"/><path d="M354.4 286.4l.9.3-.5.5-.2-.9-.2.1zm-303 5.3l-.4.1v-.4l.4.3zm-3.2 2.8l-.8-.1.3-.6.4.8.1-.1zm19.3 1.5l.2.5h-.4l.2-.4zM38.2 140.6l.1.3h-.2l.1-.3zm87.2 45.4l-.2-.3v.3h.2zM93.7 300.3l-.3.9c-1-.8 0-.6.4-.8h-.1zM2.2 245h-.3v-.2l.3.2zm185.2 59l-1.3-1.4v.2h1.4l-.3-.1v1.3h.2zm107.4-1.3l-.5.8-.6-.8v.1h1.3l-.2-.1zm66.3.3l.1.4h-.3l.2-.4zm-85 1l.6.5c-.1 0-.4 0-.4-.2v-.5l-.2.1zm25.9-60.7l.3-.7v.3l-.4.3h.1zm-123.6 69.5v-.4h.2l-.2.4zm190.9 26.6l.1.4-.4-.1.3-.3zm53-106.8l.9.3-.5.5-.4-.8zm-63 134.4l-.4-.7c0-.2.2-.3.4-.5h-.2v1.3l.2-.1zm-3.8 4.3v.2-.2zM21.2 93.3l-.3.3.3-.2v-.2zM16 200.6v-.3h.3l-.2.3zm333 183v-.8l.1.3-.4.4.2.1zm71-153.3l.7-.9.4 1v-.2H420l.1.2zM107.6 398.8v-.5l-.1.7v-.2zm13-195.5l-.3.8c-.7-.7 0-.7.4-.7h-.1zM34.1 69l-.9-.6c1-.5.8.3.8.8l.1-.2zm106.4-14l-.4-.7.4.2-.1.5h.1zm47.9 168.3l1 .8-1 .2.1.2v-1.3l-.1.1zm32.2-173.5l-.1-.4h.3l-.2.4zm-83.3 397.8c-1-.2-.2-.8-.4-1.2l-.1-.2.3 1.5.2-.1zm190.2-229l1 .4-.4.5-.5-1v.1zM140.6 31.5l-.6.5c0-.1 0-.4.2-.4h.5l-.1-.1zm-76 187.1l-.4-.4.3.6.1-.2zm124.8-2.6l1-.8-.5 1.3-.5-.5zm216.5-2.2l.4 1-.5.2.2.2v-1.4h-.1zM229.6 19.6l.4.9-.2-1-.2.1zm-90.6-.2h-.3v-.3l.3.3zm9.6 15.7v-1.4h1.4v1.4h-1.4zm-59 935.2c1.5-1.6-.3-2.9-.2-4.4l-5.3-.6c-1.4-4.8-3-9.4-4-14.3-.8-3.7-2.6-7.2-4-10.8-1.5-3.5-3.3-7-4.6-10.5-.4-1.5-.6-3-.7-4.6l-2.4-2.6-.1.1c1.8-1.6 1.1-3.4.6-5.3-.6-2.2-2-3-4.2-3-.7 0-1.5-1-2.3-1.6 1.7-.9 1.7-.9 3.8-.1l.9-3.8c0-.1 0-.4-.2-.5l-3.8-3V902l1.4-.8c3.4-.7 4.8-2.8 4.5-6.3 4-2.2 7.7-4.9 12.4-5.2 1.3 1.4 1.5 1.4 2.5 0l-.1.1c2.4.2 4-1.5 6-2.6l-.1.2h2.6c1.8-3.2 5.2-4 8.5-4.7 1.2-.1 2.3-.4 3.3-.7 5.7-3 11.8-4.3 18-5.3l7.8-1.4c.2 0 .2-.6.3-1h.4l-.2.1c-1-.2-2-1-3.3-.4-1 .4-2.5 0-5.1 0 2.6-.8 3.9-1.6 5.1-1.6 5 0 9.7-1 14.6-2.3l1.6 2.6-2.9 1c0 1.2.4 1.8 1.6 1.7l-.1-.1 2.5 2.1 2.3 6.4-2.4 1.6 8.7 24 3.6 1.4-1 2.5c1.6 2 3.3 4 4.7 6.2 1 1.2 1.5 2.7 1.7 4.3 0 2.4 1.2 4.4 1.7 6.6.4 2.2 1 4.5 1.7 6.6.9 2 .1 4.4.7 6.7 1.7 6.3 4.8 11.8 7.7 17.5l1.7 3h2.5l3.6 11-.5 2.4 1.7 1.2.2 2.8 2.8.8c.1.4.5.8.4 1-.5 1.3 0 2.2.7 3.2 1 1.4 2.4 2.7 2.8 4.3.4 1.6.5 2.9 1.8 3.9-.7 3 1.3 5.5 2.3 8.2a34 34 0 002 3.9c1.3 1.7 3.4.1 3.8 2.1l-2.5.3c.9.4 1.4.8 1.5.7.3-.4.6-.8.7-1.2l3.5 2.3c1.4.1 1.4-1.1 1.6-2.2h-.2c.6.8 1 2 1.8 2.2 2.4.6 3 2.8 4.8 4.6 4.2 1.2 8-1.5 12-3.2 1.8-.8 3.4-1.9 5.7-1.7a14 14 0 017.1-4.3 33 33 0 005.4-2.2l7-3.5-1.3-3c1.3-.9 2 .3 2.9.9l.2.1-.4-.2 3.4-3c1.4-1.6 3.2-2.8 5.2-3.4 3.8-1.3 7.3-3.5 10-6.5 2.5-.5 5.4.3 7.3-2.2l4.9 1.7 5.1-3.2c1.1 1.5-.5 1.8-.5 2.6l.2.4 1.7-.1c3.5-.2 6-2.1 8.2-4.7-1.7-1.2-3.3 1.1-5.3-.3l4.8-2.4 4.7-1.6V972l.9-3.1c2.6-.7 5-1 7.1-2.6 1.6-1.2 4-1.4 6-2l-.3 1.2-.2 1.6.5 1.3-.2.4h-.4l.7-.5-.6-1v-2l2-.2-1.8-.7.3-1.8c3-1.5 5.7-3.5 8.8-4.3 3.3-.8 5.1-4.2 9-4.3l2 1.5c2.6.4 4.8-1.4 7.2-1.7 2.4-.4 4.1-3.5 7-1.6l.8-2.4 2 .3c1.4-.4.5-1.7 1-2.9l2.4-2.5 4 .3c1.9-1.8 4-3.2 6.4-4.3 2.3-1 4-3.4 6.1-5.5 3 .5 6.3-.3 9.7.9a3.6 3.6 0 004.8-2.1l-.1.1c4.5 2.5 4.7 3.1 3.8 9l3 2.4c2.5 5.5 5 11.1 7.7 16.7l8.4 17 6.7 8.6c-1.4 2.5-3.9 1.3-6.3 2.2-3 3.2-6.9 5.3-11.2 6l-5.8 4.4c-1.8 4.3-.8 5-6.3 5h-3.6c-.4.2-1 .4-1.4.8-1.4 2-4.3.2-5.7 2.1a7.8 7.8 0 01-4.9 3l-6.2 1.6c-3.4.5-6.6 2.1-9.1 4.5l.7 2.5c-1.2.4-2.4 1-3.6 1.6-1 .7-2.1 1.6-3 2.5-2.6 2.6-6 3.7-9 5.3-1 .4-2.3.2-3.4.3l-1.4 2.7-3.3-.6c-1.3 2.2-3.7 2.9-5.4 3.1-2.5 2-4.3 3.8-6.4 5-3.7 2.1-7.6 3.9-11.5 5.7-2 .8-3.7 1.8-6 1.8-1.6.1-3 .8-4.2 1.9-3.2 3-6.7 5.3-11.1 4.6-1.2 1.8-2 3.2-3.1 4.5-1.1 1.4-2.3 2.6-3.7 4-1.5.8-4.2-1-5.4 1.8l-.4.3-.6.1c-3.5-.2-6.1 2.1-9.2 3-1 .3-1.8 1.3-2.9 2.1-1-.3-2.2-.2-3.2.1-1 .4-2 1-2.7 1.9-.6.8-.5 2.1-.7 3.5l-7 3.2c-.8.9-.9 3-3.1 2.2-2.3 1.5-4.7 2.8-6.8 4.5-2 1.4-3.6 3.4-6.5 3.1-.8 0-1.7.7-2.5 1.2l-3.6 2 .2 2.3c-1.3 1.3-2.1-1-3.4-.8-3.4 0-5.2 4.5-9 2.9l-5.6 5.1.1 2.4-2.8 2.4c-2.5 2.4-5 4.7-8.7 5.3-2 .3-3.8 1.8-5.8 2.8l-.7 2.7-7.2 2.2c-.7 2.6-2.6 4.4-5.3 5.6l1.4 4.2c-1.5 2.3-4.2 1.6-6.6 3l-1 3.8-3.4 2 1.5 2.1c-.2 1.3-1 1.9-2.4 1.7l-1-.5c-2.6 1.6-5.3 3-7 5.7-.6 1-1.6 1.7-2.8 2-3.8.8-6.4 3.4-8.7 6.2-4.3 5.1-9.3 9.6-13.8 14.5-3.2 3.4-5.4 7.4-8.2 11.1a7.8 7.8 0 00-1.5 6c.3 2.9 1.7 5.5 3.8 7.4-.4 1.5-.6 3-.7 4.6.2 1.5 1 3-.7 4.3 1 2 2.9 3.7 2 6.2 2.7 5 2.8 10.8 4.5 16 1.2 3.9 3.5 7.2 6.8 9.6 1.7 1.3 4.1 2.3 4.1 5.2H141v-.3h.2l.5 1 .6-.9c2.5-.7 2 3.3 4.3 2.7 2.3 3.3 5.7 5 9.4 6.6l-.5 2.4 2.5 1.5.3-2.8c3.6 1 7.2 1.6 10.6 3 5.6 2.2 11.6 3 17.4 4.4 8 2 16.3 2.8 24.5 4.3 1 .1 1.8.3 2.7.7 2.7 1.6 5.5 1.6 8.7 1.5l-1.8-1.2c.2-1.4 1.3-1.4 2.2-1.3 4.6.4 9.1 1 13.7 2 2 .6 4.1.8 6.2.8 3.5-.2 6.9.4 10.3 0a9.8 9.8 0 018 2.3 24 24 0 0116.2-.5c.3-.2.6-.8 1.1-1l10.1-2 1.9 1.7c1.2-.7 2.4-1.7 3.8-2 1.3-.3 2.6.2 4 .3l-.1-.1 2.4 1.8-1.2 1.6 7.7-1.3 2-3.5c2.5 1.5 5.4-1.1 8.6 0l.8 3.3c2.6-1.3 5.3-2.5 8.5-1.2l1.2-2.5 12.9-1.3c.2 1-1 2 .5 3 2.3-1.1 4.6-2.9 7.5-3.1 2.7-.2 5.4-.6 8.3-1l1.2 1.7 1-.1a12.6 12.6 0 0110.5-4c2.2.1 4.5-1.4 6.8 0l-.2-.1 1.2 2.9c1.5.6 3.1 1 4.7 1.3 1.4 0 2.8-.6 4.6-1l-2.2-5.3 11.2-2.4 3 2 5.3-1.3 2.8-.4c-1.2-.7-2.3-1-2.6.6l-1-1.7 7-2 7.6 8.9c-3.2 3-4.2 6.8-4 11a6.6 6.6 0 01-2.2 5.7c-.8.8-.9 2.3-1.3 3.6l3 2.4-1 2.4-.4-.3.5.2c.2.5.6 1.3.4 1.6-2 2.3-1.5 4.7-.6 7.3v2.8h.2c-1.1.3-.5.8 0 1.3h-.1c1.9 1.5.4 3.6.6 5.4.2 1.2-.6 2.5-.5 3.8.2 1.3.5 2.6 1 3.9l.9 2.5-1.6 9.2-3-2.2-12 3.2-2.3-1.3c-10.8 2.8-21.5 6.4-32.5 8.1-6.7 1-13.4 2.3-20.2 2.4-1.3 0-2.6.6-4 .7-1.2-.1-2.4-.4-3.6-.7l1.8-1.6v-.3h-.5c-5.5-1.5-11-2-16.5 0 .2 1.5 1.3 1.2 2.1 1.4 1.4.2 3-.7 4.3.3-.4 1.3-1.3 1.2-2 1.2l-15.1 1c-.2 0-.4.2-.6.1-4-1.7-8 0-12 .4-1.7 0-3.5 0-5.2-.2-2.4-.1-4.7 0-6 2.1-2.3-.7-4.3-1.8-6.3-1.7-4.5 0-8.9 1.1-12.8 3.2-.6.4-.8 1.2-1.3 2h-5l.2-1.8a28.1 28.1 0 00-9.8-1.8c-4.2 0-8.5-.2-12.7 1-.7.2-1.5.3-2.3.2-5-1.2-10-.3-15-.8l-4.6-.7c-1.5-.2-3.2-.8-5-.4-1.3.3-2.9-.8-4.3-1.3h.1c-4-1.3-8.4-1.4-12.5-.4l-4.7-2.6a20 20 0 01-10.8-.3c-4.5-1-9.3-1-14-1.3-1.7-.2-3.4 0-5 .6-2.3.8-4.6-.9-6.8.3-2.4-2.2-6.5-1.1-8.7-4-.5-.6-1-1.1-1.7-1.5v-.5c0-.3 0-.6-.2-.9l-.3-.7-.4.5.9.1.1 1.7c-3.9-1-7.8-2-11-4.6a7.9 7.9 0 00-3.9-1.3c-3.3-.4-6.3-2-8.4-4.7-2.6-.4-5.4-.6-7.2-3-.8-1-2.4-1.3-3.6-1.9-1.3-.7-3-1.2-4-2.2a8.4 8.4 0 00-4.4-2.4c-2.7-.7-5-2-6-4.5H85l-.2-1.9c-1.4-1.6-2.7-1.1-4.2-.3l-4.5-6-.7.7-1-4h-1.7l-3.5-8.8-3-3.5.2.1c-.5-.8-.8-2-1.5-2.3-3-1.4-4-4.1-5.3-6.5-2-3.4-3.6-6.9-5.3-10.3-.6-1-1-2.1-1.4-3.2-.4-2.4-1.4-4.7-2.9-6.6-.6-.7-1-1.6-.9-2.6.3-3.3.5-6.6-.5-9.9-.3-.9.5-2.1.8-3.2.6-1.8.6-3.5-1-4.8.7-1 3.2-1.3 1.4-3.6l-1.8.2-1-2c-1.6 0-1.6 0-.9 4.5l-2.5-1.8-1.2 2c-1-.5-.4-1.5-.7-2.3l-.9-2.9 2.6-3-2-2.7.2.1 1-4.4a15 15 0 00-1.2-1.3l-1.2-1c-.5-1.4 1.2-5.9 4.4-11.6 0-2.6-2.3-4.8-1.3-8l2-.6.1.4-.1-.3a349 349 0 01-1.1-4l1.5-1.7c3 .4 1.6 2 1.4 3.3l1.2 1c1.3-.2 2.2-3.3 1.7-5.6l.2.1v-3.1l4.4-3.9.8-1.6-2-1c-.2-.3-.4-.6-.4-.9.3-1.8 1.1-3.6 2.3-5 2.2-3 3.2-6.6 2.9-10.2l-.1.1v-1.4a30 30 0 011.8-4.1c1.8-3 3.7-5.7 5.8-9-.3-1.2 0-3.3 1.3-4.2 2.1-1.3 2-3.8 3.6-5.3l-2-2.3 3-1c.5-1 .4-1.8-.7-2.2l.1.1c1.2-1.9 1.2-1.9 4.2-3.5v-3.4l5.1-3.5-.1-.2a6 6 0 010 2.3c-1.3 2.8-2.8 5.5-4.2 8.3-.3.5-1.2 1-.2 1.8 4.8-5 6.2-7 11.4-17.9l-2.3-.3.2.1-2.6-2.7 1.4-2.7h2.4l2.8-4.7 2.7-.3 2.2.6.1-2.3c2.6.1 2.7.1 3.7-2 2-.5 2.3-2 2.3-3.8 1-.3 2.4.2 2.7-1.7l-2.3-1.3c0 1.3-.2 2.2-.3 3.2-.9 1.1-2.8 1.6-2.3 3.7-2-.7-2.4 1.4-3.7 2a3 3 0 01-2.6 1.7l.6-3.2c3.1-3 6.4-6.5 8.2-11 .8-1.7 2-3.3 3.6-4.3l6.6-5.2 1.2 1.4-2.8 2.6c1 .3 1.8.8 2.3.6 1.8-.6 3.5-1.5 5.3-2.3l-.2-.1.2 3.4c2.6.4 3-1.8 4-3l-1.2-4.4.8-3.5 3-.2 1.9-3.5c1.5-.1 2.8-1 4.8-.7 3.3.5 5.5-1.5 7-4.4-2-1.7-1.5 1.4-2.8 1.4l-2.5-1.4.2.2a2.6 2.6 0 00-2.3-2.3l-.4-.4c1.4-4-.6-7.2-2.2-10.6 1.1 1 2.2 1.5 3.2-.1l-1.7-1.8.2-.2-.3.4-1.3 2c-.7-1.2-1.8-2.2-2.1-3.3-.7-2.9-2.1-5.5-4-7.7a5.4 5.4 0 01-1.2-5.6 10.6 10.6 0 01-4.5-7.5c-.7-4.3-3-8.1-6.6-10.7l1.4-3c-2.3-3.5-4.8-7.1-6.9-11-2.1-4-3.4-8.4-6-12.3-.8-1.1-.6-3-.8-4.4-3.5-2-4.7-5.4-5.4-9l.3-.8-.3.9c-1.8-1-1.5-2.5-1.2-4v.1zm125.2 97.3l-.4.1.4-.3.2-.1-.2.3zm182.5-75l.4-.2-.3.3-1 .1c-.2 0-.3.3-.5.4l.5-.2.9-.4zm-161.6 85h2c-.8-.8-1.5-1-2 .2-.3.1-1.1 0-.4.7l.4-.8zm150-126.3h.1c-.9 1.5-.3 2.2 2 3a73.5 73.5 0 01-2.2-3zM182 1106l2.4-2.2c-1.8.2-2.7.7-2.2 2.4l-1.5-.3c-.2 0-.3.4-1 1.4l2.3-1.3zm23-15.7c2.6.4 2.6.4 3.8-2.3l-3.7 2.4-.3.6.2-.7zm21.4-6.4l-4.5 1.5 3.9 2 .6-3.6v-.3.4zm-60.9 44.3c-2.5-.3-3.5 1.7-5 3.1l.2-.1c2.3.1 4.3-.5 4.7-3.2l1-.3-.6-.5-.3 1zm56-65.6c4.2-1.5 4.2-1.5 5.8-3.3-3.4.5-3.4.5-5.7 3.3l-2.2.3c.7.4 1.1.8 1.3.7l.9-1zm18.8-11.7c-1.5-.3-1.4-1.4-1.6-2.5l1-.2.5-.3c-.2 0-.3.2-.5.3l-.8.3c-4.4 3.4-4.4 3.4-6 7.3l4-1.5c1-.4-.7-1.8.8-2.1.9-.4 1.7-.9 2.4-1.4.6 0 1.3.3.7-.7l-.5.8zm134.8-113.4l-2.4 3 .3.3c2.2.7 2.2.8 3.3-.2.4-.3.4-1 .6-1.4l-1.8-1.7zM300 1329.4v.6h7v-.6h-7zm54.3-3l-.2-.8h-4c-.6 0-1.5 0-1 1.6l5.2-.8zM218 1081.1c2.5 0 3.8-.3 4.8-2-1.8-.3-2.7 1-4.8 2zm63.8-80.9c-2.4-.1-2.4-.1-3.1 1.4l3.1-1.4zm-72.6 263c-2.2-.6-3.4-1.2-5 0l2 .5 3-.5zm-34-154.5c1.4 1 2 .8 2.7-.7l-2.7.8zm167 220.1c-.6-1.9-.5-2.9-1.7-2.4l1.7 2.4zm-81-311.8l-1.6 1 1.8 2.5c0-2 0-2.6-.2-3.6zm121.5-70.6c-.4 0-.9.2-1.3.4-.2.2-.5.4-.6.7.3 0 .7.3 1 .2l1-1.3zm-276 138l.4-1-.5-.2-.3 1 .4.1zm-38-180.9c-.1-1.6-.1-1.6-1.6-2l1.6 2zm129 358.5v-.2h-.5v.3h.5zm133 .2v-.5H329v.5h1.7zm-105.5 1.2l.4.3.2-.4-.4-.2-.2.3zM151.5 1138l-.2-1-.5.3-.1 1 .8-.3zm78.6-81.7h.4v-1.3h-.3l-.1 1.3zM210.8 1263s0 .2.2.3h.4v-.5l-.6.2zM99.5 927.5l-.9-.4-.5.6c.3.2.6.4.9.4.3 0 .3-.4.5-.6zm117.8 144l-1-.5-.2.5.8.3.4-.4zm145.5-127.3v-.5h-1.7v.5h1.7zm-241 129.3v.4l1.2.1v-.4h-1.3zm126.7 1.5l.5.1.2-.3a2 2 0 00-.5-.1l-.2.3zm-44.3 3.1l-.4-.1v.6l.4-.1v-.4zm31 2.6l.6.2v-.3h-.5zm67.9-110v.3l.6.1-.1-.6-.5.2zm-73.2 114.6l-.4-.2v.7c.1 0 .3 0 .4-.2v-.3zm-11.7 3.7v-.3h-.5l.5.3zm38.7-78.5l-.4-.1-.2.3.4.1.2-.2zm-56.8 94.4l-.2.4h.4l-.2-.4zm-7.3 3.7l.3.3v-.4l-.3.1zm21.5-23.2l-.3-.2v.3l.3-.1zm94.5-116.7l.2-.3h-.3l.1.3zm76.1-30.8l-.2.3h.3v-.3zM43.3 1219.6l-.2.3h.4l-.2-.3zm143 40l-.3-.3-.3.3.3.3.4-.3zm224.2 12l.2-.4h-.4l.2.3zm-.8 25.5l-.3-.4-.4.3.3.3.4-.3zM233.4 844.7l-.1 3-8.8 1.8-2.8-2.8c-1-.9-2-1.6-3-2.6l.9-1.2 3.8 2c.2 0 .4 0 .5-.2 1.4-1.6-.6-1.2-1.3-2l1.3-2.7c.2.3.5.8.7.7 3-.6 6.4-.5 9.2-2.3l2.4-2.2c-4.3 1-8.4 2.4-12.5 4l-1.1-3.3c-1.8-1-3.3 0-5 .9l-.2 1.9-2.7 1.2-.4.5-4 1.9-2.8-.9-1.4 3.2c3 .5 6-.1 8.7-1.6 1 1.3-.1 2-.5 3-10.5 2.1-21.3 2.5-32.4 3.3 0-.9-.2-1.7-.3-2.6h-.7c0 1.7-1 3-2.5 2.5-2-.6-3.2 1-4.9 1.5l-9.7-1.9-2.2 2.7-3.3.4c-.5-.5-1.3-1-1.3-1.3.9-2.1-1.2-3.2-1.4-4.8h-3.4l.7-3c-1-1.7-2.2-.1-3.6-.9-1-1.9-1.6-4-1.6-6.2l.4-.4 3.8 2.1a68 68 0 00-1.3-7c-.8-2.1-1.6-4.2-2.6-6.3l-2.5-1.6.2.2h-1.4v-.2c-.2-.4-.7-.8-.8-1.2-.3-5.1-2-9.9-3.3-14.7 0-.2-.4-.3-.5-.4l.2.2-.5-2.7-2-.3.4-4.3c-3-5.4-4.2-11.9-6-18.7l-2-1.3 2.5-3-.5-2.8 2.2-2-1-2.5c.2-.4.3-.9.6-1 2-.2 4-.9 5.8-2 2.4-1.4 5.4-1.9 8.2-2.8l5.3 1.3 3.7 3.5 7.2-1.7 7.3-1.3c2.5-.5 4.6-1 7-1.3 2.2-.2 4.8.2 7.2-.4 2 2 4.7-2 6.7 1l-1 1.8c3.6 1.5 7-1 10.5-1.3h-2l-2.8-1v.3l2.3-3 4.5.9 4.6-2c.5.3 1.2.5 1.3.9.6 1.3 1.2 2.5 2.8 2.5l-.1-.1 1.3 1.3c1.8-4.1 4.6-6.1 8.9-5.9l-.6 2.7 3.3-.4.2.2-.3-.3 1.3-1c1.4-1 3.1 1.3 4.8-.6 1-1 2.7-1.3 4.2-1.8 1.3-.6 2.9-.8 4.4-.5 1.4.3 3.1-1 4.8-1.7l2.5 1c1.3-4.3 4.5-3.6 7.7-3.3l.2 1.3c.3 0 .8.2 1 0 1.5-1.6 3.6-2 5.6-2.8 8-3 16-5.7 23.2-10 .6-1.8-1.2-1.7-1.9-2.5l-.6-.6 2.6-.9a2 2 0 002.1 1.3l2.7-.2-2.2 2c3.8 0 3.8 0 7.4-3.3l-3 .2c.2-.4.5-1 1-1.2l6-1.3-.7-3 3-.4-.1-.2 1 1.8 4.6-2.6-1-3.5.4-.4 1.7 1 1.2-3.9 4-.4h-.1v3.8c1.3-2 2.3-2.6 2.5-3.9l-.3.2c3.2-.5 5-3 7.4-4.6v.2l-2.9-.6.2.1 1.7-2.3c2-1.1 4.5.5 6-1.5 1.3-1.6 2.4-3.3 3.6-5l-1.2-1.3 3.6-.6.5-2 .4-.3v-.2l-.3.6-2.6-.3.1.1c.1-.6 0-1.4.3-1.6 2.8-2 4.7-5 7.9-6.5 1.8-.8 3.2-2.6 4.6-3.8l-.7-3.3 2-1.5.1.2c2-2 2.7-4.5 3.4-7.1 1-3.7 2-7.4 3.3-11 .3-4.5 1.1-9.1 0-13.6-.9-3.3-1.2-6.6-.8-10 .1-1.8-.8-3.7-1.2-5.7l-3.5-1-5.5-14.9c-1-2.8-3.9-4.7-4.3-8l.6-.1-.4.3-2.8 1c-2.8-1.9-6.1-3.4-8.3-5.9-2-2.5-5.7-3-7.6-5.6h4.8c-2-1.2-2.9-2-3.8-2.1a16 16 0 01-8.8-2.9l-2.6 1.9-5.7-.5-4.4-3.4h-10.5l-1-1.8c-2.3.4-4.6 1.3-6.9.1l-2.5 2.9c-3.2-.2-6.7-.6-10.1-.6l-10 .3 1.3-3c-.6-.2-1.4-.6-1.6-.4-2.4 2-6-.1-8.1 2.5-2.9.4-5.8 1.2-8.6 1.2-6.4 0-12.6 1.8-19 1.2-2.7-.3-5.5.1-8 1.1a25.4 25.4 0 01-8.4 2c-4.7.5-8.8 2.5-13.3 3.4-8.4 1.7-16.6 3.8-25 5.6-1.8.4-3.8.5-5.7.8a7.7 7.7 0 01-5.5 3.5l.5 2c-2.5.3-5.1.3-6.7 2.7l.2-.1c-7 .4-13.8 1.9-20.3 4.4l-21.6 8.1c-2.8 1-5.6 1.5-8.3 2.7-3.8 1.6-7.5 3.6-11.2 5.6-1.4.7-2.6 1.6-4.3 1a2 2 0 00-1.6.5c-4.5 4-10 3.6-15.4 3.6l-.6.1 1.5 2.2c-1.7 1.8-1.7 1.8-4.1 1.6-1.7 1.8-3.4 3.6-6.7 3.4l3.9-6.7-2.1-.5-2.6 3h-2l-1.2 4.6c-2.4 0-.7-2.4-2-3-1.3 1.7-3.2 1.6-5 1.6l-.7-6.2-3.2-.4v.2c-.4-1.1-.9-1.1-1.3 0v-.2c-2-1.2-2.6-3.2-2.8-5.3-.4-4-1-8-1.6-12.2l2.4-.3.2 2.3.3-.1-.7-2c-.4-3-1.7-5.8-3.7-8h.1l-3.7-5.7c-.3-.5-.6-1-.7-1.6-.3-4-3.6-6.9-3.1-11.6l1.4-2.6a12.9 12.9 0 01-1.7-10.6c-.5-1.4-1.1-2.8-1.8-4.1-.9-1.1-1.9-2.1-2.9-3l3.6-3.4H33c4-3.7 9-4.2 14.4-2L51 577l-1.1-1.9c3.7-1 7-2.1 10.9-1.3a5.6 5.6 0 004.1-1.4c2.2-2 5-2.3 7.4-3.3 1.8-.7 3.8-.4 5.4-2 .7-.5 1.7-.8 2.7-.7 4.4 0 8.6-1.3 12.9-2.6 5-1.4 10.2-2.2 15.3-3.4 5-1.2 9.8-2.6 14.7-3.6 4.8-1 9.2-3 13.9-4.2 2-.6 4.1-1 6.3-1.3 3-.5 6-1.6 8.6-3 1.7-1 3.5-1.8 5.4-2.3 6.2-1.6 12.4-3 18.7-4.5 1-.3 2.2-.4 3.4-.4 3 0 6.1-.7 9-1.8 1.1-.4 2.3-1.2 3.3-1 3.5.4 6.5-.6 9.6-1.9 4-1.6 8.3-1.6 12.7-1.4l4.7-3.4c2.9-.4 6.3-1.2 9.8-1.4 2-.1 3.8-.3 5.7-.7 4.6-.8 9.3-1.3 13.9-1.9l11.6-1c1.7-.1 3.4-.5 5-1 2-.8 4.2-1.1 6.3-1l15-.4c2.5 0 5 .4 7.2 1 2.6.8 5.5.1 8.2 0l1.4-2.2 3.3 2.5c2.8-.3 5.6 0 8.3.9 3.4 1 7.2.7 11.5 1l1.8 1.4c.3 0 .7.2 1 0 3.5-2.1 6.7-.2 9.2 1.5 5.2 3.3 10.8 6 16.7 7.8 2.7.9 5.2 2.6 5.8 6l2.9.8 1.5 3.1c4.1 1.8 8.4 3.6 12.6 5.6 3.8 1.8 8.2 2.9 11.8 7.3l-4-.5-.3-.1h.5c-.4.9 0 1.3.8 1.8l12.1 9.2 4.4 1.1c1.2 1.4 1.4 3.3 2.7 4.8 5.4 6.3 8.6 14 12.3 21.3 3 5.9 4.3 12.4 7.1 18.2 2.5 5.2 3.2 10.7 4 16.2.9 6 2.3 12.1 4.3 18v1.1l-2.1-1.1c.1.7 0 1.5.3 1.6.8.5 1.4.1 1.7-.7l1.3 2c-.8 1.9-3-.5-3.2 2l1.4 1.5c-.4 1.2-.7 2.5-.8 3.7 0 1.6.2 3.2.6 4.8l-1.7 3.6-.5-.9-.5.9-.6.1v.4l.4-.7h1.4c.3 2 .4 3.8-1.6 5.1l-.1-1.2.2 1c.3 2.8.8 5.5-.4 8.4l-1.2-1.1c-1.6 1 0 2.5-.6 3.7l-2 3.5c-.2.7 0 1.6 0 2.3 0 1.5.4 3.3-.3 4.5-1.7 3-1.5 6.3-2.4 9.5-.6 2.6-1 5.3-1.1 8l-.4 5.4-4.1 1-1.6-.2c-1.7 4-1.7 4-1 6.3 1.5-.8 1-2.3 1-3.5.3-1.2.5-2.2 1.7-2.7l2 4.2-1.3 1.2 1 1.6-1.6 1.7-.6 5.4c-.5 1.9-1.1 3.7-1.8 5.5l-3.4 3.8-3.2.5c-.4 2.4-.4 2.4 2.1 3.9a9 9 0 01-4 6.5l.1.1-.6-1.6c-.3 0-.5.1-.7.3-2.8 1.8-2 4.8-2.1 7.2-1.5 3.3-4.4 5-6.8 6.4-1 2-1.4 4-2.6 5.3-1 1.3-2.8 2-4.7 3.3l-2.6-1.6-.1 3 .1-.2-3.4.3-1 2.7 3.3.4-.2-.1c0 .5.1 1.2-.2 1.5-2.8 2.8-5.7 5.6-8.7 8.3-.8.8-1.9 1.8-2.9 1.8-2 .2-2.6 2-4.2 2.5l-.2-.2.3.3-2 2.4-2.9-2.3V792l.2.2-1.2-.1h-.1c-1 .5-2.5.5-2.3 2.2v-.1c-.7.6-1.3 1.6-2.1 2-5.8 2-10.1 6.3-15.3 9.3a10 10 0 00-1.9 2.1l.4 2-2.8-1c-2.7.2-3.7 2.6-5.4 4.4l-4-1-2 1.9-4 .6-3 4.3-10.2 3.3-1.6 3.3-5.4 1.7c-2.4-.8-5-1-7.5-.5-4 .7-8 1.8-11.8 3-2.8 1-4.7 3-6.3 5.6-2.2-2-4.8-1.5-7.5-2.2l-3.2 4.8.1-.2c-.8.5-1.4 1 0 1.3l-.2-.1c-1.3.7-1.3.7-3-.5l-.8 2.7c-3.2 1-7.4-.7-9.7 3.4l-4-1c-3.8 4-8.8 3.7-14.3 2.9l1.9-.8-1-.7-2.8-.1-.2-.3.3.3zM131.6 579.3l-.2-.2h.4l-.2 1.4h-4.8.1c-.9-.3-1.8-.9-2.6-.7-1.6.3-3.2.7-4.7 1.2l3 2.3 7.3-1.6c.8-.1 1.4-.4 1.5-1.3.9-.2.9-.6.2-1.1zm235 6l-.9.4 1 .5-.2.2v-1.2h.4-.4zm-4.7 152.9l.3-.3-.2.4-1.4 1.3c-.8.4-1.6.9-.9 2.2 1.2-.5.9-1.4.8-2.3l1.4-1.3zm16.5-21l.3-.3-.2.5h-.4l.3-.1zm-27.2-32.8c.4 0 1.1.2.6-.7l-.5.8c-.2.2-1.2 0-.3.8l.2-1zm-45.6-141.7h.3l-.4.2.1-.2zm84.4 85.5l.3.6-.4-.4-.3-.3.4.1zm-113.7-61.6c.5 0 1 1 1.4-.2l1.5-.3c-.9-.3-.9-.3-1.4.4l-1.6.2-.2-.4.1-.5-.2-.1.4.9zm29.5 205.8l-.7.1.6-.3.4-.4-.3.6zM272 785.2l-.8.3.6-.5 1.1-.7-1-.5c.2-1.5 1.7-1.4 2.6-2l.2-.3-.3.4c-2.8-.9-5.3-.9-7 2l-2.6 1c-3.8.9-7.4 2-10.4 4.7l-.3.5.1-.7c5.5 1 8.7.4 12.7-2.2l-2.3-2.3c1 0 2.1 0 2.7-1l4.7-.2v1.5zm71.1 16h.4c.6-.4.2-.1-.2.2l-.4.4.2-.6zm7-218.3l.2.3-.2-.4-1.3-.8-.1.2 1.5.7zM139.7 578l-2 .5.2.4 1.7-1c.8-.5 2 .7 2.9-1.4l-2.8 1.5zm224.7 10.5l-1-.3 1.1.2c-.1 1.3.5 1.6 1.7 1.2-.3-1-1-1-1.8-1v-.1zm5.7 4.6v.4-.3l-.4-1.5-.7.6 1 .8zm-13-43.4c.8 0 1.8 0 1.5-1.1 0-.2-.6-.3-1-.5 0 .6-.2 1.2-.3 1.7l-.2.3v-.4zm-256 65.6c1.3 0 2.8.8 3.7-1 1.1-.4 2.7.3 3.4-1.3l4.9-1 .1-.1-.2.3-2.3-.1a2 2 0 00-2.3 1c-1.3.1-2.7 0-3.5 1.3a2.8 2.8 0 00-3.6 1l-3.2.4c1.8.9 2.8 1.3 3-.5zm252.7-70l-.1-.2.3.1 1.3 2.1c1-1.8 0-1.9-1-2h-.5zm-173 222l-.1-.2.2.3c1.1 1.5 2.5 1.1 4 .4l-4-.4zm156.4 28c.9-.3 2.4.6 2.4-1.8l-2.2 2-1.6.6c1.2.5 1.7.3 1.4-.8zm52.7-186.8l.2.2-.3-.3c-1.6-2.4-1.6-2.4-3.5-1.6l3.6 1.7zM344.4 627l-.2-.2.4.3-.5 1.7c0 1.4.3 1.6 2 1.3l-1.6-3zM203.1 844.5l-1.2-.2 1.4.1c-1 2-3.3.6-4.5 2.2 1.7 1.1 3.2.2 4.8-.1l-.5-2zm154-100.3c-1.8-.4-3 .2-3.5 2.4l1.8 1.1c.6-1 1.2-1.7 1.6-2.6v-1h.1zM61.5 593.4l4.3-1.5-.1-3.4-3.9 1.2.4.8 1.3 1-.2.5-1.6 1.6-2.3-.1.6.7 1.5-.8zM189 830.7h6.6c.5-1.4 2-2.3.6-4l-2.7 2.6c-1.4.2-2.8.3-4 .6-.2 0-.3.6-.4.9h-.4.3zM63.6 600.2c-2.6.3-5.3-.7-7.9.2-.8 2.5.8 3 2.4 3.7l2.9-2c.9-.8 2.3-.5 2.4-2H65c.2 0 .3-.3 1-1.1l-2.4 1.2zm291-19.6l6.6 4.1c-.4-1.6-.4-2.3-.8-2.8-1.6-1.7-3.7-1.8-5.8-1.2l.9-2c-7.6-3.6-7.6-3.6-11-2.9 3.5 1 6.2 2 8 4.4.3.4 1.4.2 2.2.4zm26 19.7c-.4 2.5 1.9 2.9 3.2 4-.9-1.4-.8-3.7-3.3-4l-.2-1.8-3.5-1.1-2.7-4.7-1 3.4c2 2.6 3.8 5.2 7.5 4.2zM262.3 565l-4.5-.8-5.4 1.6c.5.8.7 1.5 1.1 1.6 2.7.5 5.4 0 7.8-1.2.4-.2.6-1 .9-1.4 2 .5 4 1.4 6.8 1-3.6-1.9-3.6-1.9-6.7-.8zm16 262c-3.8-.5-29.4 5.9-34.3 8 2.8 0 5.6-.2 8.4-.7 3-.5 6-1.4 9-2 2.9-.7 5.6-1.1 8.4-2 2.8-.8 5.6-2.1 8.5-3.2zm-57.2-28c-.7-2.7-2.4-3.2-4.2-2.5-1.8.6-3.3-.1-4.9-.6l-2.2 1.5 2.5 1.6c3-1.8 5.6-.8 8.8 0zm-24.3 3.5l.3 1 9.3-.3-.5-2c-1.1.3-2.3.4-3.4.5l-3.7-.7-2 1.5zM303 539.3l-9.6 1.5c4.3 2.1 7.3 1.3 10.5.7l-.9-2.2zm-110 257l2-2.7a5.2 5.2 0 00-6.8-.3c.6 3 3.5 1.8 4.9 3zm113.6-248.8c-4.5-2-7.4-2.2-10-1.3l10 1.3zm-19.4 274.6c-2.2.8-4.3 2-6.2 3.4l1.9 1.7c2-.8 3.5-1.7 4.3-5zm62.3-180.4l.2-3.8-3-4.7c.7 5.6.7 5.6 2.8 8.5zm-175.4-90.1l4.3-.3c1.3-.1 3 .5 4.2-1.8-3 0-5.9.7-8.5 2zM193 548c4.6.4 4.6.4 8.4-1.6L193 548zm54.4 16.7l.2-.9-4.9-.3v.8l4.7.4zm81.9 12.8c.2-2 .2-2-5.2-2.3.7.4 1.3.9 2 1.2 1 .5 2 .8 3.2 1.1zm22-33.6l-3.6-2.6c-.7-.4-1.6-.8-2.2.4 1.3 1.6 2.8 2.4 5.7 2.3zM203.6 799.3l1.3-2.2c-.9-1.2-1.7-1.9-2.9-1.1l1.6 3.3zM355.2 587c3.4.8 3.4.8 4.7-.2-1.5-.3-2.8-2.3-4.7.2zm-71.4-47.8c-2.3-.7-4.5-1.2-6.7 0h6.7zM370.4 731l1 .7 2.7-3.7a3.6 3.6 0 00-2.5 1.1l-1.2 1.9zm-88-187.3c2.1.2 4.2 1.1 6.2 0-2-.8-4.2-.8-6.2 0zM392 634.2l-2.1.7a4.7 4.7 0 00.8 4l1.4-4.6zm-144.6-67.8l-.1 1 3.4 1.5c0-.8 0-1.7-.2-1.7-1-.4-2-.6-3-.8zm-35.7 236.3c-1.3-1.5-2.4-1.5-3.7-.8 1 1.3 2 1.5 3.7.8zm170.2-35.9l1.7.5c.5 0 1-.2 1.4-.5-1.7-1.5-1.7-1.5-3 0h-.1zm-36.6-183.3c-.1-1.3.4-2.6-1.6-2.9-1 2.6-1 2.6 1.6 2.9zm-72.8-41.8l-3.1 2.8 4-.8-.9-2zm-98.6 225c1.9 1.7 2.7.7 3.6 0H174zM320 813l-4.5.4c1.4 1 2.4 1.7 4.5-.4zM91.4 619.4c1 .3 2.2.7 2.3-1-1.2-.7-2-.5-2.3 1zM388.1 630c0 1.5.2 2.6 1.7 2.6l.7-1.3-2.4-1.3zM313 571c.3 1.5 1 1.6 1.8 1.5.2 0 .3-.6.4-1l-2.2-.5zm22.4 8.4c-.6-.9-1.3-2.8-2.6-.6l2.6.6zm-149.6 252v-.5l-1.6-.2-2.1 1 3.7-.3zM29.4 586.8l-2.7-1.7c.7 1.8 1.2 2.6 2.7 1.7zm364 60.9c1.2-.8 1.8-1.6.4-2.9l-.3 2.9zM280.9 776.2l2.6 1.6c.3-1.9-.3-2.4-2.6-1.6zm-64.2 50.1l.2.7 2.5-.3v-.4h-2.7zM84 588.6l-.3-.4-.7.5.3.4.7-.5zm91.7 231.9v.3h2v-.2l-2-.1zm-2.3-17.2h4l-3.3-1.5-.7 1.5zm162.2 2.2c-.8-.6-1.4-.6-2 .2l-.1.5c.3.2.6.4.8.3.5-.2 1-.6 1.3-1zm58.6-192l-2.7-2.8c-1 1.8-.2 2.4 2.7 2.8zm-199-70v.4h1.9v-.5h-1.9zm82.8.3c.3-1.5-.2-1.8-1.7-1.4l1.7 1.4zM75.7 616l.5.2v-.2h-.5zm198.9-16.1l.4-.3-.8-1.2-.4.3.8 1.2zm-204.7-1.2c.3 0 .7.2 1 .1.3 0 .4-.4.6-.7l-1.1-.2c-.2 0-.4.5-.5.8zm283.1-7.2h-.5v.5h.8l-.3-.5zm-98.3-27.8v-.5h-2v.5h2zM187.4 822l-.8-.2.8.2zm-11-22.6l-.1-.5-.9.4.2.4.8-.3zM78 586.4l-2.2.4.3 1 2-1.3zm213.5 191l-.6 1 .3.3.6-.9-.3-.3zM180 580.5v-1l-2 .3v.6h2zm26.8-6.7h.4l-.2-.5-.2.5zm48.3 265.8l-.2-.4h-.6l.4.6.4-.2zm-16.6-3.8v.5l1.3-.2-.1-.4-1.3.1zm-65.9-4.4l-.1-.3-.8.3.4.3.5-.3zm76.7-1l-.8-.6-.9.4 1.7.3zm-50.1-.9l-.5-.9-.4.4.2 1 .7-.5zm-23.9-.6l-.9-.3v.7l.9-.4zm152.5-259.4l-.3-.4-1 .3.4.4 1-.3zM170.3 829v-.3l-.5.2.5.1zm87-1.4l.1.3.6.1-.2-.6-.5.2zm47.8-13l-.3.3.8.3.3-.3-.8-.4zm-88.7.2l1 .1h-1zM324.7 802l-.4-.3-.5.2c.1.1.2.3.4.3l.5-.2zM183 800.9l-.4-.3v.4l.4-.1zm54.5-.8s-.3 0-.3.2l-.1.4.6-.1-.2-.5zM103.8 584.5l-.4-.2v.5h.4v-.3zm189.7 188.2l-.5-.1-.2.3.5.2.2-.4zm31.2-10.2v-.3l-.5.1.5.2zM87.4 588.1l-.1-.4a2 2 0 00-.5 0l.1.6.5-.2zm83.5-24.4v-.4h-1.4v.4h1.4zM56.2 592.4l-.5.3.4.9.4-.3-.3-.9zM413 729.2l-.2-.4c-.2 0-.3.2-.4.3l.4.5.2-.4zm-51.7-176.7l-1 .5.5.4.9-.4-.4-.5zM376 725l.4.3.4-.8-.3-.4-.5.9zm-22.7-44.7h-.5v1.3h.3l.2-1.3zm-11-134.3a7 7 0 00-1-.4c-.2 0-.4.4-.4.4.2.2.5.5.7.5.2 0 .4-.4.6-.5zm-83.7-.8l-.8-.6c-.3 0-.5.2-.8.3l1.6.3zm67.5 65.3v-.4l-.6.2s0 .3.2.3l.4-.1zm-244.8 3l.7.8a6 6 0 001-.3l-1.7-.5zm307 24.8l-.5-.2v.6h.3l.1-.5v.1zm42 27.4l.1-.4h-.3l.1.4zM235 548l-.4.3.3.3c.2 0 .3-.2.4-.3l-.3-.3zm28 4.7l-.1.3h.3l-.1-.3zm-162.4 31.6l-.3.4h.4l-.1-.4zm255.2 201.4l-.3-.4-.4.3.3.4c.2 0 .3-.2.4-.3zm-160.5 13l.2-.3h-.4l.2.3zm142.4 5.6l.3.2v-.4l-.3.2zm-7 3.5l.3.3v-.4l-.3.1zM289.1 822l-.3-.2v.3l.3-.1zm-51.5 21l-.3-.2v.3l.3-.1z"/></g><defs><clipPath id="clip0"><path fill="#fff" d="M0 0h457v1338H0z"/></clipPath></defs></svg>