<svg xmlns="http://www.w3.org/2000/svg" viewBox="0 0 458 70.35"><defs><style>.cls-1{fill:none;stroke:#191926;stroke-miterlimit:10}</style></defs><g id="Jam"><path class="cls-1" d="M9.21 14.24a178 178 0 01-.55 40.56.6.6 0 00.65.68 280.81 280.81 0 0140.16-.36.94.94 0 001-1c-.3-3.33.14-6.61-.14-9.83A290.1 290.1 0 0021.1 46a169.19 169.19 0 01-.1-31.85c-3.75-.42-7.54-.45-10.76-.85a.87.87 0 00-1.03.94zM55.93 14.15c-.44 12.93-.88 25.87-1.61 39.52a217.36 217.36 0 0147.9.31 67.33 67.33 0 01.66-9.73 342.87 342.87 0 00-35.42.09c.08-1.92.16-3.84.24-6.57 10.28.14 20.55.29 30.89.06a25.22 25.22 0 00.46-8.69c-5.21 1.23-10.64.11-15.94-.69-4.88-.74-10.1-1.15-15 .54a.81.81 0 01-1-.89c.3-2.11.61-4.26 1-6.71a105.17 105.17 0 0033.68-1.25c.11-2.23.22-4.47.4-6.77a.91.91 0 00-1.12-1c-7 1.82-14.57.54-21.83-.37-7.82-.94-16.13-1.34-23.31 2.15zM107.51 13.13c.28 3.27.33 6.56.42 10.1 6.31-.63 12.65-.89 19.32-1.15.7 5.52-.39 11.08-1.07 16.61s-.88 11.31 1.38 16.25c3.59-.29 7.17-.59 10.33-1 1.15-5.2.33-10.6-.13-15.9s-.51-10.92 2-15.4c6.51.13 13 .25 19 .39a40.88 40.88 0 00-.54-10.81 119.33 119.33 0 01-37.34.85c-4.69-.62-9.54-1.52-13.37.06zM163.34 14.71c-.06 2.2-.15 4.4-.39 6.51a1.36 1.36 0 001.22 1.52 22 22 0 004.6 0 .23.23 0 01.23.26 21.38 21.38 0 01-1.69 4.81 1.74 1.74 0 001 2.42 4.93 4.93 0 003.55-.11c1.06-2.12 2.11-4.24 3.19-6.25a4.34 4.34 0 00.44-2.72 49.07 49.07 0 01-.61-6.66 1.63 1.63 0 00-1.76-1.58c-2.8.2-5.58.38-8.32.4a1.46 1.46 0 00-1.46 1.4zM223.56 25.63c3-.29 5.95-.58 9.39-1-2-7.72-9.95-12.74-17.86-13.73s-15.85 1.21-23.48 3.55c-5.15 1.57-11 3.86-12 9.56a9.94 9.94 0 003.9 9.29c5.46 4.32 12.36 4 18.88 3.57 5.67-.34 11.64-.59 16.63 2.28a3.28 3.28 0 011.66 2.19c.4 2.32-2.22 3.43-4.32 3.92-4.33 1-8.71 2.05-13.15 1.92C198 47 192.45 45 189.59 40.29l-10.51 1.83c-.44 3.64 1.73 7.14 4.69 9.21 3.32 2.33 7.5 3.12 11.46 3.58a69.18 69.18 0 0015 0c5.12-.52 10.65-.91 15.21-3.51 3.7-2.11 6.67-6 6.55-10.24-.13-4.84-4.21-8.85-8.77-10.5s-9.55-1.43-14.4-1.28-9.87.18-14.31-1.77a3.72 3.72 0 01-1.76-1.32 2.74 2.74 0 01.71-3.28 7.27 7.27 0 013.27-1.47 40.82 40.82 0 0118.94 0c2.22.53 4.68 1.56 5.7 3.47a1.39 1.39 0 001.5.67c.13.02.39-.02.69-.05zM287.07 13.86c-2.05 4.77-1.28 10.19-1 15.37s-.23 11-4 14.52a10.42 10.42 0 01-11.59 1.64 9.47 9.47 0 01-5.19-8.93.88.88 0 00-.91-1c-3.59.13-7.14.28-10.38.64-.8 5.66 1.81 11.54 6.15 15.27a23.42 23.42 0 0015.94 5.24c6.17-.18 12.49-2.63 16.3-7.48s4.67-11.21 4.71-17.3-.65-12.24.15-18.15c-3.56.11-7.13.19-10.18.18zM296.56 53c7.37-13.45 14.73-26.89 22.19-40.06 4.74 0 9.47 0 14.67.21a1 1 0 01.92.7C339 28.8 351.51 40.13 356.9 54.2a33.91 33.91 0 01-13 .09c-1.38-2.43-2.77-4.85-4.2-7.34a24.88 24.88 0 00-14.2-.39 55.19 55.19 0 01-6.13 1.7 7.52 7.52 0 01-5.35-1 1.14 1.14 0 00-1.64.36 42.53 42.53 0 00-3.12 6.9c-4.43-.01-8.85-.04-12.7-1.52z"/><path class="cls-1" d="M319.18 37.69c-.38-1.32.34-2.69 1-3.88 2.16-3.72 4.31-7.44 6.53-11.14A128.94 128.94 0 00334 37.91a.39.39 0 01-.47.55 28.56 28.56 0 00-14.35-.77zM361.35 53.74c1.12-13.56 1.52-27.18 1.32-40.23 6.23-.37 12.46-.74 18.59-.93 4.58 8.82 9.17 17.64 14.42 27.21 4.05-4.11 6-9.76 8.38-15S409.6 14.1 415.25 12c5.29.34 10.59.69 15.28.62a78.16 78.16 0 00.36 42.06c-5.29-.22-10.57-.44-15.25-.57a120.15 120.15 0 01.65-26.54.26.26 0 00-.48-.17c-5.47 9.15-10.93 18.28-16.1 26.87-3.64.07-7.27.15-11.72-.11a72.77 72.77 0 00-14.28-26.93.45.45 0 00-.78.29 146.24 146.24 0 002.45 26.82.47.47 0 01-.56.54 48.71 48.71 0 00-13.47-1.14zM434.36 12.38c.83 8.34 1.67 16.68 2.5 25a32.36 32.36 0 009 .54 108.39 108.39 0 014-25.22 65.33 65.33 0 01-15.5-.32zM435.71 44.15a65.45 65.45 0 01.11 9.6.78.78 0 001 .82 13.32 13.32 0 015.55 0c2.22.31 4.71.48 6.51-.87a56.37 56.37 0 01-.39-8.22.88.88 0 00-1.07-.9 7 7 0 01-2.73-.09 45.45 45.45 0 00-8.98-.34z"/></g></svg>