<svg viewBox="0 0 963 248" fill="none" xmlns="http://www.w3.org/2000/svg"><g clip-path="url(#clip0)" stroke="#191926" stroke-width="2" stroke-miterlimit="10"><path d="M96.3 193.545c.63-31.042.757-58.932 1.388-89.974 14.508 9.143 23.738 25.683 31.055 42.139 7.317 16.478 13.457 33.796 24.433 48.087 5.908.967 23.801 1.766 31.077.841 10.008-8.008 21.362-25.242 29.773-44.64 8.41-19.399 16.421-39.743 32.464-55.78-.252 32.955.252 65.931.778 98.907 13.078.63 26.682.903 40.265.63-6.938-45.333-8.768-91.129-5.74-136.59-19.491-4.686-37.721-5.4-55.299-2.395-21.531 29.76-31.056 64.69-55.152 91.697-6.77-18.432-20.521-33.102-32.906-48.297-10.555-12.925-20.71-27.7-21.047-44.388-21.657-1.471-41.505-1.05-61.25.442-.125 46.93.022 93.189.947 138.606 5.887 3.132 13.015 1.955 19.639 1.114 6.644-.84 13.33-1.093 19.575-.399zM303.493 60.508c12.973-.337 25.947-.673 39.298-.925l.883 67.149c.126 8.953.358 18.39 5.005 26.061 4.352 7.188 12.111 11.833 20.206 14.061 8.116 2.248 16.631 2.353 25.042 2.269 11.018-.105 22.855-.798 31.518-7.608 5.972-4.708 9.651-11.853 11.544-19.209 1.892-7.377 2.144-15.048 2.376-22.635.672-20.555 1.324-41.089 2.628-61.37 13.036 1.702 26.219 2.207 39.992 2.018 2.207 25.535 4.415 51.365.462 76.691-1.766 11.349-4.857 22.719-11.249 32.261-12.006 17.969-33.936 26.901-55.341 29.907-24.054 3.404-48.97.525-71.636-8.281-10.513-4.077-21.047-9.878-26.787-19.588-6.939-11.706-12.784-25.262-12.259-38.86.968-24.023-1.387-49.222-1.682-71.941zM536.106 100.965c-2.166-5.695.694-12.358 5.383-16.246 4.689-3.888 18.103-5.8 24.201-5.506 20.795 1.009 32.675-2.501 51.262 4.477 3.112 1.176 6.244 2.522 8.662 4.791 2.419 2.27 4.038 5.654 2.944 9.08 13.394 0 26.788.02 40.181.02.4-15.026-9.251-29.045-21.888-37.22-12.637-8.176-27.86-11.35-42.83-12.842-22.414-2.248-45.417-1.05-66.822 5.99-10.933 3.594-21.573 8.827-29.731 16.94-8.158 8.112-13.625 19.42-12.931 30.895.988 16.162 14.004 29.676 29.037 35.729 15.013 6.052 31.75 5.968 47.919 4.917 16.169-1.05 32.486-2.984 48.465-.336 5.446.904 11.691 3.174 13.079 8.512 1.598 6.137-4.395 11.538-10.093 14.376-18.776 9.373-40.749 9.247-61.691 7.923-7.107-.441-14.508-1.093-20.542-4.876-6.035-3.762-10.114-11.643-7.275-18.159a297.91 297.91 0 01-40.35 2.691c2.25 13.303 4.942 21.185 14.319 30.916 6.581 6.83 17.957 10.55 27.355 12.021 9.399 1.471 24.18 3.027 33.663 3.027 19.029 0 37.742 1.114 60.156-3.027 8.936-1.639 18.167-7.881 25.631-13.051 11.691-8.113 16.8-23.981 13.478-37.789-3.322-13.829-14.235-25.22-27.376-30.642-16.485-6.789-35.072-4.771-52.86-3.636-17.767 1.135-43.125 8.827-51.346-8.975zM724.08 54.875c4.836 20.534 6.624 41.803 5.236 62.862-1.703 26.271-8.242 52.942-2.166 78.54l-38.288-.819c-.106-46.385.862-92.664.504-139.238 11.754.19 23.507-.357 34.714-1.345zM780.872 130.683c-2.166-21.122 13.204-41.445 32.864-49.432 19.659-7.986 42.346-5.38 62.111 2.396 6.203 2.438 12.805 5.759 14.403 9.773 1.367 3.447 2.818 7.335 3.532 16.961 12.385-.568 24.748 2.543 37.133 1.975 3.49-19.209-8.137-38.839-24.433-49.6-16.295-10.76-33.032-12.715-55.845-15.216-20.354-2.249-41.38.126-60.535 7.335-19.155 7.209-36.459 21.017-44.617 39.785-8.852 20.366-5.846 44.892 5.698 63.871 11.543 18.978 26.661 29.402 47.813 36.254 21.132 6.852 47.141 8.386 69.092 5.002 16.401-2.522 30.867-6.894 43.63-17.486 12.763-10.593 25.168-27.848 21.972-43.211-12.952-.988-26.955-.378-42.473-1.955-2.123 14.944-15.286 26.65-29.857 30.601-14.571 3.951-30.173 1.366-44.512-3.384-8.516-2.816-16.905-6.452-23.781-12.21-6.876-5.759-11.417-13.872-12.195-21.459z"/></g><defs><clipPath id="clip0"><path fill="#191926" transform="rotate(90 481.5 481.5)" d="M0 0h248v963H0z"/></clipPath></defs></svg>