<svg id="News" xmlns="http://www.w3.org/2000/svg" viewBox="0 0 450.86 99.51"><defs><style>.cls-1{fill:none;stroke:#EBE2D0;stroke-miterlimit:10}</style></defs><path class="cls-1" d="M7.06 12.19a373.34 373.34 0 014.46 84 210.43 210.43 0 0123.05-1.28 1.25 1.25 0 001.23-1.44A129.1 129.1 0 0135 62c11.2-1.66 22.55.65 33.82 1.7s23.4.63 32.78-4.77a29.79 29.79 0 001.21-15.55c-11.41 2.43-23.23.42-34.8-1S44.28 40 33.26 45c.67-5.61 1.34-11.22 2-16.58a446.62 446.62 0 0067.68.94c-.68-7-1.35-14.07-1.63-20.57-14.31 1.46-28.46-.35-42.79 0-7.33.21-14.63.21-21.9-.16C28.9 8.19 17.06 6 8.69 9.26a2.66 2.66 0 00-1.63 2.93zM114.46 10.33A582.38 582.38 0 01113 96.27c16.29-4.12 33.4-2 50.14-.59s34.31 1.85 49.37-5.19a53.69 53.69 0 01.36-15.1 1.63 1.63 0 00-1.59-2c-23.47.1-47 .23-71.53 1.63a97.34 97.34 0 00-.32-15.39c11-1.72 22.14-.14 33.21.71s22.62.88 32.2-3.18a138.89 138.89 0 001.75-14.68c-22.31-.86-44.63-1.29-67-1 .17-4.85.35-9.69.09-14.18 11.21-4.13 23.63-1.93 35.43 0s24.48 3.47 34.37-2.07a61.3 61.3 0 001-15.86l-64.95-3.74c-10.86-.63-22.72-.98-31.07 4.7zM222.29 9.54c.28 27 .55 54.06.8 81.93 32.26 2.34 65.27 8.29 95.64.11.12-5.71.23-11.42.55-17.17-12-2-24.32.24-36.48 1.34s-25.07 1-35.45-4.69a58.39 58.39 0 00-1-10.64c23.1-3.85 47.35 4.78 68.46-2.27a126.57 126.57 0 00.19-14c-22.5.45-45 .19-67.4-.65a78.9 78.9 0 01-.66-17.5 590 590 0 0069.64-.3 68.27 68.27 0 011.17-17.93 1.26 1.26 0 00-1.52-1.49c-31.06 6.88-65.02-7.37-93.94 3.26zM330.56 8.79c.8 27.65.68 55.33-.46 83.88a1.62 1.62 0 002 1.65c13-2.72 26.59-1.78 39.91-1 14 .85 28.36 1.5 41.86-2.39s26.23-13.18 30.56-26.54c3.78-11.67.49-24.95-6.95-34.7S418.81 13.53 407 10.1s-24.19-4-36.45-3.8c-13.33.28-26.66 1.56-39.99 2.49z"/><path class="cls-1" d="M356.93 28.16a161.49 161.49 0 00-.77 44.35l32.13 1.22c5.59.21 11.26.41 16.73-.79s10.8-4 13.9-8.67C424.45 56 421 44 413.53 37.4s-17.93-8.72-27.9-9.12-20 .72-28.7-.12z"/></svg>