<svg viewBox="0 0 914 229" fill="none" xmlns="http://www.w3.org/2000/svg"><g clip-path="url(#clip0)" stroke="#EBE2D0" stroke-width="2" stroke-miterlimit="10"><path d="M36.7 44.772c-3.533 44.81-6.965 90.649 5.088 134.023 13.85-.641 27.72-1.262 41.57-1.902l-4.012-94.744c6.107 11.062 12.633 22.57 23.389 29.537 6.805 4.405 14.828 6.637 22.391 9.626 25.704 10.15 47.217 29.925 59.111 54.281l44.362-.583c-2.055-11.682-4.21-29.944-5.328-42.539-1.097-12.401-.339-25.598-.339-47.198 0-22.007-.02-24.879 2.035-49.215-10.457.369-20.894.718-31.351 1.087-1.796.058-3.772.194-5.049 1.436-.978.95-1.317 2.348-1.616 3.668-6.087 28.12-6.646 57.366-2.096 85.719-1.676-13.643-12.592-24.549-24.446-32.06-11.854-7.51-25.165-12.789-36.201-21.367-11.435-8.907-20.016-21.23-24.566-34.757-20.795 1.436-41.63 2.892-62.942 4.988zM237.82 42.385c-9.061 43.374 1.616 88.339-1.856 132.179 53.443 7.802 107.844 9.374 161.906 3.163-1.138-10.926-1.856-21.89-1.417-32.584-7.664 4.173-16.923 4.677-25.624 3.591-8.701-1.087-17.143-3.668-25.764-5.337-20.475-3.959-41.988-2.64-62.224 2.678-.06-7.103-.12-14.186-.16-21.289a1993.772 1993.772 0 00104.971 1.785 108.209 108.209 0 01-.419-32.894c-34.924-1.456-69.927-1.145-104.831.873.2-7.452.379-14.885.579-22.337 36.919 2.135 74.557 4.017 109.6-6.754.918-8.733 1.836-17.485 3.472-26.044-26.522 4.503-53.662.621-80.444-2.096-26.761-2.678-54.6-4.095-77.789 5.066zM403.677 43.355c12.153 21.153 24.746 41.977 32.788 65.071 8.042 23.094 16.364 46.11 28.158 67.128 17.283 1.281 34.645 1.475 50.689-.505a814.435 814.435 0 0037.698-91.658c17.581 28.295 14.788 65.983 35.961 93.308 11.994-.893 23.988-1.786 36.001-2.659 3.014-.213 9.839.019 12.852-.602 6.985-15.622 11.994-27.829 18.979-43.451 13.85-30.954 29.396-62.956 45.321-90.417-16.524-.873-28.059.68-44.762-.116-16.325 22.59-24.527 49.817-35.124 75.434-4.53 10.946-5.787 15.04-8.661 24.22-12.532-31.983-23.548-64.528-33.826-97.112-17.262 1.708-34.624 2.29-51.946 1.63-15.805 29.848-29.276 60.879-42.128 92.571-7.024-33.166-17.402-65.653-31.431-96.394-16.863 3.494-34.265 4.503-50.569 3.552zM833.196 83.45c13.591-.99 27.181-1.961 39.893-2.796-3.293-21.27-23.908-36.717-45.4-41.782-21.493-5.066-44.004-2-65.996.31-12.952 1.359-26.183 2.504-38.216 7.355-12.034 4.852-22.95 14.187-25.944 26.53-3.452 14.166 4.59 29.342 16.784 37.823 12.193 8.481 27.699 11.179 42.686 11.217 14.987.039 29.855-2.367 44.802-3.105 7.145-.349 14.568-.271 21.054 2.64 6.506 2.891 11.834 9.295 11.255 16.224-.439 5.278-4.21 9.897-8.86 12.672-4.63 2.775-10.078 3.998-15.446 4.91a163.542 163.542 0 01-35.503 2.096c-8.302-.407-16.803-1.533-24.107-5.395-7.304-3.862-13.251-10.965-13.61-19.057l-48.035 1.688c3.253 19.659 17.402 37.28 36.221 45.101 14.867 6.191 31.571 6.385 47.735 5.784a559.597 559.597 0 0049.692-4.076c12.372-1.572 25.244-3.765 35.262-11.003 8.621-6.249 14.429-16.05 15.626-26.452 1.198-10.383-2.195-21.212-9.18-29.168-11.814-13.469-31.391-17.311-49.511-18.96-14.728-1.34-29.536-1.786-44.303-1.34-5.289.155-10.717.427-15.726-1.261-5.009-1.689-9.539-5.842-9.819-10.984-.419-7.783 8.242-12.848 15.906-15.118 16.204-4.852 33.686-5.628 50.29-2.29 5.128 1.028 10.277 2.503 14.488 5.511s7.404 7.88 7.962 12.925z"/></g><defs><clipPath id="clip0"><path fill="#fff" transform="rotate(90 457 457)" d="M0 0h229v914H0z"/></clipPath></defs></svg>