<svg width="232" height="59" viewBox="0 0 232 59" fill="none" xmlns="http://www.w3.org/2000/svg"><g clip-path="url(#clip0)" stroke="#EBE2D0" stroke-miterlimit="10"><path d="M4.15 10.93a191.41 191.41 0 012.28 43c3.922-.43 7.865-.647 11.81-.65a.641.641 0 00.63-.74 66.002 66.002 0 01-.39-16.1c5.73-.85 11.55.33 17.32.87s12 .32 16.79-2.44a15.17 15.17 0 00.63-8c-5.85 1.24-11.9.21-17.83-.54-5.93-.75-12.17-1.17-17.82 1.39.34-2.88.69-5.75 1-8.5a227.865 227.865 0 0034.68.48c-.35-3.6-.69-7.21-.84-10.54-7.33.75-14.58-.17-21.92 0-3.73.09-7.47.12-11.2-.09-3.95-.23-10-1.36-14.31.32a1.35 1.35 0 00-.83 1.54v0zM59.17 9.98a299.272 299.272 0 01-.77 44c8.34-2.11 17.11-1 25.69-.3 8.58.7 17.57 1 25.28-2.65a27.65 27.65 0 01.19-7.74.841.841 0 00-.81-1c-12 .05-24.07.12-36.65.83a49.242 49.242 0 00-.16-7.88c5.62-.88 11.34-.07 17 .36s11.59.46 16.5-1.62c.429-2.493.726-5.006.89-7.53-11.42-.44-22.86-.66-34.3-.53.08-2.48.17-5 0-7.26 5.74-2.12 12.11-1 18.15 0 6.04 1 12.55 1.77 17.61-1.06.523-2.676.695-5.41.51-8.13L75.09 7.59c-5.57-.34-11.64-.52-15.92 2.39zM114.411 9.59c.14 13.85.29 27.7.41 42 16.53 1.21 33.44 4.25 49 .07.06-2.93.12-5.86.28-8.8-6.17-1-12.46.12-18.69.68s-12.84.49-18.16-2.4a29.84 29.84 0 00-.52-5.45c11.84-2 24.26 2.45 35.07-1.16.174-2.383.207-4.774.1-7.16-11.52.23-23.06.1-34.52-.33a40.096 40.096 0 01-.34-9c11.886.646 23.8.585 35.68-.18a34.559 34.559 0 01.6-9.19.65.65 0 00-.178-.598.647.647 0 00-.602-.162c-15.91 3.52-33.31-3.78-48.13 1.68zM169.88 9.19c.41 14.16.35 28.34-.23 43a.831.831 0 001 .85c6.68-1.39 13.62-.92 20.45-.5 7.18.43 14.53.77 21.44-1.23 6.91-2 13.44-6.78 15.66-13.63 1.93-6 .25-12.78-3.57-17.77s-9.54-8.32-15.57-10.05c-6.03-1.73-12.4-2.08-18.68-1.95-6.84.14-13.66.8-20.5 1.28z"/><path d="M183.39 19.11a82.772 82.772 0 00-.4 22.72l16.46.63c2.863.23 5.743.092 8.57-.41a11.348 11.348 0 007.13-4.46c2.83-4.25 1.09-10.4-2.76-13.77-3.85-3.37-9.19-4.46-14.3-4.67-5.11-.21-10.25.37-14.7-.04z"/></g><defs><clipPath id="clip0"><path fill="#EBE2D0" transform="rotate(90 115.565 116.155)" d="M0 0h58.13v231.31H0z"/></clipPath></defs></svg>