<svg viewBox="0 0 530 704" fill="none" xmlns="http://www.w3.org/2000/svg"><path fill-rule="evenodd" clip-rule="evenodd" d="M46.198 182.386l.834-8.445.726-7.255.65-6.394.593-5.737.549-5.218.514-4.795.487-4.443.464-4.146.446-3.89.43-3.667.417-3.471.407-3.296.398-3.141.39-3 .384-2.873.38-2.757.374-2.65.372-2.552.369-2.461.367-2.377.366-2.298.364-2.226.365-2.156.364-2.092.364-2.032.366-1.974.366-1.92.368-1.868.37-1.819.37-1.773.374-1.728.375-1.686.378-1.645.381-1.607.384-1.57.387-1.533.39-1.499.393-1.466.397-1.434.4-1.403.405-1.373.409-1.344.412-1.317.417-1.29.421-1.263.426-1.237.43-1.213.435-1.19.44-1.165.444-1.142.45-1.121.455-1.099.46-1.078.466-1.057.471-1.037.477-1.017.482-.997.488-.98.495-.96.5-.942.506-.925.513-.907.519-.89.526-.873.532-.856.539-.84.546-.825.553-.809.56-.793.567-.778.575-.763.583-.748.59-.733.598-.72.606-.704.614-.691.622-.677.63-.663.64-.65.649-.637.657-.623.667-.61.676-.597.685-.584.696-.572.705-.559.715-.546.726-.534.737-.522.748-.51.759-.497.77-.485.782-.474.795-.461.807-.45.82-.438.832-.427.846-.414.86-.404.874-.391.889-.38.904-.37.919-.357.936-.346.952-.334.969-.324.987-.311 1.005-.3 1.024-.29 1.044-.278 1.064-.267 1.086-.255 1.107-.244 1.131-.232 1.154-.22 1.179-.21 1.206-.198 1.233-.186 1.261-.174 1.291-.163 1.323-.15 1.356-.139 1.391-.126 1.428-.114 1.467-.102 1.509-.088 1.553-.076 1.6-.063 1.65-.05 1.704-.034 1.762-.022 1.824-.006 1.892.008 1.966.024 2.046.04 2.135.057 2.232.075 2.339.093 2.461.114 2.597.135 2.751.158 2.929.184 3.136.211 3.38.244 3.673.28 4.033.322 4.486.374 5.08.44 5.897.525 7.106.65 9.122.85L383.217 30.81l9.577.935 7.35.732 6.05.615 5.184.54 4.559.49 4.086.453 3.712.424 3.408.405 3.155.388 2.942.377 2.759.367 2.599.36 2.458.356 2.334.352 2.222.35 2.122.349 2.03.348 1.948.349 1.871.35 1.8.352 1.736.354 1.676.358 1.619.36 1.567.364 1.518.368 1.472.372 1.428.377 1.387.382 1.348.387 1.311.392 1.275.398 1.243.403 1.21.41 1.18.414 1.151.422 1.122.428 1.096.435 1.07.441 1.045.448 1.021.455.999.462.975.47.955.477.933.484.913.492.893.5.875.508.856.515.837.524.821.532.803.54.787.55.77.557.755.566.739.575.724.584.709.593.695.603.681.611.666.621.653.631.64.64.627.651.613.66.602.67.588.682.576.691.565.702.552.712.541.724.529.735.518.745.506.758.496.769.484.78.474.793.463.805.453.818.442.83.431.843.422.856.411.869.401.882.392.897.381.91.372.926.362.94.352.954.342.97.333.985.324 1 .314 1.018.305 1.034.295 1.051.286 1.069.277 1.086.268 1.104.258 1.123.249 1.143.24 1.162.231 1.182.221 1.203.212 1.224.204 1.246.194 1.27.184 1.291.176 1.317.166 1.341.157 1.366.148 1.394.139 1.42.129 1.449.119 1.478.11 1.509.101 1.541.09 1.574.081 1.607.071 1.644.061 1.681.051 1.721.041 1.761.03 1.804.02 1.849.008 1.896-.002 1.946-.013 1.999-.025 2.054-.037 2.114-.049 2.176-.062 2.243-.074 2.314-.088 2.391-.102 2.473-.117 2.561-.131 2.657-.148 2.761-.164 2.875-.182 2.999-.202 3.136-.222 3.288-.244 3.458-.268 3.649-.295 3.867-.325 4.116-.358 4.404-.397 4.746-.442 5.155-.496 5.655-.562 6.284-.646 7.107-.759 8.23-28.167 294.649-.855 8.679-.741 7.418-.66 6.514-.601 5.831-.555 5.293-.52 4.858-.49 4.495-.468 4.191-.448 3.928-.433 3.7-.419 3.501-.408 3.323-.4 3.164-.391 3.022-.385 2.892-.38 2.775-.376 2.666-.372 2.567-.369 2.475-.367 2.39-.366 2.311-.365 2.236-.364 2.168-.364 2.102-.365 2.041-.365 1.983-.366 1.928-.368 1.876-.369 1.827-.371 1.78-.373 1.735-.375 1.693-.378 1.652-.38 1.612-.383 1.575-.387 1.539-.389 1.505-.393 1.471-.396 1.439-.4 1.408-.404 1.378-.408 1.349-.412 1.321-.416 1.293-.42 1.268-.425 1.241-.43 1.217-.434 1.193-.439 1.169-.444 1.146-.449 1.124-.454 1.103-.459 1.081-.465 1.06-.47 1.04-.476 1.02-.481 1.001-.488.982-.493.964-.499.945-.506.927-.511.91-.518.893-.525.875-.531.86-.538.843-.545.826-.552.812-.559.795-.566.78-.574.766-.581.75-.589.736-.596.721-.605.708-.613.693-.621.679-.629.665-.639.652-.646.639-.656.625-.665.612-.675.599-.684.586-.694.574-.703.561-.714.548-.725.536-.735.524-.746.512-.757.499-.768.487-.781.476-.792.463-.805.452-.817.44-.831.428-.844.417-.857.405-.872.393-.887.382-.901.371-.917.359-.933.348-.949.336-.967.325-.984.314-1.002.302-1.021.291-1.041.28-1.061.268-1.082.257-1.104.246-1.127.234-1.15.223-1.175.211-1.202.2-1.228.188-1.257.176-1.286.164-1.318.153-1.351.14-1.385.128-1.422.116-1.461.104-1.501.091-1.546.078-1.592.064-1.642.052-1.695.037-1.753.024-1.814.009-1.881-.006-1.953-.021-2.033-.038-2.12-.054-2.216-.072-2.322-.091-2.44-.11-2.574-.131-2.725-.155-2.899-.179-3.101-.207-3.338-.238-3.623-.274-3.969-.315-4.406-.365-4.974-.428-5.746-.51-6.875-.626-8.714-.811-174.959-16.721-10.093-.984-7.623-.756-6.22-.63-5.302-.551-4.647-.496-4.154-.458-3.766-.429-3.453-.407-3.193-.391-2.973-.378-2.786-.369-2.623-.361-2.48-.356-2.352-.353-2.24-.35-2.137-.349-2.044-.348-1.96-.349-1.883-.35-1.812-.351-1.746-.354-1.684-.357-1.629-.36-1.575-.363-1.525-.368-1.479-.371-1.435-.376-1.393-.381-1.354-.386-1.317-.392-1.281-.396-1.248-.403-1.215-.408-1.184-.414-1.156-.421-1.127-.427-1.1-.433-1.074-.441-1.049-.447-1.025-.454-1.002-.461-.979-.468-.958-.476-.936-.483-.916-.491-.897-.498-.877-.507-.859-.514-.84-.523-.824-.531-.806-.539-.79-.547-.772-.556-.757-.565-.742-.574-.726-.582-.712-.592-.697-.601-.683-.61-.669-.619-.655-.63-.642-.639-.628-.648-.616-.659-.603-.669-.59-.679-.579-.69-.566-.7-.555-.711-.542-.721-.531-.733-.52-.745-.508-.755-.497-.767-.486-.779-.476-.791-.465-.803-.454-.815-.444-.828-.433-.841-.423-.854-.413-.867-.403-.88-.393-.895-.383-.908-.373-.923-.363-.937-.354-.952-.344-.967-.335-.983-.325-.999-.315-1.015-.306-1.031-.297-1.048-.288-1.066-.278-1.083-.27-1.102-.259-1.12-.25-1.139-.242-1.159-.232-1.179-.223-1.199-.214-1.221-.204-1.243-.196-1.265-.186-1.289-.177-1.312-.168-1.337-.159-1.362-.149-1.389-.14-1.416-.13-1.445-.121-1.473-.112-1.504-.102-1.536-.092-1.568-.083-1.602-.072-1.638-.063-1.676-.052-1.713-.043-1.755-.031-1.797-.022-1.841-.01-1.889v-1.938l.012-1.99.023-2.046.035-2.104.047-2.166.06-2.232.072-2.302.086-2.379.1-2.459.113-2.547.13-2.641.144-2.744.162-2.856.18-2.978.198-3.113.218-3.263.24-3.43.265-3.617.29-3.83.32-4.073.353-4.356.39-4.688.435-5.083.486-5.568.55-6.174.632-6.959.739-8.024 28.442-297.54z" fill="#FF2B59"/></svg>