<?xml version="1.0" encoding="utf-8"?>
<!-- Generator: Adobe Illustrator 25.4.1, SVG Export Plug-In . SVG Version: 6.00 Build 0)  -->
<svg version="1.1" id="Layer_1" xmlns="http://www.w3.org/2000/svg" xmlns:xlink="http://www.w3.org/1999/xlink" x="0px" y="0px"
	 viewBox="0 0 293.4 54.8" style="enable-background:new 0 0 293.4 54.8;" xml:space="preserve">
<style type="text/css">
	.st0{fill:none;stroke:#FFFFFF;stroke-miterlimit:2; stroke-width: 0.5;}
</style>
<g id="Store">
	<path class="st0" d="M48.5,20.8c2.9-0.3,5.9-0.6,9.3-1c-2-7.8-9.9-12.9-17.7-13.9S24.4,7.1,16.9,9.4c-4.6,1.4-9.8,3.5-11.4,8.1
		c-1.8,5.1,1.9,10.8,6.6,13s10.3,1.9,15.5,1.6c5.2-0.3,10.8-0.6,15.5,1.8c1.3,0.7,2.7,1.7,2.7,3.2c0,2-2.4,3-4.3,3.5
		c-4.3,1-8.6,2.1-13,2s-8.9-1.6-12-4.9l-12,0.4c0.1,3.5,1.8,6.7,4.7,8.7c2.8,1.8,6.1,3,9.4,3.4c6.5,0.9,13.1,0.9,19.6,0
		c4.2-0.5,8.5-1.1,12.1-3.3S57,41,56.8,36.6c-0.1-4.9-4.2-9-8.7-10.7s-9.5-1.5-14.3-1.3s-9.8,0.2-14.2-1.8c-0.7-0.3-1.3-0.7-1.7-1.3
		c-0.5-1.1-0.2-2.5,0.7-3.3c0.9-0.8,2.1-1.3,3.2-1.5c6.2-1.5,12.6-1.5,18.8,0c2.6,0.6,5.5,2,6,4.6C47.2,21,47.9,20.8,48.5,20.8z"/>
	<path class="st0" d="M63,9.1c0.3,3.2,0.3,6.4,0.4,9.9c6.4-0.6,12.8-0.9,19.5-1.1c0.7,5.4-0.4,10.9-1.1,16.3s-0.9,11.2,1.4,16
		c3.6-0.3,7.2-0.6,10.4-1c1.2-5.1,0.3-10.4-0.1-15.6s-0.5-10.7,2-15.1c6.6,0.1,13.1,0.2,19.1,0.4c0.3-3.5,0.1-7.1-0.6-10.6
		c-12.4,2.2-25.1,2.5-37.7,0.8C71.7,8.4,66.8,7.5,63,9.1z"/>
	<path class="st0" d="M161.8,7.4c-6.8-1.1-13.7-2-20.6-1.3s-13.8,2.9-19,7.4S113.8,25.2,115,32c1.4,8,8.3,14.1,16,16.7
		s16,2.3,24.1,1.8c4.6-0.3,9.4-0.7,13.4-3c7-4.1,9.7-13.4,8.5-21.5C175.8,17.5,170.3,8.7,161.8,7.4z"/>
	<path class="st0" d="M159.8,19c-7.8-2.8-16.3-3-24.2-0.5c-2.8,0.9-5.6,2.2-7.2,4.6c-2.5,3.8-1.2,9.2,2.1,12.4s7.9,4.5,12.4,5
		c4.2,0.7,8.5,0.3,12.6-1.2c3.9-1.6,7.4-4.8,8.5-8.9S163.7,20.4,159.8,19z"/>
	<path class="st0" d="M226,34.4c1.9,5.4,5,10.4,8.9,14.6c-4.2,0.5-8.5,0.8-12.8,1.1c-3.1-3.7-5.8-7.6-8-11.9
		c-6.5,0.8-13.1,0.4-19.4-1.3c-0.1,4.5-0.4,9-1,13.5c-4.2-0.2-8.3-0.7-12.4-1.2c1.8-13.9,2.1-28,0.6-42c13.3-0.7,26.8-1.3,40.1,0
		c3.8,0.4,7.9,1.1,10.6,3.8c2.4,2.4,3.2,6.1,3.1,9.5c0,2.9-0.9,5.8-2.4,8.3C231.5,31.4,228.9,33.4,226,34.4z"/>
	<path class="st0" d="M195,16.7c0.1,2.7,0.1,5.4,0.1,8.5l19.3,1.1c1.7,0.2,3.4,0.1,5-0.3c1.6-0.5,2.9-1.7,3.3-3.3
		c0.4-2-1.1-4.1-3-4.9c-1.9-0.7-4-1-6.1-0.8C207.4,16.9,201.2,16.9,195,16.7z"/>
	<path class="st0" d="M239.3,7.7l0.4,42c16.5,1.2,33.4,4.2,49,0.1c0.1-2.9,0.1-5.9,0.3-8.8c-6.2-1-12.5,0.1-18.7,0.7
		s-12.9,0.5-18.2-2.4c0-1.8-0.2-3.7-0.5-5.5c11.8-2,24.3,2.4,35.1-1.2c0.2-2.4,0.2-4.8,0.1-7.2c-11.5,0.2-23.1,0.1-34.5-0.3
		c-0.5-3-0.6-6-0.3-9c11.9,0.7,23.8,0.6,35.7-0.1c-0.2-3.4,0-6.8,0.8-10.2C272.2,9.8,254.4,2.1,239.3,7.7z"/>
</g>
</svg>
