<svg data-name="Layer 1" xmlns="http://www.w3.org/2000/svg" viewBox="0 0 595.28 841.89"><path d="M77 500.19s6.88-370.59 190.89-447.6c44.2-18.5 99.09-4.66 141.75 31.21 54.27 45.63 121 193.58 101.67 381.14 0 0-18 190.87-121 260s-215 22.82-283.32-132.35C35.77 431 72.54 245.47 88.32 190.26 106.94 125.08 199.38-65.72 343 48.63c142.14 113.15 179.78 507.92 66.22 677.63q-3.3 4.92-6.43 10c-12.6 20.3-68.1 100.76-149.57 88.54C149.81 809.23 82.33 644.51 77 500.19z" fill="none" stroke="#191926" stroke-linecap="round" stroke-miterlimit="10" stroke-width="6"/></svg>