<?xml version="1.0" standalone="no"?>
<!DOCTYPE svg PUBLIC "-//W3C//DTD SVG 20010904//EN"
 "http://www.w3.org/TR/2001/REC-SVG-20010904/DTD/svg10.dtd">
<svg version="1.0" xmlns="http://www.w3.org/2000/svg"
 width="513.000000pt" height="513.000000pt" viewBox="0 0 513.000000 513.000000"
 preserveAspectRatio="xMidYMid meet">
<metadata>
Created by potrace 1.14, written by Peter Selinger 2001-2017
</metadata>
<g transform="translate(0.000000,513.000000) scale(0.100000,-0.100000)"
fill="#000000" stroke="none">
<path d="M0 2565 l0 -2565 2565 0 2565 0 0 2565 0 2565 -2565 0 -2565 0 0
-2565z m2150 1467 c25 -12 69 -43 99 -68 29 -26 79 -60 110 -74 108 -52 175
-149 194 -285 40 -276 -144 -565 -361 -569 -31 0 -70 3 -87 8 -26 9 -21 11 45
16 92 7 151 34 225 102 62 57 117 156 135 245 7 33 10 99 8 154 -4 81 -10 107
-35 160 -55 115 -131 170 -237 171 -33 0 -74 -5 -91 -12 -22 -8 -27 -8 -19 0
6 6 28 17 49 24 l37 13 -28 27 c-77 73 -180 93 -293 56 -78 -25 -122 -21 -82
6 81 57 242 70 331 26z m1225 -82 c58 -29 104 -85 124 -150 24 -80 22 -77 31
-55 5 11 9 37 9 58 1 36 4 38 59 63 150 66 310 83 417 43 115 -43 190 -138
265 -333 17 -44 53 -117 81 -162 30 -50 56 -109 66 -149 16 -65 16 -70 -5
-159 -27 -112 -27 -124 -1 -228 26 -103 17 -149 -42 -213 -116 -126 -439 -166
-819 -100 -142 25 -391 45 -670 55 -146 5 -305 14 -355 20 -296 34 -634 126
-883 241 -228 106 -267 124 -347 154 -119 45 -270 83 -433 110 -165 28 -219
48 -254 96 -67 90 -1 266 162 429 96 96 162 139 288 186 151 56 233 69 447 68
173 0 203 -3 339 -31 81 -18 149 -33 151 -35 2 -2 -19 -32 -46 -68 -46 -60
-98 -174 -113 -245 -5 -23 -18 -36 -51 -54 -89 -47 -149 -137 -161 -244 -4
-31 -11 -57 -16 -57 -24 0 -81 70 -98 120 l-19 55 -1 -40 c0 -62 17 -108 52
-143 53 -51 106 -65 243 -66 l120 -1 53 -52 c73 -71 141 -96 242 -91 49 3 90
12 119 26 l45 22 55 -21 c76 -28 173 -29 227 -1 103 52 139 147 109 287 -35
165 -32 190 40 274 36 42 45 60 45 90 0 78 -83 117 -193 90 -36 -8 -52 -9 -55
-1 -2 6 -21 38 -42 71 l-39 59 42 7 c23 4 114 24 202 46 223 54 251 58 415 56
132 -2 149 -4 195 -27z m-607 -276 c14 -9 22 -26 22 -44 l0 -28 -31 15 c-22
11 -45 13 -79 9 -45 -6 -48 -5 -52 19 -5 22 -1 25 31 31 20 3 41 7 46 9 22 8
42 4 63 -11z m-936 -291 c3 -44 0 -66 -14 -89 -22 -38 -23 -82 -2 -112 15 -22
14 -22 -24 -22 -55 0 -106 36 -110 77 -2 18 6 49 17 71 19 37 106 132 122 132
4 0 9 -26 11 -57z m-1048 -303 c-17 -40 -15 -265 2 -248 2 3 9 31 15 64 6 32
22 87 36 121 24 60 27 63 59 63 l33 0 -34 -72 c-19 -40 -45 -110 -58 -156 -36
-127 -57 -133 -105 -30 -32 68 -57 159 -67 249 l-6 55 66 -15 c52 -12 64 -18
59 -31z m302 -40 l42 -10 -14 -38 c-14 -40 -17 -121 -5 -162 7 -22 9 -18 19
28 14 62 51 152 62 152 5 0 15 -3 24 -6 13 -5 13 -11 -6 -47 -12 -23 -34 -80
-48 -127 -34 -106 -50 -114 -85 -38 -47 104 -75 274 -42 263 6 -2 31 -9 53
-15z m279 -96 c28 -11 35 -19 30 -32 -25 -59 -34 -92 -34 -127 l1 -40 15 35
c28 66 74 129 89 123 20 -7 18 -19 -10 -56 -13 -18 -38 -60 -55 -95 -34 -67
-48 -73 -69 -29 -22 45 -29 237 -8 237 2 0 20 -7 41 -16z m315 -144 c19 -10
19 -11 0 -53 -11 -23 -20 -58 -20 -77 l0 -35 21 40 c25 47 69 96 80 90 10 -7
-101 -155 -117 -155 -17 0 -26 63 -18 128 9 78 14 83 54 62z m302 -126 c-1
-10 -5 -41 -8 -69 l-6 -50 28 55 c21 40 36 56 53 58 23 4 23 3 -9 -42 -17 -26
-38 -62 -46 -81 -28 -68 -56 -32 -62 80 l-4 84 28 -8 c21 -6 28 -13 26 -27z
m274 -50 c18 -5 20 -12 17 -67 l-4 -62 20 54 c24 62 25 64 44 59 11 -2 6 -19
-22 -77 -20 -41 -40 -75 -45 -75 -12 -1 -32 58 -41 122 -7 53 -5 56 31 46z
m264 -44 c5 0 7 -26 4 -57 l-4 -58 20 45 c25 53 39 72 51 65 4 -3 -5 -34 -22
-68 -16 -34 -29 -68 -29 -75 0 -8 -8 -12 -17 -10 -23 4 -42 59 -42 122 -1 40
2 47 15 42 9 -3 19 -6 24 -6z m256 -24 c0 0 5 -17 11 -36 9 -30 11 -32 12 -10
1 29 17 57 26 48 11 -11 -16 -119 -28 -115 -13 4 -51 68 -62 105 -6 22 -5 23
17 17 12 -4 23 -8 24 -9z m1481 -69 c71 -105 57 -175 -67 -319 -40 -46 -117
-142 -171 -215 -139 -184 -264 -281 -417 -322 -142 -38 -392 -71 -537 -71
l-60 0 30 25 c39 32 171 98 260 130 l70 25 -50 -4 c-143 -13 -380 -141 -615
-331 -119 -96 -267 -196 -345 -232 -54 -25 -71 -28 -170 -28 -121 0 -173 15
-291 86 -130 78 -112 114 93 193 216 82 426 207 613 362 255 211 473 337 837
483 109 44 274 111 367 150 93 39 180 71 193 71 68 0 119 -63 110 -134 -13
-96 -119 -142 -497 -215 -352 -68 -640 -202 -822 -384 -37 -37 -68 -72 -68
-77 0 -6 26 11 58 37 240 196 547 324 881 367 197 26 391 87 454 144 91 80
101 180 27 247 l-22 20 49 11 c68 16 66 17 90 -19z m-1194 -275 c30 -32 25
-52 -6 -25 -19 17 -19 17 -13 -4 10 -31 -12 -39 -24 -8 -25 65 -2 85 43 37z
m-219 -107 c39 -47 36 -63 -4 -20 -30 32 -36 26 -15 -15 14 -27 14 -34 4 -41
-8 -4 -18 -4 -23 1 -13 13 -21 120 -8 120 5 0 26 -20 46 -45z m-180 -185 c-8
-8 -22 1 -47 30 -42 45 -48 37 -15 -21 20 -36 21 -41 6 -55 -9 -9 -20 -14 -26
-10 -22 13 -42 152 -25 170 4 4 32 -18 62 -48 39 -39 52 -59 45 -66z m-395
-30 c12 -17 56 -58 97 -92 53 -43 71 -64 62 -70 -24 -15 -37 -8 -102 57 -36
35 -66 60 -66 54 0 -20 43 -95 72 -126 l30 -31 -38 -25 c-47 -30 -53 -26 -84
68 -50 149 -32 247 29 165z m-206 -201 c28 -28 68 -64 89 -79 35 -25 37 -29
19 -35 -27 -8 -49 5 -104 64 -26 27 -47 46 -47 40 0 -15 48 -107 60 -114 25
-15 -11 -55 -50 -55 -15 0 -50 128 -50 181 0 65 18 64 83 -2z m-221 -174 c26
-36 43 -67 39 -69 -9 -6 -52 38 -69 69 -11 19 -11 19 -12 -5 0 -14 8 -39 19
-56 l18 -30 -27 -16 c-27 -15 -28 -15 -34 5 -8 30 -7 152 1 160 11 12 17 7 65
-58z"/>
<path d="M3144 3738 c-91 -84 -172 -219 -217 -363 -32 -105 -40 -175 -28 -260
30 -208 125 -310 270 -290 144 20 195 125 136 281 -14 36 -25 72 -25 80 0 7
25 42 56 76 170 191 175 435 10 479 -22 6 -53 17 -68 25 -48 26 -84 18 -134
-28z m101 -18 c3 -5 -8 -30 -25 -56 -87 -125 -160 -336 -167 -481 -5 -80 -3
-98 17 -138 28 -58 88 -96 159 -98 56 -2 64 -14 32 -46 -42 -42 -145 -51 -197
-16 -37 24 -82 92 -99 148 -22 75 -20 236 5 325 45 163 186 372 251 372 10 0
21 -4 24 -10z"/>
<path d="M1120 3711 c-120 -39 -222 -113 -293 -214 -51 -72 -59 -97 -46 -137
15 -43 54 -54 167 -47 118 7 196 29 234 67 l28 29 -6 95 c-8 109 8 170 53 206
l26 20 -54 -1 c-30 0 -79 -8 -109 -18z m-37 -69 c-65 -59 -119 -132 -128 -172
-9 -43 10 -85 48 -103 l31 -15 -38 -7 c-82 -16 -166 12 -166 54 0 38 50 119
102 166 44 41 176 124 198 125 3 0 -18 -22 -47 -48z"/>
<path d="M3600 3567 c0 -2 9 -23 21 -46 33 -69 48 -163 59 -381 6 -113 15
-221 20 -241 31 -113 181 -219 311 -219 72 0 114 21 138 69 39 76 24 143 -53
230 -59 66 -62 106 -14 172 45 60 44 117 0 187 -52 80 -173 184 -255 220 -39
17 -108 15 -135 -3 -19 -14 -24 -14 -51 0 -29 15 -41 18 -41 12z m150 -57
c-12 -22 -5 -76 16 -125 23 -57 45 -190 49 -301 4 -122 18 -165 72 -216 57
-54 160 -68 213 -29 l30 22 0 -35 c0 -73 -75 -114 -172 -96 -65 13 -100 32
-141 80 -47 55 -64 124 -77 308 -6 84 -17 190 -25 235 -19 105 -19 128 1 155
20 29 49 31 34 2z"/>
</g>
</svg>
